<?xml version="1.0" encoding="utf-8"?>
<!-- Generator: Adobe Illustrator 19.2.1, SVG Export Plug-In . SVG Version: 6.00 Build 0)  -->
<svg version="1.1" id="Layer_1" xmlns="http://www.w3.org/2000/svg" xmlns:xlink="http://www.w3.org/1999/xlink" x="0px" y="0px"
	 width="300px" height="73.7px" viewBox="0 0 300 73.7" style="enable-background:new 0 0 300 73.7;" xml:space="preserve">
<style type="text/css">
	.st0{fill:#FAAE19;}
</style>
<g>
	<path class="st0" d="M40.9,25.7c0,0.8-0.4,1.1-1.1,1.1h-1.4c-0.9,0-1.5,0.1-1.8,0.4c-0.3,0.3-0.4,0.8-0.4,1.6v0.5
		c0,0.8-0.4,1.1-1.1,1.1h-2.9c-0.8,0-1.1-0.4-1.1-1.1V29c0-0.9-0.1-1.6-0.4-1.9c-0.3-0.4-0.8-0.5-1.6-0.5c-0.9,0-1.4,0.2-1.7,0.7
		c-0.3,0.5-0.4,1.4-0.4,2.8v3.7c0.8-0.6,2.1-0.9,3.9-0.9H31c3.5,0,5.9,0.4,7.1,1.2c1.5,1,2.2,3,2.2,6.1v9.7c0.1,3-0.5,5-1.6,6.1
		c-1.1,1-3.1,1.5-6.1,1.5h-3.3c-3,0-5.1-0.5-6.1-1.5c-1.1-1.1-1.7-3.3-1.7-6.7V29.8c0-3,0.7-5.1,2-6.3c1.1-1,2.8-1.4,5.2-1.4
		c2.3,0,3.9,0.9,5,2.8h0.2c0.8-1.7,2.3-2.5,4.6-2.5h1.5c0.8,0,1.1,0.4,1.1,1.1V25.7z M34.9,40.8c-0.1-1.5-0.3-2.5-0.7-2.9
		c-0.5-0.5-1.5-0.7-3-0.7h-0.7c-1.5,0-2.5,0.2-3,0.6c-0.5,0.4-0.7,1.4-0.7,2.9v8.5c0,1.6,0.2,2.6,0.5,3.1c0.4,0.5,1.2,0.8,2.4,0.8
		H32c1.2,0,2-0.2,2.4-0.7c0.4-0.5,0.5-1.6,0.5-3.2V40.8z"/>
	<path class="st0" d="M53,24.6c0,1.6,1.4,4.2,4.2,7.9c2.8,3.7,4.2,6.9,4.2,9.8l0,7.4c0,3-0.5,5-1.4,6c-1,1.2-3.2,1.7-6.5,1.7h-2
		c-2.8,0-4.8-0.4-5.9-1.1c-1.3-0.9-2-2.7-2-5.3v-6.6c0-0.8,0.4-1.1,1.1-1.1h2.9c0.8,0,1.1,0.4,1.1,1.1v5.2c0,1.5,0.1,2.4,0.4,2.8
		c0.3,0.5,1.1,0.8,2.3,0.8h1.8c1.1,0,1.8-0.2,2.2-0.6c0.4-0.5,0.6-1.4,0.6-2.7l0-7.6c0-1.7-0.4-3.3-1.3-5c-0.5-1-1.5-2.3-2.8-4
		l-0.8-0.9l-0.7-0.9c-0.5-0.7-1-1.4-1.3-2c-0.9-1.6-1.3-3.1-1.3-4.7v-1.1c0-0.8,0.4-1.1,1.1-1.1h2.9c0.8,0,1.1,0.4,1.1,1.1V24.6z"/>
	<path class="st0" d="M63.7,23.5c0-0.8,0.4-1.1,1.1-1.1H67c2.3,0,3.9,0.9,4.8,2.6H72c1.1-1.9,2.8-2.9,5.2-2.9c2.4,0,4.2,0.4,5.3,1.3
		c1.6,1.1,2.3,3.2,2.3,6.1v20.4c0,2.9-0.6,4.9-1.8,6c-1.1,1-3,1.5-5.5,1.5h-3.8c-3.3,0-5.4-0.4-6.4-1.3c-1.1-1-1.7-3.2-1.7-6.6v-5.2
		c0-0.8,0.4-1.1,1.1-1.1h3c0.8,0,1.1,0.4,1.1,1.1v4.8c0,1.6,0.2,2.6,0.5,3.1c0.4,0.5,1.1,0.8,2.3,0.8H77c1,0,1.7-0.3,2.1-0.8
		c0.3-0.5,0.5-1.4,0.5-2.8V29.6c0-1.3-0.2-2.2-0.7-2.6c-0.4-0.3-1-0.5-2-0.5c-0.9,0-1.5,0.2-1.8,0.7c-0.3,0.5-0.4,1.5-0.4,2.9v6
		c0,0.8-0.4,1.1-1.1,1.1h-3.2c-0.8,0-1.1-0.4-1.1-1.1v-5.7c0-1.2-0.1-2.1-0.4-2.6c-0.3-0.6-0.9-0.9-1.8-0.9h-2.1
		c-0.8,0-1.1-0.4-1.1-1.1V23.5z"/>
	<path class="st0" d="M96.5,57.4c-2.9,0-4.8-0.5-5.9-1.5c-1.2-1.1-1.7-3.3-1.7-6.6V23.5c0-0.8,0.4-1.1,1.1-1.1h3.1
		c0.8,0,1.1,0.4,1.1,1.1v25.7c0,1.5,0.2,2.5,0.5,3c0.4,0.6,1.2,0.9,2.4,0.9h1.7c1.2,0,2-0.3,2.4-0.8c0.3-0.4,0.5-1.3,0.5-2.7V33.9
		c0-0.8,0.4-1.1,1.1-1.1h3c0.8,0,1.1,0.4,1.1,1.1v15.2c0,3.5-0.6,5.8-1.8,6.9c-1,1-3,1.4-5.8,1.4H96.5z"/>
	<path class="st0" d="M127.3,25.4c0,0.8-0.4,1.1-1.1,1.1h-8c-0.9,0-1.5,0.3-1.8,0.8c-0.2,0.5-0.3,1.4-0.3,2.8v3.1
		c0.9-0.6,2.1-0.9,3.7-0.9h1.7c3.1,0,5.1,0.6,6.1,1.9c0.7,1,1.1,2.8,1.1,5.5v9.9c0,3.1-0.5,5.2-1.5,6.2c-1,1.1-3.1,1.6-6.1,1.6h-2.5
		c-3,0-5.1-0.5-6.1-1.6c-1-1-1.5-3-1.5-5.9V29.3c0-2.6,0.6-4.5,1.7-5.4c1-1,2.9-1.4,5.6-1.4h8c0.8,0,1.1,0.4,1.1,1.1V25.4z
		 M116,49.6c0,1.5,0.2,2.4,0.6,2.9c0.4,0.5,1.3,0.7,2.6,0.7h0.8c1.4,0,2.2-0.2,2.6-0.6c0.5-0.4,0.7-1.4,0.7-2.9v-10
		c0-1.3-0.2-2.1-0.6-2.6c-0.4-0.4-1.2-0.6-2.4-0.6H119c-1.4,0-2.3,0.3-2.6,0.8c-0.3,0.4-0.4,1.2-0.4,2.5V49.6z"/>
	<path class="st0" d="M133.5,57.1c-0.8,0-1.1-0.4-1.1-1.1V29.8c0-2.8,0.5-4.8,1.5-5.9c1.1-1.2,3.1-1.8,5.9-1.8h3.3
		c3,0,5.1,0.8,6.2,2.3c0.8,1.1,1.2,3,1.2,5.7v25.9c0,0.8-0.4,1.1-1.1,1.1h-2.9c-0.8,0-1.1-0.4-1.1-1.1V29.8c0-1.4-0.2-2.3-0.5-2.7
		c-0.4-0.5-1.3-0.8-2.5-0.8h-1.6c-1.3,0-2.1,0.3-2.5,0.8c-0.4,0.5-0.5,1.5-0.5,3v25.9c0,0.8-0.4,1.1-1.1,1.1H133.5z"/>
	<path class="st0" d="M171.3,22.4c0.8,0,1.1,0.4,1.1,1.1v5.4c0,1.1-0.3,2.1-0.9,3.1c-0.5,0.8-1.2,1.6-2,2.3v0.2
		c0.9,0.2,1.6,0.8,2.1,1.7c0.5,0.8,0.7,1.5,0.7,2.3v10.7c0,3.3-0.5,5.4-1.6,6.5c-1.1,1.1-3.1,1.6-6.2,1.6h-3.1c-3,0-5.1-0.5-6.1-1.6
		c-1.1-1.1-1.7-3.2-1.7-6.4v-5.1c0-0.8,0.4-1.1,1.1-1.1h3.1c0.8,0,1.1,0.4,1.1,1.1v4.8c0,1.6,0.2,2.7,0.6,3.1
		c0.4,0.5,1.3,0.8,2.6,0.8h1.3c1.4,0,2.3-0.2,2.8-0.5c0.5-0.5,0.8-1.5,0.8-3.1v-9.7c0-1.3-0.2-2.1-0.5-2.5c-0.4-0.4-1.3-0.5-2.9-0.5
		h-2.2c-0.8,0-1.1-0.4-1.1-1.1v-2.1c0-0.8,0.4-1.1,1.1-1.1h2.2c1.5,0,2.5-0.3,2.9-0.8c0.4-0.4,0.5-1.4,0.5-2.8v-5.1
		c0-0.8,0.4-1.1,1.1-1.1H171.3z"/>
	<path class="st0" d="M181.3,49.1c0,1.6,0.2,2.6,0.5,3.1c0.4,0.5,1.1,0.8,2.3,0.8h2.8c1,0,1.7-0.3,2.1-0.8c0.3-0.5,0.5-1.4,0.5-2.8
		V29.7c0-1.3-0.2-2.1-0.6-2.6c-0.4-0.4-1.4-0.6-2.8-0.6h-1.3c-1.8,0-2.8,1.1-2.9,3.3v1.4c0,0.8-0.4,1.1-1.1,1.1h-3
		c-0.8,0-1.1-0.4-1.1-1.1v-1.1c0-3.2,0.7-5.4,2-6.5c1.1-1,3.1-1.5,6-1.5h1.8c3.5,0,5.8,0.5,7,1.6c1.1,1,1.6,3,1.6,5.8v20.3
		c0,2.9-0.6,4.9-1.8,6c-1.1,1-3,1.5-5.5,1.5H184c-3.3,0-5.4-0.4-6.4-1.3c-1.1-1-1.7-3.2-1.7-6.6l0-5.2c0-0.8,0.4-1.1,1.1-1.1h3.1
		c0.8,0,1.1,0.4,1.1,1.1V49.1z"/>
	<path class="st0" d="M221.9,25.5c0,0.8-0.4,1.1-1.1,1.1h-12.7c-2.7,0-4.1,1.5-4.1,4.4v2.5c1-0.8,2.1-1.2,3.3-1.2
		c2.2,0,3.7,0.8,4.6,2.4h0.2c0.4-0.7,1-1.3,1.9-1.7c0.9-0.4,1.8-0.6,2.7-0.6c2.7,0,4.6,0.3,5.7,1c1.7,1.1,2.5,3.3,2.5,6.7v15.9
		c0,0.8-0.4,1.1-1.1,1.1h-3c-0.8,0-1.1-0.4-1.1-1.1v-0.5l0-14.8c0-1.8-0.2-2.9-0.6-3.4c-0.3-0.4-1.1-0.5-2.3-0.5
		c-0.9,0-1.5,0.3-1.8,0.9c-0.3,0.5-0.4,1.4-0.4,2.6v8.2c0,0.8-0.4,1.1-1.1,1.1h-3.2c-0.8,0-1.1-0.4-1.1-1.1v-8.1
		c0-1.4-0.1-2.3-0.4-2.9c-0.3-0.5-0.9-0.7-1.8-0.7c-1,0-1.6,0.2-2,0.5c-0.5,0.5-0.8,1.3-0.8,2.6v16c0,0.8-0.4,1.1-1.1,1.1h-3
		c-0.8,0-1.1-0.4-1.1-1.1V30.6c0-2.6,0.8-4.7,2.3-6.1c1.6-1.4,3.8-2.1,6.6-2.1h13c0.8,0,1.1,0.4,1.1,1.1V25.5z"/>
	<path class="st0" d="M236.3,57.4c-2.9,0-4.8-0.5-5.9-1.5c-1.2-1.1-1.7-3.3-1.7-6.6V23.5c0-0.8,0.4-1.1,1.1-1.1h3.1
		c0.8,0,1.1,0.4,1.1,1.1v25.7c0,1.5,0.2,2.5,0.5,3c0.4,0.6,1.2,0.9,2.4,0.9h1.7c1.2,0,2-0.3,2.4-0.8c0.3-0.4,0.5-1.3,0.5-2.7V33.9
		c0-0.8,0.4-1.1,1.1-1.1h3c0.8,0,1.1,0.4,1.1,1.1v15.2c0,3.5-0.6,5.8-1.8,6.9c-1,1-3,1.4-5.8,1.4H236.3z"/>
	<path class="st0" d="M255.7,49.1c0,1.6,0.2,2.6,0.5,3.1c0.4,0.5,1.1,0.8,2.3,0.8h2.8c1,0,1.7-0.3,2.1-0.8c0.3-0.5,0.5-1.4,0.5-2.8
		V29.7c0-1.3-0.2-2.1-0.6-2.6c-0.4-0.4-1.4-0.6-2.8-0.6h-1.3c-1.8,0-2.8,1.1-2.9,3.3v1.4c0,0.8-0.4,1.1-1.1,1.1h-3
		c-0.8,0-1.1-0.4-1.1-1.1v-1.1c0-3.2,0.7-5.4,2-6.5c1.1-1,3.1-1.5,6-1.5h1.8c3.5,0,5.8,0.5,7,1.6c1.1,1,1.6,3,1.6,5.8v20.3
		c0,2.9-0.6,4.9-1.8,6c-1.1,1-3,1.5-5.5,1.5h-3.4c-3.3,0-5.4-0.4-6.4-1.3c-1.1-1-1.7-3.2-1.7-6.6l0-5.2c0-0.8,0.4-1.1,1.1-1.1h3.1
		c0.8,0,1.1,0.4,1.1,1.1V49.1z"/>
	<path class="st0" d="M280.7,46.8c0,0.8-0.4,1.2-1.2,1.2h-3.1c-0.8,0-1.2-0.4-1.2-1.2l-0.7-9.1V24.7c0-0.9,0.4-1.3,1.2-1.3h4.4
		c0.8,0,1.2,0.4,1.2,1.3v13.1L280.7,46.8z M281.2,55.8c0,0.8-0.4,1.2-1.2,1.2h-4.3c-0.8,0-1.2-0.4-1.2-1.2v-4c0-0.8,0.4-1.2,1.2-1.2
		h4.3c0.8,0,1.2,0.4,1.2,1.2V55.8z"/>
</g>
</svg>
