<?xml version="1.0" encoding="utf-8"?>
<!-- Generator: Adobe Illustrator 19.2.1, SVG Export Plug-In . SVG Version: 6.00 Build 0)  -->
<svg version="1.1" id="Layer_1" xmlns="http://www.w3.org/2000/svg" xmlns:xlink="http://www.w3.org/1999/xlink" x="0px" y="0px"
	 width="300px" height="126px" viewBox="0 0 300 126" style="enable-background:new 0 0 300 126;" xml:space="preserve">
<style type="text/css">
	.st0{fill:#FFFFFF;}
</style>
<g>
	<path class="st0" d="M93.3,19.6c-0.8,0-1.2-0.4-1.2-1.2c0-2.5,0.6-4.2,1.8-5.3c1.2-1.2,3.3-1.8,6.2-1.8h3.5c3,0,5.2,0.8,6.4,2.4
		c1,1.3,1.6,3.6,1.6,6.6v20.1c0,3.1-0.6,5.2-1.8,6.2c-1.2,1.1-3.3,1.6-6.5,1.6h-3c-3.1,0-5.2-0.4-6.2-1.3c-1.3-1.1-2-3.4-2-6.9V29.5
		c0-3,0.6-5,1.9-6c1.2-1,3.5-1.5,7-1.5h1.6c0.7,0,1.3,0.1,1.9,0.3c0.5,0.2,1,0.4,1.5,0.7v-3.6c0-1.4-0.2-2.3-0.7-2.9
		c-0.4-0.4-1.1-0.6-2.2-0.6h-2.4c-2,0-3.1,0.8-3.1,2.4c0,0.8-0.4,1.2-1.2,1.2h-3.1V19.6z M97.7,39.7c0,1.8,0.3,3,0.8,3.5
		c0.4,0.3,1.4,0.5,2.9,0.5h0.9c1.5,0,2.5-0.2,2.9-0.7c0.5-0.6,0.7-1.7,0.7-3.6v-9.3c0-1.4-0.2-2.3-0.7-2.7c-0.4-0.5-1.4-0.7-2.9-0.7
		h-1.2c-1.6,0-2.6,0.3-3.1,0.8c-0.3,0.4-0.5,1.3-0.5,2.7v9.5H97.7z"/>
	<path class="st0" d="M127.6,37.5c-0.8,0-1.2-0.4-1.2-1.2V19.7c0-1.5-0.2-2.5-0.5-3s-1-0.8-1.9-0.8c-1,0-1.7,0.2-2.1,0.5
		c-0.6,0.5-0.8,1.4-0.8,2.7v27.5c0,0.8-0.4,1.2-1.2,1.2h-3.1c-0.8,0-1.2-0.4-1.2-1.2V19c0-3.1,0.8-5.2,2.5-6.4
		c1.2-0.9,3.1-1.3,5.5-1.3c2.5,0,4.3,0.9,5.4,2.7h0.3c0.5-0.8,1.2-1.4,2.1-1.9c1-0.5,1.9-0.8,2.9-0.8c2.9,0,4.9,0.3,6,1
		c1.8,1.1,2.6,3.5,2.6,7v27.4c0,0.8-0.4,1.2-1.2,1.2h-3.2c-0.8,0-1.2-0.4-1.2-1.2v-0.5l0.1-26.2c0-1.9-0.2-3-0.7-3.5
		c-0.3-0.4-1.1-0.6-2.4-0.6c-0.9,0-1.6,0.3-1.9,1c-0.3,0.5-0.4,1.4-0.4,2.7v16.7c0,0.8-0.4,1.2-1.2,1.2
		C130.8,37.5,127.6,37.5,127.6,37.5z"/>
	<path class="st0" d="M148.4,47.9c-0.8,0-1.2-0.4-1.2-1.2V19.3c0-2.9,0.5-5,1.6-6.2c1.1-1.3,3.2-1.9,6.2-1.9h3.4
		c3.2,0,5.3,0.8,6.5,2.4c0.8,1.2,1.2,3.2,1.2,6v27.1c0,0.8-0.4,1.2-1.2,1.2h-3.1c-0.8,0-1.2-0.4-1.2-1.2V19.3c0-1.4-0.2-2.4-0.6-2.9
		c-0.4-0.6-1.3-0.8-2.6-0.8h-1.7c-1.3,0-2.2,0.3-2.6,0.8c-0.4,0.5-0.6,1.6-0.6,3.2v27.1c0,0.8-0.4,1.2-1.2,1.2H148.4z"/>
	<path class="st0" d="M170.8,17.5c0-1.8,0.5-3.2,1.6-4.2c1.3-1.3,3.3-2,6.1-2c2.9,0,4.9,0.5,6,1.6c1.2,1.1,1.8,3.1,1.8,5.9v3.9
		c1.3,0.4,2.3,1.3,2.8,2.5c0.4,1,0.6,2.6,0.6,4.7v9.5c0,3.6-0.6,6-1.7,7.2c-1.1,1.1-3.3,1.7-6.6,1.7h-3.1c-3.5,0-5.9-0.7-7-2.1
		c-0.9-1.1-1.3-3.2-1.3-6.3V29.6c0-3.1,0.8-5.3,2.3-6.4c1.2-0.8,3.3-1.2,6.3-1.2h2.3v-4.4c0-0.8-0.1-1.3-0.4-1.6
		c-0.3-0.3-1-0.5-2.1-0.5c-0.8,0-1.4,0.2-1.8,0.6c-0.2,0.3-0.4,0.7-0.4,1.3v0.5c0,0.8-0.4,1.2-1.2,1.2h-3c-0.8,0-1.2-0.4-1.2-1.2
		V17.5z M175.6,39.9c0,1.5,0.2,2.5,0.6,3.1c0.4,0.5,1.2,0.7,2.4,0.7h2.5c1.2,0,2.1-0.3,2.4-0.8c0.4-0.5,0.6-1.6,0.6-3.2v-9.3
		c0-1.6-0.3-2.6-0.8-3.1c-0.5-0.4-1.4-0.7-2.9-0.7h-1.2c-1.6,0-2.6,0.3-3.1,0.8c-0.4,0.5-0.6,1.4-0.6,2.8v9.7H175.6z"/>
	<path class="st0" d="M199.1,39.6c0,1.7,0.2,2.7,0.5,3.3c0.4,0.6,1.2,0.8,2.4,0.8h2.9c1.1,0,1.8-0.3,2.2-0.9
		c0.3-0.5,0.5-1.5,0.5-2.9V19.3c0-1.3-0.2-2.2-0.6-2.7c-0.4-0.4-1.4-0.7-3-0.7h-1.4c-1.9,0-3,1.1-3.1,3.4v1.5c0,0.8-0.4,1.2-1.2,1.2
		h-3.1c-0.8,0-1.2-0.4-1.2-1.2v-1.2c0-3.4,0.7-5.6,2.1-6.8c1.2-1,3.3-1.6,6.3-1.6h1.9c3.7,0,6.1,0.6,7.3,1.7
		c1.1,1.1,1.7,3.1,1.7,6.1v21.3c0,3-0.6,5.1-1.9,6.3c-1.2,1.1-3.1,1.6-5.8,1.6H202c-3.4,0-5.7-0.5-6.7-1.4c-1.2-1-1.8-3.3-1.8-6.9
		l-0.1-5.4c0-0.8,0.4-1.2,1.2-1.2h3.2c0.8,0,1.2,0.4,1.2,1.2v5.1H199.1z"/>
	<path class="st0" d="M79.6,70c0,0.9,0.4,1.7,1.3,2.5c0.3,0.3,0.8,0.7,1.4,1l1.6,1c2.9,1.8,4.3,3.5,4.3,5.2v2c0,2.4-0.9,4-2.7,4.9
		v0.3c0.9,0.3,1.7,1.1,2.4,2.2c0.6,1,0.9,1.9,0.9,2.7v5c0,3-0.6,5.1-1.9,6.3c-1.2,1.1-3.1,1.6-5.8,1.6h-3.9c-3.4,0-5.7-0.5-6.7-1.4
		c-1.1-1-1.7-3.3-1.8-6.9L68.6,91c0-0.8,0.4-1.2,1.2-1.2H73c0.8,0,1.2,0.4,1.2,1.2l0.1,5c0,1.9,0.1,3,0.3,3.3
		c0.3,0.6,1.2,0.8,2.6,0.8h3.3c1.1,0,1.8-0.3,2.2-0.9c0.3-0.5,0.5-1.5,0.5-2.9v-3.7c0-1.6-0.2-2.6-0.6-3.1s-1.3-0.7-2.6-0.7h-0.8
		c-0.6,0-0.9-0.3-0.9-0.8v-3.1c0-0.4,0.3-0.7,0.9-0.7c1.5,0,2.5-0.2,3-0.6c0.4-0.3,0.6-1,0.6-2v-1.7c0-0.9-0.4-1.6-1.3-2.2
		c-0.3-0.2-0.8-0.5-1.3-0.8l-0.8-0.4l-0.8-0.4c-2.8-1.5-4.3-3.6-4.3-6.3v-0.7c0-0.8,0.4-1.2,1.2-1.2h3.1c0.8,0,1.2,0.4,1.2,1.2V70
		H79.6z"/>
	<path class="st0" d="M116.9,71.4c0,0.8-0.4,1.2-1.2,1.2h-13.3c-2.9,0-4.3,1.5-4.3,4.6v2.6c1-0.8,2.2-1.2,3.5-1.2
		c2.3,0,3.9,0.8,4.8,2.5h0.3c0.4-0.8,1.1-1.4,2-1.8s1.8-0.7,2.8-0.7c2.9,0,4.9,0.3,6,1c1.8,1.1,2.6,3.5,2.6,7v16.7
		c0,0.8-0.4,1.2-1.2,1.2h-3.2c-0.8,0-1.2-0.4-1.2-1.2v-0.5l0.1-15.4c0-1.9-0.2-3-0.7-3.5c-0.3-0.4-1.1-0.6-2.4-0.6
		c-0.9,0-1.6,0.3-1.9,1c-0.3,0.5-0.4,1.4-0.4,2.7v8.6c0,0.8-0.4,1.2-1.2,1.2h-3.3c-0.8,0-1.2-0.4-1.2-1.2V87c0-1.5-0.2-2.5-0.5-3
		s-1-0.8-1.9-0.8c-1,0-1.7,0.2-2.1,0.5c-0.6,0.5-0.8,1.4-0.8,2.7v16.8c0,0.8-0.4,1.2-1.2,1.2h-3.1c-0.8,0-1.2-0.4-1.2-1.2V76.8
		c0-2.8,0.8-4.9,2.4-6.4s3.9-2.2,6.9-2.2h13.6c0.8,0,1.2,0.4,1.2,1.2L116.9,71.4L116.9,71.4z"/>
	<path class="st0" d="M125.3,104.5c-0.8,0-1.2-0.4-1.2-1.2V75.9c0-2.9,0.5-5,1.6-6.2c1.1-1.3,3.2-1.9,6.2-1.9h3.4
		c3.2,0,5.3,0.8,6.5,2.4c0.8,1.2,1.2,3.2,1.2,6v27.1c0,0.8-0.4,1.2-1.2,1.2h-3.1c-0.8,0-1.2-0.4-1.2-1.2V75.9c0-1.4-0.2-2.4-0.6-2.9
		c-0.4-0.6-1.3-0.8-2.6-0.8h-1.7c-1.3,0-2.2,0.3-2.6,0.8c-0.4,0.5-0.6,1.6-0.6,3.2v27.1c0,0.8-0.4,1.2-1.2,1.2
		C128.2,104.5,125.3,104.5,125.3,104.5z"/>
	<path class="st0" d="M155,67.8c2.3,0,4,0.7,5.1,2c0.9,1.1,1.3,2.6,1.3,4.4c0,2.2-0.5,3.7-1.6,4.6c4.5,0.6,6.7,3.1,6.7,7.7v10.2
		c0,3.5-0.4,5.7-1.3,6.6c-1,1.1-3.3,1.7-7,1.7H156c-3.5,0-5.7-0.6-6.7-1.7s-1.5-3.4-1.5-7.1v-9.3c0-0.9,0.2-1.9,0.5-2.9
		c0.4-1.2,1-2.1,1.6-2.5c-2.6-1.2-3.9-3.4-3.9-6.4c0-4.7,2.3-7.1,6.9-7.1h2.1V67.8z M151.1,76.2c0,0.7,0.2,1.4,0.5,1.9
		c0.1,0.2,0.3,0.4,0.5,0.5l0.2,0.2l0.2,0.1c0.7-0.2,1.8-0.3,3.5-0.4c0.3-0.6,0.5-1.4,0.5-2.4v-2c0-0.9-0.2-1.6-0.5-1.9
		c-0.4-0.4-1.1-0.6-2-0.6c-1.8,0-2.7,0.8-2.7,2.5v2.1H151.1z M153.2,96.4c0,1.9,0.3,3,0.8,3.5c0.4,0.3,1.3,0.5,2.7,0.5h0.8
		c1.5,0,2.5-0.2,2.9-0.5c0.4-0.4,0.7-1.3,0.7-2.7V86.4c0-1.4-0.2-2.3-0.6-2.7c-0.4-0.5-1.3-0.7-2.7-0.7h-1.3c-1.4,0-2.3,0.3-2.7,0.8
		s-0.6,1.5-0.6,3L153.2,96.4L153.2,96.4z"/>
	<path class="st0" d="M175.8,96.2c0,1.7,0.2,2.7,0.5,3.3c0.4,0.6,1.2,0.8,2.4,0.8h2.9c1.1,0,1.8-0.3,2.2-0.9
		c0.3-0.5,0.5-1.5,0.5-2.9V75.8c0-1.3-0.2-2.2-0.6-2.7c-0.4-0.4-1.4-0.7-3-0.7h-1.4c-1.9,0-3,1.1-3.1,3.4v1.5c0,0.8-0.4,1.2-1.2,1.2
		h-3c-0.8,0-1.2-0.4-1.2-1.2v-1.2c0-3.4,0.7-5.6,2.1-6.8c1.2-1,3.3-1.6,6.3-1.6h1.9c3.7,0,6.1,0.6,7.3,1.7c1.1,1.1,1.7,3.1,1.7,6.1
		v21.3c0,3-0.6,5.1-1.9,6.3c-1.2,1.1-3.1,1.6-5.8,1.6h-3.5c-3.4,0-5.7-0.5-6.7-1.4c-1.2-1-1.8-3.3-1.8-6.9l-0.1-5.4
		c0-0.8,0.4-1.2,1.2-1.2h3.2c0.8,0,1.2,0.4,1.2,1.2L175.8,96.2L175.8,96.2z"/>
	<path class="st0" d="M202.6,70.2c0,1,0.3,1.8,0.8,2.4c0.2,0.2,0.4,0.4,0.8,0.6l0.9,0.5c1.6,1,2.4,2.6,2.4,4.9
		c2.3,0.1,3.9,1,4.9,2.5c0.7,1.1,1,2.8,1,4.9v10.3c0,3.6-0.5,5.9-1.5,6.9s-3.2,1.5-6.7,1.5h-3c-3.2,0-5.4-0.4-6.4-1.3
		c-1.2-1.1-1.9-3.5-1.9-7.1V86.1c0-2.9,0.6-4.9,1.9-6c1.2-1,3.4-1.6,6.4-1.6c0-1.1-0.3-2-0.8-2.5c-0.2-0.2-0.5-0.5-0.8-0.7l-0.5-0.3
		l-0.5-0.3c-1.8-0.9-2.6-2.3-2.6-4.3v-1.1c0-0.8,0.4-1.2,1.2-1.2h3.2c0.8,0,1.2,0.4,1.2,1.2L202.6,70.2L202.6,70.2z M199.6,96.5
		c0.1,1.6,0.3,2.7,0.7,3.1s1.3,0.7,2.7,0.7h1.1c1.6,0,2.6-0.2,3-0.7c0.4-0.4,0.6-1.6,0.6-3.3v-9.4c0-1.6-0.2-2.5-0.6-3
		c-0.4-0.5-1.5-0.8-3.1-0.8h-0.9c-1.6,0-2.6,0.2-3.1,0.7c-0.4,0.4-0.6,1.3-0.6,2.7v10H199.6z"/>
	<path class="st0" d="M218.6,104.5c-0.8,0-1.2-0.4-1.2-1.2V75.9c0-2.9,0.5-5,1.6-6.2c1.1-1.3,3.2-1.9,6.2-1.9h3.4
		c3.2,0,5.3,0.8,6.5,2.4c0.8,1.2,1.2,3.2,1.2,6v27.1c0,0.8-0.4,1.2-1.2,1.2H232c-0.8,0-1.2-0.4-1.2-1.2V75.9c0-1.4-0.2-2.4-0.6-2.9
		c-0.4-0.6-1.3-0.8-2.6-0.8H226c-1.3,0-2.2,0.3-2.6,0.8c-0.4,0.5-0.6,1.6-0.6,3.2v27.1c0,0.8-0.4,1.2-1.2,1.2
		C221.6,104.5,218.6,104.5,218.6,104.5z"/>
</g>
</svg>
