<?xml version="1.0" encoding="utf-8"?>
<!-- Generator: Adobe Illustrator 19.2.1, SVG Export Plug-In . SVG Version: 6.00 Build 0)  -->
<svg version="1.1" id="Layer_1" xmlns="http://www.w3.org/2000/svg" xmlns:xlink="http://www.w3.org/1999/xlink" x="0px" y="0px"
	 width="300px" height="54px" viewBox="0 0 300 54" style="enable-background:new 0 0 300 54;" xml:space="preserve">
<style type="text/css">
	.st0{fill:#FCAF17;}
</style>
<g>
	<path class="st0" d="M18.6,23.3c0,1.1,0.6,2.2,1.9,3.5c0.5,0.5,1.1,1,2,1.6l2.3,1.7c2,1.4,3.4,2.7,4.2,3.6c1.2,1.5,1.9,3,1.9,4.6
		v2.3c0,2.9-0.4,4.9-1.3,5.9c-1,1.1-3.1,1.7-6.3,1.7h-2c-2.8,0-4.7-0.4-5.7-1.1c-1.3-0.9-1.9-2.6-1.9-5.1v-1.2
		c0-0.7,0.4-1.1,1.1-1.1h2.8c0.7,0,1.1,0.4,1.1,1.1v-0.1c0,1.4,0.1,2.4,0.4,2.7c0.3,0.5,1.1,0.8,2.3,0.8h1.7c1.1,0,1.8-0.2,2.2-0.6
		c0.4-0.4,0.6-1.3,0.6-2.6v-2.2c0-1.1-0.6-2.2-1.9-3.5c-0.5-0.5-1.1-1-1.9-1.6L19.8,32c-4.1-3-6.1-5.8-6.1-8.3v-2.3
		c0-2.9,0.5-4.8,1.3-5.8c1-1.2,3.1-1.7,6.3-1.7h2c2.8,0,4.7,0.4,5.7,1.1c1.3,0.9,1.9,2.6,1.9,5.1v1.2c0,0.7-0.4,1.1-1.1,1.1H27
		c-0.7,0-1.1-0.4-1.1-1.1v0.1c0-1.4-0.1-2.3-0.4-2.7c-0.4-0.5-1.1-0.8-2.3-0.8h-1.7c-1.1,0-1.8,0.2-2.1,0.6
		c-0.4,0.4-0.6,1.3-0.6,2.6L18.6,23.3z"/>
	<path class="st0" d="M51.5,14.2c0.7,0,1.1,0.4,1.1,1.1v31.4c0,0.7-0.4,1.1-1.1,1.1h-2.8c-0.4,0-0.6-0.1-0.9-0.4
		c-0.2-0.2-0.4-0.4-0.5-0.9l-6.9-18.2v18.4c0,0.7-0.4,1.1-1.1,1.1h-2.8c-0.7,0-1.1-0.4-1.1-1.1V15.3c0-0.7,0.4-1.1,1.1-1.1h2.8h0.1
		h0.2c0.2,0,0.3,0.1,0.4,0.2l0.1,0.1l0.1,0.1l0.1,0.2l7.2,18.9V15.3c0-0.7,0.4-1.1,1.1-1.1H51.5z"/>
	<path class="st0" d="M60.8,14.2c0.7,0,1.1,0.4,1.1,1.1v31.4c0,0.7-0.4,1.1-1.1,1.1H58c-0.7,0-1.1-0.4-1.1-1.1V15.3
		c0-0.7,0.4-1.1,1.1-1.1H60.8z"/>
	<path class="st0" d="M79.2,40c0-0.7,0.4-1.1,1.1-1.1h3c0.7,0,1.1,0.4,1.1,1.1v0.5c0,3.3-0.5,5.4-1.6,6.4c-1,0.9-3,1.3-6.2,1.3h-3.3
		c-2.5,0-4.3-0.5-5.4-1.5c-1.2-1.1-1.8-3.1-1.8-5.9V21.1c0-2.8,0.5-4.7,1.5-5.6c1.1-1.1,3.4-1.6,6.8-1.6h1.7c2.8,0,4.7,0.5,5.8,1.4
		c1.3,1.1,1.9,3.2,1.9,6.3v0.2c0,0.7-0.4,1.1-1.1,1.1h-2.9c-0.7,0-1.1-0.4-1.1-1.1v-0.5c-0.1-2.1-1-3.2-2.8-3.2h-1.3
		c-1.4,0-2.3,0.2-2.7,0.7c-0.4,0.4-0.6,1.2-0.6,2.4v19.1c0,1.3,0.2,2.2,0.5,2.7c0.4,0.5,1,0.8,2,0.8h2.7c1.1,0,1.9-0.3,2.2-0.8
		C79,42.5,79.2,41.5,79.2,40C79.2,40,79.2,40,79.2,40z"/>
	<path class="st0" d="M99.1,31.6c3.8,9.9,5.8,14.9,5.9,15.1c0.1,0.3,0,0.5-0.2,0.7c-0.2,0.3-0.5,0.4-0.9,0.4h-2.7
		c-0.5,0-0.9-0.4-1.2-1.1c-1.8-4.6-3.6-9.3-5.6-14.2h-0.8c-0.3,0-0.4,0-0.5,0.1c0,0-0.1,0.2-0.1,0.5v13.5c0,0.7-0.4,1.1-1.1,1.1H89
		c-0.7,0-1.1-0.4-1.1-1.1V15.3c0-0.7,0.4-1.1,1.1-1.1h2.8c0.7,0,1.1,0.4,1.1,1.1v12c0,0.4,0.1,0.6,0.2,0.6l0,0h0.1
		c0.3,0.1,0.5-0.1,0.6-0.4c1.9-5,3.5-9.1,4.7-12.3c0.3-0.7,0.7-1.1,1.2-1.1h2.4c0.4,0,0.7,0.1,0.9,0.4c0.2,0.2,0.2,0.5,0.2,0.7
		c-0.1,0.2-1.7,4.3-4.9,12.5l-0.1,0.4v0.5c0,0.2,0,0.4,0,0.7l0.1,0.3v0.3C98.6,30.4,98.8,31,99.1,31.6z"/>
	<path class="st0" d="M126.5,43.6c0.2,0.1,0.3,0.3,0.3,0.7V47c0,0.3-0.1,0.5-0.3,0.7c-0.2,0.1-0.4,0.1-0.6,0.1h-15.2
		c-0.7,0-1.1-0.4-1.1-1.1V15.4c0-0.7,0.4-1.1,1.1-1.1h14.6c0.5,0,0.8,0,0.9,0.1s0.2,0.3,0.2,0.6v2.7c0,0.4-0.2,0.6-0.5,0.6
		c-0.4,0.1-0.8,0.1-1.3,0.1h-9c-0.4,0-0.7,0.1-0.9,0.2v0.1v0.1v8.4v0.3c0,0.1,0,0.2,0.1,0.2c0.1,0.1,0.4,0.2,0.7,0.2h8
		c0.6,0,0.9,0.1,1.1,0.2s0.2,0.4,0.1,0.7l-0.3,2.5c0,0.5-0.3,0.8-0.7,0.8c-0.4,0-0.8,0-1.2,0h-6.7c-0.4,0-0.8,0.1-0.9,0.2
		c-0.2,0.2-0.2,0.4-0.2,0.8V42c0,0.5,0.1,0.8,0.3,0.9c0.2,0.1,0.5,0.1,0.8,0.1h9.5C125.9,43.4,126.3,43.4,126.5,43.6z"/>
	<path class="st0" d="M148.6,27.3c0,2.2-0.3,3.7-0.8,4.6c-0.7,1.2-2.2,1.9-4.4,2.2h0.1c-0.3,0.1-0.5,0.2-0.5,0.2
		c0,0.1,0,0.2,0.1,0.5l5,11.5c0.3,0.6,0.4,1,0.3,1.2c-0.1,0.2-0.3,0.3-0.7,0.3h-3.6c-0.4,0-0.6-0.1-0.8-0.3c-0.1-0.2-0.3-0.5-0.4-1
		l-5-11.9c-0.1-0.3-0.3-0.4-0.6-0.4h-1.7v12.4c0,0.7-0.4,1.1-1.1,1.1h-3c-0.7,0-1.1-0.4-1.1-1.1V13.9H141c3,0,5,0.6,6,1.7
		c0.9,1,1.3,3,1.3,6v5.7H148.6z M143.4,21.6c0-1.4-0.2-2.3-0.5-2.7c-0.4-0.4-1.2-0.7-2.4-0.7h-4.6V30h4.6c1.2,0,2-0.2,2.4-0.6
		s0.6-1.3,0.6-2.7v-5.1H143.4z"/>
	<path class="st0" d="M157.1,23.3c0,1.1,0.6,2.2,1.9,3.5c0.5,0.5,1.1,1,2,1.6l2.3,1.7c2,1.4,3.4,2.7,4.2,3.6c1.2,1.5,1.9,3,1.9,4.6
		v2.3c0,2.9-0.4,4.9-1.3,5.9c-1,1.1-3.1,1.7-6.3,1.7h-2c-2.8,0-4.7-0.4-5.7-1.1c-1.3-0.9-1.9-2.6-1.9-5.1v-1.2
		c0-0.7,0.4-1.1,1.1-1.1h2.8c0.7,0,1.1,0.4,1.1,1.1v-0.1c0,1.4,0.1,2.4,0.4,2.7c0.3,0.5,1.1,0.8,2.3,0.8h1.7c1.1,0,1.8-0.2,2.2-0.6
		c0.4-0.4,0.6-1.3,0.6-2.6v-2.2c0-1.1-0.6-2.2-1.9-3.5c-0.5-0.5-1.1-1-1.9-1.6l-2.3-1.7c-4.1-3-6.1-5.8-6.1-8.3v-2.3
		c0-2.9,0.5-4.8,1.3-5.8c1-1.2,3.1-1.7,6.3-1.7h2c2.8,0,4.7,0.4,5.7,1.1c1.3,0.9,1.9,2.6,1.9,5.1v1.2c0,0.7-0.4,1.1-1.1,1.1h-2.8
		c-0.7,0-1.1-0.4-1.1-1.1v0.1c0-1.4-0.1-2.3-0.4-2.7c-0.4-0.5-1.1-0.8-2.3-0.8H160c-1.1,0-1.8,0.2-2.1,0.6c-0.4,0.4-0.6,1.3-0.6,2.6
		L157.1,23.3z"/>
	<path class="st0" d="M179,46.9c0,0.6-0.3,0.9-0.9,0.9H175c-0.6,0-0.9-0.3-0.9-0.9v-3c0-0.6,0.3-1,0.9-1h3.1c0.6,0,0.9,0.3,0.9,1
		V46.9z"/>
	<path class="st0" d="M200.1,29.3c0.7,0,1.1,0.4,1.1,1.1v9.7c0,3.4-0.6,5.6-1.7,6.7c-1,0.9-2.8,1.4-5.7,1.4h-3.3
		c-2.8,0-4.7-0.5-5.7-1.4c-1.1-1.1-1.7-3.2-1.7-6.4V21.9c0-2.9,0.4-4.9,1.3-5.9c1.1-1.2,3.2-1.8,6.5-1.8h8c0.7,0,1.1,0.4,1.1,1.1v2
		c0,0.7-0.4,1.1-1.1,1.1h-7.6c-1.3,0-2.1,0.3-2.5,0.8c-0.3,0.4-0.5,1.4-0.5,2.8v18.1c0,1.4,0.2,2.4,0.5,2.9c0.4,0.6,1.2,0.9,2.4,0.9
		h2.1c1.2,0,2-0.3,2.3-0.8c0.3-0.4,0.5-1.3,0.5-2.6V34c0-0.3,0-0.5-0.1-0.6c-0.1-0.1-0.3-0.1-0.6-0.1h-2.9c-0.4,0-0.5-0.3-0.5-0.9
		v-2.2c0-0.6,0.2-0.9,0.5-0.9H200.1z"/>
	<path class="st0" d="M221.5,43.6c0.2,0.1,0.3,0.3,0.3,0.7V47c0,0.3-0.1,0.5-0.3,0.7c-0.2,0.1-0.4,0.1-0.6,0.1h-15.2
		c-0.7,0-1.1-0.4-1.1-1.1V15.4c0-0.7,0.4-1.1,1.1-1.1h14.6c0.5,0,0.8,0,0.9,0.1c0.1,0.1,0.2,0.3,0.2,0.6v2.7c0,0.4-0.2,0.6-0.5,0.6
		c-0.4,0.1-0.8,0.1-1.3,0.1h-9c-0.4,0-0.7,0.1-0.9,0.2v0.1v0.1v8.4v0.3c0,0.1,0,0.2,0.1,0.2c0.1,0.1,0.4,0.2,0.7,0.2h8
		c0.6,0,0.9,0.1,1.1,0.2c0.2,0.1,0.2,0.4,0.1,0.7l-0.3,2.5c0,0.5-0.3,0.8-0.7,0.8s-0.8,0-1.2,0h-6.7c-0.4,0-0.8,0.1-0.9,0.2
		c-0.2,0.2-0.2,0.4-0.2,0.8V42c0,0.5,0.1,0.8,0.3,0.9c0.2,0.1,0.5,0.1,0.8,0.1h9.5C220.9,43.4,221.3,43.4,221.5,43.6z"/>
	<path class="st0" d="M240.7,31.4c0.8,0,1.2,0.4,1.2,1.2v2.8c0,0.8-0.4,1.2-1.2,1.2h-12.9c-0.8,0-1.2-0.4-1.2-1.2v-2.8
		c0-0.8,0.4-1.2,1.2-1.2C227.8,31.4,240.7,31.4,240.7,31.4z"/>
	<path class="st0" d="M254.1,13.9c2.1,0,3.7,0.6,4.7,1.9c0.8,1,1.2,2.4,1.2,4c0,2-0.5,3.5-1.5,4.2c4.2,0.5,6.2,2.9,6.2,7.1v9.4
		c0,3.2-0.4,5.2-1.2,6.1c-0.9,1-3.1,1.5-6.5,1.5h-2.2c-3.2,0-5.3-0.5-6.2-1.5s-1.4-3.2-1.4-6.5v-8.6c0-0.8,0.2-1.7,0.5-2.7
		c0.4-1.1,0.9-1.9,1.5-2.4c-2.4-1.2-3.6-3.1-3.6-6c0-4.4,2.1-6.6,6.4-6.6h2.1V13.9z M250.4,21.6c0,0.7,0.2,1.3,0.5,1.8
		c0.1,0.2,0.3,0.4,0.4,0.5l0.2,0.2l0.1,0.1c0.6-0.2,1.7-0.3,3.2-0.4c0.3-0.5,0.4-1.3,0.4-2.3v-1.9c0-0.9-0.2-1.5-0.5-1.8
		c-0.4-0.4-1-0.5-1.9-0.5c-1.7,0-2.5,0.8-2.5,2.3v2H250.4z M252.3,40.3c0,1.7,0.3,2.8,0.8,3.3c0.4,0.3,1.2,0.5,2.5,0.5h0.8
		c1.4,0,2.3-0.1,2.6-0.4c0.4-0.4,0.6-1.2,0.6-2.5v-10c0-1.3-0.2-2.1-0.5-2.5c-0.4-0.4-1.2-0.7-2.5-0.7h-1.2c-1.3,0-2.2,0.3-2.5,0.8
		c-0.4,0.4-0.5,1.4-0.5,2.8v8.7H252.3z"/>
	<path class="st0" d="M273.3,40.1c0,1.5,0.2,2.5,0.5,3c0.4,0.5,1.1,0.8,2.2,0.8h2.7c1,0,1.7-0.3,2-0.8s0.5-1.4,0.5-2.7V21.3
		c0-1.2-0.2-2.1-0.6-2.5s-1.3-0.6-2.7-0.6h-1.3c-1.8,0-2.7,1.1-2.8,3.2v1.4c0,0.7-0.4,1.1-1.1,1.1h-2.9c-0.7,0-1.1-0.4-1.1-1.1v-1.1
		c0-3.1,0.6-5.2,1.9-6.3c1.1-1,3-1.4,5.8-1.4h1.7c3.4,0,5.6,0.5,6.8,1.6c1,1,1.5,2.9,1.5,5.7V41c0,2.8-0.6,4.7-1.8,5.9
		c-1.1,1-2.9,1.5-5.4,1.5H276c-3.2,0-5.2-0.4-6.2-1.3c-1.1-1-1.6-3.1-1.6-6.4v-5c0-0.7,0.4-1.1,1.1-1.1h3c0.7,0,1.1,0.4,1.1,1.1v4.4
		H273.3z"/>
</g>
</svg>
