<?xml version="1.0" encoding="utf-8"?>
<!-- Generator: Adobe Illustrator 19.2.1, SVG Export Plug-In . SVG Version: 6.00 Build 0)  -->
<svg version="1.1" id="Layer_1" xmlns="http://www.w3.org/2000/svg" xmlns:xlink="http://www.w3.org/1999/xlink" x="0px" y="0px"
	 width="300px" height="128px" viewBox="0 0 300 128" style="enable-background:new 0 0 300 128;" xml:space="preserve">
<style type="text/css">
	.st0{fill:#FFFFFF;}
</style>
<g>
	<path class="st0" d="M22,27.9c0-1.7,0.5-3,1.5-4c1.2-1.3,3.2-1.9,5.8-1.9c2.7,0,4.7,0.5,5.7,1.5c1.2,1.1,1.7,2.9,1.7,5.6v3.8
		c1.3,0.4,2.2,1.2,2.7,2.4c0.4,1,0.6,2.5,0.6,4.5v9.1c0,3.5-0.5,5.8-1.6,6.9c-1,1.1-3.1,1.6-6.3,1.6h-3c-3.4,0-5.6-0.7-6.7-2
		c-0.8-1.1-1.2-3.1-1.2-6v-9.8c0-3,0.7-5,2.2-6.1c1.1-0.8,3.1-1.2,6-1.2h2.2V28c0-0.8-0.1-1.3-0.3-1.5c-0.3-0.3-1-0.5-2-0.5
		c-0.8,0-1.4,0.2-1.7,0.6c-0.2,0.3-0.3,0.7-0.3,1.2v0.5c0,0.8-0.4,1.1-1.1,1.1h-3.1c-0.8,0-1.1-0.4-1.1-1.1V27.9z M26.6,49.3
		c0,1.5,0.2,2.4,0.5,2.9c0.4,0.5,1.2,0.7,2.3,0.7h2.4c1.2,0,2-0.3,2.3-0.8c0.4-0.5,0.5-1.5,0.5-3.1v-8.9c0-1.5-0.2-2.5-0.7-2.9
		c-0.5-0.4-1.4-0.6-2.7-0.6h-1.2c-1.5,0-2.5,0.3-2.9,0.8c-0.4,0.5-0.5,1.4-0.5,2.7V49.3z"/>
	<path class="st0" d="M53.1,24.5c0,1.6,1.4,4.2,4.2,7.9c2.8,3.7,4.2,6.9,4.2,9.8l0,7.4c0,3-0.5,5-1.4,6c-1,1.2-3.2,1.7-6.5,1.7h-2
		c-2.8,0-4.8-0.4-5.9-1.1c-1.3-0.9-2-2.7-2-5.3v-6.6c0-0.8,0.4-1.1,1.1-1.1h2.9c0.8,0,1.1,0.4,1.1,1.1v5.2c0,1.5,0.1,2.4,0.4,2.8
		c0.3,0.5,1.1,0.8,2.3,0.8h1.8c1.1,0,1.8-0.2,2.2-0.6c0.4-0.5,0.6-1.4,0.6-2.7l0-7.6c0-1.7-0.4-3.3-1.3-5c-0.5-1-1.5-2.3-2.8-4
		l-0.8-0.9l-0.7-0.9c-0.5-0.7-1-1.4-1.3-2c-0.9-1.6-1.3-3.1-1.3-4.7v-1.1c0-0.8,0.4-1.1,1.1-1.1h2.9c0.8,0,1.1,0.4,1.1,1.1V24.5z"/>
	<path class="st0" d="M74.3,24.5c0,1.6,1.4,4.2,4.2,7.9c2.8,3.7,4.2,6.9,4.2,9.8l0,7.4c0,3-0.5,5-1.4,6c-1,1.2-3.2,1.7-6.5,1.7h-2
		c-2.8,0-4.8-0.4-5.9-1.1c-1.3-0.9-2-2.7-2-5.3v-6.6c0-0.8,0.4-1.1,1.1-1.1h2.9c0.8,0,1.1,0.4,1.1,1.1v5.2c0,1.5,0.1,2.4,0.4,2.8
		c0.3,0.5,1.1,0.8,2.3,0.8h1.8c1.1,0,1.8-0.2,2.2-0.6c0.4-0.5,0.6-1.4,0.6-2.7l0-7.6c0-1.7-0.4-3.3-1.3-5c-0.5-1-1.5-2.3-2.8-4
		l-0.8-0.9l-0.7-0.9c-0.5-0.7-1-1.4-1.3-2c-0.9-1.6-1.3-3.1-1.3-4.7v-1.1c0-0.8,0.4-1.1,1.1-1.1h2.9c0.8,0,1.1,0.4,1.1,1.1V24.5z"/>
	<path class="st0" d="M103.5,22.3c0.8,0,1.1,0.4,1.1,1.1v25.9c0,3.1-0.4,5.2-1.1,6.1c-1,1.2-3.2,1.8-6.5,1.8h-3.3
		c-3.1,0-5.2-0.6-6.2-1.7c-0.9-1.1-1.4-3.1-1.4-6.2V39.3c0-2.6,0.4-4.4,1.2-5.3c1.1-1.3,3.5-1.9,7.2-1.9h1.7c1.2,0,2.2,0.2,3.1,0.7
		v-9.5c0-0.8,0.4-1.1,1.1-1.1H103.5z M91.4,49.4c0,1.5,0.2,2.4,0.5,2.8c0.4,0.5,1.3,0.7,2.7,0.7h1.2c1.6,0,2.6-0.2,2.9-0.7
		c0.3-0.4,0.5-1.6,0.5-3.4l0-8.9c0-1.5-0.2-2.4-0.7-2.8c-0.4-0.4-1.4-0.6-2.9-0.6H95c-1.5,0-2.5,0.2-2.9,0.5
		c-0.5,0.4-0.7,1.4-0.7,2.9V49.4z"/>
	<path class="st0" d="M125.8,55.8c0,0.8-0.4,1.1-1.1,1.1h-8.2c-3.4,0-5.6-0.6-6.7-1.8c-0.9-1-1.3-3.1-1.3-6.1V30
		c0-3.3,0.6-5.5,1.7-6.6c1.1-1,3-1.5,5.9-1.5h3.4c2.9,0,4.8,0.5,5.8,1.4c1.2,1.2,1.8,3.5,1.8,6.9v14.7c0,0.8-0.4,1.1-1.1,1.1h-3
		c-0.8,0-1.1-0.4-1.1-1.1V29.9c0-1.4-0.2-2.3-0.5-2.8c-0.4-0.5-1.2-0.8-2.4-0.8h-2.2c-1.2,0-2,0.3-2.4,0.9c-0.3,0.5-0.5,1.5-0.5,3
		v18.7c0,1.5,0.2,2.5,0.5,2.9c0.4,0.6,1.2,0.8,2.6,0.8h7.8c0.8,0,1.1,0.4,1.1,1.1V55.8z"/>
	<path class="st0" d="M132.1,56.9c-0.8,0-1.1-0.4-1.1-1.1V29.7c0-2.8,0.5-4.8,1.5-5.9c1.1-1.2,3.1-1.8,5.9-1.8h3.3
		c3,0,5.1,0.8,6.2,2.3c0.8,1.1,1.2,3,1.2,5.7v25.8c0,0.8-0.4,1.1-1.1,1.1H145c-0.8,0-1.1-0.4-1.1-1.1V29.7c0-1.4-0.2-2.3-0.5-2.7
		c-0.4-0.5-1.3-0.8-2.5-0.8h-1.6c-1.3,0-2.1,0.3-2.5,0.8c-0.4,0.5-0.5,1.5-0.5,3v25.8c0,0.8-0.4,1.1-1.1,1.1H132.1z"/>
	<path class="st0" d="M157.9,49c0,1.6,0.2,2.6,0.5,3.1c0.4,0.5,1.1,0.8,2.3,0.8h2.8c1,0,1.7-0.3,2.1-0.8c0.3-0.5,0.5-1.4,0.5-2.8
		V29.6c0-1.3-0.2-2.1-0.6-2.6c-0.4-0.4-1.4-0.6-2.8-0.6h-1.3c-1.8,0-2.8,1.1-2.9,3.3v1.4c0,0.8-0.4,1.1-1.1,1.1h-3
		c-0.8,0-1.1-0.4-1.1-1.1V30c0-3.2,0.7-5.4,2-6.5c1.1-1,3.1-1.5,6-1.5h1.8c3.5,0,5.8,0.5,7,1.6c1.1,1,1.6,3,1.6,5.8v20.3
		c0,2.9-0.6,4.9-1.8,6c-1.1,1-3,1.5-5.5,1.5h-3.4c-3.3,0-5.4-0.4-6.4-1.3c-1.1-1-1.7-3.2-1.7-6.6l0-5.2c0-0.8,0.4-1.1,1.1-1.1h3.1
		c0.8,0,1.1,0.4,1.1,1.1V49z"/>
	<path class="st0" d="M198.5,25.4c0,0.8-0.4,1.1-1.1,1.1h-12.7c-2.7,0-4.1,1.5-4.1,4.4v2.5c1-0.8,2.1-1.2,3.3-1.2
		c2.2,0,3.7,0.8,4.6,2.4h0.2c0.4-0.7,1-1.3,1.9-1.7c0.9-0.4,1.8-0.6,2.7-0.6c2.7,0,4.6,0.3,5.7,1c1.7,1.1,2.5,3.3,2.5,6.7v15.9
		c0,0.8-0.4,1.1-1.1,1.1h-3c-0.8,0-1.1-0.4-1.1-1.1v-0.5l0-14.8c0-1.8-0.2-2.9-0.6-3.4c-0.3-0.4-1.1-0.5-2.3-0.5
		c-0.9,0-1.5,0.3-1.8,0.9c-0.3,0.5-0.4,1.4-0.4,2.6v8.2c0,0.8-0.4,1.1-1.1,1.1h-3.2c-0.8,0-1.1-0.4-1.1-1.1v-8.1
		c0-1.4-0.1-2.3-0.4-2.9c-0.3-0.5-0.9-0.7-1.8-0.7c-1,0-1.6,0.2-2,0.5c-0.5,0.5-0.8,1.3-0.8,2.6v16c0,0.8-0.4,1.1-1.1,1.1h-3
		c-0.8,0-1.1-0.4-1.1-1.1V30.5c0-2.6,0.8-4.7,2.3-6.1c1.6-1.4,3.8-2.1,6.6-2.1h13c0.8,0,1.1,0.4,1.1,1.1V25.4z"/>
	<path class="st0" d="M210.4,49c0,1.6,0.2,2.6,0.5,3.1c0.4,0.5,1.1,0.8,2.3,0.8h2.8c1,0,1.7-0.3,2.1-0.8c0.3-0.5,0.5-1.4,0.5-2.8
		V29.6c0-1.3-0.2-2.1-0.6-2.6c-0.4-0.4-1.4-0.6-2.8-0.6h-1.3c-1.8,0-2.8,1.1-2.9,3.3v1.4c0,0.8-0.4,1.1-1.1,1.1h-3
		c-0.8,0-1.1-0.4-1.1-1.1V30c0-3.2,0.7-5.4,2-6.5c1.1-1,3.1-1.5,6-1.5h1.8c3.5,0,5.8,0.5,7,1.6c1.1,1,1.6,3,1.6,5.8v20.3
		c0,2.9-0.6,4.9-1.8,6c-1.1,1-3,1.5-5.5,1.5h-3.4c-3.3,0-5.4-0.4-6.4-1.3c-1.1-1-1.7-3.2-1.7-6.6l0-5.2c0-0.8,0.4-1.1,1.1-1.1h3.1
		c0.8,0,1.1,0.4,1.1,1.1V49z"/>
	<path class="st0" d="M22,82.8c0-1.7,0.5-3,1.5-4c1.2-1.3,3.2-1.9,5.8-1.9c2.7,0,4.7,0.5,5.7,1.5c1.2,1.1,1.7,2.9,1.7,5.6v3.8
		c1.3,0.4,2.2,1.2,2.7,2.4c0.4,1,0.6,2.5,0.6,4.5v9.1c0,3.5-0.5,5.8-1.6,6.9c-1,1.1-3.1,1.6-6.3,1.6h-3c-3.4,0-5.6-0.7-6.7-2
		c-0.8-1.1-1.2-3.1-1.2-6v-9.8c0-3,0.7-5,2.2-6.1c1.1-0.8,3.1-1.2,6-1.2h2.2v-4.2c0-0.8-0.1-1.3-0.3-1.5c-0.3-0.3-1-0.5-2-0.5
		c-0.8,0-1.4,0.2-1.7,0.6c-0.2,0.3-0.3,0.7-0.3,1.2v0.5c0,0.8-0.4,1.1-1.1,1.1h-3.1c-0.8,0-1.1-0.4-1.1-1.1V82.8z M26.6,104.2
		c0,1.5,0.2,2.4,0.5,2.9c0.4,0.5,1.2,0.7,2.3,0.7h2.4c1.2,0,2-0.3,2.3-0.8c0.4-0.5,0.5-1.5,0.5-3.1v-8.9c0-1.5-0.2-2.5-0.7-2.9
		c-0.5-0.4-1.4-0.6-2.7-0.6h-1.2c-1.5,0-2.5,0.3-2.9,0.8c-0.4,0.5-0.5,1.4-0.5,2.7V104.2z"/>
	<path class="st0" d="M55.4,101.9c-0.8,0-1.1-0.4-1.1-1.1V84.9c0-1.4-0.1-2.3-0.4-2.9c-0.3-0.5-0.9-0.7-1.8-0.7c-1,0-1.6,0.2-2,0.5
		c-0.5,0.5-0.8,1.3-0.8,2.6v26.3c0,0.8-0.4,1.1-1.1,1.1h-3c-0.8,0-1.1-0.4-1.1-1.1V84.2c0-2.9,0.8-5,2.4-6.1
		c1.2-0.9,2.9-1.3,5.3-1.3c2.3,0,4.1,0.9,5.2,2.6h0.2c0.5-0.8,1.1-1.4,2-1.8c0.9-0.5,1.8-0.7,2.8-0.7c2.7,0,4.6,0.3,5.7,1
		c1.7,1.1,2.5,3.3,2.5,6.7v26.2c0,0.8-0.4,1.1-1.1,1.1h-3c-0.8,0-1.1-0.4-1.1-1.1v-0.5l0-25c0-1.8-0.2-2.9-0.6-3.4
		c-0.3-0.4-1.1-0.5-2.3-0.5c-0.9,0-1.5,0.3-1.8,0.9c-0.3,0.5-0.4,1.4-0.4,2.6v16c0,0.8-0.4,1.1-1.1,1.1H55.4z"/>
	<path class="st0" d="M90.5,80.1c0,0.8-0.4,1.1-1.1,1.1h-8c-0.9,0-1.5,0.3-1.8,0.8c-0.2,0.5-0.3,1.4-0.3,2.8V88
		c0.9-0.6,2.1-0.9,3.7-0.9h1.7c3.1,0,5.1,0.6,6.1,1.9c0.7,1,1.1,2.8,1.1,5.5v9.9c0,3.1-0.5,5.2-1.5,6.2c-1,1.1-3.1,1.6-6.1,1.6h-2.5
		c-3,0-5.1-0.5-6.1-1.6c-1-1-1.5-3-1.5-5.9V84.1c0-2.6,0.6-4.5,1.7-5.4c1-1,2.9-1.4,5.6-1.4h8c0.8,0,1.1,0.4,1.1,1.1V80.1z
		 M79.3,104.4c0,1.5,0.2,2.4,0.6,2.9c0.4,0.5,1.3,0.7,2.6,0.7h0.8c1.4,0,2.2-0.2,2.6-0.6c0.5-0.4,0.7-1.4,0.7-2.9v-10
		c0-1.3-0.2-2.1-0.6-2.6c-0.4-0.4-1.2-0.6-2.4-0.6h-1.3c-1.4,0-2.3,0.3-2.6,0.8c-0.3,0.4-0.4,1.2-0.4,2.5V104.4z"/>
	<path class="st0" d="M100.6,103.9c0,1.6,0.2,2.6,0.5,3.1c0.4,0.5,1.1,0.8,2.3,0.8h2.8c1,0,1.7-0.3,2.1-0.8c0.3-0.5,0.5-1.4,0.5-2.8
		V84.5c0-1.3-0.2-2.1-0.6-2.6c-0.4-0.4-1.4-0.6-2.8-0.6H104c-1.8,0-2.8,1.1-2.9,3.3V86c0,0.8-0.4,1.1-1.1,1.1h-3
		c-0.8,0-1.1-0.4-1.1-1.1v-1.1c0-3.2,0.7-5.4,2-6.5c1.1-1,3.1-1.5,6-1.5h1.8c3.5,0,5.8,0.5,7,1.6c1.1,1,1.6,3,1.6,5.8v20.3
		c0,2.9-0.6,4.9-1.8,6c-1.1,1-3,1.5-5.5,1.5h-3.4c-3.3,0-5.4-0.4-6.4-1.3c-1.1-1-1.7-3.2-1.7-6.6l0-5.2c0-0.8,0.4-1.1,1.1-1.1h3.1
		c0.8,0,1.1,0.4,1.1,1.1V103.9z"/>
	<path class="st0" d="M126.2,79.2c0,1,0.2,1.7,0.7,2.3c0.2,0.2,0.4,0.4,0.7,0.6l0.8,0.5c1.6,1,2.3,2.5,2.3,4.7
		c2.2,0.1,3.8,0.9,4.7,2.4c0.6,1.1,0.9,2.7,0.9,4.7v9.8c0,3.4-0.5,5.6-1.4,6.6c-0.9,1-3.1,1.4-6.4,1.4h-2.8c-3.1,0-5.2-0.4-6.1-1.3
		c-1.2-1.1-1.8-3.3-1.8-6.7v-9.9c0-2.7,0.6-4.6,1.8-5.7c1.2-1,3.2-1.5,6.1-1.5c0-1.1-0.3-1.9-0.8-2.4c-0.2-0.2-0.5-0.4-0.8-0.6
		l-0.4-0.2l-0.4-0.2c-1.7-0.9-2.5-2.2-2.5-4.1v-1.1c0-0.8,0.4-1.1,1.1-1.1h3.1c0.8,0,1.1,0.4,1.1,1.1V79.2z M123.3,104.3
		c0.1,1.6,0.3,2.5,0.7,3c0.4,0.4,1.3,0.6,2.6,0.6h1c1.5,0,2.4-0.2,2.9-0.7c0.4-0.4,0.6-1.5,0.6-3.2v-9c0-1.5-0.2-2.4-0.5-2.8
		c-0.4-0.5-1.4-0.7-3-0.7h-0.8c-1.5,0-2.5,0.2-2.9,0.6c-0.4,0.4-0.5,1.3-0.5,2.6V104.3z"/>
	<path class="st0" d="M149.4,79.4c0,1.6,1.4,4.2,4.2,7.9c2.8,3.7,4.2,6.9,4.2,9.8l-0.1,7.4c0,3-0.5,5-1.4,6c-1,1.2-3.2,1.7-6.5,1.7
		h-2c-2.8,0-4.8-0.4-5.9-1.1c-1.3-0.9-2-2.7-2-5.3v-6.6c0-0.8,0.4-1.1,1.1-1.1h2.9c0.8,0,1.1,0.4,1.1,1.1v5.2c0,1.5,0.1,2.4,0.4,2.8
		c0.3,0.5,1.1,0.8,2.3,0.8h1.8c1.1,0,1.8-0.2,2.2-0.6c0.4-0.5,0.6-1.4,0.6-2.7l0-7.6c0-1.7-0.4-3.3-1.3-5c-0.5-1-1.5-2.3-2.8-4
		l-0.8-0.9l-0.7-0.9c-0.5-0.7-1-1.4-1.3-2c-0.9-1.6-1.3-3.1-1.3-4.7v-1.1c0-0.8,0.4-1.1,1.1-1.1h2.9c0.8,0,1.1,0.4,1.1,1.1V79.4z"/>
	<path class="st0" d="M169.1,101.6c0,0.8-0.4,1.2-1.2,1.2h-3.1c-0.8,0-1.2-0.4-1.2-1.2l-0.7-9.1V79.5c0-0.9,0.4-1.3,1.2-1.3h4.4
		c0.8,0,1.2,0.4,1.2,1.3v13.1L169.1,101.6z M169.7,110.6c0,0.8-0.4,1.2-1.2,1.2h-4.3c-0.8,0-1.2-0.4-1.2-1.2v-4
		c0-0.8,0.4-1.2,1.2-1.2h4.3c0.8,0,1.2,0.4,1.2,1.2V110.6z"/>
</g>
</svg>
