<?xml version="1.0" encoding="utf-8"?>
<!-- Generator: Adobe Illustrator 19.2.1, SVG Export Plug-In . SVG Version: 6.00 Build 0)  -->
<svg version="1.1" id="Layer_1" xmlns="http://www.w3.org/2000/svg" xmlns:xlink="http://www.w3.org/1999/xlink" x="0px" y="0px"
	 width="172px" height="52px" viewBox="0 0 172 52" style="enable-background:new 0 0 172 52;" xml:space="preserve">
<style type="text/css">
	.st0{fill:#FF0004;}
	.st1{fill:#FFFFFF;}
	.st2{fill:#200090;}
</style>
<g>
	<g>
		<path class="st0" d="M28.5,2.5c-10,0-14,6.8-15.5,11L0,49.6h137.1c10,0,14.1-6.9,15.6-11l13-36.2H28.5V2.5z"/>
		<g>
			<path class="st1" d="M28.5,6.8c-4.7,0-9.3,2-11.5,8.1L6.1,45.4h131c4.7,0,9.3-2,11.5-8.1l10.9-30.4h-131V6.8z"/>
		</g>
		<g>
			<path class="st2" d="M143.6,20.9h7.1l3.6-10c0,0-0.7-0.3-1.9-0.6s-3.1-0.5-5.5-0.5c-7.3,0-9,2-11.3,8.4c-1.8,5.2-0.7,7,1.7,9.4
				c1.6,1.6,3,2.6,1.9,5.3l-1.3,3.3c-0.3,0.8-0.6,1.2-1.1,1.2c-0.8,0-0.8-0.5-0.5-1.4l2-5.3h-7.1l-3.9,10.6c0,0,1,0.3,2.4,0.5
				s3.3,0.5,5.3,0.5c7.3,0,8.8-2.1,10.9-8c1.9-5.4,1.3-7.6-1.6-10.5c-2-2-2.5-2.8-1.7-4.9l0.8-2.2c0.3-0.9,0.6-1.1,1.2-1.1
				c0.5,0,0.7,0.3,0.4,1.2L143.6,20.9z M129,28.2c-0.2-0.4-0.5-0.9-0.8-1.3c0.1,0,0.2-0.1,0.4-0.2c1.9-0.8,3.3-2.3,4-4.2l1.7-4.7
				c1.7-4.6-0.1-7.6-4.5-7.6h-8.5l-11.5,31.6h7.1l4.7-13.1h0.1c0.8,0,1.1,0.9,0.5,2.6l-3.6,10.6h6.9l3.3-9.6
				C129.6,30.5,129.4,29.1,129,28.2z M127.5,17.5l-1.6,4.6c-0.4,1.1-1,1.7-1.9,1.7h-0.5l3-8.1h0.2C127.6,15.7,128,16.2,127.5,17.5z
				 M106,10.3h-7.6l-6.8,9.6l3.7-9.6h-7.5L76.4,41.9h7.5l3.7-11.2l-0.2,11.2h7.3L94.3,26L106,10.3z M72.4,27.7l-3,8.3
				c-0.3,0.9-0.5,1.4-1.3,1.4c-0.7,0-0.6-0.6-0.4-1.2l7.1-19.5c0.3-0.9,0.6-1.2,1.3-1.2c0.6,0,0.6,0.4,0.3,1.3l-2.6,7.1h7.1L85.6,11
				c0,0-0.6-0.3-1.8-0.5c-1.2-0.3-3-0.5-5.5-0.5c-7.2,0-8.8,1.6-10.8,7.2l-6.6,18.2c-1.5,4.1-0.3,7,5.8,7c6.6,0,8.3-2.1,9.7-6.1
				l3.1-8.5L72.4,27.7z M60.1,10.3L48.6,41.9h7.8l11.5-31.6C67.9,10.3,60.1,10.3,60.1,10.3z M52.1,10.3l-5.2,14.9l1.4-14.9h-8
				L28.8,41.9h5.7l5.3-14.8l-1.4,14.8h8l11.4-31.6C57.8,10.3,52.1,10.3,52.1,10.3z M28.2,23.8c-2-2-2.5-2.8-1.7-4.9l0.8-2.2
				c0.3-0.9,0.6-1.1,1.2-1.1c0.5,0,0.8,0.3,0.4,1.2L27.4,21h7.1l3.6-10c0,0-0.7-0.3-1.9-0.5C35,10.2,33.1,10,30.7,10
				c-7.3,0-9,2-11.3,8.4c-1.8,5.2-0.7,7,1.7,9.4c1.6,1.6,3,2.6,1.9,5.3l-1.3,3.3c-0.3,0.8-0.6,1.1-1.1,1.2c-0.8,0-0.8-0.5-0.5-1.3
				l2-5.3H15l-3.8,10.4c0,0,1,0.3,2.4,0.5s3.3,0.5,5.3,0.5c7.3,0,8.8-2.1,10.9-8C31.7,28.9,31.1,26.7,28.2,23.8z M107.7,28.6h4.3
				l2-5.4h-4.3l2.7-7.6h5.5l2-5.3h-13L95.4,41.9h13l1.9-5.2h-5.5L107.7,28.6z"/>
			<path class="st1" d="M131.7,31.3l-3.5,9.7l0.5,0.1l3.6-9.8C132.3,31.2,131.7,31.2,131.7,31.3z M145.3,14.9c-0.1,0-0.2,0-0.3,0
				c0.9,0.1,1.1,0.9,0.7,1.8l-1.4,3.7h0.5l1.4-3.7C146.6,15.8,146.4,14.9,145.3,14.9z M139.4,28.5c-3.4-3.5-4.7-4.5-2.8-10
				c2.2-6.2,3.7-8,10.5-8h-0.2c-7,0-8.6,1.8-10.8,8.1c-1.9,5.5-0.6,6.5,2.8,10c1.4,1.4,1.6,2.6,0.8,4.7l-1.1,3.1
				c-0.4,1-0.7,1.7-1.5,1.8c0.1,0,0.2,0,0.3,0c1,0,1.3-0.7,1.8-1.8l1.2-3.1C141,31.1,140.8,29.9,139.4,28.5z M121.8,10.8l-11.1,30.5
				h0.5l11.1-30.5C122.3,10.8,121.8,10.8,121.8,10.8z M122.2,28.2h-0.4c1.6,0.1,1.6,1.6,1,3.4l-3.3,9.7h0.5l3.3-9.7
				C123.9,29.8,123.9,28.2,122.2,28.2z M127.2,15.2h-0.5c1.3,0,2,0.8,1.3,2.5l-1.6,4.6c-0.5,1.3-1.2,2.1-2.4,2.1h0.5
				c1.2,0,2-0.8,2.4-2.1l1.6-4.6C129.2,16,128.4,15.2,127.2,15.2z M88.2,29.2L88,41.3h0.5l0.2-13.6L88.2,29.2z M98.7,10.8l-7.8,11
				l-0.6,1.5l8.9-12.5H98.7z M77.2,41.3h0.5l11.1-30.5h-0.5L77.2,41.3z M76.6,14.9c-0.1,0-0.2,0-0.3,0c0.9,0.1,1,0.9,0.7,1.8
				l-2.4,6.6h0.5l2.4-6.6C77.8,15.7,77.7,14.9,76.6,14.9z M69.9,36.2c-0.3,0.9-0.6,1.6-1.6,1.7c0.1,0,0.1,0,0.2,0
				c1.1,0,1.5-0.8,1.8-1.7l2.9-7.9h-0.5L69.9,36.2z M68,17.4l-6.7,18.2c-1.3,3.7-0.4,6.2,5.3,6.2h0.3c-5.6-0.1-6.4-2.6-5.1-6.3
				l6.6-18.2c2-5.4,3.3-6.8,10-6.9h-0.2C71.3,10.5,69.9,11.9,68,17.4z M49.3,41.3h0.5l11.1-30.5h-0.5L49.3,41.3z M39,41.3h0.5
				l1.6-17.8l-0.7,1.8L39,41.3z M29.6,41.3h0.5l11.1-30.5h-0.5L29.6,41.3z M52.5,10.8l-5.8,16.3L46.5,29L53,10.8H52.5z M15.4,31.3
				l-3.5,9.7l0.5,0.1l3.6-9.8L15.4,31.3z M29,14.9c-0.1,0-0.2,0-0.3,0c0.9,0.1,1.1,0.9,0.7,1.8L28,20.4h0.5l1.4-3.7
				C30.3,15.8,30.1,14.9,29,14.9z M19.9,18.4c-1.9,5.5-0.6,6.6,2.8,10c1.4,1.4,1.6,2.6,0.8,4.7l-1.2,3c-0.4,1-0.7,1.7-1.5,1.8
				c0.1,0,0.2,0,0.3,0c1,0,1.4-0.7,1.8-1.8l1.2-3c0.8-2,0.5-3.2-0.8-4.7c-3.4-3.5-4.7-4.5-2.8-10c2.2-6.2,3.7-8,10.5-8h-0.2
				C23.7,10.4,22.1,12.2,19.9,18.4z M96.2,41.3h0.5l11.1-30.5h-0.5L96.2,41.3z"/>
		</g>
		<g>
			<path class="st0" d="M150.6,45.3c-1.2,0-2.2,1-2.2,2.2c0,1.3,1,2.2,2.2,2.2s2.2-1,2.2-2.2C152.8,46.3,151.9,45.3,150.6,45.3z
				 M150.6,49.3c-1,0-1.8-0.8-1.8-1.8s0.8-1.8,1.8-1.8s1.8,0.8,1.8,1.8C152.4,48.5,151.6,49.3,150.6,49.3z"/>
			<path class="st0" d="M149.7,46.4h1c0.3,0,0.5,0.1,0.6,0.2s0.2,0.3,0.2,0.5l0,0c0,0.4-0.2,0.6-0.5,0.7l0.6,0.9h-0.4l-0.5-0.8l0,0
				h-0.5v0.7h-0.4v-2.2H149.7z M150.7,47.5c0.3,0,0.4-0.2,0.4-0.4l0,0c0-0.2-0.2-0.4-0.5-0.4H150v0.8H150.7z"/>
		</g>
	</g>
</g>
</svg>
