<?xml version="1.0" encoding="utf-8"?>
<!-- Generator: Adobe Illustrator 25.0.1, SVG Export Plug-In . SVG Version: 6.00 Build 0)  -->
<svg version="1.1" id="Layer_1" xmlns="http://www.w3.org/2000/svg" xmlns:xlink="http://www.w3.org/1999/xlink" x="0px" y="0px"
	 viewBox="0 0 300 600" style="enable-background:new 0 0 300 600;" xml:space="preserve">
<style type="text/css">
	.st0{fill:#FFFFFF;}
</style>
<g>
	<g>
		<path class="st0" d="M21.3,77.1h7.2c2.3,0,4,0.2,5.1,0.5c1.2,0.3,2,1.1,2.8,2c0.8,1.1,1.1,2.8,1.1,5.2c0,1.6-0.3,2.7-0.8,3.3
			c-0.5,0.6-1.5,1.1-3,1.4c1.6,0.4,2.8,1,3.3,1.8c0.6,0.9,0.9,2.2,0.9,4v2.6c0,1.8-0.2,3.3-0.6,4.2c-0.4,0.9-1.1,1.5-2,1.8
			c-1,0.3-2.9,0.5-5.7,0.5h-8.3V77.1L21.3,77.1z M28.4,81.7v6c0.3,0,0.5,0,0.8,0c0.7,0,1.2-0.2,1.4-0.5c0.2-0.3,0.3-1.4,0.3-3
			c0-0.9-0.1-1.5-0.3-1.8c-0.1-0.3-0.3-0.5-0.6-0.7C29.7,81.8,29.1,81.8,28.4,81.7z M28.4,92.3v7.6c1-0.1,1.6-0.2,1.9-0.5
			s0.4-1,0.4-2v-2.6c0-1.2-0.1-1.9-0.4-2.2C30.1,92.4,29.5,92.3,28.4,92.3z"/>
		<path class="st0" d="M40.5,77.1h11.9v5.5h-4.7v5.3h4.5v5.2h-4.5v6H53v5.5H40.5V77.1z"/>
		<path class="st0" d="M70.3,77.1L65,94.6v10h-6.7v-10l-5.1-17.5h6.6c1,5.4,1.6,8.9,1.8,10.9c0.4-2.9,1.1-6.6,2-10.9
			C63.7,77.1,70.3,77.1,70.3,77.1z"/>
		<path class="st0" d="M87.5,77.1v27.6h-6.2l-3.8-12.6v12.6h-6V77.1h6l4,12.4V77.1H87.5z"/>
		<path class="st0" d="M97.5,77.1v27.6h-7.2V77.1H97.5z M96.1,71.8v4.4h-4.4v-4.4H96.1z"/>
		<path class="st0" d="M116.3,77.1v27.6h-6.2l-3.8-12.6v12.6h-6V77.1h6l4,12.4V77.1H116.3z"/>
		<path class="st0" d="M126.4,77.1v22.1h4.4v5.5h-11.4V77.1H126.4z"/>
		<path class="st0" d="M148.8,83.9c0.1,1.2,0.1,2.7,0.1,4.6v4.7c0,2.8-0.1,4.7-0.2,5.9c-0.1,1.2-0.5,2.3-1.2,3.2
			c-0.7,1-1.6,1.7-2.8,2.2s-2.5,0.8-4.1,0.8c-1.5,0-2.8-0.3-4-0.8s-2-1.2-2.9-2.2c-0.8-1-1.2-2-1.3-3.2s-0.2-3.1-0.2-6V88h9.6v-4.7
			c0-0.9-0.1-1.5-0.2-1.8c-0.1-0.3-0.5-0.5-1.2-0.5c-0.8,0-1.3,0.5-1.3,1.6v2.2h-6.9v-1.4c0-2.2,0.7-3.9,2-5.1s3.3-1.7,5.7-1.7
			c3,0,5.2,0.5,6.6,1.7c0.8,0.7,1.4,1.6,1.8,2.7v0.1c0.1,0.1,0.1,0.3,0.1,0.5l0.1,0.2C148.7,82.6,148.8,83.1,148.8,83.9z
			 M141.4,99.9c0.1-0.4,0.2-1.4,0.2-3.1v-4.6h-2.3V97c0,1.6,0.1,2.6,0.2,3c0.1,0.4,0.5,0.5,1,0.5S141.3,100.3,141.4,99.9z"/>
	</g>
	<g>
		<path class="st0" d="M179.6,77v27.6h-6.2V86l-2.5,18.5h-4.4l-2.7-18.1v18.1h-6.2V77h9.3c0.3,1.6,0.5,3.6,0.8,5.9l1.1,7l1.6-12.8
			L179.6,77L179.6,77z"/>
		<path class="st0" d="M198.8,83.8c0.1,1.2,0.1,2.7,0.1,4.6v4.7c0,2.8-0.1,4.7-0.2,5.9c-0.1,1.1-0.5,2.3-1.2,3.2
			c-0.7,1-1.6,1.7-2.8,2.2c-1.2,0.6-2.5,0.8-4.1,0.8c-1.5,0-2.8-0.3-4-0.8c-1.2-0.6-2-1.2-2.9-2.2c-0.8-1-1.2-2-1.3-3.2
			s-0.2-3.1-0.2-6v-5.1h9.5v-4.7c0-0.9-0.1-1.5-0.2-1.8c-0.1-0.3-0.5-0.5-1.2-0.5c-0.8,0-1.3,0.5-1.3,1.6v2.1h-6.7v-1.4
			c0-2.2,0.7-3.9,2-5.1s3.3-1.7,5.7-1.7c3,0,5.2,0.5,6.6,1.7c0.8,0.7,1.4,1.6,1.8,2.7l0.1,0.1c0.1,0.1,0.1,0.3,0.1,0.5l0.1,0.2
			C198.8,82.6,198.8,83.1,198.8,83.8z M191.5,99.8c0.1-0.4,0.2-1.4,0.2-3.1v-4.6h-2.3v4.7c0,1.6,0.1,2.6,0.2,3
			c0.1,0.3,0.5,0.5,1,0.5C191,100.4,191.4,100.3,191.5,99.8z"/>
		<path class="st0" d="M209.7,105.1v0.4c0.6,0,1.2,0.2,1.7,0.6s0.8,1,0.8,1.6c0,0.9-0.3,1.6-1,2.3c-0.7,0.7-1.6,1-2.5,1
			c-1.8,0-2.9-0.9-3.3-2.7h2.5c0.1,0.5,0.5,0.8,0.9,0.8c0.7,0,1-0.3,1-1c0-0.8-0.5-1.2-1.4-1.2h-0.7v-1.8c-1.8-0.3-3.3-0.8-4.3-1.6
			c-1-0.7-1.6-1.8-1.9-2.9s-0.4-2.5-0.4-4.1v-2h6.7v3.3c0,1,0.1,1.7,0.3,2s0.5,0.5,1,0.5c1,0,1.4-0.8,1.4-2.3c0-1.6-0.2-2.7-0.7-3.2
			s-1.6-1.4-3.3-2.5s-3-2-3.6-2.6c-0.6-0.5-1.1-1.3-1.4-2.3c-0.4-1-0.5-2.2-0.5-3.6c0-2,0.3-3.7,0.8-4.6s1.4-1.8,2.6-2.3
			c1.2-0.5,2.7-0.8,4.4-0.8c1.8,0,3.4,0.3,4.7,0.9s2.2,1.4,2.6,2.3c0.4,0.9,0.6,2.5,0.6,4.6V85h-6.8v-2c0-1-0.1-1.6-0.3-1.8
			c-0.2-0.3-0.5-0.4-0.9-0.4c-0.9,0-1.3,0.7-1.3,2c0,1,0.1,1.6,0.3,2c0.3,0.5,1,1,2,1.7c3.2,1.9,5.2,3.4,6,4.6s1.2,3.2,1.2,5.9
			c0,1.8-0.2,3.2-0.6,4.2c-0.4,0.9-1.2,1.7-2.5,2.4C212.9,104.4,211.5,105.1,209.7,105.1z"/>
		<path class="st0" d="M236,104.5v3.3h-5.5c-1.3,0-2.3-0.1-2.8-0.3c-0.5-0.2-0.9-0.5-1.1-0.9c-0.2-0.5-0.3-1.1-0.3-2
			c-1.6-0.1-3-0.5-4.2-1.3s-2-1.8-2.3-3.1c-0.4-1.3-0.5-3.1-0.5-5.6V86c0-1.9,0.1-3.3,0.3-4.3s0.7-1.9,1.4-2.8s1.6-1.5,2.7-2
			c1.1-0.5,2.3-0.7,3.6-0.7c1.6,0,3,0.3,4.3,0.8c1.2,0.5,2.2,1.2,2.8,2s1,1.7,1.2,2.6s0.3,2.3,0.3,4v8.9c0,2.5-0.1,4.1-0.3,5
			c-0.3,0.9-0.7,1.6-1.4,2c-0.7,0.5-1.6,0.9-2.7,1.2c0,0.6,0.1,1,0.4,1.2c0.2,0.1,0.8,0.3,1.6,0.3C233.4,104.5,236,104.5,236,104.5z
			 M228.8,84.1c0-1.3-0.1-2-0.2-2.5c-0.1-0.5-0.4-0.5-0.9-0.5c-0.4,0-0.7,0.1-0.9,0.4s-0.3,1.2-0.3,2.6v12.8c0,1.6,0.1,2.6,0.2,3
			c0.1,0.3,0.4,0.5,0.9,0.5s0.8-0.2,1-0.7c0.1-0.5,0.2-1.4,0.2-3.1V84.1z"/>
		<path class="st0" d="M244.7,77h11.9v5.6h-4.7v5.3h4.5v5.2h-4.5v6h5.3v5.5h-12.5L244.7,77L244.7,77z"/>
		<path class="st0" d="M273.3,77v5.6H269v22.1h-7.2V82.6h-4.2v-5.5L273.3,77L273.3,77L273.3,77z"/>
		<path class="st0" d="M282.2,77L281,97.7h-5.3L274.6,77C274.7,77,282.2,77,282.2,77z M281.7,99v5.5h-6.5V99H281.7z"/>
	</g>
</g>
</svg>
