<?xml version="1.0" encoding="utf-8"?>
<!-- Generator: Adobe Illustrator 25.0.1, SVG Export Plug-In . SVG Version: 6.00 Build 0)  -->
<svg version="1.1" id="Layer_1" xmlns="http://www.w3.org/2000/svg" xmlns:xlink="http://www.w3.org/1999/xlink" x="0px" y="0px"
	 viewBox="0 0 300 600" style="enable-background:new 0 0 300 600;" xml:space="preserve">
<style type="text/css">
	.st0{fill:#FFFFFF;}
</style>
<g>
	<path class="st0" d="M68.1,25v31.4h-7.1V35.1l-2.8,21.3h-5l-3-20.8v20.8h-7.3V25h10.7c0.3,1.9,0.7,4,0.9,6.7l1.1,8.1L57.4,25H68.1z
		"/>
	<path class="st0" d="M90.1,25v21c0,2.4-0.1,4-0.3,5s-0.7,2-1.3,3c-0.8,1.1-1.8,1.8-3,2.3c-1.2,0.5-2.7,0.8-4.4,0.8
		c-1.9,0-3.5-0.3-5-0.9c-1.3-0.7-2.6-1.3-3.2-2.4c-0.7-1.1-1.1-2-1.3-3.2c-0.1-1.1-0.1-3.5-0.1-7V25h8.2v23.6c0,1.3,0.1,2.3,0.1,2.6
		c0.1,0.4,0.4,0.5,0.9,0.5s0.8-0.1,1.1-0.7c0.3-0.5,0.1-1.3,0.1-3V25H90.1z M79,18.9v5h-5.1v-5H79z M87.5,18.9v5h-5v-5H87.5z"/>
	<path class="st0" d="M112.7,25L108,39.1l5.1,17.3h-8.5l-3.2-13.5v13.5h-8.2V25h8.2v12.1l3.6-12.3h7.7V25z"/>
	<path class="st0" d="M129.6,25l4.7,31.4h-8.4l-0.4-5.7h-3.1l-0.4,5.7h-8.5l4.2-31.4H129.6z M125.3,45.2c-0.4-3.5-0.8-8-1.2-13.2
		c-0.8,6.1-1.3,10.5-1.6,13.2H125.3z"/>
	<path class="st0" d="M135.6,25h13.9v6.3h-5.7v5.9h5v5.9h-5v13.2h-8.2V25z"/>
	<path class="st0" d="M164.8,25l4.7,31.4h-8.4l-0.4-5.7h-2.8l-0.4,5.7H149l4-31.4H164.8z M160.5,45.2c-0.4-3.5-0.8-8-1.2-13.2
		c-0.8,6.1-1.3,10.5-1.6,13.2H160.5z"/>
	<path class="st0" d="M185.3,25v6.3h-4.9v25.2h-8.2V31.3h-4.9V25C167.3,25,185.3,25,185.3,25z"/>
	<path class="st0" d="M195.4,25v25.2h5v6.3h-13.2V25H195.4z"/>
	<path class="st0" d="M217.4,25l4.7,31.4h-8.4l-0.4-5.7h-2.8l-0.4,5.7h-8.5l3.9-31.4H217.4z M213,45.2c-0.4-3.5-0.8-8-1.2-13.2
		c-0.8,6.1-1.3,10.5-1.6,13.2H213z"/>
	<path class="st0" d="M223.6,25h5.8c3.8,0,6.5,0.1,7.8,0.4s2.6,1.1,3.4,2.3s1.3,3.2,1.3,5.9c0,2.4-0.3,4-0.9,5
		c-0.7,0.8-1.8,1.3-3.6,1.5c1.6,0.4,2.7,0.9,3.2,1.6c0.5,0.7,0.9,1.3,1.1,1.9c0.1,0.5,0.1,2.2,0.1,4.7v8.4h-7.7V46.1
		c0-1.6-0.1-2.7-0.4-3.2c-0.3-0.4-0.9-0.5-2-0.5v14.2h-8.2L223.6,25L223.6,25z M231.6,30.2v7c0.9,0,1.6-0.1,2-0.4
		c0.4-0.3,0.5-1.1,0.5-2.4v-1.8c0-1.1-0.1-1.6-0.5-2C233.3,30.5,232.6,30.2,231.6,30.2z"/>
	<path class="st0" d="M253.1,25v31.4h-8.2V25H253.1z"/>
</g>
</svg>
