<?xml version="1.0" encoding="utf-8"?>
<!-- Generator: Adobe Illustrator 25.0.1, SVG Export Plug-In . SVG Version: 6.00 Build 0)  -->
<svg version="1.1" id="Layer_1" xmlns="http://www.w3.org/2000/svg" xmlns:xlink="http://www.w3.org/1999/xlink" x="0px" y="0px"
	 viewBox="0 0 300 600" style="enable-background:new 0 0 300 600;" xml:space="preserve">
<style type="text/css">
	.st0{fill:#FAAE19;}
</style>
<g>
	<path class="st0" d="M35.9,43.7h-6.6v-2c0-1-0.1-1.6-0.3-1.8c-0.1-0.3-0.5-0.4-0.8-0.4s-0.8,0.2-1,0.5s-0.3,0.9-0.3,1.6
		c0,0.9,0.1,1.6,0.3,2c0.2,0.5,0.9,1,2,1.7c3.1,1.9,5.2,3.3,6,4.6c0.7,1.2,1.2,3.1,1.2,5.9c0,2-0.2,3.3-0.7,4.3
		c-0.5,1-1.4,1.7-2.7,2.3c-1.3,0.6-2.9,1-4.6,1c-1.9,0-3.6-0.3-4.8-1.1c-1.2-0.8-2.3-1.6-2.7-2.7c-0.4-1.1-0.6-2.7-0.6-4.7V53h6.6
		v3.3c0,1,0.1,1.7,0.3,2c0.2,0.3,0.5,0.4,1,0.4c0.5,0,0.8-0.2,1.1-0.5c0.2-0.3,0.3-1,0.3-1.6c0-1.6-0.2-2.7-0.7-3.1
		c-0.5-0.5-1.6-1.3-3.3-2.5c-1.8-1.2-2.9-2-3.6-2.5c-0.5-0.5-1-1.3-1.4-2.2c-0.4-1-0.5-2-0.5-3.6c0-2,0.3-3.6,0.8-4.6
		c0.5-1,1.4-1.7,2.6-2.3c1.2-0.6,2.7-0.8,4.4-0.8c1.8,0,3.3,0.3,4.7,0.9c1.3,0.7,2.2,1.4,2.6,2.3c0.4,0.9,0.6,2.5,0.6,4.6L35.9,43.7
		L35.9,43.7L35.9,43.7z"/>
	<path class="st0" d="M54.5,35.4v27.4h-6.1l-3.8-12.5v12.5h-5.9V35.4h5.9l4,12.4V35.4H54.5z"/>
	<path class="st0" d="M64.7,35.4v27.4h-7.2V35.4H64.7z M63.3,30.1v4.4h-4.4v-4.4H63.3z"/>
	<path class="st0" d="M83.9,47.2h-7.1v-4.7c0-1.4-0.1-2.3-0.2-2.6c-0.1-0.3-0.5-0.5-1-0.5s-1,0.2-1.1,0.6c-0.1,0.4-0.2,1.3-0.2,2.7
		v12.7c0,1.4,0.1,2.2,0.2,2.6c0.1,0.4,0.5,0.6,1.1,0.6c0.6,0,0.9-0.2,1-0.6s0.3-1.4,0.3-2.9v-3.3H84v1.1c0,2.9-0.2,4.7-0.6,6
		c-0.4,1.2-1.3,2.3-2.7,3.1c-1.4,0.9-3.1,1.4-5.1,1.4c-2,0-3.8-0.4-5.2-1.2c-1.4-0.8-2.3-1.8-2.7-3.1c-0.4-1.3-0.7-3.3-0.7-6v-8
		c0-2,0.1-3.4,0.2-4.4c0.1-1,0.5-1.9,1.2-2.9c0.7-0.9,1.6-1.6,2.8-2.2c1.3-0.6,2.8-0.9,4.3-0.9c2,0,3.8,0.4,5.2,1.2s2.3,1.8,2.7,3
		c0.4,1.2,0.6,3.1,0.6,5.7L83.9,47.2L83.9,47.2z"/>
	<path class="st0" d="M103.5,35.4l-4.1,12.4l4.5,15h-7.4l-2.9-11.6v11.5h-7.1V35.4h7.1v10.7l3.2-10.7
		C96.8,35.4,103.5,35.4,103.5,35.4z"/>
	<path class="st0" d="M105.1,35.4h11.8v5.5h-4.7v5.2h4.4v5.2h-4.4v6h5.3v5.4h-12.4L105.1,35.4L105.1,35.4z"/>
	<path class="st0" d="M119.4,35.4h5.1c3.3,0,5.7,0.1,6.8,0.4s2.2,1,2.9,2c0.8,1.1,1.1,2.8,1.1,5.1c0,2-0.3,3.6-0.8,4.3
		c-0.5,0.8-1.6,1.2-3.1,1.3c1.4,0.3,2.4,0.8,2.9,1.4c0.5,0.6,0.8,1.1,0.9,1.6c0.1,0.5,0.2,1.8,0.2,4v7.2h-6.6v-9
		c0-1.4-0.1-2.4-0.3-2.7c-0.2-0.3-0.8-0.5-1.8-0.5v12.3h-7.4V35.4L119.4,35.4z M126.6,40.1v6c0.8,0,1.4-0.1,1.7-0.3s0.5-1,0.5-2
		v-1.5c0-0.9-0.1-1.4-0.5-1.7C127.9,40.2,127.4,40.1,126.6,40.1z"/>
	<path class="st0" d="M153.1,43.7h-6.6v-2c0-1-0.1-1.6-0.3-1.8c-0.1-0.3-0.5-0.4-0.8-0.4c-0.4,0-0.8,0.2-1,0.5S144,41,144,41.6
		c0,0.9,0.1,1.6,0.3,2c0.2,0.5,0.9,1,2,1.7c3.1,1.9,5.2,3.3,6,4.6c0.8,1.2,1.2,3.1,1.2,5.9c0,2-0.2,3.3-0.7,4.3
		c-0.5,1-1.4,1.7-2.7,2.3c-1.3,0.6-2.9,1-4.6,1c-1.9,0-3.6-0.3-4.8-1.1c-1.4-0.8-2.3-1.6-2.7-2.7c-0.4-1.1-0.6-2.7-0.6-4.7V53h6.6
		v3.3c0,1,0.1,1.7,0.3,2c0.2,0.3,0.5,0.4,1,0.4c0.5,0,0.8-0.2,1-0.5c0.2-0.3,0.3-1,0.3-1.6c0-1.6-0.2-2.7-0.7-3.1
		c-0.5-0.5-1.6-1.3-3.3-2.5c-1.8-1.2-2.9-2-3.6-2.5c-0.5-0.5-1-1.3-1.4-2.2c-0.4-1-0.5-2-0.5-3.6c0-2,0.3-3.6,0.8-4.6
		c0.5-1,1.4-1.7,2.6-2.3c1.2-0.5,2.7-0.8,4.4-0.8c1.8,0,3.3,0.3,4.7,0.9c1.3,0.7,2.2,1.4,2.6,2.3c0.4,0.9,0.6,2.5,0.6,4.6
		L153.1,43.7L153.1,43.7z"/>
	<path class="st0" d="M163,35.4v21.8h4.4v5.5H156V35.4H163z"/>
	<path class="st0" d="M185.2,42c0.1,1.2,0.1,2.7,0.1,4.6v4.7c0,2.7-0.1,4.7-0.2,5.9s-0.5,2.2-1.2,3.1c-0.7,1-1.6,1.7-2.8,2.2
		c-1.2,0.5-2.5,0.8-4.1,0.8c-1.5,0-2.8-0.3-4-0.8c-1.2-0.5-2-1.2-2.8-2.2c-0.7-1-1.2-2-1.3-3.1c-0.1-1.2-0.2-3.1-0.2-5.9v-5h9.4
		v-4.7c0-0.9-0.1-1.5-0.1-1.8c-0.1-0.3-0.5-0.5-1.2-0.5c-0.8,0-1.2,0.5-1.2,1.6v2h-6.8v-1.4c0-2.2,0.7-3.8,2-5s3.3-1.7,5.6-1.7
		c3,0,5.2,0.5,6.5,1.7c0.8,0.7,1.4,1.5,1.8,2.6v0.3c0.1,0.1,0.1,0.3,0.1,0.5l0.1,0.2C185.2,40.8,185.2,41.4,185.2,42z M178,58
		c0.1-0.4,0.2-1.4,0.2-3.1v-4.6h-2.3v4.7c0,1.6,0.1,2.6,0.2,2.9c0.1,0.3,0.4,0.5,0.9,0.5C177.6,58.6,177.9,58.4,178,58z"/>
	<path class="st0" d="M195.3,35.4L194.2,56h-5.3l-1.1-20.6C187.9,35.4,195.3,35.4,195.3,35.4z M194.8,57.2v5.5h-6.4v-5.5H194.8z"/>
</g>
</svg>
