<?xml version="1.0" encoding="utf-8"?>
<!-- Generator: Adobe Illustrator 25.0.1, SVG Export Plug-In . SVG Version: 6.00 Build 0)  -->
<svg version="1.1" id="Layer_1" xmlns="http://www.w3.org/2000/svg" xmlns:xlink="http://www.w3.org/1999/xlink" x="0px" y="0px"
	 viewBox="0 0 300 600" style="enable-background:new 0 0 300 600;" xml:space="preserve">
<style type="text/css">
	.st0{fill:#FFFFFF;}
	.st1{fill:#FAAE19;}
</style>
<g>
	<path class="st0" d="M42.1,125.4h-7.3v-2.3c0-1.1-0.1-1.8-0.3-2c-0.1-0.3-0.5-0.4-0.9-0.4s-0.8,0.1-1.1,0.5
		c-0.3,0.4-0.4,1.1-0.4,1.8c0,1.1,0.1,1.8,0.4,2.3c0.3,0.5,1.1,1.2,2.3,1.9c3.6,2,5.8,3.6,6.6,5.1c0.9,1.3,1.3,3.6,1.3,6.3
		c0,2.2-0.3,3.6-0.8,4.7s-1.5,1.9-3,2.6c-1.3,0.8-3.2,1.1-5,1.1c-2,0-3.9-0.4-5.4-1.2c-1.5-0.8-2.4-1.8-3-3.1
		c-0.4-1.2-0.8-3-0.8-5.3v-1.9h7.3v3.6c0,1.2,0.1,1.9,0.3,2.2c0.1,0.3,0.5,0.4,1.1,0.4s0.9-0.1,1.2-0.7c0.3-0.5,0.4-1.1,0.4-1.8
		c0-1.8-0.3-3-0.8-3.6c-0.5-0.5-1.8-1.3-3.6-2.8c-2-1.2-3.2-2.2-3.8-2.8c-0.5-0.7-1.2-1.3-1.6-2.4c-0.4-1.1-0.7-2.3-0.7-3.9
		c0-2.3,0.3-3.9,0.9-5.1c0.8-1.1,1.8-2,3-2.6c1.3-0.7,3-0.9,4.7-0.9c2,0,3.6,0.4,5.1,1.1c1.3,0.7,2.4,1.5,3,2.6
		c0.4,1.1,0.8,2.7,0.8,5.1V125.4L42.1,125.4z"/>
	<path class="st0" d="M58.8,116.1l4.4,30.2h-8.1l-0.4-5.4h-2.8l-0.4,5.4h-8.2l3.9-30.2H58.8L58.8,116.1z M54.6,135.7
		c-0.4-3.5-0.8-7.7-1.2-12.7c-0.8,5.8-1.3,10-1.5,12.7H54.6z"/>
	<path class="st0" d="M79,116.1l-5.8,19.3v10.9h-7.3v-10.8l-5.5-19.4h7.3c1.2,5.9,1.8,9.8,1.9,11.9c0.4-3.2,1.2-7.1,2.2-11.9
		C71.7,116.1,79,116.1,79,116.1z"/>
	<path class="st0" d="M96.3,116.1v6.1h-4.6v24.1h-8v-24h-4.6v-6.1h17.1V116.1z"/>
	<path class="st0" d="M106,116.1v30.2h-8v-30.2H106z"/>
	<path class="st0" d="M126.6,116.1v30.2h-6.9l-4-13.6v13.6h-6.5v-30.2h6.5l4.3,13.6v-13.6H126.6z"/>
	<path class="st0" d="M129.7,116.1h5.9c3.6,0,6.3,0.1,7.7,0.5c1.3,0.4,2.3,0.9,3.1,1.8s1.2,1.8,1.3,2.7c0.1,1.1,0.3,3,0.3,5.8v10.7
		c0,2.7-0.1,4.6-0.4,5.4c-0.3,0.9-0.8,1.6-1.3,2.2c-0.7,0.5-1.3,0.9-2.3,1.1s-2.3,0.3-4.2,0.3h-10L129.7,116.1L129.7,116.1z
		 M137.5,121.4v19.8c1.2,0,1.8-0.3,2-0.8c0.3-0.5,0.4-1.8,0.4-3.6V125c0-1.3,0-2.3-0.1-2.7c-0.1-0.4-0.3-0.7-0.7-0.8
		C139,121.5,138.5,121.4,137.5,121.4z"/>
	<path class="st0" d="M164.5,116.1l4.4,30.2h-8.1l-0.4-5.4h-3l-0.4,5.4h-8.2l3.9-30.2C153,116.1,164.5,116.1,164.5,116.1z
		 M160.3,135.7c-0.4-3.5-0.8-7.7-1.2-12.7c-0.8,5.8-1.3,10.1-1.5,12.7H160.3z"/>
	<path class="st0" d="M195.1,146.3v3.6h-5.9c-1.3,0-2.4-0.1-3.1-0.4c-0.7-0.1-1.1-0.5-1.2-1.1c-0.1-0.4-0.3-1.2-0.3-2.3
		c-1.8-0.1-3.4-0.5-4.6-1.3c-1.2-0.9-2.2-2-2.6-3.5c-0.4-1.3-0.7-3.5-0.7-6.1V126c0-2,0.1-3.6,0.4-4.6c0.3-0.9,0.8-2,1.5-3.1
		c0.8-1.1,1.8-1.8,3-2.2c1.2-0.4,2.6-0.8,3.9-0.8c1.8,0,3.4,0.3,4.6,0.9c1.3,0.7,2.4,1.3,3.1,2.3c0.8,0.9,1.2,1.9,1.3,3
		c0.1,1.1,0.3,2.4,0.3,4.3v9.8c0,2.7-0.1,4.4-0.4,5.4c-0.3,1.1-0.8,1.8-1.5,2.3c-0.8,0.5-1.8,1.1-3,1.2c0,0.8,0.1,1.1,0.4,1.2
		c0.3,0.1,0.8,0.3,1.8,0.3L195.1,146.3L195.1,146.3z M187.2,124c0-1.3-0.1-2.3-0.3-2.7c-0.1-0.4-0.4-0.7-1.1-0.7
		c-0.4,0-0.8,0.1-1.1,0.4c-0.1,0.4-0.4,1.2-0.4,2.8V138c0,1.8,0.1,3,0.1,3.2c0.1,0.4,0.4,0.7,1.1,0.7c0.5,0,0.9-0.3,1.1-0.8
		c0.1-0.4,0.3-1.6,0.3-3.5V124H187.2z"/>
	<path class="st0" d="M211.4,116.1l4.4,30.2h-8.1l-0.4-5.4h-2.8l-0.4,5.4H196l3.9-30.2C200.2,116.1,211.4,116.1,211.4,116.1z
		 M207.4,135.7c-0.4-3.5-0.8-7.7-1.2-12.7c-0.8,5.8-1.3,10.1-1.5,12.7H207.4z"/>
	<path class="st0" d="M231.4,116.1v6.1l-5.8,18.2h5.8v6.1h-14.6v-4.3l6.1-19.8h-5.4V116h13.9V116.1z"/>
	<path class="st0" d="M248,116.1l4.4,30.2h-8.1l-0.4-5.4h-2.8l-0.4,5.4h-8.2l4.2-30.2C236.5,116.1,248,116.1,248,116.1z
		 M243.6,135.7c-0.4-3.5-0.8-7.7-1.2-12.7c-0.8,5.8-1.3,10.1-1.5,12.7H243.6z"/>
	<path class="st0" d="M271.3,116.1v30.2h-6.9l-4-13.6v13.6h-6.5v-30.2h6.5l4.3,13.6v-13.6H271.3z"/>
</g>
<g>
	<path class="st1" d="M37,78.6h-8.9V76c0-1.3-0.1-2.1-0.3-2.3s-0.7-0.4-1.1-0.4c-0.4,0-1,0.2-1.3,0.7s-0.4,1.2-0.4,2.2
		c0,1.2,0.2,2.2,0.4,2.7c0.3,0.7,1.2,1.3,2.7,2.2c4.2,2.5,6.9,4.6,8,6.1c1.1,1.6,1.6,4.2,1.6,7.8c0,2.6-0.3,4.6-0.9,5.7
		c-0.7,1.2-1.9,2.2-3.6,3.1c-1.8,0.9-3.8,1.3-6,1.3c-2.5,0-4.8-0.4-6.6-1.3c-1.8-1-3-2.2-3.6-3.7c-0.4-1.4-0.9-3.6-0.9-6.5v-2.3H25
		v4.5c0,1.3,0.1,2.2,0.3,2.6c0.2,0.3,0.7,0.4,1.3,0.4c0.7,0,1.1-0.2,1.3-0.8c0.3-0.6,0.4-1.2,0.4-2.2c0-2.2-0.3-3.6-0.9-4.2
		c-0.7-0.7-2.1-1.8-4.5-3.3c-2.3-1.4-3.9-2.7-4.7-3.3c-0.8-0.8-1.3-1.8-2-3c-0.4-1.3-0.8-2.8-0.8-4.8c0-2.8,0.3-4.8,1.1-6.1
		c0.8-1.3,1.9-2.2,3.5-3.1c1.6-0.9,3.6-1.1,5.7-1.1c2.5,0,4.6,0.4,6.2,1.2c1.8,0.8,3,1.9,3.5,3.1c0.4,1.2,0.9,3.2,0.9,6.1
		C37,77.3,37,78.6,37,78.6z"/>
	<path class="st1" d="M62.1,67.6v36.4h-8.4l-4.9-16.5v16.5h-7.9V67.6h7.9l5.5,16.3V67.6H62.1z"/>
	<path class="st1" d="M75.3,67.6v36.4h-9.5V67.6H75.3z"/>
	<path class="st1" d="M101.3,83.4h-9.5V77c0-1.9-0.1-3.1-0.3-3.5c-0.2-0.4-0.7-0.7-1.3-0.7c-0.8,0-1.3,0.3-1.4,0.9
		c-0.2,0.4-0.3,1.8-0.3,3.6v17.1c0,1.8,0.1,3,0.3,3.5c0.2,0.4,0.7,0.9,1.3,0.9c0.8,0,1.2-0.3,1.3-0.9c0.2-0.4,0.3-1.9,0.3-3.8v-4.7
		h9.5v1.4c0,3.8-0.2,6.6-0.8,8c-0.4,1.6-1.8,3-3.6,4.1c-1.9,1.2-4.1,1.8-6.7,1.8c-2.8,0-5-0.4-6.9-1.4c-1.9-1-3.1-2.3-3.6-4.2
		c-0.4-1.9-0.9-4.5-0.9-8V80.2c0-2.6,0.1-4.7,0.3-5.9c0.2-1.3,0.8-2.6,1.6-3.8c0.9-1.2,2.2-2.2,3.7-3c1.4-0.8,3.5-1.1,5.6-1.1
		c2.8,0,5,0.4,6.9,1.6c1.9,1.1,3.1,2.3,3.6,3.9c0.4,1.6,0.9,4.1,0.9,7.6L101.3,83.4L101.3,83.4L101.3,83.4z"/>
	<path class="st1" d="M127.4,67.6L121.9,84l5.9,20h-9.9L114,88.2v15.7h-9.5V67.6h9.5v14.2l4.2-14.2
		C118.5,67.6,127.4,67.6,127.4,67.6z"/>
	<path class="st1" d="M129.6,67.6h15.8V75H139v6.9h5.9v6.9H139v8h6.9v7.4h-16.4L129.6,67.6L129.6,67.6z"/>
	<path class="st1" d="M148.8,67.6h6.7c4.5,0,7.5,0.2,9.1,0.4c1.6,0.3,3,1.2,3.9,2.6c1,1.3,1.4,3.7,1.4,6.8c0,2.8-0.3,4.8-1.1,5.7
		c-0.8,0.9-2.1,1.4-4.2,1.8c1.9,0.4,3.1,1.1,3.8,1.9c0.7,0.8,1.1,1.4,1.2,2.2c0.1,0.7,0.2,2.5,0.2,5.5v9.6H161V91.9
		c0-2-0.1-3.1-0.4-3.7c-0.3-0.4-1.1-0.7-2.3-0.7v16.4h-9.5L148.8,67.6L148.8,67.6z M158.3,73.8V82c1.1,0,1.9-0.1,2.2-0.4
		c0.4-0.3,0.7-1.3,0.7-2.8v-2.2c0-1.2-0.2-2-0.7-2.2C160.1,74.1,159.4,73.8,158.3,73.8z"/>
	<path class="st1" d="M193.8,78.6h-8.9V76c0-1.3-0.1-2.1-0.3-2.3c-0.2-0.3-0.7-0.4-1.1-0.4s-1,0.2-1.3,0.7c-0.3,0.4-0.4,1.2-0.4,2.2
		c0,1.2,0.2,2.2,0.4,2.7c0.3,0.7,1.2,1.3,2.7,2.2c4.2,2.5,6.9,4.6,8,6.1s1.6,4.2,1.6,7.8c0,2.6-0.3,4.6-0.9,5.7
		c-0.7,1.2-1.9,2.2-3.6,3.1c-1.8,0.9-3.8,1.3-6,1.3c-2.5,0-4.8-0.4-6.6-1.3c-1.9-1-3-2.2-3.6-3.7c-0.4-1.4-0.9-3.6-0.9-6.5v-2.3h8.9
		v4.5c0,1.3,0.1,2.2,0.3,2.6c0.2,0.3,0.7,0.4,1.3,0.4c0.7,0,1.1-0.2,1.3-0.8c0.3-0.4,0.4-1.2,0.4-2.2c0-2.2-0.3-3.6-0.9-4.2
		c-0.7-0.7-2.1-1.8-4.5-3.3c-2.3-1.4-3.9-2.7-4.7-3.3c-0.8-0.8-1.3-1.8-2-3c-0.4-1.3-0.8-2.8-0.8-4.8c0-2.8,0.3-4.8,1.1-6.1
		c0.8-1.3,1.9-2.2,3.5-3.1c1.6-0.9,3.6-1.1,5.7-1.1c2.5,0,4.6,0.4,6.2,1.2c1.7,0.8,3,1.9,3.5,3.1c0.4,1.2,0.9,3.2,0.9,6.1
		L193.8,78.6L193.8,78.6z"/>
	<path class="st1" d="M206.5,74.2l-0.1,2.7c0.7-1.1,1.4-2,2.3-2.5c0.9-0.4,2.1-0.9,3.3-0.9c1.4,0,2.8,0.3,3.8,1.1
		c1,0.8,1.6,1.6,2,2.8c0.4,1.2,0.4,3.1,0.4,5.7v21h-9.1V83.3c0-2.1-0.1-3.3-0.2-3.8c-0.1-0.4-0.4-0.7-1.1-0.7
		c-0.7,0-1.1,0.2-1.2,0.8c-0.2,0.4-0.2,2-0.2,4.1v20.3h-9.1V74.2H206.5z"/>
	<path class="st1" d="M230.7,67.6v4.8h-9.4v-4.8H230.7z M230.7,74.2v30h-9.4v-30H230.7z"/>
	<path class="st1" d="M240.1,96.6v7.5h-6.9v-7.5H240.1z"/>
	<path class="st1" d="M250.8,85.8h-8.5v-2.1c0-2.2,0.2-4.1,0.8-5.5c0.6-1.3,1.6-2.3,3.2-3.3c1.6-1,3.7-1.3,6.2-1.3
		c3.1,0,5.5,0.4,6.9,1.6c1.4,1.1,2.5,2.3,2.8,3.9c0.3,1.6,0.4,4.8,0.4,9.9v15h-8.9v-2.7c-0.4,1.1-1.3,1.9-2.2,2.3s-2,0.8-3.1,0.8
		c-1.6,0-3.1-0.4-4.5-1.3c-1.3-0.9-2-2.8-2-5.8v-2.5c0-2.2,0.3-3.8,1.1-4.6c0.8-0.9,2.5-1.8,5.4-2.8c3.1-1.2,4.6-2,4.8-2.3
		c0.2-0.4,0.3-1.2,0.3-2.5c0-1.4-0.1-2.6-0.3-3.1c-0.2-0.4-0.7-0.8-1.2-0.8c-0.7,0-1,0.2-1.2,0.7c-0.1,0.4-0.2,1.3-0.2,3.1v3.1
		C250.6,85.8,250.8,85.8,250.8,85.8z M253.6,89.9c-1.3,1.1-2.2,2-2.5,2.7c-0.2,0.8-0.3,1.8-0.3,3.1c0,1.4,0.1,2.6,0.3,3.1
		c0.2,0.4,0.7,0.7,1.2,0.7c0.6,0,1-0.2,1.1-0.4c0.2-0.3,0.2-1.3,0.2-2.8v-6.4H253.6z"/>
	<path class="st1" d="M280,74.2v6.7l-6.7,17.3h6.7v5.9h-15.6v-6.2l6.8-17.6h-6v-5.9L280,74.2L280,74.2z"/>
</g>
</svg>
