<?xml version="1.0" encoding="utf-8"?>
<!-- Generator: Adobe Illustrator 25.0.1, SVG Export Plug-In . SVG Version: 6.00 Build 0)  -->
<svg version="1.1" id="Layer_1" xmlns="http://www.w3.org/2000/svg" xmlns:xlink="http://www.w3.org/1999/xlink" x="0px" y="0px"
	 viewBox="0 0 300 44" style="enable-background:new 0 0 300 44;" xml:space="preserve">
<style type="text/css">
	.st0{fill:#FAAE19;}
</style>
<g>
	<path class="st0" d="M36.8,20.7h-7.2V16c0-1.4-0.1-2.2-0.2-2.6c-0.2-0.3-0.5-0.5-1-0.5c-0.6,0-1,0.2-1.1,0.6
		c-0.1,0.4-0.2,1.3-0.2,2.7V29c0,1.3,0.1,2.2,0.2,2.6s0.5,0.6,1.1,0.6c0.5,0,0.9-0.2,1-0.6c0.2-0.4,0.2-1.4,0.2-2.9v-3.4h7.2v1.1
		c0,2.8-0.2,4.9-0.6,6.1c-0.4,1.2-1.3,2.2-2.6,3.1c-1.4,0.9-3,1.3-5.1,1.3s-3.8-0.4-5.2-1.1C22,35,21.1,34,20.6,32.7
		c-0.4-1.3-0.7-3.3-0.7-6.1v-8.1c0-2,0.1-3.4,0.2-4.4s0.5-1.9,1.2-2.8c0.7-0.9,1.6-1.6,2.8-2.1c1.2-0.5,2.5-0.8,4.1-0.8
		c2.1,0,3.8,0.4,5.3,1.2c1.4,0.8,2.3,1.8,2.7,3s0.6,3.1,0.6,5.7V20.7L36.8,20.7L36.8,20.7z"/>
	<path class="st0" d="M56.2,8.7v27.6H49V24.7h-2.1v11.6h-7.2V8.7h7.2v9.9H49V8.7H56.2z"/>
	<path class="st0" d="M75.4,36.3h-6V23.8l-3.7,12.5h-6.3V8.7h6v12.4l4-12.4h6C75.4,8.7,75.4,36.3,75.4,36.3z"/>
	<path class="st0" d="M78.6,8.7h7.2v11.6c1.3,0,2-0.8,2.1-2.2l0.1-5.4c0-2,0.4-3.3,1.1-4h6.7c-0.6,0.7-1,2-0.9,4.1v4.7
		c0,2.8-1.6,4.4-4.9,4.9c3.2,0.4,4.9,2,4.9,5v4.3c0,2.1,0.3,3.5,0.9,4.4h-6.7c-0.8-0.7-1.1-2-1.1-4v-5.4c0-0.7-0.2-1.2-0.6-1.6
		s-0.9-0.6-1.6-0.6v11.7h-7.2V8.7z"/>
	<path class="st0" d="M97.6,8.7h11.9v5.6h-4.7v5.3h4.4v5.3h-4.4V31h5.3v5.6H97.6V8.7z"/>
	<path class="st0" d="M112.5,8.7h7.2c1.9,0,3.4,0.2,4.5,0.5c1,0.3,1.8,0.7,2.3,1.3s0.9,1.3,1.1,2.1s0.3,2.1,0.3,3.8v2.4
		c0,1.7-0.2,3-0.5,3.8c-0.4,0.8-1,1.4-2,1.8s-2.2,0.6-3.8,0.6h-1.9v11.1h-7.2V8.7z M119.6,13.5v7c0.2,0,0.4,0,0.5,0
		c0.7,0,1.1-0.2,1.4-0.5s0.4-1,0.4-2v-2.2c0-0.9-0.1-1.5-0.4-1.8S120.5,13.5,119.6,13.5z"/>
	<path class="st0" d="M147.1,20.7h-7.2V16c0-1.4-0.1-2.2-0.2-2.6c-0.2-0.3-0.5-0.5-1-0.5c-0.6,0-1,0.2-1.1,0.6s-0.2,1.3-0.2,2.7V29
		c0,1.3,0.1,2.2,0.2,2.6s0.5,0.6,1.1,0.6c0.5,0,0.9-0.2,1-0.6c0.2-0.4,0.2-1.4,0.2-2.9v-3.4h7.2v1.1c0,2.8-0.2,4.9-0.6,6.1
		c-0.4,1.2-1.3,2.2-2.6,3.1c-1.4,0.9-3,1.3-5.1,1.3s-3.8-0.4-5.2-1.1c-1.3-0.8-2.2-1.8-2.7-3.1c-0.4-1.3-0.7-3.3-0.7-6.1v-8.1
		c0-2,0.1-3.4,0.2-4.4c0.1-1,0.5-1.9,1.2-2.8c0.7-0.9,1.6-1.6,2.8-2.1s2.5-0.8,4.1-0.8c2.1,0,3.8,0.4,5.3,1.2c1.4,0.8,2.3,1.8,2.7,3
		s0.6,3.1,0.6,5.7V20.7L147.1,20.7L147.1,20.7z"/>
	<path class="st0" d="M166.5,8.7v27.6h-7.2V24.7h-2.1v11.6H150V8.7h7.2v9.9h2.1V8.7H166.5z"/>
	<path class="st0" d="M185.7,36.3h-6V23.8L176,36.3h-6.3V8.7h6v12.4l4-12.4h6V36.3z"/>
	<path class="st0" d="M196.2,8.7l-1.1,20.7h-5.4l-1.1-20.7C188.6,8.7,196.2,8.7,196.2,8.7z M195.7,30.7v5.6h-6.5v-5.6
		C189.2,30.7,195.7,30.7,195.7,30.7z"/>
</g>
</svg>
