<?xml version="1.0" encoding="utf-8"?>
<!-- Generator: Adobe Illustrator 25.0.1, SVG Export Plug-In . SVG Version: 6.00 Build 0)  -->
<svg version="1.1" id="Layer_1" xmlns="http://www.w3.org/2000/svg" xmlns:xlink="http://www.w3.org/1999/xlink" x="0px" y="0px"
	 viewBox="0 0 300 102" style="enable-background:new 0 0 300 102;" xml:space="preserve">
<style type="text/css">
	.st0{fill:#FFFFFF;}
	.st1{fill:#FAAE19;}
</style>
<g>
	<path class="st0" d="M88.7,6v23.3h-5.3V13.5l-2.1,15.8h-3.7l-2.2-15.4v15.4H70V6h7.9c0.2,1.4,0.5,3,0.7,5l0.8,6L80.8,6
		C80.8,6,88.7,6,88.7,6z"/>
	<path class="st0" d="M105,6v15.6c0,1.8-0.1,3-0.2,3.7c-0.1,0.7-0.5,1.5-1,2.2c-0.6,0.8-1.3,1.3-2.2,1.7c-0.9,0.4-2,0.6-3.3,0.6
		c-1.4,0-2.6-0.2-3.7-0.7c-1-0.5-1.9-1-2.4-1.8s-0.8-1.5-1-2.4c-0.1-0.8-0.1-2.6-0.1-5.2V6h6.1v17.5c0,1,0.1,1.7,0.1,1.9
		c0.1,0.3,0.3,0.4,0.7,0.4c0.4,0,0.6-0.1,0.8-0.5s0.1-1,0.1-2.2V6H105z M96.8,1.5v3.7H93V1.5H96.8z M103.1,1.5v3.7h-3.7V1.5H103.1z"
		/>
	<path class="st0" d="M121.8,6l-3.5,10.5l3.8,12.8h-6.3l-2.4-10v10h-6.1V6h6.1V15l2.7-9.1H121.8z"/>
	<path class="st0" d="M134.3,6l3.5,23.3h-6.2l-0.3-4.2H129l-0.3,4.2h-6.3L125.5,6H134.3z M131.1,21c-0.3-2.6-0.6-5.9-0.9-9.8
		c-0.6,4.5-1,7.8-1.2,9.8H131.1z"/>
	<path class="st0" d="M138.8,6h10.3v4.7h-4.2v4.4h3.7v4.4h-3.7v9.8h-6.1V6z"/>
	<path class="st0" d="M160.4,6l3.5,23.3h-6.2l-0.3-4.2h-2.1l-0.3,4.2h-6.3L151.7,6H160.4z M157.2,21c-0.3-2.6-0.6-5.9-0.9-9.8
		c-0.6,4.5-1,7.8-1.2,9.8H157.2z"/>
	<path class="st0" d="M175.6,6v4.7H172v18.7h-6.1V10.7h-3.6V6C162.3,6,175.6,6,175.6,6z"/>
	<path class="st0" d="M183.1,6v18.7h3.7v4.7H177V6H183.1z"/>
	<path class="st0" d="M199.4,6l3.5,23.3h-6.2l-0.3-4.2h-2.1l-0.3,4.2h-6.3L190.6,6H199.4z M196.2,21c-0.3-2.6-0.6-5.9-0.9-9.8
		c-0.6,4.5-1,7.8-1.2,9.8H196.2z"/>
	<path class="st0" d="M204,6h4.3c2.8,0,4.8,0.1,5.8,0.3c1,0.2,1.9,0.8,2.5,1.7c0.6,0.9,1,2.4,1,4.4c0,1.8-0.2,3-0.7,3.7
		c-0.5,0.6-1.3,1-2.7,1.1c1.2,0.3,2,0.7,2.4,1.2c0.4,0.5,0.7,1,0.8,1.4c0.1,0.4,0.1,1.6,0.1,3.5v6.2h-5.7v-7.8c0-1.2-0.1-2-0.3-2.4
		c-0.2-0.3-0.7-0.4-1.5-0.4v10.5h-6.1L204,6L204,6z M210,9.9v5.2c0.7,0,1.2-0.1,1.5-0.3c0.3-0.2,0.4-0.8,0.4-1.8v-1.3
		c0-0.8-0.1-1.2-0.4-1.5C211.2,10.1,210.7,9.9,210,9.9z"/>
	<path class="st0" d="M225.9,6v23.3h-6.1V6H225.9z"/>
</g>
<g>
	<path class="st1" d="M48.4,46.1h-8v-2.4c0-1.2-0.1-1.9-0.3-2.1s-0.6-0.4-1-0.4c-0.4,0-0.9,0.2-1.2,0.6c-0.3,0.4-0.4,1.1-0.4,2
		c0,1.1,0.2,2,0.4,2.4c0.3,0.6,1.1,1.2,2.4,2c3.8,2.2,6.2,4.1,7.2,5.5c1,1.4,1.4,3.8,1.4,7c0,2.3-0.3,4.1-0.8,5.1
		c-0.6,1.1-1.7,2-3.2,2.8c-1.6,0.8-3.4,1.2-5.4,1.2c-2.2,0-4.3-0.4-5.9-1.2c-1.6-0.9-2.7-2-3.2-3.3c-0.4-1.3-0.8-3.2-0.8-5.8v-2.1h8
		v4c0,1.2,0.1,2,0.3,2.3c0.2,0.3,0.6,0.4,1.2,0.4c0.6,0,1-0.2,1.2-0.7c0.3-0.5,0.4-1.1,0.4-2c0-2-0.3-3.2-0.8-3.8
		c-0.6-0.6-1.9-1.6-4-3c-2.1-1.3-3.5-2.4-4.2-3c-0.7-0.7-1.2-1.6-1.8-2.7c-0.4-1.2-0.7-2.5-0.7-4.3c0-2.5,0.3-4.3,1-5.5
		c0.7-1.2,1.7-2,3.1-2.8s3.2-1,5.1-1c2.2,0,4.1,0.4,5.6,1.1c1.6,0.7,2.7,1.7,3.1,2.8c0.4,1.1,0.8,2.9,0.8,5.5
		C48.4,44.9,48.4,46.1,48.4,46.1z"/>
	<path class="st1" d="M70.9,36.2v32.7h-7.5L59,54.1v14.8h-7.1V36.2H59l4.9,14.6V36.2H70.9z"/>
	<path class="st1" d="M82.8,36.2v32.7h-8.5V36.2H82.8z"/>
	<path class="st1" d="M106.1,50.4h-8.5v-5.8c0-1.7-0.1-2.8-0.3-3.1c-0.2-0.4-0.6-0.6-1.2-0.6c-0.7,0-1.2,0.3-1.3,0.8
		c-0.2,0.4-0.3,1.6-0.3,3.2v15.3c0,1.6,0.1,2.7,0.3,3.1c0.2,0.4,0.6,0.8,1.2,0.8c0.7,0,1.1-0.3,1.2-0.8c0.2-0.4,0.3-1.7,0.3-3.4
		v-4.2h8.5V57c0,3.4-0.2,5.9-0.7,7.2c-0.4,1.4-1.6,2.7-3.2,3.7c-1.7,1.1-3.7,1.6-6,1.6c-2.5,0-4.5-0.4-6.2-1.3
		c-1.7-0.9-2.8-2.1-3.2-3.8c-0.4-1.7-0.8-4-0.8-7.2v-9.7c0-2.3,0.1-4.2,0.3-5.3c0.2-1.2,0.7-2.3,1.4-3.4c0.8-1.1,2-2,3.3-2.7
		c1.3-0.7,3.1-1,5-1c2.5,0,4.5,0.4,6.2,1.4s2.8,2.1,3.2,3.5c0.4,1.4,0.8,3.7,0.8,6.8L106.1,50.4L106.1,50.4L106.1,50.4z"/>
	<path class="st1" d="M129.5,36.2l-4.9,14.7l5.3,17.9h-8.9l-3.5-14.1v14.1h-8.5V36.2h8.5v12.7l3.8-12.7
		C121.5,36.2,129.5,36.2,129.5,36.2z"/>
	<path class="st1" d="M131.5,36.2h14.2v6.6h-5.8V49h5.3v6.2h-5.3v7.2h6.2v6.6h-14.7L131.5,36.2L131.5,36.2z"/>
	<path class="st1" d="M148.7,36.2h6c4,0,6.7,0.2,8.2,0.4c1.4,0.3,2.7,1.1,3.5,2.3c0.9,1.2,1.3,3.3,1.3,6.1c0,2.5-0.3,4.3-1,5.1
		s-1.9,1.3-3.8,1.6c1.7,0.4,2.8,1,3.4,1.7c0.6,0.7,1,1.3,1.1,2c0.1,0.6,0.2,2.2,0.2,4.9v8.6h-8V58c0-1.8-0.1-2.8-0.4-3.3
		c-0.3-0.4-1-0.6-2.1-0.6v14.7h-8.5L148.7,36.2L148.7,36.2z M157.2,41.8v7.3c1,0,1.7-0.1,2-0.4c0.4-0.3,0.6-1.2,0.6-2.5v-2
		c0-1.1-0.2-1.8-0.6-2C158.8,42,158.2,41.8,157.2,41.8z"/>
	<path class="st1" d="M189.1,46.1h-8v-2.4c0-1.2-0.1-1.9-0.3-2.1c-0.2-0.3-0.6-0.4-1-0.4c-0.4,0-0.9,0.2-1.2,0.6
		c-0.3,0.4-0.4,1.1-0.4,2c0,1.1,0.2,2,0.4,2.4c0.3,0.6,1.1,1.2,2.4,2c3.8,2.2,6.2,4.1,7.2,5.5c1,1.4,1.4,3.8,1.4,7
		c0,2.3-0.3,4.1-0.8,5.1c-0.6,1.1-1.7,2-3.2,2.8c-1.6,0.8-3.4,1.2-5.4,1.2c-2.2,0-4.3-0.4-5.9-1.2c-1.7-0.9-2.7-2-3.2-3.3
		c-0.4-1.3-0.8-3.2-0.8-5.8v-2.1h8v4c0,1.2,0.1,2,0.3,2.3c0.2,0.3,0.6,0.4,1.2,0.4c0.6,0,1-0.2,1.2-0.7c0.3-0.4,0.4-1.1,0.4-2
		c0-2-0.3-3.2-0.8-3.8c-0.6-0.6-1.9-1.6-4-3c-2.1-1.3-3.5-2.4-4.2-3c-0.7-0.7-1.2-1.6-1.8-2.7c-0.4-1.2-0.7-2.5-0.7-4.3
		c0-2.5,0.3-4.3,1-5.5c0.7-1.2,1.7-2,3.1-2.8s3.2-1,5.1-1c2.2,0,4.1,0.4,5.6,1.1c1.5,0.7,2.7,1.7,3.1,2.8c0.4,1.1,0.8,2.9,0.8,5.5
		L189.1,46.1L189.1,46.1z"/>
	<path class="st1" d="M200.5,42.1l-0.1,2.4c0.6-1,1.3-1.8,2.1-2.2c0.8-0.4,1.9-0.8,3-0.8c1.3,0,2.5,0.3,3.4,1
		c0.9,0.7,1.4,1.4,1.8,2.5s0.4,2.8,0.4,5.1v18.8h-8.2V50.3c0-1.9-0.1-3-0.2-3.4s-0.4-0.6-1-0.6c-0.6,0-1,0.2-1.1,0.7
		c-0.2,0.4-0.2,1.8-0.2,3.7v18.2h-8.2V42.1H200.5z"/>
	<path class="st1" d="M222.2,36.2v4.3h-8.4v-4.3C213.8,36.2,222.2,36.2,222.2,36.2z M222.2,42.1v26.9h-8.4V42.1H222.2z"/>
	<path class="st1" d="M230.6,62.2v6.7h-6.2v-6.7H230.6z"/>
	<path class="st1" d="M240.2,52.5h-7.6v-1.9c0-2,0.2-3.7,0.7-4.9c0.5-1.2,1.4-2.1,2.9-3c1.4-0.9,3.3-1.2,5.6-1.2
		c2.8,0,4.9,0.4,6.2,1.4c1.3,1,2.2,2.1,2.5,3.5c0.3,1.4,0.4,4.3,0.4,8.9v13.5h-8v-2.4c-0.4,1-1.2,1.7-2,2.1
		c-0.8,0.4-1.8,0.7-2.8,0.7c-1.4,0-2.8-0.4-4-1.2c-1.2-0.8-1.8-2.5-1.8-5.2v-2.2c0-2,0.3-3.4,1-4.1c0.7-0.8,2.2-1.6,4.8-2.5
		c2.8-1.1,4.1-1.8,4.3-2.1c0.2-0.4,0.3-1.1,0.3-2.2c0-1.3-0.1-2.3-0.3-2.8c-0.2-0.4-0.6-0.7-1.1-0.7c-0.6,0-0.9,0.2-1.1,0.6
		c-0.1,0.4-0.2,1.2-0.2,2.8v2.8C240,52.5,240.2,52.5,240.2,52.5z M242.7,56.2c-1.2,1-2,1.8-2.2,2.4c-0.2,0.7-0.3,1.6-0.3,2.8
		c0,1.3,0.1,2.3,0.3,2.8c0.2,0.4,0.6,0.6,1.1,0.6s0.9-0.2,1-0.4c0.2-0.3,0.2-1.2,0.2-2.5V56.2z"/>
	<path class="st1" d="M266.4,42.1v6l-6,15.5h6v5.3h-14v-5.6l6.1-15.8h-5.4v-5.3L266.4,42.1L266.4,42.1z"/>
</g>
</svg>
