<?xml version="1.0" encoding="utf-8"?>
<!-- Generator: Adobe Illustrator 25.0.1, SVG Export Plug-In . SVG Version: 6.00 Build 0)  -->
<svg version="1.1" id="Layer_1" xmlns="http://www.w3.org/2000/svg" xmlns:xlink="http://www.w3.org/1999/xlink" x="0px" y="0px"
	 viewBox="0 0 300 55" style="enable-background:new 0 0 300 55;" xml:space="preserve">
<style type="text/css">
	.st0{fill:#FFFFFF;}
</style>
<g>
	<path class="st0" d="M69.4,35H64v-1.7c0-0.8-0.1-1.3-0.2-1.5s-0.4-0.3-0.7-0.3c-0.3,0-0.6,0.1-0.8,0.4c-0.2,0.3-0.3,0.8-0.3,1.3
		c0,0.8,0.1,1.3,0.3,1.7c0.2,0.4,0.8,0.9,1.7,1.4c2.7,1.5,4.3,2.7,4.9,3.8c0.7,1,1,2.7,1,4.7c0,1.6-0.2,2.7-0.6,3.5
		c-0.4,0.8-1.1,1.4-2.2,1.9c-1,0.6-2.4,0.8-3.7,0.8c-1.5,0-2.9-0.3-4-0.9c-1.1-0.6-1.8-1.3-2.2-2.3c-0.3-0.9-0.6-2.2-0.6-3.9v-1.4
		H62v2.7c0,0.9,0.1,1.4,0.2,1.6c0.1,0.2,0.4,0.3,0.8,0.3s0.7-0.1,0.9-0.5s0.3-0.8,0.3-1.3c0-1.3-0.2-2.2-0.6-2.7
		c-0.4-0.4-1.3-1-2.7-2.1c-1.5-0.9-2.4-1.6-2.8-2.1c-0.4-0.5-0.9-1-1.2-1.8c-0.3-0.8-0.5-1.7-0.5-2.9c0-1.7,0.2-2.9,0.7-3.8
		c0.6-0.8,1.3-1.5,2.2-1.9c1-0.5,2.2-0.7,3.5-0.7c1.5,0,2.7,0.3,3.8,0.8c1,0.5,1.8,1.1,2.2,1.9c0.3,0.8,0.6,2,0.6,3.8L69.4,35
		L69.4,35z"/>
	<path class="st0" d="M81.8,28.1l3.3,22.4h-6l-0.3-4h-2.1l-0.3,4h-6.1l2.9-22.4L81.8,28.1L81.8,28.1z M78.7,42.6
		c-0.3-2.6-0.6-5.7-0.9-9.4c-0.6,4.3-1,7.4-1.1,9.4H78.7z"/>
	<path class="st0" d="M96.8,28.1l-4.3,14.3v8.1h-5.4v-8L83,28.1h5.4c0.9,4.4,1.3,7.3,1.4,8.8c0.3-2.4,0.9-5.3,1.6-8.8
		C91.4,28.1,96.8,28.1,96.8,28.1z"/>
	<path class="st0" d="M109.6,28.1v4.5h-3.4v17.9h-5.9V32.7h-3.4v-4.5H109.6z"/>
	<path class="st0" d="M116.8,28.1v22.4h-5.9V28.1H116.8z"/>
	<path class="st0" d="M132.1,28.1v22.4H127l-3-10.1v10.1h-4.8V28.1h4.8l3.2,10.1V28.1H132.1z"/>
	<path class="st0" d="M134.4,28.1h4.4c2.7,0,4.7,0.1,5.7,0.4c1,0.3,1.7,0.7,2.3,1.3c0.6,0.6,0.9,1.3,1,2c0.1,0.8,0.2,2.2,0.2,4.3V44
		c0,2-0.1,3.4-0.3,4c-0.2,0.7-0.6,1.2-1,1.6c-0.5,0.4-1,0.7-1.7,0.8c-0.7,0.1-1.7,0.2-3.1,0.2h-7.4L134.4,28.1L134.4,28.1z
		 M140.2,32v14.7c0.9,0,1.3-0.2,1.5-0.6s0.3-1.3,0.3-2.7v-8.7c0-1,0-1.7-0.1-2c-0.1-0.3-0.2-0.5-0.5-0.6
		C141.3,32.1,140.9,32,140.2,32z"/>
	<path class="st0" d="M160.2,28.1l3.3,22.4h-6l-0.3-4H155l-0.3,4h-6.1l2.9-22.4C151.7,28.1,160.2,28.1,160.2,28.1z M157.1,42.6
		c-0.3-2.6-0.6-5.7-0.9-9.4c-0.6,4.3-1,7.5-1.1,9.4H157.1z"/>
	<path class="st0" d="M182.9,50.5v2.7h-4.4c-1,0-1.8-0.1-2.3-0.3c-0.5-0.1-0.8-0.4-0.9-0.8c-0.1-0.3-0.2-0.9-0.2-1.7
		c-1.3-0.1-2.5-0.4-3.4-1c-0.9-0.7-1.6-1.5-1.9-2.6c-0.3-1-0.5-2.6-0.5-4.5v-6.9c0-1.5,0.1-2.7,0.3-3.4c0.2-0.7,0.6-1.5,1.1-2.3
		c0.6-0.8,1.3-1.3,2.2-1.6c0.9-0.3,1.9-0.6,2.9-0.6c1.3,0,2.5,0.2,3.4,0.7c1,0.5,1.8,1,2.3,1.7c0.6,0.7,0.9,1.4,1,2.2
		c0.1,0.8,0.2,1.8,0.2,3.2v7.3c0,2-0.1,3.3-0.3,4c-0.2,0.8-0.6,1.3-1.1,1.7c-0.6,0.4-1.3,0.8-2.2,0.9c0,0.6,0.1,0.8,0.3,0.9
		c0.2,0.1,0.6,0.2,1.3,0.2L182.9,50.5L182.9,50.5z M177,33.9c0-1-0.1-1.7-0.2-2c-0.1-0.3-0.3-0.5-0.8-0.5c-0.3,0-0.6,0.1-0.8,0.3
		c-0.1,0.3-0.3,0.9-0.3,2.1v10.5c0,1.3,0.1,2.2,0.1,2.4c0.1,0.3,0.3,0.5,0.8,0.5c0.4,0,0.7-0.2,0.8-0.6c0.1-0.3,0.2-1.2,0.2-2.6
		V33.9H177z"/>
	<path class="st0" d="M195,28.1l3.3,22.4h-6l-0.3-4h-2.1l-0.3,4h-6l2.9-22.4C186.7,28.1,195,28.1,195,28.1z M192,42.6
		c-0.3-2.6-0.6-5.7-0.9-9.4c-0.6,4.3-1,7.5-1.1,9.4C190,42.6,192,42.6,192,42.6z"/>
	<path class="st0" d="M209.8,28.1v4.5l-4.3,13.5h4.3v4.5h-10.8v-3.2l4.5-14.7h-4v-4.7H209.8z"/>
	<path class="st0" d="M222.1,28.1l3.3,22.4h-6l-0.3-4h-2.1l-0.3,4h-6.1l3.1-22.4C213.6,28.1,222.1,28.1,222.1,28.1z M218.9,42.6
		c-0.3-2.6-0.6-5.7-0.9-9.4c-0.6,4.3-1,7.5-1.1,9.4C216.9,42.6,218.9,42.6,218.9,42.6z"/>
	<path class="st0" d="M239.4,28.1v22.4h-5.1l-3-10.1v10.1h-4.8V28.1h4.8l3.2,10.1V28.1H239.4z"/>
</g>
</svg>
