<?xml version="1.0" encoding="utf-8"?>
<!-- Generator: Adobe Illustrator 25.0.1, SVG Export Plug-In . SVG Version: 6.00 Build 0)  -->
<svg version="1.1" id="Layer_1" xmlns="http://www.w3.org/2000/svg" xmlns:xlink="http://www.w3.org/1999/xlink" x="0px" y="0px"
	 viewBox="0 0 300 54" style="enable-background:new 0 0 300 54;" xml:space="preserve">
<style type="text/css">
	.st0{fill:#FFFFFF;}
</style>
<g>
	<path class="st0" d="M31.7,19.7h-8.2v-2.5c0-1.2-0.1-1.9-0.3-2.2c-0.2-0.3-0.6-0.5-1-0.5c-0.5,0-0.9,0.2-1.2,0.6s-0.4,1.1-0.4,2
		c0,1.1,0.2,2,0.5,2.5c0.3,0.6,1.1,1.3,2.5,2.1c3.9,2.3,6.4,4.2,7.4,5.7s1.5,3.9,1.5,7.2c0,2.4-0.3,4.2-0.8,5.3
		C31.1,41,30,42,28.4,42.7c-1.6,0.8-3.5,1.2-5.6,1.2c-2.3,0-4.4-0.4-6-1.3s-2.7-2-3.3-3.4c-0.5-1.4-0.8-3.3-0.8-5.9v-2.2h8.2v4.1
		c0,1.3,0.1,2.1,0.3,2.4s0.6,0.5,1.2,0.5s1-0.2,1.3-0.7s0.4-1.1,0.4-2c0-2-0.3-3.3-0.8-3.9c-0.6-0.6-1.9-1.6-4.1-3.1
		C17,27,15.6,26,14.9,25.3c-0.7-0.7-1.3-1.6-1.8-2.7c-0.5-1.2-0.7-2.6-0.7-4.4c0-2.6,0.3-4.5,1-5.7s1.7-2.1,3.2-2.8
		c1.5-0.7,3.3-1,5.3-1c2.3,0,4.2,0.4,5.8,1.1s2.7,1.7,3.2,2.8s0.8,3,0.8,5.7V19.7z"/>
	<path class="st0" d="M50.4,9.4l5,33.7h-9l-0.4-6h-3.1l-0.5,6.1h-9.1l4.5-33.7L50.4,9.4L50.4,9.4z M45.7,31.1
		c-0.4-3.8-0.9-8.5-1.3-14.2c-0.9,6.5-1.5,11.2-1.7,14.2C42.7,31.1,45.7,31.1,45.7,31.1z"/>
	<path class="st0" d="M73,9.4L66.6,31v12.2h-8.1V31L52.3,9.4h8.1c1.3,6.6,2,11,2.1,13.3c0.5-3.6,1.3-8,2.4-13.3
		C64.9,9.4,73,9.4,73,9.4z"/>
	<path class="st0" d="M92.2,9.4v6.8H87v27h-8.8v-27H73V9.4H92.2z"/>
	<path class="st0" d="M103,9.4v33.7h-8.8V9.4H103z"/>
	<path class="st0" d="M126.1,9.4v33.7h-7.7l-4.6-15.3v15.3h-7.3V9.4h7.3l4.9,15.2V9.4H126.1z"/>
	<path class="st0" d="M129.6,9.4h6.6c4.2,0,7.1,0.2,8.6,0.6c1.5,0.4,2.6,1,3.4,1.9s1.3,1.9,1.5,3s0.3,3.2,0.3,6.4v11.8
		c0,3-0.1,5.1-0.4,6.1c-0.3,1-0.8,1.8-1.5,2.4c-0.7,0.6-1.6,1-2.6,1.2s-2.6,0.3-4.7,0.3h-11.1V9.4H129.6z M138.4,15.2v22.2
		c1.3,0,2-0.3,2.3-0.8s0.4-1.9,0.4-4.1V19.4c0-1.5,0-2.5-0.1-2.9s-0.3-0.7-0.7-0.9C140,15.3,139.4,15.2,138.4,15.2z"/>
	<path class="st0" d="M168.4,9.4l5,33.7h-9l-0.5-6.1h-3.1l-0.5,6.1h-9.1l4.5-33.7C155.7,9.4,168.4,9.4,168.4,9.4z M163.8,31.1
		c-0.4-3.8-0.9-8.5-1.3-14.2c-0.9,6.5-1.5,11.2-1.7,14.2C160.8,31.1,163.8,31.1,163.8,31.1z"/>
	<path class="st0" d="M202.5,43.2v4.1h-6.6c-1.6,0-2.7-0.1-3.4-0.4c-0.7-0.2-1.1-0.6-1.3-1.1s-0.3-1.4-0.3-2.6
		c-2-0.1-3.7-0.6-5.1-1.6c-1.4-1-2.4-2.2-2.8-3.8c-0.5-1.5-0.7-3.8-0.7-6.8V20.6c0-2.3,0.1-4,0.4-5.2c0.3-1.2,0.8-2.3,1.7-3.4
		c0.8-1.1,1.9-1.9,3.3-2.4c1.3-0.5,2.8-0.8,4.4-0.8c2,0,3.7,0.3,5.2,1s2.7,1.5,3.4,2.5c0.8,1,1.3,2.1,1.5,3.2s0.3,2.7,0.3,4.9v11
		c0,3-0.1,5-0.4,6.1c-0.3,1.1-0.9,1.9-1.7,2.6c-0.8,0.6-1.9,1.1-3.3,1.4c0,0.8,0.2,1.2,0.5,1.4s0.9,0.3,1.9,0.3H202.5z M193.7,18.1
		c0-1.6-0.1-2.6-0.3-3s-0.5-0.7-1.1-0.7c-0.5,0-0.8,0.2-1.1,0.5c-0.2,0.4-0.4,1.4-0.4,3.1v15.8c0,2,0.1,3.2,0.2,3.6
		c0.2,0.5,0.5,0.7,1.1,0.7s1-0.3,1.1-0.8c0.2-0.5,0.3-1.8,0.3-3.8V18.1H193.7z"/>
	<path class="st0" d="M220.9,9.4l5,33.7h-9l-0.5-6.1h-3.1l-0.5,6.1h-9.1l4.5-33.7C208.2,9.4,220.9,9.4,220.9,9.4z M216.3,31.1
		c-0.4-3.8-0.9-8.5-1.3-14.2c-0.9,6.5-1.5,11.2-1.7,14.2C213.3,31.1,216.3,31.1,216.3,31.1z"/>
	<path class="st0" d="M243.2,9.4v6.8l-6.5,20.2h6.5v6.8H227v-4.9l6.8-22.1h-6V9.4H243.2z"/>
	<path class="st0" d="M261.5,9.4l5,33.7h-9L257,37h-3.1l-0.5,6.1h-9.1l4.5-33.7C248.8,9.4,261.5,9.4,261.5,9.4z M256.8,31.1
		c-0.4-3.8-0.9-8.5-1.3-14.2c-0.9,6.5-1.5,11.2-1.7,14.2C253.8,31.1,256.8,31.1,256.8,31.1z"/>
	<path class="st0" d="M287.6,9.4v33.7h-7.7l-4.6-15.3v15.3H268V9.4h7.3l4.9,15.2V9.4H287.6z"/>
</g>
</svg>
