<?xml version="1.0" encoding="utf-8"?>
<!-- Generator: Adobe Illustrator 25.0.1, SVG Export Plug-In . SVG Version: 6.00 Build 0)  -->
<svg version="1.1" id="Layer_1" xmlns="http://www.w3.org/2000/svg" xmlns:xlink="http://www.w3.org/1999/xlink" x="0px" y="0px"
	 viewBox="0 0 300 126" style="enable-background:new 0 0 300 126;" xml:space="preserve">
<style type="text/css">
	.st0{fill:#FFFFFF;}
	.st1{fill:#FAAE19;}
</style>
<g>
	<path class="st0" d="M63.9,26.8v33.7h-7.7V37.7l-3.1,22.8h-5.4l-3.2-22.3v22.3h-7.7V26.8h11.4c0.3,2,0.7,4.4,1,7.2l1.2,8.6l2-15.8
		H63.9z"/>
	<path class="st0" d="M87.4,26.8v22.6c0,2.6-0.1,4.4-0.3,5.4c-0.2,1-0.7,2.1-1.5,3.2c-0.8,1.1-1.9,1.9-3.2,2.5
		c-1.3,0.6-2.9,0.8-4.7,0.8c-2,0-3.8-0.3-5.3-1s-2.7-1.5-3.5-2.6s-1.2-2.2-1.4-3.4c-0.1-1.2-0.2-3.7-0.2-7.5v-20h8.8v25.3
		c0,1.5,0.1,2.4,0.2,2.8c0.2,0.4,0.5,0.6,1,0.6c0.6,0,0.9-0.2,1.1-0.7s0.2-1.5,0.2-3.2V26.8H87.4z M75.5,20.3v5.4h-5.4v-5.4H75.5z
		 M84.7,20.3v5.4h-5.4v-5.4H84.7z"/>
	<path class="st0" d="M111.7,26.8l-5,15.2l5.5,18.5h-9.1L99.6,46v14.5h-8.8V26.8h8.8v13.1l3.9-13.1
		C103.5,26.8,111.7,26.8,111.7,26.8z"/>
	<path class="st0" d="M129.7,26.8l5,33.7h-9l-0.5-6.1h-3.1l-0.5,6.1h-9.1l4.5-33.7H129.7z M125.1,48.5c-0.4-3.8-0.9-8.5-1.3-14.2
		c-0.9,6.5-1.5,11.2-1.7,14.2H125.1z"/>
	<path class="st0" d="M136.2,26.8h14.9v6.8H145V40h5.4v6.4H145v14.2h-8.8V26.8z"/>
	<path class="st0" d="M167.5,26.8l5,33.7h-9l-0.5-6.1h-3l-0.5,6.1h-9.1l4.5-33.7H167.5z M162.9,48.5c-0.4-3.8-0.9-8.5-1.3-14.2
		c-0.9,6.5-1.5,11.2-1.7,14.2H162.9z"/>
	<path class="st0" d="M189.4,26.8v6.8h-5.2v27h-8.8v-27h-5.2v-6.8H189.4z"/>
	<path class="st0" d="M200.2,26.8v27h5.3v6.8h-14.1V26.8H200.2z"/>
	<path class="st0" d="M223.8,26.8l5,33.7h-9l-0.5-6.1h-3.1l-0.5,6.1h-9.1l4.5-33.7H223.8z M219.2,48.5c-0.4-3.8-0.9-8.5-1.3-14.2
		c-0.9,6.5-1.5,11.2-1.7,14.2H219.2z"/>
	<path class="st0" d="M230.4,26.8h6.2c4.1,0,6.9,0.2,8.4,0.5s2.7,1.1,3.6,2.4c0.9,1.3,1.4,3.4,1.4,6.3c0,2.6-0.3,4.4-1,5.3
		s-1.9,1.4-3.9,1.6c1.7,0.4,2.9,1,3.5,1.7s1,1.4,1.1,2s0.2,2.3,0.2,5v8.9h-8.2V49.3c0-1.8-0.1-2.9-0.4-3.4s-1-0.6-2.2-0.6v15.2h-8.8
		L230.4,26.8L230.4,26.8z M239.1,32.5V40c1,0,1.7-0.1,2.1-0.4c0.4-0.3,0.6-1.1,0.6-2.6v-1.9c0-1.1-0.2-1.8-0.6-2.1
		S240.1,32.5,239.1,32.5z"/>
	<path class="st0" d="M262.1,26.8v33.7h-8.8V26.8H262.1z"/>
	<path class="st1" d="M47.2,85H39v-2.5c0-1.2-0.1-1.9-0.3-2.2c-0.2-0.3-0.6-0.5-1-0.5c-0.5,0-0.9,0.2-1.2,0.6s-0.4,1.1-0.4,2
		c0,1.1,0.2,2,0.5,2.5c0.3,0.6,1.1,1.3,2.5,2.1c3.9,2.3,6.4,4.2,7.4,5.7s1.5,3.9,1.5,7.2c0,2.4-0.3,4.2-0.8,5.3
		c-0.6,1.1-1.7,2.1-3.3,2.9s-3.5,1.2-5.6,1.2c-2.3,0-4.4-0.4-6-1.3s-2.7-2-3.3-3.4c-0.5-1.4-0.8-3.3-0.8-5.9v-2.2h8.2v4.1
		c0,1.3,0.1,2.1,0.3,2.4s0.6,0.5,1.2,0.5c0.6,0,1-0.2,1.3-0.7s0.4-1.1,0.4-2c0-2-0.3-3.3-0.8-3.9c-0.6-0.6-1.9-1.6-4.1-3.1
		c-2.2-1.4-3.6-2.5-4.3-3.1c-0.7-0.7-1.3-1.6-1.8-2.7c-0.5-1.2-0.7-2.6-0.7-4.4c0-2.6,0.3-4.5,1-5.7s1.7-2.1,3.2-2.8
		c1.5-0.7,3.3-1,5.3-1c2.3,0,4.2,0.4,5.8,1.1s2.7,1.7,3.2,2.8s0.8,3,0.8,5.7C47.2,83.7,47.2,85,47.2,85z"/>
	<path class="st1" d="M70.3,74.8v33.7h-7.7L58,93.2v15.3h-7.3V74.8H58l5,15.1V74.8H70.3z"/>
	<path class="st1" d="M82.6,74.8v33.7h-8.8V74.8H82.6z"/>
	<path class="st1" d="M106.6,89.4h-8.8v-5.9c0-1.7-0.1-2.8-0.3-3.2c-0.2-0.4-0.6-0.6-1.2-0.6c-0.7,0-1.2,0.3-1.4,0.8
		c-0.2,0.5-0.3,1.6-0.3,3.3v15.7c0,1.6,0.1,2.7,0.3,3.2c0.2,0.5,0.6,0.8,1.3,0.8c0.7,0,1.1-0.3,1.3-0.8c0.2-0.5,0.3-1.7,0.3-3.5V95
		h8.8v1.3c0,3.5-0.2,6-0.7,7.4c-0.5,1.5-1.6,2.7-3.3,3.8s-3.8,1.6-6.2,1.6c-2.6,0-4.7-0.5-6.4-1.4c-1.7-0.9-2.8-2.2-3.3-3.9
		s-0.8-4.1-0.8-7.4v-9.9c0-2.4,0.1-4.3,0.3-5.5s0.7-2.4,1.5-3.5s2-2,3.4-2.7s3.2-1,5.1-1c2.6,0,4.7,0.5,6.4,1.5
		c1.7,1,2.8,2.2,3.3,3.7s0.8,3.8,0.8,7v3.4H106.6z"/>
	<path class="st1" d="M130.7,74.8l-5,15.2l5.5,18.5h-9.1L118.5,94v14.5h-8.8V74.8h8.8v13.1l3.9-13.1H130.7z"/>
	<path class="st1" d="M132.7,74.8h14.6v6.8h-5.9V88h5.5v6.4h-5.5v7.4h6.4v6.8h-15.2L132.7,74.8L132.7,74.8z"/>
	<path class="st1" d="M150.4,74.8h6.2c4.1,0,6.9,0.2,8.4,0.5s2.7,1.1,3.6,2.4c0.9,1.3,1.4,3.4,1.4,6.3c0,2.6-0.3,4.4-1,5.3
		s-1.9,1.4-3.9,1.6c1.7,0.4,2.9,1,3.5,1.7s1,1.4,1.1,2s0.2,2.3,0.2,5v8.9h-8.2V97.3c0-1.8-0.1-2.9-0.4-3.4c-0.3-0.4-1-0.6-2.2-0.6
		v15.2h-8.8L150.4,74.8L150.4,74.8z M159.2,80.5V88c1,0,1.7-0.1,2.1-0.4c0.4-0.3,0.6-1.2,0.6-2.6v-1.9c0-1.1-0.2-1.8-0.6-2.1
		S160.2,80.5,159.2,80.5z"/>
	<path class="st1" d="M192,85h-8.2v-2.5c0-1.2-0.1-1.9-0.3-2.2c-0.2-0.3-0.6-0.5-1-0.5c-0.5,0-0.9,0.2-1.2,0.6s-0.4,1.1-0.4,2
		c0,1.1,0.2,2,0.5,2.5c0.3,0.6,1.1,1.3,2.5,2.1c3.9,2.3,6.4,4.2,7.4,5.7s1.5,3.9,1.5,7.2c0,2.4-0.3,4.2-0.8,5.3
		c-0.6,1.1-1.7,2.1-3.3,2.9s-3.5,1.2-5.6,1.2c-2.3,0-4.4-0.4-6-1.3c-1.7-0.9-2.7-2-3.3-3.4c-0.5-1.4-0.8-3.3-0.8-5.9v-2.2h8.2v4.1
		c0,1.3,0.1,2.1,0.3,2.4s0.6,0.5,1.2,0.5s1-0.2,1.3-0.7s0.4-1.1,0.4-2c0-2-0.3-3.3-0.8-3.9c-0.6-0.6-1.9-1.6-4.1-3.1
		c-2.2-1.4-3.6-2.5-4.3-3.1c-0.7-0.7-1.3-1.6-1.8-2.7c-0.5-1.2-0.7-2.6-0.7-4.4c0-2.6,0.3-4.5,1-5.7s1.7-2.1,3.2-2.8s3.3-1,5.3-1
		c2.3,0,4.2,0.4,5.8,1.1s2.7,1.7,3.2,2.8c0.5,1.1,0.8,3,0.8,5.7L192,85L192,85z"/>
	<path class="st1" d="M203.8,80.8l-0.1,2.5c0.6-1,1.4-1.8,2.2-2.3s1.9-0.8,3.1-0.8c1.4,0,2.6,0.3,3.5,1s1.5,1.5,1.8,2.6
		s0.4,2.8,0.4,5.2v19.4h-8.4V89.3c0-1.9-0.1-3.1-0.2-3.5c-0.1-0.4-0.5-0.6-1-0.6c-0.6,0-1,0.2-1.1,0.7c-0.2,0.5-0.2,1.8-0.2,3.8
		v18.7h-8.4V80.8H203.8z"/>
	<path class="st1" d="M226.2,74.8v4.4h-8.7v-4.4H226.2z M226.2,80.8v27.7h-8.7V80.8H226.2z"/>
	<path class="st1" d="M234.8,101.6v6.9h-6.4v-6.9H234.8z"/>
	<path class="st1" d="M244.6,91.6h-7.9v-1.9c0-2.1,0.2-3.8,0.7-5s1.5-2.2,3-3.1s3.4-1.3,5.8-1.3c2.8,0,5,0.5,6.4,1.5
		s2.3,2.2,2.6,3.7s0.4,4.5,0.4,9.1v13.9h-8.2V106c-0.5,1-1.2,1.7-2,2.2s-1.8,0.7-2.9,0.7c-1.5,0-2.8-0.4-4.1-1.2
		c-1.2-0.8-1.8-2.6-1.8-5.4V100c0-2.1,0.3-3.5,1-4.2c0.7-0.8,2.3-1.6,4.9-2.6c2.8-1.1,4.2-1.8,4.4-2.2c0.2-0.4,0.3-1.1,0.3-2.3
		c0-1.4-0.1-2.4-0.3-2.8s-0.6-0.7-1.1-0.7c-0.6,0-0.9,0.2-1.1,0.6c-0.1,0.4-0.2,1.3-0.2,2.9v2.9H244.6z M247.3,95.3
		c-1.3,1-2.1,1.8-2.3,2.5s-0.3,1.6-0.3,2.9c0,1.4,0.1,2.4,0.3,2.8s0.6,0.6,1.1,0.6s0.9-0.2,1-0.5c0.2-0.3,0.2-1.2,0.2-2.6V95.3z"/>
	<path class="st1" d="M271.7,80.8V87l-6.2,16h6.2v5.5h-14.4v-5.8l6.3-16.3H258v-5.5L271.7,80.8L271.7,80.8z"/>
</g>
</svg>
