<?xml version="1.0" encoding="utf-8"?>
<!-- Generator: Adobe Illustrator 25.0.1, SVG Export Plug-In . SVG Version: 6.00 Build 0)  -->
<svg version="1.1" id="Layer_1" xmlns="http://www.w3.org/2000/svg" xmlns:xlink="http://www.w3.org/1999/xlink" x="0px" y="0px"
	 viewBox="0 0 300 73.7" style="enable-background:new 0 0 300 73.7;" xml:space="preserve">
<style type="text/css">
	.st0{fill:#FAAE19;}
</style>
<g>
	<path class="st0" d="M42.7,30.3H33v-3c0-1.4-0.1-2.3-0.4-2.7c-0.2-0.4-0.7-0.6-1.2-0.6c-0.6,0-1.1,0.3-1.4,0.8
		c-0.3,0.5-0.5,1.3-0.5,2.3c0,1.3,0.2,2.4,0.5,3c0.3,0.7,1.3,1.5,3,2.5c4.6,2.8,7.6,5,8.8,6.8c1.2,1.8,1.8,4.6,1.8,8.6
		c0,2.9-0.3,5-1,6.3c-0.7,1.4-2,2.5-3.9,3.4c-1.9,0.9-4.2,1.4-6.7,1.4c-2.8,0-5.2-0.5-7.2-1.6c-2-1.1-3.3-2.4-3.9-4
		c-0.6-1.6-0.9-4-0.9-7v-2.6h9.7v4.9c0,1.5,0.1,2.5,0.4,2.9s0.8,0.6,1.5,0.6c0.7,0,1.2-0.3,1.6-0.8c0.3-0.5,0.5-1.4,0.5-2.4
		c0-2.4-0.3-3.9-1-4.6c-0.7-0.7-2.3-1.9-4.9-3.6c-2.6-1.7-4.3-3-5.2-3.7c-0.8-0.8-1.5-1.9-2.1-3.2c-0.6-1.4-0.8-3.1-0.8-5.3
		c0-3.1,0.4-5.3,1.2-6.7c0.8-1.4,2.1-2.5,3.8-3.3s3.9-1.2,6.4-1.2c2.7,0,5,0.4,6.9,1.3c1.9,0.9,3.2,2,3.8,3.3
		c0.6,1.3,0.9,3.6,0.9,6.8V30.3z"/>
	<path class="st0" d="M70.1,18.1v40.2H61L55.5,40v18.3h-8.7V18.1h8.7l5.9,18.1V18.1H70.1z"/>
	<path class="st0" d="M84.8,18.1v40.2H74.3V18.1H84.8z M82.8,10.4v6.4h-6.5v-6.4H82.8z"/>
	<path class="st0" d="M113.3,35.6h-10.4v-7c0-2-0.1-3.3-0.3-3.8c-0.2-0.5-0.7-0.8-1.5-0.8c-0.9,0-1.4,0.3-1.6,0.9
		c-0.2,0.6-0.3,1.9-0.3,4v18.7c0,2,0.1,3.2,0.3,3.8s0.8,0.9,1.6,0.9c0.8,0,1.3-0.3,1.5-0.9c0.2-0.6,0.4-2,0.4-4.2v-5h10.4v1.6
		c0,4.2-0.3,7.1-0.9,8.8c-0.6,1.7-1.9,3.3-3.9,4.6s-4.5,2-7.4,2c-3.1,0-5.6-0.6-7.6-1.7c-2-1.1-3.3-2.6-3.9-4.6c-0.6-2-1-4.9-1-8.8
		V32.3c0-2.9,0.1-5.1,0.3-6.5c0.2-1.4,0.8-2.8,1.8-4.2c1-1.3,2.3-2.4,4.1-3.2c1.7-0.8,3.8-1.2,6-1.2c3.1,0,5.6,0.6,7.6,1.8
		c2,1.2,3.3,2.7,3.9,4.4c0.6,1.8,0.9,4.5,0.9,8.3V35.6z"/>
	<path class="st0" d="M142,18.1l-6,18.1l6.6,22h-10.8l-4.2-17.2v17.2h-10.4V18.1h10.4v15.6l4.7-15.6H142z"/>
	<path class="st0" d="M144.3,18.1h17.4v8h-7v7.6h6.5v7.6h-6.5v8.8h7.7v8h-18.1V18.1z"/>
	<path class="st0" d="M165.4,18.1h7.4c4.9,0,8.3,0.2,10,0.6c1.7,0.4,3.2,1.4,4.3,2.9c1.1,1.6,1.6,4.1,1.6,7.5c0,3.1-0.4,5.2-1.2,6.3
		s-2.3,1.7-4.6,1.9c2.1,0.5,3.5,1.2,4.2,2.1c0.7,0.9,1.2,1.6,1.3,2.4c0.2,0.7,0.3,2.7,0.3,5.9v10.6h-9.7V45c0-2.1-0.2-3.5-0.5-4
		s-1.2-0.8-2.7-0.8v18.1h-10.4V18.1z M175.9,25v8.9c1.2,0,2-0.2,2.5-0.5c0.5-0.3,0.7-1.4,0.7-3.1v-2.2c0-1.3-0.2-2.1-0.7-2.5
		C177.9,25.2,177.1,25,175.9,25z"/>
	<path class="st0" d="M214.9,30.3h-9.7v-3c0-1.4-0.1-2.3-0.4-2.7c-0.2-0.4-0.7-0.6-1.2-0.6c-0.6,0-1.1,0.3-1.4,0.8
		c-0.3,0.5-0.5,1.3-0.5,2.3c0,1.3,0.2,2.4,0.5,3c0.3,0.7,1.3,1.5,3,2.5c4.6,2.8,7.6,5,8.8,6.8c1.2,1.8,1.8,4.6,1.8,8.6
		c0,2.9-0.3,5-1,6.3c-0.7,1.4-2,2.5-3.9,3.4c-1.9,0.9-4.2,1.4-6.7,1.4c-2.8,0-5.2-0.5-7.2-1.6c-2-1.1-3.3-2.4-3.9-4
		c-0.6-1.6-0.9-4-0.9-7v-2.6h9.7v4.9c0,1.5,0.1,2.5,0.4,2.9c0.3,0.4,0.8,0.6,1.5,0.6c0.7,0,1.2-0.3,1.5-0.8s0.5-1.4,0.5-2.4
		c0-2.4-0.3-3.9-1-4.6c-0.7-0.7-2.3-1.9-4.9-3.6c-2.6-1.7-4.3-3-5.2-3.7c-0.8-0.8-1.5-1.9-2.1-3.2c-0.6-1.4-0.8-3.1-0.8-5.3
		c0-3.1,0.4-5.3,1.2-6.7c0.8-1.4,2.1-2.5,3.8-3.3c1.8-0.8,3.9-1.2,6.4-1.2c2.7,0,5,0.4,6.9,1.3c1.9,0.9,3.2,2,3.8,3.3
		c0.6,1.3,0.9,3.6,0.9,6.8V30.3z"/>
	<path class="st0" d="M229.5,18.1v32.1h6.4v8h-16.8V18.1H229.5z"/>
	<path class="st0" d="M262.1,28c0.1,1.7,0.1,3.9,0.1,6.8v6.9c0,4-0.1,6.9-0.3,8.6c-0.2,1.7-0.8,3.2-1.8,4.6c-1,1.4-2.3,2.5-4.1,3.2
		c-1.7,0.7-3.7,1.1-6,1.1c-2.2,0-4.1-0.4-5.8-1.1c-1.7-0.7-3.1-1.7-4.1-3.2c-1-1.4-1.7-2.9-1.9-4.6c-0.2-1.7-0.3-4.5-0.3-8.7v-7.3
		h13.8v-6.9c0-1.3-0.1-2.2-0.2-2.7c-0.2-0.5-0.7-0.8-1.7-0.8c-1.2,0-1.8,0.8-1.8,2.4v3.2h-10v-2c0-3.2,1-5.6,3.1-7.3
		c2.1-1.7,4.8-2.5,8.2-2.5c4.4,0,7.6,0.8,9.5,2.5c1.2,1,2,2.2,2.6,3.8l0,0.1c0.1,0.2,0.1,0.4,0.2,0.7l0.1,0.3
		C262,26.1,262.1,27,262.1,28z M251.5,51.4c0.2-0.6,0.3-2.1,0.3-4.5v-6.7h-3.3v7c0,2.3,0.1,3.8,0.3,4.3c0.2,0.5,0.6,0.8,1.3,0.8
		C250.9,52.3,251.3,52,251.5,51.4z"/>
	<path class="st0" d="M276.9,18.1l-1.6,30.2h-7.7l-1.6-30.2H276.9z M276.1,50.3v8h-9.4v-8H276.1z"/>
</g>
</svg>
