<?xml version="1.0" encoding="utf-8"?>
<!-- Generator: Adobe Illustrator 25.0.1, SVG Export Plug-In . SVG Version: 6.00 Build 0)  -->
<svg version="1.1" id="Layer_1" xmlns="http://www.w3.org/2000/svg" xmlns:xlink="http://www.w3.org/1999/xlink" x="0px" y="0px"
	 viewBox="0 0 300 128" style="enable-background:new 0 0 300 128;" xml:space="preserve">
<style type="text/css">
	.st0{fill:#FFFFFF;}
</style>
<g>
	<path class="st0" d="M19.9,19.1h10.5c3.3,0,5.8,0.3,7.5,0.8S41,21.5,42,23c1.1,1.6,1.6,4.1,1.6,7.6c0,2.4-0.4,4-1.1,4.9
		c-0.7,0.9-2.2,1.6-4.4,2.1c2.4,0.6,4.1,1.5,5,2.7c0.9,1.3,1.3,3.2,1.3,5.9V50c0,2.7-0.3,4.8-0.9,6.1c-0.6,1.3-1.6,2.2-3,2.7
		s-4.2,0.7-8.4,0.7H19.9V19.1z M30.4,26v9c0.5,0,0.8,0,1.1,0c1,0,1.7-0.3,2-0.8s0.4-2,0.4-4.4c0-1.3-0.1-2.2-0.4-2.7
		c-0.2-0.5-0.5-0.8-0.9-1C32.2,26.1,31.5,26.1,30.4,26z M30.4,41.3v11.3c1.5-0.1,2.4-0.3,2.8-0.7s0.6-1.4,0.6-3.1V45
		c0-1.7-0.2-2.8-0.6-3.2C32.9,41.6,32,41.4,30.4,41.3z"/>
	<path class="st0" d="M48.2,19.1h17.6v8.1h-7v7.7h6.6v7.7h-6.6v8.9h7.7v8.1H48.2V19.1z"/>
	<path class="st0" d="M91.9,19.1l-7.7,25.8v14.7h-9.8V44.9L67,19.1h9.7c1.5,7.9,2.4,13.2,2.6,16c0.6-4.3,1.6-9.6,2.9-16
		C82.2,19.1,91.9,19.1,91.9,19.1z"/>
	<path class="st0" d="M117.2,19.1v40.5H108l-5.5-18.4v18.4h-8.8V19.1h8.8l5.9,18.2V19.1H117.2z"/>
	<path class="st0" d="M132,19.1v40.5h-10.5V19.1H132z M130,11.3v6.5h-6.5v-6.5C123.5,11.3,130,11.3,130,11.3z"/>
	<path class="st0" d="M159.7,19.1v40.5h-9.2L145,41.2v18.4h-8.8V19.1h8.8l5.9,18.2V19.1H159.7z"/>
	<path class="st0" d="M174.5,19.1v32.4h6.4v8.1H164V19.1H174.5z"/>
	<path class="st0" d="M207.4,29c0.1,1.7,0.1,4,0.1,6.8v7c0,4.1-0.1,7-0.3,8.7s-0.8,3.3-1.8,4.7s-2.4,2.5-4.1,3.2
		c-1.7,0.8-3.7,1.1-6,1.1c-2.2,0-4.1-0.4-5.9-1.1c-1.7-0.7-3.1-1.8-4.2-3.2c-1.1-1.4-1.7-3-1.9-4.7s-0.3-4.6-0.3-8.8v-7.4h14v-6.9
		c0-1.3-0.1-2.2-0.3-2.7s-0.7-0.8-1.7-0.8c-1.2,0-1.9,0.8-1.9,2.4v3.2H183v-2c0-3.2,1-5.7,3.1-7.4c2.1-1.7,4.8-2.5,8.3-2.5
		c4.4,0,7.6,0.8,9.6,2.5c1.2,1,2.1,2.3,2.6,3.9v0.1c0.1,0.2,0.1,0.4,0.2,0.7l0.1,0.3C207.3,27.2,207.4,28.1,207.4,29z M196.6,52.6
		c0.2-0.6,0.3-2.1,0.3-4.5v-6.8h-3.3v7.1c0,2.4,0.1,3.8,0.3,4.4c0.2,0.6,0.7,0.8,1.4,0.8S196.4,53.3,196.6,52.6z"/>
	<path class="st0" d="M52.4,72.1v40.5h-9.2V85.3l-3.7,27.3H33l-3.9-26.7v26.7h-9.2V72.1h13.6c0.4,2.4,0.8,5.3,1.2,8.6L36.3,91
		l2.4-18.9H52.4z"/>
	<path class="st0" d="M80.5,82c0.1,1.7,0.1,4,0.1,6.8v7c0,4.1-0.1,7-0.3,8.7c-0.2,1.7-0.8,3.3-1.8,4.7c-1,1.4-2.4,2.5-4.1,3.2
		c-1.7,0.8-3.7,1.1-6,1.1c-2.2,0-4.1-0.4-5.9-1.1c-1.7-0.7-3.1-1.8-4.2-3.2c-1.1-1.4-1.7-3-1.9-4.7s-0.3-4.6-0.3-8.8v-7.4H70v-6.9
		c0-1.3-0.1-2.2-0.3-2.7c-0.2-0.5-0.7-0.8-1.7-0.8c-1.2,0-1.9,0.8-1.9,2.4v3.2h-9.8v-2c0-3.2,1-5.7,3.1-7.4c2.1-1.7,4.8-2.5,8.3-2.5
		c4.4,0,7.6,0.8,9.6,2.5c1.2,1,2.1,2.3,2.6,3.9l0.1,0.2c0.1,0.2,0.1,0.4,0.2,0.7l0.1,0.3C80.4,80.2,80.5,81.1,80.5,82z M69.8,105.6
		c0.2-0.6,0.3-2.1,0.3-4.5v-6.8h-3.3v7.1c0,2.4,0.1,3.8,0.3,4.4c0.2,0.5,0.7,0.8,1.4,0.8C69.2,106.6,69.6,106.3,69.8,105.6z"/>
	<path class="st0" d="M96.6,113.4v0.5c0.9,0,1.7,0.3,2.5,0.9s1.1,1.4,1.1,2.4c0,1.3-0.5,2.4-1.5,3.3s-2.3,1.4-3.7,1.4
		c-2.6,0-4.3-1.3-5-4h3.7c0.2,0.7,0.7,1.1,1.3,1.1c1,0,1.5-0.5,1.5-1.5c0-1.1-0.7-1.7-2.1-1.7h-0.7v-2.6c-2.7-0.4-4.8-1.2-6.3-2.4
		c-1.5-1.2-2.4-2.6-2.8-4.2s-0.6-3.6-0.6-6v-2.7h9.8v4.9c0,1.5,0.1,2.5,0.4,2.9s0.8,0.7,1.5,0.7c1.4,0,2.1-1.1,2.1-3.3
		c0-2.4-0.3-3.9-1-4.7c-0.7-0.7-2.3-2-4.9-3.7s-4.4-3-5.2-3.8c-0.9-0.8-1.6-1.9-2.1-3.3c-0.6-1.4-0.8-3.2-0.8-5.3
		c0-3.1,0.4-5.4,1.2-6.8c0.8-1.4,2.1-2.6,3.8-3.4s3.9-1.2,6.4-1.2c2.7,0,5.1,0.4,7,1.3s3.2,2,3.8,3.3c0.6,1.3,0.9,3.6,0.9,6.8v1.6
		h-9.8v-3c0-1.4-0.1-2.3-0.4-2.7s-0.7-0.6-1.3-0.6c-1.3,0-1.9,1-1.9,3.1c0,1.4,0.2,2.4,0.5,3.1c0.4,0.7,1.4,1.5,3,2.5
		c4.7,2.8,7.6,5.1,8.9,6.8c1.2,1.8,1.8,4.7,1.8,8.6c0,2.7-0.3,4.7-0.9,6.1c-0.6,1.3-1.8,2.5-3.7,3.5S99.2,113.4,96.6,113.4z"/>
	<path class="st0" d="M135.2,112.6v4.9h-8c-1.9,0-3.3-0.1-4.1-0.4s-1.3-0.7-1.6-1.3c-0.3-0.6-0.4-1.6-0.4-3.1
		c-2.4-0.1-4.4-0.7-6.2-1.9c-1.7-1.2-2.9-2.7-3.4-4.5s-0.8-4.6-0.8-8.2V85.5c0-2.8,0.2-4.8,0.5-6.3s1-2.8,2-4.1
		c1-1.3,2.3-2.2,3.9-2.9c1.6-0.7,3.4-1,5.3-1c2.4,0,4.4,0.4,6.3,1.2c1.8,0.8,3.2,1.8,4.1,3.1c0.9,1.2,1.5,2.5,1.8,3.8
		s0.4,3.3,0.4,5.9v13.2c0,3.6-0.2,6-0.5,7.3c-0.4,1.3-1,2.3-2,3.1c-1,0.8-2.3,1.3-4,1.7c0,0.9,0.2,1.5,0.6,1.7
		c0.3,0.2,1.1,0.4,2.3,0.4C131.4,112.6,135.2,112.6,135.2,112.6z M124.6,82.5c0-1.9-0.1-3.1-0.3-3.6s-0.6-0.8-1.3-0.8
		c-0.6,0-1,0.2-1.3,0.6s-0.4,1.7-0.4,3.8v18.9c0,2.4,0.1,3.8,0.3,4.4c0.2,0.5,0.6,0.8,1.3,0.8c0.7,0,1.2-0.3,1.4-1s0.3-2.1,0.3-4.5
		V82.5z"/>
	<path class="st0" d="M148.1,72.1h17.6v8.1h-7v7.7h6.6v7.7h-6.6v8.9h7.7v8.1h-18.3V72.1z"/>
	<path class="st0" d="M189.9,72.1v8.1h-6.3v32.4h-10.5V80.2h-6.2v-8.1H189.9z"/>
	<path class="st0" d="M203.1,72.1l-1.7,30.5h-7.8L192,72.1H203.1z M202.3,104.5v8.1h-9.5v-8.1H202.3z"/>
</g>
</svg>
