<?xml version="1.0" encoding="utf-8"?>
<!-- Generator: Adobe Illustrator 19.2.1, SVG Export Plug-In . SVG Version: 6.00 Build 0)  -->
<svg version="1.1" id="Layer_1" xmlns="http://www.w3.org/2000/svg" xmlns:xlink="http://www.w3.org/1999/xlink" x="0px" y="0px"
	 width="300px" height="55px" viewBox="0 0 300 55" style="enable-background:new 0 0 300 55;" xml:space="preserve">
<style type="text/css">
	.st0{fill:#FCAF17;}
</style>
<g>
	<path class="st0" d="M37.3,19.5h-8.6v-2.6c0-1.2-0.1-2-0.3-2.4c-0.2-0.3-0.6-0.5-1.1-0.5c-0.6,0-1,0.2-1.3,0.7s-0.4,1.1-0.4,2.1
		c0,1.2,0.2,2.1,0.5,2.7s1.2,1.3,2.6,2.2c4.1,2.4,6.7,4.5,7.8,6c1.1,1.6,1.6,4.1,1.6,7.6c0,2.5-0.3,4.4-0.9,5.6
		c-0.6,1.2-1.7,2.2-3.4,3s-3.7,1.2-5.9,1.2c-2.5,0-4.6-0.5-6.3-1.4c-1.8-0.9-2.9-2.1-3.4-3.6s-0.8-3.5-0.8-6.2v-2.3H26v4.3
		c0,1.3,0.1,2.2,0.4,2.6s0.7,0.6,1.3,0.6c0.6,0,1.1-0.2,1.4-0.7s0.5-1.2,0.5-2.2c0-2.1-0.3-3.5-0.9-4.1s-2-1.7-4.3-3.2
		s-3.8-2.6-4.6-3.3c-0.7-0.7-1.4-1.6-1.9-2.9c-0.5-1.2-0.7-2.8-0.7-4.7c0-2.7,0.3-4.7,1-6s1.8-2.2,3.4-3s3.4-1.1,5.6-1.1
		c2.4,0,4.5,0.4,6.1,1.2c1.7,0.8,2.8,1.8,3.4,2.9c0.5,1.2,0.8,3.2,0.8,6v1.5L37.3,19.5L37.3,19.5z"/>
	<path class="st0" d="M62.1,8.7v35.6h-8.2l-4.8-16.2v16.2h-7.7V8.7h7.7l5.2,16v-16L62.1,8.7L62.1,8.7z"/>
	<path class="st0" d="M75.5,8.7v35.6h-9.3V8.7C66.2,8.7,75.5,8.7,75.5,8.7z"/>
	<path class="st0" d="M101.3,24.2H92V18c0-1.8-0.1-2.9-0.3-3.4c-0.2-0.4-0.6-0.7-1.3-0.7c-0.8,0-1.2,0.3-1.5,0.8
		c-0.2,0.5-0.3,1.7-0.3,3.5v16.5c0,1.7,0.1,2.9,0.3,3.4s0.7,0.8,1.4,0.8c0.7,0,1.1-0.3,1.4-0.8c0.2-0.5,0.3-1.8,0.3-3.7V30h9.3v1.4
		c0,3.7-0.3,6.3-0.8,7.8s-1.7,2.9-3.5,4.1S93,45,90.4,45c-2.7,0-4.9-0.5-6.7-1.5c-1.8-1-2.9-2.3-3.5-4.1c-0.6-1.7-0.9-4.3-0.9-7.8
		V21.2c0-2.6,0.1-4.5,0.3-5.8c0.2-1.3,0.7-2.5,1.6-3.7s2.1-2.1,3.6-2.8s3.3-1,5.3-1c2.7,0,5,0.5,6.7,1.6c1.8,1.1,2.9,2.4,3.5,3.9
		c0.6,1.6,0.8,4,0.8,7.3v3.5H101.3z"/>
	<path class="st0" d="M127.1,8.7l-5.3,16.1l5.8,19.5H118L114.3,29v15.3H105V8.7h9.3v13.8l4.1-13.8H127.1z"/>
	<path class="st0" d="M129.6,8.7H145v7.1h-6.1v6.7h5.8v6.8h-5.8v7.8h6.8v7.1h-16L129.6,8.7L129.6,8.7L129.6,8.7z"/>
	<path class="st0" d="M148.8,8.7h6.5c4.4,0,7.3,0.2,8.9,0.5c1.5,0.3,2.8,1.2,3.8,2.6s1.5,3.6,1.5,6.6c0,2.8-0.3,4.6-1,5.6
		s-2,1.5-4.1,1.7c1.8,0.5,3.1,1.1,3.7,1.8c0.6,0.8,1,1.5,1.2,2.1s0.2,2.4,0.2,5.3v9.4h-8.6V32.4c0-1.9-0.2-3.1-0.5-3.5
		s-1.1-0.7-2.4-0.7v16h-9.3V8.7L148.8,8.7L148.8,8.7z M158,14.8v7.9c1,0,1.8-0.1,2.2-0.4s0.6-1.2,0.6-2.8v-2c0-1.1-0.2-1.9-0.6-2.2
		C159.8,14.9,159.1,14.8,158,14.8z"/>
	<path class="st0" d="M193.1,19.5h-8.6v-2.6c0-1.2-0.1-2-0.3-2.4c-0.2-0.3-0.6-0.5-1.1-0.5c-0.6,0-1,0.2-1.3,0.7s-0.4,1.1-0.4,2.1
		c0,1.2,0.2,2.1,0.5,2.7s1.2,1.3,2.6,2.2c4.1,2.4,6.7,4.5,7.8,6c1.1,1.6,1.6,4.1,1.6,7.6c0,2.5-0.3,4.4-0.9,5.6
		c-0.6,1.2-1.7,2.2-3.4,3s-3.7,1.2-5.9,1.2c-2.5,0-4.6-0.5-6.3-1.4s-2.9-2.1-3.4-3.6s-0.8-3.5-0.8-6.2v-2.3h8.6v4.3
		c0,1.3,0.1,2.2,0.4,2.6c0.2,0.4,0.7,0.6,1.3,0.6s1.1-0.2,1.4-0.7c0.3-0.5,0.5-1.2,0.5-2.2c0-2.1-0.3-3.5-0.9-4.1
		c-0.6-0.6-2-1.7-4.3-3.2s-3.8-2.6-4.6-3.3c-0.7-0.7-1.4-1.6-1.9-2.9c-0.5-1.2-0.7-2.8-0.7-4.7c0-2.7,0.3-4.7,1-6s1.8-2.2,3.4-3
		c1.6-0.7,3.4-1.1,5.6-1.1c2.4,0,4.5,0.4,6.1,1.2c1.7,0.8,2.8,1.8,3.4,2.9c0.5,1.2,0.8,3.2,0.8,6v1.5L193.1,19.5L193.1,19.5z"/>
	<path class="st0" d="M206,15.1l-0.2,2.7c0.6-1.1,1.4-1.9,2.4-2.4c0.9-0.5,2-0.8,3.2-0.8c1.5,0,2.8,0.4,3.7,1.1
		c1,0.7,1.6,1.6,1.9,2.7c0.3,1.1,0.4,2.9,0.4,5.5v20.4h-8.9V24.1c0-2-0.1-3.2-0.2-3.7c-0.1-0.4-0.5-0.7-1.1-0.7s-1,0.3-1.2,0.8
		s-0.2,1.9-0.2,4.1v19.7h-8.9V15.1C196.9,15.1,206,15.1,206,15.1z"/>
	<path class="st0" d="M230.1,8.7v4.6h-9.2V8.7H230.1z M230.1,15.1v29.2h-9.2V15.1C220.9,15.1,230.1,15.1,230.1,15.1z"/>
	<path class="st0" d="M239.6,37v7.3h-6.7V37H239.6z"/>
	<path class="st0" d="M251.4,8.7v8.4c0.7-0.9,1.5-1.5,2.5-1.9c0.9-0.4,1.9-0.6,2.9-0.6c1.2,0,2.3,0.2,3.2,0.6c0.9,0.4,1.6,0.9,2,1.6
		c0.5,0.7,0.8,1.4,0.8,2c0.1,0.7,0.1,2.1,0.1,4.2v13.1c0,2.1-0.1,3.7-0.4,4.8c-0.3,1-1,2-2,2.7c-1.1,0.8-2.3,1.2-3.8,1.2
		c-1,0-2-0.2-2.9-0.7s-1.7-1.1-2.5-2l-0.6,2.2h-8.3V8.7C242.4,8.7,251.4,8.7,251.4,8.7z M254.1,23.4c0-1.5-0.1-2.5-0.3-3
		s-0.6-0.7-1.1-0.7s-0.9,0.2-1.1,0.6c-0.2,0.4-0.2,1.4-0.2,3V36c0,1.6,0.1,2.6,0.3,3s0.5,0.7,1.1,0.7s0.9-0.2,1.1-0.7
		c0.2-0.5,0.3-1.5,0.3-3.3V23.4H254.1z"/>
	<path class="st0" d="M284.9,15.1l-2.5,21.1c-0.4,3.3-0.7,5.6-1,6.8s-0.7,2.2-1.4,3s-1.5,1.4-2.6,1.7c-1.1,0.4-2.9,0.6-5.4,0.6h-5.4
		v-4.7c1.4,0,2.3-0.1,2.7-0.2c0.4-0.1,0.6-0.5,0.6-0.9c0-0.2-0.2-1.3-0.6-3.1L264.4,15h8.1l2.9,19.7l1.4-19.7L284.9,15.1L284.9,15.1
		z"/>
</g>
</svg>
