<?xml version="1.0" encoding="utf-8"?>
<!-- Generator: Adobe Illustrator 19.2.1, SVG Export Plug-In . SVG Version: 6.00 Build 0)  -->
<svg version="1.1" id="Layer_1" xmlns="http://www.w3.org/2000/svg" xmlns:xlink="http://www.w3.org/1999/xlink" x="0px" y="0px"
	 width="300px" height="44px" viewBox="0 0 300 44" style="enable-background:new 0 0 300 44;" xml:space="preserve">
<style type="text/css">
	.st0{fill:#FAAE19;}
</style>
<g>
	<path class="st0" d="M34.5,12.7c0,0.5-0.3,0.8-0.8,0.8h-1c-0.7,0-1.1,0.1-1.3,0.3C31.1,14,31,14.4,31,15v0.4c0,0.5-0.3,0.8-0.8,0.8
		h-2.1c-0.5,0-0.8-0.3-0.8-0.8V15c0-0.7-0.1-1.1-0.3-1.4c-0.2-0.3-0.6-0.4-1.1-0.4c-0.6,0-1,0.2-1.2,0.5c-0.2,0.3-0.3,1-0.3,2v2.7
		c0.5-0.4,1.5-0.6,2.8-0.6h0.2c2.5,0,4.2,0.3,5.1,0.9c1,0.7,1.6,2.2,1.6,4.4v6.9c0,2.2-0.3,3.6-1.2,4.4c-0.8,0.7-2.2,1.1-4.4,1.1H26
		c-2.2,0-3.6-0.4-4.4-1.1c-0.8-0.8-1.2-2.4-1.2-4.8V15.6c0-2.2,0.5-3.7,1.5-4.5c0.8-0.7,2-1,3.7-1c1.6,0,2.8,0.7,3.5,2h0.1
		c0.6-1.2,1.7-1.8,3.3-1.8h1.1c0.5,0,0.8,0.3,0.8,0.8V12.7z M30.1,23.5c0-1.1-0.2-1.8-0.5-2.1c-0.3-0.3-1.1-0.5-2.2-0.5h-0.5
		c-1.1,0-1.8,0.1-2.1,0.4c-0.3,0.3-0.5,1-0.5,2.1v6.1c0,1.1,0.1,1.8,0.4,2.2c0.3,0.4,0.8,0.6,1.7,0.6H28c0.9,0,1.4-0.2,1.7-0.5
		c0.3-0.4,0.4-1.1,0.4-2.3V23.5z"/>
	<path class="st0" d="M43.1,11.9c0,1.1,1,3,3,5.6c2,2.6,3,5,3,7l0,5.3c0,2.2-0.4,3.6-1,4.3c-0.7,0.8-2.3,1.2-4.6,1.2h-1.5
		c-2,0-3.4-0.3-4.2-0.8c-0.9-0.7-1.4-1.9-1.4-3.8V26c0-0.5,0.3-0.8,0.8-0.8h2.1c0.5,0,0.8,0.3,0.8,0.8v3.8c0,1.1,0.1,1.7,0.3,2
		c0.2,0.4,0.8,0.6,1.7,0.6h1.3c0.8,0,1.3-0.2,1.6-0.5c0.3-0.3,0.4-1,0.4-1.9l0-5.5c0-1.2-0.3-2.4-1-3.5c-0.4-0.7-1.1-1.6-2-2.9
		l-0.6-0.7l-0.5-0.7c-0.4-0.5-0.7-1-1-1.5c-0.6-1.1-0.9-2.2-0.9-3.4v-0.8c0-0.5,0.3-0.8,0.8-0.8h2.1c0.5,0,0.8,0.3,0.8,0.8V11.9z"/>
	<path class="st0" d="M50.8,11.1c0-0.5,0.3-0.8,0.8-0.8h1.6c1.7,0,2.8,0.6,3.4,1.8h0.1c0.8-1.4,2-2.1,3.8-2.1c1.7,0,3,0.3,3.8,0.9
		c1.1,0.8,1.7,2.3,1.7,4.4V30c0,2.1-0.4,3.5-1.3,4.3c-0.8,0.7-2.1,1.1-4,1.1H58c-2.3,0-3.9-0.3-4.6-1c-0.8-0.7-1.2-2.3-1.2-4.7V26
		c0-0.5,0.3-0.8,0.8-0.8h2.2c0.5,0,0.8,0.3,0.8,0.8v3.4c0,1.1,0.1,1.9,0.4,2.2c0.3,0.4,0.8,0.6,1.6,0.6h2.3c0.7,0,1.2-0.2,1.5-0.6
		c0.2-0.4,0.4-1,0.4-2V15.5c0-0.9-0.2-1.5-0.5-1.9c-0.3-0.2-0.7-0.4-1.4-0.4c-0.6,0-1,0.2-1.3,0.5c-0.2,0.4-0.3,1.1-0.3,2.1v4.3
		c0,0.5-0.3,0.8-0.8,0.8h-2.3c-0.5,0-0.8-0.3-0.8-0.8V16c0-0.9-0.1-1.5-0.3-1.8c-0.2-0.4-0.7-0.7-1.3-0.7h-1.5
		c-0.5,0-0.8-0.3-0.8-0.8V11.1z"/>
	<path class="st0" d="M74.3,35.4c-2.1,0-3.5-0.4-4.2-1.1c-0.8-0.8-1.2-2.4-1.2-4.7V11.1c0-0.5,0.3-0.8,0.8-0.8h2.2
		c0.5,0,0.8,0.3,0.8,0.8v18.4c0,1.1,0.1,1.8,0.4,2.1c0.3,0.4,0.9,0.6,1.7,0.6h1.2c0.9,0,1.4-0.2,1.7-0.6c0.2-0.3,0.4-1,0.4-2V18.6
		c0-0.5,0.3-0.8,0.8-0.8H81c0.5,0,0.8,0.3,0.8,0.8v10.9c0,2.5-0.4,4.1-1.3,4.9c-0.7,0.7-2.1,1-4.2,1H74.3z"/>
	<path class="st0" d="M96.4,12.4c0,0.5-0.3,0.8-0.8,0.8h-5.7c-0.7,0-1.1,0.2-1.3,0.6c-0.2,0.3-0.2,1-0.2,2V18
		c0.7-0.4,1.5-0.6,2.6-0.6h1.2c2.2,0,3.7,0.5,4.4,1.4c0.5,0.7,0.8,2,0.8,4v7.1c0,2.2-0.4,3.7-1.1,4.4c-0.7,0.8-2.2,1.1-4.4,1.1H90
		c-2.2,0-3.6-0.4-4.4-1.2c-0.7-0.7-1.1-2.1-1.1-4.2V15.2c0-1.9,0.4-3.2,1.2-3.9c0.7-0.7,2.1-1,4-1h5.7c0.5,0,0.8,0.3,0.8,0.8V12.4z
		 M88.3,29.8c0,1.1,0.1,1.8,0.4,2.1c0.3,0.3,0.9,0.5,1.9,0.5h0.6c1,0,1.6-0.1,1.9-0.4c0.3-0.3,0.5-1,0.5-2.1v-7.1
		c0-0.9-0.1-1.5-0.4-1.8c-0.3-0.3-0.9-0.5-1.7-0.5h-1c-1,0-1.6,0.2-1.9,0.6c-0.2,0.3-0.3,0.9-0.3,1.8V29.8z"/>
	<path class="st0" d="M100.8,35.1c-0.5,0-0.8-0.3-0.8-0.8V15.6c0-2,0.4-3.4,1.1-4.2c0.8-0.9,2.2-1.3,4.2-1.3h2.3
		c2.2,0,3.7,0.5,4.4,1.6c0.6,0.8,0.9,2.2,0.9,4.1v18.5c0,0.5-0.3,0.8-0.8,0.8H110c-0.5,0-0.8-0.3-0.8-0.8V15.6c0-1-0.1-1.6-0.4-2
		c-0.3-0.4-0.9-0.6-1.8-0.6h-1.1c-0.9,0-1.5,0.2-1.8,0.6c-0.3,0.4-0.4,1.1-0.4,2.2v18.5c0,0.5-0.3,0.8-0.8,0.8H100.8z"/>
	<path class="st0" d="M127.9,10.3c0.5,0,0.8,0.3,0.8,0.8V15c0,0.8-0.2,1.5-0.6,2.2c-0.4,0.6-0.8,1.1-1.4,1.6V19
		c0.6,0.2,1.1,0.6,1.5,1.2c0.4,0.5,0.5,1.1,0.5,1.6v7.7c0,2.3-0.4,3.9-1.2,4.7c-0.8,0.8-2.2,1.2-4.5,1.2h-2.2
		c-2.2,0-3.6-0.4-4.4-1.1c-0.8-0.8-1.2-2.3-1.2-4.6V26c0-0.5,0.3-0.8,0.8-0.8h2.2c0.5,0,0.8,0.3,0.8,0.8v3.4c0,1.2,0.1,1.9,0.4,2.2
		c0.3,0.4,0.9,0.6,1.9,0.6h0.9c1,0,1.7-0.1,2-0.4c0.4-0.3,0.6-1.1,0.6-2.2v-7c0-0.9-0.1-1.5-0.4-1.8c-0.3-0.3-0.9-0.4-2.1-0.4h-1.6
		c-0.5,0-0.8-0.3-0.8-0.8v-1.5c0-0.5,0.3-0.8,0.8-0.8h1.6c1.1,0,1.8-0.2,2.1-0.6c0.3-0.3,0.4-1,0.4-2v-3.7c0-0.5,0.3-0.8,0.8-0.8
		H127.9z"/>
	<path class="st0" d="M135,29.5c0,1.1,0.1,1.9,0.4,2.2c0.3,0.4,0.8,0.6,1.6,0.6h2c0.7,0,1.2-0.2,1.5-0.6c0.2-0.4,0.4-1,0.4-2V15.6
		c0-0.9-0.1-1.5-0.4-1.8c-0.3-0.3-1-0.5-2-0.5h-1c-1.3,0-2,0.8-2.1,2.3v1c0,0.5-0.3,0.8-0.8,0.8h-2.1c-0.5,0-0.8-0.3-0.8-0.8v-0.8
		c0-2.3,0.5-3.9,1.4-4.7c0.8-0.7,2.2-1.1,4.3-1.1h1.3c2.5,0,4.2,0.4,5,1.2c0.8,0.7,1.1,2.1,1.1,4.2V30c0,2.1-0.4,3.5-1.3,4.3
		c-0.8,0.7-2.1,1.1-4,1.1H137c-2.3,0-3.9-0.3-4.6-1c-0.8-0.7-1.2-2.3-1.2-4.7l0-3.7c0-0.5,0.3-0.8,0.8-0.8h2.2
		c0.5,0,0.8,0.3,0.8,0.8V29.5z"/>
	<path class="st0" d="M164.1,12.5c0,0.5-0.3,0.8-0.8,0.8h-9.1c-2,0-2.9,1-2.9,3.1v1.8c0.7-0.6,1.5-0.9,2.4-0.9
		c1.6,0,2.6,0.6,3.3,1.7h0.2c0.3-0.5,0.7-0.9,1.4-1.2c0.6-0.3,1.3-0.5,1.9-0.5c2,0,3.3,0.2,4.1,0.7c1.2,0.8,1.8,2.4,1.8,4.8v11.4
		c0,0.5-0.3,0.8-0.8,0.8h-2.2c-0.5,0-0.8-0.3-0.8-0.8V34l0-10.6c0-1.3-0.2-2.1-0.5-2.4c-0.2-0.3-0.8-0.4-1.6-0.4
		c-0.6,0-1.1,0.2-1.3,0.7c-0.2,0.4-0.3,1-0.3,1.8V29c0,0.5-0.3,0.8-0.8,0.8h-2.3c-0.5,0-0.8-0.3-0.8-0.8v-5.8c0-1-0.1-1.7-0.3-2.1
		c-0.2-0.4-0.7-0.5-1.3-0.5c-0.7,0-1.2,0.1-1.5,0.4c-0.4,0.3-0.6,1-0.6,1.9v11.5c0,0.5-0.3,0.8-0.8,0.8h-2.1c-0.5,0-0.8-0.3-0.8-0.8
		V16.2c0-1.9,0.6-3.3,1.7-4.4c1.1-1,2.7-1.5,4.8-1.5h9.3c0.5,0,0.8,0.3,0.8,0.8V12.5z"/>
	<path class="st0" d="M174.5,35.4c-2.1,0-3.5-0.4-4.2-1.1c-0.8-0.8-1.2-2.4-1.2-4.7V11.1c0-0.5,0.3-0.8,0.8-0.8h2.2
		c0.5,0,0.8,0.3,0.8,0.8v18.4c0,1.1,0.1,1.8,0.4,2.1c0.3,0.4,0.9,0.6,1.7,0.6h1.2c0.9,0,1.4-0.2,1.7-0.6c0.2-0.3,0.4-1,0.4-2V18.6
		c0-0.5,0.3-0.8,0.8-0.8h2.2c0.5,0,0.8,0.3,0.8,0.8v10.9c0,2.5-0.4,4.1-1.3,4.9c-0.7,0.7-2.1,1-4.2,1H174.5z"/>
	<path class="st0" d="M188.4,29.5c0,1.1,0.1,1.9,0.4,2.2c0.3,0.4,0.8,0.6,1.6,0.6h2c0.7,0,1.2-0.2,1.5-0.6c0.2-0.4,0.4-1,0.4-2V15.6
		c0-0.9-0.1-1.5-0.4-1.8c-0.3-0.3-1-0.5-2-0.5h-1c-1.3,0-2,0.8-2.1,2.3v1c0,0.5-0.3,0.8-0.8,0.8h-2.1c-0.5,0-0.8-0.3-0.8-0.8v-0.8
		c0-2.3,0.5-3.9,1.4-4.7c0.8-0.7,2.2-1.1,4.3-1.1h1.3c2.5,0,4.2,0.4,5,1.2c0.8,0.7,1.1,2.1,1.1,4.2V30c0,2.1-0.4,3.5-1.3,4.3
		c-0.8,0.7-2.1,1.1-4,1.1h-2.4c-2.3,0-3.9-0.3-4.6-1c-0.8-0.7-1.2-2.3-1.2-4.7l0-3.7c0-0.5,0.3-0.8,0.8-0.8h2.2
		c0.5,0,0.8,0.3,0.8,0.8V29.5z"/>
	<path class="st0" d="M206.3,27.8c0,0.6-0.3,0.9-0.9,0.9h-2.2c-0.5,0-0.8-0.3-0.9-0.9l-0.5-6.5v-9.4c0-0.6,0.3-0.9,0.9-0.9h3.1
		c0.6,0,0.9,0.3,0.9,0.9v9.4L206.3,27.8z M206.7,34.3c0,0.6-0.3,0.9-0.9,0.9h-3.1c-0.6,0-0.9-0.3-0.9-0.9v-2.9
		c0-0.6,0.3-0.9,0.9-0.9h3.1c0.6,0,0.9,0.3,0.9,0.9V34.3z"/>
</g>
</svg>
