<?xml version="1.0" encoding="utf-8"?>
<!-- Generator: Adobe Illustrator 19.2.1, SVG Export Plug-In . SVG Version: 6.00 Build 0)  -->
<svg version="1.1" id="Layer_1" xmlns="http://www.w3.org/2000/svg" xmlns:xlink="http://www.w3.org/1999/xlink" x="0px" y="0px"
	 width="300px" height="125px" viewBox="0 0 300 125" style="enable-background:new 0 0 300 125;" xml:space="preserve">
<style type="text/css">
	.st0{fill:#FFFFFF;}
</style>
<g>
	<path class="st0" d="M34.7,12.1h5.5c3.5,0,5.9,0.2,7.2,0.5c1.2,0.3,2.2,0.9,2.8,1.6c0.6,0.7,1.1,1.6,1.2,2.5s0.2,2.7,0.2,5.4v9.8
		c0,2.5-0.1,4.2-0.4,5.1c-0.2,0.9-0.7,1.5-1.2,2c-0.6,0.5-1.3,0.8-2.2,1c-0.9,0.2-2.2,0.3-3.9,0.3h-9.2V12.1z M42,16.9v18.5
		c1.1,0,1.7-0.2,1.9-0.6c0.2-0.4,0.4-1.6,0.4-3.4V20.4c0-1.3,0-2.1-0.1-2.4c-0.1-0.4-0.3-0.6-0.6-0.8C43.3,17,42.8,16.9,42,16.9z"/>
	<path class="st0" d="M66.9,12.1l4.2,28.1h-7.5l-0.4-5h-2.6l-0.4,5h-7.6l3.7-28.1H66.9z M63.1,30.2c-0.4-3.2-0.7-7.1-1.1-11.8
		c-0.7,5.4-1.2,9.3-1.4,11.8H63.1z"/>
	<path class="st0" d="M94.1,20.6h-6.8v-2.1c0-1-0.1-1.6-0.3-1.9c-0.2-0.3-0.5-0.4-0.9-0.4c-0.4,0-0.8,0.2-1,0.5s-0.3,0.9-0.3,1.6
		c0,0.9,0.1,1.6,0.4,2.1c0.2,0.5,0.9,1,2.1,1.7c3.3,1.9,5.3,3.5,6.1,4.8s1.3,3.2,1.3,6c0,2-0.2,3.5-0.7,4.4
		c-0.5,0.9-1.4,1.7-2.7,2.4c-1.3,0.6-2.9,1-4.7,1c-2,0-3.6-0.4-5-1.1c-1.4-0.7-2.3-1.7-2.7-2.8c-0.4-1.1-0.6-2.8-0.6-4.9v-1.8H85
		v3.4c0,1.1,0.1,1.7,0.3,2s0.5,0.5,1,0.5s0.8-0.2,1.1-0.6s0.4-0.9,0.4-1.7c0-1.7-0.2-2.7-0.7-3.2c-0.5-0.5-1.6-1.4-3.4-2.6
		c-1.8-1.2-3-2.1-3.6-2.6c-0.6-0.5-1.1-1.3-1.5-2.3c-0.4-1-0.6-2.2-0.6-3.7c0-2.2,0.3-3.7,0.8-4.7c0.5-1,1.4-1.8,2.7-2.3
		c1.2-0.6,2.7-0.8,4.4-0.8c1.9,0,3.5,0.3,4.9,0.9c1.3,0.6,2.2,1.4,2.7,2.3c0.4,0.9,0.7,2.5,0.7,4.7V20.6z"/>
	<path class="st0" d="M113.7,28.6c0,2.8-0.1,4.8-0.2,6c-0.1,1.2-0.5,2.2-1.2,3.2c-0.7,1-1.6,1.7-2.8,2.2c-1.2,0.5-2.6,0.8-4.2,0.8
		c-1.5,0-2.9-0.2-4.1-0.7c-1.2-0.5-2.2-1.2-2.9-2.2s-1.2-2.1-1.3-3.2c-0.1-1.2-0.2-3.2-0.2-6.1v-4.8c0-2.8,0.1-4.8,0.2-6
		c0.1-1.2,0.5-2.2,1.2-3.2c0.7-1,1.6-1.7,2.8-2.2c1.2-0.5,2.6-0.8,4.2-0.8c1.5,0,2.9,0.2,4.1,0.7c1.2,0.5,2.2,1.2,2.9,2.2
		c0.7,1,1.2,2.1,1.3,3.2c0.1,1.2,0.2,3.2,0.2,6.1V28.6z M106.4,19.3c0-1.3-0.1-2.1-0.2-2.5c-0.1-0.4-0.4-0.5-0.9-0.5
		c-0.4,0-0.7,0.1-0.9,0.4c-0.2,0.3-0.3,1.2-0.3,2.6v13.1c0,1.6,0.1,2.6,0.2,3c0.1,0.4,0.4,0.6,0.9,0.6c0.5,0,0.8-0.2,1-0.7
		s0.2-1.5,0.2-3.1V19.3z"/>
	<path class="st0" d="M133.8,12.1l-3.7,28.1H119l-4.2-28.1h7.7c0.9,7.7,1.5,14.3,1.9,19.6c0.4-5.4,0.8-10.2,1.2-14.4l0.5-5.2H133.8z
		"/>
	<path class="st0" d="M151.8,22.5h-7.3v-2.6c0-1.6-0.1-2.6-0.2-3c-0.1-0.4-0.5-0.6-1-0.6c-0.5,0-0.8,0.2-0.9,0.5
		c-0.2,0.3-0.2,1.2-0.2,2.7V33c0,1.3,0.1,2.1,0.2,2.5c0.2,0.4,0.5,0.6,1,0.6c0.5,0,0.9-0.2,1.1-0.7s0.3-1.3,0.3-2.6v-3.3h-1.5v-4.3
		h8.6v15.1h-4.6l-0.7-2c-0.5,0.9-1.1,1.5-1.9,2s-1.7,0.7-2.7,0.7c-1.2,0-2.4-0.3-3.4-0.9s-1.9-1.3-2.4-2.2c-0.6-0.9-0.9-1.8-1-2.8
		c-0.1-1-0.2-2.4-0.2-4.3v-8.3c0-2.7,0.1-4.6,0.4-5.8c0.3-1.2,1.1-2.3,2.5-3.3c1.4-1,3.1-1.5,5.3-1.5c2.1,0,3.9,0.4,5.3,1.3
		c1.4,0.9,2.3,1.9,2.8,3.1c0.4,1.2,0.6,3,0.6,5.3V22.5z"/>
	<path class="st0" d="M153.2,9.5h6.2l3.1,4.7h-3.5L153.2,9.5z"/>
	<path class="st0" d="M179.1,12.1l4.2,28.1h-7.5l-0.4-5h-2.6l-0.4,5h-7.6l3.7-28.1H179.1z M175.2,30.2c-0.4-3.2-0.7-7.1-1.1-11.8
		c-0.7,5.4-1.2,9.3-1.4,11.8H175.2z"/>
	<path class="st0" d="M191.8,12.1v22.5h4.4v5.6h-11.7V12.1H191.8z"/>
	<path class="st0" d="M211.5,12.1l4.2,28.1h-7.5l-0.4-5h-2.6l-0.4,5h-7.6l3.7-28.1H211.5z M207.7,30.2c-0.4-3.2-0.7-7.1-1.1-11.8
		c-0.7,5.4-1.2,9.3-1.4,11.8H207.7z"/>
	<path class="st0" d="M217,12.1h5.2c3.4,0,5.8,0.1,7,0.4c1.2,0.3,2.2,0.9,3,2c0.8,1.1,1.2,2.8,1.2,5.2c0,2.2-0.3,3.7-0.8,4.4
		c-0.5,0.8-1.6,1.2-3.2,1.4c1.4,0.4,2.4,0.8,2.9,1.4s0.8,1.2,0.9,1.7c0.1,0.5,0.2,1.9,0.2,4.2v7.4h-6.8v-9.3c0-1.5-0.1-2.4-0.4-2.8
		c-0.2-0.4-0.9-0.5-1.9-0.5v12.7H217V12.1z M224.3,16.9v6.2c0.8,0,1.4-0.1,1.7-0.3c0.3-0.2,0.5-1,0.5-2.2v-1.5
		c0-0.9-0.2-1.5-0.5-1.8S225.1,16.9,224.3,16.9z"/>
	<path class="st0" d="M252.4,12.1v28.1H246l-3.8-12.8v12.8h-6.1V12.1h6.1l4.1,12.7V12.1H252.4z"/>
	<path class="st0" d="M262.7,12.1v28.1h-7.3V12.1H262.7z"/>
	<path class="st0" d="M75.5,54.8l-5.3,17.9v10.2h-6.8V72.7l-5.1-17.9H65c1,5.5,1.6,9.2,1.8,11.1c0.4-3,1.1-6.7,2-11.1H75.5z"/>
	<path class="st0" d="M93.4,54.8v18.8c0,2.1-0.1,3.6-0.2,4.5c-0.1,0.9-0.5,1.7-1.2,2.7s-1.6,1.6-2.7,2.1c-1.1,0.5-2.4,0.7-3.9,0.7
		c-1.7,0-3.2-0.3-4.4-0.8c-1.3-0.6-2.2-1.3-2.9-2.2s-1-1.8-1.1-2.8c-0.1-1-0.2-3.1-0.2-6.2V54.8H84v21.1c0,1.2,0.1,2,0.2,2.4
		c0.1,0.3,0.4,0.5,0.8,0.5c0.5,0,0.8-0.2,0.9-0.6c0.1-0.4,0.2-1.3,0.2-2.7V54.8H93.4z"/>
	<path class="st0" d="M110.9,54.8v5.6h-4.3v22.5h-7.3V60.4h-4.3v-5.6H110.9z"/>
	<path class="st0" d="M119.9,54.8v28.1h-7.3V54.8H119.9z"/>
	<path class="st0" d="M122.8,54.8h7.3c2.3,0,4,0.2,5.2,0.5c1.2,0.4,2.1,1.1,2.9,2.2s1.1,2.9,1.1,5.3c0,1.6-0.3,2.8-0.8,3.4
		c-0.5,0.6-1.5,1.1-3,1.5c1.7,0.4,2.8,1,3.4,1.9c0.6,0.9,0.9,2.2,0.9,4.1v2.6c0,1.9-0.2,3.3-0.7,4.2c-0.4,0.9-1.1,1.5-2.1,1.9
		c-0.9,0.3-2.9,0.5-5.8,0.5h-8.5V54.8z M130.1,59.6v6.2c0.3,0,0.6,0,0.7,0c0.7,0,1.2-0.2,1.4-0.5c0.2-0.4,0.3-1.4,0.3-3
		c0-0.9-0.1-1.5-0.2-1.8c-0.2-0.4-0.4-0.6-0.6-0.7C131.4,59.6,130.9,59.6,130.1,59.6z M130.1,70.2v7.9c1,0,1.7-0.2,2-0.5
		c0.3-0.3,0.4-1,0.4-2.1v-2.6c0-1.2-0.1-1.9-0.4-2.2C131.9,70.4,131.2,70.2,130.1,70.2z"/>
	<path class="st0" d="M165.4,71.2c0,2.8-0.1,4.8-0.2,6c-0.1,1.2-0.5,2.2-1.3,3.2c-0.7,1-1.6,1.7-2.8,2.2c-1.2,0.5-2.6,0.8-4.2,0.8
		c-1.5,0-2.9-0.2-4.1-0.7c-1.2-0.5-2.2-1.2-2.9-2.2s-1.2-2.1-1.3-3.2c-0.1-1.2-0.2-3.2-0.2-6.1v-4.8c0-2.8,0.1-4.8,0.2-6
		c0.1-1.2,0.5-2.2,1.2-3.2c0.7-1,1.6-1.7,2.8-2.2c1.2-0.5,2.6-0.8,4.2-0.8c1.5,0,2.9,0.2,4.1,0.7c1.2,0.5,2.2,1.2,2.9,2.2
		c0.7,1,1.2,2.1,1.3,3.2c0.1,1.2,0.2,3.2,0.2,6.1V71.2z M158.1,62c0-1.3-0.1-2.1-0.2-2.5c-0.1-0.4-0.4-0.5-0.9-0.5
		c-0.4,0-0.7,0.1-0.9,0.4s-0.3,1.2-0.3,2.6v13.1c0,1.6,0.1,2.6,0.2,3s0.4,0.6,0.9,0.6c0.5,0,0.8-0.2,1-0.7c0.1-0.4,0.2-1.5,0.2-3.1
		V62z"/>
	<path class="st0" d="M175.4,54.8v22.5h4.4v5.6h-11.7V54.8H175.4z"/>
	<path class="st0" d="M188.9,54.8v28.1h-7.3V54.8H188.9z"/>
	<path class="st0" d="M208.2,54.8v28.1h-6.4L198,70.1v12.8h-6.1V54.8h6.1l4.1,12.7V54.8H208.2z"/>
	<path class="st0" d="M227.9,65.1h-7.3v-2.6c0-1.6-0.1-2.6-0.2-3c-0.1-0.4-0.5-0.6-1-0.6c-0.5,0-0.8,0.2-0.9,0.5s-0.2,1.2-0.2,2.7
		v13.5c0,1.3,0.1,2.1,0.2,2.5s0.5,0.6,1,0.6c0.5,0,0.9-0.2,1.1-0.7c0.2-0.5,0.3-1.3,0.3-2.6v-3.3h-1.5v-4.3h8.6v15.1h-4.6l-0.7-2
		c-0.5,0.9-1.1,1.5-1.9,2c-0.8,0.4-1.7,0.7-2.7,0.7c-1.2,0-2.4-0.3-3.4-0.9c-1.1-0.6-1.9-1.3-2.4-2.2c-0.6-0.9-0.9-1.8-1-2.8
		s-0.2-2.4-0.2-4.3v-8.3c0-2.7,0.1-4.6,0.4-5.8s1.1-2.3,2.5-3.3c1.4-1,3.1-1.5,5.3-1.5c2.1,0,3.9,0.4,5.3,1.3
		c1.4,0.9,2.3,1.9,2.8,3.1c0.4,1.2,0.6,3,0.6,5.3V65.1z"/>
	<path class="st0" d="M238.2,54.8l-1.1,21.2h-5.4l-1.1-21.2H238.2z M237.6,77.3v5.6h-6.6v-5.6H237.6z"/>
</g>
</svg>
