<?xml version="1.0" encoding="utf-8"?>
<!-- Generator: Adobe Illustrator 25.0.1, SVG Export Plug-In . SVG Version: 6.00 Build 0)  -->
<svg version="1.1" id="Layer_1" xmlns="http://www.w3.org/2000/svg" xmlns:xlink="http://www.w3.org/1999/xlink" x="0px" y="0px"
	 viewBox="0 0 300 600" style="enable-background:new 0 0 300 600;" xml:space="preserve">
<style type="text/css">
	.st0{fill:#FCAF17;}
</style>
<g>
	<path class="st0" d="M36.8,134.5H28v-2.7c0-1.3-0.1-2.1-0.3-2.4c-0.2-0.3-0.6-0.5-1.1-0.5c-0.6,0-1,0.2-1.3,0.7s-0.4,1.2-0.4,2.1
		c0,1.2,0.2,2.1,0.5,2.8c0.3,0.6,1.2,1.4,2.7,2.2c4.2,2.5,6.9,4.6,8,6.2c1.1,1.6,1.6,4.2,1.6,7.8c0,2.6-0.3,4.5-0.9,5.7
		c-0.6,1.2-1.8,2.3-3.5,3.1s-3.8,1.3-6.1,1.3c-2.5,0-4.7-0.5-6.5-1.4c-1.8-1-3-2.2-3.5-3.7s-0.8-3.6-0.8-6.3V147h8.8v4.4
		c0,1.4,0.1,2.2,0.4,2.6c0.2,0.4,0.7,0.6,1.3,0.6s1.1-0.2,1.4-0.7s0.5-1.2,0.5-2.2c0-2.1-0.3-3.6-0.9-4.2c-0.6-0.7-2.1-1.8-4.4-3.3
		c-2.4-1.6-3.9-2.7-4.7-3.4c-0.8-0.7-1.4-1.7-1.9-2.9s-0.8-2.8-0.8-4.8c0-2.8,0.4-4.8,1.1-6.1c0.7-1.3,1.9-2.3,3.5-3
		s3.5-1.1,5.8-1.1c2.5,0,4.6,0.4,6.3,1.2c1.7,0.8,2.9,1.8,3.4,3c0.6,1.2,0.8,3.3,0.8,6.2v1.2H36.8z"/>
	<path class="st0" d="M62.3,123.5V160H54l-5-16.6V160h-7.9v-36.5H49l5.3,16.4v-16.4C54.3,123.5,62.3,123.5,62.3,123.5z"/>
	<path class="st0" d="M76,123.5V160h-9.5v-36.5H76z"/>
	<path class="st0" d="M102.5,139.4H93V133c0-1.8-0.1-3-0.3-3.5c-0.2-0.5-0.7-0.7-1.3-0.7c-0.8,0-1.3,0.3-1.5,0.8
		c-0.2,0.6-0.3,1.8-0.3,3.6v17c0,1.8,0.1,2.9,0.3,3.5c0.2,0.5,0.7,0.8,1.4,0.8c0.7,0,1.2-0.3,1.4-0.8c0.2-0.5,0.3-1.8,0.3-3.8v-4.6
		h9.5v1.4c0,3.8-0.3,6.5-0.8,8s-1.7,3-3.5,4.2s-4.1,1.8-6.8,1.8c-2.8,0-5.1-0.5-6.9-1.5s-3-2.4-3.6-4.2s-0.9-4.5-0.9-8v-10.7
		c0-2.6,0.1-4.6,0.3-5.9c0.2-1.3,0.7-2.6,1.6-3.8c0.9-1.2,2.1-2.2,3.7-2.9c1.6-0.7,3.4-1,5.5-1c2.8,0,5.1,0.5,6.9,1.6s3,2.4,3.6,4
		c0.6,1.6,0.9,4.1,0.9,7.5C102.5,135.8,102.5,139.4,102.5,139.4z"/>
	<path class="st0" d="M129,123.5l-5.4,16.5l6,20h-9.8l-3.8-15.6V160h-9.5v-36.5h9.5v14.2l4.2-14.2H129z"/>
	<path class="st0" d="M131.6,123.5h15.8v7.3h-6.3v6.9h5.9v6.9h-5.9v8h7v7.3h-16.5V123.5z"/>
	<path class="st0" d="M151.2,123.5h6.7c4.5,0,7.5,0.2,9.1,0.5s2.9,1.2,3.9,2.6s1.5,3.7,1.5,6.8c0,2.8-0.4,4.8-1.1,5.7
		s-2.1,1.6-4.2,1.8c1.9,0.5,3.1,1.1,3.8,1.9c0.6,0.8,1,1.5,1.2,2.2s0.2,2.5,0.2,5.4v9.6h-8.8v-12.1c0-2-0.2-3.2-0.5-3.6
		s-1.1-0.7-2.4-0.7V160h-9.5v-36.5H151.2z M160.7,129.7v8.1c1.1,0,1.8-0.1,2.2-0.4c0.4-0.3,0.6-1.2,0.6-2.9v-2
		c0-1.2-0.2-1.9-0.6-2.3S161.8,129.7,160.7,129.7z"/>
	<path class="st0" d="M196.7,134.5h-8.8v-2.7c0-1.3-0.1-2.1-0.3-2.4c-0.2-0.3-0.6-0.5-1.1-0.5c-0.6,0-1,0.2-1.3,0.7
		s-0.4,1.2-0.4,2.1c0,1.2,0.2,2.1,0.5,2.8c0.3,0.6,1.2,1.4,2.7,2.2c4.2,2.5,6.9,4.6,8,6.2c1.1,1.6,1.6,4.2,1.6,7.8
		c0,2.6-0.3,4.5-0.9,5.7c-0.6,1.2-1.8,2.3-3.5,3.1s-3.8,1.3-6.1,1.3c-2.5,0-4.7-0.5-6.5-1.4c-1.8-1-3-2.2-3.5-3.7
		c-0.6-1.5-0.8-3.6-0.8-6.3V147h8.8v4.4c0,1.4,0.1,2.2,0.4,2.6c0.2,0.4,0.7,0.6,1.3,0.6s1.1-0.2,1.4-0.7c0.3-0.5,0.5-1.2,0.5-2.2
		c0-2.1-0.3-3.6-0.9-4.2c-0.6-0.7-2.1-1.8-4.4-3.3c-2.4-1.6-3.9-2.7-4.7-3.4s-1.4-1.7-1.9-2.9s-0.8-2.8-0.8-4.8
		c0-2.8,0.4-4.8,1.1-6.1c0.7-1.3,1.9-2.3,3.5-3s3.5-1.1,5.8-1.1c2.5,0,4.6,0.4,6.3,1.2c1.7,0.8,2.9,1.8,3.4,3
		c0.6,1.2,0.8,3.3,0.8,6.2v1.2H196.7z"/>
	<path class="st0" d="M209.9,130.1l-0.2,2.8c0.7-1.1,1.5-1.9,2.4-2.5c1-0.5,2.1-0.8,3.3-0.8c1.6,0,2.8,0.4,3.8,1.1s1.6,1.7,1.9,2.8
		c0.3,1.1,0.4,3,0.4,5.6v21h-9.1v-20.7c0-2.1-0.1-3.3-0.2-3.8c-0.1-0.5-0.5-0.7-1.1-0.7s-1.1,0.3-1.2,0.8c-0.2,0.5-0.2,1.9-0.2,4.2
		V160h-9.1v-29.9H209.9z"/>
	<path class="st0" d="M234.6,123.5v4.8h-9.4v-4.8H234.6z M234.6,130.1V160h-9.4v-29.9H234.6z"/>
	<path class="st0" d="M244.4,152.6v7.4h-6.9v-7.4H244.4z"/>
	<path class="st0" d="M266.9,130.1l-3.7,11.9l4.8,18h-8.8l-2.8-13v13h-9.1v-36.5h9.1v15.3l2.8-8.7
		C259.2,130.1,266.9,130.1,266.9,130.1z"/>
	<path class="st0" d="M284.1,130.1v6.6l-6.7,17.3h6.7v6h-15.5v-6.3l6.9-17.7h-6.2v-6h14.8V130.1z"/>
</g>
</svg>
