<?xml version="1.0" encoding="utf-8"?>
<!-- Generator: Adobe Illustrator 19.2.1, SVG Export Plug-In . SVG Version: 6.00 Build 0)  -->
<svg version="1.1" id="Layer_1" xmlns="http://www.w3.org/2000/svg" xmlns:xlink="http://www.w3.org/1999/xlink" x="0px" y="0px"
	 width="300px" height="54px" viewBox="0 0 300 54" style="enable-background:new 0 0 300 54;" xml:space="preserve">
<style type="text/css">
	.st0{fill:#FCAF17;}
</style>
<g>
	<path class="st0" d="M32.3,13.4L30,27.2c0,0.3-0.1,0.5-0.1,0.6c0,0.5,0.2,0.7,0.6,0.7c0.7,0,1.5-0.3,2.3-1c0.8-0.7,1.5-1.7,2.1-3
		s0.9-2.9,0.9-4.6c0-3-0.9-5.4-2.7-7.2c-1.8-1.8-4.1-2.8-7-2.8c-3.4,0-6.1,1.2-8.3,3.5c-2.2,2.3-3.3,5.4-3.3,9.3
		c0,3.7,1.1,6.7,3.2,8.9c2.1,2.2,4.9,3.3,8.2,3.3c1.6,0,3.2-0.3,4.6-0.8c1.5-0.5,2.9-1.4,4.2-2.4h3.7C37,33.6,35.1,35,32.9,36
		s-4.5,1.5-6.8,1.5c-4,0-7.3-1.3-10-4c-2.7-2.7-4-6.2-4-10.6c0-4.4,1.2-8,3.7-11c2.5-3,6-4.5,10.4-4.5c2.6,0,4.8,0.5,6.5,1.5
		c1.7,1,3.1,2.4,4.2,4.3c1.1,1.8,1.7,4.1,1.7,6.8c0,3.6-1,6.4-3,8.4c-2,2.1-4,3.1-6,3.1c-1.5,0-2.4-0.7-2.7-2
		c-0.8,0.8-1.5,1.3-2.1,1.6s-1.3,0.4-2.1,0.4c-1.7,0-3.1-0.7-4.2-2c-1-1.4-1.6-3.2-1.6-5.4c0-2.9,0.7-5.5,2.2-7.8s3.2-3.4,5.3-3.4
		c0.8,0,1.6,0.2,2.3,0.6s1.3,1,1.8,1.9l0.3-2H32.3z M20.6,25c0,1.1,0.2,2,0.7,2.8c0.5,0.8,1.1,1.1,1.9,1.1c0.8,0,1.4-0.3,2-0.9
		c0.6-0.6,1.1-1.8,1.6-3.7c0.5-1.8,0.7-3.6,0.7-5.3c0-1-0.2-1.9-0.7-2.5c-0.4-0.6-1-1-1.8-1c-1.4,0-2.5,1-3.3,3
		C21,20.5,20.6,22.7,20.6,25z"/>
	<path class="st0" d="M56.2,16.5h-6.8v-2.1c0-1-0.1-1.6-0.3-1.9c-0.2-0.3-0.5-0.4-0.9-0.4c-0.4,0-0.8,0.2-1,0.5
		c-0.2,0.4-0.3,0.9-0.3,1.6c0,0.9,0.1,1.7,0.4,2.1c0.2,0.5,0.9,1.1,2.1,1.7c3.3,1.9,5.3,3.5,6.2,4.8c0.8,1.2,1.3,3.3,1.3,6
		c0,2-0.2,3.5-0.7,4.5c-0.5,1-1.4,1.8-2.7,2.4c-1.4,0.6-2.9,1-4.7,1c-2,0-3.6-0.4-5-1.1c-1.4-0.7-2.3-1.7-2.7-2.8s-0.6-2.8-0.6-4.9
		v-1.9H47v3.4c0,1.1,0.1,1.7,0.3,2c0.2,0.3,0.5,0.5,1,0.5c0.5,0,0.9-0.2,1.1-0.6c0.2-0.4,0.4-1,0.4-1.7c0-1.7-0.2-2.8-0.7-3.3
		c-0.5-0.5-1.6-1.4-3.4-2.6c-1.8-1.2-3-2.1-3.6-2.6c-0.6-0.5-1.1-1.3-1.5-2.3S40,16.8,40,15.3c0-2.2,0.3-3.7,0.8-4.7
		c0.6-1,1.4-1.8,2.7-2.3c1.2-0.6,2.7-0.8,4.5-0.8c1.9,0,3.5,0.3,4.9,0.9c1.3,0.6,2.2,1.4,2.7,2.3s0.7,2.5,0.7,4.8V16.5z"/>
	<path class="st0" d="M75.5,7.9v28.3h-6.4l-3.8-12.9v12.9h-6.1V7.9h6.1l4.1,12.7V7.9H75.5z"/>
	<path class="st0" d="M85.8,7.9v28.3h-7.4V7.9H85.8z"/>
	<path class="st0" d="M105.9,20.2h-7.4v-4.9c0-1.4-0.1-2.3-0.2-2.7c-0.2-0.4-0.5-0.5-1-0.5c-0.6,0-1,0.2-1.2,0.6
		c-0.2,0.4-0.2,1.4-0.2,2.8v13.1c0,1.4,0.1,2.3,0.2,2.7c0.2,0.4,0.5,0.6,1.1,0.6c0.5,0,0.9-0.2,1.1-0.6c0.2-0.4,0.3-1.4,0.3-3v-3.6
		h7.4V26c0,2.9-0.2,5-0.6,6.2c-0.4,1.2-1.3,2.3-2.7,3.2c-1.4,0.9-3.2,1.4-5.2,1.4c-2.2,0-3.9-0.4-5.3-1.2s-2.3-1.9-2.8-3.2
		c-0.5-1.4-0.7-3.5-0.7-6.2v-8.3c0-2,0.1-3.6,0.2-4.6s0.6-2,1.2-2.9c0.7-0.9,1.7-1.7,2.9-2.2c1.2-0.5,2.6-0.8,4.2-0.8
		c2.2,0,4,0.4,5.4,1.3s2.3,1.9,2.8,3.1s0.7,3.2,0.7,5.8V20.2z"/>
	<path class="st0" d="M126.1,7.9l-4.2,12.8l4.6,15.5h-7.6l-3-12.1v12.1h-7.4V7.9h7.4v11l3.3-11H126.1z"/>
	<path class="st0" d="M127.7,7.9H140v5.7h-4.9v5.4h4.6v5.4h-4.6v6.2h5.4v5.7h-12.7V7.9z"/>
	<path class="st0" d="M142.6,7.9h5.2c3.5,0,5.8,0.1,7,0.4c1.2,0.3,2.2,1,3,2.1c0.8,1.1,1.2,2.9,1.2,5.3c0,2.2-0.3,3.7-0.8,4.4
		c-0.5,0.8-1.6,1.2-3.2,1.4c1.5,0.4,2.4,0.8,2.9,1.4c0.5,0.6,0.8,1.2,0.9,1.7c0.1,0.5,0.2,1.9,0.2,4.2v7.5h-6.8v-9.4
		c0-1.5-0.1-2.5-0.4-2.8c-0.2-0.4-0.9-0.5-1.9-0.5v12.7h-7.4V7.9z M150,12.8V19c0.8,0,1.4-0.1,1.7-0.3c0.3-0.2,0.5-1,0.5-2.2v-1.6
		c0-0.9-0.2-1.5-0.5-1.8C151.4,12.9,150.8,12.8,150,12.8z"/>
	<path class="st0" d="M177.4,16.5h-6.8v-2.1c0-1-0.1-1.6-0.3-1.9c-0.2-0.3-0.5-0.4-0.9-0.4c-0.4,0-0.8,0.2-1,0.5
		c-0.2,0.4-0.3,0.9-0.3,1.6c0,0.9,0.1,1.7,0.4,2.1c0.2,0.5,0.9,1.1,2.1,1.7c3.3,1.9,5.3,3.5,6.2,4.8c0.8,1.2,1.3,3.3,1.3,6
		c0,2-0.2,3.5-0.7,4.5c-0.5,1-1.4,1.8-2.7,2.4c-1.4,0.6-2.9,1-4.7,1c-2,0-3.6-0.4-5-1.1c-1.4-0.7-2.3-1.7-2.7-2.8s-0.6-2.8-0.6-4.9
		v-1.9h6.8v3.4c0,1.1,0.1,1.7,0.3,2c0.2,0.3,0.5,0.5,1,0.5c0.5,0,0.9-0.2,1.1-0.6c0.2-0.4,0.4-1,0.4-1.7c0-1.7-0.2-2.8-0.7-3.3
		c-0.5-0.5-1.6-1.4-3.4-2.6c-1.8-1.2-3-2.1-3.6-2.6c-0.6-0.5-1.1-1.3-1.5-2.3s-0.6-2.2-0.6-3.7c0-2.2,0.3-3.7,0.8-4.7
		c0.6-1,1.4-1.8,2.7-2.3c1.2-0.6,2.7-0.8,4.5-0.8c1.9,0,3.5,0.3,4.9,0.9c1.3,0.6,2.2,1.4,2.7,2.3s0.7,2.5,0.7,4.8V16.5z"/>
	<path class="st0" d="M178.7,38.9h20.2v1.8h-20.2V38.9z"/>
	<path class="st0" d="M216.8,7.9v18.9c0,2.1-0.1,3.6-0.2,4.5s-0.6,1.8-1.2,2.7c-0.7,0.9-1.6,1.6-2.7,2.1s-2.4,0.7-4,0.7
		c-1.7,0-3.2-0.3-4.5-0.8c-1.3-0.6-2.3-1.3-2.9-2.2c-0.6-0.9-1-1.8-1.1-2.8s-0.2-3.1-0.2-6.3V7.9h7.4v21.2c0,1.2,0.1,2,0.2,2.4
		c0.1,0.3,0.4,0.5,0.8,0.5c0.5,0,0.8-0.2,0.9-0.6c0.1-0.4,0.2-1.3,0.2-2.7V7.9H216.8z"/>
	<path class="st0" d="M232,7.9v5.7l-5.5,17h5.5v5.7h-13.5v-4.1l5.7-18.5h-5V7.9H232z"/>
	<path class="st0" d="M233.9,7.9h7.3c2.3,0,4.1,0.2,5.3,0.5c1.2,0.4,2.2,1.1,2.9,2.2s1.1,2.9,1.1,5.3c0,1.7-0.3,2.8-0.8,3.5
		c-0.5,0.7-1.5,1.2-3.1,1.5c1.7,0.4,2.9,1,3.5,1.9c0.6,0.9,0.9,2.3,0.9,4.1v2.6c0,1.9-0.2,3.3-0.7,4.2s-1.1,1.5-2.1,1.9
		c-1,0.3-2.9,0.5-5.9,0.5h-8.5V7.9z M241.2,12.8V19c0.3,0,0.6,0,0.7,0c0.7,0,1.2-0.2,1.4-0.5c0.2-0.4,0.3-1.4,0.3-3
		c0-0.9-0.1-1.5-0.2-1.9c-0.2-0.4-0.4-0.6-0.6-0.7C242.5,12.8,242,12.8,241.2,12.8z M241.2,23.4v7.9c1,0,1.7-0.2,2-0.5
		s0.4-1,0.4-2.1v-2.6c0-1.2-0.1-1.9-0.4-2.2S242.3,23.5,241.2,23.4z"/>
	<path class="st0" d="M270.4,24.5c0,2.8-0.1,4.9-0.2,6c-0.1,1.2-0.6,2.3-1.3,3.2s-1.7,1.7-2.9,2.3c-1.2,0.5-2.6,0.8-4.2,0.8
		c-1.5,0-2.9-0.2-4.1-0.7c-1.2-0.5-2.2-1.2-2.9-2.2c-0.7-1-1.2-2.1-1.3-3.2s-0.2-3.2-0.2-6.1v-4.8c0-2.8,0.1-4.9,0.2-6
		s0.6-2.3,1.3-3.2c0.7-1,1.7-1.7,2.9-2.3c1.2-0.5,2.6-0.8,4.2-0.8c1.5,0,2.9,0.2,4.1,0.7c1.2,0.5,2.2,1.2,2.9,2.2
		c0.7,1,1.2,2.1,1.3,3.2s0.2,3.2,0.2,6.1V24.5z M263,15.2c0-1.3-0.1-2.2-0.2-2.5s-0.4-0.6-0.9-0.6c-0.4,0-0.7,0.1-0.9,0.4
		c-0.2,0.3-0.3,1.2-0.3,2.6v13.2c0,1.6,0.1,2.7,0.2,3s0.4,0.6,0.9,0.6c0.5,0,0.8-0.2,1-0.7s0.2-1.5,0.2-3.2V15.2z"/>
	<path class="st0" d="M287.9,7.9v5.7h-4.4v22.6h-7.4V13.6h-4.3V7.9H287.9z"/>
</g>
</svg>
