<?xml version="1.0" encoding="utf-8"?>
<!-- Generator: Adobe Illustrator 19.2.1, SVG Export Plug-In . SVG Version: 6.00 Build 0)  -->
<svg version="1.1" id="Layer_1" xmlns="http://www.w3.org/2000/svg" xmlns:xlink="http://www.w3.org/1999/xlink" x="0px" y="0px"
	 width="300px" height="52px" viewBox="0 0 300 52" style="enable-background:new 0 0 300 52;" xml:space="preserve">
<style type="text/css">
	.st0{fill:#FFFFFF;}
</style>
<g>
	<path class="st0" d="M20.9,17.6c0-1.2,0.4-2.2,1.1-2.9c0.9-0.9,2.3-1.4,4.2-1.4c2,0,3.3,0.4,4.1,1.1c0.8,0.8,1.2,2.1,1.2,4v2.7
		c0.9,0.3,1.6,0.9,1.9,1.7c0.3,0.7,0.4,1.8,0.4,3.2v6.5c0,2.5-0.4,4.1-1.2,4.9c-0.7,0.8-2.2,1.1-4.5,1.1h-2.1c-2.4,0-4-0.5-4.8-1.5
		c-0.6-0.8-0.9-2.2-0.9-4.3v-7c0-2.2,0.5-3.6,1.6-4.4c0.8-0.6,2.2-0.9,4.3-0.9h1.6v-3c0-0.5-0.1-0.9-0.2-1.1
		c-0.2-0.2-0.7-0.4-1.4-0.4c-0.6,0-1,0.1-1.2,0.4c-0.2,0.2-0.2,0.5-0.2,0.9v0.4c0,0.5-0.3,0.8-0.8,0.8h-2.2c-0.5,0-0.8-0.3-0.8-0.8
		V17.6z M24.2,32.9c0,1,0.1,1.7,0.4,2.1c0.3,0.3,0.8,0.5,1.7,0.5H28c0.9,0,1.4-0.2,1.7-0.6c0.3-0.4,0.4-1.1,0.4-2.2v-6.4
		c0-1.1-0.2-1.8-0.5-2.1c-0.3-0.3-1-0.5-2-0.5h-0.9c-1.1,0-1.8,0.2-2.1,0.6c-0.3,0.3-0.4,1-0.4,1.9V32.9z"/>
	<path class="st0" d="M43.2,15.2c0,1.1,1,3,3,5.6c2,2.6,3,5,3,7l0,5.3c0,2.2-0.4,3.6-1,4.3c-0.7,0.8-2.3,1.2-4.6,1.2H42
		c-2,0-3.4-0.3-4.2-0.8c-0.9-0.7-1.4-1.9-1.4-3.8v-4.8c0-0.5,0.3-0.8,0.8-0.8h2.1c0.5,0,0.8,0.3,0.8,0.8v3.8c0,1.1,0.1,1.7,0.3,2
		c0.2,0.4,0.8,0.6,1.7,0.6h1.3c0.8,0,1.3-0.2,1.6-0.5c0.3-0.3,0.4-1,0.4-1.9l0-5.5c0-1.2-0.3-2.4-1-3.5c-0.4-0.7-1.1-1.6-2-2.9
		l-0.6-0.7L41.3,20c-0.4-0.5-0.7-1-1-1.5c-0.6-1.1-0.9-2.2-0.9-3.4v-0.8c0-0.5,0.3-0.8,0.8-0.8h2.1c0.5,0,0.8,0.3,0.8,0.8V15.2z"/>
	<path class="st0" d="M58.4,15.2c0,1.1,1,3,3,5.6c2,2.6,3,5,3,7l0,5.3c0,2.2-0.4,3.6-1,4.3c-0.7,0.8-2.3,1.2-4.6,1.2h-1.5
		c-2,0-3.4-0.3-4.2-0.8c-0.9-0.7-1.4-1.9-1.4-3.8v-4.8c0-0.5,0.3-0.8,0.8-0.8h2.1c0.5,0,0.8,0.3,0.8,0.8v3.8c0,1.1,0.1,1.7,0.3,2
		c0.2,0.4,0.8,0.6,1.7,0.6h1.3c0.8,0,1.3-0.2,1.6-0.5c0.3-0.3,0.4-1,0.4-1.9l0-5.5c0-1.2-0.3-2.4-1-3.5c-0.4-0.7-1.1-1.6-2-2.9
		l-0.6-0.7L56.5,20c-0.4-0.5-0.7-1-1-1.5c-0.6-1.1-0.9-2.2-0.9-3.4v-0.8c0-0.5,0.3-0.8,0.8-0.8h2.1c0.5,0,0.8,0.3,0.8,0.8V15.2z"/>
	<path class="st0" d="M79.3,13.6c0.5,0,0.8,0.3,0.8,0.8V33c0,2.2-0.3,3.7-0.8,4.4c-0.7,0.9-2.3,1.3-4.7,1.3h-2.3
		c-2.2,0-3.7-0.4-4.5-1.2c-0.7-0.8-1-2.2-1-4.4v-7.2c0-1.9,0.3-3.2,0.9-3.8c0.8-0.9,2.5-1.3,5.1-1.3H74c0.8,0,1.6,0.2,2.2,0.5v-6.8
		c0-0.5,0.3-0.8,0.8-0.8H79.3z M70.6,33c0,1,0.1,1.7,0.4,2c0.3,0.4,0.9,0.5,1.9,0.5h0.9c1.1,0,1.8-0.2,2.1-0.5
		c0.2-0.3,0.4-1.1,0.4-2.4l0-6.4c0-1-0.2-1.7-0.5-2c-0.3-0.3-1-0.4-2.1-0.4h-0.5c-1.1,0-1.8,0.1-2.1,0.4c-0.3,0.3-0.5,1-0.5,2.1V33z
		"/>
	<path class="st0" d="M95.3,37.6c0,0.5-0.3,0.8-0.8,0.8h-5.9c-2.4,0-4-0.4-4.8-1.3c-0.6-0.7-1-2.2-1-4.4V19.1c0-2.3,0.4-3.9,1.2-4.7
		c0.8-0.7,2.2-1.1,4.2-1.1h2.4c2.1,0,3.5,0.3,4.2,1c0.9,0.8,1.3,2.5,1.3,5v10.5c0,0.5-0.3,0.8-0.8,0.8h-2.2c-0.5,0-0.8-0.3-0.8-0.8
		V19c0-1-0.1-1.7-0.4-2c-0.3-0.4-0.9-0.6-1.7-0.6h-1.6c-0.9,0-1.5,0.2-1.7,0.6c-0.2,0.4-0.4,1.1-0.4,2.1v13.4c0,1.1,0.1,1.8,0.4,2.1
		c0.3,0.4,0.9,0.6,1.8,0.6h5.6c0.5,0,0.8,0.3,0.8,0.8V37.6z"/>
	<path class="st0" d="M99.8,38.4c-0.5,0-0.8-0.3-0.8-0.8V18.9c0-2,0.4-3.4,1.1-4.2c0.8-0.9,2.2-1.3,4.2-1.3h2.3
		c2.2,0,3.7,0.5,4.4,1.6c0.6,0.8,0.9,2.2,0.9,4.1v18.5c0,0.5-0.3,0.8-0.8,0.8H109c-0.5,0-0.8-0.3-0.8-0.8V18.9c0-1-0.1-1.6-0.4-2
		c-0.3-0.4-0.9-0.6-1.8-0.6h-1.1c-0.9,0-1.5,0.2-1.8,0.6c-0.3,0.4-0.4,1.1-0.4,2.2v18.5c0,0.5-0.3,0.8-0.8,0.8H99.8z"/>
	<path class="st0" d="M118.3,32.7c0,1.1,0.1,1.9,0.4,2.2c0.3,0.4,0.8,0.6,1.6,0.6h2c0.7,0,1.2-0.2,1.5-0.6c0.2-0.4,0.4-1,0.4-2V18.8
		c0-0.9-0.1-1.5-0.4-1.8c-0.3-0.3-1-0.5-2-0.5h-1c-1.3,0-2,0.8-2.1,2.3v1c0,0.5-0.3,0.8-0.8,0.8h-2.1c-0.5,0-0.8-0.3-0.8-0.8v-0.8
		c0-2.3,0.5-3.9,1.4-4.7c0.8-0.7,2.2-1.1,4.3-1.1h1.3c2.5,0,4.2,0.4,5,1.2c0.8,0.7,1.1,2.1,1.1,4.2v14.5c0,2.1-0.4,3.5-1.3,4.3
		c-0.8,0.7-2.1,1.1-4,1.1h-2.4c-2.3,0-3.9-0.3-4.6-1c-0.8-0.7-1.2-2.3-1.2-4.7l0-3.7c0-0.5,0.3-0.8,0.8-0.8h2.2
		c0.5,0,0.8,0.3,0.8,0.8V32.7z"/>
	<path class="st0" d="M147.4,15.8c0,0.5-0.3,0.8-0.8,0.8h-9.1c-2,0-2.9,1-2.9,3.1v1.8c0.7-0.6,1.5-0.9,2.4-0.9
		c1.6,0,2.6,0.6,3.3,1.7h0.2c0.3-0.5,0.7-0.9,1.4-1.2c0.6-0.3,1.3-0.5,1.9-0.5c2,0,3.3,0.2,4.1,0.7c1.2,0.8,1.8,2.4,1.8,4.8v11.4
		c0,0.5-0.3,0.8-0.8,0.8h-2.2c-0.5,0-0.8-0.3-0.8-0.8v-0.4l0-10.6c0-1.3-0.2-2.1-0.5-2.4c-0.2-0.3-0.8-0.4-1.6-0.4
		c-0.6,0-1.1,0.2-1.3,0.7c-0.2,0.4-0.3,1-0.3,1.8v5.9c0,0.5-0.3,0.8-0.8,0.8H139c-0.5,0-0.8-0.3-0.8-0.8v-5.8c0-1-0.1-1.7-0.3-2.1
		c-0.2-0.4-0.7-0.5-1.3-0.5c-0.7,0-1.2,0.1-1.5,0.4c-0.4,0.3-0.6,1-0.6,1.9v11.5c0,0.5-0.3,0.8-0.8,0.8h-2.1c-0.5,0-0.8-0.3-0.8-0.8
		V19.5c0-1.9,0.6-3.3,1.7-4.4c1.1-1,2.7-1.5,4.8-1.5h9.3c0.5,0,0.8,0.3,0.8,0.8V15.8z"/>
	<path class="st0" d="M155.9,32.7c0,1.1,0.1,1.9,0.4,2.2c0.3,0.4,0.8,0.6,1.6,0.6h2c0.7,0,1.2-0.2,1.5-0.6c0.2-0.4,0.4-1,0.4-2V18.8
		c0-0.9-0.1-1.5-0.4-1.8c-0.3-0.3-1-0.5-2-0.5h-1c-1.3,0-2,0.8-2.1,2.3v1c0,0.5-0.3,0.8-0.8,0.8h-2.1c-0.5,0-0.8-0.3-0.8-0.8v-0.8
		c0-2.3,0.5-3.9,1.4-4.7c0.8-0.7,2.2-1.1,4.3-1.1h1.3c2.5,0,4.2,0.4,5,1.2c0.8,0.7,1.1,2.1,1.1,4.2v14.5c0,2.1-0.4,3.5-1.3,4.3
		c-0.8,0.7-2.1,1.1-4,1.1h-2.4c-2.3,0-3.9-0.3-4.6-1c-0.8-0.7-1.2-2.3-1.2-4.7l0-3.7c0-0.5,0.3-0.8,0.8-0.8h2.2
		c0.5,0,0.8,0.3,0.8,0.8V32.7z"/>
	<path class="st0" d="M175.8,17.6c0-1.2,0.4-2.2,1.1-2.9c0.9-0.9,2.3-1.4,4.2-1.4c2,0,3.3,0.4,4.1,1.1c0.8,0.8,1.2,2.1,1.2,4v2.7
		c0.9,0.3,1.6,0.9,1.9,1.7c0.3,0.7,0.4,1.8,0.4,3.2v6.5c0,2.5-0.4,4.1-1.2,4.9c-0.7,0.8-2.2,1.1-4.5,1.1h-2.1c-2.4,0-4-0.5-4.8-1.5
		c-0.6-0.8-0.9-2.2-0.9-4.3v-7c0-2.2,0.5-3.6,1.6-4.4c0.8-0.6,2.2-0.9,4.3-0.9h1.6v-3c0-0.5-0.1-0.9-0.2-1.1
		c-0.2-0.2-0.7-0.4-1.4-0.4c-0.6,0-1,0.1-1.2,0.4c-0.2,0.2-0.2,0.5-0.2,0.9v0.4c0,0.5-0.3,0.8-0.8,0.8h-2.2c-0.5,0-0.8-0.3-0.8-0.8
		V17.6z M179.1,32.9c0,1,0.1,1.7,0.4,2.1c0.3,0.3,0.8,0.5,1.7,0.5h1.7c0.9,0,1.4-0.2,1.7-0.6c0.3-0.4,0.4-1.1,0.4-2.2v-6.4
		c0-1.1-0.2-1.8-0.5-2.1c-0.3-0.3-1-0.5-2-0.5h-0.9c-1.1,0-1.8,0.2-2.1,0.6c-0.3,0.3-0.4,1-0.4,1.9V32.9z"/>
	<path class="st0" d="M199.7,31.3c-0.5,0-0.8-0.3-0.8-0.8V19.1c0-1-0.1-1.7-0.3-2.1c-0.2-0.4-0.7-0.5-1.3-0.5
		c-0.7,0-1.2,0.1-1.5,0.4c-0.4,0.3-0.6,1-0.6,1.9v18.8c0,0.5-0.3,0.8-0.8,0.8h-2.1c-0.5,0-0.8-0.3-0.8-0.8v-19
		c0-2.1,0.6-3.6,1.7-4.4c0.8-0.6,2.1-0.9,3.8-0.9c1.7,0,2.9,0.6,3.7,1.8h0.2c0.3-0.5,0.8-1,1.5-1.3c0.7-0.4,1.3-0.5,2-0.5
		c2,0,3.3,0.2,4.1,0.7c1.2,0.8,1.8,2.4,1.8,4.8v18.8c0,0.5-0.3,0.8-0.8,0.8h-2.2c-0.5,0-0.8-0.3-0.8-0.8v-0.4l0-17.9
		c0-1.3-0.2-2.1-0.5-2.4c-0.2-0.3-0.8-0.4-1.6-0.4c-0.6,0-1.1,0.2-1.3,0.7c-0.2,0.4-0.3,1-0.3,1.8v11.5c0,0.5-0.3,0.8-0.8,0.8H199.7
		z"/>
	<path class="st0" d="M224.9,15.7c0,0.5-0.3,0.8-0.8,0.8h-5.7c-0.7,0-1.1,0.2-1.3,0.6c-0.2,0.3-0.2,1-0.2,2v2.2
		c0.7-0.4,1.5-0.6,2.6-0.6h1.2c2.2,0,3.7,0.5,4.4,1.4c0.5,0.7,0.8,2,0.8,4v7.1c0,2.2-0.4,3.7-1.1,4.4c-0.7,0.8-2.2,1.1-4.4,1.1h-1.8
		c-2.2,0-3.6-0.4-4.4-1.2c-0.7-0.7-1.1-2.1-1.1-4.2V18.5c0-1.9,0.4-3.2,1.2-3.9c0.7-0.7,2.1-1,4-1h5.7c0.5,0,0.8,0.3,0.8,0.8V15.7z
		 M216.8,33.1c0,1.1,0.1,1.8,0.4,2.1c0.3,0.3,0.9,0.5,1.9,0.5h0.6c1,0,1.6-0.1,1.9-0.4c0.3-0.3,0.5-1,0.5-2.1V26
		c0-0.9-0.1-1.5-0.4-1.8c-0.3-0.3-0.9-0.5-1.7-0.5h-1c-1,0-1.6,0.2-1.9,0.6c-0.2,0.3-0.3,0.9-0.3,1.8V33.1z"/>
	<path class="st0" d="M232.1,32.7c0,1.1,0.1,1.9,0.4,2.2c0.3,0.4,0.8,0.6,1.6,0.6h2c0.7,0,1.2-0.2,1.5-0.6c0.2-0.4,0.4-1,0.4-2V18.8
		c0-0.9-0.1-1.5-0.4-1.8c-0.3-0.3-1-0.5-2-0.5h-1c-1.3,0-2,0.8-2.1,2.3v1c0,0.5-0.3,0.8-0.8,0.8h-2.1c-0.5,0-0.8-0.3-0.8-0.8v-0.8
		c0-2.3,0.5-3.9,1.4-4.7c0.8-0.7,2.2-1.1,4.3-1.1h1.3c2.5,0,4.2,0.4,5,1.2c0.8,0.7,1.1,2.1,1.1,4.2v14.5c0,2.1-0.4,3.5-1.3,4.3
		c-0.8,0.7-2.1,1.1-4,1.1h-2.4c-2.3,0-3.9-0.3-4.6-1c-0.8-0.7-1.2-2.3-1.2-4.7l0-3.7c0-0.5,0.3-0.8,0.8-0.8h2.2
		c0.5,0,0.8,0.3,0.8,0.8V32.7z"/>
	<path class="st0" d="M250.4,15c0,0.7,0.2,1.2,0.5,1.6c0.1,0.1,0.3,0.3,0.5,0.4l0.6,0.4c1.1,0.7,1.7,1.8,1.7,3.4
		c1.6,0.1,2.7,0.7,3.3,1.7c0.4,0.8,0.7,1.9,0.7,3.4v7c0,2.5-0.3,4-1,4.7c-0.7,0.7-2.2,1-4.6,1h-2c-2.2,0-3.7-0.3-4.4-0.9
		c-0.9-0.8-1.3-2.4-1.3-4.8v-7.1c0-2,0.4-3.3,1.3-4.1c0.8-0.7,2.3-1.1,4.4-1.1c0-0.8-0.2-1.3-0.6-1.7c-0.1-0.2-0.3-0.3-0.6-0.5
		l-0.3-0.2l-0.3-0.2c-1.2-0.6-1.8-1.6-1.8-2.9v-0.8c0-0.5,0.3-0.8,0.8-0.8h2.2c0.5,0,0.8,0.3,0.8,0.8V15z M248.3,33
		c0,1.1,0.2,1.8,0.5,2.1s0.9,0.5,1.9,0.5h0.7c1.1,0,1.8-0.2,2.1-0.5c0.3-0.3,0.4-1.1,0.4-2.3v-6.4c0-1.1-0.1-1.7-0.4-2
		c-0.3-0.4-1-0.5-2.1-0.5h-0.6c-1.1,0-1.8,0.2-2.1,0.5c-0.3,0.3-0.4,0.9-0.4,1.8V33z"/>
	<path class="st0" d="M267,15.2c0,1.1,1,3,3,5.6s3,5,3,7l0,5.3c0,2.2-0.4,3.6-1,4.3c-0.7,0.8-2.3,1.2-4.6,1.2h-1.5
		c-2,0-3.4-0.3-4.2-0.8c-0.9-0.7-1.4-1.9-1.4-3.8v-4.8c0-0.5,0.3-0.8,0.8-0.8h2.1c0.5,0,0.8,0.3,0.8,0.8v3.8c0,1.1,0.1,1.7,0.3,2
		c0.2,0.4,0.8,0.6,1.7,0.6h1.3c0.8,0,1.3-0.2,1.6-0.5c0.3-0.3,0.4-1,0.4-1.9l0-5.5c0-1.2-0.3-2.4-1-3.5c-0.4-0.7-1.1-1.6-2-2.9
		l-0.6-0.7l-0.5-0.7c-0.4-0.5-0.7-1-1-1.5c-0.6-1.1-0.9-2.2-0.9-3.4v-0.8c0-0.5,0.3-0.8,0.8-0.8h2.1c0.5,0,0.8,0.3,0.8,0.8V15.2z"/>
	<path class="st0" d="M281.2,31.1c0,0.6-0.3,0.9-0.9,0.9h-2.2c-0.5,0-0.8-0.3-0.9-0.9l-0.5-6.5v-9.4c0-0.6,0.3-0.9,0.9-0.9h3.1
		c0.6,0,0.9,0.3,0.9,0.9v9.4L281.2,31.1z M281.6,37.5c0,0.6-0.3,0.9-0.9,0.9h-3.1c-0.6,0-0.9-0.3-0.9-0.9v-2.9
		c0-0.6,0.3-0.9,0.9-0.9h3.1c0.6,0,0.9,0.3,0.9,0.9V37.5z"/>
</g>
</svg>
