<?xml version="1.0" encoding="utf-8"?>
<!-- Generator: Adobe Illustrator 19.2.1, SVG Export Plug-In . SVG Version: 6.00 Build 0)  -->
<svg version="1.1" id="Layer_1" xmlns="http://www.w3.org/2000/svg" xmlns:xlink="http://www.w3.org/1999/xlink" x="0px" y="0px"
	 width="728px" height="90px" viewBox="0 0 728 90" style="enable-background:new 0 0 728 90;" xml:space="preserve">
<style type="text/css">
	.st0{fill:#FCAF17;}
</style>
<g>
	<path class="st0" d="M31.8,25.3h6.9v1.6h-5.4v12.3h-1.5V25.3z"/>
	<path class="st0" d="M39.6,34.2c0-1.7,0.4-3.1,1.1-3.9c0.7-0.9,1.7-1.3,2.8-1.3c1.1,0,2,0.4,2.8,1.3c0.7,0.9,1.1,2.2,1.1,3.8
		c0,1.8-0.4,3.2-1.1,4c-0.7,0.9-1.7,1.3-2.8,1.3c-1.1,0-2-0.4-2.8-1.3C39.9,37.2,39.6,35.9,39.6,34.2z M41,34.2
		c0,1.3,0.2,2.3,0.7,2.9c0.5,0.6,1.1,1,1.8,1c0.7,0,1.2-0.3,1.7-1c0.5-0.6,0.7-1.6,0.7-2.9c0-1.3-0.2-2.3-0.7-2.9
		c-0.5-0.6-1.1-1-1.8-1c-0.7,0-1.2,0.3-1.7,1C41.2,31.9,41,32.9,41,34.2z"/>
	<path class="st0" d="M49,43.1v-14h1.3v1.3c0.3-0.5,0.7-0.9,1.1-1.2c0.4-0.2,0.8-0.4,1.3-0.4c0.7,0,1.2,0.2,1.8,0.6
		c0.5,0.4,0.9,1,1.3,1.8c0.3,0.8,0.5,1.7,0.5,2.8c0,1.7-0.4,3-1.1,4c-0.7,0.9-1.6,1.4-2.5,1.4c-0.4,0-0.8-0.1-1.2-0.3
		c-0.4-0.2-0.7-0.5-1-0.9v4.9H49z M50.3,34.2c0,1.3,0.2,2.3,0.7,2.9c0.4,0.6,1,0.9,1.6,0.9c0.6,0,1.1-0.3,1.6-1
		c0.4-0.6,0.7-1.6,0.7-3c0-1.3-0.2-2.3-0.7-2.9c-0.4-0.6-1-1-1.6-1c-0.6,0-1.1,0.3-1.5,1C50.5,32,50.3,32.9,50.3,34.2z"/>
	<path class="st0" d="M64.4,29.1v10.1H63v-3.9h-0.8c-0.5,0-0.8,0.1-1.1,0.2c-0.2,0.2-0.6,0.7-1.1,1.5l-1.2,2.2h-1.7l1.5-2.7
		c0.5-0.8,0.9-1.3,1.4-1.4c-0.8-0.1-1.4-0.5-1.8-1.1c-0.4-0.6-0.6-1.2-0.6-2c0-0.9,0.3-1.6,0.8-2.2c0.5-0.5,1.2-0.8,2.2-0.8H64.4z
		 M63,30.6h-2c-0.8,0-1.4,0.2-1.6,0.5c-0.2,0.3-0.4,0.7-0.4,1.1c0,0.6,0.2,1.1,0.5,1.3c0.4,0.3,1,0.4,1.9,0.4H63V30.6z"/>
	<path class="st0" d="M66,29.1h1.4v1.9c0,0.8,0,1.4,0.1,1.8s0.3,0.7,0.6,1c0.3,0.3,0.7,0.4,1.1,0.4c0.5,0,1.2-0.2,2.1-0.5v-4.6h1.4
		v10.1h-1.4v-4.1c-0.9,0.3-1.7,0.5-2.4,0.5c-0.8,0-1.5-0.3-2.1-1c-0.6-0.6-0.8-1.6-0.8-2.9V29.1z"/>
	<path class="st0" d="M80.2,38c-0.5,0.5-1,0.9-1.5,1.1c-0.5,0.2-1,0.4-1.6,0.4c-0.9,0-1.5-0.3-2.1-0.8c-0.5-0.5-0.8-1.2-0.8-2.1
		c0-0.6,0.1-1.1,0.4-1.5c0.2-0.4,0.6-0.8,1-1.1c0.4-0.3,1.1-0.4,1.9-0.6c1.1-0.2,2-0.4,2.5-0.6l0-0.4c0-0.7-0.1-1.2-0.4-1.5
		c-0.3-0.4-0.9-0.6-1.6-0.6c-0.7,0-1.1,0.1-1.5,0.4c-0.3,0.3-0.6,0.8-0.7,1.5L74.6,32c0.2-1.1,0.6-1.9,1.2-2.4
		c0.6-0.5,1.5-0.7,2.6-0.7c0.9,0,1.5,0.2,2,0.5c0.5,0.3,0.8,0.7,0.9,1.2c0.1,0.5,0.2,1.2,0.2,2.1V35c0,1.6,0,2.6,0.1,3
		c0.1,0.4,0.2,0.8,0.4,1.2h-1.5C80.3,38.9,80.3,38.5,80.2,38z M80.1,34.2c-0.5,0.3-1.3,0.5-2.3,0.6c-0.6,0.1-1,0.2-1.2,0.3
		c-0.2,0.1-0.4,0.3-0.5,0.6c-0.1,0.2-0.2,0.5-0.2,0.8c0,0.5,0.1,0.9,0.4,1.2c0.3,0.3,0.7,0.4,1.2,0.4c0.5,0,1-0.1,1.4-0.4
		c0.4-0.3,0.7-0.6,0.9-1c0.2-0.4,0.3-1.1,0.3-1.9V34.2z"/>
	<path class="st0" d="M90.2,29.1v10.1h-1.4v-3.9H88c-0.5,0-0.8,0.1-1.1,0.2c-0.2,0.2-0.6,0.7-1.1,1.5l-1.2,2.2h-1.7l1.5-2.7
		c0.5-0.8,0.9-1.3,1.4-1.4C85,35,84.4,34.6,84,34.1s-0.6-1.2-0.6-2c0-0.9,0.3-1.6,0.8-2.2c0.5-0.5,1.2-0.8,2.2-0.8H90.2z M88.8,30.6
		h-2c-0.8,0-1.4,0.2-1.6,0.5s-0.4,0.7-0.4,1.1c0,0.6,0.2,1.1,0.5,1.3c0.4,0.3,1,0.4,1.9,0.4h1.5V30.6z"/>
	<path class="st0" d="M97.5,29.1h6.5v10.1h-1.4v-8.7h-3.7v5c0,1.1,0,1.9-0.1,2.3c-0.1,0.4-0.2,0.7-0.5,1c-0.3,0.3-0.7,0.4-1.2,0.4
		c-0.3,0-0.7,0-1.1-0.1v-1.4c0.7,0,1,0,1.2-0.1c0.1,0,0.2-0.1,0.3-0.3c0.1-0.2,0.1-0.7,0.1-1.6V29.1z"/>
	<path class="st0" d="M106.1,29.1h1.4v7.7l3.9-7.7h1.5v10.1h-1.4v-7.6l-3.9,7.6h-1.5V29.1z"/>
	<path class="st0" d="M115,29.1h1.4v4.2h3.9v-4.2h1.4v10.1h-1.4v-4.5h-3.9v4.5H115V29.1z"/>
	<path class="st0" d="M123.8,29.1h1.4v7.7l3.9-7.7h1.5v10.1h-1.4v-7.6l-3.9,7.6h-1.5V29.1z"/>
	<path class="st0" d="M139.3,29.1v10.1h-1.4v-3.9h-0.8c-0.5,0-0.8,0.1-1.1,0.2c-0.2,0.2-0.6,0.7-1.1,1.5l-1.2,2.2h-1.7l1.5-2.7
		c0.5-0.8,0.9-1.3,1.4-1.4c-0.8-0.1-1.4-0.5-1.8-1.1c-0.4-0.6-0.6-1.2-0.6-2c0-0.9,0.3-1.6,0.8-2.2s1.2-0.8,2.2-0.8H139.3z
		 M137.9,30.6h-2c-0.8,0-1.4,0.2-1.6,0.5c-0.2,0.3-0.4,0.7-0.4,1.1c0,0.6,0.2,1.1,0.5,1.3c0.4,0.3,1,0.4,1.9,0.4h1.5V30.6z"/>
	<path class="st0" d="M141.8,31.1v-1.9h1.6v1.9H141.8z M141.8,39.2v-1.9h1.6v1.9H141.8z"/>
	<path class="st0" d="M153.2,37v-3.8h-3.1v-1.6h3.1v-3.8h1.3v3.8h3.1v1.6h-3.1V37H153.2z"/>
	<path class="st0" d="M159.2,35.5l1.4-0.2c0.3,1.8,1,2.7,2.2,2.7c0.6,0,1.2-0.3,1.7-0.8c0.5-0.5,0.7-1.2,0.7-2.1
		c0-0.8-0.2-1.5-0.6-2c-0.4-0.5-1-0.7-1.6-0.7c-0.3,0-0.6,0.1-1,0.2l0.2-1.5l0.2,0c0.7,0,1.3-0.2,1.7-0.6c0.4-0.4,0.6-1,0.6-1.7
		c0-0.7-0.2-1.2-0.5-1.6c-0.4-0.4-0.8-0.6-1.3-0.6c-0.5,0-1,0.2-1.4,0.6c-0.4,0.4-0.6,1-0.7,1.9l-1.4-0.3c0.2-1.2,0.6-2.1,1.2-2.7
		c0.6-0.6,1.4-0.9,2.3-0.9c0.9,0,1.7,0.3,2.4,1c0.6,0.7,1,1.5,1,2.6c0,0.6-0.1,1.2-0.4,1.7c-0.3,0.5-0.7,0.9-1.1,1.1
		c0.5,0.1,0.8,0.3,1.1,0.6c0.3,0.3,0.5,0.7,0.7,1.2c0.2,0.5,0.3,1,0.3,1.6c0,1.3-0.4,2.3-1.1,3.1c-0.8,0.8-1.7,1.2-2.7,1.2
		c-1,0-1.8-0.4-2.5-1.1C159.7,37.7,159.3,36.7,159.2,35.5z"/>
	<path class="st0" d="M168.2,27.1v-1.6h7.4v1.3c-1.1,1.4-2.1,3.3-2.9,5.6c-0.8,2.3-1.3,4.6-1.4,6.8h-1.4c0-1.2,0.2-2.5,0.6-4.1
		c0.4-1.6,0.8-3,1.4-4.4c0.6-1.4,1.3-2.6,2-3.6H168.2z"/>
	<path class="st0" d="M176.9,35.6l1.5-0.2c0.1,0.9,0.4,1.5,0.8,2c0.4,0.4,0.9,0.7,1.4,0.7c0.7,0,1.2-0.3,1.7-0.9
		c0.5-0.6,0.7-1.4,0.7-2.5c0-1-0.2-1.8-0.7-2.3c-0.5-0.5-1.1-0.8-1.8-0.8c-0.4,0-0.8,0.1-1.2,0.4c-0.4,0.2-0.7,0.6-0.9,1l-1.3-0.2
		l1.1-7.2h5.7v1.6h-4.6l-0.6,3.7c0.7-0.6,1.4-0.9,2.2-0.9c1,0,1.8,0.4,2.5,1.2c0.7,0.8,1.1,1.9,1.1,3.3c0,1.4-0.4,2.5-1.1,3.5
		c-0.7,1-1.7,1.5-2.8,1.5c-1,0-1.8-0.3-2.5-1C177.4,37.8,177,36.8,176.9,35.6z"/>
	<path class="st0" d="M197.6,37.6v1.6h-7.6c0-0.7,0.2-1.4,0.6-2.2c0.4-0.8,1.2-1.8,2.3-2.9c1.3-1.3,2.2-2.3,2.6-3
		c0.4-0.7,0.6-1.4,0.6-2c0-0.7-0.2-1.3-0.6-1.7c-0.4-0.4-0.9-0.7-1.5-0.7c-0.7,0-1.2,0.2-1.6,0.7c-0.4,0.5-0.6,1.2-0.6,2.1l-1.4-0.2
		c0.1-1.3,0.5-2.3,1.1-3c0.7-0.7,1.5-1,2.6-1c1.2,0,2,0.4,2.6,1.2c0.6,0.8,0.9,1.7,0.9,2.7c0,0.9-0.2,1.7-0.7,2.6s-1.4,1.9-2.7,3.3
		c-0.8,0.9-1.4,1.4-1.6,1.7c-0.2,0.3-0.4,0.6-0.6,0.9H197.6z"/>
	<path class="st0" d="M199.1,35.6l1.5-0.2c0.1,0.9,0.4,1.5,0.8,2c0.4,0.4,0.9,0.7,1.4,0.7c0.7,0,1.2-0.3,1.7-0.9
		c0.5-0.6,0.7-1.4,0.7-2.5c0-1-0.2-1.8-0.7-2.3c-0.5-0.5-1.1-0.8-1.8-0.8c-0.4,0-0.8,0.1-1.2,0.4c-0.4,0.2-0.7,0.6-0.9,1l-1.3-0.2
		l1.1-7.2h5.7v1.6h-4.6l-0.6,3.7c0.7-0.6,1.4-0.9,2.2-0.9c1,0,1.8,0.4,2.5,1.2c0.7,0.8,1.1,1.9,1.1,3.3c0,1.4-0.4,2.5-1.1,3.5
		c-0.7,1-1.7,1.5-2.8,1.5c-1,0-1.8-0.3-2.5-1C199.6,37.8,199.2,36.8,199.1,35.6z"/>
	<path class="st0" d="M212.5,27.1v-1.6h7.4v1.3c-1.1,1.4-2.1,3.3-2.9,5.6c-0.8,2.3-1.3,4.6-1.4,6.8h-1.4c0-1.2,0.2-2.5,0.6-4.1
		c0.4-1.6,0.8-3,1.4-4.4c0.6-1.4,1.3-2.6,2-3.6H212.5z"/>
	<path class="st0" d="M221.3,32.4c0-2.3,0.3-4.1,0.9-5.3c0.6-1.2,1.6-1.8,2.8-1.8c1.1,0,1.9,0.5,2.6,1.5c0.8,1.2,1.1,3.1,1.1,5.7
		c0,2.3-0.3,4.1-0.9,5.3c-0.6,1.2-1.6,1.8-2.8,1.8c-1.1,0-2-0.5-2.7-1.6C221.7,36.8,221.3,35,221.3,32.4z M222.7,32.4
		c0,2.3,0.2,3.8,0.7,4.6c0.4,0.8,1,1.2,1.7,1.2c0.6,0,1.2-0.4,1.6-1.2c0.4-0.8,0.6-2.3,0.6-4.5c0-2.3-0.2-3.8-0.7-4.6
		s-1-1.2-1.7-1.2c-0.6,0-1.2,0.4-1.6,1.2C223,28.6,222.7,30.1,222.7,32.4z"/>
	<path class="st0" d="M232.3,31.7c-0.6-0.3-1-0.6-1.3-1.1c-0.3-0.5-0.4-1.1-0.4-1.8c0-1.1,0.3-1.9,0.9-2.6c0.6-0.7,1.4-1,2.3-1
		c0.9,0,1.7,0.3,2.4,1c0.6,0.7,0.9,1.6,0.9,2.6c0,0.7-0.1,1.2-0.4,1.7c-0.3,0.5-0.7,0.8-1.3,1.1c0.7,0.3,1.2,0.7,1.6,1.3
		c0.4,0.6,0.6,1.4,0.6,2.3c0,1.2-0.4,2.3-1.1,3c-0.7,0.8-1.6,1.2-2.7,1.2c-1.1,0-2-0.4-2.7-1.2c-0.7-0.8-1.1-1.8-1.1-3.1
		c0-0.9,0.2-1.7,0.6-2.3C231.1,32.3,231.7,31.9,232.3,31.7z M231.6,35.2c0,0.9,0.2,1.5,0.7,2.1c0.5,0.5,1,0.8,1.6,0.8
		c0.6,0,1.2-0.3,1.6-0.8c0.4-0.5,0.7-1.2,0.7-2c0-0.9-0.2-1.5-0.7-2.1c-0.5-0.5-1-0.8-1.7-0.8c-0.6,0-1.2,0.3-1.6,0.8
		C231.8,33.7,231.6,34.4,231.6,35.2z M232.1,28.8c0,0.7,0.2,1.2,0.5,1.6c0.4,0.4,0.8,0.6,1.3,0.6c0.5,0,0.9-0.2,1.3-0.6
		c0.4-0.4,0.5-0.9,0.5-1.5c0-0.7-0.2-1.2-0.6-1.6c-0.4-0.4-0.8-0.6-1.3-0.6c-0.5,0-0.9,0.2-1.3,0.6
		C232.3,27.7,232.1,28.2,232.1,28.8z"/>
	<path class="st0" d="M248.8,39.2h-1.4V28.3c-0.3,0.4-0.8,0.8-1.3,1.2c-0.5,0.4-1,0.7-1.5,0.9v-1.7c0.8-0.4,1.5-1,2-1.6
		c0.6-0.6,1-1.3,1.2-1.9h0.9V39.2z"/>
	<path class="st0" d="M256.5,39.2h-1.4V28.3c-0.3,0.4-0.8,0.8-1.3,1.2c-0.5,0.4-1,0.7-1.5,0.9v-1.7c0.8-0.4,1.5-1,2-1.6
		c0.6-0.6,1-1.3,1.2-1.9h0.9V39.2z"/>
	<path class="st0" d="M264.5,32.4c0-2.3,0.3-4.1,0.9-5.3c0.6-1.2,1.6-1.8,2.8-1.8c1.1,0,1.9,0.5,2.6,1.5c0.8,1.2,1.1,3.1,1.1,5.7
		c0,2.3-0.3,4.1-0.9,5.3c-0.6,1.2-1.6,1.8-2.8,1.8c-1.1,0-2-0.5-2.7-1.6C264.9,36.8,264.5,35,264.5,32.4z M265.9,32.4
		c0,2.3,0.2,3.8,0.7,4.6c0.4,0.8,1,1.2,1.7,1.2c0.6,0,1.2-0.4,1.6-1.2c0.4-0.8,0.6-2.3,0.6-4.5c0-2.3-0.2-3.8-0.7-4.6
		c-0.4-0.8-1-1.2-1.7-1.2c-0.6,0-1.2,0.4-1.6,1.2C266.2,28.6,265.9,30.1,265.9,32.4z"/>
	<path class="st0" d="M273.6,36l1.3-0.2c0.2,1.5,0.8,2.2,1.9,2.2c0.5,0,0.9-0.2,1.3-0.5s0.7-0.9,1-1.7c0.3-0.8,0.4-1.8,0.4-2.9v-0.3
		c-0.3,0.6-0.7,1-1.2,1.3s-1,0.5-1.5,0.5c-0.9,0-1.7-0.4-2.4-1.2c-0.7-0.8-1-1.9-1-3.3c0-1.5,0.3-2.6,1.1-3.4
		c0.7-0.8,1.6-1.3,2.6-1.3c0.7,0,1.4,0.2,2,0.7c0.6,0.5,1.1,1.2,1.4,2.1c0.3,0.9,0.5,2.2,0.5,3.9c0,1.9-0.2,3.4-0.5,4.5
		c-0.4,1.1-0.9,1.8-1.5,2.3c-0.6,0.5-1.3,0.7-2.1,0.7c-0.9,0-1.6-0.3-2.2-0.9C274.1,38,273.7,37.1,273.6,36z M279.3,29.9
		c0-1-0.2-1.8-0.7-2.4c-0.4-0.6-1-0.9-1.5-0.9c-0.6,0-1.1,0.3-1.6,0.9c-0.5,0.6-0.7,1.4-0.7,2.4c0,0.9,0.2,1.6,0.7,2.2
		c0.5,0.5,1,0.8,1.6,0.8c0.6,0,1.1-0.3,1.6-0.8C279.1,31.6,279.3,30.9,279.3,29.9z"/>
	<path class="st0" d="M283.1,39.2v-1.9h1.6v1.9H283.1z"/>
	<path class="st0" d="M291.7,39.2V25.3h4.3c1,0,1.8,0.1,2.2,0.3c0.7,0.2,1.2,0.7,1.6,1.3c0.4,0.7,0.6,1.5,0.6,2.4
		c0,1.3-0.3,2.3-1,3.1c-0.6,0.8-1.7,1.2-3.3,1.2h-2.9v5.7H291.7z M293.2,31.9h3c0.9,0,1.6-0.2,2-0.6c0.4-0.4,0.6-1.1,0.6-1.9
		c0-0.6-0.1-1-0.3-1.4c-0.2-0.4-0.5-0.7-0.8-0.8c-0.3-0.1-0.8-0.2-1.6-0.2h-2.9V31.9z"/>
	<path class="st0" d="M307.8,36l1.4,0.2c-0.2,1.1-0.7,1.9-1.3,2.4c-0.6,0.5-1.4,0.8-2.3,0.8c-1.2,0-2.1-0.4-2.8-1.3
		c-0.7-0.9-1.1-2.2-1.1-3.9c0-1.7,0.4-3.1,1.1-4c0.7-0.9,1.7-1.4,2.8-1.4c1.1,0,2,0.4,2.7,1.3s1.1,2.2,1.1,3.9l0,0.5h-6.2
		c0.1,1.1,0.3,2,0.8,2.6c0.5,0.6,1,0.9,1.7,0.9C306.7,38.1,307.4,37.4,307.8,36z M303.2,33.2h4.6c-0.1-0.9-0.3-1.5-0.6-2
		c-0.4-0.6-1-0.9-1.7-0.9c-0.6,0-1.2,0.3-1.6,0.8S303.3,32.3,303.2,33.2z"/>
	<path class="st0" d="M311.1,29.1h1.4v4.4c0.4,0,0.8-0.1,0.9-0.3c0.2-0.2,0.4-0.8,0.8-1.8c0.3-0.8,0.5-1.3,0.7-1.6
		c0.2-0.3,0.4-0.4,0.6-0.5c0.2-0.1,0.6-0.1,1.1-0.1h0.2v1.4l-0.4,0c-0.3,0-0.5,0.1-0.6,0.2c-0.1,0.1-0.2,0.3-0.3,0.6
		c-0.3,1-0.6,1.7-0.8,2c-0.2,0.3-0.5,0.5-0.9,0.8c0.6,0.2,1.2,0.9,1.8,2.1l1.5,3.1h-1.5l-1.5-3.1c-0.3-0.6-0.6-1-0.8-1.2
		c-0.2-0.2-0.5-0.3-0.8-0.3v4.7h-1.4V29.1z"/>
	<path class="st0" d="M318.7,29.1h6.5v10.1h-1.4v-8.7h-3.7v5c0,1.1,0,1.9-0.1,2.3c-0.1,0.4-0.2,0.7-0.5,1c-0.3,0.3-0.7,0.4-1.2,0.4
		c-0.3,0-0.7,0-1.1-0.1v-1.4c0.7,0,1,0,1.2-0.1c0.1,0,0.2-0.1,0.3-0.3c0.1-0.2,0.1-0.7,0.1-1.6V29.1z"/>
	<path class="st0" d="M332.7,38c-0.5,0.5-1,0.9-1.5,1.1c-0.5,0.2-1,0.4-1.6,0.4c-0.9,0-1.5-0.3-2.1-0.8c-0.5-0.5-0.8-1.2-0.8-2.1
		c0-0.6,0.1-1.1,0.4-1.5c0.2-0.4,0.6-0.8,1-1.1c0.4-0.3,1.1-0.4,1.9-0.6c1.1-0.2,2-0.4,2.5-0.6l0-0.4c0-0.7-0.1-1.2-0.4-1.5
		c-0.3-0.4-0.9-0.6-1.6-0.6c-0.7,0-1.1,0.1-1.5,0.4c-0.3,0.3-0.6,0.8-0.7,1.5l-1.4-0.2c0.2-1.1,0.6-1.9,1.2-2.4
		c0.6-0.5,1.5-0.7,2.6-0.7c0.9,0,1.5,0.2,2,0.5c0.5,0.3,0.8,0.7,0.9,1.2c0.1,0.5,0.2,1.2,0.2,2.1V35c0,1.6,0,2.6,0.1,3
		c0.1,0.4,0.2,0.8,0.4,1.2H333C332.9,38.9,332.8,38.5,332.7,38z M332.6,34.2c-0.5,0.3-1.3,0.5-2.3,0.6c-0.6,0.1-1,0.2-1.2,0.3
		c-0.2,0.1-0.4,0.3-0.5,0.6c-0.1,0.2-0.2,0.5-0.2,0.8c0,0.5,0.1,0.9,0.4,1.2c0.3,0.3,0.7,0.4,1.2,0.4c0.5,0,1-0.1,1.4-0.4
		c0.4-0.3,0.7-0.6,0.9-1c0.2-0.4,0.3-1.1,0.3-1.9V34.2z"/>
	<path class="st0" d="M336.3,29.1h2.2l2.2,8.1l2.4-8.1h2v10.1h-1.4v-8.1l-2.5,8.1H340l-2.3-8.5v8.5h-1.4V29.1z"/>
	<path class="st0" d="M347.2,29.1h1.4v4.2h3.9v-4.2h1.4v10.1h-1.4v-4.5h-3.9v4.5h-1.4V29.1z"/>
	<path class="st0" d="M355.5,34.2c0-1.7,0.4-3.1,1.1-3.9c0.7-0.9,1.7-1.3,2.8-1.3c1.1,0,2,0.4,2.8,1.3c0.7,0.9,1.1,2.2,1.1,3.8
		c0,1.8-0.4,3.2-1.1,4c-0.7,0.9-1.7,1.3-2.8,1.3c-1.1,0-2-0.4-2.8-1.3C355.8,37.2,355.5,35.9,355.5,34.2z M356.9,34.2
		c0,1.3,0.2,2.3,0.7,2.9c0.5,0.6,1.1,1,1.8,1c0.7,0,1.2-0.3,1.7-1c0.5-0.6,0.7-1.6,0.7-2.9c0-1.3-0.2-2.3-0.7-2.9
		c-0.5-0.6-1.1-1-1.8-1c-0.7,0-1.2,0.3-1.7,1C357.1,31.9,356.9,32.9,356.9,34.2z"/>
	<path class="st0" d="M370.5,36l1.4,0.2c-0.2,1.1-0.7,1.9-1.3,2.4c-0.6,0.5-1.4,0.8-2.3,0.8c-1.2,0-2.1-0.4-2.8-1.3
		c-0.7-0.9-1.1-2.2-1.1-3.9c0-1.7,0.4-3.1,1.1-4c0.7-0.9,1.7-1.4,2.8-1.4c1.1,0,2,0.4,2.7,1.3s1.1,2.2,1.1,3.9l0,0.5h-6.2
		c0.1,1.1,0.3,2,0.8,2.6c0.5,0.6,1,0.9,1.7,0.9C369.4,38.1,370.1,37.4,370.5,36z M365.9,33.2h4.6c-0.1-0.9-0.3-1.5-0.6-2
		c-0.4-0.6-1-0.9-1.7-0.9c-0.6,0-1.2,0.3-1.6,0.8C366.2,31.6,366,32.3,365.9,33.2z"/>
	<path class="st0" d="M378.2,29.1h2.2l2.2,8.1l2.4-8.1h2v10.1h-1.4v-8.1l-2.5,8.1h-1.3l-2.3-8.5v8.5h-1.4V29.1z"/>
	<path class="st0" d="M394.8,36l1.4,0.2c-0.2,1.1-0.7,1.9-1.3,2.4c-0.6,0.5-1.4,0.8-2.3,0.8c-1.2,0-2.1-0.4-2.8-1.3
		c-0.7-0.9-1.1-2.2-1.1-3.9c0-1.7,0.4-3.1,1.1-4c0.7-0.9,1.7-1.4,2.8-1.4c1.1,0,2,0.4,2.7,1.3s1.1,2.2,1.1,3.9l0,0.5h-6.2
		c0.1,1.1,0.3,2,0.8,2.6c0.5,0.6,1,0.9,1.7,0.9C393.7,38.1,394.4,37.4,394.8,36z M390.2,33.2h4.6c-0.1-0.9-0.3-1.5-0.6-2
		c-0.4-0.6-1-0.9-1.7-0.9c-0.6,0-1.2,0.3-1.6,0.8C390.5,31.6,390.2,32.3,390.2,33.2z"/>
	<path class="st0" d="M398,43.1v-14h1.3v1.3c0.3-0.5,0.7-0.9,1.1-1.2c0.4-0.2,0.8-0.4,1.3-0.4c0.7,0,1.2,0.2,1.8,0.6
		c0.5,0.4,0.9,1,1.3,1.8c0.3,0.8,0.5,1.7,0.5,2.8c0,1.7-0.4,3-1.1,4c-0.7,0.9-1.6,1.4-2.5,1.4c-0.4,0-0.8-0.1-1.2-0.3
		c-0.4-0.2-0.7-0.5-1-0.9v4.9H398z M399.3,34.2c0,1.3,0.2,2.3,0.7,2.9c0.4,0.6,1,0.9,1.6,0.9c0.6,0,1.1-0.3,1.6-1
		c0.4-0.6,0.7-1.6,0.7-3c0-1.3-0.2-2.3-0.7-2.9c-0.4-0.6-1-1-1.6-1c-0.6,0-1.1,0.3-1.5,1C399.5,32,399.3,32.9,399.3,34.2z"/>
	<path class="st0" d="M406.4,34.2c0-1.7,0.4-3.1,1.1-3.9c0.7-0.9,1.7-1.3,2.8-1.3c1.1,0,2,0.4,2.8,1.3c0.7,0.9,1.1,2.2,1.1,3.8
		c0,1.8-0.4,3.2-1.1,4c-0.7,0.9-1.7,1.3-2.8,1.3c-1.1,0-2-0.4-2.8-1.3C406.7,37.2,406.4,35.9,406.4,34.2z M407.8,34.2
		c0,1.3,0.2,2.3,0.7,2.9c0.5,0.6,1.1,1,1.8,1c0.7,0,1.2-0.3,1.7-1c0.5-0.6,0.7-1.6,0.7-2.9c0-1.3-0.2-2.3-0.7-2.9
		c-0.5-0.6-1.1-1-1.8-1c-0.7,0-1.2,0.3-1.7,1C408,31.9,407.8,32.9,407.8,34.2z"/>
	<path class="st0" d="M415.8,29.1h6.5v10.1h-1.4v-8.7h-3.7v8.7h-1.4V29.1z"/>
	<path class="st0" d="M424.4,43.1v-14h1.3v1.3c0.3-0.5,0.7-0.9,1.1-1.2c0.4-0.2,0.8-0.4,1.3-0.4c0.7,0,1.2,0.2,1.8,0.6
		c0.5,0.4,0.9,1,1.3,1.8c0.3,0.8,0.5,1.7,0.5,2.8c0,1.7-0.4,3-1.1,4c-0.7,0.9-1.6,1.4-2.5,1.4c-0.4,0-0.8-0.1-1.2-0.3
		c-0.4-0.2-0.7-0.5-1-0.9v4.9H424.4z M425.7,34.2c0,1.3,0.2,2.3,0.7,2.9c0.4,0.6,1,0.9,1.6,0.9c0.6,0,1.1-0.3,1.6-1
		c0.4-0.6,0.7-1.6,0.7-3c0-1.3-0.2-2.3-0.7-2.9c-0.4-0.6-1-1-1.6-1c-0.6,0-1.1,0.3-1.5,1C425.9,32,425.7,32.9,425.7,34.2z"/>
	<path class="st0" d="M433.3,29.1h1.4v7.7l3.9-7.7h1.5v10.1h-1.4v-7.6l-3.9,7.6h-1.5V29.1z"/>
	<path class="st0" d="M448.8,29.1v10.1h-1.4v-3.9h-0.8c-0.5,0-0.8,0.1-1.1,0.2c-0.2,0.2-0.6,0.7-1.1,1.5l-1.2,2.2h-1.7l1.5-2.7
		c0.5-0.8,0.9-1.3,1.4-1.4c-0.8-0.1-1.4-0.5-1.8-1.1c-0.4-0.6-0.6-1.2-0.6-2c0-0.9,0.3-1.6,0.8-2.2c0.5-0.5,1.2-0.8,2.2-0.8H448.8z
		 M447.4,30.6h-2c-0.8,0-1.4,0.2-1.6,0.5s-0.4,0.7-0.4,1.1c0,0.6,0.2,1.1,0.5,1.3c0.4,0.3,1,0.4,1.9,0.4h1.5V30.6z"/>
	<path class="st0" d="M450.1,29.1h6.7v1.4h-2.7v8.7h-1.4v-8.7h-2.7V29.1z"/>
	<path class="st0" d="M458.2,29.1h1.4v7.7l3.9-7.7h1.5v10.1h-1.4v-7.6l-3.9,7.6h-1.5V29.1z"/>
	<path class="st0" d="M472.8,36l1.4,0.2c-0.2,1.1-0.7,1.9-1.3,2.4c-0.6,0.5-1.4,0.8-2.3,0.8c-1.2,0-2.1-0.4-2.8-1.3
		c-0.7-0.9-1.1-2.2-1.1-3.9c0-1.7,0.4-3.1,1.1-4c0.7-0.9,1.7-1.4,2.8-1.4c1.1,0,2,0.4,2.7,1.3s1.1,2.2,1.1,3.9l0,0.5h-6.2
		c0.1,1.1,0.3,2,0.8,2.6c0.5,0.6,1,0.9,1.7,0.9C471.6,38.1,472.3,37.4,472.8,36z M468.1,33.2h4.6c-0.1-0.9-0.3-1.5-0.6-2
		c-0.4-0.6-1-0.9-1.7-0.9c-0.6,0-1.2,0.3-1.6,0.8C468.4,31.6,468.2,32.3,468.1,33.2z"/>
	<path class="st0" d="M482,34.2l2,4.3h-1.1l-2.5-4.3l2.5-4.3h1.1L482,34.2z M485,34.2l2.1,4.3h-1.2l-2.4-4.3l2.4-4.3h1.2L485,34.2z"
		/>
	<path class="st0" d="M497.6,34.3l1.5,0.5c-0.3,1.6-0.9,2.7-1.8,3.5c-0.8,0.8-1.9,1.2-3.1,1.2c-1.1,0-2-0.3-2.7-0.8
		c-0.8-0.5-1.4-1.3-1.8-2.5c-0.5-1.1-0.7-2.5-0.7-4c0-1.5,0.2-2.8,0.7-3.9c0.5-1.1,1.1-1.9,1.9-2.4c0.8-0.5,1.7-0.8,2.7-0.8
		c1.1,0,2.1,0.3,2.8,1c0.8,0.7,1.3,1.7,1.7,3l-1.5,0.4c-0.5-1.9-1.5-2.9-3.1-2.9c-0.8,0-1.4,0.2-2,0.6c-0.6,0.4-1,1-1.3,1.8
		c-0.3,0.8-0.5,1.9-0.5,3.1c0,1.9,0.3,3.3,1,4.3c0.7,1,1.6,1.4,2.7,1.4c0.8,0,1.5-0.3,2.1-0.9S497.4,35.5,497.6,34.3z"/>
	<path class="st0" d="M500.8,29.1h1.4v4.2h3.9v-4.2h1.4v10.1h-1.4v-4.5h-3.9v4.5h-1.4V29.1z"/>
	<path class="st0" d="M509.6,29.1h1.4v7.7l3.9-7.7h1.5v10.1H515v-7.6l-3.9,7.6h-1.5V29.1z"/>
	<path class="st0" d="M518.5,29.1h1.4v4.4c0.4,0,0.8-0.1,0.9-0.3c0.2-0.2,0.4-0.8,0.8-1.8c0.3-0.8,0.5-1.3,0.7-1.6
		c0.2-0.3,0.4-0.4,0.6-0.5c0.2-0.1,0.6-0.1,1.1-0.1h0.2v1.4l-0.4,0c-0.3,0-0.5,0.1-0.6,0.2c-0.1,0.1-0.2,0.3-0.3,0.6
		c-0.3,1-0.6,1.7-0.8,2c-0.2,0.3-0.5,0.5-0.9,0.8c0.6,0.2,1.2,0.9,1.8,2.1l1.5,3.1h-1.5l-1.5-3.1c-0.3-0.6-0.6-1-0.8-1.2
		c-0.2-0.2-0.5-0.3-0.8-0.3v4.7h-1.4V29.1z"/>
	<path class="st0" d="M531.2,36l1.4,0.2c-0.2,1.1-0.7,1.9-1.3,2.4c-0.6,0.5-1.4,0.8-2.3,0.8c-1.2,0-2.1-0.4-2.8-1.3
		c-0.7-0.9-1.1-2.2-1.1-3.9c0-1.7,0.4-3.1,1.1-4c0.7-0.9,1.7-1.4,2.8-1.4c1.1,0,2,0.4,2.7,1.3s1.1,2.2,1.1,3.9l0,0.5h-6.2
		c0.1,1.1,0.3,2,0.8,2.6c0.5,0.6,1,0.9,1.7,0.9C530,38.1,530.8,37.4,531.2,36z M526.6,33.2h4.6c-0.1-0.9-0.3-1.5-0.6-2
		c-0.4-0.6-1-0.9-1.7-0.9c-0.6,0-1.2,0.3-1.6,0.8C526.8,31.6,526.6,32.3,526.6,33.2z"/>
	<path class="st0" d="M534.4,43.1v-14h1.3v1.3c0.3-0.5,0.7-0.9,1.1-1.2c0.4-0.2,0.8-0.4,1.3-0.4c0.7,0,1.2,0.2,1.8,0.6
		s0.9,1,1.3,1.8c0.3,0.8,0.5,1.7,0.5,2.8c0,1.7-0.4,3-1.1,4c-0.7,0.9-1.6,1.4-2.5,1.4c-0.4,0-0.8-0.1-1.2-0.3
		c-0.4-0.2-0.7-0.5-1-0.9v4.9H534.4z M535.7,34.2c0,1.3,0.2,2.3,0.7,2.9c0.4,0.6,1,0.9,1.6,0.9c0.6,0,1.1-0.3,1.6-1
		c0.4-0.6,0.7-1.6,0.7-3c0-1.3-0.2-2.3-0.7-2.9c-0.4-0.6-1-1-1.6-1c-0.6,0-1.1,0.3-1.5,1C535.9,32,535.7,32.9,535.7,34.2z"/>
	<path class="st0" d="M548.7,35.5l1.4,0.2c-0.2,1.2-0.6,2.1-1.2,2.8c-0.6,0.6-1.4,1-2.3,1c-1.1,0-2-0.4-2.7-1.3
		c-0.7-0.9-1-2.2-1-3.9c0-1.8,0.4-3.1,1.1-3.9c0.7-0.9,1.6-1.3,2.7-1.3c0.9,0,1.6,0.3,2.2,0.8c0.6,0.5,1,1.3,1.1,2.4l-1.4,0.2
		c-0.1-0.7-0.4-1.2-0.7-1.5c-0.3-0.3-0.7-0.5-1.2-0.5c-0.7,0-1.3,0.3-1.7,0.9c-0.5,0.6-0.7,1.6-0.7,2.9c0,1.4,0.2,2.4,0.7,3
		c0.4,0.6,1,0.9,1.7,0.9c0.5,0,1-0.2,1.4-0.6S548.6,36.4,548.7,35.5z"/>
	<path class="st0" d="M551.3,29.1h1.4v4.2h3.9v-4.2h1.4v10.1h-1.4v-4.5h-3.9v4.5h-1.4V29.1z"/>
	<path class="st0" d="M560.1,29.1h1.4v7.7l3.9-7.7h1.5v10.1h-1.4v-7.6l-3.9,7.6h-1.5V29.1z"/>
	<path class="st0" d="M569.8,35.8l-0.4-7.4v-3.1h1.7v3.1l-0.4,7.4H569.8z M569.4,39.2v-1.9h1.6v1.9H569.4z"/>
	<path class="st0" d="M579.6,39.2h-1.5V25.3h9v13.9h-1.5V26.9h-5.9V39.2z"/>
	<path class="st0" d="M589.4,43.1v-14h1.3v1.3c0.3-0.5,0.7-0.9,1.1-1.2c0.4-0.2,0.8-0.4,1.3-0.4c0.7,0,1.2,0.2,1.8,0.6
		c0.5,0.4,0.9,1,1.3,1.8c0.3,0.8,0.5,1.7,0.5,2.8c0,1.7-0.4,3-1.1,4c-0.7,0.9-1.6,1.4-2.5,1.4c-0.4,0-0.8-0.1-1.2-0.3
		c-0.4-0.2-0.7-0.5-1-0.9v4.9H589.4z M590.6,34.2c0,1.3,0.2,2.3,0.7,2.9c0.4,0.6,1,0.9,1.6,0.9c0.6,0,1.1-0.3,1.6-1
		c0.4-0.6,0.7-1.6,0.7-3c0-1.3-0.2-2.3-0.7-2.9c-0.4-0.6-1-1-1.6-1c-0.6,0-1.1,0.3-1.5,1C590.9,32,590.6,32.9,590.6,34.2z"/>
	<path class="st0" d="M597.7,34.2c0-1.7,0.4-3.1,1.1-3.9c0.7-0.9,1.7-1.3,2.8-1.3c1.1,0,2,0.4,2.8,1.3c0.7,0.9,1.1,2.2,1.1,3.8
		c0,1.8-0.4,3.2-1.1,4c-0.7,0.9-1.7,1.3-2.8,1.3c-1.1,0-2-0.4-2.8-1.3C598.1,37.2,597.7,35.9,597.7,34.2z M599.1,34.2
		c0,1.3,0.2,2.3,0.7,2.9c0.5,0.6,1.1,1,1.8,1c0.7,0,1.2-0.3,1.7-1c0.5-0.6,0.7-1.6,0.7-2.9c0-1.3-0.2-2.3-0.7-2.9
		c-0.5-0.6-1.1-1-1.8-1c-0.7,0-1.2,0.3-1.7,1C599.4,31.9,599.1,32.9,599.1,34.2z"/>
	<path class="st0" d="M607.1,29.1h1.4v4.4c0.4,0,0.8-0.1,0.9-0.3c0.2-0.2,0.4-0.8,0.8-1.8c0.3-0.8,0.5-1.3,0.7-1.6
		c0.2-0.3,0.4-0.4,0.6-0.5c0.2-0.1,0.6-0.1,1.1-0.1h0.2v1.4l-0.4,0c-0.3,0-0.5,0.1-0.6,0.2c-0.1,0.1-0.2,0.3-0.3,0.6
		c-0.3,1-0.6,1.7-0.8,2c-0.2,0.3-0.5,0.5-0.9,0.8c0.6,0.2,1.2,0.9,1.8,2.1l1.5,3.1h-1.5l-1.5-3.1c-0.3-0.6-0.6-1-0.8-1.2
		c-0.2-0.2-0.5-0.3-0.8-0.3v4.7h-1.4V29.1z"/>
	<path class="st0" d="M619.5,38c-0.5,0.5-1,0.9-1.5,1.1c-0.5,0.2-1,0.4-1.6,0.4c-0.9,0-1.5-0.3-2.1-0.8c-0.5-0.5-0.8-1.2-0.8-2.1
		c0-0.6,0.1-1.1,0.4-1.5c0.2-0.4,0.6-0.8,1-1.1c0.4-0.3,1.1-0.4,1.9-0.6c1.1-0.2,2-0.4,2.5-0.6l0-0.4c0-0.7-0.1-1.2-0.4-1.5
		c-0.3-0.4-0.9-0.6-1.6-0.6c-0.7,0-1.1,0.1-1.5,0.4c-0.3,0.3-0.6,0.8-0.7,1.5l-1.4-0.2c0.2-1.1,0.6-1.9,1.2-2.4s1.5-0.7,2.6-0.7
		c0.9,0,1.5,0.2,2,0.5c0.5,0.3,0.8,0.7,0.9,1.2c0.1,0.5,0.2,1.2,0.2,2.1V35c0,1.6,0,2.6,0.1,3c0.1,0.4,0.2,0.8,0.4,1.2h-1.5
		C619.6,38.9,619.5,38.5,619.5,38z M619.4,34.2c-0.5,0.3-1.3,0.5-2.3,0.6c-0.6,0.1-1,0.2-1.2,0.3c-0.2,0.1-0.4,0.3-0.5,0.6
		c-0.1,0.2-0.2,0.5-0.2,0.8c0,0.5,0.1,0.9,0.4,1.2c0.3,0.3,0.7,0.4,1.2,0.4c0.5,0,1-0.1,1.4-0.4c0.4-0.3,0.7-0.6,0.9-1
		c0.2-0.4,0.3-1.1,0.3-1.9V34.2z"/>
	<path class="st0" d="M622.5,29.1h1.4v1.9c0,0.8,0,1.4,0.1,1.8c0.1,0.4,0.3,0.7,0.6,1c0.3,0.3,0.7,0.4,1.1,0.4
		c0.5,0,1.2-0.2,2.1-0.5v-4.6h1.4v10.1h-1.4v-4.1c-0.9,0.3-1.7,0.5-2.4,0.5c-0.8,0-1.5-0.3-2.1-1c-0.6-0.6-0.8-1.6-0.8-2.9V29.1z"/>
	<path class="st0" d="M636.7,38c-0.5,0.5-1,0.9-1.5,1.1c-0.5,0.2-1,0.4-1.6,0.4c-0.9,0-1.5-0.3-2.1-0.8c-0.5-0.5-0.8-1.2-0.8-2.1
		c0-0.6,0.1-1.1,0.4-1.5c0.2-0.4,0.6-0.8,1-1.1c0.4-0.3,1.1-0.4,1.9-0.6c1.1-0.2,2-0.4,2.5-0.6l0-0.4c0-0.7-0.1-1.2-0.4-1.5
		c-0.3-0.4-0.9-0.6-1.6-0.6c-0.7,0-1.1,0.1-1.5,0.4c-0.3,0.3-0.6,0.8-0.7,1.5L631,32c0.2-1.1,0.6-1.9,1.2-2.4s1.5-0.7,2.6-0.7
		c0.9,0,1.5,0.2,2,0.5c0.5,0.3,0.8,0.7,0.9,1.2c0.1,0.5,0.2,1.2,0.2,2.1V35c0,1.6,0,2.6,0.1,3c0.1,0.4,0.2,0.8,0.4,1.2H637
		C636.8,38.9,636.7,38.5,636.7,38z M636.6,34.2c-0.5,0.3-1.3,0.5-2.3,0.6c-0.6,0.1-1,0.2-1.2,0.3c-0.2,0.1-0.4,0.3-0.5,0.6
		c-0.1,0.2-0.2,0.5-0.2,0.8c0,0.5,0.1,0.9,0.4,1.2c0.3,0.3,0.7,0.4,1.2,0.4c0.5,0,1-0.1,1.4-0.4c0.4-0.3,0.7-0.6,0.9-1
		c0.2-0.4,0.3-1.1,0.3-1.9V34.2z"/>
	<path class="st0" d="M640.2,29.1h1.4v7.7l3.9-7.7h1.5v10.1h-1.4v-7.6l-3.9,7.6h-1.5V29.1z M644.9,25.3h1c-0.1,0.8-0.3,1.4-0.7,1.8
		c-0.4,0.4-0.9,0.6-1.6,0.6s-1.2-0.2-1.6-0.6c-0.4-0.4-0.7-1-0.7-1.8h1c0.1,0.9,0.6,1.3,1.3,1.3c0.4,0,0.7-0.1,0.9-0.3
		C644.7,26.1,644.8,25.8,644.9,25.3z"/>
	<path class="st0" d="M653.5,29.1h2.2l2.2,8.1l2.4-8.1h2v10.1h-1.4v-8.1l-2.5,8.1h-1.3l-2.3-8.5v8.5h-1.4V29.1z"/>
	<path class="st0" d="M663.9,34.2c0-1.7,0.4-3.1,1.1-3.9c0.7-0.9,1.7-1.3,2.8-1.3c1.1,0,2,0.4,2.8,1.3c0.7,0.9,1.1,2.2,1.1,3.8
		c0,1.8-0.4,3.2-1.1,4c-0.7,0.9-1.7,1.3-2.8,1.3c-1.1,0-2-0.4-2.8-1.3C664.3,37.2,663.9,35.9,663.9,34.2z M665.3,34.2
		c0,1.3,0.2,2.3,0.7,2.9c0.5,0.6,1.1,1,1.8,1c0.7,0,1.2-0.3,1.7-1c0.5-0.6,0.7-1.6,0.7-2.9c0-1.3-0.2-2.3-0.7-2.9
		c-0.5-0.6-1.1-1-1.8-1c-0.7,0-1.2,0.3-1.7,1C665.6,31.9,665.3,32.9,665.3,34.2z"/>
	<path class="st0" d="M675.2,34.7v-1.3c0.6,0,1,0,1.2-0.1c0.2-0.1,0.4-0.2,0.6-0.5c0.2-0.3,0.3-0.6,0.3-1c0-0.5-0.1-0.8-0.4-1.1
		c-0.3-0.3-0.6-0.4-1-0.4c-0.8,0-1.3,0.6-1.7,1.7l-1.3-0.3c0.4-1.9,1.4-2.8,3-2.8c0.9,0,1.6,0.3,2.1,0.9c0.5,0.6,0.8,1.3,0.8,2.1
		c0,0.8-0.3,1.4-1,2c0.8,0.6,1.2,1.4,1.2,2.5c0,0.9-0.3,1.6-0.8,2.2c-0.5,0.6-1.3,0.8-2.3,0.8c-1.9,0-3-1-3.3-3.1L674,36
		c0.1,0.6,0.4,1.1,0.7,1.5c0.4,0.4,0.8,0.5,1.3,0.5c0.5,0,0.9-0.2,1.2-0.5c0.3-0.3,0.5-0.7,0.5-1.3c0-0.4-0.1-0.8-0.3-1
		c-0.2-0.3-0.4-0.5-0.6-0.5c-0.2-0.1-0.6-0.1-1.1-0.1L675.2,34.7z"/>
	<path class="st0" d="M680.7,29.1h4.8v1.4h-3.4v8.7h-1.4V29.1z"/>
	<path class="st0" d="M686.5,29.1h1.4v7.7l3.9-7.7h1.5v10.1h-1.4v-7.6l-3.9,7.6h-1.5V29.1z"/>
	<path class="st0" d="M696.2,35.8l-0.4-7.4v-3.1h1.7v3.1l-0.4,7.4H696.2z M695.8,39.2v-1.9h1.6v1.9H695.8z"/>
	<path class="st0" d="M701.9,34.2l-2.1-4.3h1.2l2.4,4.3l-2.4,4.3h-1.2L701.9,34.2z M704.9,34.2l-2-4.3h1.1l2.5,4.3l-2.5,4.3h-1.1
		L704.9,34.2z"/>
	<path class="st0" d="M219.1,53.8l1.5,0.5c-0.3,1.6-0.9,2.7-1.8,3.5c-0.8,0.8-1.9,1.2-3.1,1.2c-1.1,0-2-0.3-2.7-0.8
		c-0.8-0.5-1.4-1.3-1.8-2.5c-0.5-1.1-0.7-2.5-0.7-4c0-1.5,0.2-2.8,0.7-3.9c0.5-1.1,1.1-1.9,1.9-2.4c0.8-0.5,1.7-0.8,2.7-0.8
		c1.1,0,2.1,0.3,2.8,1s1.3,1.7,1.7,3l-1.5,0.4c-0.5-1.9-1.5-2.9-3.1-2.9c-0.8,0-1.4,0.2-2,0.6c-0.6,0.4-1,1-1.3,1.8
		c-0.3,0.8-0.5,1.9-0.5,3.1c0,1.9,0.3,3.3,1,4.3c0.7,1,1.6,1.4,2.7,1.4c0.8,0,1.5-0.3,2.1-0.9C218.5,55.9,218.9,55,219.1,53.8z"/>
	<path class="st0" d="M222.3,62.6v-14h1.3v1.3c0.3-0.5,0.7-0.9,1.1-1.2c0.4-0.2,0.8-0.4,1.3-0.4c0.7,0,1.2,0.2,1.8,0.6
		c0.5,0.4,0.9,1,1.3,1.8c0.3,0.8,0.5,1.7,0.5,2.8c0,1.7-0.4,3-1.1,4c-0.7,0.9-1.6,1.4-2.5,1.4c-0.4,0-0.8-0.1-1.2-0.3
		c-0.4-0.2-0.7-0.5-1-0.9v4.9H222.3z M223.6,53.7c0,1.3,0.2,2.3,0.7,2.9c0.4,0.6,1,0.9,1.6,0.9c0.6,0,1.1-0.3,1.6-1
		c0.4-0.6,0.7-1.6,0.7-3c0-1.3-0.2-2.3-0.7-2.9c-0.4-0.6-1-1-1.6-1c-0.6,0-1.1,0.3-1.5,1C223.8,51.4,223.6,52.4,223.6,53.7z"/>
	<path class="st0" d="M230.7,53.6c0-1.7,0.4-3.1,1.1-3.9c0.7-0.9,1.7-1.3,2.8-1.3c1.1,0,2,0.4,2.8,1.3c0.7,0.9,1.1,2.2,1.1,3.8
		c0,1.8-0.4,3.2-1.1,4c-0.7,0.9-1.7,1.3-2.8,1.3c-1.1,0-2-0.4-2.8-1.3C231,56.7,230.7,55.4,230.7,53.6z M232.1,53.6
		c0,1.3,0.2,2.3,0.7,2.9c0.5,0.6,1.1,1,1.8,1c0.7,0,1.2-0.3,1.7-1c0.5-0.6,0.7-1.6,0.7-2.9c0-1.3-0.2-2.3-0.7-2.9
		c-0.5-0.6-1.1-1-1.8-1c-0.7,0-1.2,0.3-1.7,1C232.3,51.4,232.1,52.3,232.1,53.6z"/>
	<path class="st0" d="M240.1,48.6h1.4V53c0.4,0,0.8-0.1,0.9-0.3c0.2-0.2,0.4-0.8,0.8-1.8c0.3-0.8,0.5-1.3,0.7-1.6
		c0.2-0.3,0.4-0.4,0.6-0.5c0.2-0.1,0.6-0.1,1.1-0.1h0.2V50l-0.4,0c-0.3,0-0.5,0.1-0.6,0.2c-0.1,0.1-0.2,0.3-0.3,0.6
		c-0.3,1-0.6,1.7-0.8,2c-0.2,0.3-0.5,0.5-0.9,0.8c0.6,0.2,1.2,0.9,1.8,2.1l1.5,3.1h-1.5l-1.5-3.1c-0.3-0.6-0.6-1-0.8-1.2
		c-0.2-0.2-0.5-0.3-0.8-0.3v4.7h-1.4V48.6z"/>
	<path class="st0" d="M247.1,48.6h1.4v7.7l3.9-7.7h1.5v10.1h-1.4v-7.6l-3.9,7.6h-1.5V48.6z"/>
	<path class="st0" d="M260.4,48.6h6.5v10.1h-1.4V50h-3.7v8.7h-1.4V48.6z"/>
	<path class="st0" d="M269,62.6v-14h1.3v1.3c0.3-0.5,0.7-0.9,1.1-1.2c0.4-0.2,0.8-0.4,1.3-0.4c0.7,0,1.2,0.2,1.8,0.6
		c0.5,0.4,0.9,1,1.3,1.8c0.3,0.8,0.5,1.7,0.5,2.8c0,1.7-0.4,3-1.1,4c-0.7,0.9-1.6,1.4-2.5,1.4c-0.4,0-0.8-0.1-1.2-0.3
		c-0.4-0.2-0.7-0.5-1-0.9v4.9H269z M270.3,53.7c0,1.3,0.2,2.3,0.7,2.9c0.4,0.6,1,0.9,1.6,0.9c0.6,0,1.1-0.3,1.6-1
		c0.4-0.6,0.7-1.6,0.7-3c0-1.3-0.2-2.3-0.7-2.9c-0.4-0.6-1-1-1.6-1c-0.6,0-1.1,0.3-1.5,1C270.5,51.4,270.3,52.4,270.3,53.7z"/>
	<path class="st0" d="M277.4,53.6c0-1.7,0.4-3.1,1.1-3.9c0.7-0.9,1.7-1.3,2.8-1.3c1.1,0,2,0.4,2.8,1.3c0.7,0.9,1.1,2.2,1.1,3.8
		c0,1.8-0.4,3.2-1.1,4c-0.7,0.9-1.7,1.3-2.8,1.3c-1.1,0-2-0.4-2.8-1.3C277.8,56.7,277.4,55.4,277.4,53.6z M278.8,53.6
		c0,1.3,0.2,2.3,0.7,2.9c0.5,0.6,1.1,1,1.8,1c0.7,0,1.2-0.3,1.7-1c0.5-0.6,0.7-1.6,0.7-2.9c0-1.3-0.2-2.3-0.7-2.9
		c-0.5-0.6-1.1-1-1.8-1c-0.7,0-1.2,0.3-1.7,1C279.1,51.4,278.8,52.3,278.8,53.6z"/>
	<path class="st0" d="M286.8,48.6h3.2c0.7,0,1.3,0.1,1.7,0.2c0.4,0.1,0.7,0.4,1,0.9c0.3,0.4,0.5,1,0.5,1.6c0,1-0.3,1.7-1,2.2
		c0.9,0.4,1.4,1.2,1.4,2.4c0,0.8-0.2,1.4-0.7,2c-0.5,0.6-1.3,0.8-2.4,0.8h-3.7V48.6z M288.2,52.8h1.5c0.6,0,1,0,1.2-0.1
		c0.2-0.1,0.4-0.2,0.6-0.5c0.2-0.2,0.3-0.5,0.3-0.9c0-0.5-0.2-0.9-0.5-1.1c-0.3-0.2-0.8-0.3-1.6-0.3h-1.5V52.8z M288.2,57.3h1.9
		c0.8,0,1.3-0.1,1.6-0.4c0.3-0.2,0.5-0.6,0.5-1.1c0-0.5-0.2-0.9-0.5-1.2c-0.3-0.2-0.9-0.4-1.8-0.4h-1.7V57.3z"/>
	<path class="st0" d="M300.9,55.4l1.4,0.2c-0.2,1.1-0.7,1.9-1.3,2.4c-0.6,0.5-1.4,0.8-2.3,0.8c-1.2,0-2.1-0.4-2.8-1.3
		c-0.7-0.9-1.1-2.2-1.1-3.9c0-1.7,0.4-3.1,1.1-4c0.7-0.9,1.7-1.4,2.8-1.4c1.1,0,2,0.4,2.7,1.3s1.1,2.2,1.1,3.9l0,0.5h-6.2
		c0.1,1.1,0.3,2,0.8,2.6c0.5,0.6,1,0.9,1.7,0.9C299.8,57.5,300.5,56.8,300.9,55.4z M296.3,52.7h4.6c-0.1-0.9-0.3-1.5-0.6-2
		c-0.4-0.6-1-0.9-1.7-0.9c-0.6,0-1.2,0.3-1.6,0.8C296.6,51.1,296.4,51.8,296.3,52.7z"/>
	<path class="st0" d="M305.3,48.6h5.8v8.7h0.9v4.3h-1.1v-2.9h-6.5v2.9h-1.2v-4.3h0.7C304.8,55.7,305.3,52.8,305.3,48.6z M306.4,50
		c-0.1,3.3-0.5,5.7-1.2,7.3h4.4V50H306.4z"/>
	<path class="st0" d="M319.1,55.4l1.4,0.2c-0.2,1.1-0.7,1.9-1.3,2.4c-0.6,0.5-1.4,0.8-2.3,0.8c-1.2,0-2.1-0.4-2.8-1.3
		c-0.7-0.9-1.1-2.2-1.1-3.9c0-1.7,0.4-3.1,1.1-4c0.7-0.9,1.7-1.4,2.8-1.4c1.1,0,2,0.4,2.7,1.3s1.1,2.2,1.1,3.9l0,0.5h-6.2
		c0.1,1.1,0.3,2,0.8,2.6c0.5,0.6,1,0.9,1.7,0.9C318,57.5,318.7,56.8,319.1,55.4z M314.5,52.7h4.6c-0.1-0.9-0.3-1.5-0.6-2
		c-0.4-0.6-1-0.9-1.7-0.9c-0.6,0-1.2,0.3-1.6,0.8C314.8,51.1,314.5,51.8,314.5,52.7z"/>
	<path class="st0" d="M322.3,48.6h1.4v4.2h3.9v-4.2h1.4v10.1h-1.4v-4.5h-3.9v4.5h-1.4V48.6z"/>
	<path class="st0" d="M331.1,48.6h1.4v7.7l3.9-7.7h1.5v10.1h-1.4v-7.6l-3.9,7.6h-1.5V48.6z"/>
	<path class="st0" d="M346.6,48.6v10.1h-1.4v-3.9h-0.8c-0.5,0-0.8,0.1-1.1,0.2s-0.6,0.7-1.1,1.5l-1.2,2.2h-1.7l1.5-2.7
		c0.5-0.8,0.9-1.3,1.4-1.4c-0.8-0.1-1.4-0.5-1.8-1.1s-0.6-1.2-0.6-2c0-0.9,0.3-1.6,0.8-2.2c0.5-0.5,1.2-0.8,2.2-0.8H346.6z
		 M345.2,50h-2c-0.8,0-1.4,0.2-1.6,0.5c-0.2,0.3-0.4,0.7-0.4,1.1c0,0.6,0.2,1.1,0.5,1.3c0.4,0.3,1,0.4,1.9,0.4h1.5V50z"/>
	<path class="st0" d="M349.1,50.6v-1.9h1.6v1.9H349.1z M349.1,58.7v-1.9h1.6v1.9H349.1z"/>
	<path class="st0" d="M364.6,57.1v1.6H357c0-0.7,0.2-1.4,0.6-2.2c0.4-0.8,1.2-1.8,2.3-2.9c1.3-1.3,2.2-2.3,2.6-3
		c0.4-0.7,0.6-1.4,0.6-2c0-0.7-0.2-1.3-0.6-1.7c-0.4-0.4-0.9-0.7-1.5-0.7c-0.7,0-1.2,0.2-1.6,0.7c-0.4,0.5-0.6,1.2-0.6,2.1l-1.4-0.2
		c0.1-1.3,0.5-2.3,1.1-3c0.7-0.7,1.5-1,2.6-1c1.2,0,2,0.4,2.6,1.2c0.6,0.8,0.9,1.7,0.9,2.7c0,0.9-0.2,1.7-0.7,2.6
		c-0.5,0.8-1.4,1.9-2.7,3.3c-0.8,0.9-1.4,1.4-1.6,1.7c-0.2,0.3-0.4,0.6-0.6,0.9H364.6z"/>
	<path class="st0" d="M366.3,55.5l1.3-0.2c0.2,1.5,0.8,2.2,1.9,2.2c0.5,0,0.9-0.2,1.3-0.5s0.7-0.9,1-1.7c0.3-0.8,0.4-1.8,0.4-2.9
		v-0.3c-0.3,0.6-0.7,1-1.2,1.3s-1,0.5-1.5,0.5c-0.9,0-1.7-0.4-2.4-1.2c-0.7-0.8-1-1.9-1-3.3c0-1.5,0.3-2.6,1.1-3.4
		c0.7-0.8,1.6-1.3,2.6-1.3c0.7,0,1.4,0.2,2,0.7c0.6,0.5,1.1,1.2,1.4,2.1c0.3,0.9,0.5,2.2,0.5,3.9c0,1.9-0.2,3.4-0.5,4.5
		c-0.4,1.1-0.9,1.8-1.5,2.3c-0.6,0.5-1.3,0.7-2.1,0.7c-0.9,0-1.6-0.3-2.2-0.9C366.7,57.5,366.4,56.6,366.3,55.5z M372,49.3
		c0-1-0.2-1.8-0.7-2.4c-0.4-0.6-1-0.9-1.5-0.9c-0.6,0-1.1,0.3-1.6,0.9c-0.5,0.6-0.7,1.4-0.7,2.4c0,0.9,0.2,1.6,0.7,2.2
		c0.5,0.5,1,0.8,1.6,0.8c0.6,0,1.1-0.3,1.6-0.8C371.8,51.1,372,50.3,372,49.3z"/>
	<path class="st0" d="M379.8,48.6h2.2l2.2,8.1l2.4-8.1h2v10.1h-1.4v-8.1l-2.5,8.1h-1.3l-2.3-8.5v8.5h-1.4V48.6z"/>
	<path class="st0" d="M396.1,57.4c-0.5,0.5-1,0.9-1.5,1.1c-0.5,0.2-1,0.4-1.6,0.4c-0.9,0-1.5-0.3-2.1-0.8c-0.5-0.5-0.8-1.2-0.8-2.1
		c0-0.6,0.1-1.1,0.4-1.5c0.2-0.4,0.6-0.8,1-1.1c0.4-0.3,1.1-0.4,1.9-0.6c1.1-0.2,2-0.4,2.5-0.6l0-0.4c0-0.7-0.1-1.2-0.4-1.5
		c-0.3-0.4-0.9-0.6-1.6-0.6c-0.7,0-1.1,0.1-1.5,0.4c-0.3,0.3-0.6,0.8-0.7,1.5l-1.4-0.2c0.2-1.1,0.6-1.9,1.2-2.4
		c0.6-0.5,1.5-0.7,2.6-0.7c0.9,0,1.5,0.2,2,0.5c0.5,0.3,0.8,0.7,0.9,1.2c0.1,0.5,0.2,1.2,0.2,2.1v2.3c0,1.6,0,2.6,0.1,3
		c0.1,0.4,0.2,0.8,0.4,1.2h-1.5C396.3,58.3,396.2,57.9,396.1,57.4z M396,53.6c-0.5,0.3-1.3,0.5-2.3,0.6c-0.6,0.1-1,0.2-1.2,0.3
		c-0.2,0.1-0.4,0.3-0.5,0.6c-0.1,0.2-0.2,0.5-0.2,0.8c0,0.5,0.1,0.9,0.4,1.2c0.3,0.3,0.7,0.4,1.2,0.4c0.5,0,1-0.1,1.4-0.4
		c0.4-0.3,0.7-0.6,0.9-1c0.2-0.4,0.3-1.1,0.3-1.9V53.6z"/>
	<path class="st0" d="M399.6,62.6v-14h1.3v1.3c0.3-0.5,0.7-0.9,1.1-1.2c0.4-0.2,0.8-0.4,1.3-0.4c0.7,0,1.2,0.2,1.8,0.6
		c0.5,0.4,0.9,1,1.3,1.8c0.3,0.8,0.5,1.7,0.5,2.8c0,1.7-0.4,3-1.1,4c-0.7,0.9-1.6,1.4-2.5,1.4c-0.4,0-0.8-0.1-1.2-0.3
		c-0.4-0.2-0.7-0.5-1-0.9v4.9H399.6z M400.9,53.7c0,1.3,0.2,2.3,0.7,2.9c0.4,0.6,1,0.9,1.6,0.9c0.6,0,1.1-0.3,1.6-1
		c0.4-0.6,0.7-1.6,0.7-3c0-1.3-0.2-2.3-0.7-2.9c-0.4-0.6-1-1-1.6-1c-0.6,0-1.1,0.3-1.5,1C401.1,51.4,400.9,52.4,400.9,53.7z"/>
	<path class="st0" d="M407.7,48.6h6.7V50h-2.7v8.7h-1.4V50h-2.7V48.6z"/>
	<path class="st0" d="M421.2,57.4c-0.5,0.5-1,0.9-1.5,1.1c-0.5,0.2-1,0.4-1.6,0.4c-0.9,0-1.5-0.3-2.1-0.8c-0.5-0.5-0.8-1.2-0.8-2.1
		c0-0.6,0.1-1.1,0.4-1.5c0.2-0.4,0.6-0.8,1-1.1c0.4-0.3,1.1-0.4,1.9-0.6c1.1-0.2,2-0.4,2.5-0.6l0-0.4c0-0.7-0.1-1.2-0.4-1.5
		c-0.3-0.4-0.9-0.6-1.6-0.6c-0.7,0-1.1,0.1-1.5,0.4c-0.3,0.3-0.6,0.8-0.7,1.5l-1.4-0.2c0.2-1.1,0.6-1.9,1.2-2.4
		c0.6-0.5,1.5-0.7,2.6-0.7c0.9,0,1.5,0.2,2,0.5c0.5,0.3,0.8,0.7,0.9,1.2c0.1,0.5,0.2,1.2,0.2,2.1v2.3c0,1.6,0,2.6,0.1,3
		c0.1,0.4,0.2,0.8,0.4,1.2h-1.5C421.3,58.3,421.2,57.9,421.2,57.4z M421.1,53.6c-0.5,0.3-1.3,0.5-2.3,0.6c-0.6,0.1-1,0.2-1.2,0.3
		c-0.2,0.1-0.4,0.3-0.5,0.6c-0.1,0.2-0.2,0.5-0.2,0.8c0,0.5,0.1,0.9,0.4,1.2c0.3,0.3,0.7,0.4,1.2,0.4c0.5,0,1-0.1,1.4-0.4
		c0.4-0.3,0.7-0.6,0.9-1c0.2-0.4,0.3-1.1,0.3-1.9V53.6z"/>
	<path class="st0" d="M428.6,54.5v-1.7h4.3v1.7H428.6z"/>
	<path class="st0" d="M438.5,55l1.4-0.2c0.3,1.8,1,2.7,2.2,2.7c0.6,0,1.2-0.3,1.7-0.8c0.5-0.5,0.7-1.2,0.7-2.1c0-0.8-0.2-1.5-0.6-2
		c-0.4-0.5-1-0.7-1.6-0.7c-0.3,0-0.6,0.1-1,0.2l0.2-1.5l0.2,0c0.7,0,1.3-0.2,1.7-0.6c0.4-0.4,0.6-1,0.6-1.7c0-0.7-0.2-1.2-0.5-1.6
		c-0.4-0.4-0.8-0.6-1.3-0.6c-0.5,0-1,0.2-1.4,0.6c-0.4,0.4-0.6,1-0.7,1.9l-1.4-0.3c0.2-1.2,0.6-2.1,1.2-2.7c0.6-0.6,1.4-0.9,2.3-0.9
		c0.9,0,1.7,0.3,2.4,1c0.6,0.7,1,1.5,1,2.6c0,0.6-0.1,1.2-0.4,1.7c-0.3,0.5-0.7,0.9-1.1,1.1c0.5,0.1,0.8,0.3,1.1,0.6
		c0.3,0.3,0.5,0.7,0.7,1.2c0.2,0.5,0.3,1,0.3,1.6c0,1.3-0.4,2.3-1.1,3.1c-0.8,0.8-1.7,1.2-2.7,1.2c-1,0-1.8-0.4-2.5-1.1
		C438.9,57.2,438.6,56.2,438.5,55z"/>
	<path class="st0" d="M447.3,51.8c0-2.3,0.3-4.1,0.9-5.3c0.6-1.2,1.6-1.8,2.8-1.8c1.1,0,1.9,0.5,2.6,1.5c0.8,1.2,1.1,3.1,1.1,5.7
		c0,2.3-0.3,4.1-0.9,5.3c-0.6,1.2-1.6,1.8-2.8,1.8c-1.1,0-2-0.5-2.7-1.6C447.7,56.3,447.3,54.4,447.3,51.8z M448.8,51.8
		c0,2.3,0.2,3.8,0.7,4.6c0.4,0.8,1,1.2,1.7,1.2c0.6,0,1.2-0.4,1.6-1.2c0.4-0.8,0.6-2.3,0.6-4.5c0-2.3-0.2-3.8-0.7-4.6
		c-0.4-0.8-1-1.2-1.7-1.2c-0.6,0-1.2,0.4-1.6,1.2C449,48.1,448.8,49.6,448.8,51.8z"/>
	<path class="st0" d="M461.1,48.6h2.2l2.2,8.1l2.4-8.1h2v10.1h-1.4v-8.1l-2.5,8.1h-1.3l-2.3-8.5v8.5h-1.4V48.6z"/>
	<path class="st0" d="M477.4,57.4c-0.5,0.5-1,0.9-1.5,1.1c-0.5,0.2-1,0.4-1.6,0.4c-0.9,0-1.5-0.3-2.1-0.8c-0.5-0.5-0.8-1.2-0.8-2.1
		c0-0.6,0.1-1.1,0.4-1.5c0.2-0.4,0.6-0.8,1-1.1c0.4-0.3,1.1-0.4,1.9-0.6c1.1-0.2,2-0.4,2.5-0.6l0-0.4c0-0.7-0.1-1.2-0.4-1.5
		c-0.3-0.4-0.9-0.6-1.6-0.6c-0.7,0-1.1,0.1-1.5,0.4c-0.3,0.3-0.6,0.8-0.7,1.5l-1.4-0.2c0.2-1.1,0.6-1.9,1.2-2.4
		c0.6-0.5,1.5-0.7,2.6-0.7c0.9,0,1.5,0.2,2,0.5c0.5,0.3,0.8,0.7,0.9,1.2c0.1,0.5,0.2,1.2,0.2,2.1v2.3c0,1.6,0,2.6,0.1,3
		c0.1,0.4,0.2,0.8,0.4,1.2h-1.5C477.5,58.3,477.5,57.9,477.4,57.4z M477.3,53.6c-0.5,0.3-1.3,0.5-2.3,0.6c-0.6,0.1-1,0.2-1.2,0.3
		c-0.2,0.1-0.4,0.3-0.5,0.6c-0.1,0.2-0.2,0.5-0.2,0.8c0,0.5,0.1,0.9,0.4,1.2c0.3,0.3,0.7,0.4,1.2,0.4c0.5,0,1-0.1,1.4-0.4
		c0.4-0.3,0.7-0.6,0.9-1c0.2-0.4,0.3-1.1,0.3-1.9V53.6z"/>
	<path class="st0" d="M487.4,48.6v10.1H486v-3.9h-0.8c-0.5,0-0.8,0.1-1.1,0.2c-0.2,0.2-0.6,0.7-1.1,1.5l-1.2,2.2h-1.7l1.5-2.7
		c0.5-0.8,0.9-1.3,1.4-1.4c-0.8-0.1-1.4-0.5-1.8-1.1c-0.4-0.6-0.6-1.2-0.6-2c0-0.9,0.3-1.6,0.8-2.2c0.5-0.5,1.2-0.8,2.2-0.8H487.4z
		 M486,50h-2c-0.8,0-1.4,0.2-1.6,0.5c-0.2,0.3-0.4,0.7-0.4,1.1c0,0.6,0.2,1.1,0.5,1.3c0.4,0.3,1,0.4,1.9,0.4h1.5V50z"/>
	<path class="st0" d="M501,57.1v1.6h-7.6c0-0.7,0.2-1.4,0.6-2.2c0.4-0.8,1.2-1.8,2.3-2.9c1.3-1.3,2.2-2.3,2.6-3
		c0.4-0.7,0.6-1.4,0.6-2c0-0.7-0.2-1.3-0.6-1.7c-0.4-0.4-0.9-0.7-1.5-0.7c-0.7,0-1.2,0.2-1.6,0.7c-0.4,0.5-0.6,1.2-0.6,2.1l-1.4-0.2
		c0.1-1.3,0.5-2.3,1.1-3c0.7-0.7,1.5-1,2.6-1c1.2,0,2,0.4,2.6,1.2c0.6,0.8,0.9,1.7,0.9,2.7c0,0.9-0.2,1.7-0.7,2.6
		c-0.5,0.8-1.4,1.9-2.7,3.3c-0.8,0.9-1.4,1.4-1.6,1.7s-0.4,0.6-0.6,0.9H501z"/>
	<path class="st0" d="M502.5,51.8c0-2.3,0.3-4.1,0.9-5.3c0.6-1.2,1.6-1.8,2.8-1.8c1.1,0,1.9,0.5,2.6,1.5c0.8,1.2,1.1,3.1,1.1,5.7
		c0,2.3-0.3,4.1-0.9,5.3c-0.6,1.2-1.6,1.8-2.8,1.8c-1.1,0-2-0.5-2.7-1.6C502.8,56.3,502.5,54.4,502.5,51.8z M503.9,51.8
		c0,2.3,0.2,3.8,0.7,4.6c0.4,0.8,1,1.2,1.7,1.2c0.6,0,1.2-0.4,1.6-1.2c0.4-0.8,0.6-2.3,0.6-4.5c0-2.3-0.2-3.8-0.7-4.6
		c-0.4-0.8-1-1.2-1.7-1.2c-0.6,0-1.2,0.4-1.6,1.2C504.1,48.1,503.9,49.6,503.9,51.8z"/>
	<path class="st0" d="M518.7,57.1v1.6h-7.6c0-0.7,0.2-1.4,0.6-2.2c0.4-0.8,1.2-1.8,2.3-2.9c1.3-1.3,2.2-2.3,2.6-3
		c0.4-0.7,0.6-1.4,0.6-2c0-0.7-0.2-1.3-0.6-1.7c-0.4-0.4-0.9-0.7-1.5-0.7c-0.7,0-1.2,0.2-1.6,0.7c-0.4,0.5-0.6,1.2-0.6,2.1l-1.4-0.2
		c0.1-1.3,0.5-2.3,1.1-3c0.7-0.7,1.5-1,2.6-1c1.2,0,2,0.4,2.6,1.2c0.6,0.8,0.9,1.7,0.9,2.7c0,0.9-0.2,1.7-0.7,2.6
		c-0.5,0.8-1.4,1.9-2.7,3.3c-0.8,0.9-1.4,1.4-1.6,1.7c-0.2,0.3-0.4,0.6-0.6,0.9H518.7z"/>
	<path class="st0" d="M525.5,58.7h-1.4V47.8c-0.3,0.4-0.8,0.8-1.3,1.2c-0.5,0.4-1,0.7-1.5,0.9v-1.7c0.8-0.4,1.5-1,2-1.6
		c0.6-0.6,1-1.3,1.2-1.9h0.9V58.7z"/>
</g>
</svg>
