<?xml version="1.0" encoding="utf-8"?>
<!-- Generator: Adobe Illustrator 25.0.1, SVG Export Plug-In . SVG Version: 6.00 Build 0)  -->
<svg version="1.1" id="Layer_1" xmlns="http://www.w3.org/2000/svg" xmlns:xlink="http://www.w3.org/1999/xlink" x="0px" y="0px"
	 viewBox="0 0 300 40" style="enable-background:new 0 0 300 40;" xml:space="preserve">
<style type="text/css">
	.st0{fill:#FFFFFF;}
	.st1{fill:#FAAE19;}
</style>
<g>
	<g>
		<path class="st0" d="M18.4,11.6v19.7h-4.5V18l-1.8,13.4H9l-1.9-13v13H2.6V11.6h6.7c0.2,1.2,0.4,2.5,0.6,4.3l0.7,5.1l1.2-9.3
			L18.4,11.6L18.4,11.6z"/>
		<path class="st0" d="M32.2,11.6v13.2c0,1.5-0.1,2.5-0.2,3.1c-0.1,0.6-0.4,1.3-0.8,1.9c-0.5,0.7-1.1,1.1-1.9,1.4
			c-0.8,0.4-1.7,0.5-2.8,0.5c-1.2,0-2.2-0.2-3.1-0.6c-0.8-0.4-1.6-0.8-2-1.5s-0.7-1.3-0.8-2c-0.1-0.7-0.1-2.2-0.1-4.4V11.6h5.2v14.8
			c0,0.8,0.1,1.4,0.1,1.6c0.1,0.2,0.2,0.4,0.6,0.4c0.4,0,0.5-0.1,0.7-0.4c0.2-0.4,0.1-0.8,0.1-1.9V11.6H32.2z M25.3,7.8V11H22V7.8
			H25.3z M30.6,7.8V11h-3.1V7.8H30.6z"/>
		<path class="st0" d="M46.4,11.6l-2.9,8.9l3.2,10.9h-5.3l-2-8.5v8.5h-5.2V11.6h5.2v7.6l2.3-7.7L46.4,11.6L46.4,11.6z"/>
		<path class="st0" d="M57.1,11.6L60,31.4h-5.3l-0.2-3.5h-1.9l-0.2,3.5H47l2.6-19.7C49.6,11.6,57.1,11.6,57.1,11.6z M54.4,24.3
			c-0.2-2.2-0.5-5-0.8-8.3c-0.5,3.8-0.8,6.6-1,8.3H54.4z"/>
		<path class="st0" d="M60.8,11.6h8.7v4H66v3.7h3.1V23H66v8.3h-5.2V11.6z"/>
		<path class="st0" d="M79.1,11.6l2.9,19.7h-5.3l-0.2-3.5h-1.8l-0.2,3.5h-5.3l2.5-19.7C71.7,11.6,79.1,11.6,79.1,11.6z M76.4,24.3
			c-0.2-2.2-0.5-5-0.8-8.3c-0.5,3.8-0.8,6.6-1,8.3H76.4z"/>
		<path class="st0" d="M92,11.6v4H89v15.8h-5.2V15.6h-3.1v-4C80.8,11.6,92,11.6,92,11.6z"/>
		<path class="st0" d="M98.3,11.6v15.8h3.1v4h-8.3V11.6C93.2,11.6,98.3,11.6,98.3,11.6z"/>
		<path class="st0" d="M112.2,11.6l2.9,19.7h-5.3l-0.2-3.5h-1.8l-0.2,3.5h-5.3l2.5-19.7C104.7,11.6,112.2,11.6,112.2,11.6z
			 M109.4,24.3c-0.2-2.2-0.5-5-0.8-8.3c-0.5,3.8-0.8,6.6-1,8.3H109.4z"/>
		<path class="st0" d="M116,11.6h3.7c2.4,0,4.1,0.1,4.9,0.2s1.6,0.7,2.1,1.4c0.5,0.8,0.8,2,0.8,3.7c0,1.5-0.2,2.5-0.6,3.1
			c-0.4,0.5-1.1,0.8-2.3,1c1,0.2,1.7,0.6,2,1c0.4,0.4,0.6,0.8,0.7,1.2c0.1,0.4,0.1,1.4,0.1,2.9v5.3h-4.8v-6.6c0-1-0.1-1.7-0.2-2
			c-0.2-0.2-0.6-0.4-1.3-0.4v8.9H116L116,11.6L116,11.6z M121.1,15v4.4c0.6,0,1-0.1,1.3-0.2c0.2-0.2,0.4-0.7,0.4-1.5v-1.1
			c0-0.7-0.1-1-0.4-1.3C122.1,15.1,121.7,15,121.1,15z"/>
		<path class="st0" d="M134.6,11.6v19.7h-5.2V11.6H134.6z"/>
	</g>
	<g>
		<path class="st1" d="M154.2,17.4h-5.3v-1.6c0-0.8-0.1-1.3-0.2-1.4c-0.1-0.1-0.4-0.2-0.7-0.2c-0.2,0-0.6,0.1-0.8,0.4
			c-0.2,0.2-0.2,0.7-0.2,1.3c0,0.7,0.1,1.3,0.2,1.6c0.2,0.4,0.7,0.8,1.6,1.3c2.5,1.4,4.1,2.7,4.7,3.7c0.7,0.9,0.9,2.5,0.9,4.6
			c0,1.5-0.2,2.7-0.5,3.4c-0.4,0.7-1.1,1.3-2.1,1.9c-1.1,0.5-2.2,0.8-3.5,0.8c-1.4,0-2.8-0.2-3.9-0.8c-1.1-0.6-1.8-1.3-2.1-2.2
			c-0.2-0.8-0.5-2.1-0.5-3.8V25h5.3v2.6c0,0.8,0.1,1.3,0.2,1.5s0.4,0.2,0.8,0.2c0.4,0,0.7-0.1,0.8-0.5c0.2-0.3,0.2-0.7,0.2-1.3
			c0-1.3-0.2-2.1-0.5-2.5c-0.4-0.4-1.3-1.1-2.6-2c-1.4-0.8-2.3-1.6-2.8-2c-0.5-0.5-0.8-1.1-1.2-1.8c-0.2-0.8-0.5-1.7-0.5-2.8
			c0-1.7,0.2-2.8,0.7-3.6c0.5-0.8,1.1-1.3,2-1.9c0.9-0.5,2.1-0.7,3.4-0.7c1.4,0,2.7,0.2,3.7,0.7c1.1,0.5,1.8,1.1,2,1.9
			c0.2,0.7,0.5,1.9,0.5,3.6C154.2,16.7,154.2,17.4,154.2,17.4z"/>
		<path class="st1" d="M169,10.9v21.6h-4.9l-2.9-9.8v9.8h-4.7V10.9h4.7l3.2,9.7v-9.7H169z"/>
		<path class="st1" d="M176.8,10.9v21.6h-5.6V10.9H176.8z"/>
		<path class="st1" d="M192.2,20.3h-5.6v-3.8c0-1.1-0.1-1.9-0.2-2c-0.1-0.2-0.4-0.4-0.8-0.4c-0.5,0-0.8,0.2-0.8,0.5
			c-0.1,0.2-0.2,1.1-0.2,2.1v10.1c0,1.1,0.1,1.8,0.2,2s0.4,0.5,0.8,0.5c0.5,0,0.7-0.2,0.8-0.5c0.1-0.2,0.2-1.1,0.2-2.2v-2.8h5.6v0.9
			c0,2.2-0.1,3.9-0.5,4.7c-0.2,0.9-1.1,1.8-2.1,2.5c-1.1,0.7-2.5,1.1-4,1.1c-1.7,0-2.9-0.2-4.1-0.8s-1.9-1.4-2.1-2.5
			c-0.2-1.1-0.5-2.6-0.5-4.7v-6.5c0-1.5,0.1-2.8,0.2-3.5c0.1-0.8,0.5-1.5,0.9-2.2c0.5-0.7,1.3-1.3,2.2-1.8c0.8-0.5,2-0.7,3.3-0.7
			c1.7,0,3,0.2,4.1,0.9c1.1,0.7,1.9,1.4,2.1,2.3s0.5,2.5,0.5,4.5V20.3L192.2,20.3L192.2,20.3z"/>
		<path class="st1" d="M207.7,10.9l-3.2,9.7l3.5,11.8H202l-2.3-9.3v9.3h-5.6V10.9h5.6v8.4l2.5-8.4C202.4,10.9,207.7,10.9,207.7,10.9
			z"/>
		<path class="st1" d="M209,10.9h9.4v4.4h-3.8v4.1h3.5v4.1h-3.5v4.7h4.1v4.4h-9.7L209,10.9L209,10.9z"/>
		<path class="st1" d="M220.3,10.9h4c2.6,0,4.4,0.1,5.4,0.2c0.9,0.2,1.8,0.7,2.3,1.5c0.6,0.8,0.8,2.2,0.8,4c0,1.7-0.2,2.8-0.7,3.4
			c-0.5,0.5-1.3,0.8-2.5,1.1c1.1,0.2,1.9,0.7,2.2,1.1c0.4,0.5,0.7,0.8,0.7,1.3c0.1,0.4,0.1,1.4,0.1,3.2v5.7h-5.3v-7.2
			c0-1.2-0.1-1.9-0.2-2.2c-0.2-0.2-0.7-0.4-1.4-0.4v9.7h-5.6L220.3,10.9L220.3,10.9z M225.9,14.6v4.8c0.7,0,1.1-0.1,1.3-0.2
			c0.2-0.2,0.4-0.8,0.4-1.7v-1.3c0-0.7-0.1-1.2-0.4-1.3C227,14.7,226.6,14.6,225.9,14.6z"/>
		<path class="st1" d="M247,17.4h-5.3v-1.6c0-0.8-0.1-1.3-0.2-1.4c-0.1-0.2-0.4-0.2-0.7-0.2s-0.6,0.1-0.8,0.4
			c-0.2,0.2-0.2,0.7-0.2,1.3c0,0.7,0.1,1.3,0.2,1.6c0.2,0.4,0.7,0.8,1.6,1.3c2.5,1.4,4.1,2.7,4.7,3.7c0.7,0.9,0.9,2.5,0.9,4.6
			c0,1.5-0.2,2.7-0.5,3.4c-0.4,0.7-1.1,1.3-2.1,1.9c-1.1,0.5-2.2,0.8-3.5,0.8c-1.4,0-2.8-0.2-3.9-0.8c-1.1-0.6-1.8-1.3-2.1-2.2
			c-0.2-0.8-0.5-2.1-0.5-3.8V25h5.3v2.6c0,0.8,0.1,1.3,0.2,1.5s0.4,0.2,0.8,0.2c0.4,0,0.7-0.1,0.8-0.5c0.2-0.2,0.2-0.7,0.2-1.3
			c0-1.3-0.2-2.1-0.5-2.5c-0.4-0.4-1.3-1.1-2.6-2c-1.4-0.8-2.3-1.6-2.8-2c-0.5-0.5-0.8-1.1-1.2-1.8c-0.2-0.8-0.5-1.7-0.5-2.8
			c0-1.7,0.2-2.8,0.7-3.6c0.5-0.8,1.1-1.3,2-1.9c0.9-0.5,2.1-0.7,3.4-0.7c1.4,0,2.7,0.2,3.7,0.7c1,0.5,1.8,1.1,2,1.9
			c0.2,0.7,0.5,1.9,0.5,3.6L247,17.4L247,17.4z"/>
		<path class="st1" d="M254.5,14.8l-0.1,1.6c0.4-0.7,0.8-1.2,1.4-1.4c0.5-0.2,1.3-0.5,2-0.5c0.8,0,1.7,0.2,2.2,0.7
			c0.6,0.5,0.9,0.9,1.2,1.7c0.2,0.7,0.2,1.9,0.2,3.4v12.4h-5.4V20.2c0-1.3-0.1-2-0.1-2.2c-0.1-0.2-0.2-0.4-0.7-0.4
			c-0.4,0-0.7,0.1-0.7,0.5c-0.1,0.2-0.1,1.2-0.1,2.5v12h-5.4V14.8H254.5z"/>
		<path class="st1" d="M268.8,10.9v2.8h-5.5v-2.8C263.3,10.9,268.8,10.9,268.8,10.9z M268.8,14.8v17.8h-5.5V14.8H268.8z"/>
		<path class="st1" d="M274.4,28.1v4.4h-4.1v-4.4H274.4z"/>
		<path class="st1" d="M280.7,21.6h-5v-1.2c0-1.3,0.1-2.5,0.5-3.2c0.4-0.8,0.9-1.4,1.9-2c0.9-0.6,2.2-0.8,3.7-0.8
			c1.9,0,3.2,0.2,4.1,0.9c0.8,0.7,1.4,1.4,1.7,2.3s0.2,2.8,0.2,5.9v8.9h-5.3v-1.6c-0.2,0.7-0.8,1.1-1.3,1.4s-1.2,0.5-1.9,0.5
			c-0.9,0-1.9-0.2-2.6-0.8c-0.8-0.5-1.2-1.7-1.2-3.4V27c0-1.3,0.2-2.2,0.7-2.7c0.5-0.5,1.4-1.1,3.2-1.7c1.9-0.7,2.7-1.2,2.8-1.4
			c0.1-0.2,0.2-0.7,0.2-1.4c0-0.8-0.1-1.5-0.2-1.9c-0.1-0.2-0.4-0.5-0.7-0.5c-0.4,0-0.6,0.1-0.7,0.4c-0.1,0.2-0.1,0.8-0.1,1.9v1.9
			C280.6,21.6,280.7,21.6,280.7,21.6z M282.4,24.1c-0.8,0.7-1.3,1.2-1.4,1.6c-0.1,0.5-0.2,1.1-0.2,1.9c0,0.8,0.1,1.5,0.2,1.9
			c0.1,0.2,0.4,0.4,0.7,0.4c0.3,0,0.6-0.1,0.7-0.2c0.1-0.2,0.1-0.8,0.1-1.7L282.4,24.1L282.4,24.1L282.4,24.1z"/>
		<path class="st1" d="M298,14.8v4l-4,10.2h4v3.5h-9.2v-3.7l4-10.4h-3.5v-3.5H298L298,14.8z"/>
	</g>
</g>
</svg>
