<?xml version="1.0" encoding="utf-8"?>
<!-- Generator: Adobe Illustrator 25.0.1, SVG Export Plug-In . SVG Version: 6.00 Build 0)  -->
<svg version="1.1" id="Layer_1" xmlns="http://www.w3.org/2000/svg" xmlns:xlink="http://www.w3.org/1999/xlink" x="0px" y="0px"
	 viewBox="0 0 300 44" style="enable-background:new 0 0 300 44;" xml:space="preserve">
<style type="text/css">
	.st0{fill:#FAAE19;}
</style>
<g>
	<path class="st0" d="M36.8,16.8h-7.1v-2.1c0-1.1-0.1-1.7-0.3-1.9c-0.1-0.3-0.5-0.4-0.9-0.4s-0.9,0.2-1.1,0.5s-0.3,1-0.3,1.7
		c0,1,0.1,1.7,0.3,2.1c0.2,0.5,1,1.1,2.1,1.8c3.3,2,5.6,3.6,6.4,4.9s1.3,3.3,1.3,6.3c0,2.1-0.2,3.6-0.7,4.6
		c-0.5,1.1-1.5,1.8-2.9,2.5c-1.4,0.6-3.1,1.1-4.9,1.1c-2,0-3.9-0.3-5.2-1.2S21,35,20.6,33.8S20,30.9,20,28.7v-1.9h7.1v3.5
		c0,1.1,0.1,1.8,0.3,2.1c0.2,0.3,0.5,0.4,1.1,0.4c0.5,0,0.9-0.2,1.2-0.5c0.2-0.3,0.3-1.1,0.3-1.7c0-1.7-0.2-2.9-0.7-3.3
		c-0.5-0.5-1.7-1.4-3.5-2.7c-1.9-1.3-3.1-2.1-3.9-2.7c-0.5-0.5-1.1-1.4-1.5-2.4c-0.4-1.1-0.5-2.2-0.5-3.9c0-2.2,0.3-3.9,0.9-4.9
		c0.5-1.1,1.5-1.8,2.8-2.5c1.3-0.6,2.9-0.9,4.7-0.9c1.9,0,3.6,0.3,5,1c1.4,0.7,2.4,1.5,2.8,2.5c0.4,1,0.6,2.7,0.6,4.9v1h0.1V16.8z"
		/>
	<path class="st0" d="M56.8,7.9v29.4h-6.6l-4.1-13.4v13.4h-6.3V7.9h6.3l4.3,13.3V7.9H56.8z"/>
	<path class="st0" d="M67.7,7.9v29.4H60V7.9H67.7z M66.2,2.2v4.7h-4.7V2.2H66.2z"/>
	<path class="st0" d="M88.4,20.6h-7.6v-5.1c0-1.5-0.1-2.5-0.2-2.8c-0.1-0.3-0.5-0.5-1.1-0.5s-1.1,0.2-1.2,0.6
		c-0.1,0.4-0.2,1.4-0.2,2.9v13.7c0,1.5,0.1,2.4,0.2,2.8c0.1,0.4,0.5,0.6,1.2,0.6c0.6,0,1-0.2,1.1-0.6c0.1-0.4,0.3-1.5,0.3-3.1v-3.6
		h7.6v1.2c0,3.1-0.2,5.1-0.6,6.4c-0.4,1.3-1.4,2.5-2.9,3.3c-1.5,1-3.3,1.5-5.5,1.5s-4.1-0.4-5.6-1.3c-1.5-0.9-2.5-1.9-2.9-3.3
		c-0.4-1.4-0.7-3.5-0.7-6.4v-8.6c0-2.1,0.1-3.7,0.2-4.7c0.1-1.1,0.5-2,1.3-3.1c0.7-1,1.7-1.7,3-2.4c1.4-0.6,3-1,4.6-1
		c2.2,0,4.1,0.4,5.6,1.3c1.5,0.9,2.5,1.9,2.9,3.2s0.6,3.3,0.6,6.1L88.4,20.6L88.4,20.6z"/>
	<path class="st0" d="M109.4,7.9L105,21.2l4.8,16.1h-7.9l-3.1-12.5v12.4h-7.6V7.9h7.6v11.5l3.4-11.5C102.2,7.9,109.4,7.9,109.4,7.9z
		"/>
	<path class="st0" d="M111.1,7.9h12.7v5.9h-5.1v5.6h4.7V25h-4.7v6.4h5.7v5.8h-13.3L111.1,7.9L111.1,7.9z"/>
	<path class="st0" d="M126.5,7.9h5.5c3.5,0,6.1,0.1,7.3,0.4s2.4,1.1,3.1,2.1c0.9,1.2,1.2,3,1.2,5.5c0,2.2-0.3,3.9-0.9,4.6
		c-0.5,0.9-1.7,1.3-3.3,1.4c1.5,0.3,2.6,0.9,3.1,1.5s0.9,1.2,1,1.7s0.2,1.9,0.2,4.3v7.7h-7.1v-9.7c0-1.5-0.1-2.6-0.3-2.9
		s-0.9-0.5-1.9-0.5v13.2h-7.9V7.9L126.5,7.9z M134.3,12.9v6.4c0.9,0,1.5-0.1,1.8-0.3c0.3-0.2,0.5-1.1,0.5-2.2v-1.6
		c0-1-0.1-1.5-0.5-1.8S135.1,12.9,134.3,12.9z"/>
	<path class="st0" d="M162.7,16.8h-7.1v-2.1c0-1.1-0.1-1.7-0.3-1.9c-0.1-0.3-0.5-0.4-0.9-0.4s-0.9,0.2-1.1,0.5
		c-0.2,0.3-0.3,1-0.3,1.7c0,1,0.1,1.7,0.3,2.1c0.2,0.5,1,1.1,2.1,1.8c3.3,2,5.6,3.6,6.4,4.9c0.9,1.3,1.3,3.3,1.3,6.3
		c0,2.1-0.2,3.6-0.7,4.6c-0.5,1.1-1.5,1.8-2.9,2.5c-1.4,0.6-3.1,1.1-4.9,1.1c-2,0-3.9-0.3-5.2-1.2c-1.5-0.9-2.5-1.7-2.9-2.9
		s-0.6-2.9-0.6-5.1v-1.9h7.1v3.5c0,1.1,0.1,1.8,0.3,2.1c0.2,0.3,0.5,0.4,1.1,0.4c0.5,0,0.9-0.2,1.1-0.5c0.2-0.3,0.3-1.1,0.3-1.7
		c0-1.7-0.2-2.9-0.7-3.3c-0.5-0.5-1.7-1.4-3.5-2.7c-1.9-1.3-3.1-2.1-3.9-2.7c-0.5-0.5-1.1-1.4-1.5-2.4c-0.4-1.1-0.5-2.2-0.5-3.9
		c0-2.2,0.3-3.9,0.9-4.9c0.5-1.1,1.5-1.8,2.8-2.5c1.3-0.5,2.9-0.9,4.7-0.9c1.9,0,3.6,0.3,5,1s2.4,1.5,2.8,2.5c0.4,1,0.6,2.7,0.6,4.9
		L162.7,16.8L162.7,16.8z"/>
	<path class="st0" d="M173.4,7.9v23.4h4.7v5.9h-12.3V7.9H173.4z"/>
	<path class="st0" d="M197.2,15c0.1,1.3,0.1,2.9,0.1,4.9v5c0,2.9-0.1,5-0.2,6.3c-0.1,1.3-0.5,2.4-1.3,3.3c-0.7,1.1-1.7,1.8-3,2.4
		c-1.3,0.5-2.7,0.9-4.4,0.9c-1.6,0-3-0.3-4.3-0.9c-1.3-0.5-2.2-1.3-3-2.4c-0.7-1.1-1.3-2.1-1.4-3.3c-0.1-1.3-0.2-3.3-0.2-6.3v-5.4
		h10.1v-5c0-1-0.1-1.6-0.1-1.9c-0.1-0.3-0.5-0.5-1.3-0.5c-0.9,0-1.3,0.5-1.3,1.7V16h-7.3v-1.5c0-2.4,0.7-4.1,2.2-5.4s3.5-1.8,6-1.8
		c3.2,0,5.6,0.5,7,1.8c0.9,0.7,1.5,1.6,1.9,2.8v0.3c0.1,0.1,0.1,0.3,0.1,0.5l0.1,0.2C197.2,13.7,197.2,14.3,197.2,15z M189.5,32.3
		c0.1-0.4,0.2-1.5,0.2-3.3V24h-2.5v5.1c0,1.7,0.1,2.8,0.2,3.1c0.1,0.3,0.4,0.5,1,0.5C189.1,32.8,189.4,32.6,189.5,32.3z"/>
	<path class="st0" d="M208.1,7.9L206.9,30h-5.7L200,7.9C200.1,7.9,208.1,7.9,208.1,7.9z M207.5,31.3v5.9h-6.9v-5.9H207.5z"/>
</g>
</svg>
