<?xml version="1.0" encoding="utf-8"?>
<!-- Generator: Adobe Illustrator 19.2.1, SVG Export Plug-In . SVG Version: 6.00 Build 0)  -->
<svg version="1.1" id="Layer_1" xmlns="http://www.w3.org/2000/svg" xmlns:xlink="http://www.w3.org/1999/xlink" x="0px" y="0px"
	 width="300px" height="126px" viewBox="0 0 300 126" style="enable-background:new 0 0 300 126;" xml:space="preserve">
<style type="text/css">
	.st0{fill:#FFFFFF;}
</style>
<g>
	<g>
		<path class="st0" d="M9.2,21.7c-0.7,0-1.1-0.4-1.1-1.1c0-2.3,0.6-3.9,1.7-4.9c1.1-1.1,3.1-1.7,5.7-1.7h3.2c2.8,0,4.8,0.7,5.9,2.2
			c0.9,1.2,1.5,3.3,1.5,6.1V41c0,2.9-0.6,4.8-1.7,5.7c-1.1,1-3.1,1.5-6,1.5h-2.8c-2.9,0-4.8-0.4-5.7-1.2c-1.2-1-1.9-3.1-1.9-6.4
			v-9.7c0-2.8,0.6-4.6,1.8-5.6c1.1-0.9,3.2-1.4,6.5-1.4h1.5c0.6,0,1.2,0.1,1.8,0.3c0.5,0.2,0.9,0.4,1.4,0.6v-3.3
			c0-1.3-0.2-2.1-0.6-2.7c-0.4-0.4-1-0.6-2-0.6h-2.2c-1.9,0-2.9,0.7-2.9,2.2c0,0.7-0.4,1.1-1.1,1.1L9.2,21.7L9.2,21.7z M13.3,40.3
			c0,1.7,0.3,2.8,0.7,3.2c0.4,0.3,1.3,0.5,2.7,0.5h0.8c1.4,0,2.3-0.2,2.7-0.6c0.5-0.6,0.6-1.6,0.6-3.3v-8.6c0-1.3-0.2-2.1-0.6-2.5
			c-0.4-0.5-1.3-0.6-2.7-0.6h-1.1c-1.5,0-2.4,0.3-2.9,0.7c-0.3,0.4-0.5,1.2-0.5,2.5v8.8H13.3z"/>
		<path class="st0" d="M41,38.3c-0.7,0-1.1-0.4-1.1-1.1V21.8c0-1.4-0.2-2.3-0.5-2.8c-0.3-0.5-0.9-0.7-1.8-0.7
			c-0.9,0-1.6,0.2-1.9,0.5c-0.6,0.5-0.7,1.3-0.7,2.5v25.5c0,0.7-0.4,1.1-1.1,1.1H31c-0.7,0-1.1-0.4-1.1-1.1V21.2
			c0-2.9,0.7-4.8,2.3-5.9c1.1-0.8,2.9-1.2,5.1-1.2c2.3,0,4,0.8,5,2.5h0.3c0.5-0.7,1.1-1.3,1.9-1.8c0.9-0.5,1.8-0.7,2.7-0.7
			c2.7,0,4.5,0.3,5.6,0.9c1.7,1,2.4,3.2,2.4,6.5v25.4c0,0.7-0.4,1.1-1.1,1.1h-3c-0.7,0-1.1-0.4-1.1-1.1v-0.5l0.1-24.3
			c0-1.8-0.2-2.8-0.6-3.2c-0.3-0.4-1-0.6-2.2-0.6c-0.8,0-1.5,0.3-1.8,0.9c-0.3,0.5-0.4,1.3-0.4,2.5v15.5c0,0.7-0.4,1.1-1.1,1.1
			C43.9,38.3,41,38.3,41,38.3z"/>
		<path class="st0" d="M60.2,47.9c-0.7,0-1.1-0.4-1.1-1.1V21.5c0-2.7,0.5-4.6,1.5-5.7c1-1.2,3-1.8,5.7-1.8h3.1c3,0,4.9,0.7,6,2.2
			c0.7,1.1,1.1,3,1.1,5.6v25.1c0,0.7-0.4,1.1-1.1,1.1h-2.9c-0.7,0-1.1-0.4-1.1-1.1V21.5c0-1.3-0.2-2.2-0.6-2.7
			c-0.4-0.6-1.2-0.7-2.4-0.7H67c-1.2,0-2,0.3-2.4,0.7c-0.4,0.5-0.6,1.5-0.6,3v25.1c0,0.7-0.4,1.1-1.1,1.1H60.2z"/>
		<path class="st0" d="M81,19.8c0-1.7,0.5-3,1.5-3.9c1.2-1.2,3.1-1.9,5.7-1.9c2.7,0,4.5,0.5,5.6,1.5c1.1,1,1.7,2.9,1.7,5.5v3.6
			c1.2,0.4,2.1,1.2,2.6,2.3c0.4,0.9,0.6,2.4,0.6,4.4v8.8c0,3.3-0.6,5.6-1.6,6.7c-1,1-3.1,1.6-6.1,1.6h-2.9c-3.2,0-5.5-0.6-6.5-1.9
			c-0.8-1-1.2-3-1.2-5.8V31c0-2.9,0.7-4.9,2.1-5.9c1.1-0.7,3.1-1.1,5.8-1.1h2.1v-4.1c0-0.7-0.1-1.2-0.4-1.5
			c-0.3-0.3-0.9-0.5-1.9-0.5c-0.7,0-1.3,0.2-1.7,0.6c-0.2,0.3-0.4,0.6-0.4,1.2v0.5c0,0.7-0.4,1.1-1.1,1.1h-2.8
			c-0.7,0-1.1-0.4-1.1-1.1V19.8z M85.4,40.5c0,1.4,0.2,2.3,0.6,2.9c0.4,0.5,1.1,0.6,2.2,0.6h2.3c1.1,0,1.9-0.3,2.2-0.7
			c0.4-0.5,0.6-1.5,0.6-3v-8.6c0-1.5-0.3-2.4-0.7-2.9c-0.5-0.4-1.3-0.6-2.7-0.6h-1.1c-1.5,0-2.4,0.3-2.9,0.7
			c-0.4,0.5-0.6,1.3-0.6,2.6L85.4,40.5L85.4,40.5z"/>
		<path class="st0" d="M107.2,40.3c0,1.6,0.2,2.5,0.5,3.1c0.4,0.6,1.1,0.7,2.2,0.7h2.7c1,0,1.7-0.3,2-0.8c0.3-0.5,0.5-1.4,0.5-2.7
			V21.5c0-1.2-0.2-2-0.6-2.5c-0.4-0.4-1.3-0.6-2.8-0.6h-1.3c-1.8,0-2.8,1-2.9,3.1v1.4c0,0.7-0.4,1.1-1.1,1.1h-2.9
			c-0.7,0-1.1-0.4-1.1-1.1v-1.1c0-3.1,0.6-5.2,1.9-6.3c1.1-0.9,3.1-1.5,5.8-1.5h1.8c3.4,0,5.7,0.6,6.8,1.6c1,1,1.6,2.9,1.6,5.7v19.7
			c0,2.8-0.6,4.7-1.8,5.8c-1.1,1-2.9,1.5-5.4,1.5h-3.3c-3.1,0-5.3-0.5-6.2-1.3c-1.1-0.9-1.7-3.1-1.7-6.4l-0.1-5
			c0-0.7,0.4-1.1,1.1-1.1h3c0.7,0,1.1,0.4,1.1,1.1L107.2,40.3L107.2,40.3z"/>
	</g>
	<g>
		<path class="st0" d="M145.2,16.1c0,0.8,0.4,1.6,1.2,2.3c0.3,0.3,0.7,0.6,1.3,0.9l1.5,0.9c2.7,1.7,4,3.2,4,4.8v1.9
			c0,2.2-0.8,3.7-2.5,4.5v0.3c0.8,0.3,1.6,1,2.2,2c0.6,0.9,0.8,1.8,0.8,2.5v4.6c0,2.8-0.6,4.7-1.8,5.8c-1.1,1-2.9,1.5-5.4,1.5H143
			c-3.1,0-5.3-0.5-6.2-1.3c-1-0.9-1.6-3.1-1.7-6.4l-0.1-5c0-0.7,0.4-1.1,1.1-1.1h3c0.7,0,1.1,0.4,1.1,1.1l0.1,4.6
			c0,1.8,0.1,2.8,0.3,3.1c0.3,0.6,1.1,0.7,2.4,0.7h3.1c1,0,1.7-0.3,2-0.8c0.3-0.5,0.5-1.4,0.5-2.7V37c0-1.5-0.2-2.4-0.6-2.9
			c-0.4-0.5-1.2-0.6-2.4-0.6h-0.7c-0.6,0-0.8-0.3-0.8-0.7v-2.9c0-0.4,0.3-0.6,0.8-0.6c1.4,0,2.3-0.2,2.8-0.6
			c0.4-0.3,0.6-0.9,0.6-1.9v-1.6c0-0.8-0.4-1.5-1.2-2c-0.3-0.2-0.7-0.5-1.2-0.7l-0.7-0.4l-0.7-0.4c-2.6-1.4-4-3.3-4-5.8v-0.6
			c0-0.7,0.4-1.1,1.1-1.1h2.9c0.7,0,1.1,0.4,1.1,1.1v0.8H145.2z"/>
		<path class="st0" d="M179.7,17.4c0,0.7-0.4,1.1-1.1,1.1h-12.3c-2.7,0-4,1.4-4,4.3v2.4c0.9-0.7,2-1.1,3.2-1.1
			c2.1,0,3.6,0.7,4.4,2.3h0.3c0.4-0.7,1-1.3,1.9-1.7c0.8-0.4,1.7-0.6,2.6-0.6c2.7,0,4.5,0.3,5.6,0.9c1.7,1,2.4,3.2,2.4,6.5v15.5
			c0,0.7-0.4,1.1-1.1,1.1h-3c-0.7,0-1.1-0.4-1.1-1.1v-0.5l0.1-14.3c0-1.8-0.2-2.8-0.6-3.2c-0.3-0.4-1-0.6-2.2-0.6
			c-0.8,0-1.5,0.3-1.8,0.9c-0.3,0.5-0.4,1.3-0.4,2.5v8c0,0.7-0.4,1.1-1.1,1.1h-3.1c-0.7,0-1.1-0.4-1.1-1.1v-8c0-1.4-0.2-2.3-0.5-2.8
			c-0.3-0.5-0.9-0.7-1.8-0.7c-0.9,0-1.6,0.2-1.9,0.5c-0.6,0.5-0.7,1.3-0.7,2.5v15.6c0,0.7-0.4,1.1-1.1,1.1h-2.9
			c-0.7,0-1.1-0.4-1.1-1.1V22.4c0-2.6,0.7-4.5,2.2-5.9s3.6-2,6.4-2h12.6c0.7,0,1.1,0.4,1.1,1.1L179.7,17.4L179.7,17.4z"/>
		<path class="st0" d="M187.5,48c-0.7,0-1.1-0.4-1.1-1.1V21.5c0-2.7,0.5-4.6,1.5-5.7c1-1.2,3-1.8,5.7-1.8h3.1c3,0,4.9,0.7,6,2.2
			c0.7,1.1,1.1,3,1.1,5.6v25.1c0,0.7-0.4,1.1-1.1,1.1h-2.9c-0.7,0-1.1-0.4-1.1-1.1V21.5c0-1.3-0.2-2.2-0.6-2.7
			c-0.4-0.6-1.2-0.7-2.4-0.7h-1.6c-1.2,0-2,0.3-2.4,0.7c-0.4,0.5-0.6,1.5-0.6,3v25.1c0,0.7-0.4,1.1-1.1,1.1
			C190.2,48,187.5,48,187.5,48z"/>
		<path class="st0" d="M215,14c2.1,0,3.7,0.6,4.7,1.9c0.8,1,1.2,2.4,1.2,4.1c0,2-0.5,3.4-1.5,4.3c4.2,0.6,6.2,2.9,6.2,7.1v9.4
			c0,3.2-0.4,5.3-1.2,6.1c-0.9,1-3.1,1.6-6.5,1.6h-2c-3.2,0-5.3-0.6-6.2-1.6c-0.9-1-1.4-3.1-1.4-6.6v-8.6c0-0.8,0.2-1.8,0.5-2.7
			c0.4-1.1,0.9-1.9,1.5-2.3c-2.4-1.1-3.6-3.1-3.6-5.9c0-4.4,2.1-6.6,6.4-6.6h1.9V14z M211.4,21.8c0,0.6,0.2,1.3,0.5,1.8
			c0.1,0.2,0.3,0.4,0.5,0.5l0.2,0.2l0.2,0.1c0.6-0.2,1.7-0.3,3.2-0.4c0.3-0.6,0.5-1.3,0.5-2.2v-1.9c0-0.8-0.2-1.5-0.5-1.8
			c-0.4-0.4-1-0.6-1.9-0.6c-1.7,0-2.5,0.7-2.5,2.3v1.9H211.4z M213.3,40.5c0,1.8,0.3,2.8,0.7,3.2c0.4,0.3,1.2,0.5,2.5,0.5h0.7
			c1.4,0,2.3-0.2,2.7-0.5c0.4-0.4,0.6-1.2,0.6-2.5v-10c0-1.3-0.2-2.1-0.6-2.5c-0.4-0.5-1.2-0.6-2.5-0.6h-1.2c-1.3,0-2.1,0.3-2.5,0.7
			s-0.6,1.4-0.6,2.8L213.3,40.5L213.3,40.5z"/>
		<path class="st0" d="M234.3,40.3c0,1.6,0.2,2.5,0.5,3.1c0.4,0.6,1.1,0.7,2.2,0.7h2.7c1,0,1.7-0.3,2-0.8c0.3-0.5,0.5-1.4,0.5-2.7
			V21.5c0-1.2-0.2-2-0.6-2.5c-0.4-0.4-1.3-0.6-2.8-0.6h-1.3c-1.8,0-2.8,1-2.9,3.1v1.4c0,0.7-0.4,1.1-1.1,1.1h-2.8
			c-0.7,0-1.1-0.4-1.1-1.1v-1.1c0-3.1,0.6-5.2,1.9-6.3c1.1-0.9,3.1-1.5,5.8-1.5h1.8c3.4,0,5.7,0.6,6.8,1.6c1,1,1.6,2.9,1.6,5.7v19.7
			c0,2.8-0.6,4.7-1.8,5.8c-1.1,1-2.9,1.5-5.4,1.5h-3.2c-3.1,0-5.3-0.5-6.2-1.3c-1.1-0.9-1.7-3.1-1.7-6.4l-0.1-5
			c0-0.7,0.4-1.1,1.1-1.1h3c0.7,0,1.1,0.4,1.1,1.1L234.3,40.3L234.3,40.3z"/>
		<path class="st0" d="M259.1,16.3c0,0.9,0.3,1.7,0.7,2.2c0.2,0.2,0.4,0.4,0.7,0.6l0.8,0.5c1.5,0.9,2.2,2.4,2.2,4.5
			c2.1,0.1,3.6,0.9,4.5,2.3c0.6,1,0.9,2.6,0.9,4.5v9.5c0,3.3-0.5,5.5-1.4,6.4s-3,1.4-6.2,1.4h-2.8c-3,0-5-0.4-5.9-1.2
			c-1.1-1-1.8-3.2-1.8-6.6V31c0-2.7,0.6-4.5,1.8-5.6c1.1-0.9,3.1-1.5,5.9-1.5c0-1-0.3-1.9-0.7-2.3c-0.2-0.2-0.5-0.5-0.7-0.6
			l-0.5-0.3l-0.5-0.3c-1.7-0.8-2.4-2.1-2.4-4v-1c0-0.7,0.4-1.1,1.1-1.1h3c0.7,0,1.1,0.4,1.1,1.1L259.1,16.3L259.1,16.3z M256.3,40.6
			c0.1,1.5,0.3,2.5,0.6,2.9c0.4,0.4,1.2,0.6,2.5,0.6h1c1.5,0,2.4-0.2,2.8-0.6c0.4-0.4,0.6-1.5,0.6-3.1v-8.7c0-1.5-0.2-2.3-0.6-2.8
			c-0.4-0.5-1.4-0.7-2.9-0.7h-0.8c-1.5,0-2.4,0.2-2.9,0.6c-0.4,0.4-0.6,1.2-0.6,2.5v9.3H256.3z"/>
		<path class="st0" d="M273.9,48c-0.7,0-1.1-0.4-1.1-1.1V21.5c0-2.7,0.5-4.6,1.5-5.7c1-1.2,3-1.8,5.7-1.8h3.1c3,0,4.9,0.7,6,2.2
			c0.7,1.1,1.1,3,1.1,5.6v25.1c0,0.7-0.4,1.1-1.1,1.1h-2.9c-0.7,0-1.1-0.4-1.1-1.1V21.5c0-1.3-0.2-2.2-0.6-2.7
			c-0.4-0.6-1.2-0.7-2.4-0.7h-1.5c-1.2,0-2,0.3-2.4,0.7s-0.6,1.5-0.6,3v25.1c0,0.7-0.4,1.1-1.1,1.1C276.7,48,273.9,48,273.9,48z"/>
	</g>
</g>
</svg>
