<svg version="1.1" id="Layer_1" xmlns="http://www.w3.org/2000/svg" x="0" y="0" width="300" height="40" xml:space="preserve"><style>.st0{fill:#fcaf17}</style><path class="st0" d="M57 13.6l-1.8 10.9c0 .2-.1.4-.1.5 0 .4.2.6.5.6.6 0 1.2-.2 1.8-.8.6-.6 1.2-1.3 1.7-2.4.5-1 .7-2.3.7-3.6 0-2.4-.7-4.3-2.1-5.7-1.4-1.4-3.2-2.2-5.5-2.2-2.7 0-4.8.9-6.6 2.8S43 18 43 21.1c0 2.9.9 5.3 2.5 7 1.7 1.7 3.9 2.6 6.5 2.6 1.3 0 2.5-.2 3.6-.6 1.2-.4 2.3-1.1 3.3-1.9h2.9c-1.1 1.5-2.6 2.6-4.3 3.4-1.7.8-3.6 1.2-5.4 1.2-3.2 0-5.8-1-7.9-3.2s-3.2-5-3.2-8.5.9-6.3 2.9-8.7 4.7-3.6 8.2-3.6c2.1 0 3.8.4 5.1 1.2 1.3.8 2.5 1.9 3.3 3.4.9 1.4 1.3 3.2 1.3 5.4 0 2.8-.8 5.1-2.4 6.6-1.6 1.7-3.2 2.5-4.7 2.5-1.2 0-1.9-.6-2.1-1.6-.6.6-1.2 1-1.7 1.3-.5.2-1 .3-1.7.3-1.3 0-2.5-.6-3.3-1.6-.8-1.1-1.3-2.5-1.3-4.3 0-2.3.6-4.3 1.7-6.2 1.2-1.8 2.5-2.7 4.2-2.7.6 0 1.3.2 1.8.5.6.3 1 .8 1.4 1.5l.2-1.6H57zm-9.3 9.2c0 .9.2 1.6.6 2.2.4.6.9.9 1.5.9s1.1-.2 1.6-.7c.5-.5.9-1.4 1.3-2.9.4-1.4.6-2.8.6-4.2 0-.8-.2-1.5-.6-2-.3-.5-.8-.8-1.4-.8-1.1 0-2 .8-2.6 2.4-.7 1.5-1 3.3-1 5.1zM75.9 16.1h-5.4v-1.7c0-.8-.1-1.3-.2-1.5-.2-.2-.4-.3-.7-.3s-.6.2-.8.4c-.2.3-.2.7-.2 1.3 0 .7.1 1.3.3 1.7.2.4.7.9 1.7 1.3 2.6 1.5 4.2 2.8 4.9 3.8.6.9 1 2.6 1 4.7 0 1.6-.2 2.8-.6 3.6s-1.1 1.4-2.1 1.9c-1.2.4-2.4.7-3.8.7-1.6 0-2.8-.3-4-.9-1.1-.6-1.8-1.3-2.1-2.2s-.5-2.2-.5-3.9v-1.5h5.1v2.7c0 .9.1 1.3.2 1.6.2.2.4.4.8.4s.7-.2.9-.5c.2-.3.3-.8.3-1.3 0-1.3-.2-2.2-.6-2.6-.4-.4-1.3-1.1-2.7-2.1-1.4-.9-2.4-1.7-2.8-2.1-.5-.4-.9-1-1.2-1.8-.3-.8-.5-1.6-.5-2.8 0-1.7.2-2.9.6-3.7.5-.8 1.1-1.4 2.1-1.8 1.2-.4 2.4-.5 3.8-.5 1.5 0 2.8.2 3.9.7 1 .5 1.7 1.1 2.1 1.8.4.7.6 2 .6 3.8l-.1.8zM91.1 9.3v22.4H86l-3-10.2v10.2h-4.8V9.3H83l3.2 10v-10h4.9zM99.3 9.3v22.4h-5.8V9.3h5.8zM115.1 19h-5.8v-3.9c0-1.1-.1-1.8-.2-2.1-.2-.3-.4-.4-.8-.4-.5 0-.8.2-.9.5-.2.3-.2 1.1-.2 2.2v10.4c0 1.1.1 1.8.2 2.1.2.3.4.5.9.5.4 0 .7-.2.9-.5.2-.3.2-1.1.2-2.4v-2.8h5.8v1c0 2.3-.2 4-.5 4.9s-1 1.8-2.1 2.5-2.5 1.1-4.1 1.1c-1.7 0-3.1-.3-4.2-.9-1.1-.6-1.8-1.5-2.2-2.5-.4-1.1-.6-2.8-.6-4.9v-6.6c0-1.6.1-2.8.2-3.6.1-.8.5-1.6.9-2.3.6-.7 1.3-1.3 2.3-1.7.9-.4 2.1-.6 3.3-.6 1.7 0 3.2.3 4.3 1 1.1.7 1.8 1.5 2.2 2.5.4.9.6 2.5.6 4.6V19h-.2zM131.1 9.3l-3.3 10.1 3.6 12.3h-6l-2.4-9.6v9.6h-5.8V9.3h5.8V18l2.6-8.7h5.5zM132.4 9.3h9.7v4.5h-3.9V18h3.6v4.3h-3.6v4.9h4.3v4.5h-10l-.1-22.4zM144.2 9.3h4.1c2.8 0 4.6.1 5.5.3.9.2 1.7.8 2.4 1.7s.9 2.3.9 4.2c0 1.7-.2 2.9-.6 3.5-.4.6-1.3.9-2.5 1.1 1.2.3 1.9.6 2.3 1.1.4.5.6.9.7 1.3.1.4.2 1.5.2 3.3v5.9h-5.4v-7.4c0-1.2-.1-2-.3-2.2-.2-.3-.7-.4-1.5-.4v10h-5.8V9.3zm5.8 3.8V18c.6 0 1.1-.1 1.3-.2.2-.2.4-.8.4-1.7v-1.3c0-.7-.2-1.2-.4-1.4-.2-.2-.7-.3-1.3-.3zM171.7 16.1h-5.4v-1.7c0-.8-.1-1.3-.2-1.5-.2-.2-.4-.3-.7-.3s-.6.2-.8.4c-.2.3-.2.7-.2 1.3 0 .7.1 1.3.3 1.7.2.4.7.9 1.7 1.3 2.6 1.5 4.2 2.8 4.9 3.8.6.9 1 2.6 1 4.7 0 1.6-.2 2.8-.6 3.6-.4.8-1.1 1.4-2.1 1.9-1.1.5-2.3.8-3.7.8-1.6 0-2.8-.3-4-.9-1.1-.6-1.8-1.3-2.1-2.2s-.5-2.2-.5-3.9v-1.5h5.4v2.7c0 .9.1 1.3.2 1.6s.4.4.8.4.7-.2.9-.5.3-.8.3-1.3c0-1.3-.2-2.2-.6-2.6-.4-.4-1.3-1.1-2.7-2.1-1.4-.9-2.4-1.7-2.8-2.1-.5-.4-.9-1-1.2-1.8-.3-.8-.5-1.7-.5-2.9 0-1.7.2-2.9.6-3.7.5-.8 1.1-1.4 2.1-1.8.9-.5 2.1-.6 3.6-.6s2.8.2 3.9.7c1 .5 1.7 1.1 2.1 1.8.4.7.6 2 .6 3.8v.9h-.3zM172.7 33.8h16v1.4h-16v-1.4zM202.8 9.3v14.9c0 1.7-.1 2.8-.2 3.6-.1.7-.5 1.4-.9 2.1-.6.7-1.3 1.3-2.1 1.7-.9.4-1.9.6-3.2.6-1.3 0-2.5-.2-3.6-.6-1-.5-1.8-1-2.3-1.7-.5-.7-.8-1.4-.9-2.2-.1-.8-.2-2.5-.2-5V9.3h5.8V26c0 .9.1 1.6.2 1.9.1.2.3.4.6.4.4 0 .6-.2.7-.5s.2-1 .2-2.1V9.3h5.9zM214.8 9.3v4.5l-4.3 13.4h4.3v4.5h-10.7v-3.2l4.5-14.6h-4V9.3h10.2zM216.3 9.3h5.8c1.8 0 3.2.2 4.2.4.9.3 1.7.9 2.3 1.7.6.9.9 2.3.9 4.2 0 1.3-.2 2.2-.6 2.8-.4.6-1.2.9-2.5 1.2 1.3.3 2.3.8 2.8 1.5s.7 1.8.7 3.2v2.1c0 1.5-.2 2.6-.6 3.3-.4.7-.9 1.2-1.7 1.5-.8.2-2.3.4-4.7.4h-6.7l.1-22.3zm5.8 3.8V18h.6c.6 0 .9-.2 1.1-.4.2-.3.2-1.1.2-2.4 0-.7-.1-1.2-.2-1.5-.2-.3-.3-.5-.5-.6h-1.2zm0 8.4v6.2c.8 0 1.3-.2 1.6-.4.2-.2.3-.8.3-1.7v-2.1c0-.9-.1-1.5-.3-1.7-.3-.1-.7-.2-1.6-.3zM245.2 22.4c0 2.2-.1 3.9-.2 4.7-.1.9-.5 1.8-1 2.5-.6.7-1.3 1.3-2.3 1.8-.9.4-2.1.6-3.3.6-1.2 0-2.3-.2-3.2-.6-.9-.4-1.7-.9-2.3-1.7-.6-.8-.9-1.7-1-2.5-.1-.9-.2-2.5-.2-4.8v-3.8c0-2.2.1-3.9.2-4.7.1-.9.5-1.8 1-2.5.6-.8 1.3-1.3 2.3-1.8.9-.4 2.1-.6 3.3-.6 1.2 0 2.3.2 3.2.6.9.4 1.7.9 2.3 1.7.6.8.9 1.7 1 2.5s.2 2.5.2 4.8v3.8zm-5.9-7.4c0-1-.1-1.7-.2-2-.1-.2-.3-.5-.7-.5-.3 0-.6.1-.7.3-.2.2-.2.9-.2 2.1v10.4c0 1.3.1 2.1.2 2.4.1.2.3.5.7.5.4 0 .6-.2.8-.6s.2-1.2.2-2.5l-.1-10.1zM259 9.3v4.5h-3.5v17.9h-5.8V13.8h-3.4V9.3H259z"/></svg>