<svg version="1.1" id="Layer_1" xmlns="http://www.w3.org/2000/svg" x="0" y="0" width="300" height="250" xml:space="preserve"><style>.st0{fill:#fcaf17}</style><path class="st0" d="M38 13.3h-4.2V12c0-.7 0-.9-.1-1.2-.1-.1-.3-.3-.5-.3-.3 0-.5.1-.7.4-.1.3-.3.5-.3 1.1 0 .5.1 1.1.3 1.3.1.3.5.7 1.3 1.1 2 1.2 3.3 2.3 3.8 2.9s.8 2 .8 3.7c0 1.2-.1 2.1-.4 2.8-.3.5-.8 1.1-1.7 1.5-.9.4-1.9.7-2.9.7-1.2 0-2.3-.3-3.2-.7-.8-.4-1.5-1.1-1.7-1.7-.3-.7-.4-1.7-.4-3.1v-1.2h4.2v2.1c0 .7 0 1.1.1 1.3.1.1.3.3.7.3.3 0 .5-.1.7-.4.1-.3.3-.5.3-1.1 0-1.1-.1-1.7-.4-2-.3-.3-1.1-.8-2.1-1.6-1.2-.8-1.9-1.3-2.3-1.6-.4-.4-.7-.8-.9-1.5-.3-.7-.4-1.3-.4-2.3 0-1.3.1-2.4.5-2.9.4-.7.9-1.1 1.7-1.5.8-.4 1.7-.5 2.8-.5 1.2 0 2.3.1 3.1.5s1.3.9 1.6 1.5.4 1.6.4 2.9v.8zM50.1 8v17.5h-4l-2.4-8v8h-3.8V8h3.8l2.5 7.8V8h3.9zM56.4 8v17.5h-4.5V8h4.5zM69 8l-2.7 8 2.9 9.6h-4.6L62.8 18v7.6h-4.5V8h4.5v6.8l2-6.8H69zM70.1 8h7.6v3.5h-3.1v3.3h2.8v3.3h-2.8V22h3.3v3.5h-8V8h.2zM79.4 8h3.2c2.1 0 3.6.1 4.4.3.8.1 1.3.5 1.9 1.3.5.7.7 1.7.7 3.3 0 1.3-.1 2.3-.5 2.8s-1.1.8-2 .8c.9.3 1.5.5 1.9.9.3.4.5.7.5 1.1.1.3.1 1.2.1 2.7v4.6h-4.2V20c0-.9-.1-1.5-.3-1.7-.1-.3-.5-.4-1.2-.4v8h-4.5V8zm4.5 3.1v3.8c.5 0 .9-.1 1.1-.3.3-.1.3-.5.3-1.3v-.9c0-.5-.1-.9-.3-1.1-.2-.2-.6-.2-1.1-.2zM100.9 13.3h-4.2V12c0-.7 0-.9-.1-1.2-.1-.1-.3-.3-.5-.3-.3 0-.5.1-.7.4-.1.3-.3.5-.3 1.1 0 .5.1 1.1.3 1.3.1.3.5.7 1.3 1.1 2 1.2 3.3 2.3 3.8 2.9.5.8.8 2 .8 3.7 0 1.2-.1 2.1-.4 2.8-.3.5-.8 1.1-1.7 1.5-.9.4-1.9.7-2.9.7-1.2 0-2.3-.3-3.2-.7-.8-.4-1.5-1.1-1.7-1.7-.3-.7-.4-1.7-.4-3.1v-1.2h4.2v2.1c0 .7 0 1.1.1 1.3.1.1.3.3.7.3s.5-.1.7-.4c.1-.3.3-.5.3-1.1 0-1.1-.1-1.7-.4-2-.3-.3-1.1-.8-2.1-1.6-1.2-.8-1.9-1.3-2.3-1.6-.4-.4-.7-.8-.9-1.5-.3-.7-.4-1.3-.4-2.3 0-1.3.1-2.4.5-2.9.4-.7.9-1.1 1.7-1.5.8-.4 1.7-.5 2.8-.5 1.2 0 2.3.1 3.1.5.8.4 1.3.9 1.6 1.5s.4 1.6.4 2.9c-.1.2-.1.8-.1.8zM107.3 8v14.1h2.8v3.5h-7.3V8h4.5zM119.6 8l2.7 17.5h-4.6l-.3-3.2h-1.7l-.3 3.2h-4.6L113 8h6.6zm-2.4 11.3c-.3-2-.4-4.4-.7-7.3-.5 3.3-.8 5.8-.9 7.3h1.6zM133.2 8v17.5h-4l-2.4-8v8H123V8h3.8l2.5 7.8V8h3.9zM139.5 8v17.5H135V8h4.5zM151.6 8v17.5h-4l-2.4-8v8h-3.8V8h3.8l2.5 7.8V8h3.9zM163.8 14.5h-4.5v-1.6c0-1.1 0-1.6-.1-1.9-.1-.3-.3-.4-.7-.4-.3 0-.5.1-.5.3-.1.3-.1.8-.1 1.7V21c0 .8 0 1.3.1 1.6s.3.4.7.4.5-.1.7-.4c.1-.3.1-.8.1-1.6v-2.3h-.9V16h5.3v9.4H161l-.4-1.2c-.3.5-.7.9-1.2 1.2-.5.3-1.1.4-1.7.4-.8 0-1.5-.1-2.1-.5-.7-.4-1.2-.8-1.5-1.3-.4-.5-.5-1.1-.7-1.7-.1-.7-.1-1.5-.1-2.7v-5.2c0-1.7.1-2.9.3-3.6.1-.8.7-1.5 1.6-2.1.8-.7 2-.9 3.3-.9 1.3 0 2.4.3 3.3.8.9.5 1.5 1.2 1.7 2 .3.8.4 1.9.4 3.3v.6zM170.3 8l-.7 13.1h-3.3L165.7 8h4.6zm-.4 14.1v3.5h-4.1v-3.5h4.1z"/></svg>