<svg version="1.1" id="Layer_1" xmlns="http://www.w3.org/2000/svg" x="0" y="0" width="300" height="250" xml:space="preserve"><style>.st0{fill:#fff}</style><path class="st0" d="M42 31v17.5h-4V36.7l-1.6 11.8h-2.8L31.9 37v11.5h-4V31h5.8c.1 1.1.4 2.3.5 3.7l.7 4.5L36 31h6zM48.3 31v17.5h-4.5V31h4.5zM59.9 31l-3.3 11.2v6.4h-4.2v-6.4L49.1 31h4.2c.7 3.5 1.1 5.7 1.1 6.9.3-1.9.7-4.1 1.3-6.9h4.2zM67.5 31l2.7 17.5h-4.6l-.3-3.2h-1.6l-.3 3.2h-4.6L61.1 31h6.4zm-2.4 11.3c-.3-2-.4-4.4-.7-7.3-.4 3.3-.8 5.8-.9 7.3h1.6zM81 31v17.5h-4l-2.4-8v8h-3.8V31h3.8l2.5 7.8V31H81zM93.2 37.5h-4.5v-1.6c0-1.1 0-1.6-.1-1.9-.1-.3-.3-.4-.7-.4-.3 0-.5.1-.5.3-.1.3-.1.8-.1 1.7V44c0 .8 0 1.3.1 1.6s.2.4.6.4c.4 0 .5-.1.7-.4.1-.3.1-.8.1-1.6v-2.3h-.9V39h5.3v9.4h-2.9l-.4-1.2c-.3.5-.7.9-1.2 1.2-.5.3-1.1.4-1.7.4-.8 0-1.5-.1-2.1-.5-.7-.4-1.2-.8-1.5-1.3-.4-.5-.5-1.1-.7-1.7-.1-.7-.1-1.5-.1-2.7v-5.2c0-1.7.1-2.9.3-3.6.1-.8.7-1.5 1.6-2.1.9-.7 2-.9 3.3-.9 1.3 0 2.4.3 3.3.8.9.5 1.5 1.2 1.7 2 .3.8.4 1.9.4 3.3v.6zM105.1 31v17.5h-4l-2.4-8v8h-3.8V31h3.8l2.5 7.8V31h3.9zM111.5 31v17.5H107V31h4.5zM121.1 31v3.5L117.6 45h3.5v3.5h-8.4V46l3.5-11.4h-3.1V31h8zM132.4 31v17.5h-4l-2.4-8v8h-3.8V31h3.8l2.5 7.8V31h3.9zM138.7 31v17.5h-4.5V31h4.5zM155.2 38.7h-4.5v-3.1c0-.9 0-1.5-.1-1.6-.1-.3-.3-.3-.7-.3s-.7.1-.7.4c-.1.3-.1.8-.1 1.7V44c0 .8 0 1.5.1 1.7.1.3.3.4.7.4s.5-.1.7-.4c.1-.3.1-.9.1-1.9v-2.3h4.5v.7c0 1.9-.1 3.1-.4 3.8-.3.8-.8 1.5-1.7 2-.9.5-2 .8-3.2.8-1.3 0-2.4-.3-3.3-.7-.9-.5-1.5-1.2-1.7-2-.3-.8-.4-2.1-.4-3.8v-5.2c0-1.3 0-2.3.1-2.8.1-.7.4-1.2.8-1.9.4-.5 1.1-1.1 1.7-1.3.8-.4 1.6-.5 2.7-.5 1.3 0 2.4.3 3.3.8.9.5 1.5 1.2 1.7 2 .3.8.4 2 .4 3.6v1.7zM167.3 31v17.5h-4.5v-7.3h-1.3v7.3H157V31h4.5v6.2h1.3V31h4.5zM177 31l2.7 17.5H175l-.3-3.2h-1.6l-.3 3.2h-4.6l2.4-17.5h6.4zm-2.4 11.3c-.3-2-.4-4.4-.7-7.3-.4 3.3-.8 5.8-.9 7.3h1.6zM180.4 31h3.2c2.1 0 3.6.1 4.4.3.8.1 1.3.5 1.9 1.3.5.7.7 1.7.7 3.3 0 1.3-.1 2.3-.5 2.8s-1.1.8-2 .8c.9.3 1.5.5 1.9.9.3.4.5.7.5 1.1.1.3.1 1.2.1 2.7v4.6h-4.2V43c0-.9-.1-1.5-.3-1.7-.1-.3-.5-.4-1.2-.4v8h-4.4V31zm4.5 3v3.8c.5 0 .9-.1 1.1-.3.3-.1.3-.5.3-1.3v-.9c0-.5-.1-.9-.3-1.1-.1-.2-.5-.2-1.1-.2zM201.5 31l-1.6 7.7 2.4 9.8h-4.2c-.5-1.7-.9-3.8-1.3-6.4-.1 1.1-.3 2.3-.5 3.6l-.4 2.9h-4.4l1.6-9.8-1.6-7.7h4.4c.1.5.3 1.3.5 2.4.1.8.4 1.6.5 2.4l.9-4.8h3.7V31zM207.5 31v14.1h2.8v3.5H203V31h4.5zM219.8 31l2.7 17.5h-4.6l-.3-3.2H216l-.3 3.2h-4.8l2.4-17.5h6.5zm-2.4 11.3c-.3-2-.4-4.4-.7-7.3-.4 3.3-.8 5.8-.9 7.3h1.6zM233.4 31v17.5h-4l-2.4-8v8h-3.8V31h3.8l2.5 7.8V31h3.9zM245.7 37.5h-4.5v-1.6c0-1.1 0-1.6-.1-1.9-.1-.3-.3-.4-.7-.4-.3 0-.5.1-.5.3-.1.3-.1.8-.1 1.7V44c0 .8 0 1.3.1 1.6s.3.4.7.4c.4 0 .5-.1.7-.4.1-.3.1-.8.1-1.6v-2.3h-.9V39h5.3v9.4h-2.9l-.4-1.2c-.3.5-.7.9-1.2 1.2-.5.3-1.1.4-1.7.4-.8 0-1.5-.1-2.1-.5-.7-.4-1.2-.8-1.5-1.3-.4-.5-.5-1.1-.7-1.7s-.1-1.5-.1-2.7v-5.2c0-1.7.1-2.9.3-3.6.1-.8.7-1.5 1.6-2.1.9-.7 2-.9 3.3-.9 1.3 0 2.4.3 3.3.8.9.5 1.5 1.2 1.7 2 .3.8.4 1.9.4 3.3v.6zM252.1 31l-.7 13.1h-3.3l-.7-13.1h4.7zm-.3 14.1v3.5h-4.1v-3.5h4.1z"/></svg>