<svg version="1.1" id="Layer_1" xmlns="http://www.w3.org/2000/svg" x="0" y="0" width="300" height="54" xml:space="preserve"><style>.st0{fill:#fff}</style><path class="st0" d="M5.9 9.1h3.8c2.4 0 4.1.1 5 .3s1.5.6 2 1.1c.4.5.7 1.1.8 1.7.1.6.2 1.9.2 3.7v6.8c0 1.8-.1 2.9-.2 3.5-.2.6-.5 1.1-.9 1.4-.4.3-.9.6-1.5.7-.6.1-1.5.2-2.7.2H5.9V9.1zm5.1 3.3v12.8c.7 0 1.2-.1 1.3-.4s.3-1.1.3-2.4v-7.6c0-.9 0-1.4-.1-1.7-.1-.2-.2-.4-.4-.5-.2-.1-.6-.2-1.1-.2zM28.3 9.1l2.9 19.5H26l-.3-3.5h-1.8l-.3 3.5h-5.2L21 9.1h7.3zm-2.7 12.5c-.3-2.2-.5-4.9-.8-8.2-.5 3.7-.8 6.5-1 8.2h1.8zM47.1 15h-4.7v-1.4c0-.7-.1-1.1-.2-1.3-.1-.2-.3-.3-.6-.3s-.5.1-.7.4c-.2.2-.2.6-.2 1.1 0 .7.1 1.1.3 1.5.2.3.6.7 1.4 1.2 2.3 1.3 3.7 2.4 4.3 3.3.6.9.9 2.2.9 4.2 0 1.4-.2 2.4-.5 3.1s-1 1.2-1.9 1.7-2 .7-3.3.7c-1.4 0-2.5-.3-3.5-.8s-1.6-1.2-1.9-2c-.3-.8-.4-1.9-.4-3.4v-1.3h4.7V24c0 .7.1 1.2.2 1.4.1.2.4.3.7.3.3 0 .6-.1.8-.4.2-.3.2-.7.2-1.2 0-1.1-.2-1.9-.5-2.3-.3-.4-1.1-.9-2.4-1.8-1.3-.8-2.1-1.4-2.5-1.8-.4-.4-.7-.9-1-1.6s-.3-1.4-.3-2.4c0-1.5.2-2.6.6-3.3.4-.7 1-1.2 1.8-1.6s1.9-.6 3.1-.6c1.3 0 2.4.2 3.4.6.9.4 1.5 1 1.8 1.6.3.6.5 1.7.5 3.3v.8zM60.7 20.5c0 2 0 3.3-.1 4.2-.1.8-.4 1.6-.9 2.2-.5.7-1.1 1.2-2 1.6-.8.4-1.8.5-2.9.5-1 0-2-.2-2.8-.5-.8-.3-1.5-.9-2-1.5-.5-.7-.8-1.4-.9-2.2-.1-.9-.1-2.3-.1-4.3v-3.3c0-2 0-3.3.1-4.2s.4-1.6.9-2.2c.5-.7 1.1-1.2 2-1.6.8-.4 1.8-.5 2.9-.5 1 0 2 .2 2.8.5.8.3 1.5.9 2 1.5.5.7.8 1.4.9 2.2s.1 2.2.1 4.2v3.4zm-5.1-6.4c0-.9-.1-1.5-.2-1.7-.1-.3-.3-.4-.6-.4s-.5.1-.6.3c-.1.2-.2.8-.2 1.8v9.1c0 1.1 0 1.8.1 2.1.1.3.3.4.6.4s.6-.2.7-.5c.1-.3.1-1 .1-2.2v-8.9zM74.7 9.1l-2.6 19.5h-7.7l-3-19.5h5.3c.6 5.4 1.1 9.9 1.3 13.6.3-3.8.5-7.1.8-10l.4-3.6h5.5zM87.1 16.3H82v-1.8c0-1.1 0-1.8-.1-2.1s-.3-.4-.7-.4c-.3 0-.5.1-.6.4-.1.2-.2.9-.2 1.9v9.4c0 .9.1 1.5.2 1.7.1.3.3.4.7.4.4 0 .6-.2.8-.5.1-.3.2-.9.2-1.8v-2.3h-1v-3h5.9v10.5H84l-.5-1.4c-.3.6-.8 1.1-1.3 1.4-.6.2-1.2.3-1.9.3-.9 0-1.6-.2-2.4-.6-.7-.4-1.3-.9-1.7-1.5-.4-.6-.6-1.3-.7-1.9-.1-.7-.1-1.7-.1-3v-5.8c0-1.9.1-3.2.3-4.1.2-.8.8-1.6 1.7-2.3 1-.7 2.2-1.1 3.7-1.1s2.7.3 3.7.9c1 .6 1.6 1.3 1.9 2.2.3.8.4 2.1.4 3.7v.8zM88.1 7.3h4.3l2.1 3.3H92l-3.9-3.3zM106.1 9.1l2.9 19.5h-5.2l-.3-3.5h-1.8l-.3 3.5h-5.2l2.6-19.5h7.3zm-2.7 12.5c-.3-2.2-.5-4.9-.8-8.2-.5 3.7-.8 6.5-1 8.2h1.8zM114.9 9.1v15.6h3.1v3.9h-8.2V9.1h5.1zM128.6 9.1l2.9 19.5h-5.2l-.3-3.5h-1.8l-.3 3.5h-5.2l2.6-19.5h7.3zm-2.7 12.5c-.3-2.2-.5-4.9-.8-8.2-.5 3.7-.8 6.5-1 8.2h1.8zM132.4 9.1h3.6c2.4 0 4 .1 4.9.3.8.2 1.5.7 2.1 1.4.5.8.8 2 .8 3.6 0 1.5-.2 2.5-.6 3.1-.4.5-1.1.8-2.2.9 1 .2 1.7.6 2 1s.6.8.6 1.1c.1.3.1 1.3.1 2.9v5.1H139V22c0-1-.1-1.7-.2-1.9-.2-.2-.6-.4-1.3-.4v8.8h-5.1V9.1zm5 3.3v4.3c.6 0 1-.1 1.2-.2.2-.2.3-.7.3-1.5v-1.1c0-.6-.1-1-.3-1.2-.2-.2-.6-.3-1.2-.3zM157 9.1v19.5h-4.4l-2.6-8.9v8.9h-4.2V9.1h4.2l2.8 8.8V9.1h4.2zM164.1 9.1v19.5H159V9.1h5.1zM181.2 9.1l-3.7 12.4v7.1h-4.7v-7.1l-3.6-12.4h4.7c.7 3.8 1.1 6.4 1.2 7.7.3-2.1.8-4.6 1.4-7.7h4.7zM193.6 9.1v13c0 1.5 0 2.5-.1 3.1-.1.6-.4 1.2-.9 1.8-.5.6-1.1 1.1-1.9 1.4s-1.6.6-2.7.6c-1.2 0-2.2-.2-3.1-.6-.9-.4-1.6-.9-2-1.5s-.7-1.3-.8-2-.1-2.1-.1-4.3V9.1h5.1v14.6c0 .9 0 1.4.1 1.6.1.2.3.4.6.4s.5-.1.6-.4c.1-.3.1-.9.1-1.8V9.1h5.1zM205.8 9.1V13h-3v15.6h-5.1V13h-3V9.1h11.1zM212 9.1v19.5h-5V9.1h5zM214.1 9.1h5.1c1.6 0 2.8.1 3.6.4.8.2 1.5.8 2 1.5.5.8.8 2 .8 3.7 0 1.1-.2 1.9-.5 2.4-.4.4-1.1.8-2.1 1 1.2.3 2 .7 2.4 1.3.4.6.6 1.6.6 2.8V24c0 1.3-.2 2.3-.5 2.9-.3.6-.8 1.1-1.4 1.3-.7.2-2 .3-4 .3h-5.9V9.1zm5 3.3v4.3h.5c.5 0 .8-.1 1-.4.1-.2.2-.9.2-2.1 0-.6-.1-1-.2-1.3-.1-.2-.3-.4-.4-.5-.2.1-.6 0-1.1 0zm0 7.4v5.5c.7 0 1.2-.1 1.4-.3s.3-.7.3-1.5v-1.8c0-.8-.1-1.3-.3-1.5-.2-.3-.6-.4-1.4-.4zM243.6 20.5c0 2 0 3.3-.1 4.2-.1.8-.4 1.6-.9 2.2s-1.1 1.2-2 1.6c-.8.4-1.8.5-2.9.5-1 0-2-.2-2.8-.5-.8-.3-1.5-.9-2-1.5s-.8-1.4-.9-2.2c-.1-.8-.1-2.2-.1-4.2v-3.3c0-2 0-3.3.1-4.2.1-.8.4-1.6.9-2.2s1.1-1.2 2-1.6c.8-.4 1.8-.5 2.9-.5 1 0 2 .2 2.8.5s1.5.9 2 1.5c.5.7.8 1.4.9 2.2.1.8.1 2.2.1 4.2v3.3zm-5.1-6.4c0-.9 0-1.5-.2-1.7-.1-.3-.3-.4-.6-.4s-.5.1-.6.3c-.1.2-.2.8-.2 1.8v9.1c0 1.1 0 1.8.1 2.1.1.3.3.4.6.4s.6-.2.7-.5c.1-.3.1-1 .1-2.2v-8.9zM250.6 9.1v15.6h3.1v3.9h-8.2V9.1h5.1zM259.9 9.1v19.5h-5.1V9.1h5.1zM273.3 9.1v19.5h-4.4l-2.6-8.9v8.9H262V9.1h4.2l2.8 8.8V9.1h4.3zM287 16.3h-5.1v-1.8c0-1.1 0-1.8-.1-2.1-.1-.3-.3-.4-.7-.4-.3 0-.5.1-.6.4-.1.2-.2.9-.2 1.9v9.4c0 .9.1 1.5.2 1.7s.3.4.7.4c.4 0 .6-.2.8-.5.1-.3.2-.9.2-1.8v-2.3h-1v-3h5.9v10.5h-3.2l-.5-1.4c-.3.6-.8 1.1-1.3 1.4-.5.3-1.1.5-1.9.5-.9 0-1.6-.2-2.4-.6s-1.3-.9-1.7-1.5-.6-1.3-.7-1.9c-.1-.7-.1-1.7-.1-3v-5.8c0-1.9.1-3.2.3-4.1.2-.8.8-1.6 1.7-2.3 1-.7 2.2-1.1 3.7-1.1s2.7.3 3.7.9 1.6 1.3 1.9 2.2c.3.8.4 2.1.4 3.7v.6zM294.1 9.1l-.8 14.7h-3.8l-.8-14.7h5.4zm-.4 15.6v3.9h-4.6v-3.9h4.6z"/></svg>