<?xml version="1.0" encoding="utf-8"?>
<!-- Generator: Adobe Illustrator 25.0.1, SVG Export Plug-In . SVG Version: 6.00 Build 0)  -->
<svg version="1.1" id="Layer_1" xmlns="http://www.w3.org/2000/svg" xmlns:xlink="http://www.w3.org/1999/xlink" x="0px" y="0px"
	 viewBox="0 0 300 55" style="enable-background:new 0 0 300 55;" xml:space="preserve">
<style type="text/css">
	.st0{fill:#FFFFFF;}
</style>
<g>
	<path class="st0" d="M50.6,18.8h-6.8v-2.2c0-1-0.1-1.6-0.3-1.9c-0.2-0.3-0.5-0.4-0.9-0.4s-0.7,0.1-1,0.5s-0.4,1-0.4,1.6
		c0,1,0.1,1.6,0.4,2.2c0.3,0.5,1,1.2,2.2,1.8c3.4,1.9,5.5,3.4,6.2,4.9c0.9,1.3,1.3,3.4,1.3,5.9c0,2.1-0.3,3.4-0.7,4.4
		c-0.5,1-1.4,1.8-2.8,2.4c-1.3,0.7-3.1,1-4.7,1c-1.9,0-3.7-0.4-5-1.2c-1.4-0.7-2.2-1.6-2.8-2.9c-0.4-1.2-0.7-2.8-0.7-4.9v-1.8h6.8
		v3.4c0,1.2,0.1,1.8,0.3,2.1c0.1,0.3,0.5,0.4,1,0.4s0.9-0.1,1.2-0.6s0.4-1,0.4-1.6c0-1.6-0.3-2.8-0.7-3.4c-0.5-0.5-1.6-1.3-3.4-2.7
		c-1.9-1.2-3.1-2.1-3.6-2.7s-1.2-1.3-1.5-2.2s-0.6-2.2-0.6-3.7c0-2.2,0.3-3.7,0.9-4.9c0.7-1,1.6-1.9,2.8-2.4c1-0.6,2.5-0.9,4.2-0.9
		c1.9,0,3.4,0.4,4.9,1c1.3,0.6,2.2,1.4,2.8,2.4c0.4,1,0.7,2.5,0.7,4.9L50.6,18.8L50.6,18.8z"/>
	<path class="st0" d="M66.4,10.1l4.2,28.4H63l-0.4-5h-2.7l-0.4,5h-7.7l3.7-28.4H66.4L66.4,10.1z M62.4,28.5c-0.4-3.3-0.7-7.2-1.2-12
		c-0.7,5.5-1.3,9.4-1.4,12H62.4z"/>
	<path class="st0" d="M85.4,10.1l-5.5,18.2v10.3h-6.8V28.4l-5.2-18.3h6.8c1.2,5.6,1.6,9.3,1.8,11.2c0.4-3.1,1.2-6.7,2.1-11.2
		C78.6,10.1,85.4,10.1,85.4,10.1z"/>
	<path class="st0" d="M101.6,10.1v5.8h-4.3v22.7h-7.5V15.9h-4.3v-5.8L101.6,10.1L101.6,10.1z"/>
	<path class="st0" d="M110.8,10.1v28.4h-7.5V10.1H110.8z"/>
	<path class="st0" d="M130.2,10.1v28.4h-6.5L120,25.7v12.9h-6.1V10.1h6.1l4,12.9V10.1H130.2z"/>
	<path class="st0" d="M133.1,10.1h5.6c3.4,0,5.9,0.1,7.2,0.5s2.2,0.9,2.9,1.6c0.7,0.7,1.2,1.6,1.3,2.5c0.1,1,0.3,2.8,0.3,5.5v10
		c0,2.5-0.1,4.3-0.4,5c-0.3,0.9-0.7,1.5-1.3,2.1c-0.6,0.5-1.3,0.9-2.2,1s-2.2,0.3-4,0.3h-9.4L133.1,10.1L133.1,10.1z M140.5,15.1
		v18.6c1.2,0,1.6-0.3,1.9-0.7c0.3-0.5,0.4-1.6,0.4-3.4V18.5c0-1.3,0-2.2-0.1-2.5s-0.3-0.6-0.6-0.7C141.9,15.2,141.4,15.1,140.5,15.1
		z"/>
	<path class="st0" d="M165.9,10.1l4.1,28.4h-7.6l-0.4-5h-2.8l-0.4,5h-7.7l3.7-28.4C155.1,10.1,165.9,10.1,165.9,10.1z M161.9,28.5
		c-0.4-3.3-0.7-7.2-1.2-12c-0.7,5.5-1.3,9.5-1.4,12H161.9z"/>
	<path class="st0" d="M194.7,38.5V42h-5.6c-1.3,0-2.2-0.1-2.9-0.4c-0.6-0.1-1-0.5-1.2-1c-0.1-0.4-0.3-1.2-0.3-2.2
		c-1.6-0.1-3.1-0.5-4.3-1.3c-1.2-0.9-2.1-1.9-2.4-3.3c-0.4-1.3-0.6-3.3-0.6-5.8v-8.7c0-1.9,0.1-3.4,0.4-4.3c0.3-0.9,0.7-1.9,1.4-2.9
		s1.6-1.6,2.8-2.1c1.2-0.4,2.4-0.7,3.7-0.7c1.6,0,3.1,0.3,4.3,0.9c1.3,0.6,2.2,1.3,2.9,2.2s1.2,1.8,1.3,2.8s0.3,2.2,0.3,4v9.3
		c0,2.5-0.1,4.2-0.4,5c-0.3,1-0.7,1.6-1.4,2.2c-0.7,0.5-1.6,1-2.8,1.2c0,0.7,0.1,1,0.4,1.2c0.3,0.1,0.7,0.3,1.6,0.3L194.7,38.5
		L194.7,38.5z M187.2,17.4c0-1.3-0.1-2.2-0.3-2.5c-0.1-0.4-0.4-0.6-1-0.6c-0.4,0-0.7,0.1-1,0.4c-0.1,0.4-0.4,1.2-0.4,2.7v13.3
		c0,1.6,0.1,2.8,0.1,3.1c0.1,0.4,0.4,0.6,1,0.6c0.5,0,0.9-0.3,1-0.7s0.3-1.5,0.3-3.3v-13C186.9,17.4,187.2,17.4,187.2,17.4z"/>
	<path class="st0" d="M210.1,10.1l4.2,28.4h-7.6l-0.4-5h-2.7l-0.4,5h-7.6l3.7-28.4C199.5,10.1,210.1,10.1,210.1,10.1z M206.2,28.5
		c-0.4-3.3-0.7-7.2-1.2-12c-0.7,5.5-1.3,9.5-1.4,12H206.2z"/>
	<path class="st0" d="M228.8,10.1v5.8l-5.5,17.2h5.5v5.8h-13.7v-4l5.8-18.6h-5v-5.9L228.8,10.1L228.8,10.1L228.8,10.1z"/>
	<path class="st0" d="M244.4,10.1l4.2,28.4H241l-0.4-5h-2.7l-0.4,5h-7.7l4-28.4C233.6,10.1,244.4,10.1,244.4,10.1z M240.4,28.5
		c-0.4-3.3-0.7-7.2-1.2-12c-0.7,5.5-1.3,9.5-1.4,12H240.4z"/>
	<path class="st0" d="M266.3,10.1v28.4h-6.5L256,25.6v12.9h-6V10.1h6.1l4,12.9V10.1H266.3z"/>
</g>
</svg>
