<?xml version="1.0" encoding="utf-8"?>
<!-- Generator: Adobe Illustrator 25.0.1, SVG Export Plug-In . SVG Version: 6.00 Build 0)  -->
<svg version="1.1" id="Layer_1" xmlns="http://www.w3.org/2000/svg" xmlns:xlink="http://www.w3.org/1999/xlink" x="0px" y="0px"
	 viewBox="0 0 300 52" style="enable-background:new 0 0 300 52;" xml:space="preserve">
<style type="text/css">
	.st0{fill:#FFFFFF;}
</style>
<g>
	<g>
		<path class="st0" d="M20.1,7.9h7.7c2.5,0,4.3,0.2,5.5,0.5c1.3,0.3,2.2,1.2,3,2.2c0.9,1.2,1.2,3,1.2,5.6c0,1.7-0.3,2.9-0.9,3.5
			c-0.5,0.6-1.6,1.2-3.2,1.5c1.7,0.4,3,1.1,3.6,1.9c0.6,1,1,2.4,1,4.3v2.8c0,1.9-0.2,3.5-0.6,4.5s-1.2,1.6-2.1,1.9
			c-1.1,0.3-3.1,0.5-6.1,0.5h-8.9V7.9H20.1z M27.7,12.9v6.5c0.3,0,0.5,0,0.9,0c0.7,0,1.3-0.2,1.5-0.5s0.3-1.5,0.3-3.2
			c0-1-0.1-1.6-0.3-1.9c-0.1-0.3-0.3-0.5-0.6-0.7C29.1,13,28.5,13,27.7,12.9z M27.7,24.3v8.2c1.1-0.1,1.7-0.2,2-0.5s0.4-1.1,0.4-2.2
			V27c0-1.3-0.1-2-0.4-2.4C29.5,24.4,28.9,24.3,27.7,24.3z"/>
		<path class="st0" d="M40.7,7.9h12.8v5.9h-5v5.7h4.8v5.6h-4.8v6.5h5.7v5.9H40.7V7.9z"/>
		<path class="st0" d="M72.7,7.9L67,26.7v10.7h-7.2V26.8L54.3,7.9h7.1c1.1,5.8,1.7,9.6,1.9,11.7c0.4-3.1,1.2-7.1,2.1-11.7
			C65.6,7.9,72.7,7.9,72.7,7.9z"/>
		<path class="st0" d="M91.2,7.9v29.7h-6.7l-4.1-13.5v13.5H74V7.9h6.4l4.3,13.3V7.9H91.2z"/>
		<path class="st0" d="M102,7.9v29.7h-7.7V7.9H102z M100.5,2.2v4.7h-4.7V2.2H100.5z"/>
		<path class="st0" d="M122.2,7.9v29.7h-6.7l-4.1-13.5v13.5H105V7.9h6.4l4.3,13.3V7.9H122.2z"/>
		<path class="st0" d="M133,7.9v23.7h4.7v5.9h-12.3V7.9H133z"/>
		<path class="st0" d="M157.1,15.2c0.1,1.3,0.1,2.9,0.1,4.9v5.1c0,3-0.1,5.1-0.2,6.3c-0.1,1.3-0.5,2.5-1.3,3.4
			c-0.7,1.1-1.7,1.8-3,2.4c-1.3,0.5-2.7,0.9-4.4,0.9c-1.6,0-3-0.3-4.3-0.9c-1.3-0.5-2.2-1.3-3.1-2.4c-0.9-1.1-1.3-2.1-1.4-3.4
			c-0.1-1.3-0.2-3.3-0.2-6.4v-5.5h10.3v-5c0-1-0.1-1.6-0.2-1.9c-0.1-0.3-0.5-0.5-1.3-0.5c-0.9,0-1.4,0.5-1.4,1.7v2.4h-7.4v-1.5
			c0-2.4,0.7-4.2,2.2-5.5s3.5-1.8,6.1-1.8c3.2,0,5.6,0.5,7.1,1.8c0.9,0.7,1.5,1.7,1.9,2.9v0.1c0.1,0.1,0.1,0.3,0.1,0.5l0.1,0.2
			C157,13.8,157.1,14.4,157.1,15.2z M149.2,32.4c0.1-0.4,0.2-1.5,0.2-3.3v-4.9h-2.5v5.1c0,1.7,0.1,2.8,0.2,3.2
			c0.1,0.4,0.5,0.5,1.1,0.5S149.1,32.8,149.2,32.4z"/>
	</g>
	<g>
		<path class="st0" d="M190.2,7.8v29.7h-6.7v-20l-2.7,19.9h-4.7L173.2,18v19.5h-6.7V7.8h10c0.3,1.7,0.5,3.9,0.9,6.3l1.2,7.5
			l1.7-13.8H190.2z"/>
		<path class="st0" d="M210.8,15.1c0.1,1.3,0.1,2.9,0.1,4.9v5.1c0,3-0.1,5.1-0.2,6.3c-0.1,1.2-0.5,2.5-1.3,3.4
			c-0.7,1.1-1.7,1.8-3,2.4s-2.7,0.9-4.4,0.9c-1.6,0-3-0.3-4.3-0.9s-2.2-1.3-3.1-2.4c-0.9-1.1-1.3-2.1-1.4-3.4
			c-0.1-1.3-0.2-3.3-0.2-6.4v-5.5h10.2v-5c0-1-0.1-1.6-0.2-1.9c-0.1-0.3-0.5-0.5-1.3-0.5c-0.9,0-1.4,0.5-1.4,1.7v2.3h-7.2v-1.5
			c0-2.4,0.7-4.2,2.2-5.5s3.5-1.8,6.1-1.8c3.2,0,5.6,0.5,7.1,1.8c0.9,0.7,1.5,1.7,1.9,2.9l0.1,0.1c0.1,0.1,0.1,0.3,0.1,0.5l0.1,0.2
			C210.8,13.8,210.8,14.4,210.8,15.1z M203,32.3c0.1-0.4,0.2-1.5,0.2-3.3v-4.9h-2.5v5.1c0,1.7,0.1,2.8,0.2,3.2
			c0.1,0.3,0.5,0.5,1.1,0.5C202.5,33,202.9,32.8,203,32.3z"/>
		<path class="st0" d="M222.6,38v0.4c0.6,0,1.3,0.2,1.8,0.6c0.5,0.4,0.9,1.1,0.9,1.7c0,1-0.3,1.7-1.1,2.5c-0.7,0.7-1.7,1.1-2.7,1.1
			c-1.9,0-3.1-1-3.6-2.9h2.7c0.1,0.5,0.5,0.9,1,0.9c0.7,0,1.1-0.3,1.1-1.1c0-0.9-0.5-1.3-1.5-1.3h-0.7V38c-1.9-0.3-3.5-0.9-4.6-1.7
			s-1.7-1.9-2-3.1c-0.3-1.2-0.4-2.7-0.4-4.4v-2.1h7.2v3.5c0,1.1,0.1,1.8,0.3,2.1s0.5,0.5,1.1,0.5c1.1,0,1.5-0.9,1.5-2.5
			c0-1.7-0.2-2.9-0.7-3.4s-1.7-1.5-3.5-2.7s-3.2-2.1-3.9-2.8c-0.6-0.5-1.2-1.4-1.5-2.5c-0.4-1.1-0.5-2.4-0.5-3.9
			c0-2.2,0.3-4,0.9-4.9c0.5-1,1.5-1.9,2.8-2.5c1.3-0.5,2.9-0.9,4.7-0.9c1.9,0,3.7,0.3,5.1,1c1.4,0.6,2.4,1.5,2.8,2.5
			c0.4,1,0.6,2.7,0.6,4.9v1.2h-7.3v-2.1c0-1.1-0.1-1.7-0.3-1.9c-0.2-0.3-0.5-0.4-1-0.4c-1,0-1.4,0.7-1.4,2.2c0,1.1,0.1,1.7,0.3,2.2
			c0.3,0.5,1.1,1.1,2.1,1.8c3.4,2,5.6,3.7,6.5,4.9c0.9,1.3,1.3,3.4,1.3,6.3c0,1.9-0.2,3.4-0.6,4.5c-0.4,1-1.3,1.8-2.7,2.6
			C226,37.2,224.5,38,222.6,38z"/>
		<path class="st0" d="M250.8,37.4v3.5h-5.9c-1.4,0-2.5-0.1-3-0.3s-1-0.5-1.2-1s-0.3-1.2-0.3-2.2c-1.7-0.1-3.2-0.5-4.5-1.4
			s-2.1-1.9-2.5-3.3c-0.4-1.4-0.5-3.3-0.5-6v-9.2c0-2,0.1-3.5,0.3-4.6s0.7-2,1.5-3c0.7-1,1.7-1.6,2.9-2.1s2.5-0.7,3.9-0.7
			c1.7,0,3.2,0.3,4.6,0.9c1.3,0.5,2.4,1.3,3,2.2s1.1,1.8,1.3,2.8s0.3,2.5,0.3,4.3v9.6c0,2.7-0.1,4.4-0.3,5.4c-0.3,1-0.7,1.7-1.5,2.2
			c-0.7,0.5-1.7,1-2.9,1.3c0,0.6,0.1,1.1,0.4,1.3c0.2,0.1,0.9,0.3,1.7,0.3C248,37.4,250.8,37.4,250.8,37.4z M243.1,15.4
			c0-1.4-0.1-2.2-0.2-2.7s-0.4-0.5-1-0.5c-0.4,0-0.7,0.1-1,0.4c-0.2,0.3-0.3,1.3-0.3,2.8v13.8c0,1.7,0.1,2.8,0.2,3.2
			c0.1,0.3,0.4,0.5,1,0.5c0.5,0,0.9-0.2,1.1-0.7c0.1-0.5,0.2-1.5,0.2-3.3V15.4z"/>
		<path class="st0" d="M260.2,7.8H273v6h-5.1v5.7h4.8v5.6h-4.8v6.5h5.7v5.9h-13.4V7.8L260.2,7.8z"/>
		<path class="st0" d="M290.9,7.8v6h-4.6v23.7h-7.7V13.8h-4.5V7.9L290.9,7.8L290.9,7.8L290.9,7.8z"/>
		<path class="st0" d="M300.5,7.8l-1.3,22.3h-5.7l-1.2-22.3C292.4,7.8,300.5,7.8,300.5,7.8z M299.9,31.6v5.9h-7v-5.9H299.9z"/>
	</g>
</g>
</svg>
