<?xml version="1.0" encoding="utf-8"?>
<!-- Generator: Adobe Illustrator 25.0.1, SVG Export Plug-In . SVG Version: 6.00 Build 0)  -->
<svg version="1.1" id="Layer_1" xmlns="http://www.w3.org/2000/svg" xmlns:xlink="http://www.w3.org/1999/xlink" x="0px" y="0px"
	 viewBox="0 0 300 55" style="enable-background:new 0 0 300 55;" xml:space="preserve">
<style type="text/css">
	.st0{fill:#FCAF17;}
</style>
<g>
	<path class="st0" d="M35.7,20.2h-8.8v-2.7c0-1.3-0.1-2.1-0.3-2.4c-0.2-0.3-0.6-0.5-1.1-0.5c-0.6,0-1,0.2-1.3,0.7s-0.4,1.2-0.4,2.1
		c0,1.2,0.2,2.1,0.5,2.8c0.3,0.6,1.2,1.4,2.7,2.2c4.2,2.5,6.9,4.6,8,6.2c1.1,1.6,1.6,4.2,1.6,7.8c0,2.6-0.3,4.5-0.9,5.7
		c-0.6,1.2-1.8,2.3-3.5,3.1s-3.8,1.3-6.1,1.3c-2.5,0-4.7-0.5-6.5-1.4c-1.8-1-3-2.2-3.5-3.7c-0.5-1.5-0.8-3.6-0.8-6.3v-2.4h8.8v4.4
		c0,1.4,0.1,2.2,0.4,2.6c0.2,0.4,0.7,0.6,1.3,0.6s1.1-0.2,1.4-0.7s0.5-1.2,0.5-2.2c0-2.1-0.3-3.6-0.9-4.2c-0.6-0.7-2.1-1.8-4.4-3.3
		c-2.4-1.6-3.9-2.7-4.7-3.4s-1.4-1.7-1.9-2.9c-0.5-1.2-0.8-2.8-0.8-4.8c0-2.8,0.4-4.8,1.1-6.1c0.7-1.3,1.9-2.3,3.5-3
		c1.6-0.7,3.5-1.1,5.8-1.1c2.5,0,4.6,0.4,6.3,1.2c1.7,0.8,2.9,1.8,3.4,3c0.6,1.2,0.8,3.3,0.8,6.2v1.2L35.7,20.2L35.7,20.2z"/>
	<path class="st0" d="M61.2,9.2v36.5h-8.3l-5-16.6v16.6H40V9.2h7.9l5.3,16.4V9.2C53.2,9.2,61.2,9.2,61.2,9.2z"/>
	<path class="st0" d="M74.9,9.2v36.5h-9.5V9.2H74.9z"/>
	<path class="st0" d="M101.4,25.1h-9.5v-6.4c0-1.8-0.1-3-0.3-3.5c-0.2-0.5-0.7-0.7-1.3-0.7c-0.8,0-1.3,0.3-1.5,0.8
		c-0.2,0.6-0.3,1.8-0.3,3.6v17c0,1.8,0.1,2.9,0.3,3.5c0.2,0.5,0.7,0.8,1.4,0.8c0.7,0,1.2-0.3,1.4-0.8c0.2-0.5,0.3-1.8,0.3-3.8V31
		h9.5v1.4c0,3.8-0.3,6.5-0.8,8s-1.7,3-3.5,4.2s-4.1,1.8-6.8,1.8c-2.8,0-5.1-0.5-6.9-1.5s-3-2.4-3.6-4.2s-0.9-4.5-0.9-8V22
		c0-2.6,0.1-4.6,0.3-5.9c0.2-1.3,0.7-2.6,1.6-3.8c0.9-1.2,2.1-2.2,3.7-2.9c1.6-0.7,3.4-1,5.5-1c2.8,0,5.1,0.5,6.9,1.6s3,2.4,3.6,4
		c0.6,1.6,0.9,4.1,0.9,7.5C101.4,21.5,101.4,25.1,101.4,25.1z"/>
	<path class="st0" d="M127.9,9.2l-5.4,16.5l6,20h-9.8l-3.8-15.6v15.6h-9.5V9.2h9.5v14.2l4.2-14.2H127.9z"/>
	<path class="st0" d="M130.5,9.2h15.8v7.3H140v6.9h5.9v6.9H140v8h7v7.3h-16.5V9.2z"/>
	<path class="st0" d="M150.1,9.2h6.7c4.5,0,7.5,0.2,9.1,0.5s2.9,1.2,3.9,2.6s1.5,3.7,1.5,6.8c0,2.8-0.4,4.8-1.1,5.7
		s-2.1,1.6-4.2,1.8c1.9,0.5,3.1,1.1,3.8,1.9c0.6,0.8,1,1.5,1.2,2.2s0.2,2.5,0.2,5.4v9.6h-8.8V33.6c0-2-0.2-3.2-0.5-3.6
		s-1.1-0.7-2.4-0.7v16.4H150V9.2H150.1z M159.6,15.4v8.1c1.1,0,1.8-0.1,2.2-0.4c0.4-0.3,0.6-1.2,0.6-2.9v-2c0-1.2-0.2-1.9-0.6-2.3
		S160.7,15.4,159.6,15.4z"/>
	<path class="st0" d="M195.6,20.2h-8.8v-2.7c0-1.3-0.1-2.1-0.3-2.4c-0.2-0.3-0.6-0.5-1.1-0.5c-0.6,0-1,0.2-1.3,0.7s-0.4,1.2-0.4,2.1
		c0,1.2,0.2,2.1,0.5,2.8c0.3,0.6,1.2,1.4,2.7,2.2c4.2,2.5,6.9,4.6,8,6.2c1.1,1.6,1.6,4.2,1.6,7.8c0,2.6-0.3,4.5-0.9,5.7
		c-0.6,1.2-1.8,2.3-3.5,3.1s-3.8,1.3-6.1,1.3c-2.5,0-4.7-0.5-6.5-1.4c-1.8-1-3-2.2-3.5-3.7c-0.6-1.5-0.8-3.6-0.8-6.3v-2.4h8.8v4.4
		c0,1.4,0.1,2.2,0.4,2.6c0.2,0.4,0.7,0.6,1.3,0.6s1.1-0.2,1.4-0.7c0.3-0.5,0.5-1.2,0.5-2.2c0-2.1-0.3-3.6-0.9-4.2
		c-0.6-0.7-2.1-1.8-4.4-3.3c-2.4-1.6-3.9-2.7-4.7-3.4s-1.4-1.7-1.9-2.9s-0.8-2.8-0.8-4.8c0-2.8,0.4-4.8,1.1-6.1
		c0.7-1.3,1.9-2.3,3.5-3s3.5-1.1,5.8-1.1c2.5,0,4.6,0.4,6.3,1.2c1.7,0.8,2.9,1.8,3.4,3c0.6,1.2,0.8,3.3,0.8,6.2v1.2L195.6,20.2
		L195.6,20.2z"/>
	<path class="st0" d="M208.8,15.8l-0.2,2.8c0.7-1.1,1.5-1.9,2.4-2.5c1-0.5,2.1-0.8,3.3-0.8c1.6,0,2.8,0.4,3.8,1.1s1.6,1.7,1.9,2.8
		c0.3,1.1,0.4,3,0.4,5.6v21h-9.1V25.2c0-2.1-0.1-3.3-0.2-3.8c-0.1-0.5-0.5-0.7-1.1-0.7s-1.1,0.3-1.2,0.8c-0.2,0.5-0.2,1.9-0.2,4.2
		v20.1h-9.1V15.8H208.8z"/>
	<path class="st0" d="M233.5,9.2V14h-9.4V9.2H233.5z M233.5,15.8v29.9h-9.4V15.8H233.5z"/>
	<path class="st0" d="M243.3,38.3v7.4h-6.9v-7.4H243.3z"/>
	<path class="st0" d="M265.8,15.8l-3.7,11.9l4.8,18h-8.8l-2.8-13v13h-9.1V9.2h9.1v15.3l2.8-8.7C258.1,15.8,265.8,15.8,265.8,15.8z"
		/>
	<path class="st0" d="M283,15.8v6.6l-6.7,17.3h6.7v6h-15.5v-6.3l6.9-17.7h-6.2v-6L283,15.8L283,15.8L283,15.8z"/>
</g>
</svg>
