<?xml version="1.0" encoding="utf-8"?>
<!-- Generator: Adobe Illustrator 19.2.1, SVG Export Plug-In . SVG Version: 6.00 Build 0)  -->
<svg version="1.1" id="Layer_1" xmlns="http://www.w3.org/2000/svg" xmlns:xlink="http://www.w3.org/1999/xlink" x="0px" y="0px"
	 width="300px" height="126px" viewBox="0 0 300 126" style="enable-background:new 0 0 300 126;" xml:space="preserve">
<style type="text/css">
	.st0{fill:#FFFFFF;}
</style>
<g>
	<g>
		<path class="st0" d="M97.8,10.5l-3.6,31.7H83.8c-1-4.8-1.8-10.4-2.5-16.6c-0.4,2.7-1.1,8.2-2.3,16.6H68.6L65,10.5h8l0.8,11
			l0.8,10.7c0.4-5.6,1.1-12.8,2.3-21.8h8.6c0.1,1,0.4,4.4,0.8,10.4l1,12.1c0.5-7.6,1.2-15.1,2.3-22.5h8.1V10.5z"/>
		<path class="st0" d="M107.7,10.5v31.7h-8.2V10.5H107.7z"/>
		<path class="st0" d="M129.5,10.5v31.7h-7.3L118,27.8v14.4H111V10.5h6.9l4.6,14.3V10.5H129.5z"/>
		<path class="st0" d="M158.8,22.2h-8.4v-2.9c0-1.8-0.1-2.9-0.2-3.4c-0.1-0.5-0.5-0.7-1.1-0.7c-0.5,0-0.8,0.2-1.1,0.6
			c-0.2,0.4-0.2,1.5-0.2,3v15.3c0,1.5,0.1,2.3,0.2,2.8c0.2,0.5,0.6,0.7,1.1,0.7c0.6,0,1-0.2,1.2-0.7c0.2-0.5,0.4-1.5,0.4-3v-3.8H149
			v-4.8h9.7v17.1h-5.2l-0.6-2.4c-0.6,1-1.2,1.7-2.2,2.2c-1,0.5-1.8,0.7-3,0.7c-1.3,0-2.7-0.4-3.9-1c-1.2-0.7-2.2-1.5-2.8-2.5
			c-0.6-1-1-2.1-1.2-3.2c-0.1-1.1-0.2-2.8-0.2-5V22c0-3,0.1-5.2,0.5-6.7c0.4-1.3,1.2-2.7,2.8-3.8c1.6-1.2,3.6-1.7,6.1-1.7
			c2.4,0,4.5,0.5,6.1,1.5s2.7,2.2,3.2,3.5s0.7,3.4,0.7,5.9C158.8,20.8,158.8,22.2,158.8,22.2z"/>
		<path class="st0" d="M161.9,10.5h5.8c3.9,0,6.5,0.1,7.9,0.5c1.3,0.2,2.5,1.1,3.4,2.3c0.8,1.2,1.3,3.2,1.3,5.9c0,2.4-0.4,4.1-1,5
			c-0.6,0.8-1.8,1.3-3.6,1.6c1.6,0.4,2.8,1,3.3,1.6c0.6,0.7,1,1.3,1.1,1.8c0.1,0.5,0.2,2.2,0.2,4.7v8.4h-7.6V31.7
			c0-1.7-0.1-2.8-0.4-3.2c-0.2-0.4-1-0.6-2.1-0.6v14.3h-8.2V10.5H161.9z M170.2,15.9v7c1,0,1.6-0.1,1.9-0.4c0.4-0.2,0.6-1.1,0.6-2.4
			v-1.8c0-1-0.1-1.7-0.5-1.9C171.7,16.1,171.1,15.9,170.2,15.9z"/>
		<path class="st0" d="M183.5,10.5h13.8v6.3h-5.5v6.1h5.2v6.1h-5.2v7h6.1v6.3h-14.3V10.5H183.5z"/>
		<path class="st0" d="M214.5,10.5l4.7,31.7h-8.5l-0.5-5.7h-2.9l-0.5,5.7h-8.5l4.1-31.7H214.5z M210.2,31c-0.4-3.6-0.8-8-1.2-13.3
			c-0.8,6.1-1.3,10.5-1.6,13.3H210.2z"/>
		<path class="st0" d="M235,10.5v6.3h-4.8v25.4h-8.2V16.8h-4.8v-6.3H235z"/>
	</g>
	<g>
		<path class="st0" d="M72.9,49.4h8.4c2.3,0,4,0.1,5.2,0.5c1.2,0.4,2.1,0.8,2.7,1.6c0.6,0.6,1,1.5,1.2,2.4c0.2,1,0.4,2.4,0.4,4.4
			v2.8c0,2.1-0.2,3.5-0.6,4.5c-0.4,1-1.2,1.7-2.3,2.2c-1.1,0.5-2.5,0.7-4.4,0.7h-2.3v12.7h-8.2V49.4z M81.2,54.9V63
			c0.2,0,0.5,0,0.6,0c0.7,0,1.3-0.2,1.6-0.6s0.5-1.1,0.5-2.3v-2.7c0-1.1-0.1-1.8-0.5-2.1C83,55.1,82.3,54.9,81.2,54.9z"/>
		<path class="st0" d="M93.1,49.4h5.8c3.9,0,6.5,0.1,7.9,0.5c1.3,0.2,2.5,1.1,3.4,2.3c0.8,1.2,1.3,3.2,1.3,5.9c0,2.4-0.4,4.1-1,5
			c-0.6,0.8-1.8,1.3-3.6,1.6c1.6,0.4,2.8,1,3.3,1.6c0.6,0.7,1,1.3,1.1,1.8c0.1,0.6,0.2,2.2,0.2,4.7v8.4h-7.6V70.7
			c0-1.7-0.1-2.8-0.4-3.2c-0.2-0.4-1-0.6-2.1-0.6v14.3h-8.2V49.4H93.1z M101.4,54.9v7c1,0,1.6-0.1,1.9-0.4c0.4-0.2,0.6-1.1,0.6-2.4
			v-1.8c0-1-0.1-1.7-0.5-1.9C103,55,102.3,54.9,101.4,54.9z"/>
		<path class="st0" d="M123,49.4v31.7h-8.2V49.4H123z"/>
		<path class="st0" d="M140.1,49.4v6.3l-6.2,19h6.2v6.3h-15.3v-4.6l6.3-20.7h-5.6v-6.3H140.1z"/>
		<path class="st0" d="M142.2,49.4h13.8v6.3h-5.5v6.1h5.2v6.1h-5.2v7h6.1v6.3h-14.3V49.4H142.2z"/>
		<path class="st0" d="M176.4,59.1h-7.6v-2.3c0-1.1-0.1-1.8-0.2-2.1c-0.2-0.2-0.5-0.5-1-0.5c-0.5,0-0.8,0.2-1.1,0.6s-0.4,1-0.4,1.8
			c0,1.1,0.1,1.8,0.5,2.4c0.2,0.5,1.1,1.2,2.3,1.9c3.6,2.2,5.9,4,6.9,5.3c1,1.5,1.5,3.6,1.5,6.8c0,2.3-0.2,3.9-0.8,5
			c-0.6,1.1-1.6,1.9-3,2.7c-1.6,0.7-3.3,1.1-5.3,1.1c-2.2,0-4.1-0.4-5.7-1.2c-1.6-0.8-2.5-1.9-3-3.2c-0.5-1.3-0.7-3.2-0.7-5.5V70
			h7.6v3.9c0,1.2,0.1,1.9,0.4,2.3c0.2,0.4,0.6,0.5,1.1,0.5s1-0.2,1.2-0.6c0.2-0.4,0.4-1.1,0.4-1.9c0-1.8-0.2-3.2-0.7-3.6
			c-0.5-0.6-1.8-1.6-3.9-2.9c-2.1-1.3-3.4-2.3-4.1-2.9c-0.6-0.6-1.2-1.5-1.7-2.5c-0.5-1.1-0.6-2.4-0.6-4.1c0-2.4,0.4-4.2,1-5.3
			c0.6-1.1,1.6-2.1,3-2.7c1.3-1,3-1.2,5-1.2c2.2,0,4,0.4,5.5,1.1c1.5,0.7,2.5,1.6,3,2.7s0.7,2.8,0.7,5.3V59.1z"/>
		<path class="st0" d="M205.6,68.1c0,3.2-0.1,5.5-0.2,6.8c-0.1,1.3-0.6,2.5-1.5,3.6c-0.8,1.1-1.8,1.9-3.2,2.5
			c-1.3,0.6-2.9,0.8-4.7,0.8c-1.7,0-3.3-0.2-4.6-0.8c-1.3-0.6-2.4-1.3-3.3-2.5c-0.8-1.1-1.3-2.3-1.5-3.6c-0.1-1.3-0.2-3.6-0.2-6.9
			v-5.5c0-3.2,0.1-5.5,0.2-6.8s0.6-2.5,1.5-3.6c0.8-1.1,1.8-1.9,3.2-2.5c1.3-0.6,2.9-0.8,4.7-0.8c1.7,0,3.3,0.2,4.6,0.8
			c1.3,0.6,2.4,1.3,3.3,2.5c0.8,1.1,1.3,2.3,1.5,3.6c0.1,1.3,0.2,3.6,0.2,6.9V68.1z M197.4,57.7c0-1.5-0.1-2.4-0.2-2.8
			c-0.1-0.4-0.5-0.6-1-0.6s-0.7,0.1-1,0.5c-0.2,0.4-0.4,1.3-0.4,2.9v14.8c0,1.8,0.1,3,0.2,3.4c0.1,0.4,0.5,0.6,1.1,0.6
			c0.6,0,1-0.2,1.1-0.7c0.1-0.5,0.2-1.7,0.2-3.5V57.7H197.4z"/>
		<path class="st0" d="M227.1,49.4v31.7h-7.3l-4.2-14.4v14.4h-6.9V49.4h6.9l4.6,14.3V49.4H227.1z"/>
	</g>
</g>
</svg>
