<?xml version="1.0" encoding="utf-8"?>
<!-- Generator: Adobe Illustrator 19.2.1, SVG Export Plug-In . SVG Version: 6.00 Build 0)  -->
<svg version="1.1" id="Layer_1" xmlns="http://www.w3.org/2000/svg" xmlns:xlink="http://www.w3.org/1999/xlink" x="0px" y="0px"
	 width="300px" height="128px" viewBox="0 0 300 128" style="enable-background:new 0 0 300 128;" xml:space="preserve">
<style type="text/css">
	.st0{fill:#FFFFFF;}
</style>
<g>
	<path class="st0" d="M45.7,21.3v31.8h-7.2l0-21.5l-2.9,21.5h-5.1l-3-21l0,21h-7.2V21.3h10.7c0.3,1.9,0.6,4.2,1,6.8l1.2,8.1
		l1.9-14.8H45.7z"/>
	<path class="st0" d="M57.3,21.3v31.8H49V21.3H57.3z"/>
	<path class="st0" d="M78.2,21.3l-6,20.3v11.5h-7.7V41.6l-5.8-20.3h7.6c1.2,6.2,1.9,10.4,2,12.5c0.5-3.4,1.2-7.6,2.3-12.5H78.2z"/>
	<path class="st0" d="M91.9,21.3l4.7,31.8h-8.5l-0.4-5.7h-3l-0.5,5.7h-8.5l4.2-31.8H91.9z M87.5,41.7c-0.4-3.6-0.8-8.1-1.3-13.4
		c-0.8,6.1-1.4,10.5-1.6,13.4H87.5z"/>
	<path class="st0" d="M116.5,21.3v31.8h-7.2l-4.3-14.5v14.5H98V21.3h6.9l4.6,14.3V21.3H116.5z"/>
	<path class="st0" d="M138.8,33h-8.3v-2.9c0-1.8-0.1-3-0.2-3.4c-0.2-0.5-0.5-0.7-1.1-0.7c-0.5,0-0.9,0.2-1,0.6
		c-0.2,0.4-0.3,1.4-0.3,3v15.3c0,1.4,0.1,2.4,0.3,2.8c0.2,0.5,0.6,0.7,1.1,0.7c0.6,0,1-0.3,1.2-0.8c0.2-0.5,0.3-1.5,0.3-3v-3.8h-1.7
		V36h9.7v17.1h-5.2l-0.8-2.3c-0.6,1-1.3,1.7-2.1,2.2c-0.9,0.5-1.9,0.7-3,0.7c-1.4,0-2.7-0.3-3.9-1c-1.2-0.7-2.1-1.5-2.8-2.5
		c-0.6-1-1-2-1.2-3.1c-0.2-1.1-0.2-2.7-0.2-4.9v-9.4c0-3,0.2-5.2,0.5-6.6c0.3-1.4,1.3-2.6,2.8-3.8c1.6-1.1,3.6-1.7,6-1.7
		c2.4,0,4.4,0.5,6,1.5c1.6,1,2.6,2.2,3.1,3.5c0.5,1.4,0.7,3.4,0.7,6V33z"/>
	<path class="st0" d="M160.4,21.3v31.8h-7.2l-4.3-14.5v14.5H142V21.3h6.9l4.6,14.3V21.3H160.4z"/>
	<path class="st0" d="M172,21.3v31.8h-8.3V21.3H172z"/>
	<path class="st0" d="M189.2,21.3v6.4L183,46.7h6.2v6.4h-15.2v-4.6l6.4-20.8h-5.6v-6.4H189.2z"/>
	<path class="st0" d="M209.8,21.3v31.8h-7.2l-4.3-14.5v14.5h-6.9V21.3h6.9l4.6,14.3V21.3H209.8z"/>
	<path class="st0" d="M221.4,21.3v31.8h-8.3V21.3H221.4z"/>
	<path class="st0" d="M39.5,83.4h-8.3v-5.5c0-1.6-0.1-2.6-0.3-3s-0.6-0.6-1.2-0.6c-0.7,0-1.1,0.2-1.3,0.7c-0.2,0.5-0.3,1.5-0.3,3.1
		v14.8c0,1.5,0.1,2.6,0.3,3c0.2,0.5,0.6,0.7,1.2,0.7c0.6,0,1-0.2,1.2-0.7c0.2-0.5,0.3-1.6,0.3-3.3v-4h8.3v1.2c0,3.3-0.2,5.6-0.7,7
		c-0.5,1.4-1.5,2.6-3.1,3.6c-1.6,1-3.6,1.6-5.9,1.6c-2.4,0-4.4-0.4-6-1.3s-2.6-2.1-3.1-3.6s-0.8-3.9-0.8-7v-9.3c0-2.3,0.1-4,0.2-5.2
		c0.2-1.1,0.6-2.2,1.4-3.3c0.8-1.1,1.9-1.9,3.2-2.5c1.4-0.6,3-0.9,4.8-0.9c2.4,0,4.4,0.5,6,1.4s2.6,2.1,3.1,3.5
		c0.5,1.4,0.7,3.6,0.7,6.6V83.4z"/>
	<path class="st0" d="M61.4,69.6v31.8h-8.3V88h-2.5v13.4h-8.3V69.6h8.3v11.4h2.5V69.6H61.4z"/>
	<path class="st0" d="M79,69.6l4.7,31.8h-8.5l-0.4-5.7h-3l-0.5,5.7h-8.5l4.2-31.8H79z M74.7,90c-0.4-3.6-0.8-8.1-1.3-13.4
		C72.6,82.7,72,87.2,71.8,90H74.7z"/>
	<path class="st0" d="M85.2,69.6H91c3.9,0,6.5,0.2,7.9,0.5c1.4,0.3,2.5,1.1,3.4,2.3c0.9,1.2,1.3,3.2,1.3,5.9c0,2.5-0.3,4.1-0.9,5
		c-0.6,0.9-1.8,1.4-3.6,1.5c1.6,0.4,2.7,0.9,3.3,1.6c0.6,0.7,0.9,1.3,1.1,1.9c0.1,0.6,0.2,2.1,0.2,4.7v8.4H96V90.8
		c0-1.7-0.1-2.8-0.4-3.2c-0.3-0.4-1-0.6-2.1-0.6v14.3h-8.3V69.6z M93.5,75v7.1c0.9,0,1.6-0.1,2-0.4c0.4-0.3,0.6-1.1,0.6-2.5v-1.7
		c0-1-0.2-1.7-0.5-2C95.1,75.2,94.4,75,93.5,75z"/>
	<path class="st0" d="M123.6,69.6l-2.9,14.1l4.4,17.7h-7.7c-0.9-3.2-1.8-7-2.5-11.6c-0.2,2-0.5,4.2-0.9,6.4l-0.8,5.2h-8.1l3-17.7
		l-3-14.1h8c0.1,0.9,0.4,2.3,0.9,4.4c0.3,1.6,0.6,3,0.8,4.3l1.8-8.7H123.6z"/>
	<path class="st0" d="M134.5,69.6V95h5v6.4h-13.3V69.6H134.5z"/>
	<path class="st0" d="M156.8,69.6l4.7,31.8h-8.5l-0.4-5.7h-3l-0.5,5.7h-8.5l4.2-31.8H156.8z M152.5,90c-0.4-3.6-0.8-8.1-1.3-13.4
		c-0.8,6.1-1.4,10.5-1.6,13.4H152.5z"/>
	<path class="st0" d="M181.4,69.6v31.8h-7.2l-4.3-14.5v14.5H163V69.6h6.9l4.6,14.3V69.6H181.4z"/>
	<path class="st0" d="M203.7,81.3h-8.3v-2.9c0-1.8-0.1-3-0.2-3.4c-0.2-0.5-0.5-0.7-1.1-0.7c-0.5,0-0.9,0.2-1,0.6s-0.3,1.4-0.3,3
		v15.3c0,1.4,0.1,2.4,0.3,2.8s0.5,0.7,1.1,0.7c0.6,0,1-0.3,1.2-0.8c0.2-0.5,0.3-1.5,0.3-3v-3.8h-1.7v-4.8h9.7v17.1h-5.2l-0.8-2.3
		c-0.6,1-1.3,1.7-2.1,2.2c-0.9,0.5-1.9,0.7-3,0.7c-1.4,0-2.7-0.3-3.9-1c-1.2-0.7-2.1-1.5-2.8-2.5s-1-2-1.2-3.1
		c-0.2-1.1-0.2-2.7-0.2-4.9V81c0-3,0.2-5.2,0.5-6.6c0.3-1.4,1.3-2.6,2.8-3.8c1.6-1.1,3.6-1.7,6-1.7c2.4,0,4.4,0.5,6,1.5
		s2.6,2.2,3.1,3.5c0.5,1.4,0.7,3.4,0.7,6V81.3z"/>
	<path class="st0" d="M215.4,69.6l-1.3,23.9H208l-1.3-23.9H215.4z M214.8,95v6.4h-7.4V95H214.8z"/>
</g>
</svg>
