<?xml version="1.0" encoding="utf-8"?>
<!-- Generator: Adobe Illustrator 19.2.1, SVG Export Plug-In . SVG Version: 6.00 Build 0)  -->
<svg version="1.1" id="Layer_1" xmlns="http://www.w3.org/2000/svg" xmlns:xlink="http://www.w3.org/1999/xlink" x="0px" y="0px"
	 width="189px" height="35.7px" viewBox="0 0 189 35.7" style="enable-background:new 0 0 189 35.7;" xml:space="preserve">
<style type="text/css">
	.st0{fill:#FFFFFF;}
</style>
<g>
	<path class="st0" d="M25.3,27.1h-4.5V13.2h-1.3v13.9H15V9.7h10.4L25.3,27.1L25.3,27.1z"/>
	<path class="st0" d="M27.1,9.7h4.6c1.2,0,2.2,0.1,2.8,0.3c0.7,0.2,1.2,0.5,1.5,0.8c0.3,0.4,0.6,0.8,0.7,1.3
		c0.1,0.5,0.2,1.3,0.2,2.4V16c0,1.1-0.1,1.9-0.3,2.4s-0.7,0.9-1.3,1.2c-0.6,0.3-1.4,0.4-2.4,0.4h-1.2v7h-4.5V9.7H27.1z M31.6,12.7
		v4.4c0.1,0,0.2,0,0.3,0c0.4,0,0.7-0.1,0.9-0.3c0.2-0.2,0.2-0.6,0.2-1.3v-1.4c0-0.6-0.1-1-0.3-1.2C32.6,12.8,32.2,12.7,31.6,12.7z"
		/>
	<path class="st0" d="M48.5,19.9c0,1.8,0,3-0.1,3.7s-0.3,1.4-0.8,2c-0.4,0.6-1,1.1-1.8,1.4c-0.7,0.3-1.6,0.5-2.6,0.5
		c-0.9,0-1.8-0.2-2.5-0.5s-1.3-0.8-1.8-1.4s-0.7-1.3-0.8-2s-0.1-2-0.1-3.8v-3c0-1.8,0-3,0.1-3.7s0.3-1.4,0.8-2
		c0.4-0.6,1-1.1,1.8-1.4c0.7-0.3,1.6-0.5,2.6-0.5c0.9,0,1.8,0.2,2.5,0.5s1.3,0.8,1.8,1.4s0.7,1.3,0.8,2s0.1,2,0.1,3.8V19.9z
		 M43.9,14.2c0-0.8,0-1.3-0.1-1.6c-0.1-0.2-0.3-0.3-0.6-0.3c-0.2,0-0.4,0.1-0.5,0.3c-0.1,0.2-0.2,0.7-0.2,1.6v8.1c0,1,0,1.6,0.1,1.9
		c0.1,0.2,0.3,0.4,0.6,0.4s0.5-0.1,0.6-0.4s0.1-0.9,0.1-1.9L43.9,14.2L43.9,14.2z"/>
	<path class="st0" d="M50.2,9.7h4.5v7.4c0.9,0,1.3-0.5,1.3-1.4l0.1-3.4c0-1.3,0.3-2.1,0.7-2.5H61c-0.4,0.4-0.6,1.3-0.6,2.6v3
		c0,1.8-1,2.8-3.1,3.1c2.1,0.3,3.1,1.3,3.1,3.1v2.8c0,1.3,0.2,2.3,0.6,2.8h-4.2c-0.5-0.4-0.7-1.3-0.7-2.5v-3.4c0-0.4-0.1-0.8-0.4-1
		c-0.3-0.3-0.6-0.4-1-0.4v7.4h-4.5L50.2,9.7L50.2,9.7z"/>
	<path class="st0" d="M69.8,9.7l2.6,17.4h-4.6L67.6,24H66l-0.3,3.1H61l2.3-17.4H69.8z M67.4,20.9c-0.2-2-0.5-4.4-0.7-7.3
		c-0.5,3.3-0.8,5.8-0.9,7.3C65.8,20.9,67.4,20.9,67.4,20.9z"/>
	<path class="st0" d="M79.4,20.4c-0.4,0.4-0.8,0.7-1.4,0.9c-0.6,0.2-1.2,0.4-1.8,0.4c-1.1,0-1.9-0.3-2.4-0.9s-0.7-1.5-0.7-2.8V9.7
		h4.5v7.8c0,0.7,0.1,1.1,0.2,1.4c0.1,0.3,0.3,0.4,0.6,0.4c0.7,0,1-0.6,1-1.7V9.7h4.5v17.4h-4.5L79.4,20.4L79.4,20.4z"/>
	<path class="st0" d="M93.5,9.7l2.6,17.4h-4.6L91.3,24h-1.6l-0.3,3.1h-4.7L87,9.7H93.5z M91.1,20.9c-0.2-2-0.5-4.4-0.7-7.3
		c-0.5,3.3-0.8,5.8-0.9,7.3C89.5,20.9,91.1,20.9,91.1,20.9z"/>
	<path class="st0" d="M107,27.1h-3.8v-7.9l-2.4,7.9h-4V9.7h3.8v7.9l2.5-7.9h3.8L107,27.1L107,27.1z M103.2,5.9h1.8
		c0,1-0.3,1.8-0.9,2.4c-0.5,0.6-1.3,0.9-2.2,0.9s-1.7-0.3-2.2-0.9s-0.8-1.4-0.8-2.4h1.8c0.1,1,0.5,1.5,1.2,1.5
		C102.7,7.4,103.1,6.9,103.2,5.9z"/>
	<path class="st0" d="M126.7,9.7v17.4h-4V15.3l-1.6,11.8h-2.8l-1.7-11.5v11.5h-4V9.7h5.9c0.2,1,0.4,2.3,0.5,3.7l0.6,4.4l1-8.1H126.7
		z"/>
	<path class="st0" d="M138.9,19.9c0,1.8,0,3-0.1,3.7s-0.3,1.4-0.8,2c-0.4,0.6-1,1.1-1.8,1.4c-0.7,0.3-1.6,0.5-2.6,0.5
		c-0.9,0-1.8-0.2-2.5-0.5s-1.3-0.8-1.8-1.4s-0.7-1.3-0.8-2s-0.1-2-0.1-3.8v-3c0-1.8,0-3,0.1-3.7s0.3-1.4,0.8-2
		c0.4-0.6,1-1.1,1.8-1.4c0.7-0.3,1.6-0.5,2.6-0.5c0.9,0,1.8,0.2,2.5,0.5s1.3,0.8,1.8,1.4s0.7,1.3,0.8,2s0.1,2,0.1,3.8V19.9z
		 M134.3,14.2c0-0.8,0-1.3-0.1-1.6c-0.1-0.2-0.3-0.3-0.6-0.3c-0.2,0-0.4,0.1-0.5,0.3c-0.1,0.2-0.2,0.7-0.2,1.6v8.1
		c0,1,0,1.6,0.1,1.9c0.1,0.2,0.3,0.4,0.6,0.4s0.5-0.1,0.6-0.4s0.1-0.9,0.1-1.9L134.3,14.2L134.3,14.2z"/>
	<path class="st0" d="M148.6,17.2c0.7,0.2,1.2,0.6,1.5,1.1s0.5,1.7,0.5,3.6c0,1.4-0.2,2.5-0.5,3.2c-0.3,0.8-0.9,1.3-1.6,1.7
		c-0.8,0.4-1.8,0.6-3,0.6c-1.4,0-2.5-0.2-3.2-0.7c-0.8-0.5-1.3-1-1.5-1.7s-0.4-1.8-0.4-3.5v-1.4h4.3v2.8c0,0.8,0,1.2,0.1,1.4
		c0.1,0.2,0.3,0.3,0.6,0.3c0.3,0,0.6-0.1,0.7-0.4s0.2-0.9,0.2-2V21c0-0.7-0.1-1.2-0.2-1.5c-0.2-0.3-0.4-0.5-0.7-0.6
		c-0.3-0.1-0.9-0.2-1.7-0.2v-2.5c1,0,1.7,0,1.9-0.1s0.4-0.3,0.5-0.5s0.2-0.7,0.2-1.2v-1c0-0.6-0.1-1-0.2-1.2s-0.3-0.3-0.6-0.3
		c-0.3,0-0.5,0.1-0.6,0.3c-0.1,0.2-0.2,0.6-0.2,1.3v1.4h-4.3v-1.5c0-1.7,0.4-2.8,1.1-3.4c0.8-0.6,2-0.9,3.6-0.9
		c2.1,0,3.5,0.4,4.2,1.2s1.1,1.9,1.1,3.4c0,1-0.1,1.7-0.4,2.1C149.7,16.5,149.2,16.9,148.6,17.2z"/>
	<path class="st0" d="M160.1,13.2h-3.3v13.9h-4.5V9.7h7.9v3.5H160.1z"/>
	<path class="st0" d="M171.4,27.1h-3.8v-7.9l-2.4,7.9h-4V9.7h3.8v7.9l2.5-7.9h3.8v17.4H171.4z"/>
	<path class="st0" d="M177.9,9.7l-0.7,13.1h-3.4l-0.7-13.1H177.9z M177.5,23.6v3.5h-4.1v-3.5H177.5z"/>
</g>
</svg>
