<?xml version="1.0" encoding="utf-8"?>
<!-- Generator: Adobe Illustrator 19.2.1, SVG Export Plug-In . SVG Version: 6.00 Build 0)  -->
<svg version="1.1" id="Layer_1" xmlns="http://www.w3.org/2000/svg" xmlns:xlink="http://www.w3.org/1999/xlink" x="0px" y="0px"
	 width="131.5px" height="31px" viewBox="0 0 131.5 31" style="enable-background:new 0 0 131.5 31;" xml:space="preserve">
<style type="text/css">
	.st0{fill:#FCAF17;}
</style>
<g>
	<path class="st0" d="M21.8,14h-4.5v-3c0-0.9,0-1.4-0.1-1.6s-0.3-0.3-0.6-0.3c-0.4,0-0.6,0.1-0.7,0.4c-0.1,0.3-0.2,0.8-0.2,1.7v8.1
		c0,0.8,0.1,1.4,0.2,1.7c0.1,0.3,0.3,0.4,0.7,0.4c0.3,0,0.6-0.1,0.7-0.4s0.2-0.9,0.2-1.8V17H22v0.7c0,1.8-0.1,3.1-0.4,3.8
		c-0.3,0.8-0.8,1.4-1.7,2c-0.9,0.6-1.9,0.9-3.2,0.9s-2.4-0.2-3.3-0.7c-0.9-0.5-1.4-1.1-1.7-2c-0.3-0.8-0.4-2.1-0.4-3.8v-5.1
		c0-1.3,0-2.2,0.1-2.8c0.1-0.6,0.3-1.2,0.8-1.8c0.4-0.6,1-1,1.8-1.4c0.8-0.3,1.6-0.5,2.6-0.5c1.3,0,2.4,0.3,3.3,0.8
		c0.9,0.5,1.4,1.2,1.7,1.9c0.3,0.8,0.4,2,0.4,3.6V14H21.8z"/>
	<path class="st0" d="M33.9,6.4v17.4h-4.5v-7.3H28v7.3h-4.5V6.4H28v6.2h1.4V6.4C29.4,6.4,33.9,6.4,33.9,6.4z"/>
	<path class="st0" d="M45.8,23.8H42v-7.9l-2.4,7.9h-4V6.4h3.8v7.9l2.5-7.9h3.8v17.4H45.8z"/>
	<path class="st0" d="M47.6,6.4h4.5v7.4c0.9,0,1.3-0.5,1.3-1.4L53.5,9c0-1.3,0.3-2.1,0.7-2.5h4.2c-0.4,0.4-0.6,1.3-0.6,2.6v3
		c0,1.8-1,2.8-3.1,3.1c2.1,0.3,3.1,1.3,3.1,3.1v2.8c0,1.3,0.2,2.3,0.6,2.8h-4.2c-0.5-0.4-0.7-1.3-0.7-2.5V18c0-0.4-0.1-0.8-0.4-1
		c-0.3-0.3-0.6-0.4-1-0.4V24h-4.5C47.6,24,47.6,6.4,47.6,6.4z"/>
	<path class="st0" d="M59.4,6.4H67v3.5h-3v3.3h2.8v3.3H64v3.8h3.3v3.5h-7.9V6.4z"/>
	<path class="st0" d="M68.6,6.4h4.6c1.2,0,2.2,0.1,2.8,0.3c0.7,0.2,1.2,0.5,1.5,0.8c0.3,0.4,0.6,0.8,0.7,1.3s0.2,1.3,0.2,2.4v1.5
		c0,1.1-0.1,1.9-0.3,2.4c-0.2,0.5-0.7,0.9-1.3,1.2c-0.6,0.3-1.4,0.4-2.4,0.4h-1.2v7h-4.5L68.6,6.4L68.6,6.4z M73.1,9.4v4.4
		c0.1,0,0.2,0,0.3,0c0.4,0,0.7-0.1,0.9-0.3c0.2-0.2,0.2-0.6,0.2-1.3v-1.4c0-0.6-0.1-1-0.3-1.2C74.1,9.5,73.7,9.4,73.1,9.4z"/>
	<path class="st0" d="M90.2,14h-4.5v-3c0-0.9,0-1.4-0.1-1.6S85.3,9.1,85,9.1c-0.4,0-0.6,0.1-0.7,0.4s-0.2,0.8-0.2,1.7v8.1
		c0,0.8,0.1,1.4,0.2,1.7c0.1,0.3,0.3,0.4,0.7,0.4c0.3,0,0.6-0.1,0.7-0.4s0.2-0.9,0.2-1.8V17h4.5v0.7c0,1.8-0.1,3.1-0.4,3.8
		c-0.3,0.8-0.8,1.4-1.7,2c-0.9,0.6-1.9,0.9-3.2,0.9c-1.3,0-2.4-0.2-3.3-0.7s-1.4-1.1-1.7-2c-0.3-0.8-0.4-2.1-0.4-3.8v-5.1
		c0-1.3,0-2.2,0.1-2.8c0.1-0.6,0.3-1.2,0.8-1.8c0.4-0.6,1-1,1.8-1.4C83.2,6.5,84,6.3,85,6.3c1.3,0,2.4,0.3,3.3,0.8
		C89.2,7.6,89.7,8.3,90,9c0.3,0.8,0.4,2,0.4,3.6V14H90.2z"/>
	<path class="st0" d="M102.3,6.4v17.4h-4.5v-7.3h-1.4v7.3h-4.5V6.4h4.5v6.2h1.4V6.4C97.8,6.4,102.3,6.4,102.3,6.4z"/>
	<path class="st0" d="M114.2,23.8h-3.8v-7.9l-2.4,7.9h-4V6.4h3.8v7.9l2.5-7.9h3.8L114.2,23.8L114.2,23.8z"/>
	<path class="st0" d="M120.6,6.4l-0.7,13.1h-3.4l-0.7-13.1H120.6z M120.3,20.3v3.5h-4.1v-3.5H120.3z"/>
</g>
</svg>
