<?xml version="1.0" encoding="utf-8"?>
<!-- Generator: Adobe Illustrator 19.2.1, SVG Export Plug-In . SVG Version: 6.00 Build 0)  -->
<svg version="1.1" id="Layer_1" xmlns="http://www.w3.org/2000/svg" xmlns:xlink="http://www.w3.org/1999/xlink" x="0px" y="0px"
	 width="172px" height="52px" viewBox="0 0 172 52" style="enable-background:new 0 0 172 52;" xml:space="preserve">
<style type="text/css">
	.st0{fill:#FF0004;}
	.st1{fill:#FFFFFF;}
	.st2{fill:#200090;}
</style>
<g>
	<g>
		<g>
			<path class="st0" d="M24.8,5.5c-8.7,0-12.2,5.9-13.5,9.5L0,46.4h147.2c8.7,0,12.3-6,13.5-9.5L172,5.5H24.8z"/>
			<g>
				<path class="st1" d="M24.8,9.2c-4.1,0-8.1,1.8-10,7L5.3,42.7h141.9c4.1,0,8.1-1.8,10-7l9.5-26.4H24.8V9.2z"/>
			</g>
			<g>
				<path class="st0" d="M159,42.7c-1.1,0-1.9,0.8-1.9,1.9c0,1.1,0.8,1.9,1.9,1.9c1.1,0,1.9-0.8,1.9-1.9S160.1,42.7,159,42.7z
					 M159,46.1c-0.9,0-1.5-0.7-1.5-1.5c0-0.9,0.7-1.5,1.5-1.5c0.9,0,1.5,0.7,1.5,1.5C160.5,45.5,159.8,46.1,159,46.1z"/>
				<path class="st0" d="M158.2,43.6h0.8c0.2,0,0.4,0.1,0.5,0.2c0.1,0.1,0.2,0.3,0.2,0.4l0,0c0,0.3-0.2,0.5-0.5,0.6l0.5,0.8h-0.4
					l-0.5-0.7l0,0h-0.4v0.7h-0.3L158.2,43.6L158.2,43.6z M159,44.6c0.2,0,0.4-0.1,0.4-0.3l0,0c0-0.2-0.1-0.3-0.4-0.3h-0.5v0.7h0.5
					V44.6z"/>
			</g>
		</g>
	</g>
	<g>
		<path class="st2" d="M31.3,20.5c-0.1-0.2-0.4-0.4-0.9-0.4H28c-0.6,0-1.3,0.2-1.7,1.2l-4.5,12.2c-0.7,2-1.2,2.5-2.9,2.5h-1.3
			c-0.8,0-1.1-0.1-1.2-0.3c-0.2-0.3,0.2-1.6,0.4-2.2l7.4-20.2c0.2-0.4,0.1-0.8-0.1-1.1c-0.1-0.2-0.4-0.4-0.9-0.4h-2.4
			c-0.6,0-1.3,0.2-1.7,1.2l-7.4,20.3c-1.1,2.9-1.2,4.6-0.4,5.6c0.8,1.2,2.7,1.3,4.6,1.3h2.3c4.5,0,6.7-1,8.8-6.8l4.4-11.9
			C31.5,21.2,31.5,20.8,31.3,20.5z"/>
		<path class="st2" d="M47.1,21.1c-0.7-0.9-2-1.4-4.5-1.4h-1.3c-0.6,0-1.4,0-2.3,0.3l0.5-1.4c0.7-2,1.1-2.5,2.3-2.5h6.3
			c0.7,0,1.4-0.5,1.7-1.2l0.5-1.4c0.2-0.5,0.2-0.8,0-1.1s-0.5-0.4-1-0.4H43c-4.6,0-6.6,1.4-8.2,5.7l-5.9,16.2
			c-0.8,2.3-1.2,4-0.4,5.2c0.7,1,2.1,1.4,4.7,1.4h2c5,0,6.8-1.3,8.7-6.4l2.8-7.8C47.4,24.1,48,22.3,47.1,21.1z M41.7,25.8l-2.9,7.8
			c-0.9,2.4-1.4,2.5-3.2,2.5H35c-0.8,0-1.3-0.1-1.5-0.3c-0.2-0.3,0.2-1.4,0.4-1.9l2.8-7.7c0.6-1.7,0.8-2.3,2.9-2.3h1.1
			c0.7,0,1.2,0.1,1.3,0.3C42.1,24.4,42,25,41.7,25.8z"/>
		<path class="st2" d="M67,13.1c-0.7-1-2.1-1.5-4.3-1.5h-2.6c-5.1,0-7,2.3-8.5,6.4l-7.5,20.6C44,39,44,39.4,44.2,39.7
			c0.1,0.2,0.4,0.4,0.9,0.4h2.3c0.6,0,1.3-0.2,1.7-1.2l7.4-20.3c0.8-2.3,1.3-2.7,3-2.7h1.2c0.9,0,1.2,0.2,1.3,0.3
			c0.2,0.3-0.1,1.2-0.3,1.9l-7.5,20.6c-0.2,0.4-0.1,0.8,0.1,1.1c0.1,0.2,0.4,0.4,0.9,0.4h2.3c0.6,0,1.3-0.2,1.7-1.2l7.4-20.3
			C67.5,16.1,67.9,14.4,67,13.1z"/>
		<path class="st2" d="M81.4,22.6c-0.2-0.3-0.4-0.6-0.7-0.8c1.3-0.9,2.9-2.3,3.5-4.2l1.6-4.2c0.1-0.2,0.3-0.7,0-1.1
			c-0.2-0.3-0.5-0.4-1-0.4h-2.5c-0.7,0-1.4,0.5-1.7,1.2l-1.5,4.1c-0.8,2.1-1.1,2.5-3.3,2.5h-1.7c-0.7,0-1.4,0.5-1.7,1.2l-0.6,1.7
			c-0.2,0.5-0.2,0.8,0,1.1c0.2,0.3,0.5,0.4,1,0.4h1.8c0.4,0,1.6,0,1.7,0.2s-0.2,1.1-0.4,1.5l-2.8,7.6c-0.9,2.4-1.5,2.5-3.4,2.5h-1
			c-0.8,0-1.3-0.1-1.4-0.3c-0.2-0.4,0.2-1.6,0.4-2.2l1.4-3.8c0.1-0.2,0.3-0.7,0-1.1c-0.2-0.3-0.5-0.4-1-0.4h-2.4
			c-0.7,0-1.4,0.5-1.7,1.2l-1.5,4c-1.1,2.9-1.2,4.5-0.5,5.5s2.1,1.4,4.7,1.4h2.5c5.1,0,7-1.4,9-6.7l3.1-8.4
			C81.8,24.4,81.8,23.4,81.4,22.6z"/>
		<path class="st2" d="M102.1,13.1c-0.7-1-2.3-1.5-5.4-1.5h-1.4c-4.4,0-7,1-9,6.6L86,19.1c-0.2,0.4-0.1,0.8,0.1,1.1
			c0.1,0.2,0.4,0.4,0.9,0.4h2.3c0.6,0,1.3-0.2,1.7-1.2l0.4-1.1c0.7-1.7,1.4-2.3,2.8-2.3h1.1c0.9,0,1.5,0.1,1.6,0.3
			c0.2,0.3-0.2,1.3-0.3,1.6l-5.7,15.5c-0.7,2-1.3,2.5-2.6,2.5H86c-0.8,0-1-0.1-1.1-0.2c-0.2-0.3,0.3-1.7,0.5-2.2l1.4-3.8
			c0.1-0.2,0.3-0.7,0-1.1c-0.2-0.3-0.5-0.4-1-0.4h-2.4c-0.7,0-1.4,0.5-1.7,1.2l-1.4,4c-1.1,3-1.2,4.6-0.5,5.6c0.8,1.1,2.4,1.3,5,1.3
			h2.6c3.7,0,6.5-1.1,8.4-6.3l5.8-16C102.5,16,102.9,14.3,102.1,13.1z"/>
		<path class="st2" d="M122.6,21.1c-1-1.4-3.1-1.4-4.9-1.4c-1.3,0-3,0.5-4.2,1.6c-0.4-1.1-1.5-1.6-3.2-1.6c-0.7,0-1.5,0.2-2.1,0.5
			l0.3-0.9c0.8-2.1,2.1-3.1,4.1-3.1h10c0.7,0,1.4-0.5,1.7-1.2l0.6-1.5c0.2-0.5,0.2-0.8,0-1.1s-0.5-0.4-1-0.4h-10.2
			c-4.8,0-8.3,2.4-9.8,6.8l-7.3,19.9c-0.2,0.4-0.1,0.8,0.1,1.1c0.1,0.2,0.4,0.4,0.9,0.4h2.3c0.6,0,1.3-0.2,1.7-1.2l4.6-12.6
			c0.7-2,1.5-2.2,2.7-2.2c0.4,0,0.6,0.1,0.7,0.2c0.1,0.2,0.1,0.6-0.4,2.1l-2.3,6.4c-0.2,0.4-0.1,0.8,0.1,1.1
			c0.1,0.2,0.4,0.4,0.9,0.4h2.5c0.6,0,1.3-0.2,1.7-1.2l2.4-6.5c0.7-1.9,1.2-2.5,2.3-2.5c0.4,0,1.1,0,1.2,0.2s0.1,0.7-0.5,2.3
			l-4.3,11.6l-0.1,0.4c-0.2,0.4-0.1,0.8,0.1,1.1c0.1,0.2,0.4,0.4,0.9,0.4h2.4c0.6,0,1.3-0.2,1.7-1.2l4.6-12.5
			C123.3,23.8,123.4,22.2,122.6,21.1z"/>
		<path class="st2" d="M141.3,20.5c-0.1-0.2-0.4-0.4-0.9-0.4H138c-0.6,0-1.3,0.2-1.7,1.2l-4.5,12.2c-0.7,2-1.2,2.5-2.9,2.5h-1.3
			c-0.8,0-1.1-0.1-1.2-0.3c-0.2-0.3,0.2-1.6,0.4-2.2l7.4-20.2c0.2-0.4,0.1-0.8-0.1-1.1c-0.1-0.2-0.4-0.4-0.9-0.4h-2.4
			c-0.6,0-1.3,0.2-1.7,1.2l-7.4,20.3c-1.1,2.9-1.2,4.6-0.4,5.6c0.8,1.2,2.7,1.3,4.6,1.3h2.3c4.5,0,6.7-1,8.8-6.8l4.4-11.9
			C141.5,21.2,141.5,20.8,141.3,20.5z"/>
		<path class="st2" d="M160.1,13.1c-0.7-1-2.1-1.5-4.3-1.5h-2.6c-5.1,0-7,2.3-8.5,6.4l-7.5,20.6c-0.2,0.4-0.1,0.8,0.1,1.1
			c0.1,0.2,0.4,0.4,0.9,0.4h2.3c0.6,0,1.3-0.2,1.7-1.2l7.4-20.3c0.8-2.3,1.3-2.7,3-2.7h1.2c0.9,0,1.2,0.2,1.3,0.3
			c0.2,0.3-0.1,1.2-0.3,1.9l-7.5,20.6c-0.2,0.4-0.1,0.8,0.1,1.1c0.1,0.2,0.4,0.4,0.9,0.4h2.3c0.6,0,1.3-0.2,1.7-1.2l7.4-20.3
			C160.6,16.1,161,14.4,160.1,13.1z"/>
	</g>
</g>
</svg>
