<?xml version="1.0" encoding="utf-8"?>
<!-- Generator: Adobe Illustrator 19.2.1, SVG Export Plug-In . SVG Version: 6.00 Build 0)  -->
<svg version="1.1" id="Layer_1" xmlns="http://www.w3.org/2000/svg" xmlns:xlink="http://www.w3.org/1999/xlink" x="0px" y="0px"
	 width="300px" height="126px" viewBox="0 0 300 126" style="enable-background:new 0 0 300 126;" xml:space="preserve">
<style type="text/css">
	.st0{fill:#FFFFFF;}
</style>
<g>
	<path class="st0" d="M93.8,8.9L91,32.6h-7.7c-0.7-3.6-1.3-7.8-1.8-12.4c-0.3,2-0.8,6.1-1.7,12.4h-7.7L69.3,8.9h6l0.7,8.2l0.7,8
		c0.3-4.1,0.8-9.6,1.7-16.3h6.4c0.1,0.7,0.3,3.3,0.7,7.8l0.7,9C86.4,20,87,14.3,87.7,8.9L93.8,8.9L93.8,8.9z"/>
	<path class="st0" d="M101.2,8.9v23.7H95V8.9H101.2z"/>
	<path class="st0" d="M117.4,8.9v23.7H112l-3.2-10.8v10.8h-5.1V8.9h5.1l3.4,10.7V8.9H117.4z"/>
	<path class="st0" d="M125.2,8.9h6.2c1.7,0,2.9,0.2,3.9,0.4s1.6,0.7,2,1.2s0.8,1.1,0.9,1.8c0.2,0.7,0.3,1.8,0.3,3.3v2.1
		c0,1.5-0.2,2.6-0.5,3.3c-0.3,0.7-0.9,1.3-1.7,1.6c-0.8,0.3-1.9,0.6-3.3,0.6h-1.7v9.6h-6.1V8.9z M131.4,13V19c0.2,0,0.3,0,0.4,0
		c0.6,0,0.9-0.2,1.2-0.4c0.3-0.3,0.3-0.8,0.3-1.8v-1.9c0-0.8-0.2-1.3-0.4-1.6C132.7,13.1,132.1,13,131.4,13z"/>
	<path class="st0" d="M140.3,8.9h4.4c2.9,0,4.9,0.1,5.9,0.3c1,0.3,1.8,0.8,2.5,1.7c0.7,0.9,1,2.4,1,4.5c0,1.8-0.3,3.1-0.7,3.7
		c-0.4,0.7-1.3,1-2.7,1.2c1.3,0.3,2,0.7,2.4,1.2c0.4,0.5,0.7,1,0.8,1.4c0.1,0.4,0.2,1.6,0.2,3.5v6.2h-5.7v-7.9c0-1.3-0.1-2-0.3-2.4
		c-0.2-0.3-0.8-0.4-1.6-0.4v10.7h-6.1L140.3,8.9L140.3,8.9z M146.4,13v5.3c0.7,0,1.2-0.1,1.4-0.3c0.3-0.2,0.4-0.8,0.4-1.8v-1.3
		c0-0.8-0.2-1.3-0.4-1.5C147.7,13.1,147.2,13,146.4,13z"/>
	<path class="st0" d="M162.6,8.9v23.7h-6.1V8.9H162.6z"/>
	<path class="st0" d="M175.4,8.9v4.7l-4.6,14.2h4.6v4.7h-11.3v-3.4l4.7-15.6h-4.2V8.9H175.4z"/>
	<path class="st0" d="M177,8.9h10.3v4.7h-4.1v4.5h3.9v4.5h-3.9v5.2h4.5v4.7H177V8.9z"/>
	<path class="st0" d="M202.6,16.2h-5.7v-1.8c0-0.8-0.1-1.3-0.3-1.6s-0.4-0.3-0.8-0.3s-0.7,0.2-0.8,0.4c-0.2,0.3-0.3,0.8-0.3,1.3
		c0,0.8,0.1,1.4,0.3,1.8c0.2,0.4,0.8,0.9,1.8,1.4c2.8,1.6,4.5,2.9,5.2,4c0.8,1.1,1.1,2.7,1.1,5c0,1.7-0.2,2.9-0.6,3.7
		c-0.4,0.8-1.2,1.5-2.3,2c-1.1,0.5-2.4,0.8-4,0.8c-1.7,0-3-0.3-4.2-0.9c-1.2-0.6-1.9-1.4-2.3-2.4c-0.3-1-0.5-2.4-0.5-4.1v-1.5h5.7
		V27c0,0.9,0.1,1.4,0.3,1.7c0.2,0.3,0.4,0.4,0.8,0.4s0.8-0.2,0.9-0.5c0.2-0.3,0.3-0.8,0.3-1.4c0-1.4-0.2-2.3-0.6-2.8
		c-0.4-0.4-1.3-1.2-2.9-2.2c-1.5-1-2.5-1.8-3-2.2c-0.5-0.4-0.9-1.1-1.3-1.9c-0.3-0.8-0.5-1.8-0.5-3.1c0-1.8,0.3-3.1,0.7-4
		c0.5-0.8,1.2-1.5,2.3-1.9c1-0.5,2.3-0.7,3.8-0.7c1.6,0,2.9,0.3,4.1,0.8c1.1,0.5,1.8,1.2,2.3,1.9c0.4,0.8,0.6,2.1,0.6,4v1
		C202.9,16.2,202.6,16.2,202.6,16.2z"/>
	<path class="st0" d="M220.9,8.9l3.5,23.7h-6.3l-0.3-4.3h-2.2l-0.3,4.3h-6.4L212,8.9C212,8.9,220.9,8.9,220.9,8.9z M217.7,24.2
		c-0.3-2.7-0.6-6-0.9-10c-0.6,4.5-1,7.9-1.2,10H217.7z"/>
	<path class="st0" d="M236.3,8.9v4.7h-3.7v19h-6.1V13.7h-3.6V8.9H236.3z"/>
</g>
</svg>
