<?xml version="1.0" encoding="utf-8"?>
<!-- Generator: Adobe Illustrator 19.2.1, SVG Export Plug-In . SVG Version: 6.00 Build 0)  -->
<svg version="1.1" id="Layer_1" xmlns="http://www.w3.org/2000/svg" xmlns:xlink="http://www.w3.org/1999/xlink" x="0px" y="0px"
	 width="300px" height="44px" viewBox="0 0 300 44" style="enable-background:new 0 0 300 44;" xml:space="preserve">
<style type="text/css">
	.st0{fill:#FAAE19;}
</style>
<g>
	<path class="st0" d="M42.1,15.2h-9v-2.8c0-1.3-0.1-2.1-0.3-2.5s-0.6-0.5-1.1-0.5c-0.6,0-1,0.2-1.3,0.7S30,11.3,30,12.3
		c0,1.2,0.2,2.2,0.5,2.8s1.2,1.4,2.7,2.3c4.3,2.6,7,4.7,8.1,6.3c1.1,1.6,1.7,4.3,1.7,7.9c0,2.7-0.3,4.6-0.9,5.9
		c-0.6,1.3-1.8,2.3-3.6,3.2S34.7,42,32.3,42c-2.6,0-4.8-0.5-6.6-1.5c-1.8-1-3-2.2-3.6-3.7s-0.9-3.7-0.9-6.5v-2.4h9v4.5
		c0,1.4,0.1,2.3,0.4,2.7s0.7,0.6,1.3,0.6s1.1-0.3,1.4-0.8c0.3-0.5,0.5-1.3,0.5-2.3c0-2.2-0.3-3.6-0.9-4.3c-0.6-0.7-2.1-1.8-4.5-3.4
		c-2.4-1.6-4-2.8-4.8-3.5s-1.4-1.7-1.9-3s-0.8-2.9-0.8-4.9c0-2.9,0.4-4.9,1.1-6.3c0.7-1.3,1.9-2.3,3.5-3.1C27.1,3.4,29.1,3,31.4,3
		c2.5,0,4.7,0.4,6.4,1.2C39.6,5,40.7,6,41.3,7.3c0.6,1.2,0.9,3.3,0.9,6.3v1.6H42.1z"/>
	<path class="st0" d="M67.6,3.9v37.2h-8.5l-5-16.9v16.9H46V3.9h8.1l5.4,16.8V3.9H67.6z"/>
	<path class="st0" d="M81.2,3.9v37.2h-9.7V3.9H81.2z"/>
	<path class="st0" d="M107.6,20.1H98v-6.5c0-1.9-0.1-3.1-0.3-3.5c-0.2-0.5-0.7-0.7-1.4-0.7c-0.8,0-1.3,0.3-1.5,0.9s-0.3,1.8-0.3,3.7
		v17.3c0,1.8,0.1,3,0.3,3.5c0.2,0.6,0.7,0.8,1.4,0.8c0.7,0,1.2-0.3,1.4-0.8s0.3-1.9,0.3-3.9v-4.7h9.7v1.5c0,3.9-0.3,6.6-0.8,8.2
		s-1.7,3-3.6,4.2s-4.2,1.8-6.9,1.8c-2.8,0-5.2-0.5-7-1.5s-3.1-2.4-3.7-4.3c-0.6-1.8-0.9-4.5-0.9-8.2V17c0-2.7,0.1-4.7,0.3-6
		c0.2-1.3,0.7-2.6,1.6-3.9s2.2-2.2,3.8-2.9s3.5-1.1,5.6-1.1c2.9,0,5.2,0.6,7.1,1.7s3.1,2.5,3.7,4.1s0.9,4.2,0.9,7.7L107.6,20.1
		L107.6,20.1z"/>
	<path class="st0" d="M134.2,3.9l-5.6,16.8l6.1,20.4h-10l-3.9-16v16h-9.7V3.9h9.7v14.5l4.3-14.5C125.1,3.9,134.2,3.9,134.2,3.9z"/>
	<path class="st0" d="M136.4,3.9h16.1v7.4H146v7.1h6v7.1h-6v8.2h7.1v7.4h-16.8L136.4,3.9L136.4,3.9z"/>
	<path class="st0" d="M155.9,3.9h6.8c4.6,0,7.7,0.2,9.3,0.5c1.6,0.4,2.9,1.3,4,2.7c1,1.4,1.5,3.8,1.5,6.9c0,2.9-0.4,4.8-1.1,5.8
		c-0.7,1-2.1,1.6-4.3,1.8c1.9,0.5,3.2,1.1,3.9,1.9c0.7,0.8,1.1,1.5,1.2,2.2c0.2,0.7,0.2,2.5,0.2,5.5V41h-9V28.8c0-2-0.2-3.2-0.5-3.7
		s-1.1-0.7-2.5-0.7v16.8h-9.7V3.9H155.9z M165.6,10.3v8.3c1.1,0,1.9-0.1,2.3-0.4s0.7-1.3,0.7-2.9v-2c0-1.2-0.2-2-0.6-2.3
		C167.5,10.5,166.7,10.3,165.6,10.3z"/>
	<path class="st0" d="M201.8,15.2h-9v-2.8c0-1.3-0.1-2.1-0.3-2.5s-0.6-0.5-1.1-0.5c-0.6,0-1,0.2-1.3,0.7s-0.4,1.2-0.4,2.2
		c0,1.2,0.2,2.2,0.5,2.8s1.2,1.4,2.7,2.3c4.3,2.6,7,4.7,8.1,6.3s1.7,4.3,1.7,7.9c0,2.7-0.3,4.6-0.9,5.9c-0.6,1.3-1.8,2.3-3.6,3.2
		S194.4,42,192,42c-2.6,0-4.8-0.5-6.6-1.5s-3-2.2-3.6-3.7s-0.9-3.7-0.9-6.5v-2.4h9v4.5c0,1.4,0.1,2.3,0.4,2.7s0.7,0.6,1.3,0.6
		s1.1-0.3,1.4-0.8c0.3-0.5,0.5-1.3,0.5-2.3c0-2.2-0.3-3.6-0.9-4.3c-0.6-0.7-2.1-1.8-4.5-3.4c-2.4-1.6-4-2.8-4.8-3.5s-1.4-1.7-1.9-3
		s-0.8-2.9-0.8-4.9c0-2.9,0.4-4.9,1.1-6.3s1.9-2.3,3.5-3.1c1.6-0.7,3.6-1.1,5.9-1.1c2.5,0,4.7,0.4,6.4,1.2c1.8,0.8,2.9,1.8,3.5,3.1
		c0.6,1.2,0.9,3.3,0.9,6.3L201.8,15.2L201.8,15.2z"/>
	<path class="st0" d="M227.2,3.9v37.2h-8.5l-5-16.9v16.9h-8.1V3.9h8.1l5.4,16.8V3.9H227.2z"/>
	<path class="st0" d="M240.8,3.9v37.2h-9.7V3.9H240.8z"/>
	<path class="st0" d="M254.6,3.9l-1.5,28h-7.2l-1.5-28C244.4,3.9,254.6,3.9,254.6,3.9z M253.8,33.7v7.4h-8.7v-7.4H253.8z"/>
</g>
</svg>
