<?xml version="1.0" encoding="utf-8"?>
<!-- Generator: Adobe Illustrator 19.2.1, SVG Export Plug-In . SVG Version: 6.00 Build 0)  -->
<svg version="1.1" id="Layer_1" xmlns="http://www.w3.org/2000/svg" xmlns:xlink="http://www.w3.org/1999/xlink" x="0px" y="0px"
	 width="300px" height="54px" viewBox="0 0 300 54" style="enable-background:new 0 0 300 54;" xml:space="preserve">
<style type="text/css">
	.st0{fill:#FCAF17;}
</style>
<g>
	<path class="st0" d="M40,18.6H29.8v-3.2c0-1.5-0.1-2.5-0.4-2.8c-0.2-0.4-0.7-0.6-1.3-0.6c-0.6,0-1.1,0.2-1.5,0.9s-0.5,1.3-0.5,2.5
		c0,1.5,0.2,2.5,0.6,3.2s1.3,1.6,3.1,2.6c4.9,2.9,8,5.3,9.3,7.1c1.2,1.8,2,4.9,2,9.1c0,3.1-0.4,5.3-1.1,6.6c-0.7,1.5-2.1,2.6-4,3.6
		c-2.2,1.1-4.5,1.6-7.2,1.6c-2.9,0-5.5-0.6-7.6-1.7c-2.1-1.1-3.4-2.6-4-4.3s-1-4.2-1-7.4V33h10.2v5c0,1.6,0.1,2.6,0.5,3.1
		c0.2,0.5,0.9,0.7,1.5,0.7c0.7,0,1.2-0.2,1.6-0.9s0.5-1.5,0.5-2.6c0-2.5-0.4-4.2-1-4.9c-0.7-0.7-2.5-2.1-5.1-3.8
		c-2.7-1.8-4.5-3.2-5.4-3.9c-0.9-0.9-1.6-2-2.2-3.4c-0.6-1.5-0.9-3.3-0.9-5.5c0-3.2,0.4-5.6,1.2-7.1c0.9-1.5,2.2-2.7,4-3.6
		c1.8-0.9,4-1.2,6.7-1.2c2.8,0,5.3,0.5,7.4,1.3c2,1,3.3,2.1,4,3.4c0.6,1.3,1,3.8,1,7.1v1.8H40V18.6z"/>
	<path class="st0" d="M68.9,5.8V48h-9.7l-5.8-19.2V48h-9.2V5.8h9.2l6.1,19v-19C59.5,5.8,68.9,5.8,68.9,5.8z"/>
	<path class="st0" d="M84.3,5.8V48h-11V5.8H84.3z"/>
	<path class="st0" d="M114.5,24.3h-11v-7.4c0-2.1-0.1-3.4-0.4-4c-0.2-0.5-0.7-0.7-1.6-0.7s-1.5,0.4-1.7,1c-0.2,0.6-0.4,2.1-0.4,4.2
		V37c0,2.1,0.1,3.4,0.4,4s0.7,1,1.6,1s1.3-0.4,1.6-1c0.2-0.6,0.4-2.1,0.4-4.4v-5.3h11v1.6c0,4.4-0.4,7.5-1,9.3s-2,3.4-4,4.8
		c-2.1,1.3-4.8,2.1-7.8,2.1c-3.2,0-5.9-0.6-8-1.7c-2.1-1.2-3.4-2.8-4.2-4.9c-0.7-2.1-1-5.1-1-9.3V20.7c0-3.1,0.1-5.4,0.4-6.9
		s0.9-2.9,1.8-4.4c1-1.5,2.5-2.6,4.3-3.3c1.8-0.9,3.9-1.2,6.4-1.2c3.2,0,5.9,0.6,8,1.8s3.6,2.8,4.2,4.7c0.6,1.8,1,4.8,1,8.7
		L114.5,24.3L114.5,24.3z"/>
	<path class="st0" d="M144.6,5.8l-6.2,19.1l6.9,23.2h-11.4L129.5,30v18h-11V5.8h11v16.4l4.9-16.4C134.3,5.8,144.6,5.8,144.6,5.8z"/>
	<path class="st0" d="M147.1,5.8h18.4v8.5h-7.4v8h6.9v8.1h-6.9v9.3h8.1V48h-19.1V5.8z"/>
	<path class="st0" d="M169.4,5.8h7.8c5.1,0,8.7,0.2,10.5,0.6s3.3,1.5,4.5,3.1c1.1,1.6,1.7,4.3,1.7,7.8c0,3.3-0.4,5.5-1.2,6.6
		s-2.5,1.8-4.8,2.1c2.2,0.5,3.7,1.2,4.4,2.2s1.2,1.7,1.3,2.5c0.1,0.7,0.2,2.8,0.2,6.2V48h-10.2V34c0-2.2-0.1-3.7-0.5-4.2
		s-1.3-0.9-2.8-0.9V48h-11V5.8H169.4z M180.3,13v9.4c1.2,0,2.1-0.1,2.6-0.5s0.7-1.5,0.7-3.3v-2.3c0-1.3-0.2-2.2-0.7-2.7
		C182.5,13.2,181.6,13,180.3,13z"/>
	<path class="st0" d="M221.4,18.6h-10.2v-3.2c0-1.5-0.1-2.5-0.4-2.8c-0.2-0.4-0.7-0.6-1.3-0.6s-1.1,0.2-1.5,0.9s-0.5,1.3-0.5,2.5
		c0,1.5,0.2,2.5,0.6,3.2s1.3,1.6,3.1,2.6c4.9,2.9,8,5.3,9.3,7.1c1.2,1.8,2,4.9,2,9.1c0,3.1-0.4,5.3-1.1,6.6c-0.7,1.5-2.1,2.6-4,3.6
		c-2,1-4.4,1.5-7.1,1.5c-2.9,0-5.5-0.6-7.6-1.7c-2.1-1.1-3.4-2.6-4-4.3s-1-4.2-1-7.4v-2.8h10.2V38c0,1.6,0.1,2.6,0.5,3.1
		c0.2,0.5,0.9,0.7,1.5,0.7c0.7,0,1.2-0.2,1.6-0.9s0.5-1.5,0.5-2.6c0-2.5-0.4-4.2-1-4.9c-0.7-0.7-2.5-2.1-5.1-3.8
		c-2.7-1.8-4.5-3.2-5.4-3.9c-0.9-0.9-1.6-2-2.2-3.4c-0.6-1.5-0.9-3.3-0.9-5.5c0-3.2,0.4-5.6,1.2-7.1c0.9-1.5,2.2-2.7,4-3.6
		s4-1.2,6.7-1.2c2.8,0,5.3,0.5,7.4,1.3c2,1,3.3,2.1,4,3.4c0.6,1.3,1,3.8,1,7.1v2L221.4,18.6L221.4,18.6z"/>
	<path class="st0" d="M232.4,39.4V48h-8v-8.6H232.4z"/>
	<path class="st0" d="M260.9,21.3h-11v-3.8c0-2.5-0.1-3.9-0.4-4.5c-0.2-0.6-0.7-0.9-1.5-0.9c-0.7,0-1.1,0.2-1.3,0.7
		c-0.2,0.5-0.4,1.8-0.4,4v20.3c0,1.8,0.1,3.2,0.4,3.8s0.7,0.9,1.5,0.9c0.9,0,1.3-0.4,1.6-1c0.2-0.7,0.5-2,0.5-3.9v-5.1H248v-6.4
		h12.9v22.7H254l-1-3.1c-0.7,1.3-1.7,2.3-2.8,2.9s-2.5,1-4,1c-1.8,0-3.6-0.5-5.1-1.3c-1.6-0.9-2.8-2-3.7-3.3s-1.3-2.7-1.6-4.2
		c-0.2-1.5-0.4-3.7-0.4-6.5V21.1c0-4,0.2-7,0.6-8.8c0.5-1.8,1.7-3.6,3.8-5c2.1-1.5,4.8-2.3,8-2.3s5.9,0.6,8,2
		c2.1,1.4,3.6,2.9,4.2,4.7s1,4.4,1,8L260.9,21.3L260.9,21.3z"/>
	<path class="st0" d="M265.2,5.8h18.4v8.5h-7.4v8h6.9v8.1h-6.9v9.3h8.1V48h-19.1V5.8z"/>
</g>
</svg>
