<?xml version="1.0" encoding="utf-8"?>
<!-- Generator: Adobe Illustrator 19.2.1, SVG Export Plug-In . SVG Version: 6.00 Build 0)  -->
<svg version="1.1" id="Layer_1" xmlns="http://www.w3.org/2000/svg" xmlns:xlink="http://www.w3.org/1999/xlink" x="0px" y="0px"
	 width="300px" height="126px" viewBox="0 0 300 126" style="enable-background:new 0 0 300 126;" xml:space="preserve">
<style type="text/css">
	.st0{fill:#FFFFFF;}
</style>
<g>
	<g>
		<path class="st0" d="M13.4,13.6c-0.7,0-1.1-0.4-1.1-1.1c0-2.3,0.5-3.8,1.6-4.8c1.1-1.1,3-1.6,5.6-1.6h3.2c2.7,0,4.7,0.7,5.8,2.2
			c0.9,1.2,1.4,3.2,1.4,6v18.1c0,2.8-0.5,4.7-1.6,5.6c-1.1,1-3,1.4-5.9,1.4h-2.7c-2.8,0-4.7-0.4-5.6-1.2c-1.2-1-1.8-3.1-1.8-6.2
			v-9.5c0-2.7,0.5-4.5,1.7-5.4c1.1-0.9,3.2-1.4,6.3-1.4h1.4c0.6,0,1.2,0.1,1.7,0.3c0.5,0.2,0.9,0.4,1.4,0.6v-3.2
			c0-1.3-0.2-2.1-0.6-2.6c-0.4-0.4-1-0.5-2-0.5h-2.2c-1.8,0-2.8,0.7-2.8,2.2c0,0.7-0.4,1.1-1.1,1.1L13.4,13.6L13.4,13.6z M17.4,31.7
			c0,1.6,0.3,2.7,0.7,3.2c0.4,0.3,1.3,0.5,2.6,0.5h0.8c1.4,0,2.3-0.2,2.6-0.6c0.5-0.5,0.6-1.5,0.6-3.2v-8.4c0-1.3-0.2-2.1-0.6-2.4
			c-0.4-0.5-1.3-0.6-2.6-0.6h-1.1c-1.4,0-2.3,0.3-2.8,0.7c-0.3,0.4-0.5,1.2-0.5,2.4v8.6H17.4z"/>
		<path class="st0" d="M44.4,29.7c-0.7,0-1.1-0.4-1.1-1.1v-15c0-1.4-0.2-2.3-0.5-2.7c-0.3-0.5-0.9-0.7-1.7-0.7
			c-0.9,0-1.5,0.2-1.9,0.5c-0.5,0.5-0.7,1.3-0.7,2.4v24.8c0,0.7-0.4,1.1-1.1,1.1h-2.8c-0.7,0-1.1-0.4-1.1-1.1V13
			c0-2.8,0.7-4.7,2.3-5.8c1.1-0.8,2.8-1.2,5-1.2c2.3,0,3.9,0.8,4.9,2.4h0.3c0.5-0.7,1.1-1.3,1.9-1.7c0.9-0.5,1.7-0.7,2.6-0.7
			c2.6,0,4.4,0.3,5.4,0.9c1.6,1,2.3,3.2,2.3,6.3V38c0,0.7-0.4,1.1-1.1,1.1h-2.9c-0.7,0-1.1-0.4-1.1-1.1v-0.5l0.1-23.6
			c0-1.7-0.2-2.7-0.6-3.2c-0.3-0.4-1-0.5-2.2-0.5c-0.8,0-1.4,0.3-1.7,0.9c-0.3,0.5-0.4,1.3-0.4,2.4v15.1c0,0.7-0.4,1.1-1.1,1.1
			C47.3,29.7,44.4,29.7,44.4,29.7z"/>
		<path class="st0" d="M63.1,39.1c-0.7,0-1.1-0.4-1.1-1.1V13.3c0-2.6,0.5-4.5,1.4-5.6c1-1.2,2.9-1.7,5.6-1.7h3.1
			c2.9,0,4.8,0.7,5.9,2.2c0.7,1.1,1.1,2.9,1.1,5.4V38c0,0.7-0.4,1.1-1.1,1.1h-2.8c-0.7,0-1.1-0.4-1.1-1.1V13.3
			c0-1.3-0.2-2.2-0.5-2.6c-0.4-0.5-1.2-0.7-2.3-0.7h-1.5c-1.2,0-2,0.3-2.3,0.7c-0.4,0.5-0.5,1.4-0.5,2.9V38c0,0.7-0.4,1.1-1.1,1.1
			H63.1z"/>
		<path class="st0" d="M83.4,11.7c0-1.6,0.5-2.9,1.4-3.8c1.2-1.2,3-1.8,5.5-1.8c2.6,0,4.4,0.5,5.4,1.4c1.1,1,1.6,2.8,1.6,5.3v3.5
			c1.2,0.4,2.1,1.2,2.5,2.3c0.4,0.9,0.5,2.3,0.5,4.2v8.6c0,3.2-0.5,5.4-1.5,6.5c-1,1-3,1.5-6,1.5h-2.8c-3.2,0-5.3-0.6-6.3-1.9
			c-0.8-1-1.2-2.9-1.2-5.7v-9.3c0-2.8,0.7-4.8,2.1-5.8c1.1-0.7,3-1.1,5.7-1.1h2.1v-4c0-0.7-0.1-1.2-0.4-1.4
			c-0.3-0.3-0.9-0.5-1.9-0.5c-0.7,0-1.3,0.2-1.6,0.5c-0.2,0.3-0.4,0.6-0.4,1.2V12c0,0.7-0.4,1.1-1.1,1.1h-2.7
			c-0.7,0-1.1-0.4-1.1-1.1V11.7z M87.7,31.9c0,1.4,0.2,2.3,0.5,2.8c0.4,0.5,1.1,0.6,2.2,0.6h2.3c1.1,0,1.9-0.3,2.2-0.7
			c0.4-0.5,0.5-1.4,0.5-2.9v-8.4c0-1.4-0.3-2.3-0.7-2.8c-0.5-0.4-1.3-0.6-2.6-0.6h-1.1c-1.4,0-2.3,0.3-2.8,0.7
			c-0.4,0.5-0.5,1.3-0.5,2.5L87.7,31.9L87.7,31.9z"/>
		<path class="st0" d="M108.9,31.6c0,1.5,0.2,2.4,0.5,3c0.4,0.5,1.1,0.7,2.2,0.7h2.6c1,0,1.6-0.3,2-0.8c0.3-0.5,0.5-1.4,0.5-2.6
			V13.3c0-1.2-0.2-2-0.5-2.4c-0.4-0.4-1.3-0.6-2.7-0.6H112c-1.7,0-2.7,1-2.8,3.1v1.4c0,0.7-0.4,1.1-1.1,1.1h-2.8
			c-0.7,0-1.1-0.4-1.1-1.1v-1.1c0-3.1,0.6-5.1,1.9-6.1c1.1-0.9,3-1.4,5.7-1.4h1.7c3.3,0,5.5,0.5,6.6,1.5c1,1,1.5,2.8,1.5,5.5v19.2
			c0,2.7-0.5,4.6-1.7,5.7c-1.1,1-2.8,1.4-5.2,1.4h-3.2c-3.1,0-5.1-0.5-6-1.3c-1.1-0.9-1.6-3-1.6-6.2l-0.1-4.9c0-0.7,0.4-1.1,1.1-1.1
			h2.9c0.7,0,1.1,0.4,1.1,1.1L108.9,31.6L108.9,31.6z"/>
	</g>
	<g>
		<path class="st0" d="M147.7,7.9c0,0.8,0.4,1.5,1.2,2.3c0.3,0.3,0.7,0.6,1.3,0.9l1.4,0.9c2.6,1.6,3.9,3.2,3.9,4.7v1.8
			c0,2.2-0.8,3.6-2.4,4.4v0.3c0.8,0.3,1.5,1,2.2,2c0.5,0.9,0.8,1.7,0.8,2.4V32c0,2.7-0.5,4.6-1.7,5.7c-1.1,1-2.8,1.4-5.2,1.4h-3.5
			c-3.1,0-5.1-0.5-6-1.3c-1-0.9-1.5-3-1.6-6.2l-0.1-4.9c0-0.7,0.4-1.1,1.1-1.1h2.9c0.7,0,1.1,0.4,1.1,1.1l0.1,4.5
			c0,1.7,0.1,2.7,0.3,3c0.3,0.5,1.1,0.7,2.3,0.7h3c1,0,1.6-0.3,2-0.8c0.3-0.5,0.5-1.4,0.5-2.6v-3.3c0-1.4-0.2-2.3-0.5-2.8
			c-0.4-0.5-1.2-0.6-2.3-0.6h-0.7c-0.5,0-0.8-0.3-0.8-0.7v-2.8c0-0.4,0.3-0.6,0.8-0.6c1.4,0,2.3-0.2,2.7-0.5
			c0.4-0.3,0.5-0.9,0.5-1.8v-1.5c0-0.8-0.4-1.4-1.2-2c-0.3-0.2-0.7-0.5-1.2-0.7l-0.7-0.4l-0.7-0.4c-2.5-1.4-3.9-3.2-3.9-5.7V7
			c0-0.7,0.4-1.1,1.1-1.1h2.8c0.7,0,1.1,0.4,1.1,1.1v0.8H147.7z"/>
		<path class="st0" d="M181.3,9.1c0,0.7-0.4,1.1-1.1,1.1h-12c-2.6,0-3.9,1.4-3.9,4.2v2.3c0.9-0.7,2-1.1,3.2-1.1
			c2.1,0,3.5,0.7,4.3,2.3h0.3c0.4-0.7,1-1.3,1.8-1.6c0.8-0.4,1.6-0.6,2.5-0.6c2.6,0,4.4,0.3,5.4,0.9c1.6,1,2.3,3.2,2.3,6.3v15.1
			c0,0.7-0.4,1.1-1.1,1.1h-2.9c-0.7,0-1.1-0.4-1.1-1.1v-0.5l0.1-13.9c0-1.7-0.2-2.7-0.6-3.2c-0.3-0.4-1-0.5-2.2-0.5
			c-0.8,0-1.4,0.3-1.7,0.9c-0.3,0.5-0.4,1.3-0.4,2.4v7.8c0,0.7-0.4,1.1-1.1,1.1h-3c-0.7,0-1.1-0.4-1.1-1.1v-7.8
			c0-1.4-0.2-2.3-0.5-2.7c-0.3-0.5-0.9-0.7-1.7-0.7c-0.9,0-1.5,0.2-1.9,0.5c-0.5,0.5-0.7,1.3-0.7,2.4v15.2c0,0.7-0.4,1.1-1.1,1.1
			h-2.8c-0.7,0-1.1-0.4-1.1-1.1V14c0-2.5,0.7-4.4,2.2-5.8s3.5-2,6.2-2h12.3c0.7,0,1.1,0.4,1.1,1.1L181.3,9.1L181.3,9.1z"/>
		<path class="st0" d="M188.9,39c-0.7,0-1.1-0.4-1.1-1.1V13.2c0-2.6,0.5-4.5,1.4-5.6c1-1.2,2.9-1.7,5.6-1.7h3.1
			c2.9,0,4.8,0.7,5.9,2.2c0.7,1.1,1.1,2.9,1.1,5.4v24.4c0,0.7-0.4,1.1-1.1,1.1H201c-0.7,0-1.1-0.4-1.1-1.1V13.2
			c0-1.3-0.2-2.2-0.5-2.6c-0.4-0.5-1.2-0.7-2.3-0.7h-1.5c-1.2,0-2,0.3-2.3,0.7c-0.4,0.5-0.5,1.4-0.5,2.9v24.4c0,0.7-0.4,1.1-1.1,1.1
			C191.5,39,188.9,39,188.9,39z"/>
		<path class="st0" d="M215.7,5.9c2.1,0,3.6,0.6,4.6,1.8c0.8,1,1.2,2.3,1.2,4c0,2-0.5,3.3-1.4,4.2c4.1,0.5,6,2.8,6,6.9v9.2
			c0,3.2-0.4,5.1-1.2,6c-0.9,1-3,1.5-6.3,1.5h-2c-3.2,0-5.1-0.5-6-1.5c-0.9-1-1.4-3.1-1.4-6.4v-8.4c0-0.8,0.2-1.7,0.5-2.6
			c0.4-1.1,0.9-1.9,1.4-2.3c-2.3-1.1-3.5-3.1-3.5-5.8c0-4.2,2.1-6.4,6.2-6.4h1.9V5.9z M212.2,13.4c0,0.6,0.2,1.3,0.5,1.7
			c0.1,0.2,0.3,0.4,0.5,0.5l0.2,0.2l0.2,0.1c0.6-0.2,1.6-0.3,3.2-0.4c0.3-0.5,0.5-1.3,0.5-2.2v-1.8c0-0.8-0.2-1.4-0.5-1.7
			c-0.4-0.4-1-0.5-1.8-0.5c-1.6,0-2.4,0.7-2.4,2.3v1.9H212.2z M214.1,31.7c0,1.7,0.3,2.7,0.7,3.2c0.4,0.3,1.2,0.5,2.4,0.5h0.7
			c1.4,0,2.3-0.2,2.6-0.5c0.4-0.4,0.6-1.2,0.6-2.4v-9.7c0-1.3-0.2-2.1-0.5-2.4c-0.4-0.5-1.2-0.6-2.4-0.6h-1.2
			c-1.3,0-2.1,0.3-2.4,0.7s-0.5,1.4-0.5,2.7L214.1,31.7L214.1,31.7z"/>
		<path class="st0" d="M234.5,31.5c0,1.5,0.2,2.4,0.5,3c0.4,0.5,1.1,0.7,2.2,0.7h2.6c1,0,1.6-0.3,2-0.8c0.3-0.5,0.5-1.4,0.5-2.6
			V13.1c0-1.2-0.2-2-0.5-2.4c-0.4-0.4-1.3-0.6-2.7-0.6h-1.3c-1.7,0-2.7,1-2.8,3.1v1.4c0,0.7-0.4,1.1-1.1,1.1H231
			c-0.7,0-1.1-0.4-1.1-1.1v-1.1c0-3.1,0.6-5.1,1.9-6.1c1.1-0.9,3-1.4,5.7-1.4h1.7c3.3,0,5.5,0.5,6.6,1.5c1,1,1.5,2.8,1.5,5.5V32
			c0,2.7-0.5,4.6-1.7,5.7c-1.1,1-2.8,1.4-5.2,1.4h-3.2c-3.1,0-5.1-0.5-6-1.3c-1.1-0.9-1.6-3-1.6-6.2l-0.1-4.9c0-0.7,0.4-1.1,1.1-1.1
			h2.9c0.7,0,1.1,0.4,1.1,1.1L234.5,31.5L234.5,31.5z"/>
		<path class="st0" d="M258.6,8c0,0.9,0.3,1.6,0.7,2.2c0.2,0.2,0.4,0.4,0.7,0.5l0.8,0.5c1.4,0.9,2.2,2.3,2.2,4.4
			c2.1,0.1,3.5,0.9,4.4,2.3c0.6,1,0.9,2.5,0.9,4.4v9.3c0,3.2-0.5,5.3-1.4,6.2c-0.9,0.9-2.9,1.4-6,1.4h-2.7c-2.9,0-4.9-0.4-5.8-1.2
			c-1.1-1-1.7-3.2-1.7-6.4v-9.2c0-2.6,0.5-4.4,1.7-5.4c1.1-0.9,3.1-1.4,5.8-1.4c0-1-0.3-1.8-0.7-2.3c-0.2-0.2-0.5-0.5-0.7-0.6
			l-0.5-0.3l-0.5-0.3c-1.6-0.8-2.3-2.1-2.3-3.9v-1c0-0.7,0.4-1.1,1.1-1.1h2.9c0.7,0,1.1,0.4,1.1,1.1L258.6,8L258.6,8z M255.9,31.8
			c0.1,1.4,0.3,2.4,0.6,2.8c0.4,0.4,1.2,0.6,2.4,0.6h1c1.4,0,2.3-0.2,2.7-0.6c0.4-0.4,0.5-1.4,0.5-3v-8.5c0-1.4-0.2-2.3-0.5-2.7
			c-0.4-0.5-1.4-0.7-2.8-0.7h-0.8c-1.4,0-2.3,0.2-2.8,0.6c-0.4,0.4-0.5,1.2-0.5,2.4v9H255.9z"/>
		<path class="st0" d="M273.1,39c-0.7,0-1.1-0.4-1.1-1.1V13.2c0-2.6,0.5-4.5,1.4-5.6c1-1.2,2.9-1.7,5.6-1.7h3.1
			c2.9,0,4.8,0.7,5.9,2.2c0.7,1.1,1.1,2.9,1.1,5.4v24.4c0,0.7-0.4,1.1-1.1,1.1h-2.8c-0.7,0-1.1-0.4-1.1-1.1V13.2
			c0-1.3-0.2-2.2-0.5-2.6c-0.4-0.5-1.2-0.7-2.3-0.7h-1.4c-1.2,0-2,0.3-2.3,0.7c-0.4,0.5-0.5,1.4-0.5,2.9v24.4c0,0.7-0.4,1.1-1.1,1.1
			C275.8,39,273.1,39,273.1,39z"/>
	</g>
</g>
</svg>
