<?xml version="1.0" encoding="utf-8"?>
<!-- Generator: Adobe Illustrator 19.2.1, SVG Export Plug-In . SVG Version: 6.00 Build 0)  -->
<svg version="1.1" id="Layer_1" xmlns="http://www.w3.org/2000/svg" xmlns:xlink="http://www.w3.org/1999/xlink" x="0px" y="0px"
	 width="300px" height="126px" viewBox="0 0 300 126" style="enable-background:new 0 0 300 126;" xml:space="preserve">
<style type="text/css">
	.st0{fill:#FFFFFF;}
</style>
<g>
	<path class="st0" d="M87.1,15.2l-4.4,38.1H70.3c-1.1-5.9-2.1-12.5-3-20c-0.4,3.2-1.3,9.9-2.8,20H52.3l-4.4-38.1h9.6l1,13.3l1,12.9
		c0.4-6.7,1.3-15.4,2.7-26.2h10.3c0.1,1.1,0.5,5.3,1.1,12.6l1.1,14.5c0.6-9.2,1.5-18.2,2.8-27.1H87.1z"/>
	<path class="st0" d="M99,15.2v38.1h-9.9V15.2H99z"/>
	<path class="st0" d="M125.1,15.2v38.1h-8.7L111.2,36v17.3H103V15.2h8.3l5.6,17.2V15.2H125.1z"/>
	<path class="st0" d="M160.3,29.3h-9.9v-3.5c0-2.2-0.1-3.5-0.3-4.1c-0.2-0.5-0.6-0.8-1.3-0.8c-0.6,0-1,0.2-1.2,0.7
		c-0.2,0.5-0.3,1.7-0.3,3.6v18.3c0,1.7,0.1,2.8,0.3,3.4c0.2,0.5,0.7,0.8,1.3,0.8c0.7,0,1.2-0.3,1.5-0.9c0.3-0.6,0.4-1.8,0.4-3.6
		v-4.5h-2v-5.8h11.6v20.5h-6.2l-0.9-2.7c-0.7,1.2-1.5,2.1-2.6,2.6c-1,0.6-2.2,0.9-3.6,0.9c-1.7,0-3.2-0.4-4.7-1.2
		c-1.5-0.8-2.6-1.8-3.3-3c-0.8-1.2-1.2-2.4-1.4-3.8c-0.2-1.3-0.3-3.3-0.3-5.9V29c0-3.6,0.2-6.3,0.6-7.9c0.4-1.6,1.5-3.2,3.4-4.5
		c1.9-1.4,4.3-2.1,7.2-2.1c2.9,0,5.3,0.6,7.2,1.8s3.2,2.6,3.7,4.2c0.6,1.6,0.9,4,0.9,7.1V29.3z"/>
	<path class="st0" d="M164.1,15.2h7c4.7,0,7.8,0.2,9.5,0.5c1.7,0.4,3,1.3,4,2.8c1,1.5,1.6,3.8,1.6,7.1c0,3-0.4,5-1.1,6
		c-0.7,1-2.2,1.6-4.4,1.8c2,0.5,3.3,1.1,4,2c0.7,0.8,1.1,1.6,1.3,2.2c0.2,0.7,0.2,2.6,0.2,5.6v10.1h-9.2V40.7c0-2-0.2-3.3-0.5-3.8
		c-0.3-0.5-1.2-0.7-2.5-0.7v17.2h-9.9V15.2z M174,21.8v8.5c1.1,0,1.9-0.2,2.3-0.5c0.4-0.3,0.7-1.3,0.7-3v-2.1c0-1.2-0.2-2-0.6-2.4
		C176,22,175.2,21.8,174,21.8z"/>
	<path class="st0" d="M190.1,15.2h16.5v7.6H200v7.2h6.2v7.2H200v8.4h7.3v7.6h-17.2V15.2z"/>
	<path class="st0" d="M227.3,15.2l5.7,38.1h-10.1l-0.5-6.8h-3.5l-0.6,6.8h-10.2l5.1-38.1H227.3z M222,39.7c-0.5-4.3-1-9.7-1.5-16
		c-1,7.3-1.6,12.6-1.9,16H222z"/>
	<path class="st0" d="M251.9,15.2v7.6H246v30.5h-9.9V22.9h-5.9v-7.6H251.9z"/>
	<path class="st0" d="M57.5,63.8h10c2.7,0,4.8,0.2,6.2,0.6c1.5,0.4,2.5,1,3.3,1.8c0.7,0.8,1.2,1.8,1.5,2.9c0.3,1.1,0.4,2.9,0.4,5.3
		v3.3c0,2.4-0.3,4.2-0.8,5.3c-0.5,1.1-1.4,2-2.8,2.6c-1.3,0.6-3.1,0.9-5.3,0.9h-2.7v15.3h-9.9V63.8z M67.4,70.3V80
		c0.3,0,0.5,0,0.7,0c0.9,0,1.5-0.2,1.9-0.7c0.4-0.4,0.5-1.4,0.5-2.8v-3.1c0-1.3-0.2-2.2-0.6-2.5C69.5,70.5,68.6,70.3,67.4,70.3z"/>
	<path class="st0" d="M81.6,63.8h7c4.7,0,7.8,0.2,9.5,0.5c1.7,0.4,3,1.3,4,2.8c1,1.5,1.6,3.8,1.6,7.1c0,3-0.4,5-1.1,6
		c-0.7,1-2.2,1.6-4.4,1.8c2,0.5,3.3,1.1,4,2c0.7,0.8,1.1,1.6,1.3,2.2c0.2,0.7,0.2,2.6,0.2,5.6v10.1h-9.2V89.3c0-2-0.2-3.3-0.5-3.8
		c-0.3-0.5-1.2-0.7-2.5-0.7v17.2h-9.9V63.8z M91.6,70.3v8.5c1.1,0,1.9-0.2,2.3-0.5c0.4-0.3,0.7-1.3,0.7-3v-2.1c0-1.2-0.2-2-0.6-2.4
		C93.5,70.5,92.7,70.3,91.6,70.3z"/>
	<path class="st0" d="M117.5,63.8v38.1h-9.9V63.8H117.5z"/>
	<path class="st0" d="M138.1,63.8v7.6l-7.4,22.9h7.4v7.6h-18.3v-5.5l7.6-24.9h-6.7v-7.6H138.1z"/>
	<path class="st0" d="M140.6,63.8h16.5v7.6h-6.6v7.2h6.2v7.2h-6.2v8.4h7.3v7.6h-17.2V63.8z"/>
	<path class="st0" d="M181.7,75.3h-9.2v-2.8c0-1.3-0.1-2.2-0.4-2.5c-0.2-0.4-0.6-0.5-1.2-0.5c-0.6,0-1,0.2-1.4,0.7
		c-0.3,0.5-0.5,1.2-0.5,2.2c0,1.3,0.2,2.2,0.5,2.9c0.3,0.6,1.3,1.4,2.8,2.3c4.4,2.6,7.2,4.8,8.3,6.4c1.1,1.7,1.7,4.4,1.7,8.1
		c0,2.7-0.3,4.7-1,6c-0.6,1.3-1.9,2.4-3.7,3.2c-1.8,0.9-3.9,1.3-6.4,1.3c-2.7,0-4.9-0.5-6.8-1.5c-1.9-1-3.1-2.3-3.7-3.8
		c-0.6-1.6-0.9-3.8-0.9-6.6v-2.5h9.2v4.6c0,1.4,0.1,2.3,0.4,2.8c0.3,0.4,0.7,0.6,1.4,0.6c0.7,0,1.1-0.3,1.5-0.8
		c0.3-0.5,0.5-1.3,0.5-2.3c0-2.2-0.3-3.7-0.9-4.4c-0.6-0.7-2.2-1.8-4.6-3.5c-2.5-1.6-4.1-2.8-4.9-3.6c-0.8-0.7-1.5-1.8-2-3.1
		c-0.5-1.3-0.8-3-0.8-5c0-2.9,0.4-5.1,1.1-6.4c0.7-1.3,1.9-2.4,3.6-3.2c1.7-0.8,3.7-1.1,6-1.1c2.6,0,4.8,0.4,6.6,1.2
		c1.8,0.8,3,1.9,3.6,3.1c0.6,1.3,0.9,3.4,0.9,6.4V75.3z"/>
	<path class="st0" d="M216.7,86.1c0,3.8-0.1,6.5-0.3,8.1c-0.2,1.6-0.7,3-1.7,4.4c-0.9,1.3-2.2,2.3-3.8,3c-1.6,0.7-3.5,1.1-5.6,1.1
		c-2,0-3.9-0.3-5.5-1c-1.6-0.7-2.9-1.7-3.9-3c-1-1.3-1.6-2.8-1.8-4.4c-0.2-1.6-0.3-4.3-0.3-8.2v-6.5c0-3.8,0.1-6.5,0.3-8.1
		c0.2-1.6,0.7-3,1.7-4.4c0.9-1.3,2.2-2.3,3.8-3c1.6-0.7,3.5-1.1,5.6-1.1c2,0,3.9,0.3,5.5,1c1.6,0.7,2.9,1.7,3.9,3
		c1,1.3,1.6,2.8,1.8,4.4c0.2,1.6,0.3,4.3,0.3,8.2V86.1z M206.8,73.6c0-1.8-0.1-2.9-0.3-3.4c-0.2-0.5-0.6-0.7-1.2-0.7
		c-0.5,0-0.9,0.2-1.2,0.6c-0.3,0.4-0.4,1.6-0.4,3.5v17.8c0,2.2,0.1,3.6,0.3,4.1c0.2,0.5,0.6,0.8,1.3,0.8c0.7,0,1.1-0.3,1.3-0.9
		c0.2-0.6,0.3-2,0.3-4.3V73.6z"/>
	<path class="st0" d="M242.6,63.8v38.1h-8.7l-5.2-17.3v17.3h-8.3V63.8h8.3l5.6,17.2V63.8H242.6z"/>
</g>
</svg>
