<?xml version="1.0" encoding="utf-8"?>
<!-- Generator: Adobe Illustrator 19.2.1, SVG Export Plug-In . SVG Version: 6.00 Build 0)  -->
<svg version="1.1" id="Layer_1" xmlns="http://www.w3.org/2000/svg" xmlns:xlink="http://www.w3.org/1999/xlink" x="0px" y="0px"
	 width="300px" height="73.7px" viewBox="0 0 300 73.7" style="enable-background:new 0 0 300 73.7;" xml:space="preserve">
<style type="text/css">
	.st0{fill:#FAAE19;}
</style>
<g>
	<path class="st0" d="M42.1,32.2h-9v-2.8c0-1.3-0.1-2.1-0.3-2.5c-0.2-0.4-0.6-0.5-1.1-0.5c-0.6,0-1,0.2-1.3,0.7s-0.4,1.2-0.4,2.2
		c0,1.2,0.2,2.2,0.5,2.8c0.3,0.6,1.2,1.4,2.7,2.3c4.3,2.6,7,4.7,8.1,6.3c1.1,1.6,1.7,4.3,1.7,7.9c0,2.7-0.3,4.6-0.9,5.9
		c-0.6,1.3-1.8,2.3-3.6,3.2c-1.8,0.9-3.8,1.3-6.2,1.3c-2.6,0-4.8-0.5-6.6-1.5c-1.8-1-3-2.2-3.6-3.7c-0.6-1.5-0.9-3.7-0.9-6.5v-2.4h9
		v4.5c0,1.4,0.1,2.3,0.4,2.7c0.3,0.4,0.7,0.6,1.3,0.6s1.1-0.3,1.4-0.8c0.3-0.5,0.5-1.3,0.5-2.3c0-2.2-0.3-3.6-0.9-4.3
		c-0.6-0.7-2.1-1.8-4.5-3.4c-2.4-1.6-4-2.8-4.8-3.5c-0.8-0.7-1.4-1.7-1.9-3c-0.5-1.3-0.8-2.9-0.8-4.9c0-2.9,0.4-4.9,1.1-6.3
		c0.7-1.3,1.9-2.3,3.5-3.1c1.6-0.7,3.6-1.1,5.9-1.1c2.5,0,4.7,0.4,6.4,1.2c1.8,0.8,2.9,1.8,3.5,3.1c0.6,1.2,0.9,3.3,0.9,6.3V32.2z"
		/>
	<path class="st0" d="M67.6,20.9v37.2h-8.5l-5-16.9v16.9H46V20.9h8.1l5.4,16.8V20.9H67.6z"/>
	<path class="st0" d="M81.2,20.9v37.2h-9.7V20.9H81.2z"/>
	<path class="st0" d="M107.6,37.1H98v-6.5c0-1.9-0.1-3.1-0.3-3.5c-0.2-0.5-0.7-0.7-1.4-0.7c-0.8,0-1.3,0.3-1.5,0.9
		c-0.2,0.6-0.3,1.8-0.3,3.7v17.3c0,1.8,0.1,3,0.3,3.5c0.2,0.6,0.7,0.8,1.4,0.8c0.7,0,1.2-0.3,1.4-0.8s0.3-1.9,0.3-3.9v-4.7h9.7v1.5
		c0,3.9-0.3,6.6-0.8,8.2s-1.7,3-3.6,4.2s-4.2,1.8-6.9,1.8c-2.8,0-5.2-0.5-7-1.5s-3.1-2.4-3.7-4.3c-0.6-1.8-0.9-4.5-0.9-8.2V34
		c0-2.7,0.1-4.7,0.3-6c0.2-1.3,0.7-2.6,1.6-3.9s2.2-2.2,3.8-2.9s3.5-1.1,5.6-1.1c2.9,0,5.2,0.6,7.1,1.7c1.9,1.1,3.1,2.5,3.7,4.1
		c0.6,1.6,0.9,4.2,0.9,7.7V37.1z"/>
	<path class="st0" d="M134.2,20.9l-5.6,16.8l6.1,20.4h-10l-3.9-16v16h-9.7V20.9h9.7v14.5l4.3-14.5H134.2z"/>
	<path class="st0" d="M136.4,20.9h16.1v7.4H146v7.1h6v7.1h-6v8.2h7.1v7.4h-16.8V20.9z"/>
	<path class="st0" d="M155.9,20.9h6.8c4.6,0,7.7,0.2,9.3,0.5c1.6,0.4,2.9,1.3,4,2.7c1,1.4,1.5,3.8,1.5,6.9c0,2.9-0.4,4.8-1.1,5.8
		c-0.7,1-2.1,1.6-4.3,1.8c1.9,0.5,3.2,1.1,3.9,1.9c0.7,0.8,1.1,1.5,1.2,2.2c0.2,0.7,0.2,2.5,0.2,5.5v9.8h-9V45.8
		c0-2-0.2-3.2-0.5-3.7c-0.3-0.5-1.1-0.7-2.5-0.7v16.8h-9.7V20.9z M165.6,27.3v8.3c1.1,0,1.9-0.1,2.3-0.4s0.7-1.3,0.7-2.9v-2
		c0-1.2-0.2-2-0.6-2.3C167.5,27.5,166.7,27.3,165.6,27.3z"/>
	<path class="st0" d="M201.8,32.2h-9v-2.8c0-1.3-0.1-2.1-0.3-2.5c-0.2-0.4-0.6-0.5-1.1-0.5c-0.6,0-1,0.2-1.3,0.7s-0.4,1.2-0.4,2.2
		c0,1.2,0.2,2.2,0.5,2.8c0.3,0.6,1.2,1.4,2.7,2.3c4.3,2.6,7,4.7,8.1,6.3c1.1,1.6,1.7,4.3,1.7,7.9c0,2.7-0.3,4.6-0.9,5.9
		c-0.6,1.3-1.8,2.3-3.6,3.2s-3.8,1.3-6.2,1.3c-2.6,0-4.8-0.5-6.6-1.5c-1.8-1-3-2.2-3.6-3.7c-0.6-1.5-0.9-3.7-0.9-6.5v-2.4h9v4.5
		c0,1.4,0.1,2.3,0.4,2.7s0.7,0.6,1.3,0.6s1.1-0.3,1.4-0.8c0.3-0.5,0.5-1.3,0.5-2.3c0-2.2-0.3-3.6-0.9-4.3c-0.6-0.7-2.1-1.8-4.5-3.4
		c-2.4-1.6-4-2.8-4.8-3.5c-0.8-0.7-1.4-1.7-1.9-3c-0.5-1.3-0.8-2.9-0.8-4.9c0-2.9,0.4-4.9,1.1-6.3s1.9-2.3,3.5-3.1
		c1.6-0.7,3.6-1.1,5.9-1.1c2.5,0,4.7,0.4,6.4,1.2c1.8,0.8,2.9,1.8,3.5,3.1c0.6,1.2,0.9,3.3,0.9,6.3V32.2z"/>
	<path class="st0" d="M227.2,20.9v37.2h-8.5l-5-16.9v16.9h-8.1V20.9h8.1l5.4,16.8V20.9H227.2z"/>
	<path class="st0" d="M240.8,20.9v37.2h-9.7V20.9H240.8z"/>
	<path class="st0" d="M254.6,20.9l-1.5,28h-7.2l-1.5-28H254.6z M253.8,50.7v7.4h-8.7v-7.4H253.8z"/>
</g>
</svg>
