<?xml version="1.0" encoding="utf-8"?>
<!-- Generator: Adobe Illustrator 19.2.1, SVG Export Plug-In . SVG Version: 6.00 Build 0)  -->
<svg version="1.1" id="Layer_1" xmlns="http://www.w3.org/2000/svg" xmlns:xlink="http://www.w3.org/1999/xlink" x="0px" y="0px"
	 width="300px" height="128px" viewBox="0 0 300 128" style="enable-background:new 0 0 300 128;" xml:space="preserve">
<style type="text/css">
	.st0{fill:#FFFFFF;}
</style>
<g>
	<path class="st0" d="M43.6,21.7v24.9c0,2.8-0.1,4.8-0.3,5.9c-0.2,1.1-0.7,2.3-1.6,3.5s-2.1,2.1-3.6,2.7c-1.5,0.6-3.2,0.9-5.2,0.9
		c-2.2,0-4.2-0.4-5.9-1.1c-1.7-0.7-3-1.7-3.8-2.9c-0.8-1.2-1.3-2.4-1.5-3.7c-0.2-1.3-0.2-4.1-0.2-8.3v-22h9.7v27.9
		c0,1.6,0.1,2.7,0.3,3.1s0.5,0.7,1.1,0.7c0.6,0,1-0.2,1.2-0.7c0.2-0.5,0.3-1.7,0.3-3.5V21.7H43.6z"/>
	<path class="st0" d="M47.4,21.7h9.7c2.6,0,4.7,0.2,6.1,0.6c1.4,0.4,2.5,1,3.2,1.8c0.7,0.8,1.2,1.7,1.4,2.8c0.3,1.1,0.4,2.8,0.4,5.2
		v3.2c0,2.4-0.2,4.1-0.7,5.2s-1.4,1.9-2.7,2.5c-1.3,0.6-3,0.9-5.1,0.9h-2.6v15h-9.7V21.7z M57.1,28v9.5c0.3,0,0.5,0,0.7,0
		c0.9,0,1.5-0.2,1.9-0.7s0.5-1.3,0.5-2.7v-3.1c0-1.3-0.2-2.1-0.6-2.5C59.1,28.2,58.3,28,57.1,28z"/>
	<path class="st0" d="M93.2,35.4h-9.7V32c0-2.1-0.1-3.5-0.3-4c-0.2-0.5-0.6-0.8-1.3-0.8c-0.6,0-1,0.2-1.2,0.7
		c-0.2,0.5-0.3,1.6-0.3,3.5v17.9c0,1.7,0.1,2.8,0.3,3.3c0.2,0.5,0.6,0.8,1.3,0.8c0.7,0,1.2-0.3,1.4-0.9s0.4-1.8,0.4-3.5v-4.4h-2
		v-5.7h11.3v20h-6.1l-0.9-2.7c-0.7,1.1-1.5,2-2.5,2.6c-1,0.6-2.2,0.9-3.6,0.9c-1.6,0-3.1-0.4-4.6-1.2s-2.5-1.8-3.2-2.9
		c-0.7-1.2-1.2-2.4-1.4-3.7c-0.2-1.3-0.3-3.2-0.3-5.8V35.1c0-3.6,0.2-6.1,0.6-7.7c0.4-1.6,1.5-3.1,3.3-4.4c1.8-1.3,4.2-2,7-2
		c2.8,0,5.2,0.6,7.1,1.7c1.9,1.2,3.1,2.5,3.7,4.1c0.6,1.6,0.9,3.9,0.9,7V35.4z"/>
	<path class="st0" d="M97,21.7h6.8c4.6,0,7.7,0.2,9.3,0.5s2.9,1.3,4,2.7c1,1.4,1.5,3.8,1.5,6.9c0,2.9-0.4,4.8-1.1,5.8
		c-0.7,1-2.1,1.6-4.3,1.8c1.9,0.5,3.2,1.1,3.9,1.9s1.1,1.5,1.2,2.2c0.2,0.7,0.2,2.5,0.2,5.5v9.8h-9V46.5c0-2-0.2-3.2-0.5-3.7
		c-0.3-0.5-1.1-0.7-2.5-0.7v16.8H97V21.7z M106.6,28v8.3c1.1,0,1.9-0.1,2.3-0.4c0.4-0.3,0.7-1.3,0.7-2.9v-2c0-1.2-0.2-2-0.6-2.3
		C108.5,28.2,107.8,28,106.6,28z"/>
	<path class="st0" d="M139,21.7l5.5,37.2h-9.9l-0.5-6.7h-3.5l-0.6,6.7h-10l4.9-37.2H139z M133.9,45.6c-0.5-4.2-1-9.4-1.5-15.6
		c-1,7.1-1.6,12.3-1.9,15.6H133.9z"/>
	<path class="st0" d="M146.2,21.7h7.2c4.7,0,7.8,0.2,9.5,0.6c1.6,0.4,2.9,1.1,3.8,2.1s1.4,2.1,1.6,3.3s0.3,3.6,0.3,7.1v13
		c0,3.3-0.2,5.6-0.5,6.7c-0.3,1.1-0.9,2-1.6,2.6c-0.8,0.6-1.7,1.1-2.9,1.3c-1.1,0.3-2.9,0.4-5.2,0.4h-12.2V21.7z M155.9,28v24.5
		c1.4,0,2.3-0.3,2.6-0.8s0.5-2.1,0.5-4.6V32.6c0-1.7-0.1-2.8-0.2-3.2c-0.1-0.5-0.4-0.8-0.7-1C157.7,28.1,157,28,155.9,28z"/>
	<path class="st0" d="M172.2,21.7h16.1v7.4h-6.5v7.1h6v7.1h-6v8.2h7.1v7.4h-16.8V21.7z"/>
	<path class="st0" d="M42.3,75.1l-7.1,23.7v13.5h-9V98.9l-6.8-23.7h8.9c1.4,7.3,2.2,12.2,2.4,14.7c0.5-4,1.4-8.9,2.7-14.7H42.3z"/>
	<path class="st0" d="M66,96.9c0,3.7-0.1,6.4-0.3,7.9c-0.2,1.6-0.7,3-1.7,4.3s-2.2,2.3-3.8,3s-3.4,1-5.5,1c-2,0-3.8-0.3-5.4-1
		s-2.9-1.6-3.8-2.9s-1.5-2.7-1.7-4.3c-0.2-1.5-0.3-4.2-0.3-8v-6.4c0-3.7,0.1-6.4,0.3-7.9c0.2-1.6,0.7-3,1.7-4.3
		c0.9-1.3,2.2-2.3,3.8-3c1.6-0.7,3.4-1,5.5-1c2,0,3.8,0.3,5.4,1c1.6,0.7,2.9,1.6,3.8,2.9c1,1.3,1.5,2.7,1.7,4.3
		c0.2,1.5,0.3,4.2,0.3,8V96.9z M56.3,84.7c0-1.7-0.1-2.8-0.3-3.3c-0.2-0.5-0.6-0.7-1.2-0.7c-0.5,0-0.9,0.2-1.2,0.6
		c-0.3,0.4-0.4,1.5-0.4,3.5v17.4c0,2.2,0.1,3.5,0.3,4c0.2,0.5,0.6,0.8,1.2,0.8c0.7,0,1.1-0.3,1.3-0.9c0.2-0.6,0.3-2,0.3-4.2V84.7z"
		/>
	<path class="st0" d="M91.6,75.1V100c0,2.8-0.1,4.8-0.3,5.9c-0.2,1.1-0.7,2.3-1.6,3.5s-2.1,2.1-3.6,2.7c-1.5,0.6-3.2,0.9-5.2,0.9
		c-2.2,0-4.2-0.4-5.9-1.1c-1.7-0.7-3-1.7-3.8-2.9c-0.8-1.2-1.3-2.4-1.5-3.7c-0.2-1.3-0.2-4.1-0.2-8.3v-22h9.7V103
		c0,1.6,0.1,2.7,0.3,3.1s0.5,0.7,1.1,0.7c0.6,0,1-0.2,1.2-0.7c0.2-0.5,0.3-1.7,0.3-3.5V75.1H91.6z"/>
	<path class="st0" d="M95.4,75.1h6.8c4.6,0,7.7,0.2,9.3,0.5s2.9,1.3,4,2.7c1,1.4,1.5,3.8,1.5,6.9c0,2.9-0.4,4.8-1.1,5.8
		c-0.7,1-2.1,1.6-4.3,1.8c1.9,0.5,3.2,1.1,3.9,1.9s1.1,1.5,1.2,2.2c0.2,0.7,0.2,2.5,0.2,5.5v9.8h-9V100c0-2-0.2-3.2-0.5-3.7
		c-0.3-0.5-1.1-0.7-2.5-0.7v16.8h-9.7V75.1z M105.1,81.5v8.3c1.1,0,1.9-0.1,2.3-0.4c0.4-0.3,0.7-1.3,0.7-2.9v-2c0-1.2-0.2-2-0.6-2.3
		C106.9,81.7,106.2,81.5,105.1,81.5z"/>
	<path class="st0" d="M129,75.1h9.7c3,0,5.4,0.2,6.9,0.7c1.6,0.5,2.8,1.4,3.8,2.9c1,1.4,1.4,3.8,1.4,7c0,2.2-0.3,3.7-1,4.5
		c-0.7,0.9-2,1.5-4,2c2.2,0.5,3.8,1.3,4.6,2.5c0.8,1.2,1.2,3,1.2,5.4v3.5c0,2.5-0.3,4.4-0.9,5.6c-0.6,1.2-1.5,2-2.7,2.5
		s-3.8,0.7-7.7,0.7H129V75.1z M138.7,81.5v8.3c0.4,0,0.7,0,1,0c0.9,0,1.6-0.2,1.8-0.7c0.3-0.5,0.4-1.8,0.4-4c0-1.2-0.1-2-0.3-2.4
		c-0.2-0.5-0.5-0.8-0.8-0.9C140.4,81.6,139.7,81.5,138.7,81.5z M138.7,95.6V106c1.4,0,2.2-0.3,2.6-0.6c0.4-0.4,0.6-1.3,0.6-2.8V99
		c0-1.6-0.2-2.6-0.5-2.9C141,95.8,140.1,95.6,138.7,95.6z"/>
	<path class="st0" d="M155,75.1h6.8c4.6,0,7.7,0.2,9.3,0.5c1.6,0.4,2.9,1.3,4,2.7c1,1.4,1.5,3.8,1.5,6.9c0,2.9-0.4,4.8-1.1,5.8
		c-0.7,1-2.1,1.6-4.3,1.8c1.9,0.5,3.2,1.1,3.9,1.9c0.7,0.8,1.1,1.5,1.2,2.2c0.2,0.7,0.2,2.5,0.2,5.5v9.8h-9V100c0-2-0.2-3.2-0.5-3.7
		c-0.3-0.5-1.1-0.7-2.5-0.7v16.8H155V75.1z M164.7,81.5v8.3c1.1,0,1.9-0.1,2.3-0.4c0.4-0.3,0.7-1.3,0.7-2.9v-2c0-1.2-0.2-2-0.6-2.3
		C166.6,81.7,165.8,81.5,164.7,81.5z"/>
	<path class="st0" d="M197.1,75.1l5.5,37.2h-9.9l-0.5-6.7h-3.5l-0.6,6.7h-10l4.9-37.2H197.1z M192,99.1c-0.5-4.2-1-9.4-1.5-15.6
		c-1,7.1-1.6,12.3-1.9,15.6H192z"/>
	<path class="st0" d="M214,75.1v37.2h-9.7V75.1H214z"/>
	<path class="st0" d="M239.5,75.1v37.2H231l-5-16.9v16.9h-8.1V75.1h8.1l5.4,16.8V75.1H239.5z"/>
	<path class="st0" d="M263.8,86.4h-9v-2.8c0-1.3-0.1-2.1-0.3-2.5c-0.2-0.4-0.6-0.5-1.1-0.5c-0.6,0-1,0.2-1.3,0.7s-0.4,1.2-0.4,2.2
		c0,1.2,0.2,2.2,0.5,2.8c0.3,0.6,1.2,1.4,2.7,2.3c4.3,2.6,7,4.7,8.1,6.3c1.1,1.6,1.7,4.3,1.7,7.9c0,2.7-0.3,4.6-0.9,5.9
		c-0.6,1.3-1.8,2.3-3.6,3.2s-3.8,1.3-6.2,1.3c-2.6,0-4.8-0.5-6.6-1.5c-1.8-1-3-2.2-3.6-3.7c-0.6-1.5-0.9-3.7-0.9-6.5V99h9v4.5
		c0,1.4,0.1,2.3,0.4,2.7s0.7,0.6,1.3,0.6s1.1-0.3,1.4-0.8c0.3-0.5,0.5-1.3,0.5-2.3c0-2.2-0.3-3.6-0.9-4.3c-0.6-0.7-2.1-1.8-4.5-3.4
		c-2.4-1.6-4-2.8-4.8-3.5c-0.8-0.7-1.4-1.7-1.9-3c-0.5-1.3-0.8-2.9-0.8-4.9c0-2.8,0.4-4.9,1.1-6.3c0.7-1.3,1.9-2.3,3.5-3.1
		s3.6-1.1,5.9-1.1c2.5,0,4.7,0.4,6.4,1.2c1.8,0.8,2.9,1.8,3.5,3.1c0.6,1.2,0.9,3.3,0.9,6.3V86.4z"/>
	<path class="st0" d="M277.6,75.1l-1.5,28h-7.2l-1.5-28H277.6z M276.8,104.9v7.4h-8.7v-7.4H276.8z"/>
</g>
</svg>
