<?xml version="1.0" encoding="utf-8"?>
<!-- Generator: Adobe Illustrator 19.2.1, SVG Export Plug-In . SVG Version: 6.00 Build 0)  -->
<svg version="1.1" id="Layer_1" xmlns="http://www.w3.org/2000/svg" xmlns:xlink="http://www.w3.org/1999/xlink" x="0px" y="0px"
	 width="300px" height="126px" viewBox="0 0 300 126" style="enable-background:new 0 0 300 126;" xml:space="preserve">
<style type="text/css">
	.st0{fill:#FFFFFF;}
</style>
<g>
	<path class="st0" d="M54,66.3l-4.5,38.6H37c-1.1-5.9-2.2-12.7-3-20.2c-0.4,3.2-1.3,10-2.8,20.2H18.7l-4.5-38.6h9.8L25,79.8l1,13
		c0.4-6.7,1.3-15.6,2.8-26.5h10.4c0.1,1.1,0.5,5.4,1.1,12.7l1.1,14.7c0.6-9.3,1.5-18.5,2.8-27.4H54z"/>
	<path class="st0" d="M66,66.3v38.6H56V66.3H66z"/>
	<path class="st0" d="M92.4,66.3v38.6h-8.8l-5.2-17.5v17.5H70V66.3h8.4l5.6,17.4V66.3H92.4z"/>
	<path class="st0" d="M105.1,66.3h10.1c2.7,0,4.8,0.2,6.3,0.6c1.5,0.4,2.6,1,3.3,1.9c0.7,0.8,1.2,1.8,1.5,2.9
		c0.3,1.2,0.4,2.9,0.4,5.4v3.4c0,2.5-0.3,4.3-0.8,5.4c-0.5,1.1-1.4,2-2.8,2.6s-3.1,0.9-5.3,0.9h-2.7v15.5h-10V66.3z M115.1,72.9v9.8
		c0.3,0,0.5,0,0.7,0c0.9,0,1.6-0.2,1.9-0.7c0.4-0.5,0.5-1.4,0.5-2.8v-3.2c0-1.3-0.2-2.2-0.6-2.6C117.3,73.1,116.4,72.9,115.1,72.9z"
		/>
	<path class="st0" d="M129.6,66.3h7.1c4.7,0,7.9,0.2,9.6,0.5c1.7,0.4,3,1.3,4.1,2.8s1.6,3.9,1.6,7.2c0,3-0.4,5-1.1,6.1
		c-0.7,1-2.2,1.7-4.4,1.9c2,0.5,3.3,1.2,4,2s1.1,1.6,1.3,2.3c0.2,0.7,0.3,2.6,0.3,5.7v10.2h-9.3V92.1c0-2.1-0.2-3.3-0.5-3.8
		c-0.3-0.5-1.2-0.7-2.6-0.7v17.4h-10V66.3z M139.6,72.9v8.6c1.1,0,1.9-0.2,2.4-0.5c0.5-0.3,0.7-1.3,0.7-3v-2.1c0-1.2-0.2-2-0.7-2.4
		C141.6,73.1,140.8,72.9,139.6,72.9z"/>
	<path class="st0" d="M165.9,66.3v38.6h-10V66.3H165.9z"/>
	<path class="st0" d="M186.7,66.3V74l-7.5,23.2h7.5v7.7h-18.5v-5.6L176,74h-6.8v-7.7H186.7z"/>
	<path class="st0" d="M189.3,66.3h16.7V74h-6.7v7.3h6.3v7.3h-6.3v8.5h7.4v7.7h-17.4V66.3z"/>
	<path class="st0" d="M230.9,78h-9.3v-2.9c0-1.3-0.1-2.2-0.4-2.6c-0.2-0.4-0.6-0.5-1.2-0.5c-0.6,0-1.1,0.2-1.4,0.7
		c-0.3,0.5-0.5,1.2-0.5,2.2c0,1.3,0.2,2.3,0.5,2.9c0.3,0.7,1.3,1.4,2.8,2.4c4.5,2.7,7.3,4.8,8.4,6.5c1.2,1.7,1.7,4.4,1.7,8.2
		c0,2.8-0.3,4.8-1,6.1c-0.6,1.3-1.9,2.4-3.7,3.3c-1.8,0.9-4,1.3-6.4,1.3c-2.7,0-5-0.5-6.9-1.5c-1.9-1-3.1-2.3-3.7-3.9
		s-0.9-3.8-0.9-6.7v-2.5h9.3v4.7c0,1.4,0.1,2.4,0.4,2.8c0.3,0.4,0.7,0.6,1.4,0.6s1.2-0.3,1.5-0.8c0.3-0.5,0.5-1.3,0.5-2.3
		c0-2.3-0.3-3.8-0.9-4.5c-0.6-0.7-2.2-1.9-4.7-3.5c-2.5-1.7-4.1-2.9-5-3.6s-1.5-1.8-2-3.1s-0.8-3-0.8-5.1c0-3,0.4-5.1,1.1-6.5
		c0.8-1.4,2-2.4,3.7-3.2c1.7-0.8,3.7-1.2,6.1-1.2c2.6,0,4.8,0.4,6.7,1.3c1.8,0.8,3.1,1.9,3.6,3.2c0.6,1.3,0.9,3.5,0.9,6.5V78z"/>
	<path class="st0" d="M260.8,66.3l5.7,38.6h-10.3l-0.5-6.9h-3.6l-0.6,6.9h-10.4l5.1-38.6H260.8z M255.5,91.1
		c-0.5-4.4-1-9.8-1.5-16.2c-1,7.4-1.7,12.8-1.9,16.2H255.5z"/>
	<path class="st0" d="M285.8,66.3V74h-6v30.9h-10V74h-5.9v-7.7H285.8z"/>
</g>
</svg>
