<?xml version="1.0" encoding="utf-8"?>
<!-- Generator: Adobe Illustrator 19.2.1, SVG Export Plug-In . SVG Version: 6.00 Build 0)  -->
<svg version="1.1" id="Layer_1" xmlns="http://www.w3.org/2000/svg" xmlns:xlink="http://www.w3.org/1999/xlink" x="0px" y="0px"
	 width="300px" height="250px" viewBox="0 0 300 250" style="enable-background:new 0 0 300 250;" xml:space="preserve">
<style type="text/css">
	.st0{fill:#FCAF17;}
</style>
<g>
	<path class="st0" d="M38,13.3h-4.2V12c0-0.7,0-0.9-0.1-1.2c-0.1-0.1-0.3-0.3-0.5-0.3c-0.3,0-0.5,0.1-0.7,0.4
		c-0.1,0.3-0.3,0.5-0.3,1.1c0,0.5,0.1,1.1,0.3,1.3c0.1,0.3,0.5,0.7,1.3,1.1c2,1.2,3.3,2.3,3.8,2.9s0.8,2,0.8,3.7
		c0,1.2-0.1,2.1-0.4,2.8c-0.3,0.5-0.8,1.1-1.7,1.5c-0.9,0.4-1.9,0.7-2.9,0.7c-1.2,0-2.3-0.3-3.2-0.7c-0.8-0.4-1.5-1.1-1.7-1.7
		c-0.3-0.7-0.4-1.7-0.4-3.1v-1.2h4.2v2.1c0,0.7,0,1.1,0.1,1.3c0.1,0.1,0.3,0.3,0.7,0.3c0.3,0,0.5-0.1,0.7-0.4
		c0.1-0.3,0.3-0.5,0.3-1.1c0-1.1-0.1-1.7-0.4-2c-0.3-0.3-1.1-0.8-2.1-1.6c-1.2-0.8-1.9-1.3-2.3-1.6c-0.4-0.4-0.7-0.8-0.9-1.5
		c-0.3-0.7-0.4-1.3-0.4-2.3c0-1.3,0.1-2.4,0.5-2.9c0.4-0.7,0.9-1.1,1.7-1.5c0.8-0.4,1.7-0.5,2.8-0.5c1.2,0,2.3,0.1,3.1,0.5
		s1.3,0.9,1.6,1.5s0.4,1.6,0.4,2.9V13.3z"/>
	<path class="st0" d="M50.1,8v17.5h-4l-2.4-8v8h-3.8V8h3.8l2.5,7.8V8H50.1z"/>
	<path class="st0" d="M56.4,8v17.5h-4.5V8H56.4z"/>
	<path class="st0" d="M69,8l-2.7,8l2.9,9.6h-4.6L62.8,18v7.6h-4.5V8h4.5v6.8l2-6.8H69z"/>
	<path class="st0" d="M70.1,8h7.6v3.5h-3.1v3.3h2.8v3.3h-2.8V22h3.3v3.5h-8V8H70.1z"/>
	<path class="st0" d="M79.4,8h3.2c2.1,0,3.6,0.1,4.4,0.3c0.8,0.1,1.3,0.5,1.9,1.3c0.5,0.7,0.7,1.7,0.7,3.3c0,1.3-0.1,2.3-0.5,2.8
		c-0.4,0.5-1.1,0.8-2,0.8c0.9,0.3,1.5,0.5,1.9,0.9c0.3,0.4,0.5,0.7,0.5,1.1c0.1,0.3,0.1,1.2,0.1,2.7v4.6h-4.2V20
		c0-0.9-0.1-1.5-0.3-1.7c-0.1-0.3-0.5-0.4-1.2-0.4v8h-4.5V8H79.4z M83.9,11.1v3.8c0.5,0,0.9-0.1,1.1-0.3c0.3-0.1,0.3-0.5,0.3-1.3
		v-0.9c0-0.5-0.1-0.9-0.3-1.1C84.8,11.1,84.4,11.1,83.9,11.1z"/>
	<path class="st0" d="M100.9,13.3h-4.2V12c0-0.7,0-0.9-0.1-1.2c-0.1-0.1-0.3-0.3-0.5-0.3c-0.3,0-0.5,0.1-0.7,0.4
		c-0.1,0.3-0.3,0.5-0.3,1.1c0,0.5,0.1,1.1,0.3,1.3c0.1,0.3,0.5,0.7,1.3,1.1c2,1.2,3.3,2.3,3.8,2.9c0.5,0.8,0.8,2,0.8,3.7
		c0,1.2-0.1,2.1-0.4,2.8c-0.3,0.5-0.8,1.1-1.7,1.5c-0.9,0.4-1.9,0.7-2.9,0.7c-1.2,0-2.3-0.3-3.2-0.7c-0.8-0.4-1.5-1.1-1.7-1.7
		c-0.3-0.7-0.4-1.7-0.4-3.1v-1.2h4.2v2.1c0,0.7,0,1.1,0.1,1.3c0.1,0.1,0.3,0.3,0.7,0.3s0.5-0.1,0.7-0.4c0.1-0.3,0.3-0.5,0.3-1.1
		c0-1.1-0.1-1.7-0.4-2c-0.3-0.3-1.1-0.8-2.1-1.6c-1.2-0.8-1.9-1.3-2.3-1.6c-0.4-0.4-0.7-0.8-0.9-1.5c-0.3-0.7-0.4-1.3-0.4-2.3
		c0-1.3,0.1-2.4,0.5-2.9c0.4-0.7,0.9-1.1,1.7-1.5c0.8-0.4,1.7-0.5,2.8-0.5c1.2,0,2.3,0.1,3.1,0.5c0.8,0.4,1.3,0.9,1.6,1.5
		s0.4,1.6,0.4,2.9C100.9,12.7,100.9,13.3,100.9,13.3z"/>
	<path class="st0" d="M107.3,8v14.1h2.8v3.5h-7.3V8H107.3z"/>
	<path class="st0" d="M119.6,8l2.7,17.5h-4.6l-0.3-3.2h-1.7l-0.3,3.2h-4.6L113,8H119.6z M117.2,19.3c-0.3-2-0.4-4.4-0.7-7.3
		c-0.5,3.3-0.8,5.8-0.9,7.3H117.2z"/>
	<path class="st0" d="M133.2,8v17.5h-4l-2.4-8v8h-3.8V8h3.8l2.5,7.8V8H133.2z"/>
	<path class="st0" d="M139.5,8v17.5H135V8H139.5z"/>
	<path class="st0" d="M151.6,8v17.5h-4l-2.4-8v8h-3.8V8h3.8l2.5,7.8V8H151.6z"/>
	<path class="st0" d="M163.8,14.5h-4.5v-1.6c0-1.1,0-1.6-0.1-1.9c-0.1-0.3-0.3-0.4-0.7-0.4c-0.3,0-0.5,0.1-0.5,0.3
		c-0.1,0.3-0.1,0.8-0.1,1.7V21c0,0.8,0,1.3,0.1,1.6s0.3,0.4,0.7,0.4s0.5-0.1,0.7-0.4c0.1-0.3,0.1-0.8,0.1-1.6v-2.3h-0.9v-2.7h5.3
		v9.4h-2.9l-0.4-1.2c-0.3,0.5-0.7,0.9-1.2,1.2c-0.5,0.3-1.1,0.4-1.7,0.4c-0.8,0-1.5-0.1-2.1-0.5c-0.7-0.4-1.2-0.8-1.5-1.3
		c-0.4-0.5-0.5-1.1-0.7-1.7c-0.1-0.7-0.1-1.5-0.1-2.7v-5.2c0-1.7,0.1-2.9,0.3-3.6c0.1-0.8,0.7-1.5,1.6-2.1c0.8-0.7,2-0.9,3.3-0.9
		c1.3,0,2.4,0.3,3.3,0.8c0.9,0.5,1.5,1.2,1.7,2c0.3,0.8,0.4,1.9,0.4,3.3V14.5z"/>
	<path class="st0" d="M170.3,8l-0.7,13.1h-3.3L165.7,8H170.3z M169.9,22.1v3.5h-4.1v-3.5H169.9z"/>
</g>
</svg>
