<?xml version="1.0" encoding="utf-8"?>
<!-- Generator: Adobe Illustrator 19.2.1, SVG Export Plug-In . SVG Version: 6.00 Build 0)  -->
<svg version="1.1" id="Layer_1" xmlns="http://www.w3.org/2000/svg" xmlns:xlink="http://www.w3.org/1999/xlink" x="0px" y="0px"
	 width="300px" height="250px" viewBox="0 0 300 250" style="enable-background:new 0 0 300 250;" xml:space="preserve">
<style type="text/css">
	.st0{fill:#FFFFFF;}
</style>
<g>
	<path class="st0" d="M136.3,32.8h-4.5V18.9h-1.3v13.9h-4.5V15.4h10.4V32.8z"/>
	<path class="st0" d="M138.1,15.4h4.6c1.2,0,2.2,0.1,2.8,0.3c0.7,0.2,1.2,0.5,1.5,0.8c0.3,0.4,0.6,0.8,0.7,1.3
		c0.1,0.5,0.2,1.3,0.2,2.4v1.5c0,1.1-0.1,1.9-0.3,2.4c-0.2,0.5-0.7,0.9-1.3,1.2c-0.6,0.3-1.4,0.4-2.4,0.4h-1.2v7h-4.5V15.4z
		 M142.6,18.4v4.4c0.1,0,0.2,0,0.3,0c0.4,0,0.7-0.1,0.9-0.3c0.2-0.2,0.2-0.6,0.2-1.3v-1.4c0-0.6-0.1-1-0.3-1.2
		C143.6,18.5,143.2,18.4,142.6,18.4z"/>
	<path class="st0" d="M159.5,25.6c0,1.8,0,3-0.1,3.7c-0.1,0.7-0.3,1.4-0.8,2c-0.4,0.6-1,1.1-1.8,1.4c-0.7,0.3-1.6,0.5-2.6,0.5
		c-0.9,0-1.8-0.2-2.5-0.5c-0.7-0.3-1.3-0.8-1.8-1.4c-0.5-0.6-0.7-1.3-0.8-2s-0.1-2-0.1-3.8v-3c0-1.8,0-3,0.1-3.7
		c0.1-0.7,0.3-1.4,0.8-2c0.4-0.6,1-1.1,1.8-1.4c0.7-0.3,1.6-0.5,2.6-0.5c0.9,0,1.8,0.2,2.5,0.5c0.7,0.3,1.3,0.8,1.8,1.4
		c0.5,0.6,0.7,1.3,0.8,2c0.1,0.7,0.1,2,0.1,3.8V25.6z M154.9,19.9c0-0.8,0-1.3-0.1-1.6c-0.1-0.2-0.3-0.3-0.6-0.3
		c-0.2,0-0.4,0.1-0.5,0.3c-0.1,0.2-0.2,0.7-0.2,1.6V28c0,1,0,1.6,0.1,1.9c0.1,0.2,0.3,0.4,0.6,0.4c0.3,0,0.5-0.1,0.6-0.4
		c0.1-0.3,0.1-0.9,0.1-1.9V19.9z"/>
	<path class="st0" d="M161.2,15.4h4.5l0,7.4c0.9,0,1.3-0.5,1.3-1.4l0.1-3.4c0-1.3,0.3-2.1,0.7-2.5h4.2c-0.4,0.4-0.6,1.3-0.6,2.6l0,3
		c0,1.8-1,2.8-3.1,3.1c2.1,0.3,3.1,1.3,3.1,3.1l0,2.8c0,1.3,0.2,2.3,0.6,2.8h-4.2c-0.5-0.4-0.7-1.3-0.7-2.5v-3.4
		c0-0.4-0.1-0.8-0.4-1c-0.3-0.3-0.6-0.4-1-0.4l0,7.4h-4.5V15.4z"/>
	<path class="st0" d="M180.8,15.4l2.6,17.4h-4.6l-0.2-3.1h-1.6l-0.3,3.1H172l2.3-17.4H180.8z M178.4,26.6c-0.2-2-0.5-4.4-0.7-7.3
		c-0.5,3.3-0.8,5.8-0.9,7.3H178.4z"/>
	<path class="st0" d="M190.4,26.1c-0.4,0.4-0.8,0.7-1.4,0.9c-0.6,0.2-1.2,0.4-1.8,0.4c-1.1,0-1.9-0.3-2.4-0.9
		c-0.5-0.6-0.7-1.5-0.7-2.8v-8.3h4.5v7.8c0,0.7,0.1,1.1,0.2,1.4c0.1,0.3,0.3,0.4,0.6,0.4c0.7,0,1-0.6,1-1.7v-7.9h4.5v17.4h-4.5V26.1
		z"/>
	<path class="st0" d="M204.5,15.4l2.6,17.4h-4.6l-0.2-3.1h-1.6l-0.3,3.1h-4.7l2.3-17.4H204.5z M202.1,26.6c-0.2-2-0.5-4.4-0.7-7.3
		c-0.5,3.3-0.8,5.8-0.9,7.3H202.1z"/>
	<path class="st0" d="M218,32.8h-3.8v-7.9l-2.4,7.9h-4V15.4h3.8v7.9l2.5-7.9h3.8V32.8z M214.2,11.6h1.8c0,1-0.3,1.8-0.9,2.4
		c-0.5,0.6-1.3,0.9-2.2,0.9c-0.9,0-1.7-0.3-2.2-0.9c-0.5-0.6-0.8-1.4-0.8-2.4h1.8c0.1,1,0.5,1.5,1.2,1.5
		C213.7,13.1,214.1,12.6,214.2,11.6z"/>
	<path class="st0" d="M237.7,15.4v17.4h-4l0-11.8l-1.6,11.8h-2.8l-1.7-11.5l0,11.5h-4V15.4h5.9c0.2,1,0.4,2.3,0.5,3.7l0.6,4.4l1-8.1
		H237.7z"/>
	<path class="st0" d="M249.9,25.6c0,1.8,0,3-0.1,3.7c-0.1,0.7-0.3,1.4-0.8,2c-0.4,0.6-1,1.1-1.8,1.4c-0.7,0.3-1.6,0.5-2.6,0.5
		c-0.9,0-1.8-0.2-2.5-0.5c-0.7-0.3-1.3-0.8-1.8-1.4s-0.7-1.3-0.8-2s-0.1-2-0.1-3.8v-3c0-1.8,0-3,0.1-3.7c0.1-0.7,0.3-1.4,0.8-2
		c0.4-0.6,1-1.1,1.8-1.4c0.7-0.3,1.6-0.5,2.6-0.5c0.9,0,1.8,0.2,2.5,0.5c0.7,0.3,1.3,0.8,1.8,1.4c0.5,0.6,0.7,1.3,0.8,2
		c0.1,0.7,0.1,2,0.1,3.8V25.6z M245.3,19.9c0-0.8,0-1.3-0.1-1.6c-0.1-0.2-0.3-0.3-0.6-0.3c-0.2,0-0.4,0.1-0.5,0.3
		c-0.1,0.2-0.2,0.7-0.2,1.6V28c0,1,0,1.6,0.1,1.9c0.1,0.2,0.3,0.4,0.6,0.4c0.3,0,0.5-0.1,0.6-0.4c0.1-0.3,0.1-0.9,0.1-1.9V19.9z"/>
	<path class="st0" d="M259.6,22.9c0.7,0.2,1.2,0.6,1.5,1.1c0.3,0.5,0.5,1.7,0.5,3.6c0,1.4-0.2,2.5-0.5,3.2c-0.3,0.8-0.9,1.3-1.6,1.7
		c-0.8,0.4-1.8,0.6-3,0.6c-1.4,0-2.5-0.2-3.2-0.7c-0.8-0.5-1.3-1-1.5-1.7c-0.2-0.7-0.4-1.8-0.4-3.5v-1.4h4.3v2.8
		c0,0.8,0,1.2,0.1,1.4c0.1,0.2,0.3,0.3,0.6,0.3c0.3,0,0.6-0.1,0.7-0.4s0.2-0.9,0.2-2v-1.2c0-0.7-0.1-1.2-0.2-1.5
		c-0.2-0.3-0.4-0.5-0.7-0.6c-0.3-0.1-0.9-0.2-1.7-0.2v-2.5c1,0,1.7,0,1.9-0.1c0.2-0.1,0.4-0.3,0.5-0.5s0.2-0.7,0.2-1.2v-1
		c0-0.6-0.1-1-0.2-1.2c-0.1-0.2-0.3-0.3-0.6-0.3c-0.3,0-0.5,0.1-0.6,0.3c-0.1,0.2-0.2,0.6-0.2,1.3v1.4h-4.3v-1.5
		c0-1.7,0.4-2.8,1.1-3.4c0.8-0.6,2-0.9,3.6-0.9c2.1,0,3.5,0.4,4.2,1.2c0.7,0.8,1.1,1.9,1.1,3.4c0,1-0.1,1.7-0.4,2.1
		C260.7,22.2,260.2,22.6,259.6,22.9z"/>
	<path class="st0" d="M271.1,18.9h-3.3v13.9h-4.5V15.4h7.9V18.9z"/>
	<path class="st0" d="M282.4,32.8h-3.8v-7.9l-2.4,7.9h-4V15.4h3.8v7.9l2.5-7.9h3.8V32.8z"/>
	<path class="st0" d="M288.9,15.4l-0.7,13.1h-3.4l-0.7-13.1H288.9z M288.5,29.3v3.5h-4.1v-3.5H288.5z"/>
</g>
</svg>
