<?xml version="1.0" encoding="utf-8"?>
<!-- Generator: Adobe Illustrator 19.2.1, SVG Export Plug-In . SVG Version: 6.00 Build 0)  -->
<svg version="1.1" id="Layer_1" xmlns="http://www.w3.org/2000/svg" xmlns:xlink="http://www.w3.org/1999/xlink" x="0px" y="0px"
	 width="300px" height="600px" viewBox="0 0 300 600" style="enable-background:new 0 0 300 600;" xml:space="preserve">
<style type="text/css">
	.st0{fill:#FCAF17;}
</style>
<g>
	<path class="st0" d="M45.9,522.9h5.9v1.4h-4.6v10.4h-1.3V522.9z"/>
	<path class="st0" d="M52.5,530.4c0-1.5,0.3-2.6,0.9-3.3c0.6-0.7,1.4-1.1,2.3-1.1c0.9,0,1.7,0.4,2.3,1.1c0.6,0.7,0.9,1.8,0.9,3.2
		c0,1.5-0.3,2.7-0.9,3.4c-0.6,0.7-1.4,1.1-2.4,1.1c-0.9,0-1.7-0.4-2.3-1.1C52.8,533,52.5,531.9,52.5,530.4z M53.7,530.4
		c0,1.1,0.2,1.9,0.6,2.5c0.4,0.5,0.9,0.8,1.5,0.8c0.6,0,1-0.3,1.4-0.8c0.4-0.5,0.6-1.4,0.6-2.5c0-1.1-0.2-1.9-0.6-2.5
		c-0.4-0.5-0.9-0.8-1.5-0.8c-0.6,0-1,0.3-1.4,0.8C53.9,528.5,53.7,529.3,53.7,530.4z"/>
	<path class="st0" d="M60.5,537.9v-11.8h1.1v1.1c0.3-0.5,0.6-0.8,0.9-1c0.3-0.2,0.7-0.3,1.1-0.3c0.6,0,1,0.2,1.5,0.5
		c0.4,0.3,0.8,0.8,1.1,1.5s0.4,1.5,0.4,2.4c0,1.5-0.3,2.6-0.9,3.4c-0.6,0.8-1.3,1.2-2.1,1.2c-0.4,0-0.7-0.1-1-0.3
		c-0.3-0.2-0.6-0.5-0.8-0.8v4.1H60.5z M61.5,530.5c0,1.1,0.2,1.9,0.6,2.4c0.4,0.5,0.8,0.8,1.3,0.8c0.5,0,0.9-0.3,1.3-0.8
		c0.4-0.5,0.6-1.4,0.6-2.5c0-1.1-0.2-1.9-0.6-2.5s-0.8-0.8-1.3-0.8c-0.5,0-0.9,0.3-1.3,0.9C61.7,528.5,61.5,529.4,61.5,530.5z"/>
	<path class="st0" d="M73.5,526.2v8.5h-1.2v-3.3h-0.7c-0.4,0-0.7,0.1-0.9,0.2c-0.2,0.1-0.5,0.6-0.9,1.3l-1,1.9h-1.5l1.3-2.3
		c0.4-0.7,0.8-1.1,1.2-1.2c-0.7-0.1-1.2-0.4-1.5-0.9c-0.3-0.5-0.5-1-0.5-1.7c0-0.8,0.2-1.4,0.7-1.8c0.4-0.4,1.1-0.7,1.8-0.7H73.5z
		 M72.3,527.3h-1.7c-0.7,0-1.2,0.1-1.4,0.4c-0.2,0.3-0.3,0.6-0.3,0.9c0,0.5,0.2,0.9,0.5,1.1c0.3,0.2,0.8,0.4,1.6,0.4h1.3V527.3z"/>
	<path class="st0" d="M74.8,526.2H76v1.6c0,0.7,0,1.2,0.1,1.5c0.1,0.3,0.2,0.6,0.5,0.8c0.3,0.2,0.6,0.3,0.9,0.3c0.5,0,1-0.1,1.8-0.4
		v-3.9h1.2v8.5h-1.2v-3.4c-0.7,0.3-1.4,0.4-2,0.4c-0.7,0-1.3-0.3-1.7-0.8c-0.5-0.5-0.7-1.4-0.7-2.5V526.2z"/>
	<path class="st0" d="M86.8,533.6c-0.4,0.4-0.8,0.7-1.2,0.9c-0.4,0.2-0.9,0.3-1.3,0.3c-0.7,0-1.3-0.2-1.7-0.7
		c-0.4-0.4-0.7-1-0.7-1.8c0-0.5,0.1-0.9,0.3-1.3c0.2-0.4,0.5-0.7,0.8-0.9c0.4-0.2,0.9-0.4,1.6-0.5c1-0.1,1.7-0.3,2.1-0.5l0-0.4
		c0-0.6-0.1-1-0.3-1.2c-0.3-0.3-0.7-0.5-1.4-0.5c-0.6,0-1,0.1-1.2,0.3c-0.3,0.2-0.5,0.7-0.6,1.3l-1.2-0.2c0.2-0.9,0.5-1.6,1-2
		c0.5-0.4,1.2-0.6,2.2-0.6c0.7,0,1.3,0.1,1.7,0.4c0.4,0.3,0.7,0.6,0.8,1c0.1,0.4,0.2,1,0.2,1.8v1.9c0,1.3,0,2.2,0.1,2.5
		c0.1,0.4,0.2,0.7,0.3,1h-1.2C87,534.4,86.9,534,86.8,533.6z M86.7,530.4c-0.4,0.2-1.1,0.4-1.9,0.5c-0.5,0.1-0.8,0.2-1,0.3
		c-0.2,0.1-0.4,0.3-0.5,0.5c-0.1,0.2-0.2,0.4-0.2,0.7c0,0.4,0.1,0.7,0.4,1c0.3,0.2,0.6,0.4,1,0.4c0.4,0,0.8-0.1,1.2-0.3
		c0.3-0.2,0.6-0.5,0.8-0.9c0.2-0.4,0.3-0.9,0.3-1.6V530.4z"/>
	<path class="st0" d="M95.3,526.2v8.5h-1.2v-3.3h-0.7c-0.4,0-0.7,0.1-0.9,0.2c-0.2,0.1-0.5,0.6-0.9,1.3l-1,1.9h-1.5l1.3-2.3
		c0.4-0.7,0.8-1.1,1.2-1.2c-0.7-0.1-1.2-0.4-1.5-0.9c-0.3-0.5-0.5-1-0.5-1.7c0-0.8,0.2-1.4,0.7-1.8c0.4-0.4,1.1-0.7,1.8-0.7H95.3z
		 M94.1,527.3h-1.7c-0.7,0-1.2,0.1-1.4,0.4c-0.2,0.3-0.3,0.6-0.3,0.9c0,0.5,0.2,0.9,0.5,1.1c0.3,0.2,0.8,0.4,1.6,0.4h1.3V527.3z"/>
	<path class="st0" d="M101.4,526.2h5.5v8.5h-1.2v-7.3h-3.1v4.2c0,1,0,1.6-0.1,2c-0.1,0.3-0.2,0.6-0.4,0.8c-0.2,0.2-0.6,0.3-1,0.3
		c-0.3,0-0.6,0-0.9-0.1v-1.2c0.6,0,0.9,0,1-0.1c0.1,0,0.2-0.1,0.2-0.2c0.1-0.1,0.1-0.6,0.1-1.4V526.2z"/>
	<path class="st0" d="M108.7,526.2h1.2v6.5l3.3-6.5h1.3v8.5h-1.2v-6.5l-3.3,6.5h-1.3V526.2z"/>
	<path class="st0" d="M116.2,526.2h1.2v3.5h3.3v-3.5h1.2v8.5h-1.2v-3.8h-3.3v3.8h-1.2V526.2z"/>
	<path class="st0" d="M123.7,526.2h1.2v6.5l3.3-6.5h1.3v8.5h-1.2v-6.5l-3.3,6.5h-1.3V526.2z"/>
	<path class="st0" d="M136.7,526.2v8.5h-1.2v-3.3h-0.7c-0.4,0-0.7,0.1-0.9,0.2c-0.2,0.1-0.5,0.6-0.9,1.3l-1,1.9h-1.5l1.3-2.3
		c0.4-0.7,0.8-1.1,1.2-1.2c-0.7-0.1-1.2-0.4-1.5-0.9c-0.3-0.5-0.5-1-0.5-1.7c0-0.8,0.2-1.4,0.7-1.8c0.4-0.4,1.1-0.7,1.8-0.7H136.7z
		 M135.5,527.3h-1.7c-0.7,0-1.2,0.1-1.4,0.4c-0.2,0.3-0.3,0.6-0.3,0.9c0,0.5,0.2,0.9,0.5,1.1s0.8,0.4,1.6,0.4h1.3V527.3z"/>
	<path class="st0" d="M138.9,527.8v-1.6h1.3v1.6H138.9z M138.9,534.7V533h1.3v1.6H138.9z"/>
	<path class="st0" d="M148.5,532.8v-3.2h-2.6v-1.3h2.6V525h1.1v3.2h2.6v1.3h-2.6v3.2H148.5z"/>
	<path class="st0" d="M153.5,531.6l1.2-0.2c0.2,1.5,0.9,2.3,1.9,2.3c0.5,0,1-0.2,1.4-0.7c0.4-0.5,0.6-1.1,0.6-1.8
		c0-0.7-0.2-1.2-0.5-1.7c-0.4-0.4-0.8-0.6-1.3-0.6c-0.2,0-0.5,0.1-0.8,0.2l0.1-1.3l0.2,0c0.6,0,1.1-0.2,1.4-0.5
		c0.4-0.4,0.5-0.8,0.5-1.4c0-0.5-0.2-1-0.5-1.3c-0.3-0.3-0.7-0.5-1.1-0.5c-0.5,0-0.8,0.2-1.2,0.5c-0.3,0.4-0.5,0.9-0.6,1.6l-1.2-0.3
		c0.1-1,0.5-1.8,1-2.3c0.5-0.5,1.2-0.8,1.9-0.8c0.8,0,1.4,0.3,2,0.9c0.5,0.6,0.8,1.3,0.8,2.2c0,0.5-0.1,1-0.3,1.4s-0.6,0.7-1,1
		c0.4,0.1,0.7,0.3,1,0.5c0.3,0.2,0.5,0.6,0.6,1c0.2,0.4,0.2,0.9,0.2,1.4c0,1.1-0.3,2-1,2.7c-0.6,0.7-1.4,1-2.3,1
		c-0.8,0-1.5-0.3-2.1-0.9C153.9,533.4,153.6,532.6,153.5,531.6z"/>
	<path class="st0" d="M161.1,524.4v-1.4h6.2v1.1c-0.9,1.2-1.7,2.8-2.5,4.7c-0.7,1.9-1.1,3.9-1.2,5.8h-1.2c0-1,0.2-2.1,0.5-3.4
		c0.3-1.3,0.7-2.6,1.2-3.7s1.1-2.2,1.7-3H161.1z"/>
	<path class="st0" d="M168.5,531.6l1.2-0.1c0.1,0.7,0.3,1.3,0.7,1.7c0.3,0.4,0.7,0.5,1.2,0.5c0.6,0,1-0.3,1.5-0.8
		c0.4-0.5,0.6-1.2,0.6-2.1c0-0.8-0.2-1.5-0.6-2c-0.4-0.5-0.9-0.7-1.5-0.7c-0.4,0-0.7,0.1-1,0.3c-0.3,0.2-0.6,0.5-0.7,0.8l-1.1-0.2
		l0.9-6h4.8v1.4h-3.9l-0.5,3.2c0.6-0.5,1.2-0.7,1.8-0.7c0.8,0,1.5,0.3,2.1,1c0.6,0.7,0.9,1.6,0.9,2.8c0,1.2-0.3,2.1-0.9,3
		c-0.6,0.8-1.4,1.2-2.4,1.2c-0.8,0-1.5-0.3-2.1-0.9C168.9,533.4,168.6,532.6,168.5,531.6z"/>
	<path class="st0" d="M186,533.3v1.4h-6.4c0-0.6,0.2-1.2,0.5-1.9c0.4-0.7,1-1.5,2-2.5c1.1-1.1,1.8-2,2.2-2.6
		c0.3-0.6,0.5-1.2,0.5-1.7c0-0.6-0.2-1.1-0.5-1.5c-0.4-0.4-0.8-0.6-1.3-0.6c-0.6,0-1,0.2-1.4,0.6c-0.4,0.4-0.5,1-0.5,1.8l-1.2-0.2
		c0.1-1.1,0.4-2,1-2.5c0.6-0.6,1.3-0.9,2.2-0.9c1,0,1.7,0.3,2.2,1c0.5,0.7,0.8,1.4,0.8,2.3c0,0.7-0.2,1.5-0.6,2.2
		c-0.4,0.7-1.1,1.6-2.3,2.7c-0.7,0.7-1.2,1.2-1.4,1.5c-0.2,0.3-0.4,0.5-0.5,0.8H186z"/>
	<path class="st0" d="M187.3,531.6l1.2-0.1c0.1,0.7,0.3,1.3,0.7,1.7c0.3,0.4,0.7,0.5,1.2,0.5c0.6,0,1-0.3,1.5-0.8
		c0.4-0.5,0.6-1.2,0.6-2.1c0-0.8-0.2-1.5-0.6-2c-0.4-0.5-0.9-0.7-1.5-0.7c-0.4,0-0.7,0.1-1,0.3c-0.3,0.2-0.6,0.5-0.7,0.8l-1.1-0.2
		l0.9-6h4.8v1.4h-3.9l-0.5,3.2c0.6-0.5,1.2-0.7,1.8-0.7c0.8,0,1.5,0.3,2.1,1c0.6,0.7,0.9,1.6,0.9,2.8c0,1.2-0.3,2.1-0.9,3
		c-0.6,0.8-1.4,1.2-2.4,1.2c-0.8,0-1.5-0.3-2.1-0.9C187.7,533.4,187.4,532.6,187.3,531.6z"/>
	<path class="st0" d="M198.6,524.4v-1.4h6.2v1.1c-0.9,1.2-1.7,2.8-2.5,4.7c-0.7,1.9-1.1,3.9-1.2,5.8h-1.2c0-1,0.2-2.1,0.5-3.4
		c0.3-1.3,0.7-2.6,1.2-3.7s1.1-2.2,1.7-3H198.6z"/>
	<path class="st0" d="M206,528.9c0-2,0.3-3.5,0.8-4.5c0.5-1,1.3-1.5,2.4-1.5c0.9,0,1.6,0.4,2.2,1.2c0.6,1,1,2.6,1,4.8
		c0,2-0.3,3.5-0.8,4.5c-0.5,1-1.3,1.5-2.4,1.5c-0.9,0-1.7-0.4-2.3-1.3C206.3,532.6,206,531.1,206,528.9z M207.2,528.9
		c0,1.9,0.2,3.2,0.6,3.8c0.4,0.7,0.8,1,1.4,1c0.5,0,1-0.3,1.4-1c0.4-0.7,0.5-1.9,0.5-3.8c0-1.9-0.2-3.2-0.6-3.8
		c-0.4-0.6-0.8-1-1.4-1c-0.5,0-1,0.3-1.3,1C207.4,525.7,207.2,527,207.2,528.9z"/>
	<path class="st0" d="M215.3,528.3c-0.5-0.2-0.8-0.5-1.1-0.9c-0.2-0.4-0.4-0.9-0.4-1.5c0-0.9,0.3-1.6,0.8-2.2c0.5-0.6,1.2-0.8,2-0.8
		c0.8,0,1.5,0.3,2,0.9c0.5,0.6,0.8,1.3,0.8,2.2c0,0.6-0.1,1-0.4,1.4s-0.6,0.7-1.1,0.9c0.6,0.2,1,0.6,1.3,1.1
		c0.3,0.5,0.5,1.2,0.5,1.9c0,1-0.3,1.9-0.9,2.6c-0.6,0.7-1.4,1-2.3,1c-0.9,0-1.7-0.3-2.3-1c-0.6-0.7-0.9-1.5-0.9-2.6
		c0-0.8,0.2-1.4,0.5-1.9C214.3,528.8,214.8,528.5,215.3,528.3z M214.7,531.3c0,0.7,0.2,1.3,0.6,1.7c0.4,0.4,0.9,0.7,1.4,0.7
		c0.5,0,1-0.2,1.4-0.6s0.6-1,0.6-1.7c0-0.7-0.2-1.3-0.6-1.7c-0.4-0.4-0.9-0.7-1.4-0.7c-0.5,0-1,0.2-1.4,0.7
		C214.9,530,214.7,530.6,214.7,531.3z M215.1,525.8c0,0.6,0.2,1,0.5,1.4c0.3,0.3,0.7,0.5,1.1,0.5c0.4,0,0.8-0.2,1.1-0.5
		c0.3-0.3,0.5-0.8,0.5-1.3c0-0.5-0.2-1-0.5-1.3c-0.3-0.3-0.7-0.5-1.1-0.5c-0.4,0-0.8,0.2-1.1,0.5
		C215.3,524.9,215.1,525.3,215.1,525.8z"/>
	<path class="st0" d="M229.2,534.7H228v-9.2c-0.3,0.3-0.6,0.6-1.1,1c-0.5,0.3-0.9,0.6-1.3,0.8v-1.4c0.7-0.4,1.2-0.8,1.7-1.4
		c0.5-0.5,0.9-1.1,1.1-1.6h0.8V534.7z"/>
	<path class="st0" d="M235.7,534.7h-1.2v-9.2c-0.3,0.3-0.6,0.6-1.1,1c-0.5,0.3-0.9,0.6-1.3,0.8v-1.4c0.7-0.4,1.2-0.8,1.7-1.4
		c0.5-0.5,0.9-1.1,1.1-1.6h0.8V534.7z"/>
	<path class="st0" d="M242.5,528.9c0-2,0.3-3.5,0.8-4.5c0.5-1,1.3-1.5,2.4-1.5c0.9,0,1.6,0.4,2.2,1.2c0.6,1,1,2.6,1,4.8
		c0,2-0.3,3.5-0.8,4.5c-0.5,1-1.3,1.5-2.4,1.5c-0.9,0-1.7-0.4-2.3-1.3C242.8,532.6,242.5,531.1,242.5,528.9z M243.7,528.9
		c0,1.9,0.2,3.2,0.6,3.8c0.4,0.7,0.8,1,1.4,1c0.5,0,1-0.3,1.4-1c0.4-0.7,0.5-1.9,0.5-3.8c0-1.9-0.2-3.2-0.6-3.8
		c-0.4-0.6-0.8-1-1.4-1c-0.5,0-1,0.3-1.3,1C243.9,525.7,243.7,527,243.7,528.9z"/>
	<path class="st0" d="M250.2,532l1.1-0.1c0.2,1.2,0.7,1.9,1.6,1.9c0.4,0,0.8-0.1,1.1-0.4c0.3-0.3,0.6-0.8,0.8-1.4
		c0.2-0.7,0.3-1.5,0.3-2.4v-0.3c-0.2,0.5-0.6,0.9-1,1.1c-0.4,0.3-0.8,0.4-1.3,0.4c-0.8,0-1.5-0.3-2-1c-0.6-0.7-0.9-1.6-0.9-2.8
		c0-1.2,0.3-2.2,0.9-2.9c0.6-0.7,1.3-1.1,2.2-1.1c0.6,0,1.2,0.2,1.7,0.6c0.5,0.4,0.9,1,1.2,1.7c0.3,0.8,0.4,1.9,0.4,3.3
		c0,1.6-0.2,2.9-0.5,3.8c-0.3,0.9-0.7,1.5-1.2,2c-0.5,0.4-1.1,0.6-1.8,0.6c-0.7,0-1.3-0.2-1.8-0.8
		C250.6,533.6,250.3,532.9,250.2,532z M255,526.8c0-0.8-0.2-1.5-0.6-2c-0.4-0.5-0.8-0.7-1.3-0.7c-0.5,0-1,0.3-1.4,0.8
		c-0.4,0.5-0.6,1.2-0.6,2.1c0,0.8,0.2,1.4,0.6,1.8c0.4,0.5,0.8,0.7,1.4,0.7c0.5,0,1-0.2,1.3-0.7C254.9,528.3,255,527.6,255,526.8z"
		/>
	<path class="st0" d="M32.9,551.1v-11.8h3.6c0.9,0,1.5,0.1,1.9,0.2c0.6,0.2,1,0.6,1.3,1.1c0.3,0.6,0.5,1.2,0.5,2
		c0,1.1-0.3,1.9-0.8,2.6c-0.5,0.7-1.5,1-2.8,1h-2.5v4.8H32.9z M34.2,544.9h2.5c0.8,0,1.4-0.2,1.7-0.5c0.4-0.4,0.5-0.9,0.5-1.6
		c0-0.5-0.1-0.9-0.3-1.2c-0.2-0.3-0.4-0.6-0.7-0.7c-0.3-0.1-0.7-0.2-1.4-0.2h-2.5V544.9z"/>
	<path class="st0" d="M46.5,548.4l1.2,0.2c-0.2,0.9-0.6,1.6-1.1,2.1c-0.5,0.5-1.2,0.7-2,0.7c-1,0-1.8-0.4-2.4-1.1
		c-0.6-0.8-0.9-1.8-0.9-3.3c0-1.5,0.3-2.6,0.9-3.4s1.4-1.2,2.3-1.2c0.9,0,1.7,0.4,2.3,1.1c0.6,0.8,0.9,1.9,0.9,3.3l0,0.4h-5.2
		c0,1,0.3,1.7,0.7,2.2c0.4,0.5,0.9,0.7,1.4,0.7C45.6,550.1,46.2,549.5,46.5,548.4z M42.6,546h3.9c-0.1-0.7-0.2-1.3-0.5-1.7
		c-0.4-0.5-0.9-0.8-1.5-0.8c-0.5,0-1,0.2-1.4,0.7C42.9,544.7,42.7,545.3,42.6,546z"/>
	<path class="st0" d="M49.3,542.6h1.2v3.7c0.4,0,0.6-0.1,0.8-0.3c0.2-0.2,0.4-0.7,0.7-1.5c0.2-0.7,0.4-1.1,0.6-1.3
		c0.1-0.2,0.3-0.4,0.5-0.4c0.2-0.1,0.5-0.1,1-0.1h0.2v1.2l-0.4,0c-0.3,0-0.4,0-0.5,0.1c-0.1,0.1-0.2,0.3-0.3,0.5
		c-0.3,0.9-0.5,1.4-0.6,1.7c-0.2,0.2-0.4,0.5-0.7,0.7c0.5,0.2,1,0.7,1.5,1.7l1.3,2.6h-1.3l-1.3-2.6c-0.3-0.5-0.5-0.9-0.7-1.1
		c-0.2-0.2-0.4-0.2-0.7-0.2v3.9h-1.2V542.6z"/>
	<path class="st0" d="M55.7,542.6h5.5v8.5H60v-7.3h-3.1v4.2c0,1,0,1.6-0.1,2c-0.1,0.3-0.2,0.6-0.4,0.8c-0.2,0.2-0.6,0.3-1,0.3
		c-0.3,0-0.6,0-0.9-0.1v-1.2c0.6,0,0.9,0,1-0.1c0.1,0,0.2-0.1,0.2-0.2c0.1-0.1,0.1-0.6,0.1-1.4V542.6z"/>
	<path class="st0" d="M67.5,550.1c-0.4,0.4-0.8,0.7-1.2,0.9c-0.4,0.2-0.9,0.3-1.3,0.3c-0.7,0-1.3-0.2-1.7-0.7
		c-0.4-0.4-0.7-1-0.7-1.8c0-0.5,0.1-0.9,0.3-1.3c0.2-0.4,0.5-0.7,0.8-0.9c0.4-0.2,0.9-0.4,1.6-0.5c1-0.1,1.7-0.3,2.1-0.5l0-0.4
		c0-0.6-0.1-1-0.3-1.2c-0.3-0.3-0.7-0.5-1.4-0.5c-0.6,0-1,0.1-1.2,0.3c-0.3,0.2-0.5,0.7-0.6,1.3l-1.2-0.2c0.2-0.9,0.5-1.6,1-2
		c0.5-0.4,1.2-0.6,2.2-0.6c0.7,0,1.3,0.1,1.7,0.4c0.4,0.3,0.7,0.6,0.8,1c0.1,0.4,0.2,1,0.2,1.8v1.9c0,1.3,0,2.2,0.1,2.5
		c0.1,0.4,0.2,0.7,0.3,1h-1.2C67.7,550.8,67.6,550.5,67.5,550.1z M67.4,546.8c-0.4,0.2-1.1,0.4-1.9,0.5c-0.5,0.1-0.8,0.2-1,0.3
		c-0.2,0.1-0.4,0.3-0.5,0.5c-0.1,0.2-0.2,0.4-0.2,0.7c0,0.4,0.1,0.7,0.4,1c0.3,0.2,0.6,0.4,1,0.4c0.4,0,0.8-0.1,1.2-0.3
		c0.3-0.2,0.6-0.5,0.8-0.9c0.2-0.4,0.3-0.9,0.3-1.6V546.8z"/>
	<path class="st0" d="M70.5,542.6h1.8l1.8,6.8l2-6.8H78v8.5h-1.2v-6.9l-2.1,6.9h-1.1l-2-7.2v7.2h-1.2V542.6z"/>
	<path class="st0" d="M79.8,542.6H81v3.5h3.3v-3.5h1.2v8.5h-1.2v-3.8H81v3.8h-1.2V542.6z"/>
	<path class="st0" d="M86.7,546.8c0-1.5,0.3-2.6,0.9-3.3c0.6-0.7,1.4-1.1,2.3-1.1c0.9,0,1.7,0.4,2.3,1.1c0.6,0.7,0.9,1.8,0.9,3.2
		c0,1.5-0.3,2.7-0.9,3.4c-0.6,0.7-1.4,1.1-2.4,1.1c-0.9,0-1.7-0.4-2.3-1.1C87.1,549.4,86.7,548.3,86.7,546.8z M88,546.8
		c0,1.1,0.2,1.9,0.6,2.5c0.4,0.5,0.9,0.8,1.5,0.8c0.6,0,1-0.3,1.4-0.8c0.4-0.5,0.6-1.4,0.6-2.5c0-1.1-0.2-1.9-0.6-2.5
		c-0.4-0.5-0.9-0.8-1.5-0.8c-0.6,0-1,0.3-1.4,0.8C88.2,544.9,88,545.8,88,546.8z"/>
	<path class="st0" d="M99.5,548.4l1.2,0.2c-0.2,0.9-0.6,1.6-1.1,2.1c-0.5,0.5-1.2,0.7-2,0.7c-1,0-1.8-0.4-2.4-1.1
		c-0.6-0.8-0.9-1.8-0.9-3.3c0-1.5,0.3-2.6,0.9-3.4c0.6-0.8,1.4-1.2,2.3-1.2c0.9,0,1.7,0.4,2.3,1.1c0.6,0.8,0.9,1.9,0.9,3.3l0,0.4
		h-5.2c0,1,0.3,1.7,0.7,2.2c0.4,0.5,0.9,0.7,1.4,0.7C98.5,550.1,99.1,549.5,99.5,548.4z M95.6,546h3.9c-0.1-0.7-0.2-1.3-0.5-1.7
		c-0.4-0.5-0.9-0.8-1.5-0.8c-0.5,0-1,0.2-1.4,0.7C95.8,544.7,95.6,545.3,95.6,546z"/>
	<path class="st0" d="M106,542.6h1.8l1.8,6.8l2-6.8h1.7v8.5h-1.2v-6.9l-2.1,6.9h-1.1l-2-7.2v7.2H106V542.6z"/>
	<path class="st0" d="M120,548.4l1.2,0.2c-0.2,0.9-0.6,1.6-1.1,2.1c-0.5,0.5-1.2,0.7-2,0.7c-1,0-1.8-0.4-2.4-1.1
		c-0.6-0.8-0.9-1.8-0.9-3.3c0-1.5,0.3-2.6,0.9-3.4c0.6-0.8,1.4-1.2,2.3-1.2c0.9,0,1.7,0.4,2.3,1.1c0.6,0.8,0.9,1.9,0.9,3.3l0,0.4
		H116c0,1,0.3,1.7,0.7,2.2c0.4,0.5,0.9,0.7,1.4,0.7C119,550.1,119.6,549.5,120,548.4z M116.1,546h3.9c-0.1-0.7-0.2-1.3-0.5-1.7
		c-0.4-0.5-0.9-0.8-1.5-0.8c-0.5,0-1,0.2-1.4,0.7C116.3,544.7,116.1,545.3,116.1,546z"/>
	<path class="st0" d="M122.7,554.4v-11.8h1.1v1.1c0.3-0.5,0.6-0.8,0.9-1c0.3-0.2,0.7-0.3,1.1-0.3c0.6,0,1,0.2,1.5,0.5
		c0.4,0.3,0.8,0.8,1.1,1.5c0.3,0.7,0.4,1.5,0.4,2.4c0,1.5-0.3,2.6-0.9,3.4c-0.6,0.8-1.3,1.2-2.1,1.2c-0.4,0-0.7-0.1-1-0.3
		c-0.3-0.2-0.6-0.5-0.8-0.8v4.1H122.7z M123.8,546.9c0,1.1,0.2,1.9,0.6,2.4s0.8,0.8,1.3,0.8c0.5,0,0.9-0.3,1.3-0.8
		c0.4-0.5,0.6-1.4,0.6-2.5c0-1.1-0.2-1.9-0.6-2.5s-0.8-0.8-1.3-0.8c-0.5,0-0.9,0.3-1.3,0.9C124,545,123.8,545.8,123.8,546.9z"/>
	<path class="st0" d="M129.8,546.8c0-1.5,0.3-2.6,0.9-3.3c0.6-0.7,1.4-1.1,2.3-1.1c0.9,0,1.7,0.4,2.3,1.1c0.6,0.7,0.9,1.8,0.9,3.2
		c0,1.5-0.3,2.7-0.9,3.4c-0.6,0.7-1.4,1.1-2.4,1.1c-0.9,0-1.7-0.4-2.3-1.1C130.1,549.4,129.8,548.3,129.8,546.8z M131,546.8
		c0,1.1,0.2,1.9,0.6,2.5c0.4,0.5,0.9,0.8,1.5,0.8c0.6,0,1-0.3,1.4-0.8c0.4-0.5,0.6-1.4,0.6-2.5c0-1.1-0.2-1.9-0.6-2.5
		s-0.9-0.8-1.5-0.8c-0.6,0-1,0.3-1.4,0.8C131.2,544.9,131,545.8,131,546.8z"/>
	<path class="st0" d="M137.7,542.6h5.5v8.5h-1.2v-7.3h-3.2v7.3h-1.2V542.6z"/>
	<path class="st0" d="M145,554.4v-11.8h1.1v1.1c0.3-0.5,0.6-0.8,0.9-1c0.3-0.2,0.7-0.3,1.1-0.3c0.6,0,1,0.2,1.5,0.5
		c0.4,0.3,0.8,0.8,1.1,1.5c0.3,0.7,0.4,1.5,0.4,2.4c0,1.5-0.3,2.6-0.9,3.4c-0.6,0.8-1.3,1.2-2.1,1.2c-0.4,0-0.7-0.1-1-0.3
		c-0.3-0.2-0.6-0.5-0.8-0.8v4.1H145z M146.1,546.9c0,1.1,0.2,1.9,0.6,2.4s0.8,0.8,1.3,0.8c0.5,0,0.9-0.3,1.3-0.8
		c0.4-0.5,0.6-1.4,0.6-2.5c0-1.1-0.2-1.9-0.6-2.5s-0.8-0.8-1.3-0.8c-0.5,0-0.9,0.3-1.3,0.9C146.3,545,146.1,545.8,146.1,546.9z"/>
	<path class="st0" d="M152.5,542.6h1.2v6.5l3.3-6.5h1.3v8.5h-1.2v-6.5l-3.3,6.5h-1.3V542.6z"/>
	<path class="st0" d="M165.6,542.6v8.5h-1.2v-3.3h-0.7c-0.4,0-0.7,0.1-0.9,0.2c-0.2,0.1-0.5,0.6-0.9,1.3l-1,1.9h-1.5l1.3-2.3
		c0.4-0.7,0.8-1.1,1.2-1.2c-0.7-0.1-1.2-0.4-1.5-0.9c-0.3-0.5-0.5-1-0.5-1.7c0-0.8,0.2-1.4,0.7-1.8c0.4-0.4,1.1-0.7,1.8-0.7H165.6z
		 M164.4,543.8h-1.7c-0.7,0-1.2,0.1-1.4,0.4c-0.2,0.3-0.3,0.6-0.3,0.9c0,0.5,0.2,0.9,0.5,1.1c0.3,0.2,0.8,0.4,1.6,0.4h1.3V543.8z"/>
	<path class="st0" d="M166.7,542.6h5.7v1.2h-2.2v7.3H169v-7.3h-2.2V542.6z"/>
	<path class="st0" d="M173.5,542.6h1.2v6.5l3.3-6.5h1.3v8.5h-1.2v-6.5l-3.3,6.5h-1.3V542.6z"/>
	<path class="st0" d="M185.8,548.4l1.2,0.2c-0.2,0.9-0.6,1.6-1.1,2.1c-0.5,0.5-1.2,0.7-2,0.7c-1,0-1.8-0.4-2.4-1.1
		c-0.6-0.8-0.9-1.8-0.9-3.3c0-1.5,0.3-2.6,0.9-3.4c0.6-0.8,1.4-1.2,2.3-1.2c0.9,0,1.7,0.4,2.3,1.1c0.6,0.8,0.9,1.9,0.9,3.3l0,0.4
		h-5.2c0,1,0.3,1.7,0.7,2.2c0.4,0.5,0.9,0.7,1.4,0.7C184.9,550.1,185.5,549.5,185.8,548.4z M181.9,546h3.9c-0.1-0.7-0.2-1.3-0.5-1.7
		c-0.4-0.5-0.9-0.8-1.5-0.8c-0.5,0-1,0.2-1.4,0.7C182.2,544.7,182,545.3,181.9,546z"/>
	<path class="st0" d="M193.6,546.9l1.7,3.7h-1l-2.1-3.7l2.1-3.7h1L193.6,546.9z M196.2,546.9l1.7,3.7h-1l-2.1-3.7l2.1-3.7h1
		L196.2,546.9z"/>
	<path class="st0" d="M206.8,547l1.3,0.4c-0.3,1.3-0.8,2.3-1.5,3c-0.7,0.7-1.6,1-2.6,1c-0.9,0-1.7-0.2-2.3-0.7
		c-0.6-0.4-1.2-1.1-1.6-2.1c-0.4-1-0.6-2.1-0.6-3.4c0-1.3,0.2-2.4,0.6-3.3c0.4-0.9,1-1.6,1.6-2c0.7-0.5,1.5-0.7,2.3-0.7
		c0.9,0,1.7,0.3,2.4,0.9c0.7,0.6,1.1,1.4,1.4,2.6l-1.3,0.4c-0.4-1.6-1.3-2.4-2.6-2.4c-0.6,0-1.2,0.2-1.7,0.5
		c-0.5,0.3-0.8,0.8-1.1,1.5c-0.3,0.7-0.4,1.6-0.4,2.6c0,1.6,0.3,2.8,0.9,3.6c0.6,0.8,1.3,1.2,2.3,1.2c0.7,0,1.3-0.2,1.8-0.7
		C206.3,548.7,206.6,548,206.8,547z"/>
	<path class="st0" d="M209.5,542.6h1.2v3.5h3.3v-3.5h1.2v8.5H214v-3.8h-3.3v3.8h-1.2V542.6z"/>
	<path class="st0" d="M217,542.6h1.2v6.5l3.3-6.5h1.3v8.5h-1.2v-6.5l-3.3,6.5H217V542.6z"/>
	<path class="st0" d="M224.5,542.6h1.2v3.7c0.4,0,0.6-0.1,0.8-0.3c0.2-0.2,0.4-0.7,0.7-1.5c0.2-0.7,0.4-1.1,0.6-1.3
		c0.1-0.2,0.3-0.4,0.5-0.4c0.2-0.1,0.5-0.1,1-0.1h0.2v1.2l-0.4,0c-0.3,0-0.4,0-0.5,0.1c-0.1,0.1-0.2,0.3-0.3,0.5
		c-0.3,0.9-0.5,1.4-0.6,1.7c-0.2,0.2-0.4,0.5-0.7,0.7c0.5,0.2,1,0.7,1.5,1.7l1.3,2.6h-1.3l-1.3-2.6c-0.3-0.5-0.5-0.9-0.7-1.1
		c-0.2-0.2-0.4-0.2-0.7-0.2v3.9h-1.2V542.6z"/>
	<path class="st0" d="M235.2,548.4l1.2,0.2c-0.2,0.9-0.6,1.6-1.1,2.1c-0.5,0.5-1.2,0.7-2,0.7c-1,0-1.8-0.4-2.4-1.1
		c-0.6-0.8-0.9-1.8-0.9-3.3c0-1.5,0.3-2.6,0.9-3.4c0.6-0.8,1.4-1.2,2.3-1.2c0.9,0,1.7,0.4,2.3,1.1c0.6,0.8,0.9,1.9,0.9,3.3l0,0.4
		h-5.2c0,1,0.3,1.7,0.7,2.2c0.4,0.5,0.9,0.7,1.4,0.7C234.2,550.1,234.8,549.5,235.2,548.4z M231.3,546h3.9c-0.1-0.7-0.2-1.3-0.5-1.7
		c-0.4-0.5-0.9-0.8-1.5-0.8c-0.5,0-1,0.2-1.4,0.7C231.5,544.7,231.3,545.3,231.3,546z"/>
	<path class="st0" d="M237.9,554.4v-11.8h1.1v1.1c0.3-0.5,0.6-0.8,0.9-1c0.3-0.2,0.7-0.3,1.1-0.3c0.6,0,1,0.2,1.5,0.5
		c0.4,0.3,0.8,0.8,1.1,1.5c0.3,0.7,0.4,1.5,0.4,2.4c0,1.5-0.3,2.6-0.9,3.4c-0.6,0.8-1.3,1.2-2.1,1.2c-0.4,0-0.7-0.1-1-0.3
		c-0.3-0.2-0.6-0.5-0.8-0.8v4.1H237.9z M239,546.9c0,1.1,0.2,1.9,0.6,2.4c0.4,0.5,0.8,0.8,1.3,0.8c0.5,0,0.9-0.3,1.3-0.8
		c0.4-0.5,0.6-1.4,0.6-2.5c0-1.1-0.2-1.9-0.6-2.5c-0.4-0.5-0.8-0.8-1.3-0.8c-0.5,0-0.9,0.3-1.3,0.9C239.2,545,239,545.8,239,546.9z"
		/>
	<path class="st0" d="M250,548l1.2,0.2c-0.1,1-0.5,1.8-1,2.3c-0.5,0.5-1.2,0.8-1.9,0.8c-0.9,0-1.7-0.4-2.3-1.1s-0.9-1.9-0.9-3.3
		c0-1.5,0.3-2.6,0.9-3.3c0.6-0.7,1.4-1.1,2.3-1.1c0.7,0,1.3,0.2,1.8,0.7c0.5,0.4,0.8,1.1,1,2l-1.1,0.2c-0.1-0.6-0.3-1-0.6-1.3
		c-0.3-0.3-0.6-0.4-1-0.4c-0.6,0-1.1,0.3-1.4,0.8c-0.4,0.5-0.6,1.3-0.6,2.5c0,1.2,0.2,2,0.5,2.5c0.4,0.5,0.8,0.8,1.4,0.8
		c0.4,0,0.8-0.2,1.2-0.5C249.7,549.3,249.9,548.7,250,548z"/>
	<path class="st0" d="M252.1,542.6h1.2v3.5h3.3v-3.5h1.2v8.5h-1.2v-3.8h-3.3v3.8h-1.2V542.6z"/>
	<path class="st0" d="M259.6,542.6h1.2v6.5l3.3-6.5h1.3v8.5h-1.2v-6.5l-3.3,6.5h-1.3V542.6z"/>
	<path class="st0" d="M267.8,548.2l-0.4-6.2v-2.6h1.5v2.6l-0.3,6.2H267.8z M267.5,551.1v-1.6h1.3v1.6H267.5z"/>
	<path class="st0" d="M98,567.5h-1.3v-11.8h7.6v11.8H103v-10.4h-5V567.5z"/>
	<path class="st0" d="M106.3,570.8V559h1.1v1.1c0.3-0.5,0.6-0.8,0.9-1c0.3-0.2,0.7-0.3,1.1-0.3c0.6,0,1,0.2,1.5,0.5
		c0.4,0.3,0.8,0.8,1.1,1.5s0.4,1.5,0.4,2.4c0,1.5-0.3,2.6-0.9,3.4c-0.6,0.8-1.3,1.2-2.1,1.2c-0.4,0-0.7-0.1-1-0.3
		c-0.3-0.2-0.6-0.5-0.8-0.8v4.1H106.3z M107.4,563.3c0,1.1,0.2,1.9,0.6,2.4s0.8,0.8,1.3,0.8c0.5,0,0.9-0.3,1.3-0.8
		c0.4-0.5,0.6-1.4,0.6-2.5c0-1.1-0.2-1.9-0.6-2.5s-0.8-0.8-1.3-0.8c-0.5,0-0.9,0.3-1.3,0.9C107.5,561.4,107.4,562.2,107.4,563.3z"/>
	<path class="st0" d="M113.3,563.3c0-1.5,0.3-2.6,0.9-3.3c0.6-0.7,1.4-1.1,2.3-1.1c0.9,0,1.7,0.4,2.3,1.1c0.6,0.7,0.9,1.8,0.9,3.2
		c0,1.5-0.3,2.7-0.9,3.4c-0.6,0.7-1.4,1.1-2.4,1.1c-0.9,0-1.7-0.4-2.3-1.1C113.6,565.9,113.3,564.8,113.3,563.3z M114.5,563.3
		c0,1.1,0.2,1.9,0.6,2.5c0.4,0.5,0.9,0.8,1.5,0.8c0.6,0,1-0.3,1.4-0.8c0.4-0.5,0.6-1.4,0.6-2.5c0-1.1-0.2-1.9-0.6-2.5
		c-0.4-0.5-0.9-0.8-1.5-0.8c-0.6,0-1,0.3-1.4,0.8C114.7,561.4,114.5,562.2,114.5,563.3z"/>
	<path class="st0" d="M121.3,559h1.2v3.7c0.4,0,0.6-0.1,0.8-0.3c0.2-0.2,0.4-0.7,0.7-1.5c0.2-0.7,0.4-1.1,0.6-1.3
		c0.1-0.2,0.3-0.4,0.5-0.4c0.2-0.1,0.5-0.1,1-0.1h0.2v1.2l-0.4,0c-0.3,0-0.4,0-0.5,0.1c-0.1,0.1-0.2,0.3-0.3,0.5
		c-0.3,0.9-0.5,1.4-0.6,1.7c-0.2,0.2-0.4,0.5-0.7,0.7c0.5,0.2,1,0.7,1.5,1.7l1.3,2.6h-1.3l-1.3-2.6c-0.3-0.5-0.5-0.9-0.7-1.1
		c-0.2-0.2-0.4-0.2-0.7-0.2v3.9h-1.2V559z"/>
	<path class="st0" d="M131.7,566.5c-0.4,0.4-0.8,0.7-1.2,0.9c-0.4,0.2-0.9,0.3-1.3,0.3c-0.7,0-1.3-0.2-1.7-0.7
		c-0.4-0.4-0.7-1-0.7-1.8c0-0.5,0.1-0.9,0.3-1.3c0.2-0.4,0.5-0.7,0.8-0.9c0.4-0.2,0.9-0.4,1.6-0.5c1-0.1,1.7-0.3,2.1-0.5l0-0.4
		c0-0.6-0.1-1-0.3-1.2c-0.3-0.3-0.7-0.5-1.4-0.5c-0.6,0-1,0.1-1.2,0.3c-0.3,0.2-0.5,0.7-0.6,1.3l-1.2-0.2c0.2-0.9,0.5-1.6,1-2
		c0.5-0.4,1.2-0.6,2.2-0.6c0.7,0,1.3,0.1,1.7,0.4c0.4,0.3,0.7,0.6,0.8,1c0.1,0.4,0.2,1,0.2,1.8v1.9c0,1.3,0,2.2,0.1,2.5
		c0.1,0.4,0.2,0.7,0.3,1h-1.2C131.8,567.3,131.7,566.9,131.7,566.5z M131.6,563.3c-0.4,0.2-1.1,0.4-1.9,0.5c-0.5,0.1-0.8,0.2-1,0.3
		c-0.2,0.1-0.4,0.3-0.5,0.5c-0.1,0.2-0.2,0.4-0.2,0.7c0,0.4,0.1,0.7,0.4,1c0.3,0.2,0.6,0.4,1,0.4c0.4,0,0.8-0.1,1.2-0.3
		c0.3-0.2,0.6-0.5,0.8-0.9c0.2-0.4,0.3-0.9,0.3-1.6V563.3z"/>
	<path class="st0" d="M134.2,559h1.2v1.6c0,0.7,0,1.2,0.1,1.5c0.1,0.3,0.2,0.6,0.5,0.8c0.3,0.2,0.6,0.3,0.9,0.3c0.5,0,1-0.1,1.8-0.4
		V559h1.2v8.5h-1.2v-3.4c-0.7,0.3-1.4,0.4-2,0.4c-0.7,0-1.3-0.3-1.7-0.8c-0.5-0.5-0.7-1.4-0.7-2.5V559z"/>
	<path class="st0" d="M146.2,566.5c-0.4,0.4-0.8,0.7-1.2,0.9c-0.4,0.2-0.9,0.3-1.3,0.3c-0.7,0-1.3-0.2-1.7-0.7
		c-0.4-0.4-0.7-1-0.7-1.8c0-0.5,0.1-0.9,0.3-1.3c0.2-0.4,0.5-0.7,0.8-0.9c0.4-0.2,0.9-0.4,1.6-0.5c1-0.1,1.7-0.3,2.1-0.5l0-0.4
		c0-0.6-0.1-1-0.3-1.2c-0.3-0.3-0.7-0.5-1.4-0.5c-0.6,0-1,0.1-1.2,0.3c-0.3,0.2-0.5,0.7-0.6,1.3l-1.2-0.2c0.2-0.9,0.5-1.6,1-2
		s1.2-0.6,2.2-0.6c0.7,0,1.3,0.1,1.7,0.4c0.4,0.3,0.7,0.6,0.8,1c0.1,0.4,0.2,1,0.2,1.8v1.9c0,1.3,0,2.2,0.1,2.5
		c0.1,0.4,0.2,0.7,0.3,1h-1.2C146.3,567.3,146.3,566.9,146.2,566.5z M146.1,563.3c-0.4,0.2-1.1,0.4-1.9,0.5c-0.5,0.1-0.8,0.2-1,0.3
		c-0.2,0.1-0.4,0.3-0.5,0.5c-0.1,0.2-0.2,0.4-0.2,0.7c0,0.4,0.1,0.7,0.4,1c0.3,0.2,0.6,0.4,1,0.4c0.4,0,0.8-0.1,1.2-0.3
		c0.3-0.2,0.6-0.5,0.8-0.9c0.2-0.4,0.3-0.9,0.3-1.6V563.3z"/>
	<path class="st0" d="M149.2,559h1.2v6.5l3.3-6.5h1.3v8.5h-1.2v-6.5l-3.3,6.5h-1.3V559z M153.2,555.8h0.8c-0.1,0.7-0.3,1.2-0.6,1.6
		c-0.3,0.3-0.8,0.5-1.3,0.5c-0.5,0-1-0.2-1.3-0.5c-0.3-0.3-0.6-0.9-0.6-1.6h0.8c0.1,0.7,0.5,1.1,1.1,1.1c0.3,0,0.6-0.1,0.8-0.3
		C153,556.5,153.1,556.2,153.2,555.8z"/>
	<path class="st0" d="M160.5,559h1.8l1.8,6.8l2-6.8h1.7v8.5h-1.2v-6.9l-2.1,6.9h-1.1l-2-7.2v7.2h-1.2V559z"/>
	<path class="st0" d="M169.2,563.3c0-1.5,0.3-2.6,0.9-3.3c0.6-0.7,1.4-1.1,2.3-1.1c0.9,0,1.7,0.4,2.3,1.1c0.6,0.7,0.9,1.8,0.9,3.2
		c0,1.5-0.3,2.7-0.9,3.4c-0.6,0.7-1.4,1.1-2.4,1.1c-0.9,0-1.7-0.4-2.3-1.1C169.6,565.9,169.2,564.8,169.2,563.3z M170.5,563.3
		c0,1.1,0.2,1.9,0.6,2.5c0.4,0.5,0.9,0.8,1.5,0.8c0.6,0,1-0.3,1.4-0.8c0.4-0.5,0.6-1.4,0.6-2.5c0-1.1-0.2-1.9-0.6-2.5
		c-0.4-0.5-0.9-0.8-1.5-0.8c-0.6,0-1,0.3-1.4,0.8C170.6,561.4,170.5,562.2,170.5,563.3z"/>
	<path class="st0" d="M178.8,563.7v-1.1c0.5,0,0.8,0,1-0.1c0.2,0,0.3-0.2,0.5-0.4s0.2-0.5,0.2-0.8c0-0.4-0.1-0.7-0.3-0.9
		c-0.2-0.2-0.5-0.3-0.8-0.3c-0.7,0-1.1,0.5-1.4,1.4l-1.1-0.2c0.4-1.6,1.2-2.4,2.5-2.4c0.7,0,1.3,0.2,1.7,0.7
		c0.4,0.5,0.6,1.1,0.6,1.8c0,0.7-0.3,1.2-0.8,1.7c0.7,0.5,1.1,1.2,1.1,2.1c0,0.8-0.2,1.4-0.7,1.9c-0.5,0.5-1.1,0.7-1.9,0.7
		c-1.6,0-2.5-0.9-2.8-2.6l1.1-0.3c0.1,0.5,0.3,1,0.6,1.3c0.3,0.3,0.7,0.5,1.1,0.5c0.4,0,0.7-0.1,1-0.4c0.3-0.3,0.4-0.6,0.4-1.1
		c0-0.3-0.1-0.6-0.2-0.9c-0.2-0.2-0.3-0.4-0.5-0.5c-0.2-0.1-0.5-0.1-0.9-0.1L178.8,563.7z"/>
	<path class="st0" d="M183.4,559h4v1.2h-2.8v7.3h-1.2V559z"/>
	<path class="st0" d="M188.3,559h1.2v6.5l3.3-6.5h1.3v8.5h-1.2v-6.5l-3.3,6.5h-1.3V559z"/>
	<path class="st0" d="M196.5,564.6l-0.4-6.2v-2.6h1.5v2.6l-0.3,6.2H196.5z M196.2,567.5v-1.6h1.3v1.6H196.2z"/>
	<path class="st0" d="M201.3,563.3l-1.7-3.7h1l2.1,3.7l-2.1,3.7h-1L201.3,563.3z M203.9,563.3l-1.7-3.7h1l2.1,3.7l-2.1,3.7h-1
		L203.9,563.3z"/>
	<path class="st0" d="M24.2,579.9l1.3,0.4c-0.3,1.3-0.8,2.3-1.5,3c-0.7,0.7-1.6,1-2.6,1c-0.9,0-1.7-0.2-2.3-0.7
		c-0.6-0.4-1.2-1.1-1.6-2.1c-0.4-1-0.6-2.1-0.6-3.4c0-1.3,0.2-2.4,0.6-3.3c0.4-0.9,1-1.6,1.6-2c0.7-0.5,1.5-0.7,2.3-0.7
		c0.9,0,1.7,0.3,2.4,0.9c0.7,0.6,1.1,1.4,1.4,2.6l-1.3,0.4c-0.4-1.6-1.3-2.4-2.6-2.4c-0.6,0-1.2,0.2-1.7,0.5
		c-0.5,0.3-0.8,0.8-1.1,1.5c-0.3,0.7-0.4,1.6-0.4,2.6c0,1.6,0.3,2.8,0.9,3.6c0.6,0.8,1.3,1.2,2.3,1.2c0.7,0,1.3-0.2,1.8-0.7
		C23.7,581.6,24.1,580.9,24.2,579.9z"/>
	<path class="st0" d="M26.9,587.3v-11.8H28v1.1c0.3-0.5,0.6-0.8,0.9-1s0.7-0.3,1.1-0.3c0.6,0,1,0.2,1.5,0.5c0.4,0.3,0.8,0.8,1.1,1.5
		c0.3,0.7,0.4,1.5,0.4,2.4c0,1.4-0.3,2.6-0.9,3.4c-0.6,0.8-1.3,1.2-2.1,1.2c-0.4,0-0.7-0.1-1-0.3c-0.3-0.2-0.6-0.5-0.8-0.8v4.1H26.9
		z M28,579.8c0,1.1,0.2,1.9,0.6,2.4c0.4,0.5,0.8,0.8,1.3,0.8c0.5,0,0.9-0.3,1.3-0.8c0.4-0.5,0.6-1.4,0.6-2.5c0-1.1-0.2-1.9-0.6-2.5
		c-0.4-0.5-0.8-0.8-1.3-0.8c-0.5,0-0.9,0.3-1.3,0.9C28.2,577.8,28,578.7,28,579.8z"/>
	<path class="st0" d="M34,579.7c0-1.5,0.3-2.6,0.9-3.3c0.6-0.7,1.4-1.1,2.3-1.1c0.9,0,1.7,0.4,2.3,1.1s0.9,1.8,0.9,3.2
		c0,1.5-0.3,2.7-0.9,3.4c-0.6,0.7-1.4,1.1-2.4,1.1c-0.9,0-1.7-0.4-2.3-1.1C34.3,582.3,34,581.2,34,579.7z M35.2,579.7
		c0,1.1,0.2,1.9,0.6,2.5c0.4,0.5,0.9,0.8,1.5,0.8c0.6,0,1-0.3,1.4-0.8c0.4-0.5,0.6-1.4,0.6-2.5c0-1.1-0.2-1.9-0.6-2.5
		c-0.4-0.5-0.9-0.8-1.5-0.8c-0.6,0-1,0.3-1.4,0.8C35.4,577.8,35.2,578.6,35.2,579.7z"/>
	<path class="st0" d="M41.9,575.5h1.2v3.7c0.4,0,0.6-0.1,0.8-0.3c0.2-0.2,0.4-0.7,0.7-1.5c0.2-0.7,0.4-1.1,0.6-1.3
		c0.1-0.2,0.3-0.4,0.5-0.4c0.2-0.1,0.5-0.1,1-0.1h0.2v1.2l-0.4,0c-0.3,0-0.4,0-0.5,0.1c-0.1,0.1-0.2,0.3-0.3,0.5
		c-0.3,0.9-0.5,1.4-0.6,1.7c-0.2,0.2-0.4,0.5-0.7,0.7c0.5,0.2,1,0.7,1.5,1.7l1.3,2.6h-1.3l-1.3-2.6c-0.3-0.5-0.5-0.9-0.7-1.1
		c-0.2-0.2-0.4-0.2-0.7-0.2v3.9h-1.2V575.5z"/>
	<path class="st0" d="M47.8,575.5H49v6.5l3.3-6.5h1.3v8.5h-1.2v-6.5l-3.3,6.5h-1.3V575.5z"/>
	<path class="st0" d="M59.1,575.5h5.5v8.5h-1.2v-7.3h-3.2v7.3h-1.2V575.5z"/>
	<path class="st0" d="M66.4,587.3v-11.8h1.1v1.1c0.3-0.5,0.6-0.8,0.9-1s0.7-0.3,1.1-0.3c0.6,0,1,0.2,1.5,0.5
		c0.4,0.3,0.8,0.8,1.1,1.5c0.3,0.7,0.4,1.5,0.4,2.4c0,1.4-0.3,2.6-0.9,3.4c-0.6,0.8-1.3,1.2-2.1,1.2c-0.4,0-0.7-0.1-1-0.3
		c-0.3-0.2-0.6-0.5-0.8-0.8v4.1H66.4z M67.5,579.8c0,1.1,0.2,1.9,0.6,2.4c0.4,0.5,0.8,0.8,1.3,0.8c0.5,0,0.9-0.3,1.3-0.8
		c0.4-0.5,0.6-1.4,0.6-2.5c0-1.1-0.2-1.9-0.6-2.5c-0.4-0.5-0.8-0.8-1.3-0.8c-0.5,0-0.9,0.3-1.3,0.9
		C67.7,577.8,67.5,578.7,67.5,579.8z"/>
	<path class="st0" d="M73.5,579.7c0-1.5,0.3-2.6,0.9-3.3c0.6-0.7,1.4-1.1,2.3-1.1c0.9,0,1.7,0.4,2.3,1.1s0.9,1.8,0.9,3.2
		c0,1.5-0.3,2.7-0.9,3.4c-0.6,0.7-1.4,1.1-2.4,1.1c-0.9,0-1.7-0.4-2.3-1.1C73.8,582.3,73.5,581.2,73.5,579.7z M74.7,579.7
		c0,1.1,0.2,1.9,0.6,2.5c0.4,0.5,0.9,0.8,1.5,0.8c0.6,0,1-0.3,1.4-0.8c0.4-0.5,0.6-1.4,0.6-2.5c0-1.1-0.2-1.9-0.6-2.5
		c-0.4-0.5-0.9-0.8-1.5-0.8c-0.6,0-1,0.3-1.4,0.8C74.9,577.8,74.7,578.6,74.7,579.7z"/>
	<path class="st0" d="M81.4,575.5h2.7c0.6,0,1.1,0.1,1.4,0.2c0.3,0.1,0.6,0.4,0.9,0.7c0.3,0.4,0.4,0.8,0.4,1.4
		c0,0.8-0.3,1.4-0.8,1.8c0.8,0.3,1.2,1,1.2,2.1c0,0.7-0.2,1.2-0.6,1.7c-0.4,0.5-1.1,0.7-2,0.7h-3.2V575.5z M82.6,579.1h1.3
		c0.5,0,0.8,0,1-0.1c0.2-0.1,0.4-0.2,0.5-0.4c0.1-0.2,0.2-0.4,0.2-0.7c0-0.4-0.1-0.8-0.4-0.9c-0.3-0.2-0.7-0.3-1.3-0.3h-1.3V579.1z
		 M82.6,582.8h1.6c0.7,0,1.1-0.1,1.4-0.3s0.4-0.5,0.4-1c0-0.5-0.1-0.8-0.4-1c-0.3-0.2-0.8-0.3-1.5-0.3h-1.4V582.8z"/>
	<path class="st0" d="M93.3,581.2l1.2,0.2c-0.2,0.9-0.6,1.6-1.1,2.1c-0.5,0.5-1.2,0.7-2,0.7c-1,0-1.8-0.4-2.4-1.1
		c-0.6-0.8-0.9-1.8-0.9-3.3c0-1.5,0.3-2.6,0.9-3.4c0.6-0.8,1.4-1.2,2.3-1.2c0.9,0,1.7,0.4,2.3,1.1c0.6,0.8,0.9,1.9,0.9,3.3l0,0.4
		h-5.2c0,1,0.3,1.7,0.7,2.2c0.4,0.5,0.9,0.7,1.4,0.7C92.4,583,93,582.4,93.3,581.2z M89.4,578.9h3.9c-0.1-0.7-0.2-1.3-0.5-1.7
		c-0.4-0.5-0.9-0.8-1.5-0.8c-0.5,0-1,0.2-1.4,0.7C89.7,577.6,89.5,578.2,89.4,578.9z"/>
	<path class="st0" d="M97,575.5h4.9v7.3h0.8v3.6h-1V584h-5.5v2.4h-1v-3.6h0.6C96.6,581.4,97,579,97,575.5z M98,576.7
		c-0.1,2.8-0.4,4.8-1.1,6.1h3.8v-6.1H98z"/>
	<path class="st0" d="M108.7,581.2l1.2,0.2c-0.2,0.9-0.6,1.6-1.1,2.1c-0.5,0.5-1.2,0.7-2,0.7c-1,0-1.8-0.4-2.4-1.1
		c-0.6-0.8-0.9-1.8-0.9-3.3c0-1.5,0.3-2.6,0.9-3.4c0.6-0.8,1.4-1.2,2.3-1.2c0.9,0,1.7,0.4,2.3,1.1c0.6,0.8,0.9,1.9,0.9,3.3l0,0.4
		h-5.2c0,1,0.3,1.7,0.7,2.2c0.4,0.5,0.9,0.7,1.4,0.7C107.7,583,108.3,582.4,108.7,581.2z M104.8,578.9h3.9c-0.1-0.7-0.2-1.3-0.5-1.7
		c-0.4-0.5-0.9-0.8-1.5-0.8c-0.5,0-1,0.2-1.4,0.7C105,577.6,104.8,578.2,104.8,578.9z"/>
	<path class="st0" d="M111.4,575.5h1.2v3.5h3.3v-3.5h1.2v8.5h-1.2v-3.8h-3.3v3.8h-1.2V575.5z"/>
	<path class="st0" d="M118.9,575.5h1.2v6.5l3.3-6.5h1.3v8.5h-1.2v-6.5l-3.3,6.5h-1.3V575.5z"/>
	<path class="st0" d="M131.9,575.5v8.5h-1.2v-3.3H130c-0.4,0-0.7,0.1-0.9,0.2c-0.2,0.1-0.5,0.6-0.9,1.3l-1,1.9h-1.5l1.3-2.3
		c0.4-0.7,0.8-1.1,1.2-1.2c-0.7-0.1-1.2-0.4-1.5-0.9c-0.3-0.5-0.5-1-0.5-1.7c0-0.8,0.2-1.4,0.7-1.8c0.4-0.4,1.1-0.7,1.8-0.7H131.9z
		 M130.7,576.7h-1.7c-0.7,0-1.2,0.1-1.4,0.4c-0.2,0.3-0.3,0.6-0.3,0.9c0,0.5,0.2,0.9,0.5,1.1c0.3,0.2,0.8,0.4,1.6,0.4h1.3V576.7z"/>
	<path class="st0" d="M134.1,577.1v-1.6h1.3v1.6H134.1z M134.1,584v-1.6h1.3v1.6H134.1z"/>
	<path class="st0" d="M147.1,582.6v1.4h-6.4c0-0.6,0.2-1.2,0.5-1.9c0.4-0.7,1-1.5,2-2.5c1.1-1.1,1.8-2,2.2-2.6
		c0.3-0.6,0.5-1.2,0.5-1.7c0-0.6-0.2-1.1-0.5-1.5c-0.4-0.4-0.8-0.6-1.3-0.6c-0.6,0-1,0.2-1.4,0.6c-0.4,0.4-0.5,1-0.5,1.8l-1.2-0.2
		c0.1-1.1,0.4-2,1-2.5c0.6-0.6,1.3-0.9,2.2-0.9c1,0,1.7,0.3,2.2,1c0.5,0.7,0.8,1.4,0.8,2.3c0,0.7-0.2,1.5-0.6,2.2
		c-0.4,0.7-1.1,1.6-2.3,2.8c-0.7,0.7-1.2,1.2-1.4,1.5c-0.2,0.3-0.4,0.5-0.5,0.8H147.1z"/>
	<path class="st0" d="M148.5,581.3l1.1-0.1c0.2,1.2,0.7,1.9,1.6,1.9c0.4,0,0.8-0.1,1.1-0.4c0.3-0.3,0.6-0.8,0.8-1.4
		c0.2-0.7,0.3-1.5,0.3-2.4v-0.3c-0.2,0.5-0.6,0.9-1,1.1c-0.4,0.3-0.8,0.4-1.3,0.4c-0.8,0-1.5-0.3-2-1s-0.9-1.6-0.9-2.8
		c0-1.2,0.3-2.2,0.9-2.9c0.6-0.7,1.3-1.1,2.2-1.1c0.6,0,1.2,0.2,1.7,0.6c0.5,0.4,0.9,1,1.2,1.7c0.3,0.8,0.4,1.9,0.4,3.3
		c0,1.6-0.2,2.9-0.5,3.8c-0.3,0.9-0.7,1.5-1.2,2c-0.5,0.4-1.1,0.6-1.8,0.6c-0.7,0-1.3-0.3-1.8-0.8S148.6,582.2,148.5,581.3z
		 M153.4,576.1c0-0.8-0.2-1.5-0.6-2c-0.4-0.5-0.8-0.7-1.3-0.7c-0.5,0-1,0.3-1.4,0.8c-0.4,0.5-0.6,1.2-0.6,2.1c0,0.8,0.2,1.4,0.6,1.8
		c0.4,0.5,0.8,0.7,1.4,0.7c0.5,0,1-0.2,1.3-0.7C153.2,577.6,153.4,576.9,153.4,576.1z"/>
	<path class="st0" d="M160,575.5h1.8l1.8,6.8l2-6.8h1.7v8.5h-1.2v-6.9l-2.1,6.9h-1.1l-2-7.2v7.2H160V575.5z"/>
	<path class="st0" d="M173.8,582.9c-0.4,0.4-0.8,0.7-1.2,0.9c-0.4,0.2-0.9,0.3-1.3,0.3c-0.7,0-1.3-0.2-1.7-0.7
		c-0.4-0.4-0.7-1-0.7-1.8c0-0.5,0.1-0.9,0.3-1.3c0.2-0.4,0.5-0.7,0.8-0.9c0.4-0.2,0.9-0.4,1.6-0.5c1-0.1,1.7-0.3,2.1-0.5l0-0.4
		c0-0.6-0.1-1-0.3-1.2c-0.3-0.3-0.7-0.5-1.4-0.5c-0.6,0-1,0.1-1.2,0.3c-0.3,0.2-0.5,0.7-0.6,1.3l-1.2-0.2c0.2-0.9,0.5-1.6,1-2
		c0.5-0.4,1.2-0.6,2.2-0.6c0.7,0,1.3,0.1,1.7,0.4c0.4,0.3,0.7,0.6,0.8,1c0.1,0.4,0.2,1,0.2,1.8v1.9c0,1.3,0,2.2,0.1,2.5
		c0.1,0.4,0.2,0.7,0.3,1H174C173.9,583.7,173.8,583.3,173.8,582.9z M173.7,579.7c-0.4,0.2-1.1,0.4-1.9,0.5c-0.5,0.1-0.8,0.2-1,0.3
		c-0.2,0.1-0.4,0.3-0.5,0.5c-0.1,0.2-0.2,0.4-0.2,0.7c0,0.4,0.1,0.7,0.4,1c0.3,0.2,0.6,0.4,1,0.4c0.4,0,0.8-0.1,1.2-0.3
		c0.3-0.2,0.6-0.5,0.8-0.9c0.2-0.4,0.3-0.9,0.3-1.6V579.7z"/>
	<path class="st0" d="M176.7,587.3v-11.8h1.1v1.1c0.3-0.5,0.6-0.8,0.9-1s0.7-0.3,1.1-0.3c0.6,0,1,0.2,1.5,0.5s0.8,0.8,1.1,1.5
		c0.3,0.7,0.4,1.5,0.4,2.4c0,1.4-0.3,2.6-0.9,3.4c-0.6,0.8-1.3,1.2-2.1,1.2c-0.4,0-0.7-0.1-1-0.3c-0.3-0.2-0.6-0.5-0.8-0.8v4.1
		H176.7z M177.8,579.8c0,1.1,0.2,1.9,0.6,2.4c0.4,0.5,0.8,0.8,1.3,0.8c0.5,0,0.9-0.3,1.3-0.8c0.4-0.5,0.6-1.4,0.6-2.5
		c0-1.1-0.2-1.9-0.6-2.5c-0.4-0.5-0.8-0.8-1.3-0.8c-0.5,0-0.9,0.3-1.3,0.9C178,577.8,177.8,578.7,177.8,579.8z"/>
	<path class="st0" d="M183.6,575.5h5.7v1.2H187v7.3h-1.2v-7.3h-2.2V575.5z"/>
	<path class="st0" d="M194.9,582.9c-0.4,0.4-0.8,0.7-1.2,0.9c-0.4,0.2-0.9,0.3-1.3,0.3c-0.7,0-1.3-0.2-1.7-0.7
		c-0.4-0.4-0.7-1-0.7-1.8c0-0.5,0.1-0.9,0.3-1.3c0.2-0.4,0.5-0.7,0.8-0.9c0.4-0.2,0.9-0.4,1.6-0.5c1-0.1,1.7-0.3,2.1-0.5l0-0.4
		c0-0.6-0.1-1-0.3-1.2c-0.3-0.3-0.7-0.5-1.4-0.5c-0.6,0-1,0.1-1.2,0.3c-0.3,0.2-0.5,0.7-0.6,1.3l-1.2-0.2c0.2-0.9,0.5-1.6,1-2
		c0.5-0.4,1.2-0.6,2.2-0.6c0.7,0,1.3,0.1,1.7,0.4c0.4,0.3,0.7,0.6,0.8,1c0.1,0.4,0.2,1,0.2,1.8v1.9c0,1.3,0,2.2,0.1,2.5
		c0.1,0.4,0.2,0.7,0.3,1h-1.2C195,583.7,195,583.3,194.9,582.9z M194.8,579.7c-0.4,0.2-1.1,0.4-1.9,0.5c-0.5,0.1-0.8,0.2-1,0.3
		c-0.2,0.1-0.4,0.3-0.5,0.5c-0.1,0.2-0.2,0.4-0.2,0.7c0,0.4,0.1,0.7,0.4,1c0.3,0.2,0.6,0.4,1,0.4c0.4,0,0.8-0.1,1.2-0.3
		c0.3-0.2,0.6-0.5,0.8-0.9c0.2-0.4,0.3-0.9,0.3-1.6V579.7z"/>
	<path class="st0" d="M201.2,580.5V579h3.6v1.5H201.2z"/>
	<path class="st0" d="M209.5,580.9l1.2-0.2c0.2,1.5,0.9,2.3,1.9,2.3c0.5,0,1-0.2,1.4-0.7c0.4-0.5,0.6-1.1,0.6-1.8
		c0-0.7-0.2-1.2-0.5-1.7c-0.4-0.4-0.8-0.6-1.3-0.6c-0.2,0-0.5,0.1-0.8,0.2l0.1-1.3l0.2,0c0.6,0,1.1-0.2,1.4-0.5s0.5-0.8,0.5-1.4
		c0-0.6-0.2-1-0.5-1.3c-0.3-0.3-0.7-0.5-1.1-0.5c-0.5,0-0.8,0.2-1.2,0.5c-0.3,0.4-0.5,0.9-0.6,1.6l-1.2-0.3c0.1-1,0.5-1.8,1-2.3
		c0.5-0.5,1.2-0.8,1.9-0.8c0.8,0,1.4,0.3,2,0.9c0.5,0.6,0.8,1.3,0.8,2.2c0,0.5-0.1,1-0.3,1.4c-0.2,0.4-0.6,0.7-1,1
		c0.4,0.1,0.7,0.3,1,0.5c0.3,0.2,0.5,0.6,0.6,1c0.2,0.4,0.2,0.9,0.2,1.4c0,1.1-0.3,2-1,2.7c-0.6,0.7-1.4,1-2.3,1
		c-0.8,0-1.5-0.3-2.1-0.9C209.9,582.7,209.6,581.9,209.5,580.9z"/>
	<path class="st0" d="M217,578.2c0-2,0.3-3.5,0.8-4.5s1.3-1.5,2.4-1.5c0.9,0,1.6,0.4,2.2,1.2c0.6,1,1,2.6,1,4.8c0,2-0.3,3.5-0.8,4.5
		c-0.5,1-1.3,1.5-2.4,1.5c-0.9,0-1.7-0.4-2.3-1.3C217.3,581.9,217,580.4,217,578.2z M218.2,578.2c0,1.9,0.2,3.2,0.6,3.8
		c0.4,0.7,0.8,1,1.4,1c0.5,0,1-0.3,1.4-1c0.4-0.7,0.5-1.9,0.5-3.8c0-1.9-0.2-3.2-0.6-3.8c-0.4-0.6-0.8-1-1.4-1c-0.5,0-1,0.3-1.3,1
		C218.4,575,218.2,576.3,218.2,578.2z"/>
	<path class="st0" d="M228.6,575.5h1.8l1.8,6.8l2-6.8h1.7v8.5h-1.2v-6.9l-2.1,6.9h-1.1l-2-7.2v7.2h-1.2V575.5z"/>
	<path class="st0" d="M242.4,582.9c-0.4,0.4-0.8,0.7-1.2,0.9c-0.4,0.2-0.9,0.3-1.3,0.3c-0.7,0-1.3-0.2-1.7-0.7
		c-0.4-0.4-0.7-1-0.7-1.8c0-0.5,0.1-0.9,0.3-1.3c0.2-0.4,0.5-0.7,0.8-0.9c0.4-0.2,0.9-0.4,1.6-0.5c1-0.1,1.7-0.3,2.1-0.5l0-0.4
		c0-0.6-0.1-1-0.3-1.2c-0.3-0.3-0.7-0.5-1.4-0.5c-0.6,0-1,0.1-1.2,0.3c-0.3,0.2-0.5,0.7-0.6,1.3l-1.2-0.2c0.2-0.9,0.5-1.6,1-2
		c0.5-0.4,1.2-0.6,2.2-0.6c0.7,0,1.3,0.1,1.7,0.4c0.4,0.3,0.7,0.6,0.8,1c0.1,0.4,0.2,1,0.2,1.8v1.9c0,1.3,0,2.2,0.1,2.5
		c0.1,0.4,0.2,0.7,0.3,1h-1.2C242.5,583.7,242.4,583.3,242.4,582.9z M242.3,579.7c-0.4,0.2-1.1,0.4-1.9,0.5c-0.5,0.1-0.8,0.2-1,0.3
		c-0.2,0.1-0.4,0.3-0.5,0.5c-0.1,0.2-0.2,0.4-0.2,0.7c0,0.4,0.1,0.7,0.4,1c0.3,0.2,0.6,0.4,1,0.4c0.4,0,0.8-0.1,1.2-0.3
		c0.3-0.2,0.6-0.5,0.8-0.9c0.2-0.4,0.3-0.9,0.3-1.6V579.7z"/>
	<path class="st0" d="M250.9,575.5v8.5h-1.2v-3.3H249c-0.4,0-0.7,0.1-0.9,0.2c-0.2,0.1-0.5,0.6-0.9,1.3l-1,1.9h-1.5l1.3-2.3
		c0.4-0.7,0.8-1.1,1.2-1.2c-0.7-0.1-1.2-0.4-1.5-0.9c-0.3-0.5-0.5-1-0.5-1.7c0-0.8,0.2-1.4,0.7-1.8c0.4-0.4,1.1-0.7,1.8-0.7H250.9z
		 M249.7,576.7H248c-0.7,0-1.2,0.1-1.4,0.4c-0.2,0.3-0.3,0.6-0.3,0.9c0,0.5,0.2,0.9,0.5,1.1c0.3,0.2,0.8,0.4,1.6,0.4h1.3V576.7z"/>
	<path class="st0" d="M262.3,582.6v1.4h-6.4c0-0.6,0.2-1.2,0.5-1.9c0.4-0.7,1-1.5,2-2.5c1.1-1.1,1.8-2,2.2-2.6
		c0.3-0.6,0.5-1.2,0.5-1.7c0-0.6-0.2-1.1-0.5-1.5c-0.4-0.4-0.8-0.6-1.3-0.6c-0.6,0-1,0.2-1.4,0.6c-0.4,0.4-0.5,1-0.5,1.8l-1.2-0.2
		c0.1-1.1,0.4-2,1-2.5c0.6-0.6,1.3-0.9,2.2-0.9c1,0,1.7,0.3,2.2,1c0.5,0.7,0.8,1.4,0.8,2.3c0,0.7-0.2,1.5-0.6,2.2
		c-0.4,0.7-1.1,1.6-2.3,2.8c-0.7,0.7-1.2,1.2-1.4,1.5c-0.2,0.3-0.4,0.5-0.5,0.8H262.3z"/>
	<path class="st0" d="M263.6,578.2c0-2,0.3-3.5,0.8-4.5c0.5-1,1.3-1.5,2.4-1.5c0.9,0,1.6,0.4,2.2,1.2c0.6,1,1,2.6,1,4.8
		c0,2-0.3,3.5-0.8,4.5c-0.5,1-1.3,1.5-2.4,1.5c-0.9,0-1.7-0.4-2.3-1.3C263.9,581.9,263.6,580.4,263.6,578.2z M264.8,578.2
		c0,1.9,0.2,3.2,0.6,3.8c0.4,0.7,0.8,1,1.4,1c0.5,0,1-0.3,1.4-1c0.4-0.7,0.5-1.9,0.5-3.8c0-1.9-0.2-3.2-0.6-3.8
		c-0.4-0.6-0.8-1-1.4-1c-0.5,0-1,0.3-1.3,1C265,575,264.8,576.3,264.8,578.2z"/>
	<path class="st0" d="M277.3,582.6v1.4h-6.4c0-0.6,0.2-1.2,0.5-1.9c0.4-0.7,1-1.5,2-2.5c1.1-1.1,1.8-2,2.2-2.6
		c0.3-0.6,0.5-1.2,0.5-1.7c0-0.6-0.2-1.1-0.5-1.5c-0.4-0.4-0.8-0.6-1.3-0.6c-0.6,0-1,0.2-1.4,0.6c-0.4,0.4-0.5,1-0.5,1.8l-1.2-0.2
		c0.1-1.1,0.4-2,1-2.5s1.3-0.9,2.2-0.9c1,0,1.7,0.3,2.2,1c0.5,0.7,0.8,1.4,0.8,2.3c0,0.7-0.2,1.5-0.6,2.2c-0.4,0.7-1.1,1.6-2.3,2.8
		c-0.7,0.7-1.2,1.2-1.4,1.5c-0.2,0.3-0.4,0.5-0.5,0.8H277.3z"/>
	<path class="st0" d="M283,584h-1.2v-9.2c-0.3,0.3-0.6,0.6-1.1,1c-0.5,0.3-0.9,0.6-1.3,0.8v-1.4c0.7-0.4,1.2-0.8,1.7-1.4
		c0.5-0.5,0.9-1.1,1.1-1.6h0.8V584z"/>
</g>
</svg>
