<?xml version="1.0" encoding="utf-8"?>
<!-- Generator: Adobe Illustrator 19.2.1, SVG Export Plug-In . SVG Version: 6.00 Build 0)  -->
<svg version="1.1" id="Layer_1" xmlns="http://www.w3.org/2000/svg" xmlns:xlink="http://www.w3.org/1999/xlink" x="0px" y="0px"
	 width="300px" height="600px" viewBox="0 0 300 600" style="enable-background:new 0 0 300 600;" xml:space="preserve">
<style type="text/css">
	.st0{fill:#FFFFFF;}
</style>
<path class="st0" d="M36.4,180h-7.1v-21.8h-2.1V180H20v-27.3h16.3V180z"/>
<path class="st0" d="M39.5,152.8h7.1c1.9,0,3.4,0.2,4.5,0.5c1,0.3,1.8,0.7,2.3,1.3c0.5,0.6,0.9,1.3,1.1,2.1c0.2,0.8,0.3,2.1,0.3,3.8
	v2.4c0,1.7-0.2,3-0.5,3.8c-0.4,0.8-1,1.4-2,1.8c-1,0.4-2.2,0.6-3.8,0.6h-1.9v11h-7.1V152.8z M46.6,157.4v6.9c0.2,0,0.4,0,0.5,0
	c0.7,0,1.1-0.2,1.4-0.5c0.3-0.3,0.4-1,0.4-2v-2.2c0-0.9-0.1-1.5-0.4-1.8C48.2,157.6,47.6,157.4,46.6,157.4z"/>
<path class="st0" d="M73.4,168.7c0,2.7-0.1,4.7-0.2,5.8c-0.1,1.1-0.5,2.2-1.2,3.1c-0.7,0.9-1.6,1.7-2.8,2.2c-1.2,0.5-2.5,0.8-4,0.8
	c-1.5,0-2.8-0.2-3.9-0.7c-1.2-0.5-2.1-1.2-2.8-2.1c-0.7-1-1.1-2-1.3-3.1s-0.2-3.1-0.2-5.9v-4.7c0-2.7,0.1-4.7,0.2-5.8
	c0.1-1.1,0.5-2.2,1.2-3.1c0.7-0.9,1.6-1.7,2.8-2.2c1.2-0.5,2.5-0.8,4-0.8c1.5,0,2.8,0.2,3.9,0.7c1.2,0.5,2.1,1.2,2.8,2.1
	c0.7,1,1.1,2,1.3,3.1s0.2,3.1,0.2,5.9V168.7z M66.3,159.8c0-1.3-0.1-2.1-0.2-2.4c-0.1-0.4-0.4-0.5-0.9-0.5c-0.4,0-0.7,0.1-0.9,0.4
	s-0.3,1.1-0.3,2.5v12.7c0,1.6,0.1,2.6,0.2,2.9c0.1,0.4,0.4,0.6,0.9,0.6c0.5,0,0.8-0.2,0.9-0.6s0.2-1.4,0.2-3V159.8z"/>
<path class="st0" d="M76.4,152.8h7.1l0,11.5c1.3,0,2-0.8,2.1-2.2l0.1-5.3c0-2,0.4-3.3,1.1-4h6.6c-0.6,0.7-1,2-0.9,4.1l0,4.7
	c0,2.8-1.6,4.4-4.8,4.8c3.2,0.4,4.8,2,4.8,4.9l0,4.3c0,2.1,0.3,3.5,0.9,4.4h-6.6c-0.8-0.7-1.1-2-1.1-4v-5.3c0-0.7-0.2-1.2-0.6-1.6
	c-0.4-0.4-0.9-0.6-1.6-0.6l0,11.6h-7.1V152.8z"/>
<path class="st0" d="M107.5,152.8l4.1,27.3h-7.2l-0.4-4.9h-2.5L101,180h-7.3l3.6-27.3H107.5z M103.7,170.3
	c-0.4-3.1-0.7-6.9-1.1-11.5c-0.7,5.2-1.2,9-1.4,11.5H103.7z"/>
<path class="st0" d="M122.8,169.6c-0.6,0.6-1.3,1.1-2.2,1.5s-1.9,0.5-2.8,0.5c-1.7,0-2.9-0.5-3.7-1.4c-0.8-0.9-1.2-2.4-1.2-4.4v-13
	h7.1V165c0,1.1,0.1,1.8,0.3,2.2c0.2,0.4,0.5,0.6,0.9,0.6c1.1,0,1.6-0.9,1.6-2.7v-12.3h7.1V180h-7.1V169.6z"/>
<path class="st0" d="M145.3,152.8l4.1,27.3h-7.2l-0.4-4.9h-2.5l-0.4,4.9h-7.3l3.6-27.3H145.3z M141.6,170.3
	c-0.4-3.1-0.7-6.9-1.1-11.5c-0.7,5.2-1.2,9-1.4,11.5H141.6z"/>
<path class="st0" d="M166.8,180h-5.9v-12.4l-3.7,12.4H151v-27.3h5.9v12.3l4-12.3h5.9V180z M160.8,146.8h2.9
	c-0.1,1.5-0.5,2.8-1.3,3.7c-0.8,0.9-2,1.4-3.4,1.4c-1.5,0-2.6-0.5-3.4-1.4c-0.8-0.9-1.3-2.2-1.3-3.7h2.9c0.1,1.5,0.8,2.3,1.9,2.3
	C160,149.1,160.6,148.4,160.8,146.8z"/>
<path class="st0" d="M198.3,152.8V180h-6.2l0-18.4l-2.5,18.4h-4.4l-2.6-18l0,18h-6.2v-27.3h9.2c0.3,1.6,0.6,3.6,0.8,5.8l1,6.9
	l1.6-12.7H198.3z"/>
<path class="st0" d="M217.7,168.7c0,2.7-0.1,4.7-0.2,5.8c-0.1,1.1-0.5,2.2-1.2,3.1c-0.7,0.9-1.6,1.7-2.8,2.2c-1.2,0.5-2.5,0.8-4,0.8
	c-1.5,0-2.8-0.2-3.9-0.7c-1.2-0.5-2.1-1.2-2.8-2.1c-0.7-1-1.1-2-1.3-3.1s-0.2-3.1-0.2-5.9v-4.7c0-2.7,0.1-4.7,0.2-5.8
	c0.1-1.1,0.5-2.2,1.2-3.1c0.7-0.9,1.6-1.7,2.8-2.2c1.2-0.5,2.5-0.8,4-0.8c1.5,0,2.8,0.2,3.9,0.7c1.2,0.5,2.1,1.2,2.8,2.1
	c0.7,1,1.1,2,1.3,3.1s0.2,3.1,0.2,5.9V168.7z M210.6,159.8c0-1.3-0.1-2.1-0.2-2.4c-0.1-0.4-0.4-0.5-0.9-0.5c-0.4,0-0.7,0.1-0.9,0.4
	s-0.3,1.1-0.3,2.5v12.7c0,1.6,0.1,2.6,0.2,2.9c0.1,0.4,0.4,0.6,0.9,0.6c0.5,0,0.8-0.2,0.9-0.6s0.2-1.4,0.2-3V159.8z"/>
<path class="st0" d="M233.2,164.6c1,0.3,1.8,0.9,2.3,1.7c0.5,0.8,0.8,2.6,0.8,5.6c0,2.2-0.2,3.9-0.7,5c-0.5,1.2-1.3,2.1-2.6,2.7
	c-1.2,0.6-2.8,0.9-4.7,0.9c-2.2,0-3.8-0.4-5.1-1.1c-1.2-0.7-2-1.6-2.4-2.7c-0.4-1.1-0.6-2.9-0.6-5.5v-2.2h6.8v4.4
	c0,1.2,0.1,1.9,0.2,2.3c0.1,0.3,0.5,0.5,0.9,0.5c0.5,0,0.9-0.2,1-0.6c0.2-0.4,0.3-1.5,0.3-3.2v-1.9c0-1-0.1-1.8-0.4-2.3
	c-0.2-0.5-0.6-0.8-1-1c-0.5-0.2-1.4-0.2-2.7-0.3v-4c1.6,0,2.6-0.1,3-0.2c0.4-0.1,0.7-0.4,0.8-0.8c0.2-0.4,0.3-1.1,0.3-2v-1.5
	c0-1-0.1-1.6-0.3-1.9c-0.2-0.3-0.5-0.5-0.9-0.5c-0.5,0-0.8,0.2-1,0.5c-0.2,0.3-0.3,1-0.3,2v2.2h-6.8v-2.3c0-2.6,0.6-4.4,1.8-5.3
	s3.1-1.4,5.7-1.4c3.2,0,5.4,0.6,6.6,1.9c1.2,1.3,1.7,3,1.7,5.3c0,1.5-0.2,2.6-0.6,3.3C235,163.4,234.3,164,233.2,164.6z"/>
<path class="st0" d="M251.6,158.2h-5.2V180h-7.1v-27.3h12.3V158.2z"/>
<path class="st0" d="M269.7,180h-5.9v-12.4l-3.7,12.4h-6.2v-27.3h5.9v12.3l4-12.3h5.9V180z"/>
<path class="st0" d="M280.2,152.8l-1.1,20.5h-5.3l-1.1-20.5H280.2z M279.6,174.6v5.5h-6.4v-5.5H279.6z"/>
</svg>
