<?xml version="1.0" encoding="utf-8"?>
<!-- Generator: Adobe Illustrator 19.2.1, SVG Export Plug-In . SVG Version: 6.00 Build 0)  -->
<svg version="1.1" id="Layer_1" xmlns="http://www.w3.org/2000/svg" xmlns:xlink="http://www.w3.org/1999/xlink" x="0px" y="0px"
	 width="300px" height="600px" viewBox="0 0 300 600" style="enable-background:new 0 0 300 600;" xml:space="preserve">
<style type="text/css">
	.st0{fill:#FFFFFF;}
</style>
<g>
	<path class="st0" d="M37.4,23.7h8.8c2.8,0,4.9,0.2,6.3,0.6c1.4,0.4,2.6,1.3,3.5,2.6c0.9,1.3,1.3,3.4,1.3,6.4c0,2-0.3,3.4-0.9,4.1
		c-0.6,0.8-1.8,1.4-3.7,1.8c2,0.5,3.4,1.2,4.1,2.3c0.7,1.1,1.1,2.7,1.1,4.9v3.1c0,2.3-0.3,4-0.8,5.1s-1.4,1.9-2.5,2.3
		c-1.1,0.4-3.5,0.6-7,0.6H37.4V23.7z M46.2,29.5V37c0.4,0,0.7,0,0.9,0c0.9,0,1.4-0.2,1.6-0.6c0.2-0.4,0.4-1.6,0.4-3.6
		c0-1.1-0.1-1.8-0.3-2.2c-0.2-0.4-0.4-0.7-0.8-0.8C47.7,29.6,47.1,29.5,46.2,29.5z M46.2,42.3v9.5c1.2,0,2-0.2,2.4-0.6
		c0.3-0.3,0.5-1.2,0.5-2.6v-3.2c0-1.4-0.2-2.3-0.5-2.6C48.3,42.5,47.5,42.3,46.2,42.3z"/>
	<path class="st0" d="M81.9,49.6c0,2.5-0.3,4.3-1,5.4c-0.7,1.1-1.6,1.8-3,2.1c-1.3,0.3-3.4,0.4-6.4,0.4H61.4V23.7h8.8v11.6h1.4
		c2.7,0,4.8,0.2,6.2,0.5c1.4,0.3,2.4,1,3.1,2.1c0.7,1.1,1,2.8,1,5.1V49.6z M73.1,48.6v-4.9c0-1.4-0.1-2.3-0.4-2.6
		c-0.3-0.3-1.1-0.5-2.4-0.5v11.1c1.1,0,1.9-0.1,2.3-0.4C72.9,51,73.1,50.1,73.1,48.6z M93.7,57.5h-8.8V23.7h8.8V57.5z"/>
	<path class="st0" d="M117,57.5h-7.4V42.1l-4.6,15.4h-7.7V23.7h7.4v15.3l4.9-15.3h7.4V57.5z"/>
	<path class="st0" d="M136.2,30.4h-6.5v27.1h-8.8V23.7h15.3V30.4z"/>
	<path class="st0" d="M139,23.7h8.9c2.4,0,4.2,0.2,5.5,0.6c1.3,0.4,2.3,0.9,2.9,1.6c0.6,0.7,1.1,1.6,1.3,2.6c0.2,1,0.3,2.6,0.3,4.7
		v2.9c0,2.2-0.2,3.7-0.7,4.7c-0.4,1-1.3,1.7-2.5,2.3c-1.2,0.5-2.7,0.8-4.7,0.8h-2.4v13.6H139V23.7z M147.8,29.5v8.6
		c0.3,0,0.5,0,0.6,0c0.8,0,1.4-0.2,1.7-0.6c0.3-0.4,0.5-1.2,0.5-2.5v-2.8c0-1.2-0.2-1.9-0.5-2.3C149.7,29.7,148.9,29.5,147.8,29.5z"
		/>
	<path class="st0" d="M181.4,49.6c0,2.5-0.3,4.3-1,5.4c-0.7,1.1-1.6,1.8-3,2.1s-3.4,0.4-6.4,0.4h-10.2V23.7h8.8v11.6h1.4
		c2.7,0,4.8,0.2,6.2,0.5c1.4,0.3,2.4,1,3.1,2.1c0.7,1.1,1,2.8,1,5.1V49.6z M172.5,48.6v-4.9c0-1.4-0.1-2.3-0.4-2.6
		c-0.3-0.3-1.1-0.5-2.4-0.5v11.1c1.1,0,1.9-0.1,2.3-0.4C172.3,51,172.5,50.1,172.5,48.6z M193.2,57.5h-8.8V23.7h8.8V57.5z"/>
	<path class="st0" d="M196.8,23.7h8.8c2.8,0,4.9,0.2,6.3,0.6c1.4,0.4,2.6,1.3,3.5,2.6c0.9,1.3,1.3,3.4,1.3,6.4c0,2-0.3,3.4-0.9,4.1
		c-0.6,0.8-1.8,1.4-3.7,1.8c2,0.5,3.4,1.2,4.1,2.3c0.7,1.1,1.1,2.7,1.1,4.9v3.1c0,2.3-0.3,4-0.8,5.1s-1.4,1.9-2.5,2.3
		c-1.1,0.4-3.5,0.6-7,0.6h-10.2V23.7z M205.6,29.5V37c0.4,0,0.7,0,0.9,0c0.9,0,1.4-0.2,1.6-0.6s0.4-1.6,0.4-3.6
		c0-1.1-0.1-1.8-0.3-2.2c-0.2-0.4-0.4-0.7-0.8-0.8C207.1,29.6,206.5,29.5,205.6,29.5z M205.6,42.3v9.5c1.2,0,2-0.2,2.4-0.6
		s0.5-1.2,0.5-2.6v-3.2c0-1.4-0.2-2.3-0.5-2.6C207.7,42.5,206.9,42.3,205.6,42.3z"/>
	<path class="st0" d="M236,23.7l5,33.8h-9l-0.5-6.1h-3.1l-0.5,6.1h-9.1l4.5-33.8H236z M231.4,45.4c-0.4-3.8-0.9-8.6-1.3-14.2
		c-0.9,6.5-1.5,11.2-1.7,14.2H231.4z"/>
	<path class="st0" d="M262.6,57.5h-7.4V42.1l-4.6,15.4H243V23.7h7.4v15.3l4.9-15.3h7.4V57.5z M255.1,16.3h3.5
		c-0.1,1.9-0.6,3.4-1.7,4.6c-1,1.2-2.4,1.7-4.3,1.7c-1.8,0-3.3-0.6-4.3-1.7c-1-1.2-1.6-2.7-1.6-4.6h3.6c0.2,1.9,1,2.9,2.4,2.9
		C254.2,19.2,255,18.2,255.1,16.3z"/>
	<path class="st0" d="M80.7,102.2h-8.8V75.1h-2.6v27.1h-8.8V68.4h20.2V102.2z"/>
	<path class="st0" d="M84.7,68.4h8.9c2.4,0,4.2,0.2,5.5,0.6c1.3,0.4,2.3,0.9,2.9,1.6c0.6,0.7,1.1,1.6,1.3,2.6c0.2,1,0.3,2.6,0.3,4.7
		v2.9c0,2.2-0.2,3.7-0.7,4.7c-0.4,1-1.3,1.7-2.5,2.3c-1.2,0.5-2.7,0.8-4.7,0.8h-2.4v13.6h-8.8V68.4z M93.5,74.2v8.6
		c0.3,0,0.5,0,0.6,0c0.8,0,1.4-0.2,1.7-0.6c0.3-0.4,0.5-1.2,0.5-2.5v-2.8c0-1.2-0.2-1.9-0.5-2.3C95.3,74.3,94.6,74.2,93.5,74.2z"/>
	<path class="st0" d="M126.2,102.2h-7.4V86.8l-4.6,15.4h-7.7V68.4h7.4v15.3l4.9-15.3h7.4V102.2z"/>
	<path class="st0" d="M145.7,83c1.3,0.4,2.2,1.1,2.9,2.1c0.6,1,0.9,3.3,0.9,6.9c0,2.7-0.3,4.8-0.9,6.3c-0.6,1.5-1.7,2.6-3.2,3.4
		c-1.5,0.8-3.4,1.2-5.8,1.2c-2.7,0-4.8-0.4-6.3-1.3c-1.5-0.9-2.5-2-3-3.3c-0.5-1.3-0.7-3.6-0.7-6.8v-2.7h8.4v5.5
		c0,1.5,0.1,2.4,0.3,2.8c0.2,0.4,0.6,0.6,1.2,0.6c0.7,0,1.1-0.3,1.3-0.8c0.2-0.5,0.3-1.8,0.3-3.9v-2.3c0-1.3-0.1-2.2-0.4-2.8
		c-0.3-0.6-0.7-1-1.3-1.2c-0.6-0.2-1.7-0.3-3.3-0.3v-4.9c2,0,3.2-0.1,3.7-0.2c0.5-0.2,0.8-0.5,1-1c0.2-0.5,0.3-1.3,0.3-2.4v-1.9
		c0-1.2-0.1-2-0.4-2.3c-0.2-0.4-0.6-0.6-1.1-0.6c-0.6,0-1,0.2-1.2,0.6c-0.2,0.4-0.3,1.2-0.3,2.5v2.8h-8.4V76c0-3.2,0.7-5.4,2.2-6.5
		c1.5-1.1,3.8-1.7,7-1.7c4,0,6.8,0.8,8.2,2.4c1.4,1.6,2.2,3.8,2.2,6.6c0,1.9-0.3,3.3-0.8,4.1C147.9,81.6,147,82.3,145.7,83z"/>
	<path class="st0" d="M173.7,94.3c0,2.5-0.3,4.3-1,5.4c-0.7,1.1-1.6,1.8-3,2.1c-1.3,0.3-3.4,0.4-6.4,0.4h-10.2V68.4h8.8v11.6h1.4
		c2.7,0,4.8,0.2,6.2,0.5c1.4,0.3,2.4,1,3.1,2.1c0.7,1.1,1,2.8,1,5.1V94.3z M164.9,93.3v-4.9c0-1.4-0.1-2.3-0.4-2.6
		c-0.3-0.3-1.1-0.5-2.4-0.5v11.1c1.1,0,1.9-0.1,2.3-0.4C164.7,95.6,164.9,94.8,164.9,93.3z M185.5,102.2h-8.8V68.4h8.8V102.2z"/>
	<path class="st0" d="M217.3,68.4v33.8h-8.8V88h-2.6v14.2h-8.8V68.4h8.8v12.1h2.6V68.4H217.3z"/>
	<path class="st0" d="M236.5,68.4l5,33.8h-9l-0.5-6.1h-3.1l-0.5,6.1h-9.1l4.5-33.8H236.5z M231.8,90.1c-0.4-3.8-0.9-8.6-1.3-14.2
		c-0.9,6.5-1.5,11.2-1.7,14.2H231.8z"/>
</g>
</svg>
