<?xml version="1.0" encoding="utf-8"?>
<!-- Generator: Adobe Illustrator 19.2.1, SVG Export Plug-In . SVG Version: 6.00 Build 0)  -->
<svg version="1.1" id="Layer_1" xmlns="http://www.w3.org/2000/svg" xmlns:xlink="http://www.w3.org/1999/xlink" x="0px" y="0px"
	 width="300px" height="600px" viewBox="0 0 300 600" style="enable-background:new 0 0 300 600;" xml:space="preserve">
<style type="text/css">
	.st0{fill:#FAAE19;}
</style>
<g>
	<path class="st0" d="M36.6,125.6h-7.1v-4.7c0-1.4-0.1-2.2-0.2-2.6c-0.2-0.3-0.5-0.5-1-0.5c-0.6,0-1,0.2-1.1,0.6s-0.2,1.3-0.2,2.7
		v12.7c0,1.3,0.1,2.2,0.2,2.6s0.5,0.6,1.1,0.6c0.5,0,0.9-0.2,1-0.6c0.2-0.4,0.2-1.4,0.2-2.9v-3.4h7.1v1.1c0,2.8-0.2,4.8-0.6,6
		c-0.4,1.2-1.3,2.2-2.6,3.1c-1.4,0.9-3,1.3-5,1.3c-2.1,0-3.8-0.4-5.1-1.1c-1.3-0.8-2.2-1.8-2.7-3.1c-0.4-1.3-0.7-3.3-0.7-6v-8
		c0-2,0.1-3.4,0.2-4.4s0.5-1.9,1.2-2.8c0.7-0.9,1.6-1.6,2.8-2.1s2.5-0.8,4.1-0.8c2.1,0,3.8,0.4,5.2,1.2c1.4,0.8,2.3,1.8,2.7,3
		s0.6,3.1,0.6,5.6V125.6z"/>
	<path class="st0" d="M55.8,113.7V141h-7.1v-11.5h-2.1V141h-7.1v-27.3h7.1v9.8h2.1v-9.8H55.8z"/>
	<path class="st0" d="M74.8,141h-5.9v-12.4L65.2,141H59v-27.3h5.9V126l4-12.3h5.9V141z"/>
	<path class="st0" d="M78,113.7h7.1l0,11.5c1.3,0,2-0.8,2.1-2.2l0.1-5.3c0-2,0.4-3.3,1.1-4h6.6c-0.6,0.7-1,2-0.9,4.1l0,4.7
		c0,2.8-1.6,4.4-4.8,4.8c3.2,0.4,4.8,2,4.8,4.9l0,4.3c0,2.1,0.3,3.5,0.9,4.4h-6.6c-0.8-0.7-1.1-2-1.1-4v-5.3c0-0.7-0.2-1.2-0.6-1.6
		s-0.9-0.6-1.6-0.6l0,11.6H78V113.7z"/>
	<path class="st0" d="M96.8,113.7h11.8v5.5h-4.7v5.2h4.4v5.2h-4.4v6h5.2v5.5H96.8V113.7z"/>
	<path class="st0" d="M111.5,113.7h7.1c1.9,0,3.4,0.2,4.5,0.5c1,0.3,1.8,0.7,2.3,1.3c0.5,0.6,0.9,1.3,1.1,2.1
		c0.2,0.8,0.3,2.1,0.3,3.8v2.4c0,1.7-0.2,3-0.5,3.8c-0.4,0.8-1,1.4-2,1.8s-2.2,0.6-3.8,0.6h-1.9v11h-7.1V113.7z M118.6,118.4v6.9
		c0.2,0,0.4,0,0.5,0c0.7,0,1.1-0.2,1.4-0.5c0.3-0.3,0.4-1,0.4-2v-2.2c0-0.9-0.1-1.5-0.4-1.8S119.5,118.4,118.6,118.4z"/>
	<path class="st0" d="M145.8,125.6h-7.1v-4.7c0-1.4-0.1-2.2-0.2-2.6c-0.2-0.3-0.5-0.5-1-0.5c-0.6,0-1,0.2-1.1,0.6s-0.2,1.3-0.2,2.7
		v12.7c0,1.3,0.1,2.2,0.2,2.6s0.5,0.6,1.1,0.6c0.5,0,0.9-0.2,1-0.6c0.2-0.4,0.2-1.4,0.2-2.9v-3.4h7.1v1.1c0,2.8-0.2,4.8-0.6,6
		c-0.4,1.2-1.3,2.2-2.6,3.1c-1.4,0.9-3,1.3-5,1.3c-2.1,0-3.8-0.4-5.1-1.1c-1.3-0.8-2.2-1.8-2.7-3.1c-0.4-1.3-0.7-3.3-0.7-6v-8
		c0-2,0.1-3.4,0.2-4.4s0.5-1.9,1.2-2.8c0.7-0.9,1.6-1.6,2.8-2.1s2.5-0.8,4.1-0.8c2.1,0,3.8,0.4,5.2,1.2c1.4,0.8,2.3,1.8,2.7,3
		s0.6,3.1,0.6,5.6V125.6z"/>
	<path class="st0" d="M165,113.7V141h-7.1v-11.5h-2.1V141h-7.1v-27.3h7.1v9.8h2.1v-9.8H165z"/>
	<path class="st0" d="M184,141h-5.9v-12.4l-3.7,12.4h-6.2v-27.3h5.9V126l4-12.3h5.9V141z"/>
	<path class="st0" d="M194.4,113.7l-1.1,20.5h-5.3l-1.1-20.5H194.4z M193.9,135.5v5.5h-6.4v-5.5H193.9z"/>
</g>
</svg>
