<?xml version="1.0" encoding="utf-8"?>
<!-- Generator: Adobe Illustrator 19.2.1, SVG Export Plug-In . SVG Version: 6.00 Build 0)  -->
<svg version="1.1" id="Layer_1" xmlns="http://www.w3.org/2000/svg" xmlns:xlink="http://www.w3.org/1999/xlink" x="0px" y="0px"
	 width="300px" height="600px" viewBox="0 0 300 600" style="enable-background:new 0 0 300 600;" xml:space="preserve">
<style type="text/css">
	.st0{fill:#FFFFFF;}
</style>
<g>
	<path class="st0" d="M44.7,112.7h-7.1V97.8l-4.4,14.9h-7.5V79.9h7.1v14.8l4.8-14.8h7.1V112.7z"/>
	<path class="st0" d="M56.2,79.9h8.5c2.7,0,4.7,0.2,6.1,0.6c1.4,0.4,2.5,1.3,3.3,2.5s1.3,3.3,1.3,6.2c0,1.9-0.3,3.2-0.9,4
		c-0.6,0.8-1.8,1.3-3.6,1.7c2,0.4,3.3,1.2,4,2.2c0.7,1,1.1,2.6,1.1,4.7v3c0,2.2-0.3,3.9-0.8,4.9c-0.5,1.1-1.3,1.8-2.4,2.2
		c-1.1,0.4-3.4,0.6-6.8,0.6h-9.9V79.9z M64.7,85.5v7.3c0.4,0,0.6,0,0.8,0c0.8,0,1.4-0.2,1.6-0.6c0.2-0.4,0.3-1.6,0.3-3.5
		c0-1-0.1-1.7-0.3-2.2c-0.2-0.4-0.4-0.7-0.7-0.8C66.2,85.6,65.6,85.5,64.7,85.5z M64.7,97.9v9.2c1.2,0,2-0.2,2.3-0.6
		c0.3-0.3,0.5-1.2,0.5-2.5v-3.1c0-1.4-0.1-2.3-0.4-2.5C66.7,98.1,66,97.9,64.7,97.9z"/>
	<path class="st0" d="M99.3,105c0,2.4-0.3,4.2-1,5.3c-0.6,1.1-1.6,1.7-2.9,2c-1.3,0.3-3.3,0.4-6.2,0.4h-9.9V79.9H88v11.2h1.3
		c2.6,0,4.6,0.2,6,0.5c1.3,0.3,2.4,1,3,2.1c0.7,1.1,1,2.7,1,5V105z M90.8,104v-4.7c0-1.4-0.1-2.2-0.4-2.5c-0.3-0.3-1.1-0.5-2.4-0.5
		V107c1.1,0,1.8-0.1,2.2-0.4C90.6,106.3,90.8,105.5,90.8,104z M110.7,112.7h-8.5V79.9h8.5V112.7z"/>
	<path class="st0" d="M133.3,112.7h-7.1V97.8l-4.4,14.9h-7.5V79.9h7.1v14.8l4.8-14.8h7.1V112.7z"/>
	<path class="st0" d="M151.9,86.4h-6.3v26.2h-8.5V79.9h14.8V86.4z"/>
	<path class="st0" d="M154.6,79.9h8.6c2.3,0,4.1,0.2,5.3,0.5c1.2,0.4,2.2,0.9,2.8,1.6c0.6,0.7,1.1,1.5,1.3,2.5
		c0.2,1,0.3,2.5,0.3,4.5v2.9c0,2.1-0.2,3.6-0.6,4.6c-0.4,1-1.2,1.7-2.4,2.2c-1.2,0.5-2.7,0.8-4.5,0.8h-2.3v13.2h-8.5V79.9z
		 M163.1,85.5v8.3c0.2,0,0.5,0,0.6,0c0.8,0,1.3-0.2,1.6-0.6c0.3-0.4,0.5-1.2,0.5-2.4v-2.7c0-1.1-0.2-1.8-0.5-2.2
		C164.9,85.7,164.2,85.5,163.1,85.5z"/>
	<path class="st0" d="M195.6,105c0,2.4-0.3,4.2-1,5.3c-0.6,1.1-1.6,1.7-2.9,2c-1.3,0.3-3.3,0.4-6.2,0.4h-9.9V79.9h8.5v11.2h1.3
		c2.6,0,4.6,0.2,6,0.5c1.3,0.3,2.4,1,3,2.1c0.7,1.1,1,2.7,1,5V105z M187.1,104v-4.7c0-1.4-0.1-2.2-0.4-2.5s-1.1-0.5-2.4-0.5V107
		c1.1,0,1.8-0.1,2.2-0.4C186.9,106.3,187.1,105.5,187.1,104z M207.1,112.7h-8.5V79.9h8.5V112.7z"/>
	<path class="st0" d="M210.6,79.9h8.5c2.7,0,4.7,0.2,6.1,0.6s2.5,1.3,3.3,2.5s1.3,3.3,1.3,6.2c0,1.9-0.3,3.2-0.9,4
		c-0.6,0.8-1.8,1.3-3.5,1.7c2,0.4,3.3,1.2,4,2.2c0.7,1,1.1,2.6,1.1,4.7v3c0,2.2-0.3,3.9-0.8,4.9c-0.5,1.1-1.3,1.8-2.4,2.2
		c-1.1,0.4-3.4,0.6-6.8,0.6h-9.9V79.9z M219.1,85.5v7.3c0.4,0,0.6,0,0.8,0c0.8,0,1.4-0.2,1.6-0.6c0.2-0.4,0.3-1.6,0.3-3.5
		c0-1-0.1-1.7-0.3-2.2c-0.2-0.4-0.4-0.7-0.7-0.8C220.6,85.6,220,85.5,219.1,85.5z M219.1,97.9v9.2c1.2,0,2-0.2,2.3-0.6
		c0.3-0.3,0.5-1.2,0.5-2.5v-3.1c0-1.4-0.1-2.3-0.4-2.5C221.2,98.1,220.4,97.9,219.1,97.9z"/>
	<path class="st0" d="M248.6,79.9l4.9,32.8h-8.7l-0.5-5.9h-3l-0.5,5.9H232l4.3-32.8H248.6z M244.1,101c-0.4-3.7-0.9-8.3-1.3-13.8
		c-0.9,6.3-1.4,10.9-1.6,13.8H244.1z"/>
	<path class="st0" d="M274.4,112.7h-7.1V97.8l-4.4,14.9h-7.5V79.9h7.1v14.8l4.8-14.8h7.1V112.7z M267.1,72.8h3.4
		c-0.1,1.8-0.6,3.3-1.6,4.4c-1,1.1-2.4,1.7-4.1,1.7c-1.8,0-3.2-0.6-4.1-1.7c-1-1.1-1.5-2.6-1.6-4.4h3.4c0.2,1.8,0.9,2.8,2.3,2.8
		C266.2,75.5,267,74.6,267.1,72.8z"/>
	<path class="st0" d="M109.2,155.9h-8.5v-26.2h-2.5v26.2h-8.5v-32.8h19.6V155.9z"/>
	<path class="st0" d="M113,123.2h8.6c2.3,0,4.1,0.2,5.4,0.5c1.2,0.4,2.2,0.9,2.8,1.6c0.6,0.7,1.1,1.5,1.3,2.5c0.2,1,0.3,2.5,0.3,4.5
		v2.9c0,2.1-0.2,3.6-0.6,4.6c-0.4,1-1.2,1.7-2.4,2.2c-1.2,0.5-2.7,0.8-4.5,0.8h-2.3v13.2H113V123.2z M121.5,128.8v8.3
		c0.2,0,0.5,0,0.6,0c0.8,0,1.3-0.2,1.6-0.6c0.3-0.4,0.5-1.2,0.5-2.4v-2.7c0-1.1-0.2-1.8-0.5-2.2C123.4,129,122.6,128.8,121.5,128.8z
		"/>
	<path class="st0" d="M153.2,155.9h-7.1V141l-4.4,14.9h-7.5v-32.8h7.1V138l4.8-14.8h7.1V155.9z"/>
	<path class="st0" d="M172.1,137.4c1.2,0.4,2.2,1.1,2.8,2.1c0.6,1,0.9,3.2,0.9,6.7c0,2.6-0.3,4.6-0.9,6.1c-0.6,1.4-1.6,2.5-3.1,3.3
		c-1.5,0.7-3.3,1.1-5.6,1.1c-2.6,0-4.6-0.4-6.1-1.3c-1.5-0.9-2.4-1.9-2.9-3.2c-0.5-1.3-0.7-3.4-0.7-6.6v-2.6h8.2v5.3
		c0,1.4,0.1,2.3,0.3,2.7c0.2,0.4,0.5,0.6,1.1,0.6c0.6,0,1.1-0.2,1.3-0.7c0.2-0.5,0.3-1.8,0.3-3.8v-2.3c0-1.3-0.1-2.2-0.4-2.8
		c-0.3-0.6-0.7-1-1.3-1.1c-0.6-0.2-1.6-0.3-3.2-0.3v-4.8c1.9,0,3.1-0.1,3.6-0.2c0.5-0.1,0.8-0.5,1-1s0.3-1.3,0.3-2.3v-1.8
		c0-1.1-0.1-1.9-0.4-2.3c-0.2-0.4-0.6-0.5-1.1-0.5c-0.6,0-1,0.2-1.2,0.6c-0.2,0.4-0.3,1.2-0.3,2.5v2.7h-8.2v-2.8
		c0-3.1,0.7-5.2,2.1-6.3c1.4-1.1,3.7-1.6,6.8-1.6c3.9,0,6.5,0.8,7.9,2.3c1.4,1.5,2.1,3.6,2.1,6.3c0,1.8-0.2,3.2-0.7,4
		S173.4,136.7,172.1,137.4z"/>
	<path class="st0" d="M199.3,148.3c0,2.4-0.3,4.2-1,5.3s-1.6,1.7-2.9,2c-1.3,0.3-3.3,0.4-6.2,0.4h-9.9v-32.8h8.5v11.2h1.3
		c2.6,0,4.6,0.2,6,0.5c1.3,0.3,2.4,1,3,2.1c0.7,1.1,1,2.7,1,5V148.3z M190.7,147.3v-4.7c0-1.4-0.1-2.2-0.4-2.5
		c-0.3-0.3-1.1-0.5-2.4-0.5v10.8c1.1,0,1.8-0.1,2.2-0.4C190.5,149.6,190.7,148.7,190.7,147.3z M210.7,155.9h-8.5v-32.8h8.5V155.9z"
		/>
</g>
</svg>
