<?xml version="1.0" encoding="utf-8"?>
<!-- Generator: Adobe Illustrator 19.2.1, SVG Export Plug-In . SVG Version: 6.00 Build 0)  -->
<svg version="1.1" id="Layer_1" xmlns="http://www.w3.org/2000/svg" xmlns:xlink="http://www.w3.org/1999/xlink" x="0px" y="0px"
	 width="300px" height="250px" viewBox="0 0 300 250" style="enable-background:new 0 0 300 250;" xml:space="preserve">
<style type="text/css">
	.st0{fill:#FFFFFF;}
</style>
<g>
	<path class="st0" d="M42,31v17.5h-4V36.7l-1.6,11.8h-2.8L31.9,37v11.5h-4V31h5.8c0.1,1.1,0.4,2.3,0.5,3.7l0.7,4.5L36,31
		C36,31,42,31,42,31z"/>
	<path class="st0" d="M48.3,31v17.5h-4.5V31H48.3z"/>
	<path class="st0" d="M59.9,31l-3.3,11.2v6.4h-4.2v-6.4L49.1,31h4.2c0.7,3.5,1.1,5.7,1.1,6.9c0.3-1.9,0.7-4.1,1.3-6.9
		C55.8,31,59.9,31,59.9,31z"/>
	<path class="st0" d="M67.5,31l2.7,17.5h-4.6l-0.3-3.2h-1.6l-0.3,3.2h-4.6L61.1,31C61.1,31,67.5,31,67.5,31z M65.1,42.3
		c-0.3-2-0.4-4.4-0.7-7.3c-0.4,3.3-0.8,5.8-0.9,7.3H65.1z"/>
	<path class="st0" d="M81,31v17.5h-4l-2.4-8v8h-3.8V31h3.8l2.5,7.8V31H81z"/>
	<path class="st0" d="M93.2,37.5h-4.5v-1.6c0-1.1,0-1.6-0.1-1.9c-0.1-0.3-0.3-0.4-0.7-0.4c-0.3,0-0.5,0.1-0.5,0.3
		c-0.1,0.3-0.1,0.8-0.1,1.7V44c0,0.8,0,1.3,0.1,1.6S87.6,46,88,46c0.4,0,0.5-0.1,0.7-0.4c0.1-0.3,0.1-0.8,0.1-1.6v-2.3h-0.9v-2.7
		h5.3v9.4h-2.9l-0.4-1.2c-0.3,0.5-0.7,0.9-1.2,1.2c-0.5,0.3-1.1,0.4-1.7,0.4c-0.8,0-1.5-0.1-2.1-0.5c-0.7-0.4-1.2-0.8-1.5-1.3
		c-0.4-0.5-0.5-1.1-0.7-1.7c-0.1-0.7-0.1-1.5-0.1-2.7v-5.2c0-1.7,0.1-2.9,0.3-3.6c0.1-0.8,0.7-1.5,1.6-2.1c0.9-0.7,2-0.9,3.3-0.9
		c1.3,0,2.4,0.3,3.3,0.8c0.9,0.5,1.5,1.2,1.7,2c0.3,0.8,0.4,1.9,0.4,3.3V37.5z"/>
	<path class="st0" d="M105.1,31v17.5h-4l-2.4-8v8h-3.8V31h3.8l2.5,7.8V31H105.1z"/>
	<path class="st0" d="M111.5,31v17.5H107V31H111.5z"/>
	<path class="st0" d="M121.1,31v3.5l-3.5,10.5h3.5v3.5h-8.4v-2.5l3.5-11.4h-3.1V31H121.1z"/>
	<path class="st0" d="M132.4,31v17.5h-4l-2.4-8v8h-3.8V31h3.8l2.5,7.8V31H132.4z"/>
	<path class="st0" d="M138.7,31v17.5h-4.5V31H138.7z"/>
	<path class="st0" d="M155.2,38.7h-4.5v-3.1c0-0.9,0-1.5-0.1-1.6c-0.1-0.3-0.3-0.3-0.7-0.3s-0.7,0.1-0.7,0.4
		c-0.1,0.3-0.1,0.8-0.1,1.7V44c0,0.8,0,1.5,0.1,1.7c0.1,0.3,0.3,0.4,0.7,0.4s0.5-0.1,0.7-0.4c0.1-0.3,0.1-0.9,0.1-1.9v-2.3h4.5v0.7
		c0,1.9-0.1,3.1-0.4,3.8c-0.3,0.8-0.8,1.5-1.7,2c-0.9,0.5-2,0.8-3.2,0.8c-1.3,0-2.4-0.3-3.3-0.7c-0.9-0.5-1.5-1.2-1.7-2
		c-0.3-0.8-0.4-2.1-0.4-3.8v-5.2c0-1.3,0-2.3,0.1-2.8c0.1-0.7,0.4-1.2,0.8-1.9c0.4-0.5,1.1-1.1,1.7-1.3c0.8-0.4,1.6-0.5,2.7-0.5
		c1.3,0,2.4,0.3,3.3,0.8c0.9,0.5,1.5,1.2,1.7,2c0.3,0.8,0.4,2,0.4,3.6L155.2,38.7L155.2,38.7z"/>
	<path class="st0" d="M167.3,31v17.5h-4.5v-7.3h-1.3v7.3h-4.5V31h4.5v6.2h1.3V31C162.8,31,167.3,31,167.3,31z"/>
	<path class="st0" d="M177,31l2.7,17.5H175l-0.3-3.2h-1.6l-0.3,3.2h-4.6l2.4-17.5C170.6,31,177,31,177,31z M174.6,42.3
		c-0.3-2-0.4-4.4-0.7-7.3c-0.4,3.3-0.8,5.8-0.9,7.3H174.6z"/>
	<path class="st0" d="M180.4,31h3.2c2.1,0,3.6,0.1,4.4,0.3c0.8,0.1,1.3,0.5,1.9,1.3c0.5,0.7,0.7,1.7,0.7,3.3c0,1.3-0.1,2.3-0.5,2.8
		c-0.4,0.5-1.1,0.8-2,0.8c0.9,0.3,1.5,0.5,1.9,0.9c0.3,0.4,0.5,0.7,0.5,1.1c0.1,0.3,0.1,1.2,0.1,2.7v4.6h-4.2v-5.8
		c0-0.9-0.1-1.5-0.3-1.7c-0.1-0.3-0.5-0.4-1.2-0.4v8h-4.4V31z M184.9,34v3.8c0.5,0,0.9-0.1,1.1-0.3c0.3-0.1,0.3-0.5,0.3-1.3v-0.9
		c0-0.5-0.1-0.9-0.3-1.1C185.9,34,185.5,34,184.9,34z"/>
	<path class="st0" d="M201.5,31l-1.6,7.7l2.4,9.8h-4.2c-0.5-1.7-0.9-3.8-1.3-6.4c-0.1,1.1-0.3,2.3-0.5,3.6l-0.4,2.9h-4.4l1.6-9.8
		l-1.6-7.7h4.4c0.1,0.5,0.3,1.3,0.5,2.4c0.1,0.8,0.4,1.6,0.5,2.4l0.9-4.8h3.7V31z"/>
	<path class="st0" d="M207.5,31v14.1h2.8v3.5H203V31H207.5z"/>
	<path class="st0" d="M219.8,31l2.7,17.5h-4.6l-0.3-3.2H216l-0.3,3.2h-4.8l2.4-17.5C213.3,31,219.8,31,219.8,31z M217.4,42.3
		c-0.3-2-0.4-4.4-0.7-7.3c-0.4,3.3-0.8,5.8-0.9,7.3H217.4z"/>
	<path class="st0" d="M233.4,31v17.5h-4l-2.4-8v8h-3.8V31h3.8l2.5,7.8V31H233.4z"/>
	<path class="st0" d="M245.7,37.5h-4.5v-1.6c0-1.1,0-1.6-0.1-1.9c-0.1-0.3-0.3-0.4-0.7-0.4c-0.3,0-0.5,0.1-0.5,0.3
		c-0.1,0.3-0.1,0.8-0.1,1.7V44c0,0.8,0,1.3,0.1,1.6s0.3,0.4,0.7,0.4c0.4,0,0.5-0.1,0.7-0.4c0.1-0.3,0.1-0.8,0.1-1.6v-2.3h-0.9v-2.7
		h5.3v9.4h-2.9l-0.4-1.2c-0.3,0.5-0.7,0.9-1.2,1.2c-0.5,0.3-1.1,0.4-1.7,0.4c-0.8,0-1.5-0.1-2.1-0.5c-0.7-0.4-1.2-0.8-1.5-1.3
		c-0.4-0.5-0.5-1.1-0.7-1.7s-0.1-1.5-0.1-2.7v-5.2c0-1.7,0.1-2.9,0.3-3.6c0.1-0.8,0.7-1.5,1.6-2.1c0.9-0.7,2-0.9,3.3-0.9
		c1.3,0,2.4,0.3,3.3,0.8c0.9,0.5,1.5,1.2,1.7,2c0.3,0.8,0.4,1.9,0.4,3.3V37.5z"/>
	<path class="st0" d="M252.1,31l-0.7,13.1h-3.3L247.4,31H252.1z M251.8,45.1v3.5h-4.1v-3.5H251.8z"/>
</g>
</svg>
