<?xml version="1.0" encoding="utf-8"?>
<!-- Generator: Adobe Illustrator 25.0.1, SVG Export Plug-In . SVG Version: 6.00 Build 0)  -->
<svg version="1.1" id="Layer_1" xmlns="http://www.w3.org/2000/svg" xmlns:xlink="http://www.w3.org/1999/xlink" x="0px" y="0px"
	 viewBox="0 0 300 55" style="enable-background:new 0 0 300 55;" xml:space="preserve">
<style type="text/css">
	.st0{fill:#FCAF17;}
</style>
<g>
	<path class="st0" d="M35.9,20.3h-8.8v-2.7c0-1.3-0.1-2.1-0.3-2.4c-0.2-0.3-0.6-0.5-1.1-0.5c-0.6,0-1,0.2-1.3,0.7s-0.4,1.2-0.4,2.1
		c0,1.2,0.2,2.1,0.5,2.8c0.3,0.6,1.2,1.4,2.7,2.2c4.2,2.5,6.9,4.6,8,6.2c1.1,1.6,1.7,4.2,1.7,7.8c0,2.6-0.3,4.5-0.9,5.8
		s-1.8,2.3-3.5,3.1c-1.7,0.8-3.8,1.3-6.1,1.3c-2.5,0-4.7-0.5-6.5-1.4c-1.8-1-3-2.2-3.5-3.7s-0.8-3.6-0.8-6.4v-2.4h8.8v4.5
		c0,1.4,0.1,2.3,0.4,2.6c0.2,0.4,0.7,0.6,1.3,0.6s1.1-0.2,1.4-0.7c0.3-0.5,0.5-1.2,0.5-2.2c0-2.2-0.3-3.6-0.9-4.2
		c-0.6-0.7-2.1-1.8-4.5-3.3c-2.4-1.6-3.9-2.7-4.7-3.4s-1.4-1.7-1.9-2.9c-0.5-1.3-0.8-2.8-0.8-4.8c0-2.8,0.4-4.9,1.1-6.1
		s1.9-2.3,3.5-3s3.5-1.1,5.8-1.1c2.5,0,4.6,0.4,6.3,1.2c1.7,0.8,2.9,1.8,3.5,3c0.6,1.2,0.8,3.3,0.8,6.2V20.3z"/>
	<path class="st0" d="M61.4,9.2v36.6h-8.3l-5-16.6v16.6h-8V9.2h8l5.3,16.5V9.2H61.4z"/>
	<path class="st0" d="M75.2,9.2v36.6h-9.5V9.2H75.2z"/>
	<path class="st0" d="M101.7,25.1h-9.5v-6.4c0-1.8-0.1-3-0.3-3.5c-0.2-0.5-0.7-0.7-1.3-0.7c-0.8,0-1.3,0.3-1.5,0.8
		c-0.2,0.6-0.3,1.8-0.3,3.6v17c0,1.8,0.1,2.9,0.3,3.5c0.2,0.5,0.7,0.8,1.4,0.8c0.7,0,1.2-0.3,1.4-0.8c0.2-0.5,0.3-1.8,0.3-3.8v-4.6
		h9.5v1.4c0,3.8-0.3,6.5-0.8,8.1c-0.5,1.6-1.7,3-3.5,4.2c-1.8,1.2-4.1,1.8-6.8,1.8c-2.8,0-5.1-0.5-6.9-1.5c-1.8-1-3-2.4-3.6-4.2
		s-0.9-4.5-0.9-8.1V22.1c0-2.6,0.1-4.6,0.3-5.9c0.2-1.3,0.7-2.6,1.6-3.8c0.9-1.2,2.1-2.2,3.7-2.9c1.6-0.7,3.4-1.1,5.5-1.1
		c2.8,0,5.1,0.5,6.9,1.6c1.8,1.1,3,2.4,3.6,4.1c0.6,1.6,0.9,4.1,0.9,7.6V25.1z"/>
	<path class="st0" d="M128.3,9.2l-5.5,16.5l6,20.1H119l-3.9-15.7v15.7h-9.5V9.2h9.5v14.2l4.2-14.2H128.3z"/>
	<path class="st0" d="M130.9,9.2h15.9v7.3h-6.4v6.9h5.9v7h-5.9v8h7v7.3h-16.5V9.2z"/>
	<path class="st0" d="M150.6,9.2h6.7c4.5,0,7.5,0.2,9.1,0.5c1.6,0.3,2.9,1.2,3.9,2.7c1,1.4,1.5,3.7,1.5,6.8c0,2.8-0.4,4.8-1.1,5.7
		c-0.7,1-2.1,1.6-4.2,1.8c1.9,0.5,3.2,1.1,3.8,1.9c0.6,0.8,1.1,1.5,1.2,2.2c0.2,0.7,0.2,2.5,0.2,5.4v9.7H163V33.6
		c0-2-0.2-3.2-0.5-3.6c-0.3-0.5-1.1-0.7-2.4-0.7v16.5h-9.5V9.2z M160.2,15.5v8.1c1.1,0,1.8-0.1,2.3-0.4s0.6-1.2,0.6-2.9v-2
		c0-1.2-0.2-1.9-0.6-2.3C162,15.6,161.3,15.5,160.2,15.5z"/>
	<path class="st0" d="M196.2,20.3h-8.8v-2.7c0-1.3-0.1-2.1-0.3-2.4c-0.2-0.3-0.6-0.5-1.1-0.5c-0.6,0-1,0.2-1.3,0.7s-0.4,1.2-0.4,2.1
		c0,1.2,0.2,2.1,0.5,2.8c0.3,0.6,1.2,1.4,2.7,2.2c4.2,2.5,6.9,4.6,8,6.2c1.1,1.6,1.7,4.2,1.7,7.8c0,2.6-0.3,4.5-0.9,5.8
		c-0.6,1.2-1.8,2.3-3.5,3.1c-1.7,0.8-3.8,1.3-6.1,1.3c-2.5,0-4.7-0.5-6.5-1.4c-1.8-1-3-2.2-3.5-3.7s-0.8-3.6-0.8-6.4v-2.4h8.8v4.5
		c0,1.4,0.1,2.3,0.4,2.6c0.2,0.4,0.7,0.6,1.3,0.6c0.6,0,1.1-0.2,1.4-0.7c0.3-0.5,0.5-1.2,0.5-2.2c0-2.2-0.3-3.6-0.9-4.2
		c-0.6-0.7-2.1-1.8-4.5-3.3c-2.4-1.6-3.9-2.7-4.7-3.4c-0.8-0.7-1.4-1.7-1.9-2.9c-0.5-1.3-0.8-2.8-0.8-4.8c0-2.8,0.4-4.9,1.1-6.1
		s1.9-2.3,3.5-3s3.5-1.1,5.8-1.1c2.5,0,4.6,0.4,6.3,1.2c1.7,0.8,2.9,1.8,3.5,3c0.6,1.2,0.8,3.3,0.8,6.2V20.3z"/>
	<path class="st0" d="M209.5,15.8l-0.2,2.8c0.7-1.1,1.5-1.9,2.4-2.5s2.1-0.8,3.3-0.8c1.6,0,2.8,0.4,3.8,1.1c1,0.7,1.6,1.7,1.9,2.8
		s0.4,3,0.4,5.6v21h-9.1V25c0-2.1-0.1-3.3-0.2-3.8s-0.5-0.7-1.1-0.7c-0.6,0-1.1,0.3-1.2,0.8s-0.2,1.9-0.2,4.2v20.3h-9.1v-30H209.5z"
		/>
	<path class="st0" d="M234.3,9.2V14h-9.4V9.2H234.3z M234.3,15.8v30h-9.4v-30H234.3z"/>
	<path class="st0" d="M244.1,38.3v7.5h-6.9v-7.5H244.1z"/>
	<path class="st0" d="M255.2,27.4h-8.6v-2c0-2.3,0.3-4.1,0.8-5.4c0.5-1.3,1.6-2.4,3.2-3.3c1.6-1,3.7-1.4,6.3-1.4
		c3.1,0,5.4,0.5,7,1.6c1.6,1.1,2.5,2.4,2.8,4c0.3,1.6,0.5,4.9,0.5,9.8v15.1h-8.9v-2.7c-0.6,1.1-1.3,1.9-2.2,2.4
		c-0.9,0.5-1.9,0.8-3.2,0.8c-1.6,0-3.1-0.4-4.4-1.3s-2-2.9-2-5.9v-2.5c0-2.2,0.4-3.8,1.1-4.6c0.7-0.8,2.5-1.8,5.3-2.8
		c3-1.2,4.6-2,4.8-2.4c0.2-0.4,0.3-1.2,0.3-2.5c0-1.6-0.1-2.6-0.4-3.1c-0.2-0.5-0.6-0.7-1.2-0.7c-0.6,0-1,0.2-1.2,0.6
		c-0.2,0.4-0.2,1.4-0.2,3.1V27.4z M258.1,31.5c-1.5,1.1-2.3,2-2.5,2.7c-0.2,0.7-0.4,1.8-0.4,3.1c0,1.6,0.1,2.6,0.3,3
		c0.2,0.5,0.6,0.7,1.2,0.7c0.6,0,0.9-0.2,1.1-0.5c0.2-0.4,0.3-1.3,0.3-2.8V31.5z"/>
	<path class="st0" d="M285,15.8v6.6l-6.7,17.3h6.7v6h-15.6v-6.3l6.9-17.7h-6.2v-6H285z"/>
</g>
</svg>
