<?xml version="1.0" encoding="utf-8"?>
<!-- Generator: Adobe Illustrator 19.2.1, SVG Export Plug-In . SVG Version: 6.00 Build 0)  -->
<svg version="1.1" id="Layer_1" xmlns="http://www.w3.org/2000/svg" xmlns:xlink="http://www.w3.org/1999/xlink" x="0px" y="0px"
	 width="300px" height="126px" viewBox="0 0 300 126" style="enable-background:new 0 0 300 126;" xml:space="preserve">
<style type="text/css">
	.st0{fill:#FFFFFF;}
</style>
<g>
	<path class="st0" d="M82.6,6.7l-3.3,28.2h-9.2c-0.8-4.3-1.6-9.3-2.2-14.8c-0.3,2.4-1,7.3-2,14.8h-9.1L53.5,6.7h7.1l0.8,9.8l0.8,9.5
		c0.3-4.9,0.9-11.4,2-19.4h7.6c0.1,0.8,0.4,3.9,0.8,9.3l0.8,10.7c0.4-6.8,1.1-13.5,2-20H82.6z"/>
	<path class="st0" d="M91.4,6.7v28.2H84V6.7H91.4z"/>
	<path class="st0" d="M110.7,6.7v28.2h-6.4l-3.8-12.8v12.8h-6.1V6.7h6.1l4.1,12.7V6.7H110.7z"/>
	<path class="st0" d="M120,6.7h7.4c2,0,3.5,0.2,4.6,0.5c1.1,0.3,1.9,0.8,2.4,1.4s0.9,1.3,1.1,2.2c0.2,0.8,0.3,2.1,0.3,3.9v2.5
		c0,1.8-0.2,3.1-0.6,3.9s-1.1,1.5-2,1.9c-1,0.4-2.3,0.7-3.9,0.7h-2v11.4H120V6.7z M127.3,11.5v7.2c0.2,0,0.4,0,0.5,0
		c0.7,0,1.1-0.2,1.4-0.5c0.3-0.3,0.4-1,0.4-2.1v-2.3c0-1-0.2-1.6-0.5-1.9C128.9,11.7,128.2,11.5,127.3,11.5z"/>
	<path class="st0" d="M137.9,6.7h5.2c3.5,0,5.8,0.1,7,0.4c1.2,0.3,2.2,1,3,2c0.8,1.1,1.2,2.9,1.2,5.3c0,2.2-0.3,3.7-0.8,4.4
		c-0.5,0.8-1.6,1.2-3.2,1.4c1.5,0.4,2.4,0.8,2.9,1.4c0.5,0.6,0.8,1.2,0.9,1.7c0.1,0.5,0.2,1.9,0.2,4.2v7.4h-6.8v-9.4
		c0-1.5-0.1-2.4-0.4-2.8c-0.2-0.4-0.9-0.5-1.9-0.5v12.7h-7.3V6.7z M145.2,11.5v6.3c0.8,0,1.4-0.1,1.7-0.3c0.3-0.2,0.5-1,0.5-2.2
		v-1.6c0-0.9-0.2-1.5-0.5-1.8C146.7,11.7,146.1,11.5,145.2,11.5z"/>
	<path class="st0" d="M164.4,6.7v28.2h-7.3V6.7H164.4z"/>
	<path class="st0" d="M179.7,6.7v5.6l-5.5,16.9h5.5v5.6h-13.5v-4.1l5.6-18.5h-5V6.7H179.7z"/>
	<path class="st0" d="M181.6,6.7h12.2v5.6h-4.9v5.4h4.6v5.4h-4.6v6.2h5.4v5.6h-12.7V6.7z"/>
	<path class="st0" d="M212,15.3h-6.8v-2.1c0-1-0.1-1.6-0.3-1.9c-0.2-0.3-0.5-0.4-0.9-0.4c-0.4,0-0.8,0.2-1,0.5
		c-0.2,0.4-0.3,0.9-0.3,1.6c0,0.9,0.1,1.7,0.4,2.1c0.2,0.5,0.9,1.1,2.1,1.7c3.3,1.9,5.3,3.5,6.2,4.8s1.3,3.2,1.3,6
		c0,2-0.2,3.5-0.7,4.4c-0.5,1-1.4,1.8-2.7,2.4c-1.3,0.6-2.9,1-4.7,1c-2,0-3.6-0.4-5-1.1s-2.3-1.7-2.7-2.8c-0.4-1.2-0.6-2.8-0.6-4.9
		v-1.8h6.8v3.4c0,1.1,0.1,1.7,0.3,2c0.2,0.3,0.5,0.5,1,0.5s0.9-0.2,1.1-0.6c0.2-0.4,0.4-1,0.4-1.7c0-1.7-0.2-2.7-0.7-3.3
		c-0.5-0.5-1.6-1.4-3.4-2.6c-1.8-1.2-3-2.1-3.6-2.6c-0.6-0.5-1.1-1.3-1.5-2.3c-0.4-1-0.6-2.2-0.6-3.7c0-2.2,0.3-3.7,0.8-4.7
		c0.6-1,1.4-1.8,2.7-2.3c1.2-0.6,2.7-0.8,4.5-0.8c1.9,0,3.5,0.3,4.9,0.9c1.3,0.6,2.2,1.4,2.7,2.3s0.7,2.5,0.7,4.8V15.3z"/>
	<path class="st0" d="M233.8,6.7l4.2,28.2h-7.5l-0.4-5.1h-2.6l-0.4,5.1h-7.6l3.7-28.2H233.8z M230,24.9c-0.4-3.2-0.7-7.1-1.1-11.9
		c-0.7,5.4-1.2,9.4-1.4,11.9H230z"/>
	<path class="st0" d="M252.1,6.7v5.6h-4.4v22.6h-7.3V12.4h-4.3V6.7H252.1z"/>
</g>
</svg>
