<?xml version="1.0" encoding="utf-8"?>
<!-- Generator: Adobe Illustrator 19.2.1, SVG Export Plug-In . SVG Version: 6.00 Build 0)  -->
<svg version="1.1" id="Layer_1" xmlns="http://www.w3.org/2000/svg" xmlns:xlink="http://www.w3.org/1999/xlink" x="0px" y="0px"
	 width="300px" height="52px" viewBox="0 0 300 52" style="enable-background:new 0 0 300 52;" xml:space="preserve">
<style type="text/css">
	.st0{fill:#FFFFFF;}
</style>
<g>
	<g>
		<path class="st0" d="M17.9,13.6v16.7c0,1.9-0.1,3.2-0.2,4c-0.1,0.7-0.5,1.5-1.1,2.4s-1.4,1.4-2.4,1.8c-1,0.4-2.2,0.6-3.5,0.6
			c-1.5,0-2.8-0.3-4-0.7c-1.1-0.5-2-1.1-2.6-2c-0.5-0.8-0.9-1.6-1-2.5S3,31.1,3,28.3V13.5h6.5v18.8c0,1.1,0.1,1.8,0.2,2.1
			c0.1,0.3,0.3,0.5,0.7,0.5s0.7-0.1,0.8-0.5c0.1-0.3,0.2-1.1,0.2-2.4V13.6H17.9z"/>
		<path class="st0" d="M20.4,13.6h6.5c1.7,0,3.2,0.1,4.1,0.4c0.9,0.3,1.7,0.7,2.2,1.2c0.5,0.5,0.8,1.1,0.9,1.9
			c0.2,0.7,0.3,1.9,0.3,3.5v2.2c0,1.6-0.1,2.8-0.5,3.5c-0.3,0.7-0.9,1.3-1.8,1.7c-0.9,0.4-2,0.6-3.4,0.6h-1.7v10.1h-6.5L20.4,13.6
			L20.4,13.6z M26.9,17.8v6.4c0.2,0,0.3,0,0.5,0c0.6,0,1-0.1,1.3-0.5s0.3-0.9,0.3-1.8v-2.1c0-0.9-0.1-1.4-0.4-1.7
			C28.3,17.9,27.8,17.8,26.9,17.8z"/>
		<path class="st0" d="M51.2,22.8h-6.5v-2.3c0-1.4-0.1-2.4-0.2-2.7c-0.1-0.3-0.4-0.5-0.9-0.5c-0.4,0-0.7,0.1-0.8,0.5
			c-0.1,0.3-0.2,1.1-0.2,2.4v12c0,1.1,0.1,1.9,0.2,2.2c0.1,0.3,0.4,0.5,0.9,0.5c0.5,0,0.8-0.2,0.9-0.6c0.1-0.4,0.3-1.2,0.3-2.4v-3
			h-1.3v-3.8h7.6v13.5h-4.1l-0.6-1.8c-0.5,0.7-1,1.3-1.7,1.7c-0.7,0.4-1.5,0.6-2.4,0.6c-1.1,0-2.1-0.3-3.1-0.8c-1-0.5-1.7-1.2-2.2-2
			c-0.5-0.8-0.8-1.6-0.9-2.5C36,33,36,31.7,36,30v-7.4c0-2.4,0.1-4.1,0.4-5.2s1-2.1,2.2-3c1.2-0.9,2.8-1.3,4.7-1.3
			c1.9,0,3.5,0.4,4.8,1.1c1.3,0.8,2.1,1.7,2.5,2.8c0.4,1.1,0.6,2.6,0.6,4.7L51.2,22.8L51.2,22.8z"/>
		<path class="st0" d="M53.8,13.6h4.6c3.1,0,5.2,0.1,6.3,0.3c1.1,0.2,2,0.9,2.7,1.8c0.7,0.9,1,2.6,1,4.6c0,2-0.3,3.2-0.7,3.9
			c-0.5,0.7-1.4,1.1-2.9,1.2c1.3,0.3,2.2,0.7,2.6,1.3c0.5,0.5,0.7,1,0.8,1.5c0.1,0.5,0.1,1.7,0.1,3.7v6.6h-6.1v-8.3
			c0-1.3-0.1-2.2-0.3-2.5c-0.2-0.3-0.7-0.5-1.7-0.5v11.3h-6.4V13.6z M60.2,17.8v5.6c0.7,0,1.3-0.1,1.5-0.3s0.5-0.9,0.5-2v-1.3
			c0-0.8-0.1-1.3-0.4-1.5C61.5,17.9,61.1,17.8,60.2,17.8z"/>
		<path class="st0" d="M82,13.6l3.7,25h-6.7l-0.3-4.5h-2.4L76,38.6h-6.7l3.3-25H82z M78.6,29.6c-0.3-2.8-0.7-6.3-1-10.5
			c-0.7,4.8-1.1,8.3-1.3,10.5H78.6z"/>
		<path class="st0" d="M86.9,13.6h4.8c3.2,0,5.2,0.1,6.4,0.4c1.1,0.3,2,0.7,2.6,1.4c0.6,0.7,0.9,1.4,1.1,2.2s0.2,2.4,0.2,4.8v8.7
			c0,2.2-0.1,3.8-0.3,4.5s-0.6,1.3-1.1,1.7c-0.5,0.4-1.1,0.7-2,0.9c-0.7,0.2-2,0.3-3.5,0.3h-8.2L86.9,13.6L86.9,13.6z M93.4,17.8
			v16.5c0.9,0,1.5-0.2,1.7-0.5c0.2-0.3,0.3-1.4,0.3-3.1v-9.8c0-1.1-0.1-1.9-0.1-2.2c-0.1-0.3-0.3-0.5-0.5-0.7
			C94.6,17.9,94.1,17.8,93.4,17.8z"/>
		<path class="st0" d="M104.4,13.6h10.8v5h-4.4v4.8h4v4.8h-4v5.5h4.8v5h-11.3L104.4,13.6L104.4,13.6z"/>
	</g>
	<g>
		<path class="st0" d="M138.7,13.5l-4.8,15.9v9.1h-6.1v-9l-4.6-15.9h6c0.9,4.9,1.5,8.2,1.6,9.9c0.3-2.7,0.9-6,1.8-9.9L138.7,13.5
			L138.7,13.5z"/>
		<path class="st0" d="M154.7,28.2c0,2.5-0.1,4.3-0.2,5.3c-0.1,1.1-0.5,2-1.1,2.9c-0.7,0.9-1.5,1.5-2.6,2c-1.1,0.5-2.3,0.7-3.7,0.7
			c-1.3,0-2.6-0.2-3.6-0.7s-2-1.1-2.6-2c-0.6-0.9-1-1.8-1.1-2.9c-0.1-1-0.2-2.8-0.2-5.4v-4.3c0-2.5,0.1-4.3,0.2-5.3
			c0.1-1.1,0.5-2,1.1-2.9c0.6-0.9,1.5-1.5,2.6-2c1.1-0.5,2.3-0.7,3.7-0.7c1.3,0,2.6,0.2,3.6,0.7c1.1,0.5,2,1.1,2.6,2
			c0.7,0.9,1,1.8,1.1,2.9c0.1,1,0.2,2.8,0.2,5.4V28.2z M148.1,20c0-1.1-0.1-1.9-0.2-2.2s-0.4-0.5-0.8-0.5c-0.3,0-0.6,0.1-0.8,0.4
			c-0.2,0.3-0.3,1-0.3,2.4v11.7c0,1.5,0.1,2.4,0.2,2.7c0.1,0.3,0.4,0.5,0.8,0.5c0.5,0,0.7-0.2,0.9-0.6c0.1-0.4,0.2-1.3,0.2-2.8
			C148.1,31.5,148.1,20,148.1,20z"/>
		<path class="st0" d="M171.9,13.5v16.7c0,1.9-0.1,3.2-0.2,4s-0.5,1.5-1.1,2.4c-0.6,0.8-1.4,1.4-2.4,1.8c-1,0.4-2.2,0.6-3.5,0.6
			c-1.5,0-2.8-0.3-4-0.7s-2-1.1-2.6-2c-0.5-0.8-0.9-1.6-1-2.5c-0.1-0.9-0.1-2.8-0.1-5.6V13.5h6.5v18.8c0,1.1,0.1,1.8,0.2,2.1
			c0.1,0.3,0.3,0.5,0.7,0.5s0.7-0.1,0.8-0.5c0.1-0.3,0.2-1.1,0.2-2.4V13.5H171.9z"/>
		<path class="st0" d="M174.4,13.5h4.6c3.1,0,5.2,0.1,6.3,0.3s2,0.9,2.7,1.8c0.7,0.9,1,2.6,1,4.6c0,2-0.3,3.2-0.7,3.9
			s-1.4,1.1-2.9,1.2c1.3,0.3,2.2,0.7,2.6,1.3c0.5,0.5,0.7,1,0.8,1.5c0.1,0.5,0.1,1.7,0.1,3.7v6.6h-6.1v-8.2c0-1.3-0.1-2.2-0.3-2.5
			c-0.2-0.3-0.7-0.5-1.7-0.5v11.3h-6.5V13.5H174.4z M181,17.8v5.6c0.7,0,1.3-0.1,1.5-0.3s0.5-0.9,0.5-2v-1.3c0-0.8-0.1-1.3-0.4-1.5
			C182.2,18,181.7,17.8,181,17.8z"/>
		<path class="st0" d="M197,13.5h6.5c2,0,3.6,0.1,4.6,0.5c1.1,0.3,1.9,0.9,2.6,2c0.7,0.9,0.9,2.6,0.9,4.7c0,1.5-0.2,2.5-0.7,3
			c-0.5,0.6-1.3,1-2.7,1.3c1.5,0.3,2.6,0.9,3.1,1.7c0.5,0.8,0.8,2,0.8,3.6v2.4c0,1.7-0.2,3-0.6,3.8c-0.4,0.8-1,1.3-1.8,1.7
			c-0.8,0.3-2.6,0.5-5.2,0.5H197V13.5z M203.6,17.8v5.6c0.3,0,0.5,0,0.7,0c0.6,0,1.1-0.1,1.2-0.5c0.2-0.3,0.3-1.2,0.3-2.7
			c0-0.8-0.1-1.3-0.2-1.6c-0.1-0.3-0.3-0.5-0.5-0.6C204.7,17.9,204.2,17.8,203.6,17.8z M203.6,27.3v7c0.9,0,1.5-0.2,1.7-0.4
			c0.3-0.3,0.4-0.9,0.4-1.9v-2.4c0-1.1-0.1-1.7-0.3-2C205.1,27.4,204.5,27.3,203.6,27.3z"/>
		<path class="st0" d="M214.5,13.5h4.6c3.1,0,5.2,0.1,6.3,0.3c1.1,0.3,2,0.9,2.7,1.8c0.7,0.9,1,2.6,1,4.6c0,2-0.3,3.2-0.7,3.9
			c-0.5,0.7-1.4,1.1-2.9,1.2c1.3,0.3,2.2,0.7,2.6,1.3c0.5,0.5,0.7,1,0.8,1.5c0.1,0.5,0.1,1.7,0.1,3.7v6.6h-6.1v-8.2
			c0-1.3-0.1-2.2-0.3-2.5c-0.2-0.3-0.7-0.5-1.7-0.5v11.3h-6.4V13.5z M221.1,17.8v5.6c0.7,0,1.3-0.1,1.5-0.3s0.5-0.9,0.5-2v-1.3
			c0-0.8-0.1-1.3-0.4-1.5C222.3,18,221.8,17.8,221.1,17.8z"/>
		<path class="st0" d="M242.8,13.5l3.7,25h-6.7l-0.3-4.5h-2.4l-0.4,4.5h-6.7l3.3-25C233.4,13.5,242.8,13.5,242.8,13.5z M239.4,29.7
			c-0.3-2.8-0.7-6.3-1-10.5c-0.7,4.8-1.1,8.3-1.3,10.5H239.4z"/>
		<path class="st0" d="M254.2,13.5v25h-6.5v-25H254.2z"/>
		<path class="st0" d="M271.4,13.5v25h-5.7l-3.4-11.4v11.4h-5.4v-25h5.4l3.6,11.3V13.5H271.4z"/>
		<path class="st0" d="M287.7,21.1h-6.1v-1.9c0-0.9-0.1-1.4-0.2-1.7c-0.1-0.3-0.4-0.3-0.7-0.3c-0.4,0-0.7,0.1-0.9,0.5
			c-0.2,0.3-0.3,0.8-0.3,1.5c0,0.8,0.1,1.5,0.3,1.9c0.2,0.4,0.8,0.9,1.8,1.5c2.9,1.7,4.7,3.2,5.4,4.2c0.7,1.1,1.1,2.9,1.1,5.3
			c0,1.8-0.2,3.1-0.6,4c-0.4,0.9-1.2,1.5-2.4,2.2c-1.2,0.6-2.6,0.9-4.2,0.9c-1.7,0-3.2-0.3-4.4-1c-1.2-0.7-2-1.5-2.4-2.5
			c-0.4-1-0.6-2.5-0.6-4.4v-1.7h6.1v3c0,0.9,0.1,1.5,0.3,1.8c0.2,0.3,0.5,0.4,0.9,0.4c0.4,0,0.7-0.2,0.9-0.5
			c0.2-0.3,0.3-0.9,0.3-1.5c0-1.5-0.2-2.4-0.6-2.9c-0.4-0.5-1.4-1.2-3-2.3s-2.7-1.9-3.2-2.4c-0.5-0.5-0.9-1.1-1.3-2s-0.5-2-0.5-3.3
			c0-1.9,0.3-3.3,0.7-4.2c0.5-0.9,1.3-1.5,2.4-2.1c1.1-0.5,2.4-0.7,4-0.7c1.7,0,3.2,0.3,4.3,0.8c1.2,0.5,2,1.2,2.4,2.1
			c0.4,0.8,0.6,2.2,0.6,4.2L287.7,21.1L287.7,21.1z"/>
		<path class="st0" d="M297,13.5l-1,18.8h-4.8l-1-18.8H297z M296.5,33.6v5h-5.9v-5H296.5z"/>
	</g>
</g>
</svg>
