<?xml version="1.0" encoding="utf-8"?>
<!-- Generator: Adobe Illustrator 25.0.1, SVG Export Plug-In . SVG Version: 6.00 Build 0)  -->
<svg version="1.1" id="Layer_1" xmlns="http://www.w3.org/2000/svg" xmlns:xlink="http://www.w3.org/1999/xlink" x="0px" y="0px"
	 viewBox="0 0 300 52" style="enable-background:new 0 0 300 52;" xml:space="preserve">
<style type="text/css">
	.st0{fill:#FFFFFF;}
</style>
<g>
	<g>
		<path class="st0" d="M19.5,13.5h7.2c2.3,0,4,0.2,5.1,0.5c1.2,0.3,2.1,1.1,2.8,2.1c0.8,1.1,1.1,2.8,1.1,5.2c0,1.6-0.3,2.7-0.8,3.3
			c-0.5,0.6-1.5,1.1-3,1.4c1.6,0.4,2.8,1,3.4,1.8c0.6,0.9,0.9,2.2,0.9,4v2.6c0,1.8-0.2,3.3-0.6,4.2s-1.1,1.5-2,1.8
			c-1,0.3-2.9,0.5-5.7,0.5h-8.3V13.5z M26.6,18.2v6.1c0.3,0,0.5,0,0.8,0c0.7,0,1.2-0.2,1.4-0.5c0.2-0.3,0.3-1.4,0.3-3
			c0-0.9-0.1-1.5-0.3-1.8c-0.1-0.3-0.3-0.5-0.6-0.7C27.9,18.3,27.4,18.3,26.6,18.2z M26.6,28.7v7.7c1-0.1,1.6-0.2,1.9-0.5
			c0.3-0.3,0.4-1,0.4-2.1v-2.6c0-1.2-0.1-1.9-0.4-2.2C28.3,28.9,27.7,28.7,26.6,28.7z"/>
		<path class="st0" d="M38.8,13.5h12V19H46v5.3h4.5v5.3H46v6.1h5.3v5.5H38.8V13.5z"/>
		<path class="st0" d="M68.6,13.5l-5.3,17.6v10h-6.7v-10l-5.1-17.6h6.6c1,5.4,1.6,9,1.8,10.9c0.4-2.9,1.1-6.6,2-10.9
			C62,13.5,68.6,13.5,68.6,13.5z"/>
		<path class="st0" d="M85.9,13.5v27.7h-6.3l-3.8-12.6v12.6h-6V13.5h6l4,12.4V13.5H85.9z"/>
		<path class="st0" d="M96,13.5v27.7h-7.2V13.5H96z M94.6,8.2v4.4h-4.4V8.2C90.2,8.2,94.6,8.2,94.6,8.2z"/>
		<path class="st0" d="M114.9,13.5v27.7h-6.3l-3.8-12.6v12.6h-6V13.5h6l4,12.4V13.5H114.9z"/>
		<path class="st0" d="M125,13.5v22.1h4.4v5.5h-11.5V13.5H125z"/>
		<path class="st0" d="M147.5,20.3c0.1,1.2,0.1,2.7,0.1,4.6v4.8c0,2.8-0.1,4.8-0.2,5.9c-0.1,1.2-0.5,2.3-1.2,3.2
			c-0.7,1-1.6,1.7-2.8,2.2c-1.2,0.5-2.5,0.8-4.1,0.8c-1.5,0-2.8-0.3-4-0.8c-1.2-0.5-2.1-1.2-2.9-2.2c-0.8-1-1.2-2-1.3-3.2
			c-0.1-1.2-0.2-3.1-0.2-6v-5.1h9.6v-4.7c0-0.9-0.1-1.5-0.2-1.8c-0.1-0.3-0.5-0.5-1.2-0.5c-0.8,0-1.3,0.5-1.3,1.6v2.2h-6.9v-1.4
			c0-2.2,0.7-3.9,2.1-5.1s3.3-1.7,5.7-1.7c3,0,5.2,0.5,6.6,1.7c0.8,0.7,1.4,1.6,1.8,2.7v0.1c0.1,0.1,0.1,0.3,0.1,0.5l0.1,0.2
			C147.4,19,147.5,19.6,147.5,20.3z M140.1,36.4c0.1-0.4,0.2-1.4,0.2-3.1v-4.6h-2.3v4.8c0,1.6,0.1,2.6,0.2,3c0.1,0.4,0.5,0.5,1,0.5
			S140,36.8,140.1,36.4z"/>
	</g>
	<g>
		<path class="st0" d="M178.4,13.4v27.7h-6.3V22.4l-2.5,18.6h-4.4l-2.7-18.2v18.2h-6.3V13.4h9.3c0.3,1.6,0.5,3.6,0.8,5.9l1.1,7
			l1.6-12.9H178.4z"/>
		<path class="st0" d="M197.6,20.2c0.1,1.2,0.1,2.7,0.1,4.6v4.8c0,2.8-0.1,4.8-0.2,5.9s-0.5,2.3-1.2,3.2c-0.7,1-1.6,1.7-2.8,2.2
			c-1.2,0.5-2.5,0.8-4.1,0.8c-1.5,0-2.8-0.3-4-0.8c-1.2-0.5-2.1-1.2-2.9-2.2c-0.8-1-1.2-2-1.3-3.2c-0.1-1.2-0.2-3.1-0.2-6v-5.1h9.5
			v-4.7c0-0.9-0.1-1.5-0.2-1.8c-0.1-0.3-0.5-0.5-1.2-0.5c-0.8,0-1.3,0.5-1.3,1.6v2.2h-6.7v-1.4c0-2.2,0.7-3.9,2.1-5.1
			c1.4-1.2,3.3-1.7,5.7-1.7c3,0,5.2,0.5,6.6,1.7c0.8,0.7,1.4,1.6,1.8,2.7l0.1,0.1c0.1,0.1,0.1,0.3,0.1,0.5l0.1,0.2
			C197.6,19,197.6,19.6,197.6,20.2z M190.3,36.3c0.1-0.4,0.2-1.4,0.2-3.1v-4.6h-2.3v4.8c0,1.6,0.1,2.6,0.2,3c0.1,0.3,0.5,0.5,1,0.5
			C189.9,37,190.2,36.8,190.3,36.3z"/>
		<path class="st0" d="M208.6,41.6V42c0.6,0,1.2,0.2,1.7,0.6c0.5,0.4,0.8,1,0.8,1.6c0,0.9-0.3,1.6-1,2.3s-1.6,1-2.5,1
			c-1.8,0-2.9-0.9-3.4-2.7h2.5c0.1,0.5,0.5,0.8,0.9,0.8c0.7,0,1-0.3,1-1c0-0.8-0.5-1.2-1.4-1.2h-0.5v-1.8c-1.8-0.3-3.3-0.8-4.3-1.6
			c-1-0.8-1.6-1.8-1.9-2.9c-0.3-1.1-0.4-2.5-0.4-4.1V31h6.7v3.3c0,1,0.1,1.7,0.3,2c0.2,0.3,0.5,0.5,1,0.5c1,0,1.4-0.8,1.4-2.3
			c0-1.6-0.2-2.7-0.7-3.2c-0.5-0.5-1.6-1.4-3.3-2.5s-3-2-3.6-2.6c-0.6-0.5-1.1-1.3-1.4-2.3c-0.4-1-0.5-2.2-0.5-3.6
			c0-2.1,0.3-3.7,0.8-4.6s1.4-1.8,2.6-2.3c1.2-0.5,2.7-0.8,4.4-0.8c1.8,0,3.5,0.3,4.8,0.9s2.2,1.4,2.6,2.3c0.4,0.9,0.6,2.5,0.6,4.6
			v1.1H209v-2c0-1-0.1-1.6-0.3-1.8c-0.2-0.3-0.5-0.4-0.9-0.4c-0.9,0-1.3,0.7-1.3,2.1c0,1,0.1,1.6,0.3,2.1c0.3,0.5,1,1,2,1.7
			c3.2,1.9,5.2,3.5,6.1,4.6c0.8,1.2,1.2,3.2,1.2,5.9c0,1.8-0.2,3.2-0.6,4.2c-0.4,0.9-1.2,1.7-2.5,2.4
			C211.8,40.9,210.4,41.6,208.6,41.6z"/>
		<path class="st0" d="M235,41.1v3.3h-5.5c-1.3,0-2.3-0.1-2.8-0.3c-0.5-0.2-0.9-0.5-1.1-0.9c-0.2-0.4-0.3-1.1-0.3-2.1
			c-1.6-0.1-3-0.5-4.2-1.3c-1.2-0.8-2-1.8-2.3-3.1s-0.5-3.1-0.5-5.6v-8.6c0-1.9,0.1-3.3,0.3-4.3c0.2-1,0.7-1.9,1.4-2.8
			c0.7-0.9,1.6-1.5,2.7-2c1.1-0.5,2.3-0.7,3.6-0.7c1.6,0,3,0.3,4.3,0.8c1.2,0.5,2.2,1.2,2.8,2.1c0.6,0.8,1,1.7,1.2,2.6
			c0.2,0.9,0.3,2.3,0.3,4v9c0,2.5-0.1,4.1-0.3,5c-0.3,0.9-0.7,1.6-1.4,2.1c-0.7,0.5-1.6,0.9-2.7,1.2c0,0.6,0.1,1,0.4,1.2
			c0.2,0.1,0.8,0.3,1.6,0.3C232.4,41.1,235,41.1,235,41.1z M227.8,20.5c0-1.3-0.1-2.1-0.2-2.5s-0.4-0.5-0.9-0.5
			c-0.4,0-0.7,0.1-0.9,0.4c-0.2,0.3-0.3,1.2-0.3,2.6v12.9c0,1.6,0.1,2.6,0.2,3c0.1,0.3,0.4,0.5,0.9,0.5c0.5,0,0.8-0.2,1-0.7
			c0.1-0.5,0.2-1.4,0.2-3.1V20.5z"/>
		<path class="st0" d="M243.8,13.4h12V19H251v5.3h4.5v5.3H251v6.1h5.3v5.5h-12.5V13.4z"/>
		<path class="st0" d="M272.4,13.4V19h-4.3v22.1h-7.2V19h-4.2v-5.5H272.4z"/>
		<path class="st0" d="M281.4,13.4l-1.2,20.8h-5.3l-1.1-20.8H281.4z M280.8,35.6v5.5h-6.5v-5.5H280.8z"/>
	</g>
</g>
</svg>
