<?xml version="1.0" encoding="utf-8"?>
<!-- Generator: Adobe Illustrator 25.0.1, SVG Export Plug-In . SVG Version: 6.00 Build 0)  -->
<svg version="1.1" id="Layer_1" xmlns="http://www.w3.org/2000/svg" xmlns:xlink="http://www.w3.org/1999/xlink" x="0px" y="0px"
	 viewBox="0 0 300 55" style="enable-background:new 0 0 300 55;" xml:space="preserve">
<style type="text/css">
	.st0{fill:#FFFFFF;}
</style>
<g>
	<path class="st0" d="M37.6,17.1h-7.8v-2.4c0-1.2-0.1-1.8-0.3-2.1c-0.2-0.3-0.6-0.5-1-0.5c-0.5,0-0.9,0.2-1.2,0.6
		c-0.3,0.4-0.4,1.1-0.4,1.9c0,1.1,0.2,1.9,0.5,2.4c0.3,0.6,1.1,1.3,2.4,2c3.8,2.2,6.1,3.9,7,5.4c1,1.4,1.4,3.8,1.4,6.8
		c0,2.3-0.3,3.9-0.8,5c-0.6,1.1-1.6,2-3.2,2.7c-1.5,0.8-3.4,1.2-5.3,1.2c-2.2,0-4.1-0.4-5.7-1.3c-1.6-0.9-2.6-1.9-3.2-3.3
		c-0.5-1.3-0.8-3.2-0.8-5.6v-2H27v3.9c0,1.3,0.1,2,0.3,2.3c0.2,0.3,0.6,0.5,1.2,0.5s1-0.2,1.3-0.7c0.3-0.5,0.4-1.1,0.4-1.9
		c0-1.9-0.3-3.2-0.8-3.8c-0.6-0.6-1.8-1.5-3.9-3c-2.1-1.3-3.5-2.3-4-3c-0.6-0.7-1.3-1.5-1.7-2.6c-0.5-1.2-0.7-2.5-0.7-4.1
		c0-2.5,0.3-4.2,1-5.4c0.8-1.2,1.8-2.1,3.2-2.7c1.4-0.7,3.2-1,5-1c2.2,0,3.9,0.4,5.5,1.1c1.5,0.7,2.6,1.6,3.1,2.7s0.8,2.8,0.8,5.4
		V17.1z"/>
	<path class="st0" d="M55.3,7.3l4.7,32.1h-8.6l-0.4-5.7h-3l-0.5,5.8h-8.7l4.2-32.1L55.3,7.3L55.3,7.3z M50.9,28
		c-0.4-3.7-0.9-8.1-1.3-13.5C48.7,20.7,48.2,25.1,48,28C48,28,50.9,28,50.9,28z"/>
	<path class="st0" d="M76.8,7.3l-6.1,20.5v11.6H63V27.9L57.1,7.3h7.7c1.3,6.3,1.9,10.5,2,12.6c0.5-3.5,1.3-7.6,2.3-12.6
		C69.1,7.3,76.8,7.3,76.8,7.3z"/>
	<path class="st0" d="M95.1,7.3v6.5h-4.9v25.7h-8.4V13.8h-4.9V7.3H95.1z"/>
	<path class="st0" d="M105.4,7.3v32.1H97V7.3H105.4z"/>
	<path class="st0" d="M127.4,7.3v32.1h-7.3l-4.3-14.5v14.5h-6.9V7.3h6.9l4.6,14.4V7.3H127.4z"/>
	<path class="st0" d="M130.7,7.3h6.3c3.9,0,6.7,0.2,8.2,0.6c1.4,0.4,2.5,1,3.3,1.8c0.8,0.9,1.3,1.8,1.4,2.9s0.3,3.1,0.3,6.1v11.3
		c0,2.9-0.1,4.8-0.4,5.8c-0.3,1-0.8,1.7-1.4,2.3c-0.7,0.6-1.5,1-2.5,1.2c-1,0.2-2.5,0.3-4.4,0.3h-10.6L130.7,7.3L130.7,7.3z
		 M139,12.9V34c1.3,0,1.9-0.3,2.2-0.8s0.4-1.8,0.4-3.9V16.8c0-1.4,0-2.4-0.1-2.8c-0.1-0.4-0.3-0.7-0.7-0.9
		C140.6,13,140,12.9,139,12.9z"/>
	<path class="st0" d="M167.6,7.3l4.7,32.1h-8.6l-0.5-5.8h-3l-0.5,5.8h-8.7l4.2-32.1C155.5,7.3,167.6,7.3,167.6,7.3z M163.2,28
		c-0.4-3.7-0.9-8.1-1.3-13.5c-0.9,6.2-1.4,10.7-1.6,13.5H163.2z"/>
	<path class="st0" d="M200.1,39.4v3.9h-6.3c-1.5,0-2.6-0.1-3.3-0.4c-0.7-0.2-1.1-0.6-1.3-1.1s-0.3-1.3-0.3-2.5
		c-1.9-0.1-3.6-0.6-4.8-1.5c-1.3-1-2.3-2.1-2.7-3.7c-0.5-1.4-0.7-3.7-0.7-6.5v-9.9c0-2.2,0.1-3.9,0.4-4.9s0.8-2.2,1.6-3.3
		c0.8-1.1,1.8-1.8,3.2-2.3c1.3-0.5,2.7-0.8,4.1-0.8c1.9,0,3.6,0.3,4.9,1c1.4,0.7,2.6,1.4,3.3,2.4c0.8,1,1.3,2,1.4,3.1
		s0.3,2.6,0.3,4.6v10.5c0,2.9-0.1,4.7-0.4,5.8c-0.3,1.1-0.9,1.8-1.6,2.5c-0.8,0.6-1.8,1.1-3.2,1.3c0,0.8,0.2,1.2,0.5,1.3
		c0.3,0.2,0.9,0.3,1.8,0.3L200.1,39.4L200.1,39.4z M191.7,15.6c0-1.5-0.1-2.5-0.3-2.9c-0.2-0.4-0.5-0.7-1.1-0.7
		c-0.5,0-0.8,0.2-1.1,0.5c-0.2,0.4-0.4,1.3-0.4,3v15c0,1.9,0.1,3.1,0.2,3.5c0.2,0.5,0.5,0.7,1.1,0.7c0.6,0,1-0.3,1.1-0.8
		c0.2-0.5,0.3-1.7,0.3-3.7V15.6H191.7z"/>
	<path class="st0" d="M217.5,7.3l4.7,32.1h-8.6l-0.5-5.8h-3l-0.5,5.8H201l4.2-32.1C205.5,7.3,217.5,7.3,217.5,7.3z M213.2,28
		c-0.4-3.7-0.9-8.1-1.3-13.5c-0.9,6.2-1.4,10.7-1.6,13.5C210.3,28,213.2,28,213.2,28z"/>
	<path class="st0" d="M238.7,7.3v6.5l-6.2,19.3h6.2v6.5h-15.4V35l6.5-21h-5.7V7.3H238.7z"/>
	<path class="st0" d="M256.2,7.3l4.7,32.1h-8.6l-0.5-5.8h-3l-0.5,5.8h-8.7L244,7.3C244.1,7.3,256.2,7.3,256.2,7.3z M251.7,28
		c-0.4-3.7-0.9-8.1-1.3-13.5c-0.9,6.2-1.4,10.7-1.6,13.5C248.8,28,251.7,28,251.7,28z"/>
	<path class="st0" d="M281,7.3v32.1h-7.3l-4.3-14.5v14.5h-6.9V7.3h6.9l4.6,14.4V7.3H281z"/>
</g>
</svg>
