<?xml version="1.0" encoding="utf-8"?>
<!-- Generator: Adobe Illustrator 25.0.1, SVG Export Plug-In . SVG Version: 6.00 Build 0)  -->
<svg version="1.1" id="Layer_1" xmlns="http://www.w3.org/2000/svg" xmlns:xlink="http://www.w3.org/1999/xlink" x="0px" y="0px"
	 viewBox="0 0 300 102" style="enable-background:new 0 0 300 102;" xml:space="preserve">
<style type="text/css">
	.st0{fill:#FFFFFF;}
	.st1{fill:#FAAE19;}
</style>
<g>
	<path class="st0" d="M62.9,11.5v33.7h-7.7V22.4l-3.1,22.8h-5.4l-3.2-22.3v22.3h-7.7V11.5h11.4c0.3,2,0.7,4.4,1,7.2l1.2,8.6l2-15.8
		C51.4,11.5,62.9,11.5,62.9,11.5z"/>
	<path class="st0" d="M86.4,11.5v22.6c0,2.6-0.1,4.4-0.3,5.4c-0.2,1-0.7,2.1-1.5,3.2c-0.8,1.1-1.9,1.9-3.2,2.5
		c-1.3,0.6-2.9,0.8-4.7,0.8c-2,0-3.8-0.3-5.3-1s-2.7-1.5-3.5-2.6s-1.2-2.2-1.4-3.4c-0.1-1.2-0.2-3.7-0.2-7.5v-20h8.8v25.3
		c0,1.5,0.1,2.4,0.2,2.8c0.2,0.4,0.5,0.6,1,0.6c0.6,0,0.9-0.2,1.1-0.7s0.2-1.5,0.2-3.2V11.5H86.4z M74.5,5v5.4h-5.4V5H74.5z M83.7,5
		v5.4h-5.4V5H83.7z"/>
	<path class="st0" d="M110.7,11.5l-5,15.2l5.5,18.5h-9.1l-3.5-14.5v14.5h-8.8V11.5h8.8v13.1l3.9-13.1H110.7z"/>
	<path class="st0" d="M128.7,11.5l5,33.7h-9l-0.5-6.1h-3.1l-0.5,6.1h-9.1l4.5-33.7H128.7z M124.1,33.2c-0.4-3.8-0.9-8.5-1.3-14.2
		c-0.9,6.5-1.5,11.2-1.7,14.2H124.1z"/>
	<path class="st0" d="M135.2,11.5h14.9v6.8H144v6.4h5.4v6.4H144v14.2h-8.8V11.5z"/>
	<path class="st0" d="M166.5,11.5l5,33.7h-9l-0.5-6.1h-3l-0.5,6.1h-9.1l4.5-33.7H166.5z M161.9,33.2c-0.4-3.8-0.9-8.5-1.3-14.2
		c-0.9,6.5-1.5,11.2-1.7,14.2H161.9z"/>
	<path class="st0" d="M188.4,11.5v6.8h-5.2v27h-8.8v-27h-5.2v-6.8C169.2,11.5,188.4,11.5,188.4,11.5z"/>
	<path class="st0" d="M199.2,11.5v27h5.3v6.8h-14.1V11.5H199.2z"/>
	<path class="st0" d="M222.8,11.5l5,33.7h-9l-0.5-6.1h-3.1l-0.5,6.1h-9.1l4.5-33.7H222.8z M218.2,33.2c-0.4-3.8-0.9-8.5-1.3-14.2
		c-0.9,6.5-1.5,11.2-1.7,14.2H218.2z"/>
	<path class="st0" d="M229.4,11.5h6.2c4.1,0,6.9,0.2,8.4,0.5s2.7,1.1,3.6,2.4c0.9,1.3,1.4,3.4,1.4,6.3c0,2.6-0.3,4.4-1,5.3
		s-1.9,1.4-3.9,1.6c1.7,0.4,2.9,1,3.5,1.7s1,1.4,1.1,2s0.2,2.3,0.2,5v8.9h-8.2V34c0-1.8-0.1-2.9-0.4-3.4s-1-0.6-2.2-0.6v15.2h-8.8
		L229.4,11.5L229.4,11.5z M238.1,17.2v7.5c1,0,1.7-0.1,2.1-0.4c0.4-0.3,0.6-1.1,0.6-2.6v-1.9c0-1.1-0.2-1.8-0.6-2.1
		S239.1,17.2,238.1,17.2z"/>
	<path class="st0" d="M261.1,11.5v33.7h-8.8V11.5H261.1z"/>
	<path class="st1" d="M36.5,71.1h-9v-2.7c0-1.3-0.1-2.1-0.3-2.4c-0.2-0.3-0.7-0.5-1.1-0.5c-0.5,0-1,0.2-1.3,0.7s-0.4,1.2-0.4,2.2
		c0,1.2,0.2,2.2,0.5,2.7c0.3,0.7,1.2,1.4,2.7,2.3c4.3,2.5,7,4.6,8.1,6.2c1.1,1.6,1.6,4.3,1.6,7.9c0,2.6-0.3,4.6-0.9,5.8
		c-0.7,1.2-1.9,2.3-3.6,3.2c-1.8,0.9-3.8,1.3-6.1,1.3c-2.5,0-4.8-0.4-6.6-1.4c-1.8-1-3-2.2-3.6-3.7c-0.5-1.5-0.9-3.6-0.9-6.5v-2.4h9
		v4.5c0,1.4,0.1,2.3,0.3,2.6c0.2,0.3,0.7,0.5,1.3,0.5c0.7,0,1.1-0.2,1.4-0.8s0.4-1.2,0.4-2.2c0-2.2-0.3-3.6-0.9-4.3
		c-0.7-0.7-2.1-1.8-4.5-3.4c-2.4-1.5-3.9-2.7-4.7-3.4c-0.8-0.8-1.4-1.8-2-3c-0.5-1.3-0.8-2.8-0.8-4.8c0-2.8,0.3-4.9,1.1-6.2
		c0.8-1.3,1.9-2.3,3.5-3.1c1.6-0.8,3.6-1.1,5.8-1.1c2.5,0,4.6,0.4,6.3,1.2c1.8,0.8,3,1.9,3.5,3.1s0.9,3.3,0.9,6.2
		C36.5,69.7,36.5,71.1,36.5,71.1z"/>
	<path class="st1" d="M61.8,59.9v36.9h-8.4l-5-16.7v16.7h-8V59.9h8l5.5,16.5V59.9H61.8z"/>
	<path class="st1" d="M75.2,59.9v36.9h-9.6V59.9H75.2z"/>
	<path class="st1" d="M101.5,75.9h-9.6v-6.5c0-1.9-0.1-3.1-0.3-3.5c-0.2-0.4-0.7-0.7-1.3-0.7c-0.8,0-1.3,0.3-1.5,0.9
		c-0.2,0.5-0.3,1.8-0.3,3.6V87c0,1.8,0.1,3,0.3,3.5c0.2,0.5,0.7,0.9,1.4,0.9c0.8,0,1.2-0.3,1.4-0.9c0.2-0.5,0.3-1.9,0.3-3.8V82h9.6
		v1.4c0,3.8-0.2,6.6-0.8,8.1c-0.5,1.6-1.8,3-3.6,4.2c-1.9,1.2-4.2,1.8-6.8,1.8c-2.8,0-5.1-0.5-7-1.5c-1.9-1-3.1-2.4-3.6-4.3
		c-0.5-1.9-0.9-4.5-0.9-8.1V72.7c0-2.6,0.1-4.7,0.3-6c0.2-1.3,0.8-2.6,1.6-3.8c0.9-1.2,2.2-2.2,3.7-3c1.5-0.8,3.5-1.1,5.6-1.1
		c2.8,0,5.1,0.5,7,1.6c1.9,1.1,3.1,2.4,3.6,4c0.5,1.6,0.9,4.2,0.9,7.7v3.7H101.5z"/>
	<path class="st1" d="M127.9,59.9l-5.5,16.6l6,20.2h-10l-3.9-15.9v15.9h-9.6V59.9h9.6v14.3l4.3-14.3H127.9z"/>
	<path class="st1" d="M130.1,59.9h16v7.4h-6.5v7h6v7h-6v8.1h7v7.4H130L130.1,59.9L130.1,59.9z"/>
	<path class="st1" d="M149.5,59.9h6.8c4.5,0,7.6,0.2,9.2,0.5c1.6,0.3,3,1.2,3.9,2.6c1,1.4,1.5,3.7,1.5,6.9c0,2.8-0.3,4.8-1.1,5.8
		c-0.8,1-2.1,1.5-4.3,1.8c1.9,0.4,3.2,1.1,3.8,1.9c0.7,0.8,1.1,1.5,1.2,2.2c0.1,0.7,0.2,2.5,0.2,5.5v9.7h-9V84.5
		c0-2-0.1-3.2-0.4-3.7c-0.3-0.4-1.1-0.7-2.4-0.7v16.6h-9.6L149.5,59.9L149.5,59.9z M159.1,66.2v8.2c1.1,0,1.9-0.1,2.3-0.4
		c0.4-0.3,0.7-1.3,0.7-2.8V69c0-1.2-0.2-2-0.7-2.3C160.9,66.4,160.2,66.2,159.1,66.2z"/>
	<path class="st1" d="M195,71.1h-9v-2.7c0-1.3-0.1-2.1-0.3-2.4c-0.2-0.3-0.7-0.5-1.1-0.5c-0.5,0-1,0.2-1.3,0.7s-0.4,1.2-0.4,2.2
		c0,1.2,0.2,2.2,0.5,2.7c0.3,0.7,1.2,1.4,2.7,2.3c4.3,2.5,7,4.6,8.1,6.2s1.6,4.3,1.6,7.9c0,2.6-0.3,4.6-0.9,5.8
		c-0.7,1.2-1.9,2.3-3.6,3.2c-1.8,0.9-3.8,1.3-6.1,1.3c-2.5,0-4.8-0.4-6.6-1.4c-1.9-1-3-2.2-3.6-3.7c-0.5-1.5-0.9-3.6-0.9-6.5v-2.4h9
		v4.5c0,1.4,0.1,2.3,0.3,2.6c0.2,0.3,0.7,0.5,1.3,0.5c0.7,0,1.1-0.2,1.4-0.8c0.3-0.5,0.4-1.2,0.4-2.2c0-2.2-0.3-3.6-0.9-4.3
		c-0.7-0.7-2.1-1.8-4.5-3.4c-2.4-1.5-3.9-2.7-4.7-3.4c-0.8-0.8-1.4-1.8-2-3c-0.5-1.3-0.8-2.8-0.8-4.8c0-2.8,0.3-4.9,1.1-6.2
		c0.8-1.3,1.9-2.3,3.5-3.1c1.6-0.8,3.6-1.1,5.8-1.1c2.5,0,4.6,0.4,6.3,1.2s3,1.9,3.5,3.1c0.5,1.2,0.9,3.3,0.9,6.2L195,71.1L195,71.1
		z"/>
	<path class="st1" d="M207.9,66.5l-0.1,2.7c0.7-1.1,1.5-2,2.4-2.5c0.9-0.5,2.1-0.9,3.4-0.9c1.5,0,2.8,0.3,3.8,1.1s1.6,1.6,2,2.8
		s0.4,3.1,0.4,5.7v21.2h-9.2V75.8c0-2.1-0.1-3.4-0.2-3.8c-0.1-0.4-0.5-0.7-1.1-0.7c-0.7,0-1.1,0.2-1.2,0.8c-0.2,0.5-0.2,2-0.2,4.2
		v20.5h-9.2V66.5H207.9z"/>
	<path class="st1" d="M232.4,59.9v4.8h-9.5v-4.8H232.4z M232.4,66.5v30.3h-9.5V66.5H232.4z"/>
	<path class="st1" d="M241.8,89.2v7.6h-7v-7.6H241.8z"/>
	<path class="st1" d="M252.6,78.3h-8.6v-2.1c0-2.3,0.2-4.2,0.8-5.5s1.6-2.4,3.3-3.4c1.6-1,3.7-1.4,6.3-1.4c3.1,0,5.5,0.5,7,1.6
		c1.5,1.1,2.5,2.4,2.8,4c0.3,1.6,0.4,4.9,0.4,10v15.2h-9v-2.7c-0.5,1.1-1.3,1.9-2.2,2.4c-0.9,0.5-2,0.8-3.2,0.8
		c-1.6,0-3.1-0.4-4.5-1.3c-1.3-0.9-2-2.8-2-5.9v-2.5c0-2.3,0.3-3.8,1.1-4.6c0.8-0.9,2.5-1.8,5.4-2.8c3.1-1.2,4.6-2,4.8-2.4
		c0.2-0.4,0.3-1.2,0.3-2.5c0-1.5-0.1-2.6-0.3-3.1c-0.2-0.4-0.7-0.8-1.2-0.8c-0.7,0-1,0.2-1.2,0.7c-0.1,0.4-0.2,1.4-0.2,3.2v3.2
		C252.4,78.3,252.6,78.3,252.6,78.3z M255.5,82.4c-1.4,1.1-2.3,2-2.5,2.7c-0.2,0.8-0.3,1.8-0.3,3.2c0,1.5,0.1,2.6,0.3,3.1
		c0.2,0.4,0.7,0.7,1.2,0.7c0.5,0,1-0.2,1.1-0.5c0.2-0.3,0.2-1.3,0.2-2.8V82.4z"/>
	<path class="st1" d="M282.2,66.5v6.8l-6.8,17.5h6.8v6h-15.8v-6.3l6.9-17.8h-6.1v-6L282.2,66.5L282.2,66.5z"/>
</g>
</svg>
