<?xml version="1.0" encoding="utf-8"?>
<!-- Generator: Adobe Illustrator 25.0.1, SVG Export Plug-In . SVG Version: 6.00 Build 0)  -->
<svg version="1.1" id="Layer_1" xmlns="http://www.w3.org/2000/svg" xmlns:xlink="http://www.w3.org/1999/xlink" x="0px" y="0px"
	 viewBox="0 0 300 47.6" style="enable-background:new 0 0 300 47.6;" xml:space="preserve">
<style type="text/css">
	.st0{fill:#FAAE19;}
</style>
<g>
	<path class="st0" d="M34.2,14.6h-6.6v-2c0-1-0.1-1.6-0.3-1.8c-0.1-0.3-0.5-0.4-0.8-0.4c-0.4,0-0.8,0.2-1,0.5
		c-0.2,0.3-0.3,0.9-0.3,1.6c0,0.9,0.1,1.6,0.3,2c0.2,0.5,0.9,1,2,1.7c3.1,1.9,5.2,3.4,6,4.6c0.8,1.2,1.2,3.1,1.2,5.9
		c0,2-0.2,3.4-0.7,4.3c-0.5,1-1.4,1.7-2.7,2.3c-1.3,0.6-2.9,1-4.6,1c-1.9,0-3.6-0.3-4.9-1.1s-2.3-1.6-2.7-2.7
		c-0.4-1.1-0.6-2.7-0.6-4.8v-1.8h6.6v3.3c0,1,0.1,1.7,0.3,2c0.2,0.3,0.5,0.4,1,0.4c0.5,0,0.8-0.2,1.1-0.5c0.2-0.3,0.3-1,0.3-1.6
		c0-1.6-0.2-2.7-0.7-3.1c-0.5-0.5-1.6-1.3-3.3-2.5c-1.8-1.2-2.9-2-3.6-2.5c-0.5-0.5-1-1.3-1.4-2.2c-0.4-1-0.5-2.1-0.5-3.6
		c0-2.1,0.3-3.6,0.8-4.6s1.4-1.7,2.6-2.3s2.7-0.8,4.4-0.8c1.8,0,3.4,0.3,4.7,0.9s2.2,1.4,2.6,2.3c0.4,0.9,0.6,2.5,0.6,4.6V14.6z"/>
	<path class="st0" d="M52.9,6.3v27.5h-6.2l-3.8-12.5v12.5H37V6.3h5.9l4,12.4V6.3H52.9z"/>
	<path class="st0" d="M63,6.3v27.5h-7.2V6.3H63z M61.6,1v4.4h-4.4V1H61.6z"/>
	<path class="st0" d="M82.4,18.2h-7.1v-4.8c0-1.4-0.1-2.3-0.2-2.6c-0.1-0.3-0.5-0.5-1-0.5c-0.6,0-1,0.2-1.1,0.6s-0.2,1.3-0.2,2.7
		v12.8c0,1.4,0.1,2.2,0.2,2.6c0.1,0.4,0.5,0.6,1.1,0.6s0.9-0.2,1-0.6c0.1-0.4,0.3-1.4,0.3-2.9v-3.4h7.1v1.1c0,2.9-0.2,4.8-0.6,6
		c-0.4,1.2-1.3,2.3-2.7,3.1c-1.4,0.9-3.1,1.4-5.1,1.4c-2.1,0-3.8-0.4-5.2-1.2s-2.3-1.8-2.7-3.1s-0.7-3.3-0.7-6V16
		c0-2,0.1-3.5,0.2-4.4c0.1-1,0.5-1.9,1.2-2.9c0.7-0.9,1.6-1.6,2.8-2.2C71,5.9,72.5,5.6,74,5.6c2.1,0,3.8,0.4,5.2,1.2
		c1.4,0.8,2.3,1.8,2.7,3c0.4,1.2,0.6,3.1,0.6,5.7V18.2z"/>
	<path class="st0" d="M102,6.3l-4.1,12.4l4.5,15h-7.4l-2.9-11.7v11.7h-7.1V6.3h7.1v10.7l3.2-10.7H102z"/>
	<path class="st0" d="M103.6,6.3h11.9v5.5h-4.8v5.2h4.4v5.2h-4.4v6h5.3v5.5h-12.4L103.6,6.3L103.6,6.3z"/>
	<path class="st0" d="M118,6.3h5.1c3.3,0,5.7,0.1,6.8,0.4s2.2,1,2.9,2c0.8,1.1,1.1,2.8,1.1,5.1c0,2.1-0.3,3.6-0.8,4.3
		c-0.5,0.8-1.6,1.2-3.1,1.3c1.4,0.3,2.4,0.8,2.9,1.4c0.5,0.6,0.8,1.1,0.9,1.6c0.1,0.5,0.2,1.8,0.2,4v7.2h-6.6v-9.1
		c0-1.4-0.1-2.4-0.3-2.7s-0.8-0.5-1.8-0.5v12.4H118L118,6.3L118,6.3z M125.2,11V17c0.8,0,1.4-0.1,1.7-0.3c0.3-0.2,0.5-1,0.5-2.1
		v-1.5c0-0.9-0.1-1.4-0.5-1.7S126,11,125.2,11z"/>
	<path class="st0" d="M151.8,14.6h-6.6v-2c0-1-0.1-1.6-0.3-1.8c-0.1-0.3-0.5-0.4-0.8-0.4c-0.4,0-0.8,0.2-1,0.5s-0.3,0.9-0.3,1.6
		c0,0.9,0.1,1.6,0.3,2c0.2,0.5,0.9,1,2,1.7c3.1,1.9,5.2,3.4,6,4.6c0.8,1.2,1.2,3.1,1.2,5.9c0,2-0.2,3.4-0.7,4.3
		c-0.5,1-1.4,1.7-2.7,2.3c-1.3,0.6-2.9,1-4.6,1c-1.9,0-3.6-0.3-4.9-1.1c-1.4-0.8-2.3-1.6-2.7-2.7s-0.6-2.7-0.6-4.8v-1.8h6.6v3.3
		c0,1,0.1,1.7,0.3,2c0.2,0.3,0.5,0.4,1,0.4c0.5,0,0.8-0.2,1-0.5s0.3-1,0.3-1.6c0-1.6-0.2-2.7-0.7-3.1c-0.5-0.5-1.6-1.3-3.3-2.5
		c-1.8-1.2-2.9-2-3.6-2.5c-0.5-0.5-1-1.3-1.4-2.2c-0.4-1-0.5-2.1-0.5-3.6c0-2.1,0.3-3.6,0.8-4.6s1.4-1.7,2.6-2.3
		c1.2-0.5,2.7-0.8,4.4-0.8c1.8,0,3.4,0.3,4.7,0.9s2.2,1.4,2.6,2.3c0.4,0.9,0.6,2.5,0.6,4.6L151.8,14.6L151.8,14.6z"/>
	<path class="st0" d="M161.8,6.3v21.9h4.4v5.5h-11.5V6.3H161.8z"/>
	<path class="st0" d="M184,13c0.1,1.2,0.1,2.7,0.1,4.6v4.7c0,2.7-0.1,4.7-0.2,5.9c-0.1,1.2-0.5,2.2-1.2,3.1c-0.7,1-1.6,1.7-2.8,2.2
		c-1.2,0.5-2.5,0.8-4.1,0.8c-1.5,0-2.8-0.3-4-0.8s-2.1-1.2-2.8-2.2c-0.7-1-1.2-2-1.3-3.1c-0.1-1.2-0.2-3.1-0.2-5.9v-5h9.4v-4.7
		c0-0.9-0.1-1.5-0.1-1.8c-0.1-0.3-0.5-0.5-1.2-0.5c-0.8,0-1.2,0.5-1.2,1.6V14h-6.8v-1.4c0-2.2,0.7-3.8,2.1-5
		c1.4-1.2,3.3-1.7,5.6-1.7c3,0,5.2,0.5,6.5,1.7c0.8,0.7,1.4,1.5,1.8,2.6v0.1c0.1,0.1,0.1,0.3,0.1,0.5l0.1,0.2
		C184,11.7,184,12.3,184,13z M176.8,29c0.1-0.4,0.2-1.4,0.2-3.1v-4.6h-2.3v4.8c0,1.6,0.1,2.6,0.2,2.9c0.1,0.3,0.4,0.5,0.9,0.5
		C176.4,29.6,176.7,29.4,176.8,29z"/>
	<path class="st0" d="M194.2,6.3l-1.1,20.6h-5.3l-1.1-20.6C186.7,6.3,194.2,6.3,194.2,6.3z M193.6,28.2v5.5h-6.4v-5.5H193.6z"/>
</g>
</svg>
