<?xml version="1.0" encoding="utf-8"?>
<!-- Generator: Adobe Illustrator 25.0.1, SVG Export Plug-In . SVG Version: 6.00 Build 0)  -->
<svg version="1.1" id="Layer_1" xmlns="http://www.w3.org/2000/svg" xmlns:xlink="http://www.w3.org/1999/xlink" x="0px" y="0px"
	 viewBox="0 0 300 102" style="enable-background:new 0 0 300 102;" xml:space="preserve">
<style type="text/css">
	.st0{fill:#FFFFFF;}
	.st1{fill:#FAAE19;}
</style>
<g>
	<path class="st0" d="M64,15.7v32.9h-7.5V26.3l-3,22.3h-5.2l-3.1-21.7v21.7h-7.6V15.7h11.1c0.3,2,0.7,4.2,1,7.1l1.1,8.5l2-15.5H64z"
		/>
	<path class="st0" d="M87,15.7v22c0,2.5-0.1,4.2-0.3,5.2s-0.7,2.1-1.4,3.1c-0.8,1.1-1.8,1.8-3.1,2.4c-1.3,0.6-2.8,0.8-4.7,0.8
		c-2,0-3.7-0.3-5.2-1c-1.4-0.7-2.7-1.4-3.4-2.5s-1.1-2.1-1.4-3.4c-0.1-1.1-0.1-3.7-0.1-7.3V15.7H76v24.7c0,1.4,0.1,2.4,0.1,2.7
		c0.1,0.4,0.4,0.6,1,0.6s0.8-0.1,1.1-0.7c0.3-0.6,0.1-1.4,0.1-3.1V15.7H87z M75.4,9.4v5.2h-5.4V9.4H75.4z M84.3,9.4v5.2h-5.2V9.4
		H84.3z"/>
	<path class="st0" d="M110.7,15.7l-4.9,14.8l5.4,18.1h-8.9l-3.4-14.1v14.1h-8.6V15.7h8.6v12.7l3.8-12.8h8V15.7z"/>
	<path class="st0" d="M128.4,15.7l4.9,32.9h-8.8l-0.4-5.9h-3.2l-0.4,5.9h-8.9l4.4-32.9H128.4z M123.9,36.9
		c-0.4-3.7-0.8-8.3-1.3-13.8c-0.8,6.4-1.4,11-1.7,13.8H123.9z"/>
	<path class="st0" d="M134.7,15.7h14.5v6.6h-5.9v6.2h5.2v6.2h-5.2v13.8h-8.6V15.7z"/>
	<path class="st0" d="M165.2,15.7l4.9,32.9h-8.8l-0.4-5.9h-3l-0.4,5.9h-8.9l4.2-32.9H165.2z M160.7,36.9c-0.4-3.7-0.8-8.3-1.3-13.8
		c-0.8,6.4-1.4,11-1.7,13.8H160.7z"/>
	<path class="st0" d="M186.7,15.7v6.6h-5.1v26.4H173V22.4h-5.1v-6.6C167.9,15.7,186.7,15.7,186.7,15.7z"/>
	<path class="st0" d="M197.2,15.7v26.4h5.2v6.6h-13.8v-33H197.2z"/>
	<path class="st0" d="M220.3,15.7l4.9,32.9h-8.8l-0.4-5.9h-3l-0.4,5.9h-8.9l4.1-32.9H220.3z M215.7,36.9c-0.4-3.7-0.8-8.3-1.3-13.8
		c-0.8,6.4-1.4,11-1.7,13.8H215.7z"/>
	<path class="st0" d="M226.7,15.7h6.1c4,0,6.8,0.1,8.2,0.4c1.4,0.3,2.7,1.1,3.5,2.4s1.4,3.4,1.4,6.2c0,2.5-0.3,4.2-1,5.2
		c-0.7,0.8-1.8,1.4-3.8,1.6c1.7,0.4,2.8,1,3.4,1.7c0.6,0.7,1,1.4,1.1,2c0.1,0.6,0.1,2.3,0.1,4.9v8.8h-8v-11c0-1.7-0.1-2.8-0.4-3.4
		c-0.3-0.4-1-0.6-2.1-0.6v14.8h-8.6L226.7,15.7L226.7,15.7z M235.2,21.3v7.3c1,0,1.7-0.1,2.1-0.4c0.4-0.3,0.6-1.1,0.6-2.5v-1.8
		c0-1.1-0.1-1.7-0.6-2.1C236.9,21.5,236.2,21.3,235.2,21.3z"/>
	<path class="st0" d="M257.7,15.7v32.9H249V15.7H257.7z"/>
</g>
<g>
	<path class="st1" d="M38.5,73h-8.8v-2.6c0-1.3-0.1-2.1-0.3-2.3c-0.2-0.2-0.7-0.4-1.1-0.4c-0.4,0-1,0.2-1.3,0.7
		c-0.3,0.4-0.4,1.2-0.4,2.2c0,1.2,0.2,2.2,0.4,2.6c0.3,0.7,1.2,1.3,2.6,2.2c4.2,2.4,6.8,4.5,7.9,6.1c1.1,1.5,1.5,4.2,1.5,7.7
		c0,2.5-0.3,4.5-0.9,5.6c-0.7,1.2-1.9,2.2-3.5,3.1c-1.8,0.9-3.7,1.3-5.9,1.3c-2.4,0-4.7-0.4-6.5-1.3c-1.8-1-3-2.2-3.5-3.6
		c-0.4-1.4-0.9-3.5-0.9-6.4v-2.3h8.8v4.4c0,1.3,0.1,2.2,0.3,2.5s0.7,0.4,1.3,0.4c0.7,0,1.1-0.2,1.3-0.8c0.3-0.5,0.4-1.2,0.4-2.2
		c0-2.2-0.3-3.5-0.9-4.2c-0.7-0.7-2.1-1.8-4.4-3.3c-2.3-1.4-3.9-2.6-4.6-3.3c-0.8-0.8-1.3-1.8-2-3c-0.4-1.3-0.8-2.8-0.8-4.7
		c0-2.8,0.3-4.7,1.1-6c0.8-1.3,1.9-2.2,3.4-3.1c1.5-0.9,3.5-1.1,5.6-1.1c2.4,0,4.5,0.4,6.2,1.2c1.8,0.8,3,1.9,3.4,3.1
		c0.4,1.2,0.9,3.2,0.9,6C38.5,71.7,38.5,73,38.5,73z"/>
	<path class="st1" d="M63.2,62.1v36H55l-4.8-16.3v16.3h-7.8v-36h7.8l5.4,16.1V62.1H63.2z"/>
	<path class="st1" d="M76.3,62.1v36h-9.4v-36H76.3z"/>
	<path class="st1" d="M101.9,77.7h-9.3v-6.4c0-1.9-0.1-3.1-0.3-3.4c-0.2-0.4-0.7-0.7-1.3-0.7c-0.8,0-1.3,0.3-1.4,0.9
		c-0.2,0.4-0.3,1.8-0.3,3.5v16.8c0,1.8,0.1,3,0.3,3.4c0.2,0.4,0.7,0.9,1.3,0.9c0.8,0,1.2-0.3,1.3-0.9c0.2-0.4,0.3-1.9,0.3-3.7v-4.6
		h9.4V85c0,3.7-0.2,6.5-0.8,7.9c-0.4,1.5-1.8,3-3.5,4.1c-1.9,1.2-4.1,1.8-6.6,1.8c-2.8,0-4.9-0.4-6.8-1.4c-1.9-1-3.1-2.3-3.5-4.2
		c-0.4-1.9-0.9-4.4-0.9-7.9V74.5c0-2.5,0.1-4.6,0.3-5.8c0.2-1.3,0.8-2.5,1.5-3.7c0.9-1.2,2.2-2.2,3.6-3s3.4-1.1,5.5-1.1
		c2.8,0,5,0.4,6.8,1.5c1.9,1.1,3.1,2.3,3.5,3.8c0.4,1.5,0.9,4.1,0.9,7.5L101.9,77.7L101.9,77.7L101.9,77.7z"/>
	<path class="st1" d="M127.7,62.1l-5.4,16.2l5.8,19.7h-9.8l-3.8-15.5V98h-9.4V62.1h9.4v14l4.2-14C118.9,62.1,127.7,62.1,127.7,62.1z
		"/>
	<path class="st1" d="M129.9,62.1h15.6v7.3h-6.4v6.8h5.8V83h-5.8v7.9h6.8v7.3h-16.2L129.9,62.1L129.9,62.1z"/>
	<path class="st1" d="M148.8,62.1h6.6c4.4,0,7.4,0.2,9,0.4c1.5,0.3,3,1.2,3.9,2.5c1,1.3,1.4,3.6,1.4,6.7c0,2.8-0.3,4.7-1.1,5.6
		c-0.8,0.9-2.1,1.4-4.2,1.8c1.9,0.4,3.1,1.1,3.7,1.9c0.7,0.8,1.1,1.4,1.2,2.2c0.1,0.7,0.2,2.4,0.2,5.4v9.5h-8.8v-12
		c0-2-0.1-3.1-0.4-3.6c-0.3-0.4-1.1-0.7-2.3-0.7V98h-9.3L148.8,62.1L148.8,62.1z M158.1,68.3v8c1.1,0,1.9-0.1,2.2-0.4
		c0.4-0.3,0.7-1.3,0.7-2.8v-2.2c0-1.2-0.2-2-0.7-2.2C159.9,68.5,159.2,68.3,158.1,68.3z"/>
	<path class="st1" d="M193.2,73h-8.8v-2.6c0-1.3-0.1-2.1-0.3-2.3c-0.2-0.3-0.7-0.4-1.1-0.4c-0.4,0-1,0.2-1.3,0.7
		c-0.3,0.4-0.4,1.2-0.4,2.2c0,1.2,0.2,2.2,0.4,2.6c0.3,0.7,1.2,1.3,2.6,2.2c4.2,2.4,6.8,4.5,7.9,6.1c1.1,1.5,1.5,4.2,1.5,7.7
		c0,2.5-0.3,4.5-0.9,5.6c-0.7,1.2-1.9,2.2-3.5,3.1c-1.8,0.9-3.7,1.3-5.9,1.3c-2.4,0-4.7-0.4-6.5-1.3c-1.9-1-3-2.2-3.5-3.6
		c-0.4-1.4-0.9-3.5-0.9-6.4v-2.3h8.8v4.4c0,1.3,0.1,2.2,0.3,2.5s0.7,0.4,1.3,0.4c0.7,0,1.1-0.2,1.3-0.8c0.3-0.4,0.4-1.2,0.4-2.2
		c0-2.2-0.3-3.5-0.9-4.2c-0.7-0.7-2.1-1.8-4.4-3.3c-2.3-1.4-3.9-2.6-4.6-3.3c-0.8-0.8-1.3-1.8-2-3c-0.4-1.3-0.8-2.8-0.8-4.7
		c0-2.8,0.3-4.7,1.1-6c0.8-1.3,1.9-2.2,3.4-3.1c1.5-0.9,3.5-1.1,5.6-1.1c2.4,0,4.5,0.4,6.2,1.2c1.6,0.8,3,1.9,3.4,3.1
		c0.4,1.2,0.9,3.2,0.9,6L193.2,73L193.2,73z"/>
	<path class="st1" d="M205.8,68.6l-0.1,2.6c0.7-1.1,1.4-2,2.3-2.4c0.9-0.4,2.1-0.9,3.3-0.9c1.4,0,2.8,0.3,3.7,1.1
		c1,0.8,1.5,1.5,2,2.8c0.4,1.2,0.4,3.1,0.4,5.6v20.7h-9V77.6c0-2.1-0.1-3.3-0.2-3.7c-0.1-0.4-0.4-0.7-1.1-0.7s-1.1,0.2-1.2,0.8
		c-0.2,0.4-0.2,2-0.2,4.1v20h-9V68.6H205.8z"/>
	<path class="st1" d="M229.6,62.1v4.7h-9.2v-4.7H229.6z M229.6,68.6v29.6h-9.2V68.6H229.6z"/>
	<path class="st1" d="M238.9,90.7v7.4h-6.8v-7.4H238.9z"/>
	<path class="st1" d="M249.4,80h-8.4V78c0-2.2,0.2-4.1,0.8-5.4c0.6-1.3,1.5-2.3,3.2-3.3c1.5-1,3.6-1.3,6.2-1.3
		c3.1,0,5.4,0.4,6.8,1.5s2.4,2.3,2.8,3.8s0.4,4.7,0.4,9.8V98h-8.8v-2.6c-0.4,1.1-1.3,1.9-2.2,2.3s-2,0.8-3.1,0.8
		c-1.5,0-3.1-0.4-4.4-1.3c-1.3-0.9-2-2.8-2-5.7V89c0-2.2,0.3-3.7,1.1-4.5c0.8-0.9,2.4-1.8,5.3-2.8c3.1-1.2,4.5-2,4.7-2.3
		c0.2-0.4,0.3-1.2,0.3-2.4c0-1.4-0.1-2.5-0.3-3.1c-0.2-0.4-0.7-0.8-1.2-0.8c-0.7,0-1,0.2-1.2,0.7c-0.1,0.4-0.2,1.3-0.2,3.1v3.1
		C249.2,80,249.4,80,249.4,80z M252.2,84.1c-1.3,1.1-2.2,2-2.4,2.6c-0.2,0.8-0.3,1.8-0.3,3.1c0,1.4,0.1,2.5,0.3,3.1
		c0.2,0.4,0.7,0.7,1.2,0.7s1-0.2,1.1-0.4c0.2-0.3,0.2-1.3,0.2-2.8v-6.3H252.2z"/>
	<path class="st1" d="M278.3,68.6v6.6l-6.6,17h6.6v5.8h-15.4v-6.2l6.7-17.4h-5.9v-5.8L278.3,68.6L278.3,68.6z"/>
</g>
</svg>
