<?xml version="1.0" encoding="utf-8"?>
<!-- Generator: Adobe Illustrator 25.0.1, SVG Export Plug-In . SVG Version: 6.00 Build 0)  -->
<svg version="1.1" id="Layer_1" xmlns="http://www.w3.org/2000/svg" xmlns:xlink="http://www.w3.org/1999/xlink" x="0px" y="0px"
	 viewBox="0 0 300 55" style="enable-background:new 0 0 300 55;" xml:space="preserve">
<style type="text/css">
	.st0{fill:#FFFFFF;}
</style>
<g>
	<path class="st0" d="M38.2,25.1h-7.6v-2.4c0-1.1-0.1-1.8-0.3-2.1s-0.6-0.4-1-0.4c-0.4,0-0.8,0.1-1.1,0.6c-0.3,0.4-0.4,1.1-0.4,1.8
		c0,1.1,0.1,1.8,0.4,2.4s1.1,1.3,2.4,2c3.8,2.1,6.1,3.8,6.9,5.4c1,1.4,1.4,3.8,1.4,6.6c0,2.3-0.3,3.8-0.8,4.9
		c-0.6,1.1-1.6,2-3.1,2.7c-1.4,0.8-3.4,1.1-5.2,1.1c-2.1,0-4.1-0.4-5.6-1.3c-1.6-0.8-2.5-1.8-3.1-3.2c-0.4-1.3-0.8-3.1-0.8-5.5v-2
		h7.6v3.8c0,1.3,0.1,2,0.3,2.3c0.1,0.3,0.6,0.4,1.1,0.4c0.6,0,1-0.1,1.3-0.7c0.3-0.6,0.4-1.1,0.4-1.8c0-1.8-0.3-3.1-0.8-3.8
		c-0.6-0.6-1.8-1.4-3.8-3c-2.1-1.3-3.4-2.3-4-3c-0.6-0.7-1.3-1.4-1.7-2.5c-0.4-1.1-0.7-2.4-0.7-4.1c0-2.4,0.3-4.1,1-5.4
		c0.8-1.1,1.8-2.1,3.1-2.7c1.4-0.7,3.1-1,4.9-1c2.1,0,3.8,0.4,5.4,1.1c1.4,0.7,2.5,1.6,3.1,2.7c0.4,1.1,0.8,2.8,0.8,5.4V25.1
		L38.2,25.1z"/>
	<path class="st0" d="M55.7,15.4L60.4,47h-8.5l-0.4-5.6h-3L48.1,47h-8.6l4.1-31.6H55.7L55.7,15.4z M51.3,35.8
		c-0.4-3.7-0.8-8-1.3-13.3c-0.8,6.1-1.4,10.4-1.6,13.3H51.3z"/>
	<path class="st0" d="M76.9,15.4l-6.1,20.2V47h-7.6V35.7l-5.8-20.3H65c1.3,6.2,1.8,10.3,2,12.4c0.4-3.4,1.3-7.5,2.3-12.4
		C69.3,15.4,76.9,15.4,76.9,15.4z"/>
	<path class="st0" d="M94.9,15.4v6.4h-4.8V47h-8.3V21.8H77v-6.4h17.9V15.4z"/>
	<path class="st0" d="M105.1,15.4V47h-8.3V15.4H105.1z"/>
	<path class="st0" d="M126.7,15.4V47h-7.2l-4.2-14.3V47h-6.8V15.4h6.8l4.5,14.3V15.4H126.7z"/>
	<path class="st0" d="M129.9,15.4h6.2c3.8,0,6.6,0.1,8,0.6c1.4,0.4,2.4,1,3.2,1.8c0.8,0.8,1.3,1.8,1.4,2.8c0.1,1.1,0.3,3.1,0.3,6.1
		v11.1c0,2.8-0.1,4.8-0.4,5.6c-0.3,1-0.8,1.7-1.4,2.3c-0.7,0.6-1.4,1-2.4,1.1c-1,0.1-2.4,0.3-4.4,0.3h-10.4L129.9,15.4L129.9,15.4z
		 M138.1,20.9v20.7c1.3,0,1.8-0.3,2.1-0.8c0.3-0.6,0.4-1.8,0.4-3.8V24.7c0-1.4,0-2.4-0.1-2.8s-0.3-0.7-0.7-0.8
		C139.7,21,139.1,20.9,138.1,20.9z"/>
	<path class="st0" d="M166.4,15.4L171,47h-8.5l-0.4-5.6H159l-0.4,5.6H150l4.1-31.6C154.4,15.4,166.4,15.4,166.4,15.4z M162,35.8
		c-0.4-3.7-0.8-8-1.3-13.3c-0.8,6.1-1.4,10.6-1.6,13.3H162z"/>
	<path class="st0" d="M198.4,47v3.8h-6.2c-1.4,0-2.5-0.1-3.2-0.4c-0.7-0.1-1.1-0.6-1.3-1.1c-0.1-0.4-0.3-1.3-0.3-2.4
		c-1.8-0.1-3.5-0.6-4.8-1.4c-1.3-1-2.3-2.1-2.7-3.7c-0.4-1.4-0.7-3.7-0.7-6.4v-9.7c0-2.1,0.1-3.8,0.4-4.8s0.8-2.1,1.6-3.2
		c0.8-1.1,1.8-1.8,3.1-2.3c1.3-0.4,2.7-0.8,4.1-0.8c1.8,0,3.5,0.3,4.8,1c1.4,0.7,2.5,1.4,3.2,2.4c0.8,1,1.3,2,1.4,3.1
		c0.1,1.1,0.3,2.5,0.3,4.5v10.3c0,2.8-0.1,4.7-0.4,5.6c-0.3,1.1-0.8,1.8-1.6,2.4c-0.8,0.6-1.8,1.1-3.1,1.3c0,0.8,0.1,1.1,0.4,1.3
		c0.3,0.1,0.8,0.3,1.8,0.3L198.4,47L198.4,47z M190.1,23.5c0-1.4-0.1-2.4-0.3-2.8c-0.1-0.4-0.4-0.7-1.1-0.7c-0.4,0-0.8,0.1-1.1,0.4
		c-0.1,0.4-0.4,1.3-0.4,3v14.8c0,1.8,0.1,3.1,0.1,3.4c0.1,0.4,0.4,0.7,1.1,0.7c0.6,0,1-0.3,1.1-0.8c0.1-0.4,0.3-1.7,0.3-3.7V23.5
		H190.1z"/>
	<path class="st0" d="M215.5,15.4l4.7,31.6h-8.5l-0.4-5.6h-3l-0.4,5.6h-8.5l4.1-31.6C203.8,15.4,215.5,15.4,215.5,15.4z M211.2,35.8
		c-0.4-3.7-0.8-8-1.3-13.3c-0.8,6.1-1.4,10.6-1.6,13.3H211.2z"/>
	<path class="st0" d="M236.4,15.4v6.4l-6.1,19.1h6.1v6.4h-15.2v-4.5l6.4-20.7h-5.6v-6.6h14.5V15.4z"/>
	<path class="st0" d="M253.7,15.4l4.7,31.6h-8.5l-0.4-5.6h-3l-0.4,5.6h-8.6l4.4-31.6C241.7,15.4,253.7,15.4,253.7,15.4z M249.2,35.8
		c-0.4-3.7-0.8-8-1.3-13.3c-0.8,6.1-1.4,10.6-1.6,13.3H249.2z"/>
	<path class="st0" d="M278.1,15.4V47h-7.2l-4.2-14.3V47h-6.8V15.4h6.8l4.5,14.3V15.4H278.1z"/>
</g>
</svg>
