<?xml version="1.0" encoding="utf-8"?>
<!-- Generator: Adobe Illustrator 25.0.1, SVG Export Plug-In . SVG Version: 6.00 Build 0)  -->
<svg version="1.1" id="Layer_1" xmlns="http://www.w3.org/2000/svg" xmlns:xlink="http://www.w3.org/1999/xlink" x="0px" y="0px"
	 viewBox="0 0 300 47.6" style="enable-background:new 0 0 300 47.6;" xml:space="preserve">
<style type="text/css">
	.st0{fill:#FAAE19;}
</style>
<g>
	<path class="st0" d="M35.3,14.6h-7.1v-2.1c0-1.1-0.1-1.7-0.3-1.9c-0.1-0.3-0.5-0.4-0.9-0.4c-0.4,0-0.9,0.2-1.1,0.5s-0.3,1-0.3,1.7
		c0,1,0.1,1.7,0.3,2.1c0.2,0.5,1,1.1,2.1,1.8c3.3,2,5.6,3.6,6.4,4.9s1.3,3.3,1.3,6.3c0,2.1-0.2,3.6-0.7,4.6
		c-0.5,1.1-1.5,1.8-2.9,2.5c-1.4,0.6-3.1,1.1-4.9,1.1c-2,0-3.9-0.3-5.2-1.2s-2.5-1.7-2.9-2.9c-0.4-1.2-0.6-2.9-0.6-5.1v-1.9h7.1v3.5
		c0,1.1,0.1,1.8,0.3,2.1c0.2,0.3,0.5,0.4,1.1,0.4c0.5,0,0.9-0.2,1.2-0.5c0.2-0.3,0.3-1.1,0.3-1.7c0-1.7-0.2-2.9-0.7-3.3
		c-0.5-0.5-1.7-1.4-3.5-2.7c-1.9-1.3-3.1-2.1-3.9-2.7c-0.5-0.5-1.1-1.4-1.5-2.4c-0.4-1.1-0.5-2.2-0.5-3.9c0-2.2,0.3-3.9,0.9-4.9
		c0.5-1.1,1.5-1.8,2.8-2.5c1.3-0.6,2.9-0.9,4.7-0.9c1.9,0,3.6,0.3,5,1s2.4,1.5,2.8,2.5c0.4,1,0.6,2.7,0.6,4.9v1H35.3z"/>
	<path class="st0" d="M55.3,5.7v29.4h-6.6l-4.1-13.4v13.4h-6.3V5.7h6.3L48.9,19V5.7H55.3z"/>
	<path class="st0" d="M66.2,5.7v29.4h-7.7V5.7H66.2z M64.7,0v4.7H60V0H64.7z"/>
	<path class="st0" d="M86.9,18.4h-7.6v-5.1c0-1.5-0.1-2.5-0.2-2.8C79,10.2,78.6,10,78,10c-0.6,0-1.1,0.2-1.2,0.6
		c-0.1,0.4-0.2,1.4-0.2,2.9v13.7c0,1.5,0.1,2.4,0.2,2.8c0.1,0.4,0.5,0.6,1.2,0.6c0.6,0,1-0.2,1.1-0.6c0.1-0.4,0.3-1.5,0.3-3.1v-3.6
		H87v1.2c0,3.1-0.2,5.1-0.6,6.4c-0.4,1.3-1.4,2.5-2.9,3.3c-1.5,1-3.3,1.5-5.5,1.5c-2.2,0-4.1-0.4-5.6-1.3c-1.5-0.9-2.5-1.9-2.9-3.3
		c-0.4-1.4-0.7-3.5-0.7-6.4v-8.6c0-2.1,0.1-3.7,0.2-4.7c0.1-1.1,0.5-2,1.3-3.1c0.7-1,1.7-1.7,3-2.4c1.4-0.6,3-1,4.6-1
		c2.2,0,4.1,0.4,5.6,1.3C85,7.1,86,8.1,86.4,9.4c0.4,1.3,0.6,3.3,0.6,6.1v2.9H86.9z"/>
	<path class="st0" d="M107.9,5.7L103.5,19l4.8,16.1h-7.9l-3.1-12.5V35h-7.6V5.7h7.6v11.5l3.4-11.5H107.9z"/>
	<path class="st0" d="M109.6,5.7h12.7v5.9h-5.1v5.6h4.7v5.6h-4.7v6.4h5.7V35h-13.3V5.7L109.6,5.7z"/>
	<path class="st0" d="M125,5.7h5.5c3.5,0,6.1,0.1,7.3,0.4c1.2,0.3,2.4,1.1,3.1,2.1c0.9,1.2,1.2,3,1.2,5.5c0,2.2-0.3,3.9-0.9,4.6
		c-0.5,0.9-1.7,1.3-3.3,1.4c1.5,0.3,2.6,0.9,3.1,1.5c0.5,0.6,0.9,1.2,1,1.7c0.1,0.5,0.2,1.9,0.2,4.3v7.7h-7.1v-9.7
		c0-1.5-0.1-2.6-0.3-2.9c-0.2-0.3-0.9-0.5-1.9-0.5V35H125V5.7L125,5.7z M132.8,10.7v6.4c0.9,0,1.5-0.1,1.8-0.3
		c0.3-0.2,0.5-1.1,0.5-2.2V13c0-1-0.1-1.5-0.5-1.8S133.6,10.7,132.8,10.7z"/>
	<path class="st0" d="M161.2,14.6h-7.1v-2.1c0-1.1-0.1-1.7-0.3-1.9c-0.1-0.3-0.5-0.4-0.9-0.4c-0.4,0-0.9,0.2-1.1,0.5
		c-0.2,0.3-0.3,1-0.3,1.7c0,1,0.1,1.7,0.3,2.1c0.2,0.5,1,1.1,2.1,1.8c3.3,2,5.6,3.6,6.4,4.9c0.9,1.3,1.3,3.3,1.3,6.3
		c0,2.1-0.2,3.6-0.7,4.6c-0.5,1.1-1.5,1.8-2.9,2.5c-1.4,0.6-3.1,1.1-4.9,1.1c-2,0-3.9-0.3-5.2-1.2c-1.5-0.9-2.5-1.7-2.9-2.9
		c-0.4-1.2-0.6-2.9-0.6-5.1v-1.9h7.1v3.5c0,1.1,0.1,1.8,0.3,2.1c0.2,0.3,0.5,0.4,1.1,0.4c0.5,0,0.9-0.2,1.1-0.5
		c0.2-0.3,0.3-1.1,0.3-1.7c0-1.7-0.2-2.9-0.7-3.3c-0.5-0.5-1.7-1.4-3.5-2.7c-1.9-1.3-3.1-2.1-3.9-2.7c-0.5-0.5-1.1-1.4-1.5-2.4
		c-0.4-1.1-0.5-2.2-0.5-3.9c0-2.2,0.3-3.9,0.9-4.9c0.5-1.1,1.5-1.8,2.8-2.5c1.3-0.5,2.9-0.9,4.7-0.9c1.9,0,3.6,0.3,5,1
		s2.4,1.5,2.8,2.5c0.4,1,0.6,2.7,0.6,4.9L161.2,14.6L161.2,14.6z"/>
	<path class="st0" d="M171.9,5.7v23.4h4.7V35h-12.3V5.7H171.9z"/>
	<path class="st0" d="M195.7,12.8c0.1,1.3,0.1,2.9,0.1,4.9v5c0,2.9-0.1,5-0.2,6.3c-0.1,1.3-0.5,2.4-1.3,3.3c-0.7,1.1-1.7,1.8-3,2.4
		c-1.3,0.5-2.7,0.9-4.4,0.9c-1.6,0-3-0.3-4.3-0.9c-1.3-0.5-2.2-1.3-3-2.4c-0.7-1.1-1.3-2.1-1.4-3.3c-0.1-1.3-0.2-3.3-0.2-6.3v-5.4
		h10.1v-5c0-1-0.1-1.6-0.1-1.9c-0.1-0.3-0.5-0.5-1.3-0.5c-0.9,0-1.3,0.5-1.3,1.7v2.2h-7.3v-1.5c0-2.4,0.7-4.1,2.2-5.4
		c1.5-1.3,3.5-1.8,6-1.8c3.2,0,5.6,0.5,7,1.8c0.9,0.7,1.5,1.6,1.9,2.8V10c0.1,0.1,0.1,0.3,0.1,0.5l0.1,0.2
		C195.7,11.5,195.7,12.1,195.7,12.8z M188,30c0.1-0.4,0.2-1.5,0.2-3.3v-4.9h-2.5v5.1c0,1.7,0.1,2.8,0.2,3.1c0.1,0.3,0.4,0.5,1,0.5
		C187.6,30.6,187.9,30.4,188,30z"/>
	<path class="st0" d="M206.6,5.7l-1.2,22.1h-5.7l-1.2-22.1C198.6,5.7,206.6,5.7,206.6,5.7z M206,29.1V35h-6.9v-5.9H206z"/>
</g>
</svg>
