<?xml version="1.0" encoding="utf-8"?>
<!-- Generator: Adobe Illustrator 25.0.1, SVG Export Plug-In . SVG Version: 6.00 Build 0)  -->
<svg version="1.1" id="Layer_1" xmlns="http://www.w3.org/2000/svg" xmlns:xlink="http://www.w3.org/1999/xlink" x="0px" y="0px"
	 viewBox="0 0 300 52" style="enable-background:new 0 0 300 52;" xml:space="preserve">
<style type="text/css">
	.st0{fill:#FFFFFF;}
</style>
<g>
	<g>
		<path class="st0" d="M19.6,11.8h7.7c2.5,0,4.3,0.2,5.5,0.5c1.3,0.3,2.2,1.2,3,2.2c0.9,1.2,1.2,3,1.2,5.6c0,1.7-0.3,2.9-0.9,3.5
			c-0.5,0.6-1.6,1.2-3.2,1.5c1.7,0.4,3,1.1,3.6,1.9c0.6,1,1,2.4,1,4.3v2.8c0,1.9-0.2,3.5-0.6,4.5s-1.2,1.6-2.1,1.9
			c-1.1,0.3-3.1,0.5-6.1,0.5h-8.9V11.8H19.6z M27.2,16.8v6.5c0.3,0,0.5,0,0.9,0c0.7,0,1.3-0.2,1.5-0.5c0.2-0.3,0.3-1.5,0.3-3.2
			c0-1-0.1-1.6-0.3-1.9c-0.1-0.3-0.3-0.5-0.6-0.7C28.6,16.9,28,16.9,27.2,16.8z M27.2,28.1v8.2c1.1-0.1,1.7-0.2,2-0.5
			c0.3-0.3,0.4-1.1,0.4-2.2v-2.8c0-1.3-0.1-2-0.4-2.4C29,28.3,28.4,28.1,27.2,28.1z"/>
		<path class="st0" d="M40.2,11.8h12.8v5.9H48v5.7h4.8V29H48v6.5h5.7v5.9H40.2V11.8z"/>
		<path class="st0" d="M72.2,11.8l-5.7,18.8v10.7h-7.2V30.6l-5.5-18.8h7.1c1.1,5.8,1.7,9.6,1.9,11.7c0.4-3.1,1.2-7.1,2.1-11.7
			C65.1,11.8,72.2,11.8,72.2,11.8z"/>
		<path class="st0" d="M90.7,11.8v29.7h-6.7L79.9,28v13.5h-6.4V11.8h6.4l4.3,13.3V11.8H90.7z"/>
		<path class="st0" d="M101.5,11.8v29.7h-7.7V11.8H101.5z M100,6.1v4.7h-4.7V6.1H100z"/>
		<path class="st0" d="M121.7,11.8v29.7H115L110.9,28v13.5h-6.4V11.8h6.4l4.3,13.3V11.8H121.7z"/>
		<path class="st0" d="M132.5,11.8v23.7h4.7v5.9h-12.3V11.8H132.5z"/>
		<path class="st0" d="M156.6,19.1c0.1,1.3,0.1,2.9,0.1,4.9v5.1c0,3-0.1,5.1-0.2,6.3c-0.1,1.3-0.5,2.5-1.3,3.4
			c-0.7,1.1-1.7,1.8-3,2.4c-1.3,0.5-2.7,0.9-4.4,0.9c-1.6,0-3-0.3-4.3-0.9c-1.3-0.5-2.2-1.3-3.1-2.4c-0.9-1.1-1.3-2.1-1.4-3.4
			c-0.1-1.3-0.2-3.3-0.2-6.4v-5.5h10.3v-5c0-1-0.1-1.6-0.2-1.9c-0.1-0.3-0.5-0.5-1.3-0.5c-0.9,0-1.4,0.5-1.4,1.7v2.4h-7.4v-1.5
			c0-2.4,0.7-4.2,2.2-5.5c1.5-1.3,3.5-1.8,6.1-1.8c3.2,0,5.6,0.5,7.1,1.8c0.9,0.7,1.5,1.7,1.9,2.9v0.1c0.1,0.1,0.1,0.3,0.1,0.5
			l0.1,0.2C156.5,17.7,156.6,18.3,156.6,19.1z M148.7,36.3c0.1-0.4,0.2-1.5,0.2-3.3v-4.9h-2.5v5.1c0,1.7,0.1,2.8,0.2,3.2
			c0.1,0.4,0.5,0.5,1.1,0.5C148.3,36.9,148.6,36.7,148.7,36.3z"/>
	</g>
	<g>
		<path class="st0" d="M189.7,11.7v29.7H183v-20l-2.7,19.9h-4.7l-2.9-19.5v19.5h-6.7V11.7h10c0.3,1.7,0.5,3.9,0.9,6.3l1.2,7.5
			l1.7-13.8H189.7z"/>
		<path class="st0" d="M210.3,19c0.1,1.3,0.1,2.9,0.1,4.9V29c0,3-0.1,5.1-0.2,6.3c-0.1,1.2-0.5,2.5-1.3,3.4c-0.7,1.1-1.7,1.8-3,2.4
			s-2.7,0.9-4.4,0.9c-1.6,0-3-0.3-4.3-0.9s-2.2-1.3-3.1-2.4c-0.9-1.1-1.3-2.1-1.4-3.4s-0.2-3.3-0.2-6.4v-5.5h10.2v-5
			c0-1-0.1-1.6-0.2-1.9c-0.1-0.3-0.5-0.5-1.3-0.5c-0.9,0-1.4,0.5-1.4,1.7V20h-7.2v-1.5c0-2.4,0.7-4.2,2.2-5.5
			c1.5-1.3,3.5-1.8,6.1-1.8c3.2,0,5.6,0.5,7.1,1.8c0.9,0.7,1.5,1.7,1.9,2.9l0.1,0.1c0.1,0.1,0.1,0.3,0.1,0.5l0.1,0.2
			C210.3,17.7,210.3,18.3,210.3,19z M202.5,36.2c0.1-0.4,0.2-1.5,0.2-3.3V28h-2.5v5.1c0,1.7,0.1,2.8,0.2,3.2
			c0.1,0.3,0.5,0.5,1.1,0.5C202,36.9,202.4,36.7,202.5,36.2z"/>
		<path class="st0" d="M222.1,41.9v0.4c0.6,0,1.3,0.2,1.8,0.6c0.5,0.4,0.9,1.1,0.9,1.7c0,1-0.3,1.7-1.1,2.5
			c-0.7,0.7-1.7,1.1-2.7,1.1c-1.9,0-3.1-1-3.6-2.9h2.7c0.1,0.5,0.5,0.9,1,0.9c0.7,0,1.1-0.3,1.1-1.1c0-0.9-0.5-1.3-1.5-1.3H220v-1.9
			c-1.9-0.3-3.5-0.9-4.6-1.7s-1.7-1.9-2-3.1c-0.3-1.2-0.4-2.7-0.4-4.4v-2.1h7.2v3.5c0,1.1,0.1,1.8,0.3,2.1c0.2,0.3,0.5,0.5,1.1,0.5
			c1.1,0,1.5-0.9,1.5-2.5c0-1.7-0.2-2.9-0.7-3.4c-0.5-0.5-1.7-1.5-3.5-2.7c-1.8-1.2-3.2-2.1-3.9-2.8c-0.6-0.5-1.2-1.4-1.5-2.5
			c-0.4-1.1-0.5-2.4-0.5-3.9c0-2.2,0.3-4,0.9-4.9c0.5-1,1.5-1.9,2.8-2.5c1.3-0.5,2.9-0.9,4.7-0.9c1.9,0,3.7,0.3,5.1,1
			c1.4,0.6,2.4,1.5,2.8,2.5c0.4,1,0.6,2.7,0.6,4.9v1.2h-7.3v-2.1c0-1.1-0.1-1.7-0.3-1.9c-0.2-0.3-0.5-0.4-1-0.4
			c-1,0-1.4,0.7-1.4,2.2c0,1.1,0.1,1.7,0.3,2.2c0.3,0.5,1.1,1.1,2.1,1.8c3.4,2,5.6,3.7,6.5,4.9c0.9,1.3,1.3,3.4,1.3,6.3
			c0,1.9-0.2,3.4-0.6,4.5c-0.4,1-1.3,1.8-2.7,2.6C225.5,41.1,224,41.9,222.1,41.9z"/>
		<path class="st0" d="M250.3,41.3v3.5h-5.9c-1.4,0-2.5-0.1-3-0.3c-0.5-0.2-1-0.5-1.2-1s-0.3-1.2-0.3-2.2c-1.7-0.1-3.2-0.5-4.5-1.4
			c-1.3-0.9-2.1-1.9-2.5-3.3s-0.5-3.3-0.5-6v-9.2c0-2,0.1-3.5,0.3-4.6s0.7-2,1.5-3c0.7-1,1.7-1.6,2.9-2.1s2.5-0.7,3.9-0.7
			c1.7,0,3.2,0.3,4.6,0.9c1.3,0.5,2.4,1.3,3,2.2c0.6,0.9,1.1,1.8,1.3,2.8c0.2,1,0.3,2.5,0.3,4.3v9.6c0,2.7-0.1,4.4-0.3,5.4
			c-0.3,1-0.7,1.7-1.5,2.2c-0.7,0.5-1.7,1-2.9,1.3c0,0.6,0.1,1.1,0.4,1.3c0.2,0.1,0.9,0.3,1.7,0.3C247.5,41.3,250.3,41.3,250.3,41.3
			z M242.6,19.3c0-1.4-0.1-2.2-0.2-2.7s-0.4-0.5-1-0.5c-0.4,0-0.7,0.1-1,0.4c-0.2,0.3-0.3,1.3-0.3,2.8v13.8c0,1.7,0.1,2.8,0.2,3.2
			c0.1,0.3,0.4,0.5,1,0.5c0.5,0,0.9-0.2,1.1-0.7c0.1-0.5,0.2-1.5,0.2-3.3V19.3z"/>
		<path class="st0" d="M259.7,11.7h12.8v6h-5.1v5.7h4.8V29h-4.8v6.5h5.7v5.9h-13.4V11.7L259.7,11.7z"/>
		<path class="st0" d="M290.4,11.7v6h-4.6v23.7h-7.7V17.7h-4.5v-5.9h16.8V11.7z"/>
		<path class="st0" d="M300,11.7l-1.3,22.3H293l-1.2-22.3C291.9,11.7,300,11.7,300,11.7z M299.4,35.4v5.9h-7v-5.9H299.4z"/>
	</g>
</g>
</svg>
