<?xml version="1.0" encoding="utf-8"?>
<!-- Generator: Adobe Illustrator 19.2.1, SVG Export Plug-In . SVG Version: 6.00 Build 0)  -->
<svg version="1.1" id="Layer_1" xmlns="http://www.w3.org/2000/svg" xmlns:xlink="http://www.w3.org/1999/xlink" x="0px" y="0px"
	 width="300px" height="126px" viewBox="0 0 300 126" style="enable-background:new 0 0 300 126;" xml:space="preserve">
<style type="text/css">
	.st0{fill:#FCAF17;}
</style>
<g>
	<path class="st0" d="M31.8,59.3l-2.2,13.7c0,0.3-0.1,0.5-0.1,0.6c0,0.5,0.2,0.7,0.6,0.7c0.7,0,1.4-0.3,2.3-1c0.8-0.7,1.5-1.7,2.1-3
		c0.6-1.3,0.9-2.8,0.9-4.6c0-3-0.9-5.3-2.7-7.2c-1.8-1.8-4.1-2.7-7-2.7c-3.3,0-6.1,1.2-8.3,3.5c-2.2,2.3-3.3,5.4-3.3,9.2
		c0,3.7,1.1,6.7,3.2,8.8c2.1,2.2,4.8,3.3,8.1,3.3c1.6,0,3.2-0.3,4.6-0.8c1.5-0.5,2.8-1.4,4.1-2.4H38c-1.5,1.9-3.4,3.4-5.6,4.4
		c-2.2,1-4.5,1.5-6.8,1.5c-3.9,0-7.2-1.3-9.9-4c-2.7-2.7-4-6.2-4-10.5c0-4.3,1.2-8,3.7-11c2.5-3,5.9-4.5,10.3-4.5
		c2.6,0,4.8,0.5,6.4,1.5c1.7,1,3.1,2.4,4.2,4.2c1.1,1.8,1.7,4.1,1.7,6.7c0,3.6-1,6.3-3,8.4c-2,2-4,3.1-6,3.1c-1.5,0-2.4-0.7-2.7-2
		c-0.8,0.8-1.5,1.3-2,1.6s-1.3,0.4-2.1,0.4c-1.7,0-3.1-0.7-4.1-2c-1-1.3-1.6-3.1-1.6-5.4c0-2.9,0.7-5.5,2.2-7.7
		c1.5-2.3,3.2-3.4,5.3-3.4c0.8,0,1.6,0.2,2.3,0.6c0.7,0.4,1.3,1,1.8,1.9l0.3-2H31.8z M20.3,70.9c0,1.1,0.2,2,0.7,2.8
		c0.5,0.8,1.1,1.1,1.9,1.1c0.8,0,1.4-0.3,2-0.9c0.6-0.6,1.1-1.8,1.6-3.6c0.5-1.8,0.7-3.6,0.7-5.2c0-1-0.2-1.9-0.7-2.5
		c-0.4-0.6-1-1-1.8-1c-1.4,0-2.5,1-3.3,3C20.6,66.5,20.3,68.6,20.3,70.9z"/>
	<path class="st0" d="M55.6,62.4h-6.8v-2.1c0-1-0.1-1.6-0.3-1.9c-0.2-0.3-0.5-0.4-0.9-0.4c-0.4,0-0.8,0.2-1,0.5s-0.3,0.9-0.3,1.6
		c0,0.9,0.1,1.6,0.4,2.1c0.2,0.5,0.9,1,2.1,1.7c3.3,1.9,5.3,3.5,6.1,4.8s1.3,3.2,1.3,6c0,2-0.2,3.5-0.7,4.4
		c-0.5,0.9-1.4,1.7-2.7,2.4c-1.3,0.6-2.9,1-4.7,1c-2,0-3.6-0.4-5-1.1c-1.4-0.7-2.3-1.7-2.7-2.8c-0.4-1.1-0.6-2.8-0.6-4.9V72h6.8v3.4
		c0,1.1,0.1,1.7,0.3,2s0.5,0.5,1,0.5s0.8-0.2,1.1-0.6s0.4-0.9,0.4-1.7c0-1.7-0.2-2.7-0.7-3.2c-0.5-0.5-1.6-1.4-3.4-2.6
		c-1.8-1.2-3-2.1-3.6-2.6c-0.6-0.5-1.1-1.3-1.5-2.3c-0.4-1-0.6-2.2-0.6-3.7c0-2.2,0.3-3.7,0.8-4.7c0.5-1,1.4-1.8,2.7-2.3
		c1.2-0.6,2.7-0.8,4.4-0.8c1.9,0,3.5,0.3,4.9,0.9c1.3,0.6,2.2,1.4,2.7,2.3c0.4,0.9,0.7,2.5,0.7,4.7V62.4z"/>
	<path class="st0" d="M74.8,53.9V82h-6.4l-3.8-12.8V82h-6.1V53.9h6.1l4.1,12.7V53.9H74.8z"/>
	<path class="st0" d="M85.1,53.9V82h-7.3V53.9H85.1z"/>
	<path class="st0" d="M105.1,66.2h-7.3v-4.9c0-1.4-0.1-2.3-0.2-2.7s-0.5-0.5-1-0.5c-0.6,0-1,0.2-1.1,0.6c-0.2,0.4-0.2,1.4-0.2,2.8
		v13.1c0,1.4,0.1,2.3,0.2,2.7c0.2,0.4,0.5,0.6,1.1,0.6c0.5,0,0.9-0.2,1.1-0.6c0.2-0.4,0.3-1.4,0.3-2.9v-3.5h7.3v1.1
		c0,2.9-0.2,5-0.6,6.2c-0.4,1.2-1.3,2.3-2.7,3.2c-1.4,0.9-3.1,1.4-5.2,1.4c-2.1,0-3.9-0.4-5.3-1.2c-1.4-0.8-2.3-1.8-2.8-3.2
		s-0.7-3.4-0.7-6.2v-8.2c0-2,0.1-3.5,0.2-4.6c0.1-1,0.6-2,1.2-2.9c0.7-0.9,1.6-1.7,2.9-2.2s2.6-0.8,4.2-0.8c2.2,0,3.9,0.4,5.3,1.2
		s2.3,1.9,2.8,3.1c0.4,1.2,0.7,3.2,0.7,5.8V66.2z"/>
	<path class="st0" d="M125.1,53.9l-4.2,12.7l4.6,15.4h-7.5l-3-12v12h-7.3V53.9h7.3v10.9l3.3-10.9H125.1z"/>
	<path class="st0" d="M126.8,53.9h12.2v5.6h-4.9v5.3h4.6v5.3h-4.6v6.2h5.4V82h-12.7V53.9z"/>
	<path class="st0" d="M141.5,53.9h5.2c3.4,0,5.8,0.1,7,0.4c1.2,0.3,2.2,0.9,3,2c0.8,1.1,1.2,2.8,1.2,5.2c0,2.2-0.3,3.7-0.8,4.4
		s-1.6,1.2-3.2,1.4c1.4,0.4,2.4,0.8,2.9,1.4s0.8,1.2,0.9,1.7c0.1,0.5,0.2,1.9,0.2,4.2V82h-6.8v-9.3c0-1.5-0.1-2.4-0.4-2.8
		c-0.2-0.4-0.9-0.5-1.9-0.5V82h-7.3V53.9z M148.8,58.7V65c0.8,0,1.4-0.1,1.7-0.3s0.5-1,0.5-2.2v-1.5c0-0.9-0.2-1.5-0.5-1.8
		C150.3,58.9,149.7,58.7,148.8,58.7z"/>
	<path class="st0" d="M176.1,62.4h-6.8v-2.1c0-1-0.1-1.6-0.3-1.9c-0.2-0.3-0.5-0.4-0.9-0.4c-0.4,0-0.8,0.2-1,0.5s-0.3,0.9-0.3,1.6
		c0,0.9,0.1,1.6,0.4,2.1c0.2,0.5,0.9,1,2.1,1.7c3.3,1.9,5.3,3.5,6.1,4.8s1.3,3.2,1.3,6c0,2-0.2,3.5-0.7,4.4
		c-0.5,0.9-1.4,1.7-2.7,2.4c-1.3,0.6-2.9,1-4.7,1c-2,0-3.6-0.4-5-1.1c-1.4-0.7-2.3-1.7-2.7-2.8c-0.4-1.1-0.6-2.8-0.6-4.9V72h6.8v3.4
		c0,1.1,0.1,1.7,0.3,2c0.2,0.3,0.5,0.5,1,0.5s0.8-0.2,1.1-0.6c0.2-0.4,0.4-0.9,0.4-1.7c0-1.7-0.2-2.7-0.7-3.2
		c-0.5-0.5-1.6-1.4-3.4-2.6c-1.8-1.2-3-2.1-3.6-2.6c-0.6-0.5-1.1-1.3-1.5-2.3c-0.4-1-0.6-2.2-0.6-3.7c0-2.2,0.3-3.7,0.8-4.7
		c0.5-1,1.4-1.8,2.7-2.3c1.2-0.6,2.7-0.8,4.4-0.8c1.9,0,3.5,0.3,4.9,0.9c1.3,0.6,2.2,1.4,2.7,2.3c0.4,0.9,0.7,2.5,0.7,4.7V62.4z"/>
	<path class="st0" d="M177.4,84.7h20v1.8h-20V84.7z"/>
	<path class="st0" d="M215.3,53.9v18.8c0,2.1-0.1,3.6-0.2,4.5s-0.5,1.7-1.2,2.7c-0.7,0.9-1.6,1.6-2.7,2.1s-2.4,0.7-3.9,0.7
		c-1.7,0-3.2-0.3-4.4-0.8c-1.3-0.6-2.2-1.3-2.9-2.2c-0.6-0.9-1-1.8-1.1-2.8c-0.1-1-0.2-3.1-0.2-6.2V53.9h7.3V75c0,1.2,0.1,2,0.2,2.4
		c0.1,0.3,0.4,0.5,0.8,0.5c0.5,0,0.8-0.2,0.9-0.6c0.1-0.4,0.2-1.3,0.2-2.7V53.9H215.3z"/>
	<path class="st0" d="M230.3,53.9v5.6l-5.4,16.9h5.4V82h-13.5v-4.1l5.6-18.4h-5v-5.6H230.3z"/>
	<path class="st0" d="M232.2,53.9h7.3c2.3,0,4,0.2,5.2,0.5c1.2,0.4,2.1,1.1,2.9,2.2c0.7,1.1,1.1,2.9,1.1,5.3c0,1.6-0.3,2.8-0.8,3.4
		s-1.5,1.1-3,1.5c1.7,0.4,2.8,1,3.4,1.9s0.9,2.2,0.9,4.1v2.6c0,1.9-0.2,3.3-0.7,4.2s-1.1,1.5-2.1,1.9c-0.9,0.3-2.9,0.5-5.8,0.5h-8.5
		V53.9z M239.5,58.7V65c0.3,0,0.6,0,0.7,0c0.7,0,1.2-0.2,1.4-0.5c0.2-0.4,0.3-1.4,0.3-3c0-0.9-0.1-1.5-0.2-1.8
		c-0.2-0.4-0.4-0.6-0.6-0.7C240.8,58.8,240.3,58.7,239.5,58.7z M239.5,69.4v7.9c1,0,1.7-0.2,2-0.5s0.4-1,0.4-2.1V72
		c0-1.2-0.1-1.9-0.4-2.2C241.3,69.5,240.6,69.4,239.5,69.4z"/>
	<path class="st0" d="M268.5,70.4c0,2.8-0.1,4.8-0.2,6c-0.1,1.2-0.5,2.2-1.3,3.2c-0.7,1-1.6,1.7-2.8,2.2s-2.6,0.8-4.2,0.8
		c-1.5,0-2.9-0.2-4.1-0.7c-1.2-0.5-2.2-1.2-2.9-2.2c-0.7-1-1.2-2.1-1.3-3.2c-0.1-1.2-0.2-3.2-0.2-6.1v-4.8c0-2.8,0.1-4.8,0.2-6
		s0.5-2.2,1.2-3.2c0.7-1,1.6-1.7,2.8-2.2s2.6-0.8,4.2-0.8c1.5,0,2.9,0.2,4.1,0.7c1.2,0.5,2.2,1.2,2.9,2.2c0.7,1,1.2,2.1,1.3,3.2
		s0.2,3.2,0.2,6.1V70.4z M261.2,61.1c0-1.3-0.1-2.1-0.2-2.5c-0.1-0.4-0.4-0.5-0.9-0.5c-0.4,0-0.7,0.1-0.9,0.4s-0.3,1.2-0.3,2.6v13.1
		c0,1.6,0.1,2.6,0.2,3s0.4,0.6,0.9,0.6c0.5,0,0.8-0.2,1-0.7c0.1-0.4,0.2-1.5,0.2-3.1V61.1z"/>
	<path class="st0" d="M286,53.9v5.6h-4.3V82h-7.3V59.5H270v-5.6H286z"/>
</g>
</svg>
