<?xml version="1.0" encoding="utf-8"?>
<!-- Generator: Adobe Illustrator 19.2.1, SVG Export Plug-In . SVG Version: 6.00 Build 0)  -->
<svg version="1.1" id="Layer_1" xmlns="http://www.w3.org/2000/svg" xmlns:xlink="http://www.w3.org/1999/xlink" x="0px" y="0px"
	 width="300px" height="600px" viewBox="0 0 300 600" style="enable-background:new 0 0 300 600;" xml:space="preserve">
<style type="text/css">
	.st0{fill:#FFFFFF;}
</style>
<g>
	<path class="st0" d="M36.6,106.4h-7.2v-22h-2.1v22H20V78.8h16.5v27.6H36.6z"/>
	<path class="st0" d="M39.7,78.9h7.2c1.9,0,3.4,0.2,4.5,0.5c1,0.3,1.8,0.7,2.3,1.3c0.5,0.6,0.9,1.3,1.1,2.1c0.2,0.8,0.3,2.1,0.3,3.8
		v2.4c0,1.7-0.2,3-0.5,3.8c-0.4,0.8-1,1.4-2,1.8c-1,0.4-2.2,0.6-3.8,0.6h-1.9v11.1h-7.2C39.7,106.5,39.7,78.9,39.7,78.9z M46.9,83.5
		v7c0.2,0,0.4,0,0.5,0c0.7,0,1.1-0.2,1.4-0.5c0.3-0.3,0.4-1,0.4-2v-2.2c0-0.9-0.1-1.5-0.4-1.8C48.5,83.7,47.9,83.5,46.9,83.5z"/>
	<path class="st0" d="M74,94.9c0,2.7-0.1,4.7-0.2,5.9c-0.1,1.1-0.5,2.2-1.2,3.1c-0.7,0.9-1.6,1.7-2.8,2.2c-1.2,0.5-2.5,0.8-4,0.8
		c-1.5,0-2.8-0.2-3.9-0.7c-1.2-0.5-2.1-1.2-2.8-2.1c-0.7-1-1.1-2-1.3-3.1c-0.2-1.1-0.2-3.1-0.2-6v-4.7c0-2.7,0.1-4.7,0.2-5.9
		s0.5-2.2,1.2-3.1c0.7-0.9,1.6-1.7,2.8-2.2c1.2-0.5,2.5-0.8,4-0.8c1.5,0,2.8,0.2,3.9,0.7c1.2,0.5,2.1,1.2,2.8,2.1
		c0.7,1,1.1,2,1.3,3.1s0.2,3.1,0.2,6C74,90.2,74,94.9,74,94.9z M66.8,86c0-1.3-0.1-2.1-0.2-2.4c-0.1-0.4-0.4-0.5-0.9-0.5
		c-0.4,0-0.7,0.1-0.9,0.4c-0.2,0.3-0.3,1.1-0.3,2.5v12.8c0,1.6,0.1,2.6,0.2,2.9c0.1,0.4,0.4,0.6,0.9,0.6s0.8-0.2,0.9-0.6
		c0.1-0.4,0.2-1.4,0.2-3V86H66.8z"/>
	<path class="st0" d="M77,78.9h7.2v11.6c1.3,0,2-0.8,2.1-2.2l0.1-5.4c0-2,0.4-3.3,1.1-4h6.7c-0.6,0.7-1,2-0.9,4.1v4.7
		c0,2.8-1.6,4.4-4.9,4.9c3.2,0.4,4.9,2,4.9,5v4.3c0,2.1,0.3,3.5,0.9,4.4h-6.7c-0.8-0.7-1.1-2-1.1-4V97c0-0.7-0.2-1.2-0.6-1.6
		c-0.4-0.4-0.9-0.6-1.6-0.6v11.7H77V78.9z"/>
	<path class="st0" d="M108.4,78.9l4.1,27.6h-7.3l-0.4-5h-2.5l-0.5,4.9h-7.4l3.6-27.6h10.3V78.9z M104.6,96.6
		c-0.4-3.1-0.7-7-1.1-11.6c-0.7,5.3-1.2,9.1-1.4,11.6H104.6z"/>
	<path class="st0" d="M123.9,95.9c-0.6,0.6-1.3,1.1-2.2,1.5c-0.9,0.4-1.9,0.5-2.8,0.5c-1.7,0-2.9-0.5-3.7-1.4
		c-0.8-0.9-1.2-2.4-1.2-4.4V78.9h7.2v12.3c0,1.1,0.1,1.8,0.3,2.2c0.2,0.4,0.5,0.6,0.9,0.6c1.1,0,1.6-0.9,1.6-2.7V78.9h7.2v27.5h-7.2
		C123.9,106.4,123.9,95.9,123.9,95.9z"/>
	<path class="st0" d="M146.6,78.9l4.1,27.6h-7.3l-0.4-5h-2.5l-0.4,5h-7.4l3.6-27.6H146.6z M142.9,96.6c-0.4-3.1-0.7-7-1.1-11.6
		c-0.7,5.3-1.2,9.1-1.4,11.6H142.9z"/>
	<path class="st0" d="M168.3,106.4h-6V93.8l-3.7,12.5h-6.3V78.8h6v12.4l4-12.4h6L168.3,106.4L168.3,106.4z M162.3,72.8h2.9
		c-0.1,1.5-0.5,2.8-1.3,3.7c-0.8,0.9-2,1.4-3.4,1.4c-1.5,0-2.6-0.5-3.4-1.4c-0.8-0.9-1.3-2.2-1.3-3.7h2.9c0.1,1.5,0.8,2.3,1.9,2.3
		C161.5,75.1,162.1,74.4,162.3,72.8z"/>
	<path class="st0" d="M200.2,78.9v27.5h-6.3V87.8l-2.5,18.6h-4.4l-2.6-18.2v18.2H178V78.8h9.3c0.3,1.6,0.6,3.6,0.8,5.9l1,7l1.6-12.8
		h9.4V78.9z"/>
	<path class="st0" d="M219.8,94.9c0,2.7-0.1,4.7-0.2,5.9c-0.1,1.1-0.5,2.2-1.2,3.1c-0.7,0.9-1.6,1.7-2.8,2.2c-1.2,0.5-2.5,0.8-4,0.8
		c-1.5,0-2.8-0.2-3.9-0.7c-1.2-0.5-2.1-1.2-2.8-2.1c-0.7-1-1.1-2-1.3-3.1c-0.2-1.1-0.2-3.1-0.2-6v-4.7c0-2.7,0.1-4.7,0.2-5.9
		c0.1-1.1,0.5-2.2,1.2-3.1c0.7-0.9,1.6-1.7,2.8-2.2c1.2-0.5,2.5-0.8,4-0.8c1.5,0,2.8,0.2,3.9,0.7c1.2,0.5,2.1,1.2,2.8,2.1
		c0.7,1,1.1,2,1.3,3.1s0.2,3.1,0.2,6V94.9z M212.6,86c0-1.3-0.1-2.1-0.2-2.4c-0.1-0.4-0.4-0.5-0.9-0.5c-0.4,0-0.7,0.1-0.9,0.4
		c-0.2,0.3-0.3,1.1-0.3,2.5v12.8c0,1.6,0.1,2.6,0.2,2.9c0.1,0.4,0.4,0.6,0.9,0.6s0.8-0.2,0.9-0.6c0.1-0.4,0.2-1.4,0.2-3V86H212.6z"
		/>
	<path class="st0" d="M235.4,90.8c1,0.3,1.8,0.9,2.3,1.7s0.8,2.6,0.8,5.7c0,2.2-0.2,3.9-0.7,5.1c-0.5,1.2-1.3,2.1-2.6,2.7
		c-1.2,0.6-2.8,0.9-4.7,0.9c-2.2,0-3.8-0.4-5.2-1.1c-1.2-0.7-2-1.6-2.4-2.7c-0.4-1.1-0.6-2.9-0.6-5.6v-2.2h6.9v4.4
		c0,1.2,0.1,1.9,0.2,2.3c0.1,0.3,0.5,0.5,0.9,0.5c0.5,0,0.9-0.2,1-0.6c0.2-0.4,0.3-1.5,0.3-3.2v-1.9c0-1-0.1-1.8-0.4-2.3
		c-0.2-0.5-0.6-0.8-1-1c-0.5-0.2-1.4-0.2-2.7-0.3v-4c1.6,0,2.6-0.1,3-0.2c0.4-0.1,0.7-0.4,0.8-0.8c0.2-0.4,0.3-1.1,0.3-2v-1.5
		c0-1-0.1-1.6-0.3-1.9c-0.2-0.3-0.5-0.5-0.9-0.5c-0.5,0-0.8,0.2-1,0.5c-0.2,0.3-0.3,1-0.3,2v2.2h-6.9v-2.3c0-2.6,0.6-4.4,1.8-5.4
		s3.1-1.4,5.8-1.4c3.2,0,5.5,0.6,6.7,1.9c1.2,1.3,1.7,3,1.7,5.4c0,1.5-0.2,2.6-0.6,3.3C237.3,89.6,236.6,90.2,235.4,90.8z"/>
	<path class="st0" d="M254,84.3h-5.3v22h-7.2V78.8H254V84.3z"/>
	<path class="st0" d="M272.3,106.4h-6V93.8l-3.7,12.5h-6.3V78.8h6v12.4l4-12.4h6V106.4z"/>
	<path class="st0" d="M282.9,78.9l-1.1,20.7h-5.4l-1.1-20.7H282.9z M282.3,100.9v5.6h-6.5v-5.6H282.3z"/>
</g>
</svg>
