<?xml version="1.0" encoding="utf-8"?>
<!-- Generator: Adobe Illustrator 19.2.1, SVG Export Plug-In . SVG Version: 6.00 Build 0)  -->
<svg version="1.1" id="Layer_1" xmlns="http://www.w3.org/2000/svg" xmlns:xlink="http://www.w3.org/1999/xlink" x="0px" y="0px"
	 width="300px" height="52px" viewBox="0 0 300 52" style="enable-background:new 0 0 300 52;" xml:space="preserve">
<style type="text/css">
	.st0{fill:#FFFFFF;}
</style>
<g>
	<path class="st0" d="M36.2,11.4v21h-4.8l0-14.1l-1.9,14.1h-3.4l-2-13.8l0,13.8h-4.8v-21h7c0.2,1.3,0.4,2.7,0.6,4.5l0.8,5.3l1.3-9.8
		H36.2z"/>
	<path class="st0" d="M43.9,11.4v21h-5.4v-21H43.9z"/>
	<path class="st0" d="M57.7,11.4l-4,13.4v7.6h-5v-7.6l-3.8-13.4h5c0.8,4.1,1.2,6.8,1.3,8.3c0.3-2.2,0.8-5,1.5-8.3H57.7z"/>
	<path class="st0" d="M66.7,11.4l3.1,21h-5.6l-0.3-3.8H62l-0.3,3.8H56l2.8-21H66.7z M63.8,24.9c-0.3-2.4-0.6-5.3-0.8-8.8
		c-0.6,4-0.9,6.9-1,8.8H63.8z"/>
	<path class="st0" d="M82.9,11.4v21h-4.8l-2.8-9.5v9.5h-4.6v-21h4.6l3.1,9.4v-9.4H82.9z"/>
	<path class="st0" d="M97.6,19.1h-5.4v-1.9c0-1.2-0.1-2-0.2-2.3s-0.3-0.5-0.7-0.5c-0.3,0-0.6,0.1-0.7,0.4c-0.1,0.3-0.2,0.9-0.2,2
		v10.1c0,0.9,0.1,1.6,0.2,1.9c0.1,0.3,0.4,0.4,0.7,0.4c0.4,0,0.7-0.2,0.8-0.5c0.1-0.3,0.2-1,0.2-2v-2.5h-1.1v-3.2h6.4v11.2h-3.4
		l-0.5-1.5c-0.4,0.6-0.8,1.1-1.4,1.5c-0.6,0.3-1.2,0.5-2,0.5c-0.9,0-1.8-0.2-2.6-0.7c-0.8-0.4-1.4-1-1.8-1.6
		c-0.4-0.7-0.7-1.3-0.8-2.1s-0.2-1.8-0.2-3.2v-6.2c0-2,0.1-3.5,0.3-4.4c0.2-0.9,0.8-1.7,1.9-2.5c1-0.8,2.3-1.1,4-1.1
		c1.6,0,2.9,0.3,4,1c1.1,0.7,1.7,1.4,2.1,2.3c0.3,0.9,0.5,2.2,0.5,3.9V19.1z"/>
	<path class="st0" d="M111.9,11.4v21h-4.8l-2.8-9.5v9.5h-4.6v-21h4.6l3.1,9.4v-9.4H111.9z"/>
	<path class="st0" d="M119.5,11.4v21H114v-21H119.5z"/>
	<path class="st0" d="M130.8,11.4v4.2l-4.1,12.6h4.1v4.2h-10v-3l4.2-13.7h-3.7v-4.2H130.8z"/>
	<path class="st0" d="M144.4,11.4v21h-4.8l-2.8-9.5v9.5h-4.6v-21h4.6l3.1,9.4v-9.4H144.4z"/>
	<path class="st0" d="M152,11.4v21h-5.4v-21H152z"/>
	<path class="st0" d="M171.6,20.5h-5.4v-3.6c0-1.1-0.1-1.7-0.2-2c-0.1-0.3-0.4-0.4-0.8-0.4c-0.4,0-0.7,0.2-0.9,0.5
		c-0.1,0.3-0.2,1-0.2,2.1v9.7c0,1,0.1,1.7,0.2,2c0.1,0.3,0.4,0.5,0.8,0.5c0.4,0,0.7-0.2,0.8-0.5c0.1-0.3,0.2-1,0.2-2.2v-2.6h5.4v0.8
		c0,2.2-0.2,3.7-0.5,4.6s-1,1.7-2,2.4c-1,0.7-2.3,1-3.9,1c-1.6,0-2.9-0.3-3.9-0.9c-1-0.6-1.7-1.4-2.1-2.4c-0.3-1-0.5-2.6-0.5-4.6
		v-6.1c0-1.5,0.1-2.6,0.2-3.4c0.1-0.8,0.4-1.5,0.9-2.2c0.5-0.7,1.2-1.2,2.1-1.7s2-0.6,3.1-0.6c1.6,0,2.9,0.3,4,0.9s1.7,1.4,2.1,2.3
		c0.3,0.9,0.5,2.4,0.5,4.3V20.5z"/>
	<path class="st0" d="M186.1,11.4v21h-5.4v-8.8H179v8.8h-5.4v-21h5.4v7.5h1.6v-7.5H186.1z"/>
	<path class="st0" d="M197.7,11.4l3.1,21h-5.6l-0.3-3.8H193l-0.3,3.8H187l2.8-21H197.7z M194.8,24.9c-0.3-2.4-0.6-5.3-0.8-8.8
		c-0.6,4-0.9,6.9-1,8.8H194.8z"/>
	<path class="st0" d="M201.7,11.4h3.9c2.6,0,4.3,0.1,5.2,0.3c0.9,0.2,1.7,0.7,2.2,1.5c0.6,0.8,0.9,2.1,0.9,3.9
		c0,1.6-0.2,2.7-0.6,3.3s-1.2,0.9-2.4,1c1.1,0.3,1.8,0.6,2.2,1.1c0.4,0.4,0.6,0.9,0.7,1.2c0.1,0.4,0.1,1.4,0.1,3.1v5.5h-5.1v-7
		c0-1.1-0.1-1.8-0.3-2.1c-0.2-0.3-0.6-0.4-1.4-0.4v9.4h-5.4V11.4z M207.2,15v4.7c0.6,0,1-0.1,1.3-0.3c0.2-0.2,0.4-0.7,0.4-1.6v-1.2
		c0-0.7-0.1-1.1-0.4-1.3S207.8,15,207.2,15z"/>
	<path class="st0" d="M227,11.4l-1.9,9.3l2.9,11.7h-5c-0.6-2.1-1.2-4.6-1.7-7.6c-0.1,1.3-0.3,2.7-0.6,4.2l-0.5,3.4h-5.3l2-11.7
		l-2-9.3h5.3c0.1,0.6,0.3,1.5,0.6,2.9c0.2,1,0.4,2,0.6,2.8l1.2-5.7H227z"/>
	<path class="st0" d="M234.2,11.4v16.8h3.3v4.2h-8.8v-21H234.2z"/>
	<path class="st0" d="M248.9,11.4l3.1,21h-5.6l-0.3-3.8h-1.9l-0.3,3.8h-5.6l2.8-21H248.9z M246,24.9c-0.3-2.4-0.6-5.3-0.8-8.8
		c-0.6,4-0.9,6.9-1,8.8H246z"/>
	<path class="st0" d="M265.1,11.4v21h-4.8l-2.8-9.5v9.5H253v-21h4.6l3.1,9.4v-9.4H265.1z"/>
	<path class="st0" d="M279.8,19.1h-5.4v-1.9c0-1.2-0.1-2-0.2-2.3s-0.3-0.5-0.7-0.5c-0.3,0-0.6,0.1-0.7,0.4c-0.1,0.3-0.2,0.9-0.2,2
		v10.1c0,0.9,0.1,1.6,0.2,1.9c0.1,0.3,0.4,0.4,0.7,0.4c0.4,0,0.7-0.2,0.8-0.5c0.1-0.3,0.2-1,0.2-2v-2.5h-1.1v-3.2h6.4v11.2h-3.4
		l-0.5-1.5c-0.4,0.6-0.8,1.1-1.4,1.5c-0.6,0.3-1.2,0.5-2,0.5c-0.9,0-1.8-0.2-2.6-0.7c-0.8-0.4-1.4-1-1.8-1.6
		c-0.4-0.7-0.7-1.3-0.8-2.1s-0.2-1.8-0.2-3.2v-6.2c0-2,0.1-3.5,0.3-4.4c0.2-0.9,0.8-1.7,1.9-2.5c1-0.8,2.3-1.1,4-1.1
		c1.6,0,2.9,0.3,4,1c1.1,0.7,1.7,1.4,2.1,2.3s0.5,2.2,0.5,3.9V19.1z"/>
	<path class="st0" d="M287.5,11.4l-0.9,15.8h-4l-0.9-15.8H287.5z M287.1,28.1v4.2h-4.9v-4.2H287.1z"/>
</g>
</svg>
