<?xml version="1.0" encoding="utf-8"?>
<!-- Generator: Adobe Illustrator 25.0.1, SVG Export Plug-In . SVG Version: 6.00 Build 0)  -->
<svg version="1.1" id="Layer_1" xmlns="http://www.w3.org/2000/svg" xmlns:xlink="http://www.w3.org/1999/xlink" x="0px" y="0px"
	 viewBox="0 0 300 128" style="enable-background:new 0 0 300 128;" xml:space="preserve">
<style type="text/css">
	.st0{fill:#FFFFFF;}
</style>
<g>
	<path class="st0" d="M44.3,61.1H33.8V29h-3.1v32.1H20V20.9h24.1L44.3,61.1L44.3,61.1z"/>
	<path class="st0" d="M48.8,21h10.5c2.8,0,5,0.3,6.6,0.7c1.5,0.4,2.6,1,3.4,1.9c0.7,0.9,1.3,1.9,1.6,3.1c0.3,1.2,0.4,3.1,0.4,5.5
		v3.5c0,2.5-0.3,4.4-0.7,5.5c-0.6,1.2-1.5,2-2.9,2.6c-1.5,0.6-3.2,0.9-5.5,0.9h-2.8V61H48.8C48.8,61.3,48.8,21,48.8,21z M59.3,27.7
		v10.2c0.3,0,0.6,0,0.7,0c1,0,1.6-0.3,2-0.7s0.6-1.5,0.6-2.9v-3.2c0-1.3-0.1-2.2-0.6-2.6C61.6,28,60.7,27.7,59.3,27.7z"/>
	<path class="st0" d="M98.8,44.3c0,3.9-0.1,6.9-0.3,8.6c-0.1,1.6-0.7,3.2-1.7,4.5s-2.3,2.5-4.1,3.2c-1.7,0.7-3.6,1.2-5.8,1.2
		c-2.2,0-4.1-0.3-5.7-1c-1.7-0.7-3.1-1.7-4.1-3.1c-1-1.5-1.6-2.9-1.9-4.5s-0.3-4.5-0.3-8.7v-6.9c0-3.9,0.1-6.9,0.3-8.6
		c0.1-1.7,0.7-3.2,1.7-4.5s2.3-2.5,4.1-3.2c1.7-0.7,3.6-1.2,5.8-1.2c2.2,0,4.1,0.3,5.7,1c1.7,0.7,3.1,1.7,4.1,3.1
		c1,1.5,1.6,2.9,1.9,4.5s0.3,4.5,0.3,8.7C98.8,37.5,98.8,44.3,98.8,44.3z M88.3,31.4c0-1.9-0.1-3.1-0.3-3.5
		c-0.1-0.6-0.6-0.7-1.3-0.7c-0.6,0-1,0.1-1.3,0.6c-0.3,0.4-0.4,1.6-0.4,3.6V50c0,2.3,0.1,3.8,0.3,4.2c0.1,0.6,0.6,0.9,1.3,0.9
		s1.2-0.3,1.3-0.9c0.1-0.6,0.3-2,0.3-4.4V31.3h0.1V31.4z"/>
	<path class="st0" d="M103.2,21h10.5v16.9c1.9,0,2.9-1.2,3.1-3.2l0.1-7.9c0-2.9,0.6-4.8,1.6-5.8h9.8c-0.9,1-1.5,2.9-1.3,6v6.9
		c0,4.1-2.3,6.4-7.1,7.1c4.7,0.6,7.1,2.9,7.1,7.3v6.3c0,3.1,0.4,5.1,1.3,6.4h-9.8c-1.2-1-1.6-2.9-1.6-5.8v-7.7c0-1-0.3-1.7-0.9-2.3
		s-1.3-0.9-2.3-0.9v17.1h-10.5L103.2,21L103.2,21z"/>
	<path class="st0" d="M149,21l6,40.2h-10.6l-0.6-7.3h-3.6l-0.7,7.1h-10.8l5.2-40.2h15V21H149z M143.4,46.8c-0.6-4.5-1-10.2-1.6-16.9
		c-1,7.7-1.7,13.3-2,16.9H143.4z"/>
	<path class="st0" d="M171.6,45.8c-0.9,0.9-1.9,1.6-3.2,2.2s-2.8,0.7-4.1,0.7c-2.5,0-4.2-0.7-5.4-2s-1.7-3.5-1.7-6.4V21h10.5v17.9
		c0,1.6,0.1,2.6,0.4,3.2c0.3,0.6,0.7,0.9,1.3,0.9c1.6,0,2.3-1.3,2.3-3.9V21h10.5v40.1h-10.5C171.6,61.1,171.6,45.8,171.6,45.8z"/>
	<path class="st0" d="M204.7,21l6,40.2H200l-0.6-7.3h-3.6l-0.6,7.3h-10.8l5.2-40.2H204.7z M199.3,46.8c-0.6-4.5-1-10.2-1.6-16.9
		c-1,7.7-1.7,13.3-2,16.9H199.3z"/>
	<path class="st0" d="M236.3,61.1h-8.7V42.7l-5.4,18.2H213v-40h8.7V39l5.8-18.1h8.7v40.2H236.3z M227.6,12.1h4.2
		c-0.1,2.2-0.7,4.1-1.9,5.4s-2.9,2-5,2c-2.2,0-3.8-0.7-5-2s-1.9-3.2-1.9-5.4h4.2c0.1,2.2,1.2,3.4,2.8,3.4
		C226.4,15.5,227.3,14.4,227.6,12.1z"/>
	<path class="st0" d="M52.4,71.7v40.1h-9.2V84.7l-3.6,27.1h-6.4l-3.8-26.5v26.5H20V71.6h13.6c0.4,2.3,0.9,5.2,1.2,8.6l1.5,10.2
		l2.3-18.7H52.4L52.4,71.7L52.4,71.7z"/>
	<path class="st0" d="M81,95c0,3.9-0.1,6.9-0.3,8.6c-0.1,1.6-0.7,3.2-1.7,4.5s-2.3,2.5-4.1,3.2c-1.7,0.7-3.6,1.2-5.8,1.2
		c-2.2,0-4.1-0.3-5.7-1c-1.7-0.7-3.1-1.7-4.1-3.1c-1-1.5-1.6-2.9-1.9-4.5c-0.3-1.6-0.3-4.5-0.3-8.7v-6.9c0-3.9,0.1-6.9,0.3-8.6
		c0.1-1.6,0.7-3.2,1.7-4.5s2.3-2.5,4.1-3.2c1.7-0.7,3.6-1.2,5.8-1.2c2.2,0,4.1,0.3,5.7,1c1.7,0.7,3.1,1.7,4.1,3.1
		c1,1.5,1.6,2.9,1.9,4.5s0.3,4.5,0.3,8.7V95z M70.5,82.1c0-1.9-0.1-3.1-0.3-3.5c-0.1-0.6-0.6-0.7-1.3-0.7c-0.6,0-1,0.1-1.3,0.6
		c-0.3,0.4-0.4,1.6-0.4,3.6v18.7c0,2.3,0.1,3.8,0.3,4.2c0.1,0.6,0.6,0.9,1.3,0.9s1.2-0.3,1.3-0.9c0.1-0.6,0.3-2,0.3-4.4L70.5,82.1
		L70.5,82.1L70.5,82.1z"/>
	<path class="st0" d="M103.8,89.1c1.5,0.4,2.6,1.3,3.4,2.5s1.2,3.8,1.2,8.3c0,3.2-0.3,5.7-1,7.4s-1.9,3.1-3.8,3.9
		c-1.7,0.9-4.1,1.3-6.9,1.3c-3.2,0-5.5-0.6-7.6-1.6c-1.7-1-2.9-2.3-3.5-3.9s-0.9-4.2-0.9-8.2v-3.2h10.1v6.4c0,1.7,0.1,2.8,0.3,3.4
		c0.1,0.4,0.7,0.7,1.3,0.7c0.7,0,1.3-0.3,1.5-0.9c0.3-0.6,0.4-2.2,0.4-4.7v-2.8c0-1.5-0.1-2.6-0.6-3.4c-0.3-0.7-0.9-1.2-1.5-1.5
		c-0.7-0.3-2-0.3-3.9-0.4v-5.8c2.3,0,3.8-0.1,4.4-0.3c0.6-0.1,1-0.6,1.2-1.2c0.3-0.6,0.4-1.6,0.4-2.9V80c0-1.5-0.1-2.3-0.4-2.8
		c-0.3-0.4-0.7-0.7-1.3-0.7c-0.7,0-1.2,0.3-1.5,0.7s-0.4,1.5-0.4,2.9v3.2H84.5v-3.4c0-3.8,0.9-6.4,2.6-7.9s4.5-2,8.5-2
		c4.7,0,8,0.9,9.8,2.8c1.7,1.9,2.5,4.4,2.5,7.9c0,2.2-0.3,3.8-0.9,4.8C106.5,87.3,105.5,88.2,103.8,89.1z"/>
	<path class="st0" d="M130.9,79.6h-7.7v32.1h-10.5V71.6h18.2V79.6z"/>
	<path class="st0" d="M157.6,111.8h-8.7V93.4l-5.4,18.2h-9.2V71.5h8.7v18.1l5.8-18.1h8.7L157.6,111.8L157.6,111.8z"/>
	<path class="st0" d="M173,71.7l-1.6,30.2h-7.9l-1.6-30.2H173z M172.1,103.8v8.2h-9.5v-8.2H172.1z"/>
</g>
</svg>
