<?xml version="1.0" encoding="utf-8"?>
<!-- Generator: Adobe Illustrator 25.0.1, SVG Export Plug-In . SVG Version: 6.00 Build 0)  -->
<svg version="1.1" id="Layer_1" xmlns="http://www.w3.org/2000/svg" xmlns:xlink="http://www.w3.org/1999/xlink" x="0px" y="0px"
	 viewBox="0 0 300 73.7" style="enable-background:new 0 0 300 73.7;" xml:space="preserve">
<style type="text/css">
	.st0{fill:#FAAE19;}
</style>
<g>
	<path class="st0" d="M44.5,35.6H34v-6.9c0-2-0.1-3.2-0.3-3.8c-0.2-0.3-0.7-0.6-1.4-0.6c-0.9,0-1.5,0.3-1.6,0.9s-0.3,1.9-0.3,3.9
		v18.7c0,1.9,0.1,3.2,0.3,3.8s0.7,0.9,1.6,0.9c0.7,0,1.3-0.3,1.5-0.9c0.3-0.6,0.3-2,0.3-4.2v-5h10.5V44c0,4.1-0.3,7.1-0.9,8.9
		c-0.6,1.7-1.9,3.2-3.8,4.5c-2,1.3-4.4,1.9-7.4,1.9s-5.5-0.6-7.6-1.6c-1.9-1.2-3.2-2.6-3.9-4.5c-0.6-1.9-1-4.8-1-8.9V32.4
		c0-2.9,0.1-5,0.3-6.4c0.1-1.5,0.7-2.8,1.7-4.1s2.3-2.3,4.1-3.1c1.7-0.7,3.6-1.2,6-1.2c3.1,0,5.5,0.6,7.7,1.7c2,1.2,3.4,2.6,3.9,4.4
		c0.6,1.7,0.9,4.5,0.9,8.3v3.6l0,0l0,0H44.5z"/>
	<path class="st0" d="M72.8,18.1v40.2H62.3V41.5h-3.1v16.9H48.8V18.1h10.5v14.4h3.1V18.1C62.3,18.1,72.8,18.1,72.8,18.1z"/>
	<path class="st0" d="M100.8,58.4h-8.7V40.2l-5.4,18.2h-9.2V18.1h8.7v18.1L92,18.1h8.7C100.8,18.1,100.8,58.4,100.8,58.4z"/>
	<path class="st0" d="M105.5,18.1H116V35c1.9,0,2.9-1.2,3.1-3.2l0.1-7.9c0-2.9,0.6-4.8,1.6-5.8h9.8c-0.9,1-1.5,2.9-1.3,6V31
		c0,4.1-2.3,6.4-7.1,7.1c4.7,0.6,7.1,2.9,7.1,7.3v6.3c0,3.1,0.4,5.1,1.3,6.4h-9.8c-1.2-1-1.6-2.9-1.6-5.8v-7.9c0-1-0.3-1.7-0.9-2.3
		s-1.3-0.9-2.3-0.9v17.1h-10.5L105.5,18.1L105.5,18.1z"/>
	<path class="st0" d="M133.2,18.1h17.4v8.2h-6.9V34h6.4v7.7h-6.4v8.9h7.7v8.2h-18.2V18.1z"/>
	<path class="st0" d="M154.9,18.1h10.5c2.8,0,5,0.3,6.6,0.7c1.5,0.4,2.6,1,3.4,1.9c0.7,0.9,1.3,1.9,1.6,3.1s0.4,3.1,0.4,5.5v3.5
		c0,2.5-0.3,4.4-0.7,5.5c-0.6,1.2-1.5,2-2.9,2.6c-1.5,0.6-3.2,0.9-5.5,0.9h-2.8V58H155V18.1H154.9z M165.3,25.1v10.2
		c0.3,0,0.6,0,0.7,0c1,0,1.6-0.3,2-0.7s0.6-1.5,0.6-2.9v-3.2c0-1.3-0.1-2.2-0.6-2.6S166.6,25.1,165.3,25.1z"/>
	<path class="st0" d="M205.4,35.6h-10.5v-6.9c0-2-0.1-3.2-0.3-3.8c-0.3-0.4-0.7-0.7-1.5-0.7c-0.9,0-1.5,0.3-1.6,0.9
		s-0.3,1.9-0.3,3.9v18.7c0,1.9,0.1,3.2,0.3,3.8c0.1,0.6,0.7,0.9,1.6,0.9c0.7,0,1.3-0.3,1.5-0.9c0.3-0.6,0.3-2,0.3-4.2v-5h10.5v1.6
		c0,4.1-0.3,7.1-0.9,8.9s-1.9,3.2-3.8,4.5c-2,1.3-4.4,1.9-7.4,1.9c-3.1,0-5.5-0.6-7.6-1.6c-1.9-1.2-3.2-2.6-3.9-4.5
		c-0.6-1.9-1-4.8-1-8.9V32.4c0-2.9,0.1-5,0.3-6.4c0.1-1.5,0.7-2.8,1.7-4.1s2.3-2.3,4.1-3.1c1.7-0.7,3.6-1.2,6-1.2
		c3.1,0,5.5,0.6,7.7,1.7c2,1.2,3.4,2.6,3.9,4.4c0.6,1.7,0.9,4.5,0.9,8.3V35.6L205.4,35.6L205.4,35.6z"/>
	<path class="st0" d="M233.7,18.1v40.2h-10.5V41.5h-3.1v16.9h-10.5V18.1h10.5v14.4h3.1V18.1H233.7z"/>
	<path class="st0" d="M261.7,58.4H253V40.2l-5.4,18.2h-9.2V18.1h8.7v18.1l5.8-18.1h8.7L261.7,58.4L261.7,58.4z"/>
	<path class="st0" d="M277,18.1l-1.6,30.2h-7.9l-1.6-30.2C265.9,18.1,277,18.1,277,18.1z M276.3,50.2v8.2h-9.5v-8.2H276.3z"/>
</g>
</svg>
