<?xml version="1.0" encoding="utf-8"?>
<!-- Generator: Adobe Illustrator 19.2.1, SVG Export Plug-In . SVG Version: 6.00 Build 0)  -->
<svg version="1.1" id="Layer_1" xmlns="http://www.w3.org/2000/svg" xmlns:xlink="http://www.w3.org/1999/xlink" x="0px" y="0px"
	 width="300px" height="40px" viewBox="0 0 300 40" style="enable-background:new 0 0 300 40;" xml:space="preserve">
<style type="text/css">
	.st0{fill:#FFFFFF;}
</style>
<g>
	<path class="st0" d="M4,10.5h6.1c1.9,0,3.4,0.2,4.4,0.5c1,0.3,1.8,0.9,2.4,1.8s0.9,2.4,0.9,4.4c0,1.4-0.2,2.3-0.6,2.9
		c-0.4,0.5-1.3,1-2.6,1.3c1.4,0.3,2.4,0.9,2.9,1.6c0.5,0.7,0.8,1.9,0.8,3.4v2.2c0,1.6-0.2,2.8-0.5,3.5s-0.9,1.3-1.7,1.6
		c-0.8,0.3-2.4,0.4-4.9,0.4H4V10.5z M10.1,14.5v5.2c0.3,0,0.5,0,0.6,0c0.6,0,1-0.1,1.2-0.4c0.2-0.3,0.2-1.1,0.2-2.5
		c0-0.7-0.1-1.3-0.2-1.6c-0.1-0.3-0.3-0.5-0.5-0.6C11.2,14.6,10.8,14.5,10.1,14.5z M10.1,23.4V30c0.9,0,1.4-0.2,1.7-0.4
		c0.2-0.2,0.4-0.8,0.4-1.8v-2.2c0-1-0.1-1.6-0.3-1.8C11.6,23.6,11,23.5,10.1,23.4z"/>
	<path class="st0" d="M35.1,28.5c0,1.8-0.2,3-0.7,3.8c-0.5,0.8-1.1,1.2-2.1,1.4c-0.9,0.2-2.4,0.3-4.4,0.3h-7.1V10.5h6.2v8.1h0.9
		c1.9,0,3.3,0.1,4.3,0.3c1,0.2,1.7,0.7,2.2,1.5c0.5,0.8,0.7,2,0.7,3.6V28.5z M28.9,27.8v-3.4c0-1-0.1-1.6-0.3-1.8
		c-0.2-0.2-0.8-0.3-1.7-0.4V30c0.8,0,1.3-0.1,1.6-0.3C28.8,29.5,28.9,28.9,28.9,27.8z M43.3,34.1h-6.2V10.5h6.2V34.1z"/>
	<path class="st0" d="M59.6,34.1h-5.1V23.3l-3.2,10.7h-5.4V10.5H51v10.7l3.4-10.7h5.1V34.1z"/>
	<path class="st0" d="M73,15.2h-4.5v18.9h-6.2V10.5H73V15.2z"/>
	<path class="st0" d="M74.9,10.5h6.2c1.7,0,3,0.1,3.9,0.4c0.9,0.3,1.6,0.6,2,1.1c0.5,0.5,0.8,1.1,0.9,1.8c0.2,0.7,0.2,1.8,0.2,3.3
		v2.1c0,1.5-0.2,2.6-0.5,3.3c-0.3,0.7-0.9,1.2-1.7,1.6c-0.8,0.4-1.9,0.6-3.3,0.6h-1.6v9.5h-6.1V10.5z M81.1,14.5v6
		c0.2,0,0.3,0,0.5,0c0.6,0,1-0.1,1.2-0.4c0.2-0.3,0.3-0.9,0.3-1.7v-1.9c0-0.8-0.1-1.3-0.4-1.6C82.4,14.6,81.9,14.5,81.1,14.5z"/>
	<path class="st0" d="M104.5,28.5c0,1.8-0.2,3-0.7,3.8c-0.5,0.8-1.1,1.2-2.1,1.4c-0.9,0.2-2.4,0.3-4.4,0.3h-7.1V10.5h6.2v8.1h0.9
		c1.9,0,3.3,0.1,4.3,0.3c1,0.2,1.7,0.7,2.2,1.5c0.5,0.8,0.7,2,0.7,3.6V28.5z M98.4,27.8v-3.4c0-1-0.1-1.6-0.3-1.8
		c-0.2-0.2-0.8-0.3-1.7-0.4V30c0.8,0,1.3-0.1,1.6-0.3C98.2,29.5,98.4,28.9,98.4,27.8z M112.8,34.1h-6.2V10.5h6.2V34.1z"/>
	<path class="st0" d="M115.3,10.5h6.1c1.9,0,3.4,0.2,4.4,0.5c1,0.3,1.8,0.9,2.4,1.8c0.6,0.9,0.9,2.4,0.9,4.4c0,1.4-0.2,2.3-0.6,2.9
		c-0.4,0.5-1.3,1-2.6,1.3c1.4,0.3,2.4,0.9,2.9,1.6c0.5,0.7,0.8,1.9,0.8,3.4v2.2c0,1.6-0.2,2.8-0.5,3.5c-0.4,0.8-0.9,1.3-1.7,1.6
		c-0.8,0.3-2.4,0.4-4.9,0.4h-7.1V10.5z M121.5,14.5v5.2c0.3,0,0.5,0,0.6,0c0.6,0,1-0.1,1.2-0.4c0.2-0.3,0.2-1.1,0.2-2.5
		c0-0.7-0.1-1.3-0.2-1.6c-0.1-0.3-0.3-0.5-0.5-0.6C122.5,14.6,122.1,14.5,121.5,14.5z M121.5,23.4V30c0.9,0,1.4-0.2,1.7-0.4
		c0.2-0.2,0.4-0.8,0.4-1.8v-2.2c0-1-0.1-1.6-0.3-1.8C122.9,23.6,122.4,23.5,121.5,23.4z"/>
	<path class="st0" d="M142.7,10.5l3.5,23.6H140l-0.3-4.2h-2.2l-0.4,4.2h-6.3l3.1-23.6H142.7z M139.5,25.6c-0.3-2.7-0.6-6-0.9-9.9
		c-0.6,4.5-1,7.8-1.2,9.9H139.5z"/>
	<path class="st0" d="M161.3,34.1h-5.1V23.3L153,34.1h-5.4V10.5h5.1v10.7l3.4-10.7h5.1V34.1z M156.1,5.3h2.5
		c-0.1,1.3-0.4,2.4-1.2,3.2c-0.7,0.8-1.7,1.2-3,1.2c-1.3,0-2.3-0.4-3-1.2c-0.7-0.8-1.1-1.9-1.1-3.2h2.5c0.1,1.3,0.7,2,1.6,2
		C155.4,7.3,155.9,6.7,156.1,5.3z"/>
	<path class="st0" d="M183.7,34.1h-6.2V15.2h-1.8v18.9h-6.2V10.5h14.1V34.1z"/>
	<path class="st0" d="M186.5,10.5h6.2c1.7,0,3,0.1,3.9,0.4c0.9,0.3,1.6,0.6,2,1.1c0.5,0.5,0.8,1.1,0.9,1.8c0.2,0.7,0.2,1.8,0.2,3.3
		v2.1c0,1.5-0.2,2.6-0.5,3.3c-0.3,0.7-0.9,1.2-1.7,1.6c-0.8,0.4-1.9,0.6-3.3,0.6h-1.6v9.5h-6.1V10.5z M192.6,14.5v6
		c0.2,0,0.3,0,0.5,0c0.6,0,1-0.1,1.2-0.4c0.2-0.3,0.3-0.9,0.3-1.7v-1.9c0-0.8-0.1-1.3-0.4-1.6C193.9,14.6,193.4,14.5,192.6,14.5z"/>
	<path class="st0" d="M215.5,34.1h-5.1V23.3l-3.2,10.7h-5.4V10.5h5.1v10.7l3.4-10.7h5.1V34.1z"/>
	<path class="st0" d="M229.1,20.7c0.9,0.3,1.6,0.8,2,1.5c0.4,0.7,0.7,2.3,0.7,4.8c0,1.9-0.2,3.3-0.6,4.4c-0.4,1-1.2,1.8-2.2,2.4
		c-1,0.5-2.4,0.8-4,0.8c-1.9,0-3.3-0.3-4.4-0.9c-1.1-0.6-1.8-1.4-2.1-2.3c-0.3-0.9-0.5-2.5-0.5-4.7v-1.9h5.9v3.8
		c0,1,0.1,1.7,0.2,1.9c0.1,0.3,0.4,0.4,0.8,0.4c0.5,0,0.8-0.2,0.9-0.5c0.1-0.3,0.2-1.3,0.2-2.7V26c0-0.9-0.1-1.6-0.3-2
		c-0.2-0.4-0.5-0.7-0.9-0.8c-0.4-0.1-1.2-0.2-2.3-0.2v-3.4c1.4,0,2.3-0.1,2.6-0.2c0.3-0.1,0.6-0.3,0.7-0.7c0.1-0.4,0.2-0.9,0.2-1.7
		v-1.3c0-0.8-0.1-1.4-0.3-1.6c-0.2-0.3-0.4-0.4-0.8-0.4c-0.4,0-0.7,0.1-0.8,0.4c-0.2,0.3-0.2,0.9-0.2,1.8v1.9h-5.9v-2
		c0-2.3,0.5-3.8,1.5-4.6c1-0.8,2.7-1.2,4.9-1.2c2.8,0,4.7,0.5,5.7,1.6c1,1.1,1.5,2.6,1.5,4.6c0,1.3-0.2,2.3-0.5,2.9
		C230.6,19.7,230,20.2,229.1,20.7z"/>
	<path class="st0" d="M248.7,28.5c0,1.8-0.2,3-0.7,3.8c-0.5,0.8-1.1,1.2-2.1,1.4c-0.9,0.2-2.4,0.3-4.4,0.3h-7.1V10.5h6.2v8.1h0.9
		c1.9,0,3.3,0.1,4.3,0.3c1,0.2,1.7,0.7,2.2,1.5c0.5,0.8,0.7,2,0.7,3.6V28.5z M242.5,27.8v-3.4c0-1-0.1-1.6-0.3-1.8
		c-0.2-0.2-0.8-0.3-1.7-0.4V30c0.8,0,1.3-0.1,1.6-0.3C242.4,29.5,242.5,28.9,242.5,27.8z M256.9,34.1h-6.2V10.5h6.2V34.1z"/>
	<path class="st0" d="M279.1,10.5v23.6H273v-9.9h-1.8v9.9H265V10.5h6.1v8.4h1.8v-8.4H279.1z"/>
	<path class="st0" d="M292.5,10.5l3.5,23.6h-6.3l-0.3-4.2h-2.2l-0.4,4.2h-6.3l3.1-23.6H292.5z M289.2,25.6c-0.3-2.7-0.6-6-0.9-9.9
		c-0.6,4.5-1,7.8-1.2,9.9H289.2z"/>
</g>
</svg>
