<?xml version="1.0" encoding="utf-8"?>
<!-- Generator: Adobe Illustrator 19.2.1, SVG Export Plug-In . SVG Version: 6.00 Build 0)  -->
<svg version="1.1" id="Layer_1" xmlns="http://www.w3.org/2000/svg" xmlns:xlink="http://www.w3.org/1999/xlink" x="0px" y="0px"
	 width="300px" height="44px" viewBox="0 0 300 44" style="enable-background:new 0 0 300 44;" xml:space="preserve">
<style type="text/css">
	.st0{fill:#FAAE19;}
</style>
<g>
	<path class="st0" d="M31,19.4h-5.1v-1.6c0-0.7-0.1-1.2-0.2-1.4c-0.1-0.2-0.3-0.3-0.6-0.3c-0.3,0-0.6,0.1-0.7,0.4
		c-0.2,0.3-0.3,0.7-0.3,1.2c0,0.7,0.1,1.2,0.3,1.6c0.2,0.4,0.7,0.8,1.5,1.3c2.4,1.4,4,2.6,4.6,3.5s0.9,2.4,0.9,4.5
		c0,1.5-0.2,2.6-0.5,3.3c-0.3,0.7-1,1.3-2,1.8c-1,0.5-2.2,0.7-3.5,0.7c-1.5,0-2.7-0.3-3.7-0.8c-1-0.6-1.7-1.3-2-2.1
		c-0.3-0.9-0.5-2.1-0.5-3.6v-1.4h5.1v2.5c0,0.8,0.1,1.3,0.2,1.5c0.1,0.2,0.4,0.3,0.8,0.3s0.6-0.1,0.8-0.4c0.2-0.3,0.3-0.7,0.3-1.3
		c0-1.2-0.2-2-0.5-2.4c-0.3-0.4-1.2-1-2.5-1.9c-1.4-0.9-2.3-1.5-2.7-2c-0.4-0.4-0.8-1-1.1-1.7c-0.3-0.7-0.4-1.6-0.4-2.7
		c0-1.6,0.2-2.8,0.6-3.5c0.4-0.7,1.1-1.3,2-1.7c0.9-0.4,2-0.6,3.3-0.6c1.4,0,2.6,0.2,3.6,0.7c1,0.5,1.7,1,2,1.7
		c0.3,0.7,0.5,1.9,0.5,3.5V19.4z"/>
	<path class="st0" d="M45.3,13.1v21h-4.8l-2.8-9.5V34h-4.6v-21h4.6l3.1,9.4v-9.4H45.3z"/>
	<path class="st0" d="M52.9,13.1v21h-5.4v-21H52.9z"/>
	<path class="st0" d="M68.1,13.1L65,22.5L68.4,34h-5.6l-2.2-9v9h-5.4v-21h5.4v8.1l2.4-8.1H68.1z"/>
	<path class="st0" d="M69.3,13.1h9.1v4.2h-3.6v4h3.4v4h-3.4v4.6h4V34h-9.4V13.1z"/>
	<path class="st0" d="M80.3,13.1h3.9c2.6,0,4.3,0.1,5.2,0.3c0.9,0.2,1.7,0.7,2.2,1.5c0.6,0.8,0.9,2.1,0.9,3.9c0,1.6-0.2,2.7-0.6,3.3
		c-0.4,0.6-1.2,0.9-2.4,1c1.1,0.3,1.8,0.6,2.2,1.1c0.4,0.4,0.6,0.9,0.7,1.2c0.1,0.4,0.1,1.4,0.1,3.1V34h-5.1v-7
		c0-1.1-0.1-1.8-0.3-2.1s-0.6-0.4-1.4-0.4V34h-5.4V13.1z M85.8,16.7v4.7c0.6,0,1-0.1,1.3-0.3c0.2-0.2,0.4-0.7,0.4-1.6v-1.2
		c0-0.7-0.1-1.1-0.4-1.3S86.4,16.7,85.8,16.7z"/>
	<path class="st0" d="M106.2,19.4h-5.1v-1.6c0-0.7-0.1-1.2-0.2-1.4c-0.1-0.2-0.3-0.3-0.6-0.3c-0.3,0-0.6,0.1-0.7,0.4
		c-0.2,0.3-0.3,0.7-0.3,1.2c0,0.7,0.1,1.2,0.3,1.6c0.2,0.4,0.7,0.8,1.5,1.3c2.4,1.4,4,2.6,4.6,3.5s0.9,2.4,0.9,4.5
		c0,1.5-0.2,2.6-0.5,3.3c-0.3,0.7-1,1.3-2,1.8c-1,0.5-2.2,0.7-3.5,0.7c-1.5,0-2.7-0.3-3.7-0.8c-1-0.6-1.7-1.3-2-2.1
		c-0.3-0.9-0.5-2.1-0.5-3.6v-1.4h5.1v2.5c0,0.8,0.1,1.3,0.2,1.5c0.1,0.2,0.4,0.3,0.8,0.3s0.6-0.1,0.8-0.4c0.2-0.3,0.3-0.7,0.3-1.3
		c0-1.2-0.2-2-0.5-2.4c-0.3-0.4-1.2-1-2.5-1.9c-1.4-0.9-2.3-1.5-2.7-2c-0.4-0.4-0.8-1-1.1-1.7c-0.3-0.7-0.4-1.6-0.4-2.7
		c0-1.6,0.2-2.8,0.6-3.5c0.4-0.7,1.1-1.3,2-1.7c0.9-0.4,2-0.6,3.3-0.6c1.4,0,2.6,0.2,3.6,0.7c1,0.5,1.7,1,2,1.7
		c0.3,0.7,0.5,1.9,0.5,3.5V19.4z"/>
	<path class="st0" d="M113.8,13.1v16.8h3.3V34h-8.8v-21H113.8z"/>
	<path class="st0" d="M128.5,13.1l3.1,21H126l-0.3-3.8h-1.9l-0.3,3.8h-5.6l2.8-21H128.5z M125.6,26.6c-0.3-2.4-0.6-5.3-0.8-8.8
		c-0.6,4-0.9,6.9-1,8.8H125.6z"/>
	<path class="st0" d="M144.7,13.1v21h-4.8l-2.8-9.5V34h-4.6v-21h4.6l3.1,9.4v-9.4H144.7z"/>
	<path class="st0" d="M152.3,13.1v21h-5.4v-21H152.3z"/>
	<path class="st0" d="M166.7,13.1v21h-4.8l-2.8-9.5V34h-4.6v-21h4.6l3.1,9.4v-9.4H166.7z"/>
	<path class="st0" d="M181.4,20.8h-5.4v-1.9c0-1.2-0.1-1.9-0.2-2.3c-0.1-0.3-0.3-0.5-0.7-0.5c-0.3,0-0.6,0.1-0.7,0.4
		c-0.1,0.3-0.2,0.9-0.2,2v10.1c0,0.9,0.1,1.6,0.2,1.9c0.1,0.3,0.4,0.4,0.7,0.4c0.4,0,0.7-0.2,0.8-0.5c0.1-0.3,0.2-1,0.2-2V26H175
		v-3.2h6.4V34h-3.4l-0.5-1.5c-0.4,0.6-0.8,1.1-1.4,1.5c-0.6,0.3-1.2,0.5-2,0.5c-0.9,0-1.8-0.2-2.6-0.7s-1.4-1-1.8-1.6
		c-0.4-0.7-0.7-1.3-0.8-2.1s-0.2-1.8-0.2-3.2v-6.2c0-2,0.1-3.5,0.3-4.4c0.2-0.9,0.8-1.7,1.9-2.5s2.3-1.1,4-1.1c1.6,0,2.9,0.3,4,1
		c1.1,0.7,1.7,1.4,2.1,2.3c0.3,0.9,0.5,2.2,0.5,3.9V20.8z"/>
	<path class="st0" d="M189.1,13.1l-0.9,15.8h-4l-0.9-15.8H189.1z M188.6,29.8V34h-4.9v-4.2H188.6z"/>
</g>
</svg>
