<?xml version="1.0" encoding="utf-8"?>
<!-- Generator: Adobe Illustrator 19.2.1, SVG Export Plug-In . SVG Version: 6.00 Build 0)  -->
<svg version="1.1" id="Layer_1" xmlns="http://www.w3.org/2000/svg" xmlns:xlink="http://www.w3.org/1999/xlink" x="0px" y="0px"
	 width="300px" height="126px" viewBox="0 0 300 126" style="enable-background:new 0 0 300 126;" xml:space="preserve">
<style type="text/css">
	.st0{fill:#FFFFFF;}
</style>
<g>
	<path class="st0" d="M39.6,8.5l-3,26.2H28c-0.8-4-1.5-8.6-2.1-13.7c-0.3,2.2-0.9,6.8-1.9,13.7h-8.5l-3-26.2h6.6l0.7,9.1l0.7,8.8
		c0.3-4.6,0.9-10.6,1.9-18h7.1c0.1,0.8,0.3,3.6,0.7,8.6l0.8,10c0.4-6.3,1-12.5,1.9-18.6H39.6z"/>
	<path class="st0" d="M47.7,8.5v26.2h-6.8V8.5H47.7z"/>
	<path class="st0" d="M65.7,8.5v26.2h-6l-3.5-11.9v11.9h-5.7V8.5h5.7L60,20.3V8.5H65.7z"/>
	<path class="st0" d="M89.9,18.2H83v-2.4c0-1.5-0.1-2.4-0.2-2.8s-0.4-0.6-0.9-0.6c-0.4,0-0.7,0.2-0.9,0.5c-0.2,0.3-0.2,1.2-0.2,2.5
		V28c0,1.2,0.1,1.9,0.2,2.3c0.2,0.4,0.5,0.6,0.9,0.6c0.5,0,0.8-0.2,1-0.6c0.2-0.4,0.3-1.2,0.3-2.5v-3.1h-1.4v-4h8v14.1h-4.3L85,32.8
		c-0.5,0.8-1,1.4-1.8,1.8s-1.5,0.6-2.5,0.6c-1.1,0-2.2-0.3-3.2-0.8c-1-0.6-1.8-1.2-2.3-2.1c-0.5-0.8-0.8-1.7-1-2.6
		c-0.1-0.9-0.2-2.3-0.2-4.1V18c0-2.5,0.1-4.3,0.4-5.5c0.3-1.1,1-2.2,2.3-3.1C78,8.4,79.7,8,81.7,8c2,0,3.7,0.4,5,1.2
		c1.3,0.8,2.2,1.8,2.6,2.9s0.6,2.8,0.6,4.9V18.2z"/>
	<path class="st0" d="M92.5,8.5h4.8c3.2,0,5.4,0.1,6.5,0.4c1.1,0.2,2.1,0.9,2.8,1.9c0.7,1,1.1,2.6,1.1,4.9c0,2-0.3,3.4-0.8,4.1
		c-0.5,0.7-1.5,1.1-3,1.3c1.3,0.3,2.3,0.8,2.7,1.3c0.5,0.6,0.8,1.1,0.9,1.5s0.2,1.8,0.2,3.9v6.9h-6.3V26c0-1.4-0.1-2.3-0.3-2.6
		c-0.2-0.3-0.8-0.5-1.7-0.5v11.8h-6.8V8.5z M99.3,13v5.8c0.8,0,1.3-0.1,1.6-0.3c0.3-0.2,0.5-0.9,0.5-2V15c0-0.8-0.1-1.4-0.4-1.6
		C100.6,13.1,100.1,13,99.3,13z"/>
	<path class="st0" d="M110.3,8.5h11.4v5.2h-4.5v5h4.3v5h-4.3v5.8h5v5.2h-11.8V8.5z"/>
	<path class="st0" d="M135.9,8.5l3.9,26.2h-7l-0.4-4.7H130l-0.4,4.7h-7L126,8.5H135.9z M132.3,25.4c-0.3-3-0.7-6.6-1-11
		c-0.7,5-1.1,8.7-1.3,11H132.3z"/>
	<path class="st0" d="M152.8,8.5v5.2h-4v21H142v-21h-4V8.5H152.8z"/>
	<path class="st0" d="M160.2,8.5h6.9c1.9,0,3.3,0.1,4.3,0.4c1,0.3,1.7,0.7,2.2,1.3c0.5,0.5,0.8,1.2,1,2c0.2,0.8,0.3,2,0.3,3.6v2.3
		c0,1.7-0.2,2.9-0.5,3.7c-0.3,0.8-1,1.4-1.9,1.8c-0.9,0.4-2.1,0.6-3.6,0.6H167v10.5h-6.8V8.5z M167,13v6.7c0.2,0,0.4,0,0.5,0
		c0.6,0,1.1-0.2,1.3-0.5c0.2-0.3,0.4-0.9,0.4-1.9v-2.2c0-0.9-0.1-1.5-0.4-1.7S167.9,13,167,13z"/>
	<path class="st0" d="M176.8,8.5h4.8c3.2,0,5.4,0.1,6.5,0.4c1.1,0.2,2.1,0.9,2.8,1.9c0.7,1,1.1,2.6,1.1,4.9c0,2-0.3,3.4-0.8,4.1
		c-0.5,0.7-1.5,1.1-3,1.3c1.3,0.3,2.3,0.8,2.7,1.3c0.5,0.6,0.8,1.1,0.9,1.5c0.1,0.5,0.2,1.8,0.2,3.9v6.9h-6.3V26
		c0-1.4-0.1-2.3-0.3-2.6c-0.2-0.3-0.8-0.5-1.7-0.5v11.8h-6.8V8.5z M183.7,13v5.8c0.8,0,1.3-0.1,1.6-0.3c0.3-0.2,0.5-0.9,0.5-2V15
		c0-0.8-0.1-1.4-0.4-1.6C185,13.1,184.4,13,183.7,13z"/>
	<path class="st0" d="M201.5,8.5v26.2h-6.8V8.5H201.5z"/>
	<path class="st0" d="M215.6,8.5v5.2l-5.1,15.7h5.1v5.2h-12.6v-3.8l5.2-17.1h-4.6V8.5H215.6z"/>
	<path class="st0" d="M217.4,8.5h11.4v5.2h-4.5v5h4.3v5h-4.3v5.8h5v5.2h-11.8V8.5z"/>
	<path class="st0" d="M245.6,16.5h-6.3v-1.9c0-0.9-0.1-1.5-0.2-1.7c-0.2-0.2-0.4-0.4-0.8-0.4c-0.4,0-0.7,0.2-0.9,0.5
		c-0.2,0.3-0.3,0.8-0.3,1.5c0,0.9,0.1,1.5,0.4,2c0.2,0.4,0.9,1,1.9,1.6c3,1.8,4.9,3.3,5.7,4.4c0.8,1.2,1.2,3,1.2,5.6
		c0,1.9-0.2,3.2-0.7,4.1s-1.3,1.6-2.5,2.2c-1.3,0.6-2.7,0.9-4.4,0.9c-1.8,0-3.4-0.3-4.7-1c-1.3-0.7-2.1-1.6-2.5-2.6
		c-0.4-1.1-0.6-2.6-0.6-4.5v-1.7h6.3v3.2c0,1,0.1,1.6,0.3,1.9c0.2,0.3,0.5,0.4,0.9,0.4s0.8-0.2,1-0.5s0.3-0.9,0.3-1.6
		c0-1.5-0.2-2.6-0.6-3c-0.4-0.5-1.5-1.3-3.2-2.4c-1.7-1.1-2.8-1.9-3.4-2.4c-0.5-0.5-1-1.2-1.4-2.1c-0.4-0.9-0.5-2-0.5-3.4
		c0-2,0.3-3.5,0.8-4.4c0.5-0.9,1.3-1.7,2.5-2.2C235,8.2,236.4,8,238,8c1.8,0,3.3,0.3,4.5,0.9c1.2,0.6,2.1,1.3,2.5,2.2
		c0.4,0.9,0.6,2.3,0.6,4.4V16.5z"/>
	<path class="st0" d="M269.7,23.9c0,2.6-0.1,4.5-0.2,5.6s-0.5,2.1-1.2,3c-0.7,0.9-1.5,1.6-2.6,2.1c-1.1,0.5-2.4,0.7-3.9,0.7
		c-1.4,0-2.7-0.2-3.8-0.7c-1.1-0.5-2-1.1-2.7-2.1c-0.7-0.9-1.1-1.9-1.2-3c-0.1-1.1-0.2-3-0.2-5.7v-4.5c0-2.6,0.1-4.5,0.2-5.6
		c0.1-1.1,0.5-2.1,1.2-3c0.7-0.9,1.5-1.6,2.6-2.1c1.1-0.5,2.4-0.7,3.9-0.7c1.4,0,2.7,0.2,3.8,0.7c1.1,0.5,2,1.1,2.7,2.1
		c0.7,0.9,1.1,1.9,1.2,3c0.1,1.1,0.2,3,0.2,5.7V23.9z M262.9,15.3c0-1.2-0.1-2-0.2-2.3c-0.1-0.3-0.4-0.5-0.8-0.5
		c-0.4,0-0.6,0.1-0.8,0.4c-0.2,0.3-0.3,1.1-0.3,2.4v12.2c0,1.5,0.1,2.5,0.2,2.8s0.4,0.5,0.9,0.5c0.5,0,0.8-0.2,0.9-0.6
		c0.1-0.4,0.2-1.4,0.2-2.9V15.3z"/>
	<path class="st0" d="M287.4,8.5v26.2h-6l-3.5-11.9v11.9h-5.7V8.5h5.7l3.8,11.8V8.5H287.4z"/>
</g>
</svg>
