<?xml version="1.0" encoding="utf-8"?>
<!-- Generator: Adobe Illustrator 19.2.1, SVG Export Plug-In . SVG Version: 6.00 Build 0)  -->
<svg version="1.1" id="Layer_1" xmlns="http://www.w3.org/2000/svg" xmlns:xlink="http://www.w3.org/1999/xlink" x="0px" y="0px"
	 width="300px" height="126px" viewBox="0 0 300 126" style="enable-background:new 0 0 300 126;" xml:space="preserve">
<style type="text/css">
	.st0{fill:#FFFFFF;}
</style>
<g>
	<path class="st0" d="M87.6,6.8l-3.9,33.1H73c-0.9-5-1.9-10.9-2.6-17.4c-0.4,2.8-1.2,8.6-2.3,17.4H57.4L53.5,6.8h8.3l0.9,11.5
		l0.9,11.1c0.4-5.7,1.1-13.4,2.3-22.8H75c0.1,0.9,0.5,4.6,0.9,10.9l0.9,12.5c0.5-8,1.3-15.8,2.3-23.5h8.4V6.8z"/>
	<path class="st0" d="M98,6.8v33.1h-8.7V6.8H98z"/>
	<path class="st0" d="M120.6,6.8v33.1h-7.5l-4.5-15v15h-7.2V6.8h7.2l4.8,14.9V6.8H120.6z"/>
	<path class="st0" d="M131.5,6.8h8.7c2.3,0,4.1,0.2,5.4,0.6s2.2,0.9,2.8,1.6c0.6,0.7,1.1,1.5,1.3,2.6c0.2,0.9,0.4,2.5,0.4,4.6v2.9
		c0,2.1-0.2,3.6-0.7,4.6c-0.5,0.9-1.3,1.8-2.3,2.2c-1.2,0.5-2.7,0.8-4.6,0.8h-2.3v13.4h-8.6V6.8z M140.1,12.4v8.4c0.2,0,0.5,0,0.6,0
		c0.8,0,1.3-0.2,1.6-0.6c0.4-0.4,0.5-1.2,0.5-2.5v-2.7c0-1.2-0.2-1.9-0.6-2.2C141.9,12.7,141.1,12.4,140.1,12.4z"/>
	<path class="st0" d="M152.5,6.8h6.1c4.1,0,6.8,0.1,8.2,0.5c1.4,0.4,2.6,1.2,3.5,2.3c0.9,1.3,1.4,3.4,1.4,6.2c0,2.6-0.4,4.3-0.9,5.2
		c-0.6,0.9-1.9,1.4-3.8,1.6c1.8,0.5,2.8,0.9,3.4,1.6c0.6,0.7,0.9,1.4,1.1,2c0.1,0.6,0.2,2.2,0.2,4.9v8.7h-8v-11
		c0-1.8-0.1-2.8-0.5-3.3c-0.2-0.5-1.1-0.6-2.2-0.6v14.9h-8.6L152.5,6.8L152.5,6.8z M161.1,12.4v7.4c0.9,0,1.6-0.1,2-0.4
		c0.4-0.2,0.6-1.2,0.6-2.6V15c0-1.1-0.2-1.8-0.6-2.1C162.8,12.7,162.1,12.4,161.1,12.4z"/>
	<path class="st0" d="M183.6,6.8v33.1H175V6.8H183.6z"/>
	<path class="st0" d="M201.5,6.8v6.6l-6.5,19.8h6.5v6.6h-15.8V35l6.6-21.7h-5.9V6.8H201.5z"/>
	<path class="st0" d="M203.7,6.8h14.3v6.6h-5.7v6.3h5.4V26h-5.4v7.3h6.3v6.6h-14.9V6.8z"/>
	<path class="st0" d="M239.4,16.9h-8v-2.5c0-1.2-0.1-1.9-0.4-2.2c-0.2-0.4-0.6-0.5-1.1-0.5s-0.9,0.2-1.2,0.6
		c-0.2,0.5-0.4,1.1-0.4,1.9c0,1.1,0.1,2,0.5,2.5c0.2,0.6,1.1,1.3,2.5,2c3.9,2.2,6.2,4.1,7.3,5.6c1.1,1.5,1.5,3.8,1.5,7
		c0,2.3-0.2,4.1-0.8,5.2c-0.6,1.2-1.6,2.1-3.2,2.8c-1.5,0.7-3.4,1.2-5.5,1.2c-2.3,0-4.2-0.5-5.9-1.3c-1.6-0.8-2.7-2-3.2-3.3
		c-0.5-1.4-0.7-3.3-0.7-5.7V28h8v4c0,1.3,0.1,2,0.4,2.3c0.2,0.4,0.6,0.6,1.2,0.6s1.1-0.2,1.3-0.7c0.2-0.5,0.5-1.2,0.5-2
		c0-2-0.2-3.2-0.8-3.9c-0.6-0.6-1.9-1.6-4-3c-2.1-1.4-3.5-2.5-4.2-3c-0.7-0.6-1.3-1.5-1.8-2.7c-0.5-1.2-0.7-2.6-0.7-4.3
		c0-2.6,0.4-4.3,0.9-5.5c0.7-1.2,1.6-2.1,3.2-2.7c1.4-0.7,3.2-0.9,5.3-0.9c2.2,0,4.1,0.4,5.7,1.1c1.5,0.7,2.6,1.6,3.2,2.7
		s0.8,2.9,0.8,5.6v1.4H239.4z"/>
	<path class="st0" d="M265,6.8l4.9,33.1h-8.8l-0.5-6h-3l-0.5,6h-8.9l4.3-33.1C252.5,6.8,265,6.8,265,6.8z M260.5,28.2
		c-0.5-3.8-0.8-8.3-1.3-14c-0.8,6.3-1.4,11-1.6,14H260.5z"/>
	<path class="st0" d="M286.4,6.8v6.6h-5.2v26.5h-8.6V13.5h-5V6.8H286.4z"/>
</g>
</svg>
