<?xml version="1.0" encoding="utf-8"?>
<!-- Generator: Adobe Illustrator 19.2.1, SVG Export Plug-In . SVG Version: 6.00 Build 0)  -->
<svg version="1.1" id="Layer_1" xmlns="http://www.w3.org/2000/svg" xmlns:xlink="http://www.w3.org/1999/xlink" x="0px" y="0px"
	 width="240px" height="42px" viewBox="0 0 240 42" style="enable-background:new 0 0 240 42;" xml:space="preserve">
<style type="text/css">
	.st0{fill:#FCAF17;}
</style>
<g>
	<path class="st0" d="M48.3,6.8h4v1h-3.1v7.1h-0.9V6.8z"/>
	<path class="st0" d="M52.8,12c0-1,0.2-1.8,0.6-2.3c0.4-0.5,1-0.8,1.6-0.8c0.6,0,1.2,0.3,1.6,0.8c0.4,0.5,0.6,1.3,0.6,2.2
		c0,1.1-0.2,1.8-0.6,2.4c-0.4,0.5-1,0.8-1.6,0.8c-0.6,0-1.2-0.3-1.6-0.8C53,13.8,52.8,13,52.8,12z M53.6,12c0,0.8,0.1,1.3,0.4,1.7
		c0.3,0.4,0.6,0.6,1,0.6c0.4,0,0.7-0.2,1-0.6c0.3-0.4,0.4-0.9,0.4-1.7c0-0.8-0.1-1.3-0.4-1.7c-0.3-0.4-0.6-0.6-1-0.6
		c-0.4,0-0.7,0.2-1,0.6C53.8,10.7,53.6,11.3,53.6,12z"/>
	<path class="st0" d="M58.3,17.2V9.1H59v0.8c0.2-0.3,0.4-0.5,0.6-0.7c0.2-0.1,0.5-0.2,0.8-0.2c0.4,0,0.7,0.1,1,0.3
		c0.3,0.2,0.6,0.6,0.7,1c0.2,0.5,0.3,1,0.3,1.7c0,1-0.2,1.8-0.6,2.3c-0.4,0.5-0.9,0.8-1.5,0.8c-0.3,0-0.5-0.1-0.7-0.2
		c-0.2-0.1-0.4-0.3-0.6-0.5v2.9H58.3z M59,12c0,0.8,0.1,1.3,0.4,1.7c0.3,0.4,0.6,0.5,0.9,0.5c0.3,0,0.6-0.2,0.9-0.6
		c0.3-0.4,0.4-0.9,0.4-1.7c0-0.8-0.1-1.3-0.4-1.7c-0.3-0.4-0.6-0.6-0.9-0.6c-0.3,0-0.6,0.2-0.9,0.6C59.1,10.7,59,11.3,59,12z"/>
	<path class="st0" d="M67.2,9.1v5.9h-0.8v-2.3h-0.5c-0.3,0-0.5,0-0.6,0.1c-0.1,0.1-0.4,0.4-0.6,0.9L64,14.9h-1l0.9-1.6
		c0.3-0.5,0.5-0.8,0.8-0.8c-0.5-0.1-0.8-0.3-1-0.6c-0.2-0.3-0.3-0.7-0.3-1.1c0-0.5,0.2-1,0.5-1.3C64,9.2,64.5,9.1,65,9.1H67.2z
		 M66.4,9.9h-1.2c-0.5,0-0.8,0.1-0.9,0.3c-0.1,0.2-0.2,0.4-0.2,0.6c0,0.4,0.1,0.6,0.3,0.8c0.2,0.2,0.6,0.2,1.1,0.2h0.9V9.9z"/>
	<path class="st0" d="M68.2,9.1H69v1.1c0,0.5,0,0.8,0.1,1.1c0.1,0.2,0.2,0.4,0.3,0.6C69.6,12,69.8,12,70,12c0.3,0,0.7-0.1,1.2-0.3
		V9.1h0.8v5.9h-0.8v-2.4c-0.5,0.2-1,0.3-1.4,0.3c-0.5,0-0.9-0.2-1.2-0.6c-0.3-0.4-0.5-0.9-0.5-1.7V9.1z"/>
	<path class="st0" d="M76.4,14.2c-0.3,0.3-0.6,0.5-0.9,0.6s-0.6,0.2-0.9,0.2c-0.5,0-0.9-0.2-1.2-0.5c-0.3-0.3-0.4-0.7-0.4-1.2
		c0-0.3,0.1-0.6,0.2-0.9c0.1-0.3,0.3-0.5,0.6-0.6c0.2-0.1,0.6-0.3,1.1-0.3c0.7-0.1,1.1-0.2,1.5-0.3l0-0.3c0-0.4-0.1-0.7-0.2-0.8
		c-0.2-0.2-0.5-0.4-0.9-0.4c-0.4,0-0.7,0.1-0.9,0.2s-0.3,0.5-0.4,0.9l-0.8-0.1c0.1-0.6,0.3-1.1,0.7-1.4c0.3-0.3,0.8-0.4,1.5-0.4
		c0.5,0,0.9,0.1,1.2,0.3c0.3,0.2,0.5,0.4,0.5,0.7c0.1,0.3,0.1,0.7,0.1,1.2v1.3c0,0.9,0,1.5,0.1,1.8c0,0.2,0.1,0.5,0.2,0.7h-0.9
		C76.5,14.7,76.4,14.5,76.4,14.2z M76.4,12c-0.3,0.1-0.7,0.3-1.3,0.4c-0.3,0.1-0.6,0.1-0.7,0.2c-0.1,0.1-0.2,0.2-0.3,0.3
		s-0.1,0.3-0.1,0.5c0,0.3,0.1,0.5,0.3,0.7c0.2,0.2,0.4,0.3,0.7,0.3c0.3,0,0.6-0.1,0.8-0.2c0.2-0.2,0.4-0.4,0.5-0.6
		c0.1-0.3,0.2-0.6,0.2-1.1V12z"/>
	<path class="st0" d="M82.2,9.1v5.9h-0.8v-2.3H81c-0.3,0-0.5,0-0.6,0.1c-0.1,0.1-0.4,0.4-0.6,0.9L79,14.9h-1l0.9-1.6
		c0.3-0.5,0.5-0.8,0.8-0.8c-0.5-0.1-0.8-0.3-1-0.6c-0.2-0.3-0.3-0.7-0.3-1.1c0-0.5,0.2-1,0.5-1.3c0.3-0.3,0.7-0.5,1.3-0.5H82.2z
		 M81.4,9.9h-1.2c-0.5,0-0.8,0.1-0.9,0.3c-0.1,0.2-0.2,0.4-0.2,0.6c0,0.4,0.1,0.6,0.3,0.8c0.2,0.2,0.6,0.2,1.1,0.2h0.9V9.9z"/>
	<path class="st0" d="M86.5,9.1h3.8v5.9h-0.8v-5h-2.2v2.9c0,0.7,0,1.1-0.1,1.3c0,0.2-0.1,0.4-0.3,0.6c-0.2,0.2-0.4,0.2-0.7,0.2
		c-0.2,0-0.4,0-0.6,0v-0.8c0.4,0,0.6,0,0.7,0c0.1,0,0.1-0.1,0.2-0.2c0-0.1,0.1-0.4,0.1-1V9.1z"/>
	<path class="st0" d="M91.5,9.1h0.8v4.5l2.3-4.5h0.9v5.9h-0.8v-4.4l-2.3,4.4h-0.9V9.1z"/>
	<path class="st0" d="M96.7,9.1h0.8v2.4h2.3V9.1h0.8v5.9h-0.8v-2.6h-2.3v2.6h-0.8V9.1z"/>
	<path class="st0" d="M101.8,9.1h0.8v4.5l2.3-4.5h0.9v5.9h-0.8v-4.4l-2.3,4.4h-0.9V9.1z"/>
	<path class="st0" d="M110.8,9.1v5.9H110v-2.3h-0.5c-0.3,0-0.5,0-0.6,0.1c-0.1,0.1-0.4,0.4-0.6,0.9l-0.7,1.3h-1l0.9-1.6
		c0.3-0.5,0.5-0.8,0.8-0.8c-0.5-0.1-0.8-0.3-1-0.6c-0.2-0.3-0.3-0.7-0.3-1.1c0-0.5,0.2-1,0.5-1.3c0.3-0.3,0.7-0.5,1.3-0.5H110.8z
		 M110,9.9h-1.2c-0.5,0-0.8,0.1-0.9,0.3c-0.1,0.2-0.2,0.4-0.2,0.6c0,0.4,0.1,0.6,0.3,0.8c0.2,0.2,0.6,0.2,1.1,0.2h0.9V9.9z"/>
	<path class="st0" d="M112.2,10.2V9.1h0.9v1.1H112.2z M112.2,14.9v-1.1h0.9v1.1H112.2z"/>
	<path class="st0" d="M118.9,13.6v-2.2h-1.8v-0.9h1.8V8.3h0.8v2.2h1.8v0.9h-1.8v2.2H118.9z"/>
	<path class="st0" d="M122.3,12.8l0.8-0.1c0.2,1.1,0.6,1.6,1.3,1.6c0.4,0,0.7-0.2,1-0.5c0.3-0.3,0.4-0.7,0.4-1.2
		c0-0.5-0.1-0.9-0.4-1.1c-0.3-0.3-0.6-0.4-0.9-0.4c-0.2,0-0.3,0-0.6,0.1l0.1-0.9l0.1,0c0.4,0,0.7-0.1,1-0.4s0.4-0.6,0.4-1
		c0-0.4-0.1-0.7-0.3-0.9c-0.2-0.2-0.5-0.3-0.8-0.3c-0.3,0-0.6,0.1-0.8,0.4c-0.2,0.2-0.4,0.6-0.4,1.1l-0.8-0.2
		c0.1-0.7,0.3-1.2,0.7-1.6c0.4-0.4,0.8-0.5,1.3-0.5c0.5,0,1,0.2,1.4,0.6s0.6,0.9,0.6,1.5c0,0.4-0.1,0.7-0.2,1
		c-0.2,0.3-0.4,0.5-0.7,0.7c0.3,0.1,0.5,0.2,0.7,0.4c0.2,0.2,0.3,0.4,0.4,0.7c0.1,0.3,0.2,0.6,0.2,0.9c0,0.7-0.2,1.4-0.7,1.8
		c-0.4,0.5-1,0.7-1.6,0.7c-0.6,0-1-0.2-1.4-0.6C122.6,14,122.4,13.5,122.3,12.8z"/>
	<path class="st0" d="M127.6,7.9v-1h4.3v0.8c-0.6,0.8-1.2,1.9-1.7,3.3c-0.5,1.3-0.8,2.7-0.8,4h-0.8c0-0.7,0.1-1.5,0.3-2.4
		s0.5-1.8,0.8-2.6c0.4-0.8,0.7-1.5,1.2-2.1H127.6z"/>
	<path class="st0" d="M132.7,12.8l0.9-0.1c0.1,0.5,0.2,0.9,0.5,1.2c0.2,0.3,0.5,0.4,0.8,0.4c0.4,0,0.7-0.2,1-0.5
		c0.3-0.4,0.4-0.8,0.4-1.5c0-0.6-0.1-1-0.4-1.3c-0.3-0.3-0.6-0.5-1-0.5c-0.2,0-0.5,0.1-0.7,0.2c-0.2,0.1-0.4,0.3-0.5,0.6l-0.8-0.1
		l0.6-4.2h3.3v1h-2.7l-0.4,2.2c0.4-0.3,0.8-0.5,1.3-0.5c0.6,0,1,0.2,1.5,0.7c0.4,0.5,0.6,1.1,0.6,1.9c0,0.8-0.2,1.5-0.6,2
		c-0.4,0.6-1,0.8-1.7,0.8c-0.6,0-1.1-0.2-1.5-0.6C132.9,14.1,132.7,13.5,132.7,12.8z"/>
	<path class="st0" d="M144.7,14v1h-4.4c0-0.4,0.1-0.8,0.4-1.3c0.2-0.5,0.7-1,1.3-1.7c0.8-0.8,1.3-1.3,1.5-1.8
		c0.2-0.4,0.4-0.8,0.4-1.2c0-0.4-0.1-0.7-0.4-1c-0.2-0.3-0.5-0.4-0.9-0.4c-0.4,0-0.7,0.1-0.9,0.4s-0.4,0.7-0.4,1.2l-0.8-0.1
		c0.1-0.8,0.3-1.4,0.7-1.8c0.4-0.4,0.9-0.6,1.5-0.6c0.7,0,1.2,0.2,1.5,0.7s0.5,1,0.5,1.6c0,0.5-0.1,1-0.4,1.5
		c-0.3,0.5-0.8,1.1-1.6,1.9c-0.5,0.5-0.8,0.8-0.9,1s-0.3,0.4-0.3,0.5H144.7z"/>
	<path class="st0" d="M145.6,12.8l0.9-0.1c0.1,0.5,0.2,0.9,0.5,1.2c0.2,0.3,0.5,0.4,0.8,0.4c0.4,0,0.7-0.2,1-0.5
		c0.3-0.4,0.4-0.8,0.4-1.5c0-0.6-0.1-1-0.4-1.3c-0.3-0.3-0.6-0.5-1-0.5c-0.2,0-0.5,0.1-0.7,0.2c-0.2,0.1-0.4,0.3-0.5,0.6l-0.8-0.1
		l0.6-4.2h3.3v1H147l-0.4,2.2c0.4-0.3,0.8-0.5,1.3-0.5c0.6,0,1,0.2,1.5,0.7c0.4,0.5,0.6,1.1,0.6,1.9c0,0.8-0.2,1.5-0.6,2
		c-0.4,0.6-1,0.8-1.7,0.8c-0.6,0-1.1-0.2-1.5-0.6C145.8,14.1,145.6,13.5,145.6,12.8z"/>
	<path class="st0" d="M153.4,7.9v-1h4.3v0.8c-0.6,0.8-1.2,1.9-1.7,3.3c-0.5,1.3-0.8,2.7-0.8,4h-0.8c0-0.7,0.1-1.5,0.3-2.4
		s0.5-1.8,0.8-2.6c0.4-0.8,0.7-1.5,1.2-2.1H153.4z"/>
	<path class="st0" d="M158.5,10.9c0-1.4,0.2-2.4,0.5-3.1c0.4-0.7,0.9-1,1.6-1c0.6,0,1.1,0.3,1.5,0.9c0.4,0.7,0.7,1.8,0.7,3.3
		c0,1.4-0.2,2.4-0.5,3.1c-0.4,0.7-0.9,1.1-1.6,1.1c-0.6,0-1.2-0.3-1.6-0.9C158.7,13.5,158.5,12.5,158.5,10.9z M159.3,10.9
		c0,1.3,0.1,2.2,0.4,2.6c0.3,0.4,0.6,0.7,1,0.7c0.4,0,0.7-0.2,0.9-0.7s0.4-1.3,0.4-2.6c0-1.3-0.1-2.2-0.4-2.6
		c-0.3-0.4-0.6-0.7-1-0.7c-0.4,0-0.7,0.2-0.9,0.7C159.4,8.8,159.3,9.6,159.3,10.9z"/>
	<path class="st0" d="M164.9,10.5c-0.3-0.1-0.6-0.4-0.7-0.6c-0.2-0.3-0.2-0.6-0.2-1c0-0.6,0.2-1.1,0.5-1.5c0.4-0.4,0.8-0.6,1.4-0.6
		c0.6,0,1,0.2,1.4,0.6c0.4,0.4,0.5,0.9,0.5,1.5c0,0.4-0.1,0.7-0.2,1c-0.2,0.3-0.4,0.5-0.7,0.6c0.4,0.2,0.7,0.4,0.9,0.8
		c0.2,0.4,0.3,0.8,0.3,1.3c0,0.7-0.2,1.3-0.6,1.8c-0.4,0.5-0.9,0.7-1.6,0.7c-0.6,0-1.1-0.2-1.6-0.7c-0.4-0.5-0.6-1.1-0.6-1.8
		c0-0.5,0.1-1,0.3-1.3C164.2,10.9,164.5,10.7,164.9,10.5z M164.5,12.6c0,0.5,0.1,0.9,0.4,1.2c0.3,0.3,0.6,0.5,1,0.5
		c0.4,0,0.7-0.1,1-0.4c0.3-0.3,0.4-0.7,0.4-1.2c0-0.5-0.1-0.9-0.4-1.2c-0.3-0.3-0.6-0.5-1-0.5c-0.4,0-0.7,0.2-0.9,0.5
		C164.6,11.7,164.5,12.1,164.5,12.6z M164.7,8.9c0,0.4,0.1,0.7,0.3,0.9c0.2,0.2,0.5,0.4,0.8,0.4c0.3,0,0.6-0.1,0.8-0.3
		c0.2-0.2,0.3-0.5,0.3-0.9c0-0.4-0.1-0.7-0.3-0.9c-0.2-0.2-0.5-0.4-0.8-0.4c-0.3,0-0.5,0.1-0.8,0.4S164.7,8.5,164.7,8.9z"/>
	<path class="st0" d="M174.4,14.9h-0.8V8.6c-0.2,0.2-0.4,0.4-0.8,0.7c-0.3,0.2-0.6,0.4-0.9,0.5v-1c0.4-0.3,0.8-0.6,1.2-0.9
		c0.3-0.4,0.6-0.7,0.7-1.1h0.5V14.9z"/>
	<path class="st0" d="M178.9,14.9h-0.8V8.6c-0.2,0.2-0.4,0.4-0.8,0.7c-0.3,0.2-0.6,0.4-0.9,0.5v-1c0.4-0.3,0.8-0.6,1.2-0.9
		c0.3-0.4,0.6-0.7,0.7-1.1h0.5V14.9z"/>
	<path class="st0" d="M183.6,10.9c0-1.4,0.2-2.4,0.5-3.1c0.4-0.7,0.9-1,1.6-1c0.6,0,1.1,0.3,1.5,0.9c0.4,0.7,0.7,1.8,0.7,3.3
		c0,1.4-0.2,2.4-0.5,3.1c-0.4,0.7-0.9,1.1-1.6,1.1c-0.6,0-1.2-0.3-1.6-0.9C183.8,13.5,183.6,12.5,183.6,10.9z M184.4,10.9
		c0,1.3,0.1,2.2,0.4,2.6c0.3,0.4,0.6,0.7,1,0.7c0.4,0,0.7-0.2,0.9-0.7c0.3-0.5,0.4-1.3,0.4-2.6c0-1.3-0.1-2.2-0.4-2.6
		c-0.3-0.4-0.6-0.7-1-0.7c-0.4,0-0.7,0.2-0.9,0.7C184.5,8.8,184.4,9.6,184.4,10.9z"/>
	<path class="st0" d="M188.9,13.1l0.8-0.1c0.1,0.9,0.5,1.3,1.1,1.3c0.3,0,0.5-0.1,0.7-0.3c0.2-0.2,0.4-0.5,0.6-1
		c0.2-0.5,0.2-1,0.2-1.7v-0.2c-0.2,0.3-0.4,0.6-0.7,0.8c-0.3,0.2-0.6,0.3-0.9,0.3c-0.5,0-1-0.2-1.4-0.7c-0.4-0.5-0.6-1.1-0.6-1.9
		c0-0.8,0.2-1.5,0.6-2s0.9-0.7,1.5-0.7c0.4,0,0.8,0.1,1.2,0.4c0.4,0.3,0.6,0.7,0.8,1.2s0.3,1.3,0.3,2.3c0,1.1-0.1,2-0.3,2.6
		c-0.2,0.6-0.5,1.1-0.9,1.3s-0.8,0.4-1.2,0.4c-0.5,0-0.9-0.2-1.3-0.5C189.1,14.2,188.9,13.7,188.9,13.1z M192.2,9.5
		c0-0.6-0.1-1-0.4-1.4c-0.3-0.3-0.6-0.5-0.9-0.5c-0.4,0-0.7,0.2-0.9,0.5c-0.3,0.4-0.4,0.8-0.4,1.4c0,0.5,0.1,1,0.4,1.3
		c0.3,0.3,0.6,0.5,0.9,0.5c0.4,0,0.7-0.2,0.9-0.5C192.1,10.5,192.2,10.1,192.2,9.5z"/>
	<path class="st0" d="M17.3,25.2v-8.1h2.5c0.6,0,1,0.1,1.3,0.2c0.4,0.1,0.7,0.4,0.9,0.8c0.2,0.4,0.3,0.8,0.3,1.4
		c0,0.7-0.2,1.3-0.6,1.8c-0.4,0.5-1,0.7-1.9,0.7h-1.7v3.3H17.3z M18.2,21h1.7c0.5,0,0.9-0.1,1.2-0.4c0.3-0.2,0.4-0.6,0.4-1.1
		c0-0.3-0.1-0.6-0.2-0.8c-0.1-0.2-0.3-0.4-0.4-0.5c-0.2-0.1-0.5-0.1-0.9-0.1h-1.7V21z"/>
	<path class="st0" d="M26.7,23.3l0.8,0.1c-0.1,0.6-0.4,1.1-0.8,1.4c-0.4,0.3-0.8,0.5-1.4,0.5c-0.7,0-1.2-0.3-1.7-0.8
		c-0.4-0.5-0.6-1.3-0.6-2.2c0-1,0.2-1.8,0.6-2.3c0.4-0.5,1-0.8,1.6-0.8c0.6,0,1.1,0.3,1.6,0.8c0.4,0.5,0.6,1.3,0.6,2.3l0,0.3H24
		c0,0.7,0.2,1.2,0.5,1.5c0.3,0.3,0.6,0.5,1,0.5C26,24.5,26.4,24.1,26.7,23.3z M24,21.7h2.7c0-0.5-0.1-0.9-0.3-1.1
		c-0.3-0.4-0.6-0.5-1-0.5c-0.4,0-0.7,0.2-0.9,0.5C24.2,20.8,24,21.2,24,21.7z"/>
	<path class="st0" d="M28.6,19.4h0.8v2.5c0.3,0,0.4-0.1,0.5-0.2c0.1-0.1,0.3-0.5,0.5-1.1c0.2-0.5,0.3-0.8,0.4-0.9
		c0.1-0.1,0.2-0.2,0.3-0.3c0.1,0,0.3-0.1,0.7-0.1h0.1v0.8l-0.2,0c-0.2,0-0.3,0-0.4,0.1c-0.1,0.1-0.1,0.2-0.2,0.4
		c-0.2,0.6-0.3,1-0.4,1.1c-0.1,0.2-0.3,0.3-0.5,0.4c0.3,0.1,0.7,0.5,1,1.2l0.9,1.8h-0.9l-0.9-1.8c-0.2-0.4-0.3-0.6-0.5-0.7
		c-0.1-0.1-0.3-0.2-0.5-0.2v2.7h-0.8V19.4z"/>
	<path class="st0" d="M33,19.4h3.8v5.9H36v-5h-2.2v2.9c0,0.7,0,1.1-0.1,1.3c0,0.2-0.1,0.4-0.3,0.6c-0.2,0.2-0.4,0.2-0.7,0.2
		c-0.2,0-0.4,0-0.6,0v-0.8c0.4,0,0.6,0,0.7,0c0.1,0,0.1-0.1,0.2-0.2c0-0.1,0.1-0.4,0.1-1V19.4z"/>
	<path class="st0" d="M41.2,24.5c-0.3,0.3-0.6,0.5-0.9,0.6c-0.3,0.1-0.6,0.2-0.9,0.2c-0.5,0-0.9-0.2-1.2-0.5
		c-0.3-0.3-0.4-0.7-0.4-1.2c0-0.3,0.1-0.6,0.2-0.9c0.1-0.3,0.3-0.5,0.6-0.6c0.2-0.1,0.6-0.3,1.1-0.3c0.7-0.1,1.1-0.2,1.5-0.3l0-0.3
		c0-0.4-0.1-0.7-0.2-0.8c-0.2-0.2-0.5-0.4-0.9-0.4c-0.4,0-0.7,0.1-0.9,0.2c-0.2,0.2-0.3,0.5-0.4,0.9L37.9,21
		c0.1-0.6,0.3-1.1,0.7-1.4c0.3-0.3,0.8-0.4,1.5-0.4c0.5,0,0.9,0.1,1.2,0.3c0.3,0.2,0.5,0.4,0.5,0.7c0.1,0.3,0.1,0.7,0.1,1.2v1.3
		c0,0.9,0,1.5,0.1,1.8c0,0.2,0.1,0.5,0.2,0.7h-0.9C41.2,25,41.2,24.8,41.2,24.5z M41.1,22.3c-0.3,0.1-0.7,0.3-1.3,0.4
		c-0.3,0.1-0.6,0.1-0.7,0.2c-0.1,0.1-0.2,0.2-0.3,0.3c-0.1,0.1-0.1,0.3-0.1,0.5c0,0.3,0.1,0.5,0.3,0.7c0.2,0.2,0.4,0.3,0.7,0.3
		c0.3,0,0.6-0.1,0.8-0.2c0.2-0.2,0.4-0.4,0.5-0.6c0.1-0.3,0.2-0.6,0.2-1.1V22.3z"/>
	<path class="st0" d="M43.2,19.4h1.3l1.3,4.7l1.4-4.7h1.2v5.9h-0.8v-4.7l-1.4,4.7h-0.7l-1.4-5v5h-0.8V19.4z"/>
	<path class="st0" d="M49.6,19.4h0.8v2.4h2.3v-2.4h0.8v5.9h-0.8v-2.6h-2.3v2.6h-0.8V19.4z"/>
	<path class="st0" d="M54.4,22.3c0-1,0.2-1.8,0.6-2.3c0.4-0.5,1-0.8,1.6-0.8c0.6,0,1.2,0.3,1.6,0.8c0.4,0.5,0.6,1.3,0.6,2.2
		c0,1.1-0.2,1.8-0.6,2.4c-0.4,0.5-1,0.8-1.6,0.8c-0.6,0-1.2-0.3-1.6-0.8C54.6,24.1,54.4,23.3,54.4,22.3z M55.2,22.3
		c0,0.8,0.1,1.3,0.4,1.7c0.3,0.4,0.6,0.6,1,0.6c0.4,0,0.7-0.2,1-0.6c0.3-0.4,0.4-0.9,0.4-1.7c0-0.8-0.1-1.3-0.4-1.7
		c-0.3-0.4-0.6-0.6-1-0.6c-0.4,0-0.7,0.2-1,0.6C55.3,21,55.2,21.5,55.2,22.3z"/>
	<path class="st0" d="M63.1,23.3l0.8,0.1c-0.1,0.6-0.4,1.1-0.8,1.4s-0.8,0.5-1.4,0.5c-0.7,0-1.2-0.3-1.7-0.8
		c-0.4-0.5-0.6-1.3-0.6-2.2c0-1,0.2-1.8,0.6-2.3c0.4-0.5,1-0.8,1.6-0.8c0.6,0,1.1,0.3,1.6,0.8c0.4,0.5,0.6,1.3,0.6,2.3l0,0.3h-3.6
		c0,0.7,0.2,1.2,0.5,1.5c0.3,0.3,0.6,0.5,1,0.5C62.5,24.5,62.9,24.1,63.1,23.3z M60.5,21.7h2.7c0-0.5-0.1-0.9-0.3-1.1
		c-0.3-0.4-0.6-0.5-1-0.5c-0.4,0-0.7,0.2-0.9,0.5C60.6,20.8,60.5,21.2,60.5,21.7z"/>
	<path class="st0" d="M67.6,19.4h1.3l1.3,4.7l1.4-4.7h1.2v5.9h-0.8v-4.7l-1.4,4.7h-0.7l-1.4-5v5h-0.8V19.4z"/>
	<path class="st0" d="M77.3,23.3l0.8,0.1c-0.1,0.6-0.4,1.1-0.8,1.4c-0.4,0.3-0.8,0.5-1.4,0.5c-0.7,0-1.2-0.3-1.7-0.8
		c-0.4-0.5-0.6-1.3-0.6-2.2c0-1,0.2-1.8,0.6-2.3c0.4-0.5,1-0.8,1.6-0.8c0.6,0,1.1,0.3,1.6,0.8c0.4,0.5,0.6,1.3,0.6,2.3l0,0.3h-3.6
		c0,0.7,0.2,1.2,0.5,1.5c0.3,0.3,0.6,0.5,1,0.5C76.6,24.5,77,24.1,77.3,23.3z M74.6,21.7h2.7c0-0.5-0.1-0.9-0.3-1.1
		c-0.3-0.4-0.6-0.5-1-0.5c-0.4,0-0.7,0.2-0.9,0.5C74.7,20.8,74.6,21.2,74.6,21.7z"/>
	<path class="st0" d="M79.1,27.5v-8.1h0.8v0.8c0.2-0.3,0.4-0.5,0.6-0.7c0.2-0.1,0.5-0.2,0.8-0.2c0.4,0,0.7,0.1,1,0.3
		c0.3,0.2,0.6,0.6,0.7,1c0.2,0.5,0.3,1,0.3,1.7c0,1-0.2,1.8-0.6,2.3c-0.4,0.5-0.9,0.8-1.5,0.8c-0.3,0-0.5-0.1-0.7-0.2
		c-0.2-0.1-0.4-0.3-0.6-0.5v2.9H79.1z M79.9,22.3c0,0.8,0.1,1.3,0.4,1.7c0.3,0.4,0.6,0.5,0.9,0.5c0.3,0,0.6-0.2,0.9-0.6
		c0.3-0.4,0.4-0.9,0.4-1.7c0-0.8-0.1-1.3-0.4-1.7c-0.3-0.4-0.6-0.6-0.9-0.6c-0.3,0-0.6,0.2-0.9,0.6C80,21,79.9,21.6,79.9,22.3z"/>
	<path class="st0" d="M84,22.3c0-1,0.2-1.8,0.6-2.3c0.4-0.5,1-0.8,1.6-0.8c0.6,0,1.2,0.3,1.6,0.8c0.4,0.5,0.6,1.3,0.6,2.2
		c0,1.1-0.2,1.8-0.6,2.4c-0.4,0.5-1,0.8-1.6,0.8c-0.6,0-1.2-0.3-1.6-0.8C84.2,24.1,84,23.3,84,22.3z M84.8,22.3
		c0,0.8,0.1,1.3,0.4,1.7c0.3,0.4,0.6,0.6,1,0.6c0.4,0,0.7-0.2,1-0.6c0.3-0.4,0.4-0.9,0.4-1.7c0-0.8-0.1-1.3-0.4-1.7
		c-0.3-0.4-0.6-0.6-1-0.6c-0.4,0-0.7,0.2-1,0.6C85,21,84.8,21.5,84.8,22.3z"/>
	<path class="st0" d="M89.5,19.4h3.8v5.9h-0.8v-5h-2.2v5h-0.8V19.4z"/>
	<path class="st0" d="M94.5,27.5v-8.1h0.8v0.8c0.2-0.3,0.4-0.5,0.6-0.7c0.2-0.1,0.5-0.2,0.8-0.2c0.4,0,0.7,0.1,1,0.3
		c0.3,0.2,0.6,0.6,0.7,1c0.2,0.5,0.3,1,0.3,1.7c0,1-0.2,1.8-0.6,2.3c-0.4,0.5-0.9,0.8-1.5,0.8c-0.3,0-0.5-0.1-0.7-0.2
		c-0.2-0.1-0.4-0.3-0.6-0.5v2.9H94.5z M95.2,22.3c0,0.8,0.1,1.3,0.4,1.7c0.3,0.4,0.6,0.5,0.9,0.5c0.3,0,0.6-0.2,0.9-0.6
		c0.3-0.4,0.4-0.9,0.4-1.7c0-0.8-0.1-1.3-0.4-1.7c-0.3-0.4-0.6-0.6-0.9-0.6c-0.3,0-0.6,0.2-0.9,0.6C95.4,21,95.2,21.6,95.2,22.3z"/>
	<path class="st0" d="M99.7,19.4h0.8v4.5l2.3-4.5h0.9v5.9h-0.8v-4.4l-2.3,4.4h-0.9V19.4z"/>
	<path class="st0" d="M108.6,19.4v5.9h-0.8v-2.3h-0.5c-0.3,0-0.5,0-0.6,0.1c-0.1,0.1-0.4,0.4-0.6,0.9l-0.7,1.3h-1l0.9-1.6
		c0.3-0.5,0.5-0.8,0.8-0.8c-0.5-0.1-0.8-0.3-1-0.6c-0.2-0.3-0.3-0.7-0.3-1.1c0-0.5,0.2-1,0.5-1.3c0.3-0.3,0.7-0.5,1.3-0.5H108.6z
		 M107.8,20.2h-1.2c-0.5,0-0.8,0.1-0.9,0.3c-0.1,0.2-0.2,0.4-0.2,0.6c0,0.4,0.1,0.6,0.3,0.8c0.2,0.2,0.6,0.2,1.1,0.2h0.9V20.2z"/>
	<path class="st0" d="M109.4,19.4h3.9v0.8h-1.5v5H111v-5h-1.5V19.4z"/>
	<path class="st0" d="M114.1,19.4h0.8v4.5l2.3-4.5h0.9v5.9h-0.8v-4.4l-2.3,4.4h-0.9V19.4z"/>
	<path class="st0" d="M122.6,23.3l0.8,0.1c-0.1,0.6-0.4,1.1-0.8,1.4c-0.4,0.3-0.8,0.5-1.4,0.5c-0.7,0-1.2-0.3-1.7-0.8
		c-0.4-0.5-0.6-1.3-0.6-2.2c0-1,0.2-1.8,0.6-2.3c0.4-0.5,1-0.8,1.6-0.8c0.6,0,1.1,0.3,1.6,0.8c0.4,0.5,0.6,1.3,0.6,2.3l0,0.3h-3.6
		c0,0.7,0.2,1.2,0.5,1.5c0.3,0.3,0.6,0.5,1,0.5C121.9,24.5,122.3,24.1,122.6,23.3z M119.9,21.7h2.7c0-0.5-0.1-0.9-0.3-1.1
		c-0.3-0.4-0.6-0.5-1-0.5c-0.4,0-0.7,0.2-0.9,0.5C120.1,20.8,119.9,21.2,119.9,21.7z"/>
	<path class="st0" d="M128,22.3l1.2,2.5h-0.7l-1.4-2.5l1.4-2.5h0.7L128,22.3z M129.7,22.3l1.2,2.5h-0.7l-1.4-2.5l1.4-2.5h0.7
		L129.7,22.3z"/>
	<path class="st0" d="M137,22.4l0.9,0.3c-0.2,0.9-0.5,1.6-1,2c-0.5,0.4-1.1,0.7-1.8,0.7c-0.6,0-1.1-0.1-1.6-0.5
		c-0.4-0.3-0.8-0.8-1.1-1.4c-0.3-0.7-0.4-1.4-0.4-2.3c0-0.9,0.1-1.6,0.4-2.3c0.3-0.6,0.7-1.1,1.1-1.4c0.5-0.3,1-0.5,1.6-0.5
		c0.6,0,1.2,0.2,1.7,0.6c0.5,0.4,0.8,1,1,1.8l-0.9,0.2c-0.3-1.1-0.9-1.7-1.8-1.7c-0.4,0-0.8,0.1-1.2,0.3c-0.3,0.2-0.6,0.6-0.8,1.1
		c-0.2,0.5-0.3,1.1-0.3,1.8c0,1.1,0.2,1.9,0.6,2.5c0.4,0.6,0.9,0.8,1.6,0.8c0.5,0,0.9-0.2,1.2-0.5C136.7,23.6,136.9,23.1,137,22.4z"
		/>
	<path class="st0" d="M138.9,19.4h0.8v2.4h2.3v-2.4h0.8v5.9H142v-2.6h-2.3v2.6h-0.8V19.4z"/>
	<path class="st0" d="M144,19.4h0.8v4.5l2.3-4.5h0.9v5.9h-0.8v-4.4l-2.3,4.4H144V19.4z"/>
	<path class="st0" d="M149.2,19.4h0.8v2.5c0.3,0,0.4-0.1,0.5-0.2c0.1-0.1,0.3-0.5,0.5-1.1c0.2-0.5,0.3-0.8,0.4-0.9
		c0.1-0.1,0.2-0.2,0.3-0.3c0.1,0,0.3-0.1,0.7-0.1h0.1v0.8l-0.2,0c-0.2,0-0.3,0-0.4,0.1c-0.1,0.1-0.1,0.2-0.2,0.4
		c-0.2,0.6-0.3,1-0.4,1.1c-0.1,0.2-0.3,0.3-0.5,0.4c0.4,0.1,0.7,0.5,1,1.2l0.9,1.8h-0.9l-0.9-1.8c-0.2-0.4-0.3-0.6-0.5-0.7
		c-0.1-0.1-0.3-0.2-0.5-0.2v2.7h-0.8V19.4z"/>
	<path class="st0" d="M156.5,23.3l0.8,0.1c-0.1,0.6-0.4,1.1-0.8,1.4c-0.4,0.3-0.8,0.5-1.4,0.5c-0.7,0-1.2-0.3-1.7-0.8
		c-0.4-0.5-0.6-1.3-0.6-2.2c0-1,0.2-1.8,0.6-2.3c0.4-0.5,1-0.8,1.6-0.8c0.6,0,1.1,0.3,1.6,0.8c0.4,0.5,0.6,1.3,0.6,2.3l0,0.3h-3.6
		c0,0.7,0.2,1.2,0.5,1.5c0.3,0.3,0.6,0.5,1,0.5C155.9,24.5,156.3,24.1,156.5,23.3z M153.9,21.7h2.7c0-0.5-0.1-0.9-0.3-1.1
		c-0.3-0.4-0.6-0.5-1-0.5c-0.4,0-0.7,0.2-0.9,0.5C154,20.8,153.9,21.2,153.9,21.7z"/>
	<path class="st0" d="M158.4,27.5v-8.1h0.8v0.8c0.2-0.3,0.4-0.5,0.6-0.7c0.2-0.1,0.5-0.2,0.8-0.2c0.4,0,0.7,0.1,1,0.3
		c0.3,0.2,0.6,0.6,0.7,1c0.2,0.5,0.3,1,0.3,1.7c0,1-0.2,1.8-0.6,2.3c-0.4,0.5-0.9,0.8-1.5,0.8c-0.3,0-0.5-0.1-0.7-0.2
		c-0.2-0.1-0.4-0.3-0.6-0.5v2.9H158.4z M159.2,22.3c0,0.8,0.1,1.3,0.4,1.7c0.3,0.4,0.6,0.5,0.9,0.5c0.3,0,0.6-0.2,0.9-0.6
		c0.3-0.4,0.4-0.9,0.4-1.7c0-0.8-0.1-1.3-0.4-1.7c-0.3-0.4-0.6-0.6-0.9-0.6c-0.3,0-0.6,0.2-0.9,0.6C159.3,21,159.2,21.6,159.2,22.3z
		"/>
	<path class="st0" d="M166.7,23.1l0.8,0.1c-0.1,0.7-0.3,1.2-0.7,1.6c-0.4,0.4-0.8,0.6-1.3,0.6c-0.6,0-1.1-0.3-1.6-0.8
		c-0.4-0.5-0.6-1.3-0.6-2.3c0-1,0.2-1.8,0.6-2.3c0.4-0.5,0.9-0.8,1.6-0.8c0.5,0,0.9,0.2,1.3,0.5c0.3,0.3,0.6,0.8,0.7,1.4l-0.8,0.1
		c-0.1-0.4-0.2-0.7-0.4-0.9c-0.2-0.2-0.4-0.3-0.7-0.3c-0.4,0-0.7,0.2-1,0.5c-0.3,0.4-0.4,0.9-0.4,1.7c0,0.8,0.1,1.4,0.4,1.7
		c0.3,0.4,0.6,0.5,1,0.5c0.3,0,0.6-0.1,0.8-0.4C166.5,23.9,166.7,23.6,166.7,23.1z"/>
	<path class="st0" d="M168.2,19.4h0.8v2.4h2.3v-2.4h0.8v5.9h-0.8v-2.6H169v2.6h-0.8V19.4z"/>
	<path class="st0" d="M173.4,19.4h0.8v4.5l2.3-4.5h0.9v5.9h-0.8v-4.4l-2.3,4.4h-0.9V19.4z"/>
	<path class="st0" d="M179,23.2l-0.2-4.3v-1.8h1v1.8l-0.2,4.3H179z M178.8,25.2v-1.1h0.9v1.1H178.8z"/>
	<path class="st0" d="M184.7,25.2h-0.9v-8.1h5.2v8.1h-0.9v-7.1h-3.5V25.2z"/>
	<path class="st0" d="M190.4,27.5v-8.1h0.8v0.8c0.2-0.3,0.4-0.5,0.6-0.7c0.2-0.1,0.5-0.2,0.8-0.2c0.4,0,0.7,0.1,1,0.3
		c0.3,0.2,0.6,0.6,0.7,1c0.2,0.5,0.3,1,0.3,1.7c0,1-0.2,1.8-0.6,2.3s-0.9,0.8-1.5,0.8c-0.3,0-0.5-0.1-0.7-0.2
		c-0.2-0.1-0.4-0.3-0.6-0.5v2.9H190.4z M191.1,22.3c0,0.8,0.1,1.3,0.4,1.7c0.3,0.4,0.6,0.5,0.9,0.5c0.3,0,0.6-0.2,0.9-0.6
		c0.3-0.4,0.4-0.9,0.4-1.7c0-0.8-0.1-1.3-0.4-1.7c-0.3-0.4-0.6-0.6-0.9-0.6c-0.3,0-0.6,0.2-0.9,0.6C191.3,21,191.1,21.6,191.1,22.3z
		"/>
	<path class="st0" d="M195.2,22.3c0-1,0.2-1.8,0.6-2.3c0.4-0.5,1-0.8,1.6-0.8c0.6,0,1.2,0.3,1.6,0.8c0.4,0.5,0.6,1.3,0.6,2.2
		c0,1.1-0.2,1.8-0.6,2.4c-0.4,0.5-1,0.8-1.6,0.8c-0.6,0-1.2-0.3-1.6-0.8C195.5,24.1,195.2,23.3,195.2,22.3z M196.1,22.3
		c0,0.8,0.1,1.3,0.4,1.7c0.3,0.4,0.6,0.6,1,0.6c0.4,0,0.7-0.2,1-0.6c0.3-0.4,0.4-0.9,0.4-1.7c0-0.8-0.1-1.3-0.4-1.7
		c-0.3-0.4-0.6-0.6-1-0.6c-0.4,0-0.7,0.2-1,0.6C196.2,21,196.1,21.5,196.1,22.3z"/>
	<path class="st0" d="M200.7,19.4h0.8v2.5c0.3,0,0.4-0.1,0.5-0.2c0.1-0.1,0.3-0.5,0.5-1.1c0.2-0.5,0.3-0.8,0.4-0.9
		c0.1-0.1,0.2-0.2,0.3-0.3c0.1,0,0.3-0.1,0.7-0.1h0.1v0.8l-0.2,0c-0.2,0-0.3,0-0.4,0.1c-0.1,0.1-0.1,0.2-0.2,0.4
		c-0.2,0.6-0.3,1-0.4,1.1c-0.1,0.2-0.3,0.3-0.5,0.4c0.4,0.1,0.7,0.5,1,1.2l0.9,1.8h-0.9l-0.9-1.8c-0.2-0.4-0.3-0.6-0.5-0.7
		c-0.1-0.1-0.3-0.2-0.5-0.2v2.7h-0.8V19.4z"/>
	<path class="st0" d="M207.9,24.5c-0.3,0.3-0.6,0.5-0.9,0.6c-0.3,0.1-0.6,0.2-0.9,0.2c-0.5,0-0.9-0.2-1.2-0.5
		c-0.3-0.3-0.4-0.7-0.4-1.2c0-0.3,0.1-0.6,0.2-0.9c0.1-0.3,0.3-0.5,0.6-0.6c0.2-0.1,0.6-0.3,1.1-0.3c0.7-0.1,1.1-0.2,1.5-0.3l0-0.3
		c0-0.4-0.1-0.7-0.2-0.8c-0.2-0.2-0.5-0.4-0.9-0.4c-0.4,0-0.7,0.1-0.9,0.2c-0.2,0.2-0.3,0.5-0.4,0.9l-0.8-0.1
		c0.1-0.6,0.3-1.1,0.7-1.4c0.3-0.3,0.8-0.4,1.5-0.4c0.5,0,0.9,0.1,1.2,0.3c0.3,0.2,0.5,0.4,0.5,0.7c0.1,0.3,0.1,0.7,0.1,1.2v1.3
		c0,0.9,0,1.5,0.1,1.8c0,0.2,0.1,0.5,0.2,0.7h-0.9C208,25,207.9,24.8,207.9,24.5z M207.8,22.3c-0.3,0.1-0.7,0.3-1.3,0.4
		c-0.3,0.1-0.6,0.1-0.7,0.2c-0.1,0.1-0.2,0.2-0.3,0.3s-0.1,0.3-0.1,0.5c0,0.3,0.1,0.5,0.3,0.7c0.2,0.2,0.4,0.3,0.7,0.3
		c0.3,0,0.6-0.1,0.8-0.2c0.2-0.2,0.4-0.4,0.5-0.6c0.1-0.3,0.2-0.6,0.2-1.1V22.3z"/>
	<path class="st0" d="M209.6,19.4h0.8v1.1c0,0.5,0,0.8,0.1,1.1c0.1,0.2,0.2,0.4,0.3,0.6c0.2,0.1,0.4,0.2,0.6,0.2
		c0.3,0,0.7-0.1,1.2-0.3v-2.7h0.8v5.9h-0.8v-2.4c-0.5,0.2-1,0.3-1.4,0.3c-0.5,0-0.9-0.2-1.2-0.6c-0.3-0.4-0.5-0.9-0.5-1.7V19.4z"/>
	<path class="st0" d="M217.9,24.5c-0.3,0.3-0.6,0.5-0.9,0.6c-0.3,0.1-0.6,0.2-0.9,0.2c-0.5,0-0.9-0.2-1.2-0.5
		c-0.3-0.3-0.4-0.7-0.4-1.2c0-0.3,0.1-0.6,0.2-0.9c0.1-0.3,0.3-0.5,0.6-0.6c0.2-0.1,0.6-0.3,1.1-0.3c0.7-0.1,1.1-0.2,1.5-0.3l0-0.3
		c0-0.4-0.1-0.7-0.2-0.8c-0.2-0.2-0.5-0.4-0.9-0.4c-0.4,0-0.7,0.1-0.9,0.2c-0.2,0.2-0.3,0.5-0.4,0.9l-0.8-0.1
		c0.1-0.6,0.3-1.1,0.7-1.4c0.3-0.3,0.8-0.4,1.5-0.4c0.5,0,0.9,0.1,1.2,0.3c0.3,0.2,0.5,0.4,0.5,0.7c0.1,0.3,0.1,0.7,0.1,1.2v1.3
		c0,0.9,0,1.5,0.1,1.8c0,0.2,0.1,0.5,0.2,0.7h-0.9C218,25,217.9,24.8,217.9,24.5z M217.8,22.3c-0.3,0.1-0.7,0.3-1.3,0.4
		c-0.3,0.1-0.6,0.1-0.7,0.2c-0.1,0.1-0.2,0.2-0.3,0.3c-0.1,0.1-0.1,0.3-0.1,0.5c0,0.3,0.1,0.5,0.3,0.7c0.2,0.2,0.4,0.3,0.7,0.3
		c0.3,0,0.6-0.1,0.8-0.2c0.2-0.2,0.4-0.4,0.5-0.6c0.1-0.3,0.2-0.6,0.2-1.1V22.3z"/>
	<path class="st0" d="M219.9,19.4h0.8v4.5l2.3-4.5h0.9v5.9h-0.8v-4.4l-2.3,4.4h-0.9V19.4z M222.7,17.1h0.6c0,0.5-0.2,0.8-0.4,1.1
		c-0.2,0.2-0.5,0.4-0.9,0.4c-0.4,0-0.7-0.1-0.9-0.4c-0.2-0.2-0.4-0.6-0.4-1.1h0.6c0.1,0.5,0.3,0.7,0.8,0.7c0.2,0,0.4-0.1,0.5-0.2
		C222.5,17.6,222.6,17.4,222.7,17.1z"/>
	<path class="st0" d="M9.9,29.6h1.3l1.3,4.7l1.4-4.7H15v5.9h-0.8v-4.7l-1.4,4.7H12l-1.4-5v5H9.9V29.6z"/>
	<path class="st0" d="M15.9,32.6c0-1,0.2-1.8,0.6-2.3c0.4-0.5,1-0.8,1.6-0.8c0.6,0,1.2,0.3,1.6,0.8c0.4,0.5,0.6,1.3,0.6,2.2
		c0,1.1-0.2,1.8-0.6,2.4c-0.4,0.5-1,0.8-1.6,0.8c-0.6,0-1.2-0.3-1.6-0.8C16.1,34.4,15.9,33.6,15.9,32.6z M16.8,32.6
		c0,0.8,0.1,1.3,0.4,1.7c0.3,0.4,0.6,0.6,1,0.6c0.4,0,0.7-0.2,1-0.6c0.3-0.4,0.4-0.9,0.4-1.7c0-0.8-0.1-1.3-0.4-1.7
		c-0.3-0.4-0.6-0.6-1-0.6c-0.4,0-0.7,0.2-1,0.6C16.9,31.3,16.8,31.8,16.8,32.6z"/>
	<path class="st0" d="M22.5,32.9v-0.8c0.3,0,0.6,0,0.7,0c0.1,0,0.2-0.1,0.3-0.3c0.1-0.1,0.2-0.3,0.2-0.6c0-0.3-0.1-0.5-0.2-0.6
		c-0.1-0.2-0.3-0.2-0.6-0.2c-0.5,0-0.8,0.3-1,1l-0.8-0.2c0.2-1.1,0.8-1.7,1.7-1.7c0.5,0,0.9,0.2,1.2,0.5c0.3,0.3,0.4,0.7,0.4,1.2
		c0,0.5-0.2,0.8-0.6,1.1c0.5,0.3,0.7,0.8,0.7,1.5c0,0.5-0.2,1-0.5,1.3c-0.3,0.3-0.8,0.5-1.3,0.5c-1.1,0-1.7-0.6-1.9-1.8l0.8-0.2
		c0.1,0.4,0.2,0.7,0.4,0.9c0.2,0.2,0.5,0.3,0.7,0.3c0.3,0,0.5-0.1,0.7-0.3c0.2-0.2,0.3-0.4,0.3-0.7c0-0.2-0.1-0.4-0.2-0.6
		c-0.1-0.2-0.2-0.3-0.4-0.3c-0.1,0-0.3-0.1-0.6-0.1L22.5,32.9z"/>
	<path class="st0" d="M25.7,29.6h2.8v0.8h-2v5h-0.8V29.6z"/>
	<path class="st0" d="M29,29.6h0.8v4.5l2.3-4.5H33v5.9h-0.8v-4.4l-2.3,4.4H29V29.6z"/>
	<path class="st0" d="M34.7,33.5l-0.2-4.3v-1.8h1v1.8l-0.2,4.3H34.7z M34.5,35.5v-1.1h0.9v1.1H34.5z"/>
	<path class="st0" d="M38,32.6l-1.2-2.5h0.7l1.4,2.5l-1.4,2.5h-0.7L38,32.6z M39.8,32.6l-1.2-2.5h0.7l1.4,2.5l-1.4,2.5h-0.7
		L39.8,32.6z"/>
	<path class="st0" d="M42.2,35.5v-1.1h0.9v1.1H42.2z"/>
	<path class="st0" d="M52,32.7l0.9,0.3c-0.2,0.9-0.5,1.6-1,2c-0.5,0.4-1.1,0.7-1.8,0.7c-0.6,0-1.1-0.1-1.6-0.5
		c-0.4-0.3-0.8-0.8-1.1-1.4c-0.3-0.7-0.4-1.4-0.4-2.3c0-0.9,0.1-1.6,0.4-2.3c0.3-0.6,0.7-1.1,1.1-1.4c0.5-0.3,1-0.5,1.6-0.5
		c0.6,0,1.2,0.2,1.7,0.6c0.5,0.4,0.8,1,1,1.8l-0.9,0.2c-0.3-1.1-0.9-1.7-1.8-1.7c-0.4,0-0.8,0.1-1.2,0.3c-0.3,0.2-0.6,0.6-0.8,1.1
		c-0.2,0.5-0.3,1.1-0.3,1.8c0,1.1,0.2,1.9,0.6,2.5c0.4,0.6,0.9,0.8,1.6,0.8c0.5,0,0.9-0.2,1.2-0.5C51.6,33.9,51.8,33.4,52,32.7z"/>
	<path class="st0" d="M53.8,37.8v-8.1h0.8v0.8c0.2-0.3,0.4-0.5,0.6-0.7c0.2-0.1,0.5-0.2,0.8-0.2c0.4,0,0.7,0.1,1,0.3
		c0.3,0.2,0.6,0.6,0.7,1c0.2,0.5,0.3,1,0.3,1.7c0,1-0.2,1.8-0.6,2.3c-0.4,0.5-0.9,0.8-1.5,0.8c-0.3,0-0.5-0.1-0.7-0.2
		c-0.2-0.1-0.4-0.3-0.6-0.5v2.9H53.8z M54.6,32.6c0,0.8,0.1,1.3,0.4,1.7c0.3,0.4,0.6,0.5,0.9,0.5c0.3,0,0.6-0.2,0.9-0.6
		c0.3-0.4,0.4-0.9,0.4-1.7c0-0.8-0.1-1.3-0.4-1.7s-0.6-0.6-0.9-0.6c-0.3,0-0.6,0.2-0.9,0.6C54.7,31.3,54.6,31.9,54.6,32.6z"/>
	<path class="st0" d="M58.7,32.6c0-1,0.2-1.8,0.6-2.3c0.4-0.5,1-0.8,1.6-0.8c0.6,0,1.2,0.3,1.6,0.8c0.4,0.5,0.6,1.3,0.6,2.2
		c0,1.1-0.2,1.8-0.6,2.4c-0.4,0.5-1,0.8-1.6,0.8c-0.6,0-1.2-0.3-1.6-0.8C58.9,34.4,58.7,33.6,58.7,32.6z M59.5,32.6
		c0,0.8,0.1,1.3,0.4,1.7c0.3,0.4,0.6,0.6,1,0.6c0.4,0,0.7-0.2,1-0.6c0.3-0.4,0.4-0.9,0.4-1.7c0-0.8-0.1-1.3-0.4-1.7
		c-0.3-0.4-0.6-0.6-1-0.6c-0.4,0-0.7,0.2-1,0.6C59.6,31.3,59.5,31.8,59.5,32.6z"/>
	<path class="st0" d="M64.1,29.6H65v2.5c0.3,0,0.4-0.1,0.5-0.2c0.1-0.1,0.3-0.5,0.5-1.1c0.2-0.5,0.3-0.8,0.4-0.9
		c0.1-0.1,0.2-0.2,0.3-0.3c0.1,0,0.3-0.1,0.7-0.1h0.1v0.8l-0.2,0c-0.2,0-0.3,0-0.4,0.1c-0.1,0.1-0.1,0.2-0.2,0.4
		c-0.2,0.6-0.3,1-0.4,1.1c-0.1,0.2-0.3,0.3-0.5,0.4c0.4,0.1,0.7,0.5,1,1.2l0.9,1.8h-0.9l-0.9-1.8c-0.2-0.4-0.3-0.6-0.5-0.7
		c-0.1-0.1-0.3-0.2-0.5-0.2v2.7h-0.8V29.6z"/>
	<path class="st0" d="M68.2,29.6H69v4.5l2.3-4.5h0.9v5.9h-0.8v-4.4l-2.3,4.4h-0.9V29.6z"/>
	<path class="st0" d="M76,29.6h3.8v5.9H79v-5h-2.2v5H76V29.6z"/>
	<path class="st0" d="M81,37.8v-8.1h0.8v0.8c0.2-0.3,0.4-0.5,0.6-0.7c0.2-0.1,0.5-0.2,0.8-0.2c0.4,0,0.7,0.1,1,0.3
		c0.3,0.2,0.6,0.6,0.7,1c0.2,0.5,0.3,1,0.3,1.7c0,1-0.2,1.8-0.6,2.3c-0.4,0.5-0.9,0.8-1.5,0.8c-0.3,0-0.5-0.1-0.7-0.2
		c-0.2-0.1-0.4-0.3-0.6-0.5v2.9H81z M81.7,32.6c0,0.8,0.1,1.3,0.4,1.7c0.3,0.4,0.6,0.5,0.9,0.5c0.3,0,0.6-0.2,0.9-0.6
		c0.3-0.4,0.4-0.9,0.4-1.7c0-0.8-0.1-1.3-0.4-1.7c-0.3-0.4-0.6-0.6-0.9-0.6c-0.3,0-0.6,0.2-0.9,0.6C81.9,31.3,81.7,31.9,81.7,32.6z"
		/>
	<path class="st0" d="M85.8,32.6c0-1,0.2-1.8,0.6-2.3c0.4-0.5,1-0.8,1.6-0.8c0.6,0,1.2,0.3,1.6,0.8c0.4,0.5,0.6,1.3,0.6,2.2
		c0,1.1-0.2,1.8-0.6,2.4c-0.4,0.5-1,0.8-1.6,0.8c-0.6,0-1.2-0.3-1.6-0.8C86.1,34.4,85.8,33.6,85.8,32.6z M86.7,32.6
		c0,0.8,0.1,1.3,0.4,1.7c0.3,0.4,0.6,0.6,1,0.6c0.4,0,0.7-0.2,1-0.6c0.3-0.4,0.4-0.9,0.4-1.7c0-0.8-0.1-1.3-0.4-1.7
		c-0.3-0.4-0.6-0.6-1-0.6c-0.4,0-0.7,0.2-1,0.6C86.8,31.3,86.7,31.8,86.7,32.6z"/>
	<path class="st0" d="M91.3,29.6h1.9c0.4,0,0.8,0,1,0.1c0.2,0.1,0.4,0.2,0.6,0.5c0.2,0.3,0.3,0.6,0.3,0.9c0,0.6-0.2,1-0.6,1.3
		c0.5,0.2,0.8,0.7,0.8,1.4c0,0.5-0.1,0.8-0.4,1.2c-0.3,0.3-0.7,0.5-1.4,0.5h-2.2V29.6z M92.1,32.1H93c0.3,0,0.6,0,0.7-0.1
		c0.1,0,0.2-0.1,0.3-0.3c0.1-0.1,0.2-0.3,0.2-0.5c0-0.3-0.1-0.5-0.3-0.6c-0.2-0.1-0.5-0.2-0.9-0.2h-0.9V32.1z M92.1,34.7h1.1
		c0.5,0,0.8-0.1,1-0.2c0.2-0.1,0.3-0.4,0.3-0.7c0-0.3-0.1-0.5-0.3-0.7c-0.2-0.1-0.5-0.2-1-0.2h-1V34.7z"/>
	<path class="st0" d="M99.5,33.6l0.8,0.1c-0.1,0.6-0.4,1.1-0.8,1.4c-0.4,0.3-0.8,0.5-1.4,0.5c-0.7,0-1.2-0.3-1.7-0.8
		c-0.4-0.5-0.6-1.3-0.6-2.2c0-1,0.2-1.8,0.6-2.3s1-0.8,1.6-0.8c0.6,0,1.1,0.3,1.6,0.8c0.4,0.5,0.6,1.3,0.6,2.3l0,0.3h-3.6
		c0,0.7,0.2,1.2,0.5,1.5c0.3,0.3,0.6,0.5,1,0.5C98.9,34.8,99.3,34.4,99.5,33.6z M96.9,32h2.7c0-0.5-0.1-0.9-0.3-1.1
		c-0.3-0.4-0.6-0.5-1-0.5c-0.4,0-0.7,0.2-0.9,0.5C97,31.1,96.9,31.5,96.9,32z"/>
	<path class="st0" d="M102.1,29.6h3.3v5.1h0.5v2.5h-0.7v-1.7h-3.8v1.7h-0.7v-2.5h0.4C101.8,33.8,102.1,32.1,102.1,29.6z M102.7,30.5
		c-0.1,1.9-0.3,3.3-0.7,4.2h2.6v-4.2H102.7z"/>
	<path class="st0" d="M110.1,33.6l0.8,0.1c-0.1,0.6-0.4,1.1-0.8,1.4c-0.4,0.3-0.8,0.5-1.4,0.5c-0.7,0-1.2-0.3-1.7-0.8
		c-0.4-0.5-0.6-1.3-0.6-2.2c0-1,0.2-1.8,0.6-2.3s1-0.8,1.6-0.8c0.6,0,1.1,0.3,1.6,0.8c0.4,0.5,0.6,1.3,0.6,2.3l0,0.3h-3.6
		c0,0.7,0.2,1.2,0.5,1.5c0.3,0.3,0.6,0.5,1,0.5C109.4,34.8,109.9,34.4,110.1,33.6z M107.4,32h2.7c0-0.5-0.1-0.9-0.3-1.1
		c-0.3-0.4-0.6-0.5-1-0.5c-0.4,0-0.7,0.2-0.9,0.5C107.6,31.1,107.4,31.5,107.4,32z"/>
	<path class="st0" d="M112,29.6h0.8v2.4h2.3v-2.4h0.8v5.9h-0.8v-2.6h-2.3v2.6H112V29.6z"/>
	<path class="st0" d="M117.1,29.6h0.8v4.5l2.3-4.5h0.9v5.9h-0.8v-4.4l-2.3,4.4h-0.9V29.6z"/>
	<path class="st0" d="M126.1,29.6v5.9h-0.8v-2.3h-0.5c-0.3,0-0.5,0-0.6,0.1c-0.1,0.1-0.4,0.4-0.6,0.9l-0.7,1.3h-1l0.9-1.6
		c0.3-0.5,0.5-0.8,0.8-0.8c-0.5-0.1-0.8-0.3-1-0.6c-0.2-0.3-0.3-0.7-0.3-1.1c0-0.5,0.2-1,0.5-1.3c0.3-0.3,0.7-0.5,1.3-0.5H126.1z
		 M125.3,30.5h-1.2c-0.5,0-0.8,0.1-0.9,0.3c-0.1,0.2-0.2,0.4-0.2,0.6c0,0.4,0.1,0.6,0.3,0.8c0.2,0.2,0.6,0.2,1.1,0.2h0.9V30.5z"/>
	<path class="st0" d="M127.6,30.8v-1.1h0.9v1.1H127.6z M127.6,35.5v-1.1h0.9v1.1H127.6z"/>
	<path class="st0" d="M136.5,34.6v1h-4.4c0-0.4,0.1-0.8,0.4-1.3c0.2-0.5,0.7-1,1.3-1.7c0.8-0.8,1.3-1.3,1.5-1.8
		c0.2-0.4,0.4-0.8,0.4-1.2c0-0.4-0.1-0.7-0.4-1c-0.2-0.3-0.5-0.4-0.9-0.4c-0.4,0-0.7,0.1-0.9,0.4c-0.2,0.3-0.4,0.7-0.4,1.2l-0.8-0.1
		c0.1-0.8,0.3-1.4,0.7-1.8c0.4-0.4,0.9-0.6,1.5-0.6c0.7,0,1.2,0.2,1.5,0.7c0.3,0.5,0.5,1,0.5,1.6c0,0.5-0.1,1-0.4,1.5
		c-0.3,0.5-0.8,1.1-1.6,1.9c-0.5,0.5-0.8,0.8-0.9,1c-0.1,0.2-0.3,0.4-0.3,0.5H136.5z"/>
	<path class="st0" d="M137.5,33.6l0.8-0.1c0.1,0.9,0.5,1.3,1.1,1.3c0.3,0,0.5-0.1,0.7-0.3c0.2-0.2,0.4-0.5,0.6-1
		c0.2-0.5,0.2-1,0.2-1.7v-0.2c-0.2,0.3-0.4,0.6-0.7,0.8c-0.3,0.2-0.6,0.3-0.9,0.3c-0.5,0-1-0.2-1.4-0.7c-0.4-0.5-0.6-1.1-0.6-1.9
		c0-0.8,0.2-1.5,0.6-2s0.9-0.7,1.5-0.7c0.4,0,0.8,0.1,1.2,0.4c0.4,0.3,0.6,0.7,0.8,1.2c0.2,0.5,0.3,1.3,0.3,2.3c0,1.1-0.1,2-0.3,2.6
		s-0.5,1.1-0.9,1.3s-0.8,0.4-1.2,0.4c-0.5,0-0.9-0.2-1.3-0.5C137.8,34.8,137.6,34.3,137.5,33.6z M140.9,30.1c0-0.6-0.1-1-0.4-1.4
		c-0.3-0.3-0.6-0.5-0.9-0.5c-0.4,0-0.7,0.2-0.9,0.5c-0.3,0.4-0.4,0.8-0.4,1.4c0,0.5,0.1,1,0.4,1.3c0.3,0.3,0.6,0.5,0.9,0.5
		c0.4,0,0.7-0.2,0.9-0.5C140.7,31.1,140.9,30.6,140.9,30.1z"/>
	<path class="st0" d="M145.4,29.6h1.3l1.3,4.7l1.4-4.7h1.2v5.9h-0.8v-4.7l-1.4,4.7h-0.7l-1.4-5v5h-0.8V29.6z"/>
	<path class="st0" d="M154.9,34.8c-0.3,0.3-0.6,0.5-0.9,0.6c-0.3,0.1-0.6,0.2-0.9,0.2c-0.5,0-0.9-0.2-1.2-0.5
		c-0.3-0.3-0.4-0.7-0.4-1.2c0-0.3,0.1-0.6,0.2-0.9c0.1-0.3,0.3-0.5,0.6-0.6c0.2-0.1,0.6-0.3,1.1-0.3c0.7-0.1,1.1-0.2,1.5-0.3l0-0.3
		c0-0.4-0.1-0.7-0.2-0.8c-0.2-0.2-0.5-0.4-0.9-0.4c-0.4,0-0.7,0.1-0.9,0.2c-0.2,0.2-0.3,0.5-0.4,0.9l-0.8-0.1
		c0.1-0.6,0.3-1.1,0.7-1.4c0.3-0.3,0.8-0.4,1.5-0.4c0.5,0,0.9,0.1,1.2,0.3c0.3,0.2,0.5,0.4,0.5,0.7c0.1,0.3,0.1,0.7,0.1,1.2v1.3
		c0,0.9,0,1.5,0.1,1.8c0,0.2,0.1,0.5,0.2,0.7h-0.9C155,35.3,154.9,35.1,154.9,34.8z M154.8,32.6c-0.3,0.1-0.7,0.3-1.3,0.4
		c-0.3,0.1-0.6,0.1-0.7,0.2c-0.1,0.1-0.2,0.2-0.3,0.3c-0.1,0.1-0.1,0.3-0.1,0.5c0,0.3,0.1,0.5,0.3,0.7c0.2,0.2,0.4,0.3,0.7,0.3
		c0.3,0,0.6-0.1,0.8-0.2c0.2-0.2,0.4-0.4,0.5-0.6c0.1-0.3,0.2-0.6,0.2-1.1V32.6z"/>
	<path class="st0" d="M156.9,37.8v-8.1h0.8v0.8c0.2-0.3,0.4-0.5,0.6-0.7c0.2-0.1,0.5-0.2,0.8-0.2c0.4,0,0.7,0.1,1,0.3
		c0.3,0.2,0.6,0.6,0.7,1c0.2,0.5,0.3,1,0.3,1.7c0,1-0.2,1.8-0.6,2.3s-0.9,0.8-1.5,0.8c-0.3,0-0.5-0.1-0.7-0.2
		c-0.2-0.1-0.4-0.3-0.6-0.5v2.9H156.9z M157.7,32.6c0,0.8,0.1,1.3,0.4,1.7c0.3,0.4,0.6,0.5,0.9,0.5c0.3,0,0.6-0.2,0.9-0.6
		c0.3-0.4,0.4-0.9,0.4-1.7c0-0.8-0.1-1.3-0.4-1.7c-0.3-0.4-0.6-0.6-0.9-0.6c-0.3,0-0.6,0.2-0.9,0.6
		C157.8,31.3,157.7,31.9,157.7,32.6z"/>
	<path class="st0" d="M161.6,29.6h3.9v0.8H164v5h-0.8v-5h-1.5V29.6z"/>
	<path class="st0" d="M169.5,34.8c-0.3,0.3-0.6,0.5-0.9,0.6c-0.3,0.1-0.6,0.2-0.9,0.2c-0.5,0-0.9-0.2-1.2-0.5
		c-0.3-0.3-0.4-0.7-0.4-1.2c0-0.3,0.1-0.6,0.2-0.9c0.1-0.3,0.3-0.5,0.6-0.6c0.2-0.1,0.6-0.3,1.1-0.3c0.7-0.1,1.1-0.2,1.5-0.3l0-0.3
		c0-0.4-0.1-0.7-0.2-0.8c-0.2-0.2-0.5-0.4-0.9-0.4c-0.4,0-0.7,0.1-0.9,0.2c-0.2,0.2-0.3,0.5-0.4,0.9l-0.8-0.1
		c0.1-0.6,0.3-1.1,0.7-1.4c0.3-0.3,0.8-0.4,1.5-0.4c0.5,0,0.9,0.1,1.2,0.3c0.3,0.2,0.5,0.4,0.5,0.7c0.1,0.3,0.1,0.7,0.1,1.2v1.3
		c0,0.9,0,1.5,0.1,1.8c0,0.2,0.1,0.5,0.2,0.7h-0.9C169.5,35.3,169.5,35.1,169.5,34.8z M169.4,32.6c-0.3,0.1-0.7,0.3-1.3,0.4
		c-0.3,0.1-0.6,0.1-0.7,0.2c-0.1,0.1-0.2,0.2-0.3,0.3c-0.1,0.1-0.1,0.3-0.1,0.5c0,0.3,0.1,0.5,0.3,0.7c0.2,0.2,0.4,0.3,0.7,0.3
		c0.3,0,0.6-0.1,0.8-0.2c0.2-0.2,0.4-0.4,0.5-0.6c0.1-0.3,0.2-0.6,0.2-1.1V32.6z"/>
	<path class="st0" d="M173.8,33.1v-1h2.5v1H173.8z"/>
	<path class="st0" d="M179.5,33.4l0.8-0.1c0.2,1.1,0.6,1.6,1.3,1.6c0.4,0,0.7-0.2,1-0.5c0.3-0.3,0.4-0.7,0.4-1.2
		c0-0.5-0.1-0.9-0.4-1.1c-0.3-0.3-0.6-0.4-0.9-0.4c-0.2,0-0.3,0-0.6,0.1l0.1-0.9l0.1,0c0.4,0,0.7-0.1,1-0.4c0.3-0.2,0.4-0.6,0.4-1
		c0-0.4-0.1-0.7-0.3-0.9c-0.2-0.2-0.5-0.3-0.8-0.3c-0.3,0-0.6,0.1-0.8,0.4c-0.2,0.2-0.4,0.6-0.4,1.1l-0.8-0.2
		c0.1-0.7,0.3-1.2,0.7-1.6c0.4-0.4,0.8-0.5,1.3-0.5c0.5,0,1,0.2,1.4,0.6c0.4,0.4,0.6,0.9,0.6,1.5c0,0.4-0.1,0.7-0.2,1
		c-0.2,0.3-0.4,0.5-0.7,0.7c0.3,0.1,0.5,0.2,0.7,0.4c0.2,0.2,0.3,0.4,0.4,0.7c0.1,0.3,0.2,0.6,0.2,0.9c0,0.7-0.2,1.4-0.7,1.8
		c-0.4,0.5-1,0.7-1.6,0.7c-0.6,0-1-0.2-1.4-0.6C179.8,34.6,179.6,34.1,179.5,33.4z"/>
	<path class="st0" d="M184.7,31.5c0-1.4,0.2-2.4,0.5-3.1c0.4-0.7,0.9-1,1.6-1c0.6,0,1.1,0.3,1.5,0.9c0.4,0.7,0.7,1.8,0.7,3.3
		c0,1.4-0.2,2.4-0.5,3.1s-0.9,1.1-1.6,1.1c-0.6,0-1.2-0.3-1.6-0.9C184.9,34.1,184.7,33,184.7,31.5z M185.5,31.5
		c0,1.3,0.1,2.2,0.4,2.6c0.3,0.4,0.6,0.7,1,0.7c0.4,0,0.7-0.2,0.9-0.7c0.3-0.5,0.4-1.3,0.4-2.6c0-1.3-0.1-2.2-0.4-2.6
		c-0.3-0.4-0.6-0.7-1-0.7c-0.4,0-0.7,0.2-0.9,0.7C185.6,29.3,185.5,30.2,185.5,31.5z"/>
	<path class="st0" d="M192.7,29.6h1.3l1.3,4.7l1.4-4.7h1.2v5.9H197v-4.7l-1.4,4.7h-0.7l-1.4-5v5h-0.8V29.6z"/>
	<path class="st0" d="M202.2,34.8c-0.3,0.3-0.6,0.5-0.9,0.6s-0.6,0.2-0.9,0.2c-0.5,0-0.9-0.2-1.2-0.5c-0.3-0.3-0.4-0.7-0.4-1.2
		c0-0.3,0.1-0.6,0.2-0.9c0.1-0.3,0.3-0.5,0.6-0.6c0.2-0.1,0.6-0.3,1.1-0.3c0.7-0.1,1.1-0.2,1.5-0.3l0-0.3c0-0.4-0.1-0.7-0.2-0.8
		c-0.2-0.2-0.5-0.4-0.9-0.4c-0.4,0-0.7,0.1-0.9,0.2c-0.2,0.2-0.3,0.5-0.4,0.9l-0.8-0.1c0.1-0.6,0.3-1.1,0.7-1.4
		c0.3-0.3,0.8-0.4,1.5-0.4c0.5,0,0.9,0.1,1.2,0.3c0.3,0.2,0.5,0.4,0.5,0.7c0.1,0.3,0.1,0.7,0.1,1.2v1.3c0,0.9,0,1.5,0.1,1.8
		c0,0.2,0.1,0.5,0.2,0.7h-0.9C202.2,35.3,202.2,35.1,202.2,34.8z M202.1,32.6c-0.3,0.1-0.7,0.3-1.3,0.4c-0.3,0.1-0.6,0.1-0.7,0.2
		c-0.1,0.1-0.2,0.2-0.3,0.3c-0.1,0.1-0.1,0.3-0.1,0.5c0,0.3,0.1,0.5,0.3,0.7c0.2,0.2,0.4,0.3,0.7,0.3c0.3,0,0.6-0.1,0.8-0.2
		c0.2-0.2,0.4-0.4,0.5-0.6c0.1-0.3,0.2-0.6,0.2-1.1V32.6z"/>
	<path class="st0" d="M208,29.6v5.9h-0.8v-2.3h-0.5c-0.3,0-0.5,0-0.6,0.1c-0.1,0.1-0.4,0.4-0.6,0.9l-0.7,1.3h-1l0.9-1.6
		c0.3-0.5,0.5-0.8,0.8-0.8c-0.5-0.1-0.8-0.3-1-0.6c-0.2-0.3-0.3-0.7-0.3-1.1c0-0.5,0.2-1,0.5-1.3c0.3-0.3,0.7-0.5,1.3-0.5H208z
		 M207.2,30.5H206c-0.5,0-0.8,0.1-0.9,0.3c-0.1,0.2-0.2,0.4-0.2,0.6c0,0.4,0.1,0.6,0.3,0.8c0.2,0.2,0.6,0.2,1.1,0.2h0.9V30.5z"/>
	<path class="st0" d="M215.9,34.6v1h-4.4c0-0.4,0.1-0.8,0.4-1.3c0.2-0.5,0.7-1,1.3-1.7c0.8-0.8,1.3-1.3,1.5-1.8
		c0.2-0.4,0.4-0.8,0.4-1.2c0-0.4-0.1-0.7-0.4-1c-0.2-0.3-0.5-0.4-0.9-0.4c-0.4,0-0.7,0.1-0.9,0.4s-0.4,0.7-0.4,1.2l-0.8-0.1
		c0.1-0.8,0.3-1.4,0.7-1.8c0.4-0.4,0.9-0.6,1.5-0.6c0.7,0,1.2,0.2,1.5,0.7s0.5,1,0.5,1.6c0,0.5-0.1,1-0.4,1.5
		c-0.3,0.5-0.8,1.1-1.6,1.9c-0.5,0.5-0.8,0.8-0.9,1s-0.3,0.4-0.3,0.5H215.9z"/>
	<path class="st0" d="M216.7,31.5c0-1.4,0.2-2.4,0.5-3.1c0.4-0.7,0.9-1,1.6-1c0.6,0,1.1,0.3,1.5,0.9c0.4,0.7,0.7,1.8,0.7,3.3
		c0,1.4-0.2,2.4-0.5,3.1s-0.9,1.1-1.6,1.1c-0.6,0-1.2-0.3-1.6-0.9C216.9,34.1,216.7,33,216.7,31.5z M217.6,31.5
		c0,1.3,0.1,2.2,0.4,2.6c0.3,0.4,0.6,0.7,1,0.7c0.4,0,0.7-0.2,0.9-0.7c0.3-0.5,0.4-1.3,0.4-2.6c0-1.3-0.1-2.2-0.4-2.6
		c-0.3-0.4-0.6-0.7-1-0.7c-0.4,0-0.7,0.2-0.9,0.7C217.7,29.3,217.6,30.2,217.6,31.5z"/>
	<path class="st0" d="M226.2,34.6v1h-4.4c0-0.4,0.1-0.8,0.4-1.3c0.2-0.5,0.7-1,1.3-1.7c0.8-0.8,1.3-1.3,1.5-1.8
		c0.2-0.4,0.4-0.8,0.4-1.2c0-0.4-0.1-0.7-0.4-1c-0.2-0.3-0.5-0.4-0.9-0.4c-0.4,0-0.7,0.1-0.9,0.4c-0.2,0.3-0.4,0.7-0.4,1.2l-0.8-0.1
		c0.1-0.8,0.3-1.4,0.7-1.8c0.4-0.4,0.9-0.6,1.5-0.6c0.7,0,1.2,0.2,1.5,0.7c0.3,0.5,0.5,1,0.5,1.6c0,0.5-0.1,1-0.4,1.5
		c-0.3,0.5-0.8,1.1-1.6,1.9c-0.5,0.5-0.8,0.8-0.9,1c-0.1,0.2-0.3,0.4-0.3,0.5H226.2z"/>
	<path class="st0" d="M230.1,35.5h-0.8v-6.3c-0.2,0.2-0.4,0.4-0.8,0.7c-0.3,0.2-0.6,0.4-0.9,0.5v-1c0.4-0.3,0.8-0.6,1.2-0.9
		c0.3-0.4,0.6-0.7,0.7-1.1h0.5V35.5z"/>
</g>
</svg>
