<?xml version="1.0" encoding="utf-8"?>
<!-- Generator: Adobe Illustrator 19.2.1, SVG Export Plug-In . SVG Version: 6.00 Build 0)  -->
<svg version="1.1" id="Layer_1" xmlns="http://www.w3.org/2000/svg" xmlns:xlink="http://www.w3.org/1999/xlink" x="0px" y="0px"
	 width="300px" height="73.7px" viewBox="0 0 300 73.7" style="enable-background:new 0 0 300 73.7;" xml:space="preserve">
<style type="text/css">
	.st0{fill:#FAAE19;}
</style>
<g>
	<path class="st0" d="M37.7,34.6H30v-2.4c0-1.1-0.1-1.8-0.3-2.1c-0.2-0.3-0.5-0.5-1-0.5c-0.5,0-0.9,0.2-1.1,0.6
		c-0.3,0.4-0.4,1-0.4,1.8c0,1.1,0.1,1.9,0.4,2.4c0.3,0.5,1.1,1.2,2.3,1.9c3.7,2.2,6,4,7,5.4c1,1.4,1.4,3.7,1.4,6.8
		c0,2.3-0.3,3.9-0.8,5c-0.5,1.1-1.6,2-3.1,2.7c-1.5,0.7-3.3,1.1-5.3,1.1c-2.2,0-4.1-0.4-5.7-1.3c-1.6-0.8-2.6-1.9-3.1-3.2
		c-0.5-1.3-0.7-3.1-0.7-5.5v-2.1h7.7v3.9c0,1.2,0.1,2,0.3,2.3c0.2,0.3,0.6,0.5,1.1,0.5s1-0.2,1.2-0.6c0.3-0.4,0.4-1.1,0.4-1.9
		c0-1.9-0.3-3.1-0.8-3.7c-0.5-0.6-1.8-1.5-3.9-2.9c-2.1-1.4-3.4-2.3-4.1-3c-0.7-0.6-1.2-1.5-1.7-2.6c-0.4-1.1-0.7-2.5-0.7-4.2
		c0-2.4,0.3-4.2,0.9-5.3c0.6-1.1,1.6-2,3-2.6c1.4-0.6,3.1-1,5-1c2.1,0,4,0.3,5.5,1c1.5,0.7,2.5,1.6,3,2.6c0.5,1.1,0.7,2.8,0.7,5.4
		V34.6z"/>
	<path class="st0" d="M59.4,25v31.8h-7.2l-4.3-14.5v14.5h-6.9V25h6.9l4.6,14.3V25H59.4z"/>
	<path class="st0" d="M71,25v31.8h-8.3V25H71z"/>
	<path class="st0" d="M94,25l-4.7,14.4l5.2,17.4h-8.5l-3.3-13.6v13.6h-8.3V25h8.3v12.4L86.3,25H94z"/>
	<path class="st0" d="M95.9,25h13.8v6.4h-5.5v6h5.2v6h-5.2v7h6.1v6.4H95.9V25z"/>
	<path class="st0" d="M112.6,25h5.9c3.9,0,6.5,0.2,7.9,0.5c1.4,0.3,2.5,1.1,3.4,2.3c0.9,1.2,1.3,3.2,1.3,5.9c0,2.5-0.3,4.1-0.9,5
		c-0.6,0.9-1.8,1.4-3.6,1.5c1.6,0.4,2.7,0.9,3.3,1.6c0.6,0.7,0.9,1.3,1.1,1.9c0.1,0.6,0.2,2.1,0.2,4.7v8.4h-7.7V46.2
		c0-1.7-0.1-2.8-0.4-3.2c-0.3-0.4-1-0.6-2.1-0.6v14.3h-8.3V25z M120.9,30.4v7.1c0.9,0,1.6-0.1,2-0.4c0.4-0.3,0.6-1.1,0.6-2.5v-1.7
		c0-1-0.2-1.7-0.5-2C122.5,30.6,121.8,30.4,120.9,30.4z"/>
	<path class="st0" d="M151.8,34.6h-7.7v-2.4c0-1.1-0.1-1.8-0.3-2.1c-0.2-0.3-0.5-0.5-1-0.5c-0.5,0-0.9,0.2-1.1,0.6
		c-0.3,0.4-0.4,1-0.4,1.8c0,1.1,0.1,1.9,0.4,2.4c0.3,0.5,1.1,1.2,2.3,1.9c3.7,2.2,6,4,7,5.4c1,1.4,1.4,3.7,1.4,6.8
		c0,2.3-0.3,3.9-0.8,5c-0.5,1.1-1.6,2-3.1,2.7c-1.5,0.7-3.3,1.1-5.3,1.1c-2.2,0-4.1-0.4-5.7-1.3c-1.6-0.8-2.6-1.9-3.1-3.2
		c-0.5-1.3-0.7-3.1-0.7-5.5v-2.1h7.7v3.9c0,1.2,0.1,2,0.3,2.3c0.2,0.3,0.6,0.5,1.1,0.5s1-0.2,1.2-0.6c0.3-0.4,0.4-1.1,0.4-1.9
		c0-1.9-0.3-3.1-0.8-3.7c-0.5-0.6-1.8-1.5-3.9-2.9c-2.1-1.4-3.4-2.3-4.1-3c-0.7-0.6-1.2-1.5-1.7-2.6c-0.4-1.1-0.7-2.5-0.7-4.2
		c0-2.4,0.3-4.2,0.9-5.3c0.6-1.1,1.6-2,3-2.6c1.4-0.6,3.1-1,5-1c2.1,0,4,0.3,5.5,1c1.5,0.7,2.5,1.6,3,2.6c0.5,1.1,0.7,2.8,0.7,5.4
		V34.6z"/>
	<path class="st0" d="M163.4,25v25.4h5v6.4h-13.3V25H163.4z"/>
	<path class="st0" d="M185.7,25l4.7,31.8H182l-0.4-5.7h-3l-0.5,5.7h-8.5l4.2-31.8H185.7z M181.3,45.4c-0.4-3.6-0.8-8.1-1.3-13.4
		c-0.8,6.1-1.4,10.5-1.6,13.4H181.3z"/>
	<path class="st0" d="M210.3,25v31.8H203l-4.3-14.5v14.5h-6.9V25h6.9l4.6,14.3V25H210.3z"/>
	<path class="st0" d="M221.9,25v31.8h-8.3V25H221.9z"/>
	<path class="st0" d="M243.6,25v31.8h-7.2l-4.3-14.5v14.5h-6.9V25h6.9l4.6,14.3V25H243.6z"/>
	<path class="st0" d="M265.9,36.7h-8.3v-2.9c0-1.8-0.1-3-0.2-3.4c-0.2-0.5-0.5-0.7-1.1-0.7c-0.5,0-0.9,0.2-1,0.6s-0.3,1.4-0.3,3
		v15.3c0,1.4,0.1,2.4,0.3,2.8s0.5,0.7,1.1,0.7c0.6,0,1-0.3,1.2-0.8c0.2-0.5,0.3-1.5,0.3-3v-3.8h-1.7v-4.8h9.7v17.1h-5.2l-0.8-2.3
		c-0.6,1-1.3,1.7-2.1,2.2c-0.9,0.5-1.9,0.7-3,0.7c-1.4,0-2.7-0.3-3.9-1s-2.1-1.5-2.8-2.5s-1-2-1.2-3.1c-0.2-1.1-0.2-2.7-0.2-4.9
		v-9.4c0-3,0.2-5.2,0.5-6.6s1.3-2.6,2.8-3.8c1.6-1.1,3.6-1.7,6-1.7c2.4,0,4.4,0.5,6,1.5s2.6,2.2,3.1,3.5c0.5,1.4,0.7,3.4,0.7,6V36.7
		z"/>
	<path class="st0" d="M277.6,25l-1.3,23.9h-6.1L268.9,25H277.6z M277,50.4v6.4h-7.4v-6.4H277z"/>
</g>
</svg>
