<?xml version="1.0" encoding="utf-8"?>
<!-- Generator: Adobe Illustrator 19.2.1, SVG Export Plug-In . SVG Version: 6.00 Build 0)  -->
<svg version="1.1" id="Layer_1" xmlns="http://www.w3.org/2000/svg" xmlns:xlink="http://www.w3.org/1999/xlink" x="0px" y="0px"
	 width="300px" height="40px" viewBox="0 0 300 40" style="enable-background:new 0 0 300 40;" xml:space="preserve">
<style type="text/css">
	.st0{fill:#FCAF17;}
</style>
<g>
	<path class="st0" d="M57,13.6l-1.8,10.9c0,0.2-0.1,0.4-0.1,0.5c0,0.4,0.2,0.6,0.5,0.6c0.6,0,1.2-0.2,1.8-0.8
		c0.6-0.6,1.2-1.3,1.7-2.4c0.5-1,0.7-2.3,0.7-3.6c0-2.4-0.7-4.3-2.1-5.7c-1.4-1.4-3.2-2.2-5.5-2.2c-2.7,0-4.8,0.9-6.6,2.8
		s-2.6,4.3-2.6,7.4c0,2.9,0.9,5.3,2.5,7c1.7,1.7,3.9,2.6,6.5,2.6c1.3,0,2.5-0.2,3.6-0.6c1.2-0.4,2.3-1.1,3.3-1.9h2.9
		c-1.1,1.5-2.6,2.6-4.3,3.4c-1.7,0.8-3.6,1.2-5.4,1.2c-3.2,0-5.8-1-7.9-3.2S41,24.6,41,21.1s0.9-6.3,2.9-8.7s4.7-3.6,8.2-3.6
		c2.1,0,3.8,0.4,5.1,1.2c1.3,0.8,2.5,1.9,3.3,3.4c0.9,1.4,1.3,3.2,1.3,5.4c0,2.8-0.8,5.1-2.4,6.6c-1.6,1.7-3.2,2.5-4.7,2.5
		c-1.2,0-1.9-0.6-2.1-1.6c-0.6,0.6-1.2,1-1.7,1.3c-0.5,0.2-1,0.3-1.7,0.3c-1.3,0-2.5-0.6-3.3-1.6c-0.8-1.1-1.3-2.5-1.3-4.3
		c0-2.3,0.6-4.3,1.7-6.2c1.2-1.8,2.5-2.7,4.2-2.7c0.6,0,1.3,0.2,1.8,0.5c0.6,0.3,1,0.8,1.4,1.5l0.2-1.6H57z M47.7,22.8
		c0,0.9,0.2,1.6,0.6,2.2c0.4,0.6,0.9,0.9,1.5,0.9c0.6,0,1.1-0.2,1.6-0.7c0.5-0.5,0.9-1.4,1.3-2.9c0.4-1.4,0.6-2.8,0.6-4.2
		c0-0.8-0.2-1.5-0.6-2c-0.3-0.5-0.8-0.8-1.4-0.8c-1.1,0-2,0.8-2.6,2.4C48,19.2,47.7,21,47.7,22.8z"/>
	<path class="st0" d="M75.9,16.1h-5.4v-1.7c0-0.8-0.1-1.3-0.2-1.5c-0.2-0.2-0.4-0.3-0.7-0.3s-0.6,0.2-0.8,0.4
		c-0.2,0.3-0.2,0.7-0.2,1.3c0,0.7,0.1,1.3,0.3,1.7c0.2,0.4,0.7,0.9,1.7,1.3c2.6,1.5,4.2,2.8,4.9,3.8c0.6,0.9,1,2.6,1,4.7
		c0,1.6-0.2,2.8-0.6,3.6s-1.1,1.4-2.1,1.9C72.6,31.7,71.4,32,70,32c-1.6,0-2.8-0.3-4-0.9c-1.1-0.6-1.8-1.3-2.1-2.2s-0.5-2.2-0.5-3.9
		v-1.5h5.1v2.7c0,0.9,0.1,1.3,0.2,1.6c0.2,0.2,0.4,0.4,0.8,0.4s0.7-0.2,0.9-0.5c0.2-0.3,0.3-0.8,0.3-1.3c0-1.3-0.2-2.2-0.6-2.6
		c-0.4-0.4-1.3-1.1-2.7-2.1c-1.4-0.9-2.4-1.7-2.8-2.1c-0.5-0.4-0.9-1-1.2-1.8c-0.3-0.8-0.5-1.6-0.5-2.8c0-1.7,0.2-2.9,0.6-3.7
		c0.5-0.8,1.1-1.4,2.1-1.8C66.8,9.1,68,9,69.4,9c1.5,0,2.8,0.2,3.9,0.7c1,0.5,1.7,1.1,2.1,1.8c0.4,0.7,0.6,2,0.6,3.8L75.9,16.1
		L75.9,16.1z"/>
	<path class="st0" d="M91.1,9.3v22.4h-5.1l-3-10.2v10.2h-4.8V9.3h4.8l3.2,10v-10H91.1z"/>
	<path class="st0" d="M99.3,9.3v22.4h-5.8V9.3H99.3z"/>
	<path class="st0" d="M115.1,19h-5.8v-3.9c0-1.1-0.1-1.8-0.2-2.1c-0.2-0.3-0.4-0.4-0.8-0.4c-0.5,0-0.8,0.2-0.9,0.5
		c-0.2,0.3-0.2,1.1-0.2,2.2v10.4c0,1.1,0.1,1.8,0.2,2.1c0.2,0.3,0.4,0.5,0.9,0.5c0.4,0,0.7-0.2,0.9-0.5c0.2-0.3,0.2-1.1,0.2-2.4
		v-2.8h5.8v1c0,2.3-0.2,4-0.5,4.9s-1,1.8-2.1,2.5s-2.5,1.1-4.1,1.1c-1.7,0-3.1-0.3-4.2-0.9c-1.1-0.6-1.8-1.5-2.2-2.5
		c-0.4-1.1-0.6-2.8-0.6-4.9v-6.6c0-1.6,0.1-2.8,0.2-3.6c0.1-0.8,0.5-1.6,0.9-2.3c0.6-0.7,1.3-1.3,2.3-1.7c0.9-0.4,2.1-0.6,3.3-0.6
		c1.7,0,3.2,0.3,4.3,1c1.1,0.7,1.8,1.5,2.2,2.5c0.4,0.9,0.6,2.5,0.6,4.6V19H115.1z"/>
	<path class="st0" d="M131.1,9.3l-3.3,10.1l3.6,12.3h-6l-2.4-9.6v9.6h-5.8V9.3h5.8V18l2.6-8.7C125.7,9.3,131.1,9.3,131.1,9.3z"/>
	<path class="st0" d="M132.4,9.3h9.7v4.5h-3.9V18h3.6v4.3h-3.6v4.9h4.3v4.5h-10L132.4,9.3L132.4,9.3z"/>
	<path class="st0" d="M144.2,9.3h4.1c2.8,0,4.6,0.1,5.5,0.3c0.9,0.2,1.7,0.8,2.4,1.7s0.9,2.3,0.9,4.2c0,1.7-0.2,2.9-0.6,3.5
		c-0.4,0.6-1.3,0.9-2.5,1.1c1.2,0.3,1.9,0.6,2.3,1.1c0.4,0.5,0.6,0.9,0.7,1.3c0.1,0.4,0.2,1.5,0.2,3.3v5.9h-5.4v-7.4
		c0-1.2-0.1-2-0.3-2.2c-0.2-0.3-0.7-0.4-1.5-0.4v10h-5.8L144.2,9.3L144.2,9.3z M150,13.1V18c0.6,0,1.1-0.1,1.3-0.2
		c0.2-0.2,0.4-0.8,0.4-1.7v-1.3c0-0.7-0.2-1.2-0.4-1.4C151.1,13.2,150.6,13.1,150,13.1z"/>
	<path class="st0" d="M171.7,16.1h-5.4v-1.7c0-0.8-0.1-1.3-0.2-1.5c-0.2-0.2-0.4-0.3-0.7-0.3s-0.6,0.2-0.8,0.4
		c-0.2,0.3-0.2,0.7-0.2,1.3c0,0.7,0.1,1.3,0.3,1.7c0.2,0.4,0.7,0.9,1.7,1.3c2.6,1.5,4.2,2.8,4.9,3.8c0.6,0.9,1,2.6,1,4.7
		c0,1.6-0.2,2.8-0.6,3.6c-0.4,0.8-1.1,1.4-2.1,1.9c-1.1,0.5-2.3,0.8-3.7,0.8c-1.6,0-2.8-0.3-4-0.9c-1.1-0.6-1.8-1.3-2.1-2.2
		s-0.5-2.2-0.5-3.9v-1.5h5.4v2.7c0,0.9,0.1,1.3,0.2,1.6s0.4,0.4,0.8,0.4c0.4,0,0.7-0.2,0.9-0.5s0.3-0.8,0.3-1.3
		c0-1.3-0.2-2.2-0.6-2.6c-0.4-0.4-1.3-1.1-2.7-2.1c-1.4-0.9-2.4-1.7-2.8-2.1c-0.5-0.4-0.9-1-1.2-1.8c-0.3-0.8-0.5-1.7-0.5-2.9
		c0-1.7,0.2-2.9,0.6-3.7c0.5-0.8,1.1-1.4,2.1-1.8c0.9-0.5,2.1-0.6,3.6-0.6c1.5,0,2.8,0.2,3.9,0.7c1,0.5,1.7,1.1,2.1,1.8
		c0.4,0.7,0.6,2,0.6,3.8v0.9H171.7z"/>
	<path class="st0" d="M172.7,33.8h16v1.4h-16V33.8z"/>
	<path class="st0" d="M202.8,9.3v14.9c0,1.7-0.1,2.8-0.2,3.6c-0.1,0.7-0.5,1.4-0.9,2.1c-0.6,0.7-1.3,1.3-2.1,1.7
		c-0.9,0.4-1.9,0.6-3.2,0.6c-1.3,0-2.5-0.2-3.6-0.6c-1-0.5-1.8-1-2.3-1.7c-0.5-0.7-0.8-1.4-0.9-2.2c-0.1-0.8-0.2-2.5-0.2-5V9.3h5.8
		V26c0,0.9,0.1,1.6,0.2,1.9c0.1,0.2,0.3,0.4,0.6,0.4c0.4,0,0.6-0.2,0.7-0.5s0.2-1,0.2-2.1V9.3H202.8z"/>
	<path class="st0" d="M214.8,9.3v4.5l-4.3,13.4h4.3v4.5h-10.7v-3.2l4.5-14.6h-4V9.3H214.8z"/>
	<path class="st0" d="M216.3,9.3h5.8c1.8,0,3.2,0.2,4.2,0.4c0.9,0.3,1.7,0.9,2.3,1.7c0.6,0.9,0.9,2.3,0.9,4.2c0,1.3-0.2,2.2-0.6,2.8
		c-0.4,0.6-1.2,0.9-2.5,1.2c1.3,0.3,2.3,0.8,2.8,1.5c0.5,0.7,0.7,1.8,0.7,3.2v2.1c0,1.5-0.2,2.6-0.6,3.3c-0.4,0.7-0.9,1.2-1.7,1.5
		c-0.8,0.2-2.3,0.4-4.7,0.4h-6.7L216.3,9.3L216.3,9.3z M222.1,13.1V18c0.2,0,0.5,0,0.6,0c0.6,0,0.9-0.2,1.1-0.4
		c0.2-0.3,0.2-1.1,0.2-2.4c0-0.7-0.1-1.2-0.2-1.5c-0.2-0.3-0.3-0.5-0.5-0.6C223.1,13.1,222.7,13.1,222.1,13.1z M222.1,21.5v6.2
		c0.8,0,1.3-0.2,1.6-0.4c0.2-0.2,0.3-0.8,0.3-1.7v-2.1c0-0.9-0.1-1.5-0.3-1.7C223.4,21.7,223,21.6,222.1,21.5z"/>
	<path class="st0" d="M245.2,22.4c0,2.2-0.1,3.9-0.2,4.7c-0.1,0.9-0.5,1.8-1,2.5c-0.6,0.7-1.3,1.3-2.3,1.8c-0.9,0.4-2.1,0.6-3.3,0.6
		c-1.2,0-2.3-0.2-3.2-0.6c-0.9-0.4-1.7-0.9-2.3-1.7c-0.6-0.8-0.9-1.7-1-2.5c-0.1-0.9-0.2-2.5-0.2-4.8v-3.8c0-2.2,0.1-3.9,0.2-4.7
		c0.1-0.9,0.5-1.8,1-2.5c0.6-0.8,1.3-1.3,2.3-1.8c0.9-0.4,2.1-0.6,3.3-0.6c1.2,0,2.3,0.2,3.2,0.6c0.9,0.4,1.7,0.9,2.3,1.7
		c0.6,0.8,0.9,1.7,1,2.5s0.2,2.5,0.2,4.8V22.4z M239.3,15c0-1-0.1-1.7-0.2-2c-0.1-0.2-0.3-0.5-0.7-0.5c-0.3,0-0.6,0.1-0.7,0.3
		c-0.2,0.2-0.2,0.9-0.2,2.1v10.4c0,1.3,0.1,2.1,0.2,2.4c0.1,0.2,0.3,0.5,0.7,0.5c0.4,0,0.6-0.2,0.8-0.6s0.2-1.2,0.2-2.5L239.3,15
		L239.3,15z"/>
	<path class="st0" d="M259,9.3v4.5h-3.5v17.9h-5.8V13.8h-3.4V9.3H259z"/>
</g>
</svg>
