<?xml version="1.0" encoding="utf-8"?>
<!-- Generator: Adobe Illustrator 19.2.1, SVG Export Plug-In . SVG Version: 6.00 Build 0)  -->
<svg version="1.1" id="Layer_1" xmlns="http://www.w3.org/2000/svg" xmlns:xlink="http://www.w3.org/1999/xlink" x="0px" y="0px"
	 width="300px" height="54px" viewBox="0 0 300 54" style="enable-background:new 0 0 300 54;" xml:space="preserve">
<style type="text/css">
	.st0{fill:#FFFFFF;}
</style>
<g>
	<path class="st0" d="M5.9,9.1h3.8c2.4,0,4.1,0.1,5,0.3s1.5,0.6,2,1.1c0.4,0.5,0.7,1.1,0.8,1.7c0.1,0.6,0.2,1.9,0.2,3.7v6.8
		c0,1.8-0.1,2.9-0.2,3.5c-0.2,0.6-0.5,1.1-0.9,1.4c-0.4,0.3-0.9,0.6-1.5,0.7c-0.6,0.1-1.5,0.2-2.7,0.2H5.9V9.1z M11,12.4v12.8
		c0.7,0,1.2-0.1,1.3-0.4s0.3-1.1,0.3-2.4v-7.6c0-0.9,0-1.4-0.1-1.7c-0.1-0.2-0.2-0.4-0.4-0.5C11.9,12.5,11.5,12.4,11,12.4z"/>
	<path class="st0" d="M28.3,9.1l2.9,19.5H26l-0.3-3.5h-1.8l-0.3,3.5h-5.2l2.6-19.5H28.3z M25.6,21.6c-0.3-2.2-0.5-4.9-0.8-8.2
		c-0.5,3.7-0.8,6.5-1,8.2H25.6z"/>
	<path class="st0" d="M47.1,15h-4.7v-1.4c0-0.7-0.1-1.1-0.2-1.3c-0.1-0.2-0.3-0.3-0.6-0.3c-0.3,0-0.5,0.1-0.7,0.4
		c-0.2,0.2-0.2,0.6-0.2,1.1c0,0.7,0.1,1.1,0.3,1.5c0.2,0.3,0.6,0.7,1.4,1.2c2.3,1.3,3.7,2.4,4.3,3.3c0.6,0.9,0.9,2.2,0.9,4.2
		c0,1.4-0.2,2.4-0.5,3.1s-1,1.2-1.9,1.7s-2,0.7-3.3,0.7c-1.4,0-2.5-0.3-3.5-0.8c-1-0.5-1.6-1.2-1.9-2c-0.3-0.8-0.4-1.9-0.4-3.4v-1.3
		h4.7V24c0,0.7,0.1,1.2,0.2,1.4c0.1,0.2,0.4,0.3,0.7,0.3c0.3,0,0.6-0.1,0.8-0.4c0.2-0.3,0.2-0.7,0.2-1.2c0-1.1-0.2-1.9-0.5-2.3
		c-0.3-0.4-1.1-0.9-2.4-1.8c-1.3-0.8-2.1-1.4-2.5-1.8c-0.4-0.4-0.7-0.9-1-1.6S36,15.2,36,14.2c0-1.5,0.2-2.6,0.6-3.3
		c0.4-0.7,1-1.2,1.8-1.6s1.9-0.6,3.1-0.6c1.3,0,2.4,0.2,3.4,0.6c0.9,0.4,1.5,1,1.8,1.6c0.3,0.6,0.5,1.7,0.5,3.3V15z"/>
	<path class="st0" d="M60.7,20.5c0,2,0,3.3-0.1,4.2c-0.1,0.8-0.4,1.6-0.9,2.2c-0.5,0.7-1.1,1.2-2,1.6c-0.8,0.4-1.8,0.5-2.9,0.5
		c-1,0-2-0.2-2.8-0.5c-0.8-0.3-1.5-0.9-2-1.5c-0.5-0.7-0.8-1.4-0.9-2.2C49,23.9,49,22.5,49,20.5v-3.3c0-2,0-3.3,0.1-4.2
		s0.4-1.6,0.9-2.2c0.5-0.7,1.1-1.2,2-1.6c0.8-0.4,1.8-0.5,2.9-0.5c1,0,2,0.2,2.8,0.5c0.8,0.3,1.5,0.9,2,1.5c0.5,0.7,0.8,1.4,0.9,2.2
		s0.1,2.2,0.1,4.2V20.5z M55.6,14.1c0-0.9-0.1-1.5-0.2-1.7c-0.1-0.3-0.3-0.4-0.6-0.4c-0.3,0-0.5,0.1-0.6,0.3
		c-0.1,0.2-0.2,0.8-0.2,1.8v9.1c0,1.1,0,1.8,0.1,2.1c0.1,0.3,0.3,0.4,0.6,0.4c0.3,0,0.6-0.2,0.7-0.5c0.1-0.3,0.1-1,0.1-2.2V14.1z"/>
	<path class="st0" d="M74.7,9.1l-2.6,19.5h-7.7L61.4,9.1h5.3c0.6,5.4,1.1,9.9,1.3,13.6c0.3-3.8,0.5-7.1,0.8-10l0.4-3.6H74.7z"/>
	<path class="st0" d="M87.1,16.3h-5.1v-1.8c0-1.1,0-1.8-0.1-2.1S81.6,12,81.2,12c-0.3,0-0.5,0.1-0.6,0.4c-0.1,0.2-0.2,0.9-0.2,1.9
		v9.4c0,0.9,0.1,1.5,0.2,1.7c0.1,0.3,0.3,0.4,0.7,0.4c0.4,0,0.6-0.2,0.8-0.5c0.1-0.3,0.2-0.9,0.2-1.8v-2.3h-1v-3h5.9v10.5H84
		l-0.5-1.4c-0.3,0.6-0.8,1.1-1.3,1.4C81.6,28.9,81,29,80.3,29c-0.9,0-1.6-0.2-2.4-0.6c-0.7-0.4-1.3-0.9-1.7-1.5
		c-0.4-0.6-0.6-1.3-0.7-1.9c-0.1-0.7-0.1-1.7-0.1-3v-5.8c0-1.9,0.1-3.2,0.3-4.1c0.2-0.8,0.8-1.6,1.7-2.3c1-0.7,2.2-1.1,3.7-1.1
		c1.5,0,2.7,0.3,3.7,0.9c1,0.6,1.6,1.3,1.9,2.2c0.3,0.8,0.4,2.1,0.4,3.7V16.3z"/>
	<path class="st0" d="M88.1,7.3h4.3l2.1,3.3H92L88.1,7.3z"/>
	<path class="st0" d="M106.1,9.1l2.9,19.5h-5.2l-0.3-3.5h-1.8l-0.3,3.5h-5.2l2.6-19.5H106.1z M103.4,21.6c-0.3-2.2-0.5-4.9-0.8-8.2
		c-0.5,3.7-0.8,6.5-1,8.2H103.4z"/>
	<path class="st0" d="M114.9,9.1v15.6h3.1v3.9h-8.2V9.1H114.9z"/>
	<path class="st0" d="M128.6,9.1l2.9,19.5h-5.2l-0.3-3.5h-1.8l-0.3,3.5h-5.2l2.6-19.5H128.6z M125.9,21.6c-0.3-2.2-0.5-4.9-0.8-8.2
		c-0.5,3.7-0.8,6.5-1,8.2H125.9z"/>
	<path class="st0" d="M132.4,9.1h3.6c2.4,0,4,0.1,4.9,0.3c0.8,0.2,1.5,0.7,2.1,1.4c0.5,0.8,0.8,2,0.8,3.6c0,1.5-0.2,2.5-0.6,3.1
		c-0.4,0.5-1.1,0.8-2.2,0.9c1,0.2,1.7,0.6,2,1s0.6,0.8,0.6,1.1c0.1,0.3,0.1,1.3,0.1,2.9v5.1H139v-6.5c0-1-0.1-1.7-0.2-1.9
		c-0.2-0.2-0.6-0.4-1.3-0.4v8.8h-5.1V9.1z M137.4,12.4v4.3c0.6,0,1-0.1,1.2-0.2c0.2-0.2,0.3-0.7,0.3-1.5v-1.1c0-0.6-0.1-1-0.3-1.2
		C138.4,12.5,138,12.4,137.4,12.4z"/>
	<path class="st0" d="M157,9.1v19.5h-4.4l-2.6-8.9v8.9h-4.2V9.1h4.2l2.8,8.8V9.1H157z"/>
	<path class="st0" d="M164.1,9.1v19.5H159V9.1H164.1z"/>
	<path class="st0" d="M181.2,9.1l-3.7,12.4v7.1h-4.7v-7.1l-3.6-12.4h4.7c0.7,3.8,1.1,6.4,1.2,7.7c0.3-2.1,0.8-4.6,1.4-7.7H181.2z"/>
	<path class="st0" d="M193.6,9.1v13c0,1.5,0,2.5-0.1,3.1c-0.1,0.6-0.4,1.2-0.9,1.8c-0.5,0.6-1.1,1.1-1.9,1.4S189.1,29,188,29
		c-1.2,0-2.2-0.2-3.1-0.6c-0.9-0.4-1.6-0.9-2-1.5s-0.7-1.3-0.8-2s-0.1-2.1-0.1-4.3V9.1h5.1v14.6c0,0.9,0,1.4,0.1,1.6
		c0.1,0.2,0.3,0.4,0.6,0.4c0.3,0,0.5-0.1,0.6-0.4c0.1-0.3,0.1-0.9,0.1-1.8V9.1H193.6z"/>
	<path class="st0" d="M205.8,9.1V13h-3v15.6h-5.1V13h-3V9.1H205.8z"/>
	<path class="st0" d="M212,9.1v19.5H207V9.1H212z"/>
	<path class="st0" d="M214.1,9.1h5.1c1.6,0,2.8,0.1,3.6,0.4c0.8,0.2,1.5,0.8,2,1.5c0.5,0.8,0.8,2,0.8,3.7c0,1.1-0.2,1.9-0.5,2.4
		c-0.4,0.4-1.1,0.8-2.1,1c1.2,0.3,2,0.7,2.4,1.3c0.4,0.6,0.6,1.6,0.6,2.8V24c0,1.3-0.2,2.3-0.5,2.9c-0.3,0.6-0.8,1.1-1.4,1.3
		c-0.7,0.2-2,0.3-4,0.3h-5.9V9.1z M219.1,12.4v4.3c0.2,0,0.4,0,0.5,0c0.5,0,0.8-0.1,1-0.4c0.1-0.2,0.2-0.9,0.2-2.1
		c0-0.6-0.1-1-0.2-1.3c-0.1-0.2-0.3-0.4-0.4-0.5C220,12.5,219.6,12.4,219.1,12.4z M219.1,19.8v5.5c0.7,0,1.2-0.1,1.4-0.3
		s0.3-0.7,0.3-1.5v-1.8c0-0.8-0.1-1.3-0.3-1.5C220.3,19.9,219.9,19.8,219.1,19.8z"/>
	<path class="st0" d="M243.6,20.5c0,2,0,3.3-0.1,4.2c-0.1,0.8-0.4,1.6-0.9,2.2s-1.1,1.2-2,1.6c-0.8,0.4-1.8,0.5-2.9,0.5
		c-1,0-2-0.2-2.8-0.5c-0.8-0.3-1.5-0.9-2-1.5s-0.8-1.4-0.9-2.2c-0.1-0.8-0.1-2.2-0.1-4.2v-3.3c0-2,0-3.3,0.1-4.2
		c0.1-0.8,0.4-1.6,0.9-2.2s1.1-1.2,2-1.6c0.8-0.4,1.8-0.5,2.9-0.5c1,0,2,0.2,2.8,0.5s1.5,0.9,2,1.5c0.5,0.7,0.8,1.4,0.9,2.2
		c0.1,0.8,0.1,2.2,0.1,4.2V20.5z M238.5,14.1c0-0.9,0-1.5-0.2-1.7c-0.1-0.3-0.3-0.4-0.6-0.4c-0.3,0-0.5,0.1-0.6,0.3
		c-0.1,0.2-0.2,0.8-0.2,1.8v9.1c0,1.1,0,1.8,0.1,2.1c0.1,0.3,0.3,0.4,0.6,0.4c0.3,0,0.6-0.2,0.7-0.5c0.1-0.3,0.1-1,0.1-2.2V14.1z"/>
	<path class="st0" d="M250.6,9.1v15.6h3.1v3.9h-8.2V9.1H250.6z"/>
	<path class="st0" d="M259.9,9.1v19.5h-5.1V9.1H259.9z"/>
	<path class="st0" d="M273.3,9.1v19.5h-4.4l-2.6-8.9v8.9H262V9.1h4.2l2.8,8.8V9.1H273.3z"/>
	<path class="st0" d="M287,16.3h-5.1v-1.8c0-1.1,0-1.8-0.1-2.1c-0.1-0.3-0.3-0.4-0.7-0.4c-0.3,0-0.5,0.1-0.6,0.4
		c-0.1,0.2-0.2,0.9-0.2,1.9v9.4c0,0.9,0.1,1.5,0.2,1.7s0.3,0.4,0.7,0.4c0.4,0,0.6-0.2,0.8-0.5c0.1-0.3,0.2-0.9,0.2-1.8v-2.3h-1v-3
		h5.9v10.5h-3.2l-0.5-1.4c-0.3,0.6-0.8,1.1-1.3,1.4c-0.5,0.3-1.1,0.5-1.9,0.5c-0.9,0-1.6-0.2-2.4-0.6s-1.3-0.9-1.7-1.5
		s-0.6-1.3-0.7-1.9c-0.1-0.7-0.1-1.7-0.1-3v-5.8c0-1.9,0.1-3.2,0.3-4.1c0.2-0.8,0.8-1.6,1.7-2.3c1-0.7,2.2-1.1,3.7-1.1
		c1.5,0,2.7,0.3,3.7,0.9s1.6,1.3,1.9,2.2c0.3,0.8,0.4,2.1,0.4,3.7V16.3z"/>
	<path class="st0" d="M294.1,9.1l-0.8,14.7h-3.8l-0.8-14.7H294.1z M293.7,24.7v3.9h-4.6v-3.9H293.7z"/>
</g>
</svg>
